%TF.GenerationSoftware,KiCad,Pcbnew,(7.0.0)*%
%TF.CreationDate,2023-12-15T13:48:25-05:00*%
%TF.ProjectId,ECE4760 Motor Driver,45434534-3736-4302-904d-6f746f722044,0*%
%TF.SameCoordinates,Original*%
%TF.FileFunction,Paste,Top*%
%TF.FilePolarity,Positive*%
%FSLAX46Y46*%
G04 Gerber Fmt 4.6, Leading zero omitted, Abs format (unit mm)*
G04 Created by KiCad (PCBNEW (7.0.0)) date 2023-12-15 13:48:25*
%MOMM*%
%LPD*%
G01*
G04 APERTURE LIST*
G04 Aperture macros list*
%AMRoundRect*
0 Rectangle with rounded corners*
0 $1 Rounding radius*
0 $2 $3 $4 $5 $6 $7 $8 $9 X,Y pos of 4 corners*
0 Add a 4 corners polygon primitive as box body*
4,1,4,$2,$3,$4,$5,$6,$7,$8,$9,$2,$3,0*
0 Add four circle primitives for the rounded corners*
1,1,$1+$1,$2,$3*
1,1,$1+$1,$4,$5*
1,1,$1+$1,$6,$7*
1,1,$1+$1,$8,$9*
0 Add four rect primitives between the rounded corners*
20,1,$1+$1,$2,$3,$4,$5,0*
20,1,$1+$1,$4,$5,$6,$7,0*
20,1,$1+$1,$6,$7,$8,$9,0*
20,1,$1+$1,$8,$9,$2,$3,0*%
%AMRotRect*
0 Rectangle, with rotation*
0 The origin of the aperture is its center*
0 $1 length*
0 $2 width*
0 $3 Rotation angle, in degrees counterclockwise*
0 Add horizontal line*
21,1,$1,$2,0,0,$3*%
G04 Aperture macros list end*
%ADD10R,1.000000X0.600000*%
%ADD11R,0.350000X0.650000*%
%ADD12R,0.650000X1.090000*%
%ADD13R,0.650000X0.440000*%
%ADD14R,1.900000X2.800000*%
%ADD15R,0.300000X0.350000*%
%ADD16RoundRect,0.135000X0.185000X-0.135000X0.185000X0.135000X-0.185000X0.135000X-0.185000X-0.135000X0*%
%ADD17RoundRect,0.140000X0.140000X0.170000X-0.140000X0.170000X-0.140000X-0.170000X0.140000X-0.170000X0*%
%ADD18RoundRect,0.140000X-0.170000X0.140000X-0.170000X-0.140000X0.170000X-0.140000X0.170000X0.140000X0*%
%ADD19R,0.800000X1.070000*%
%ADD20RotRect,0.282800X0.282800X315.000000*%
%ADD21R,0.600000X0.200000*%
%ADD22R,0.850000X0.300000*%
%ADD23R,0.300000X0.800000*%
%ADD24R,0.300000X0.850000*%
%ADD25R,0.650000X1.050000*%
%ADD26RoundRect,0.140000X-0.140000X-0.170000X0.140000X-0.170000X0.140000X0.170000X-0.140000X0.170000X0*%
%ADD27RoundRect,0.135000X-0.185000X0.135000X-0.185000X-0.135000X0.185000X-0.135000X0.185000X0.135000X0*%
%ADD28RoundRect,0.135000X0.135000X0.185000X-0.135000X0.185000X-0.135000X-0.185000X0.135000X-0.185000X0*%
%ADD29RoundRect,0.218750X-0.218750X-0.256250X0.218750X-0.256250X0.218750X0.256250X-0.218750X0.256250X0*%
%ADD30RoundRect,0.225000X-0.225000X-0.250000X0.225000X-0.250000X0.225000X0.250000X-0.225000X0.250000X0*%
%ADD31RoundRect,0.225000X0.225000X0.250000X-0.225000X0.250000X-0.225000X-0.250000X0.225000X-0.250000X0*%
%ADD32RoundRect,0.135000X-0.135000X-0.185000X0.135000X-0.185000X0.135000X0.185000X-0.135000X0.185000X0*%
%ADD33RoundRect,0.140000X0.170000X-0.140000X0.170000X0.140000X-0.170000X0.140000X-0.170000X-0.140000X0*%
%ADD34RoundRect,0.250000X-0.375000X-0.850000X0.375000X-0.850000X0.375000X0.850000X-0.375000X0.850000X0*%
%ADD35RoundRect,0.225000X0.250000X-0.225000X0.250000X0.225000X-0.250000X0.225000X-0.250000X-0.225000X0*%
%ADD36RoundRect,0.167500X0.167500X0.312500X-0.167500X0.312500X-0.167500X-0.312500X0.167500X-0.312500X0*%
%ADD37RoundRect,0.062500X0.362500X0.062500X-0.362500X0.062500X-0.362500X-0.062500X0.362500X-0.062500X0*%
%ADD38RoundRect,0.250000X0.250000X0.475000X-0.250000X0.475000X-0.250000X-0.475000X0.250000X-0.475000X0*%
%ADD39RoundRect,0.250000X-0.250000X-0.475000X0.250000X-0.475000X0.250000X0.475000X-0.250000X0.475000X0*%
%ADD40RoundRect,0.150000X-0.825000X-0.150000X0.825000X-0.150000X0.825000X0.150000X-0.825000X0.150000X0*%
%ADD41RoundRect,0.200000X0.250000X-0.200000X0.250000X0.200000X-0.250000X0.200000X-0.250000X-0.200000X0*%
%ADD42RoundRect,0.075000X-0.662500X-0.075000X0.662500X-0.075000X0.662500X0.075000X-0.662500X0.075000X0*%
%ADD43RoundRect,0.075000X-0.075000X-0.662500X0.075000X-0.662500X0.075000X0.662500X-0.075000X0.662500X0*%
%ADD44RoundRect,0.250000X0.475000X-0.250000X0.475000X0.250000X-0.475000X0.250000X-0.475000X-0.250000X0*%
%ADD45RoundRect,0.150000X-0.512500X-0.150000X0.512500X-0.150000X0.512500X0.150000X-0.512500X0.150000X0*%
G04 APERTURE END LIST*
D10*
%TO.C,U2*%
X88599999Y-67012499D03*
X89799999Y-67012499D03*
X88599999Y-67787499D03*
X89799999Y-67787499D03*
D11*
X90174999Y-65849999D03*
X89524999Y-65849999D03*
X88874999Y-65849999D03*
X88224999Y-65849999D03*
X88224999Y-68949999D03*
X88874999Y-68949999D03*
X89524999Y-68949999D03*
X90174999Y-68949999D03*
%TD*%
D12*
%TO.C,Q1*%
X100524999Y-48749999D03*
D13*
X100524999Y-49724999D03*
X100524999Y-50374999D03*
X103474999Y-50374999D03*
X103474999Y-49724999D03*
X103474999Y-49074999D03*
X103474999Y-48424999D03*
D14*
X101999999Y-49399999D03*
D15*
X101409999Y-50974999D03*
X102589999Y-50974999D03*
X102589999Y-47824999D03*
X101409999Y-47824999D03*
%TD*%
D16*
%TO.C,R24*%
X83200001Y-65310000D03*
X83200001Y-64290000D03*
%TD*%
D17*
%TO.C,C28*%
X110080000Y-57100000D03*
X109120000Y-57100000D03*
%TD*%
D18*
%TO.C,C4*%
X87200000Y-63220000D03*
X87200000Y-64180000D03*
%TD*%
D19*
%TO.C,U6*%
X106999999Y-49179999D03*
D20*
X107199999Y-49714999D03*
D21*
X106899999Y-49814999D03*
D19*
X105999999Y-49179999D03*
D20*
X105799999Y-49714999D03*
D21*
X106099999Y-49814999D03*
D22*
X105049999Y-50729999D03*
X105049999Y-51229999D03*
D23*
X105749999Y-51979999D03*
D24*
X106249999Y-51929999D03*
X106749999Y-51929999D03*
D23*
X107249999Y-51979999D03*
D22*
X107949999Y-51229999D03*
X107949999Y-50729999D03*
%TD*%
D16*
%TO.C,R27*%
X86200000Y-65310000D03*
X86200000Y-64290000D03*
%TD*%
D25*
%TO.C,SW3*%
X73224999Y-59074999D03*
X73224999Y-54924999D03*
X75374999Y-59074999D03*
X75374999Y-54924999D03*
%TD*%
D26*
%TO.C,C32*%
X96720000Y-60700000D03*
X97680000Y-60700000D03*
%TD*%
D27*
%TO.C,R33*%
X77300000Y-47890000D03*
X77300000Y-48910000D03*
%TD*%
D28*
%TO.C,R7*%
X97710000Y-54300000D03*
X96690000Y-54300000D03*
%TD*%
D16*
%TO.C,R14*%
X78800000Y-65610000D03*
X78800000Y-64590000D03*
%TD*%
D29*
%TO.C,D1*%
X73412500Y-76000000D03*
X74987500Y-76000000D03*
%TD*%
D17*
%TO.C,C20*%
X110080000Y-50700000D03*
X109120000Y-50700000D03*
%TD*%
D25*
%TO.C,SW2*%
X73224999Y-65074999D03*
X73224999Y-60924999D03*
X75374999Y-65074999D03*
X75374999Y-60924999D03*
%TD*%
D16*
%TO.C,R25*%
X85200000Y-65310000D03*
X85200000Y-64290000D03*
%TD*%
D26*
%TO.C,C36*%
X96720000Y-67100000D03*
X97680000Y-67100000D03*
%TD*%
D28*
%TO.C,R2*%
X89010000Y-51300000D03*
X87990000Y-51300000D03*
%TD*%
D16*
%TO.C,R17*%
X77500000Y-61810000D03*
X77500000Y-60790000D03*
%TD*%
D30*
%TO.C,C23*%
X100325000Y-52100000D03*
X101875000Y-52100000D03*
%TD*%
D16*
%TO.C,R16*%
X80100000Y-65610000D03*
X80100000Y-64590000D03*
%TD*%
D30*
%TO.C,C37*%
X100325000Y-62900000D03*
X101875000Y-62900000D03*
%TD*%
D31*
%TO.C,C12*%
X89975000Y-70300000D03*
X88425000Y-70300000D03*
%TD*%
D28*
%TO.C,R11*%
X97710000Y-65100000D03*
X96690000Y-65100000D03*
%TD*%
D18*
%TO.C,C2*%
X77700000Y-54320000D03*
X77700000Y-55280000D03*
%TD*%
D30*
%TO.C,C16*%
X100325000Y-46700000D03*
X101875000Y-46700000D03*
%TD*%
D28*
%TO.C,R5*%
X97710000Y-48900000D03*
X96690000Y-48900000D03*
%TD*%
D26*
%TO.C,C40*%
X106020000Y-64000000D03*
X106980000Y-64000000D03*
%TD*%
D25*
%TO.C,SW1*%
X73224999Y-71074999D03*
X73224999Y-66924999D03*
X75374999Y-71074999D03*
X75374999Y-66924999D03*
%TD*%
D12*
%TO.C,Q4*%
X100524999Y-64949999D03*
D13*
X100524999Y-65924999D03*
X100524999Y-66574999D03*
X103474999Y-66574999D03*
X103474999Y-65924999D03*
X103474999Y-65274999D03*
X103474999Y-64624999D03*
D14*
X101999999Y-65599999D03*
D15*
X101409999Y-67174999D03*
X102589999Y-67174999D03*
X102589999Y-64024999D03*
X101409999Y-64024999D03*
%TD*%
D17*
%TO.C,C5*%
X89180000Y-63300000D03*
X88220000Y-63300000D03*
%TD*%
D26*
%TO.C,C26*%
X106020000Y-53300000D03*
X106980000Y-53300000D03*
%TD*%
D32*
%TO.C,R12*%
X92390000Y-68100000D03*
X93410000Y-68100000D03*
%TD*%
D17*
%TO.C,C41*%
X110080000Y-66800000D03*
X109120000Y-66800000D03*
%TD*%
D33*
%TO.C,C48*%
X77300000Y-52680000D03*
X77300000Y-51720000D03*
%TD*%
D16*
%TO.C,R19*%
X82200001Y-65310000D03*
X82200001Y-64290000D03*
%TD*%
D17*
%TO.C,C34*%
X110080000Y-61500000D03*
X109120000Y-61500000D03*
%TD*%
D34*
%TO.C,L1*%
X84125000Y-69600000D03*
X86275000Y-69600000D03*
%TD*%
D35*
%TO.C,RV1*%
X97600000Y-43875000D03*
X97600000Y-42325000D03*
%TD*%
D26*
%TO.C,C15*%
X96720000Y-50900000D03*
X97680000Y-50900000D03*
%TD*%
D36*
%TO.C,U7*%
X94510000Y-55595000D03*
X94510000Y-54405000D03*
X93690000Y-55595000D03*
X93690000Y-54405000D03*
D37*
X95550000Y-56000000D03*
X95550000Y-55500000D03*
X95550000Y-55000000D03*
X95550000Y-54500000D03*
X95550000Y-54000000D03*
X92650000Y-54000000D03*
X92650000Y-54500000D03*
X92650000Y-55000000D03*
X92650000Y-55500000D03*
X92650000Y-56000000D03*
%TD*%
D33*
%TO.C,C47*%
X78600000Y-52680000D03*
X78600000Y-51720000D03*
%TD*%
D19*
%TO.C,U10*%
X106999999Y-59979999D03*
D20*
X107199999Y-60514999D03*
D21*
X106899999Y-60614999D03*
D19*
X105999999Y-59979999D03*
D20*
X105799999Y-60514999D03*
D21*
X106099999Y-60614999D03*
D22*
X105049999Y-61529999D03*
X105049999Y-62029999D03*
D23*
X105749999Y-62779999D03*
D24*
X106249999Y-62729999D03*
X106749999Y-62729999D03*
D23*
X107249999Y-62779999D03*
D22*
X107949999Y-62029999D03*
X107949999Y-61529999D03*
%TD*%
D38*
%TO.C,C17*%
X98850000Y-47100000D03*
X96950000Y-47100000D03*
%TD*%
D33*
%TO.C,C6*%
X90600000Y-53780000D03*
X90600000Y-52820000D03*
%TD*%
D16*
%TO.C,R15*%
X80100000Y-61810000D03*
X80100000Y-60790000D03*
%TD*%
%TO.C,R21*%
X81200000Y-65310000D03*
X81200000Y-64290000D03*
%TD*%
%TO.C,R32*%
X77300000Y-50810000D03*
X77300000Y-49790000D03*
%TD*%
D39*
%TO.C,C10*%
X91750000Y-70000000D03*
X93650000Y-70000000D03*
%TD*%
D32*
%TO.C,R3*%
X74390000Y-74500000D03*
X75410000Y-74500000D03*
%TD*%
D28*
%TO.C,R26*%
X86210001Y-63300000D03*
X85190001Y-63300000D03*
%TD*%
D19*
%TO.C,U12*%
X106999999Y-65279999D03*
D20*
X107199999Y-65814999D03*
D21*
X106899999Y-65914999D03*
D19*
X105999999Y-65279999D03*
D20*
X105799999Y-65814999D03*
D21*
X106099999Y-65914999D03*
D22*
X105049999Y-66829999D03*
X105049999Y-67329999D03*
D23*
X105749999Y-68079999D03*
D24*
X106249999Y-68029999D03*
X106749999Y-68029999D03*
D23*
X107249999Y-68079999D03*
D22*
X107949999Y-67329999D03*
X107949999Y-66829999D03*
%TD*%
D26*
%TO.C,C8*%
X82219998Y-66999999D03*
X83179998Y-66999999D03*
%TD*%
D32*
%TO.C,R6*%
X92390000Y-51900000D03*
X93410000Y-51900000D03*
%TD*%
D17*
%TO.C,C35*%
X110080000Y-62500000D03*
X109120000Y-62500000D03*
%TD*%
D31*
%TO.C,C13*%
X89975000Y-64500000D03*
X88425000Y-64500000D03*
%TD*%
D17*
%TO.C,C27*%
X110080000Y-56100000D03*
X109120000Y-56100000D03*
%TD*%
D16*
%TO.C,R22*%
X84200001Y-65310000D03*
X84200001Y-64290000D03*
%TD*%
D38*
%TO.C,C31*%
X98850000Y-57900000D03*
X96950000Y-57900000D03*
%TD*%
D27*
%TO.C,R29*%
X79900000Y-47890000D03*
X79900000Y-48910000D03*
%TD*%
D12*
%TO.C,Q3*%
X100524999Y-59549999D03*
D13*
X100524999Y-60524999D03*
X100524999Y-61174999D03*
X103474999Y-61174999D03*
X103474999Y-60524999D03*
X103474999Y-59874999D03*
X103474999Y-59224999D03*
D14*
X101999999Y-60199999D03*
D15*
X101409999Y-61774999D03*
X102589999Y-61774999D03*
X102589999Y-58624999D03*
X101409999Y-58624999D03*
%TD*%
D18*
%TO.C,C14*%
X83200000Y-46320000D03*
X83200000Y-47280000D03*
%TD*%
D26*
%TO.C,C25*%
X96720000Y-55300000D03*
X97680000Y-55300000D03*
%TD*%
D33*
%TO.C,C44*%
X80100000Y-63680000D03*
X80100000Y-62720000D03*
%TD*%
D19*
%TO.C,U8*%
X106999999Y-54579999D03*
D20*
X107199999Y-55114999D03*
D21*
X106899999Y-55214999D03*
D19*
X105999999Y-54579999D03*
D20*
X105799999Y-55114999D03*
D21*
X106099999Y-55214999D03*
D22*
X105049999Y-56129999D03*
X105049999Y-56629999D03*
D23*
X105749999Y-57379999D03*
D24*
X106249999Y-57329999D03*
X106749999Y-57329999D03*
D23*
X107249999Y-57379999D03*
D22*
X107949999Y-56629999D03*
X107949999Y-56129999D03*
%TD*%
D33*
%TO.C,C45*%
X77500000Y-63680000D03*
X77500000Y-62720000D03*
%TD*%
D26*
%TO.C,C19*%
X106020000Y-47900000D03*
X106980000Y-47900000D03*
%TD*%
D32*
%TO.C,R8*%
X92390000Y-57300000D03*
X93410000Y-57300000D03*
%TD*%
D16*
%TO.C,R30*%
X78600000Y-50810000D03*
X78600000Y-49790000D03*
%TD*%
D26*
%TO.C,C39*%
X96720000Y-66100000D03*
X97680000Y-66100000D03*
%TD*%
D16*
%TO.C,R13*%
X78800000Y-61810000D03*
X78800000Y-60790000D03*
%TD*%
D40*
%TO.C,U4*%
X85025000Y-46195000D03*
X85025000Y-47465000D03*
X85025000Y-48735000D03*
X85025000Y-50005000D03*
X89975000Y-50005000D03*
X89975000Y-48735000D03*
X89975000Y-47465000D03*
X89975000Y-46195000D03*
%TD*%
D26*
%TO.C,C18*%
X96720000Y-49900000D03*
X97680000Y-49900000D03*
%TD*%
D38*
%TO.C,C38*%
X98850000Y-63300000D03*
X96950000Y-63300000D03*
%TD*%
D41*
%TO.C,X1*%
X77675000Y-58025000D03*
X79525000Y-58025000D03*
X79525000Y-56575000D03*
X77675000Y-56575000D03*
%TD*%
D42*
%TO.C,U3*%
X81837500Y-54750000D03*
X81837500Y-55250000D03*
X81837500Y-55750000D03*
X81837500Y-56250000D03*
X81837500Y-56750000D03*
X81837500Y-57250000D03*
X81837500Y-57750000D03*
X81837500Y-58250000D03*
X81837500Y-58750000D03*
X81837500Y-59250000D03*
X81837500Y-59750000D03*
X81837500Y-60250000D03*
D43*
X83250000Y-61662500D03*
X83750000Y-61662500D03*
X84250000Y-61662500D03*
X84750000Y-61662500D03*
X85250000Y-61662500D03*
X85750000Y-61662500D03*
X86250000Y-61662500D03*
X86750000Y-61662500D03*
X87250000Y-61662500D03*
X87750000Y-61662500D03*
X88250000Y-61662500D03*
X88750000Y-61662500D03*
D42*
X90162500Y-60250000D03*
X90162500Y-59750000D03*
X90162500Y-59250000D03*
X90162500Y-58750000D03*
X90162500Y-58250000D03*
X90162500Y-57750000D03*
X90162500Y-57250000D03*
X90162500Y-56750000D03*
X90162500Y-56250000D03*
X90162500Y-55750000D03*
X90162500Y-55250000D03*
X90162500Y-54750000D03*
D43*
X88750000Y-53337500D03*
X88250000Y-53337500D03*
X87750000Y-53337500D03*
X87250000Y-53337500D03*
X86750000Y-53337500D03*
X86250000Y-53337500D03*
X85750000Y-53337500D03*
X85250000Y-53337500D03*
X84750000Y-53337500D03*
X84250000Y-53337500D03*
X83750000Y-53337500D03*
X83250000Y-53337500D03*
%TD*%
D33*
%TO.C,C43*%
X78800000Y-63680000D03*
X78800000Y-62720000D03*
%TD*%
D16*
%TO.C,R28*%
X79900000Y-50810000D03*
X79900000Y-49790000D03*
%TD*%
D32*
%TO.C,R10*%
X92390000Y-62700000D03*
X93410000Y-62700000D03*
%TD*%
D33*
%TO.C,C7*%
X83200000Y-51780000D03*
X83200000Y-50820000D03*
%TD*%
%TO.C,C3*%
X81100000Y-53680000D03*
X81100000Y-52720000D03*
%TD*%
D32*
%TO.C,R23*%
X83190000Y-63300000D03*
X84210000Y-63300000D03*
%TD*%
D17*
%TO.C,C21*%
X110080000Y-51700000D03*
X109120000Y-51700000D03*
%TD*%
D36*
%TO.C,U5*%
X94510000Y-50195000D03*
X94510000Y-49005000D03*
X93690000Y-50195000D03*
X93690000Y-49005000D03*
D37*
X95550000Y-50600000D03*
X95550000Y-50100000D03*
X95550000Y-49600000D03*
X95550000Y-49100000D03*
X95550000Y-48600000D03*
X92650000Y-48600000D03*
X92650000Y-49100000D03*
X92650000Y-49600000D03*
X92650000Y-50100000D03*
X92650000Y-50600000D03*
%TD*%
D26*
%TO.C,C22*%
X96720000Y-56300000D03*
X97680000Y-56300000D03*
%TD*%
D17*
%TO.C,C42*%
X110080000Y-67800000D03*
X109120000Y-67800000D03*
%TD*%
D32*
%TO.C,R20*%
X81190000Y-63300000D03*
X82210000Y-63300000D03*
%TD*%
D28*
%TO.C,R9*%
X97710000Y-59700000D03*
X96690000Y-59700000D03*
%TD*%
D26*
%TO.C,C29*%
X96720000Y-61700000D03*
X97680000Y-61700000D03*
%TD*%
D38*
%TO.C,C11*%
X86349999Y-67200000D03*
X84449999Y-67200000D03*
%TD*%
D30*
%TO.C,C30*%
X100325000Y-57500000D03*
X101875000Y-57500000D03*
%TD*%
D26*
%TO.C,C33*%
X106020000Y-58700000D03*
X106980000Y-58700000D03*
%TD*%
D38*
%TO.C,C24*%
X98850000Y-52500000D03*
X96950000Y-52500000D03*
%TD*%
D28*
%TO.C,R1*%
X95110000Y-46900000D03*
X94090000Y-46900000D03*
%TD*%
D16*
%TO.C,R18*%
X77500000Y-65610000D03*
X77500000Y-64590000D03*
%TD*%
D36*
%TO.C,U9*%
X94510000Y-60995000D03*
X94510000Y-59805000D03*
X93690000Y-60995000D03*
X93690000Y-59805000D03*
D37*
X95550000Y-61400000D03*
X95550000Y-60900000D03*
X95550000Y-60400000D03*
X95550000Y-59900000D03*
X95550000Y-59400000D03*
X92650000Y-59400000D03*
X92650000Y-59900000D03*
X92650000Y-60400000D03*
X92650000Y-60900000D03*
X92650000Y-61400000D03*
%TD*%
D32*
%TO.C,R4*%
X72190000Y-74500000D03*
X73210000Y-74500000D03*
%TD*%
D33*
%TO.C,C46*%
X79900000Y-52680000D03*
X79900000Y-51720000D03*
%TD*%
D12*
%TO.C,Q2*%
X100524999Y-54149999D03*
D13*
X100524999Y-55124999D03*
X100524999Y-55774999D03*
X103474999Y-55774999D03*
X103474999Y-55124999D03*
X103474999Y-54474999D03*
X103474999Y-53824999D03*
D14*
X101999999Y-54799999D03*
D15*
X101409999Y-56374999D03*
X102589999Y-56374999D03*
X102589999Y-53224999D03*
X101409999Y-53224999D03*
%TD*%
D44*
%TO.C,C9*%
X78000000Y-70150000D03*
X78000000Y-68250000D03*
%TD*%
D36*
%TO.C,U11*%
X94510000Y-66395000D03*
X94510000Y-65205000D03*
X93690000Y-66395000D03*
X93690000Y-65205000D03*
D37*
X95550000Y-66800000D03*
X95550000Y-66300000D03*
X95550000Y-65800000D03*
X95550000Y-65300000D03*
X95550000Y-64800000D03*
X92650000Y-64800000D03*
X92650000Y-65300000D03*
X92650000Y-65800000D03*
X92650000Y-66300000D03*
X92650000Y-66800000D03*
%TD*%
D27*
%TO.C,R31*%
X78600000Y-47890000D03*
X78600000Y-48910000D03*
%TD*%
D29*
%TO.C,D2*%
X73412500Y-73000000D03*
X74987500Y-73000000D03*
%TD*%
D45*
%TO.C,U1*%
X80062499Y-68250000D03*
X80062499Y-69200000D03*
X80062499Y-70150000D03*
X82337499Y-70150000D03*
X82337499Y-69200000D03*
X82337499Y-68250000D03*
%TD*%
M02*
