%TF.GenerationSoftware,KiCad,Pcbnew,(7.0.0)*%
%TF.CreationDate,2023-11-18T15:32:53-05:00*%
%TF.ProjectId,ECE4760 Motor Driver,45434534-3736-4302-904d-6f746f722044,0*%
%TF.SameCoordinates,Original*%
%TF.FileFunction,Soldermask,Top*%
%TF.FilePolarity,Negative*%
%FSLAX46Y46*%
G04 Gerber Fmt 4.6, Leading zero omitted, Abs format (unit mm)*
G04 Created by KiCad (PCBNEW (7.0.0)) date 2023-11-18 15:32:53*
%MOMM*%
%LPD*%
G01*
G04 APERTURE LIST*
G04 Aperture macros list*
%AMRoundRect*
0 Rectangle with rounded corners*
0 $1 Rounding radius*
0 $2 $3 $4 $5 $6 $7 $8 $9 X,Y pos of 4 corners*
0 Add a 4 corners polygon primitive as box body*
4,1,4,$2,$3,$4,$5,$6,$7,$8,$9,$2,$3,0*
0 Add four circle primitives for the rounded corners*
1,1,$1+$1,$2,$3*
1,1,$1+$1,$4,$5*
1,1,$1+$1,$6,$7*
1,1,$1+$1,$8,$9*
0 Add four rect primitives between the rounded corners*
20,1,$1+$1,$2,$3,$4,$5,0*
20,1,$1+$1,$4,$5,$6,$7,0*
20,1,$1+$1,$6,$7,$8,$9,0*
20,1,$1+$1,$8,$9,$2,$3,0*%
%AMRotRect*
0 Rectangle, with rotation*
0 The origin of the aperture is its center*
0 $1 length*
0 $2 width*
0 $3 Rotation angle, in degrees counterclockwise*
0 Add horizontal line*
21,1,$1,$2,0,0,$3*%
G04 Aperture macros list end*
%ADD10RoundRect,0.135000X-0.135000X-0.185000X0.135000X-0.185000X0.135000X0.185000X-0.135000X0.185000X0*%
%ADD11RoundRect,0.140000X-0.140000X-0.170000X0.140000X-0.170000X0.140000X0.170000X-0.140000X0.170000X0*%
%ADD12C,0.800000*%
%ADD13C,5.400000*%
%ADD14RoundRect,0.135000X0.185000X-0.135000X0.185000X0.135000X-0.185000X0.135000X-0.185000X-0.135000X0*%
%ADD15R,0.800000X1.070000*%
%ADD16RotRect,0.282800X0.282800X315.000000*%
%ADD17R,0.600000X0.200000*%
%ADD18R,0.850000X0.300000*%
%ADD19R,0.300000X0.800000*%
%ADD20R,0.300000X0.850000*%
%ADD21RoundRect,0.140000X0.140000X0.170000X-0.140000X0.170000X-0.140000X-0.170000X0.140000X-0.170000X0*%
%ADD22RoundRect,0.250000X0.375000X0.625000X-0.375000X0.625000X-0.375000X-0.625000X0.375000X-0.625000X0*%
%ADD23RoundRect,0.140000X0.170000X-0.140000X0.170000X0.140000X-0.170000X0.140000X-0.170000X-0.140000X0*%
%ADD24RoundRect,0.135000X-0.185000X0.135000X-0.185000X-0.135000X0.185000X-0.135000X0.185000X0.135000X0*%
%ADD25RoundRect,0.225000X0.250000X-0.225000X0.250000X0.225000X-0.250000X0.225000X-0.250000X-0.225000X0*%
%ADD26R,0.400000X0.650000*%
%ADD27RoundRect,0.225000X-0.250000X0.225000X-0.250000X-0.225000X0.250000X-0.225000X0.250000X0.225000X0*%
%ADD28RoundRect,0.225000X-0.225000X-0.250000X0.225000X-0.250000X0.225000X0.250000X-0.225000X0.250000X0*%
%ADD29RoundRect,0.140000X-0.170000X0.140000X-0.170000X-0.140000X0.170000X-0.140000X0.170000X0.140000X0*%
%ADD30RoundRect,0.225000X0.225000X0.250000X-0.225000X0.250000X-0.225000X-0.250000X0.225000X-0.250000X0*%
%ADD31RoundRect,0.135000X0.135000X0.185000X-0.135000X0.185000X-0.135000X-0.185000X0.135000X-0.185000X0*%
%ADD32RoundRect,0.250000X0.325000X1.100000X-0.325000X1.100000X-0.325000X-1.100000X0.325000X-1.100000X0*%
%ADD33R,1.700000X1.700000*%
%ADD34O,1.700000X1.700000*%
%ADD35RoundRect,0.250000X-1.550000X0.650000X-1.550000X-0.650000X1.550000X-0.650000X1.550000X0.650000X0*%
%ADD36O,3.600000X1.800000*%
%ADD37RoundRect,0.250000X-0.475000X0.250000X-0.475000X-0.250000X0.475000X-0.250000X0.475000X0.250000X0*%
%ADD38RoundRect,0.142500X-0.092500X0.457500X-0.092500X-0.457500X0.092500X-0.457500X0.092500X0.457500X0*%
%ADD39RoundRect,0.112500X-0.062500X0.487500X-0.062500X-0.487500X0.062500X-0.487500X0.062500X0.487500X0*%
%ADD40RoundRect,0.112500X-0.337500X0.062500X-0.337500X-0.062500X0.337500X-0.062500X0.337500X0.062500X0*%
%ADD41RoundRect,0.075000X-0.685000X0.075000X-0.685000X-0.075000X0.685000X-0.075000X0.685000X0.075000X0*%
%ADD42RoundRect,0.200000X-0.250000X0.200000X-0.250000X-0.200000X0.250000X-0.200000X0.250000X0.200000X0*%
%ADD43RoundRect,0.250000X-0.671751X-1.449569X1.449569X0.671751X0.671751X1.449569X-1.449569X-0.671751X0*%
%ADD44RoundRect,0.062500X0.062500X-0.362500X0.062500X0.362500X-0.062500X0.362500X-0.062500X-0.362500X0*%
%ADD45R,2.380000X1.650000*%
%ADD46C,0.540000*%
G04 APERTURE END LIST*
%TO.C,Q1*%
G36*
X96515000Y-51630000D02*
G01*
X97005000Y-51630000D01*
X97005000Y-51360000D01*
X96515000Y-51360000D01*
X96515000Y-51630000D01*
G37*
G36*
X96515000Y-52130000D02*
G01*
X97005000Y-52130000D01*
X97005000Y-51860000D01*
X96515000Y-51860000D01*
X96515000Y-52130000D01*
G37*
G36*
X96515000Y-52630000D02*
G01*
X97005000Y-52630000D01*
X97005000Y-52360000D01*
X96515000Y-52360000D01*
X96515000Y-52630000D01*
G37*
G36*
X96515000Y-53130000D02*
G01*
X97005000Y-53130000D01*
X97005000Y-52860000D01*
X96515000Y-52860000D01*
X96515000Y-53130000D01*
G37*
G36*
X97520000Y-50765000D02*
G01*
X97250000Y-50765000D01*
X97250000Y-50275000D01*
X97520000Y-50275000D01*
X97520000Y-50765000D01*
G37*
G36*
X97600000Y-53375000D02*
G01*
X97870000Y-53375000D01*
X97870000Y-53865000D01*
X97600000Y-53865000D01*
X97600000Y-53375000D01*
G37*
G36*
X98020000Y-50765000D02*
G01*
X97750000Y-50765000D01*
X97750000Y-50275000D01*
X98020000Y-50275000D01*
X98020000Y-50765000D01*
G37*
G36*
X98100000Y-53375000D02*
G01*
X98370000Y-53375000D01*
X98370000Y-53865000D01*
X98100000Y-53865000D01*
X98100000Y-53375000D01*
G37*
G36*
X98251000Y-51878000D02*
G01*
X101560000Y-51878000D01*
X101560000Y-52262000D01*
X98251000Y-52262000D01*
X98251000Y-51878000D01*
G37*
G36*
X97368000Y-53872000D02*
G01*
X97098000Y-53872000D01*
X97098000Y-53637000D01*
X96510000Y-53637000D01*
X96510000Y-53367000D01*
X97368000Y-53367000D01*
X97368000Y-53872000D01*
G37*
G36*
X97020000Y-50780000D02*
G01*
X96515000Y-50780000D01*
X96515000Y-50510000D01*
X96750000Y-50510000D01*
X96750000Y-50275000D01*
X97020000Y-50275000D01*
X97020000Y-50780000D01*
G37*
G36*
X98900000Y-50485000D02*
G01*
X99130000Y-50485000D01*
X99130000Y-50265000D01*
X99400000Y-50265000D01*
X99400000Y-50485000D01*
X99630000Y-50485000D01*
X99630000Y-50265000D01*
X99900000Y-50265000D01*
X99900000Y-50485000D01*
X100130000Y-50485000D01*
X100130000Y-50265000D01*
X100400000Y-50265000D01*
X100400000Y-50485000D01*
X100630000Y-50485000D01*
X100630000Y-50265000D01*
X100900000Y-50265000D01*
X100900000Y-50485000D01*
X101130000Y-50485000D01*
X101130000Y-50265000D01*
X101400000Y-50265000D01*
X101400000Y-50485000D01*
X101630000Y-50485000D01*
X101630000Y-51015000D01*
X98630000Y-51015000D01*
X98630000Y-50265000D01*
X98900000Y-50265000D01*
X98900000Y-50485000D01*
G37*
G36*
X101630000Y-53655000D02*
G01*
X101400000Y-53655000D01*
X101400000Y-53875000D01*
X101130000Y-53875000D01*
X101130000Y-53655000D01*
X100900000Y-53655000D01*
X100900000Y-53875000D01*
X100630000Y-53875000D01*
X100630000Y-53655000D01*
X100400000Y-53655000D01*
X100400000Y-53875000D01*
X100130000Y-53875000D01*
X100130000Y-53655000D01*
X99900000Y-53655000D01*
X99900000Y-53875000D01*
X99630000Y-53875000D01*
X99630000Y-53655000D01*
X99400000Y-53655000D01*
X99400000Y-53875000D01*
X99130000Y-53875000D01*
X99130000Y-53655000D01*
X98900000Y-53655000D01*
X98900000Y-53875000D01*
X98630000Y-53875000D01*
X98630000Y-53125000D01*
X101630000Y-53125000D01*
X101630000Y-53655000D01*
G37*
%TO.C,Q4*%
G36*
X96515000Y-73728000D02*
G01*
X97005000Y-73728000D01*
X97005000Y-73458000D01*
X96515000Y-73458000D01*
X96515000Y-73728000D01*
G37*
G36*
X96515000Y-74228000D02*
G01*
X97005000Y-74228000D01*
X97005000Y-73958000D01*
X96515000Y-73958000D01*
X96515000Y-74228000D01*
G37*
G36*
X96515000Y-74728000D02*
G01*
X97005000Y-74728000D01*
X97005000Y-74458000D01*
X96515000Y-74458000D01*
X96515000Y-74728000D01*
G37*
G36*
X96515000Y-75228000D02*
G01*
X97005000Y-75228000D01*
X97005000Y-74958000D01*
X96515000Y-74958000D01*
X96515000Y-75228000D01*
G37*
G36*
X97520000Y-72863000D02*
G01*
X97250000Y-72863000D01*
X97250000Y-72373000D01*
X97520000Y-72373000D01*
X97520000Y-72863000D01*
G37*
G36*
X97600000Y-75473000D02*
G01*
X97870000Y-75473000D01*
X97870000Y-75963000D01*
X97600000Y-75963000D01*
X97600000Y-75473000D01*
G37*
G36*
X98020000Y-72863000D02*
G01*
X97750000Y-72863000D01*
X97750000Y-72373000D01*
X98020000Y-72373000D01*
X98020000Y-72863000D01*
G37*
G36*
X98100000Y-75473000D02*
G01*
X98370000Y-75473000D01*
X98370000Y-75963000D01*
X98100000Y-75963000D01*
X98100000Y-75473000D01*
G37*
G36*
X98251000Y-73976000D02*
G01*
X101560000Y-73976000D01*
X101560000Y-74360000D01*
X98251000Y-74360000D01*
X98251000Y-73976000D01*
G37*
G36*
X97368000Y-75970000D02*
G01*
X97098000Y-75970000D01*
X97098000Y-75735000D01*
X96510000Y-75735000D01*
X96510000Y-75465000D01*
X97368000Y-75465000D01*
X97368000Y-75970000D01*
G37*
G36*
X97020000Y-72878000D02*
G01*
X96515000Y-72878000D01*
X96515000Y-72608000D01*
X96750000Y-72608000D01*
X96750000Y-72373000D01*
X97020000Y-72373000D01*
X97020000Y-72878000D01*
G37*
G36*
X98900000Y-72583000D02*
G01*
X99130000Y-72583000D01*
X99130000Y-72363000D01*
X99400000Y-72363000D01*
X99400000Y-72583000D01*
X99630000Y-72583000D01*
X99630000Y-72363000D01*
X99900000Y-72363000D01*
X99900000Y-72583000D01*
X100130000Y-72583000D01*
X100130000Y-72363000D01*
X100400000Y-72363000D01*
X100400000Y-72583000D01*
X100630000Y-72583000D01*
X100630000Y-72363000D01*
X100900000Y-72363000D01*
X100900000Y-72583000D01*
X101130000Y-72583000D01*
X101130000Y-72363000D01*
X101400000Y-72363000D01*
X101400000Y-72583000D01*
X101630000Y-72583000D01*
X101630000Y-73113000D01*
X98630000Y-73113000D01*
X98630000Y-72363000D01*
X98900000Y-72363000D01*
X98900000Y-72583000D01*
G37*
G36*
X101630000Y-75753000D02*
G01*
X101400000Y-75753000D01*
X101400000Y-75973000D01*
X101130000Y-75973000D01*
X101130000Y-75753000D01*
X100900000Y-75753000D01*
X100900000Y-75973000D01*
X100630000Y-75973000D01*
X100630000Y-75753000D01*
X100400000Y-75753000D01*
X100400000Y-75973000D01*
X100130000Y-75973000D01*
X100130000Y-75753000D01*
X99900000Y-75753000D01*
X99900000Y-75973000D01*
X99630000Y-75973000D01*
X99630000Y-75753000D01*
X99400000Y-75753000D01*
X99400000Y-75973000D01*
X99130000Y-75973000D01*
X99130000Y-75753000D01*
X98900000Y-75753000D01*
X98900000Y-75973000D01*
X98630000Y-75973000D01*
X98630000Y-75223000D01*
X101630000Y-75223000D01*
X101630000Y-75753000D01*
G37*
%TO.C,U7*%
G36*
X94625000Y-42200001D02*
G01*
X94625000Y-42474999D01*
X94674999Y-42524999D01*
X94824999Y-42524999D01*
X94875002Y-42474999D01*
X94874999Y-42200001D01*
X94924999Y-42149999D01*
X95075001Y-42149999D01*
X95124999Y-42200001D01*
X95125001Y-42474999D01*
X95175001Y-42524999D01*
X95325001Y-42524999D01*
X95375001Y-42474999D01*
X95375001Y-42200001D01*
X95425000Y-42149999D01*
X95575000Y-42149999D01*
X95625000Y-42200001D01*
X95625000Y-42474999D01*
X95675000Y-42524999D01*
X95825002Y-42525002D01*
X95875000Y-42474999D01*
X95875002Y-42200001D01*
X95924999Y-42149999D01*
X96075002Y-42149999D01*
X96124999Y-42200001D01*
X96125002Y-42475002D01*
X96175002Y-42524999D01*
X96275027Y-42525004D01*
X96324999Y-42574999D01*
X96324989Y-43600001D01*
X96274999Y-43650001D01*
X94325003Y-43650003D01*
X94275000Y-43600004D01*
X94275000Y-42575002D01*
X94325003Y-42524999D01*
X94325000Y-42524999D01*
X94375000Y-42474999D01*
X94375000Y-42200001D01*
X94425000Y-42149999D01*
X94575000Y-42149999D01*
X94625000Y-42200001D01*
G37*
G36*
X96274999Y-44549999D02*
G01*
X96324994Y-44599999D01*
X96324999Y-45625001D01*
X96275022Y-45674996D01*
X96175002Y-45675001D01*
X96124999Y-45724998D01*
X96124999Y-45999999D01*
X96074999Y-46050001D01*
X95924999Y-46050001D01*
X95875002Y-45999999D01*
X95875000Y-45725001D01*
X95825002Y-45675001D01*
X95675000Y-45675001D01*
X95625000Y-45725001D01*
X95625000Y-45999999D01*
X95575000Y-46050001D01*
X95425000Y-46049999D01*
X95375001Y-45999999D01*
X95375001Y-45725001D01*
X95325001Y-45675001D01*
X95175001Y-45675001D01*
X95125001Y-45725001D01*
X95124999Y-45999999D01*
X95075001Y-46050001D01*
X94924999Y-46050001D01*
X94874999Y-45999999D01*
X94874999Y-45725001D01*
X94824999Y-45675001D01*
X94674999Y-45675001D01*
X94625000Y-45725001D01*
X94625000Y-45999999D01*
X94575000Y-46050001D01*
X94425000Y-46049999D01*
X94375000Y-45999999D01*
X94375000Y-45725001D01*
X94325000Y-45675001D01*
X94325003Y-45675001D01*
X94275000Y-45625001D01*
X94275000Y-44599999D01*
X94325003Y-44549997D01*
X96274999Y-44549999D01*
G37*
%TO.C,Q2*%
G36*
X96515000Y-58996000D02*
G01*
X97005000Y-58996000D01*
X97005000Y-58726000D01*
X96515000Y-58726000D01*
X96515000Y-58996000D01*
G37*
G36*
X96515000Y-59496000D02*
G01*
X97005000Y-59496000D01*
X97005000Y-59226000D01*
X96515000Y-59226000D01*
X96515000Y-59496000D01*
G37*
G36*
X96515000Y-59996000D02*
G01*
X97005000Y-59996000D01*
X97005000Y-59726000D01*
X96515000Y-59726000D01*
X96515000Y-59996000D01*
G37*
G36*
X96515000Y-60496000D02*
G01*
X97005000Y-60496000D01*
X97005000Y-60226000D01*
X96515000Y-60226000D01*
X96515000Y-60496000D01*
G37*
G36*
X97520000Y-58131000D02*
G01*
X97250000Y-58131000D01*
X97250000Y-57641000D01*
X97520000Y-57641000D01*
X97520000Y-58131000D01*
G37*
G36*
X97600000Y-60741000D02*
G01*
X97870000Y-60741000D01*
X97870000Y-61231000D01*
X97600000Y-61231000D01*
X97600000Y-60741000D01*
G37*
G36*
X98020000Y-58131000D02*
G01*
X97750000Y-58131000D01*
X97750000Y-57641000D01*
X98020000Y-57641000D01*
X98020000Y-58131000D01*
G37*
G36*
X98100000Y-60741000D02*
G01*
X98370000Y-60741000D01*
X98370000Y-61231000D01*
X98100000Y-61231000D01*
X98100000Y-60741000D01*
G37*
G36*
X98251000Y-59244000D02*
G01*
X101560000Y-59244000D01*
X101560000Y-59628000D01*
X98251000Y-59628000D01*
X98251000Y-59244000D01*
G37*
G36*
X97368000Y-61238000D02*
G01*
X97098000Y-61238000D01*
X97098000Y-61003000D01*
X96510000Y-61003000D01*
X96510000Y-60733000D01*
X97368000Y-60733000D01*
X97368000Y-61238000D01*
G37*
G36*
X97020000Y-58146000D02*
G01*
X96515000Y-58146000D01*
X96515000Y-57876000D01*
X96750000Y-57876000D01*
X96750000Y-57641000D01*
X97020000Y-57641000D01*
X97020000Y-58146000D01*
G37*
G36*
X98900000Y-57851000D02*
G01*
X99130000Y-57851000D01*
X99130000Y-57631000D01*
X99400000Y-57631000D01*
X99400000Y-57851000D01*
X99630000Y-57851000D01*
X99630000Y-57631000D01*
X99900000Y-57631000D01*
X99900000Y-57851000D01*
X100130000Y-57851000D01*
X100130000Y-57631000D01*
X100400000Y-57631000D01*
X100400000Y-57851000D01*
X100630000Y-57851000D01*
X100630000Y-57631000D01*
X100900000Y-57631000D01*
X100900000Y-57851000D01*
X101130000Y-57851000D01*
X101130000Y-57631000D01*
X101400000Y-57631000D01*
X101400000Y-57851000D01*
X101630000Y-57851000D01*
X101630000Y-58381000D01*
X98630000Y-58381000D01*
X98630000Y-57631000D01*
X98900000Y-57631000D01*
X98900000Y-57851000D01*
G37*
G36*
X101630000Y-61021000D02*
G01*
X101400000Y-61021000D01*
X101400000Y-61241000D01*
X101130000Y-61241000D01*
X101130000Y-61021000D01*
X100900000Y-61021000D01*
X100900000Y-61241000D01*
X100630000Y-61241000D01*
X100630000Y-61021000D01*
X100400000Y-61021000D01*
X100400000Y-61241000D01*
X100130000Y-61241000D01*
X100130000Y-61021000D01*
X99900000Y-61021000D01*
X99900000Y-61241000D01*
X99630000Y-61241000D01*
X99630000Y-61021000D01*
X99400000Y-61021000D01*
X99400000Y-61241000D01*
X99130000Y-61241000D01*
X99130000Y-61021000D01*
X98900000Y-61021000D01*
X98900000Y-61241000D01*
X98630000Y-61241000D01*
X98630000Y-60491000D01*
X101630000Y-60491000D01*
X101630000Y-61021000D01*
G37*
%TO.C,Q3*%
G36*
X96515000Y-66362000D02*
G01*
X97005000Y-66362000D01*
X97005000Y-66092000D01*
X96515000Y-66092000D01*
X96515000Y-66362000D01*
G37*
G36*
X96515000Y-66862000D02*
G01*
X97005000Y-66862000D01*
X97005000Y-66592000D01*
X96515000Y-66592000D01*
X96515000Y-66862000D01*
G37*
G36*
X96515000Y-67362000D02*
G01*
X97005000Y-67362000D01*
X97005000Y-67092000D01*
X96515000Y-67092000D01*
X96515000Y-67362000D01*
G37*
G36*
X96515000Y-67862000D02*
G01*
X97005000Y-67862000D01*
X97005000Y-67592000D01*
X96515000Y-67592000D01*
X96515000Y-67862000D01*
G37*
G36*
X97520000Y-65497000D02*
G01*
X97250000Y-65497000D01*
X97250000Y-65007000D01*
X97520000Y-65007000D01*
X97520000Y-65497000D01*
G37*
G36*
X97600000Y-68107000D02*
G01*
X97870000Y-68107000D01*
X97870000Y-68597000D01*
X97600000Y-68597000D01*
X97600000Y-68107000D01*
G37*
G36*
X98020000Y-65497000D02*
G01*
X97750000Y-65497000D01*
X97750000Y-65007000D01*
X98020000Y-65007000D01*
X98020000Y-65497000D01*
G37*
G36*
X98100000Y-68107000D02*
G01*
X98370000Y-68107000D01*
X98370000Y-68597000D01*
X98100000Y-68597000D01*
X98100000Y-68107000D01*
G37*
G36*
X98251000Y-66610000D02*
G01*
X101560000Y-66610000D01*
X101560000Y-66994000D01*
X98251000Y-66994000D01*
X98251000Y-66610000D01*
G37*
G36*
X97368000Y-68604000D02*
G01*
X97098000Y-68604000D01*
X97098000Y-68369000D01*
X96510000Y-68369000D01*
X96510000Y-68099000D01*
X97368000Y-68099000D01*
X97368000Y-68604000D01*
G37*
G36*
X97020000Y-65512000D02*
G01*
X96515000Y-65512000D01*
X96515000Y-65242000D01*
X96750000Y-65242000D01*
X96750000Y-65007000D01*
X97020000Y-65007000D01*
X97020000Y-65512000D01*
G37*
G36*
X98900000Y-65217000D02*
G01*
X99130000Y-65217000D01*
X99130000Y-64997000D01*
X99400000Y-64997000D01*
X99400000Y-65217000D01*
X99630000Y-65217000D01*
X99630000Y-64997000D01*
X99900000Y-64997000D01*
X99900000Y-65217000D01*
X100130000Y-65217000D01*
X100130000Y-64997000D01*
X100400000Y-64997000D01*
X100400000Y-65217000D01*
X100630000Y-65217000D01*
X100630000Y-64997000D01*
X100900000Y-64997000D01*
X100900000Y-65217000D01*
X101130000Y-65217000D01*
X101130000Y-64997000D01*
X101400000Y-64997000D01*
X101400000Y-65217000D01*
X101630000Y-65217000D01*
X101630000Y-65747000D01*
X98630000Y-65747000D01*
X98630000Y-64997000D01*
X98900000Y-64997000D01*
X98900000Y-65217000D01*
G37*
G36*
X101630000Y-68387000D02*
G01*
X101400000Y-68387000D01*
X101400000Y-68607000D01*
X101130000Y-68607000D01*
X101130000Y-68387000D01*
X100900000Y-68387000D01*
X100900000Y-68607000D01*
X100630000Y-68607000D01*
X100630000Y-68387000D01*
X100400000Y-68387000D01*
X100400000Y-68607000D01*
X100130000Y-68607000D01*
X100130000Y-68387000D01*
X99900000Y-68387000D01*
X99900000Y-68607000D01*
X99630000Y-68607000D01*
X99630000Y-68387000D01*
X99400000Y-68387000D01*
X99400000Y-68607000D01*
X99130000Y-68607000D01*
X99130000Y-68387000D01*
X98900000Y-68387000D01*
X98900000Y-68607000D01*
X98630000Y-68607000D01*
X98630000Y-67857000D01*
X101630000Y-67857000D01*
X101630000Y-68387000D01*
G37*
%TD*%
D10*
%TO.C,R36*%
X82790000Y-71100001D03*
X83810000Y-71100001D03*
%TD*%
D11*
%TO.C,C34*%
X107470000Y-63500000D03*
X108430000Y-63500000D03*
%TD*%
D12*
%TO.C,H2*%
X83700000Y-43815000D03*
X84293109Y-42383109D03*
X84293109Y-45246891D03*
X85725000Y-41790000D03*
D13*
X85725000Y-43815000D03*
D12*
X85725000Y-45840000D03*
X87156891Y-42383109D03*
X87156891Y-45246891D03*
X87750000Y-43815000D03*
%TD*%
D14*
%TO.C,R26*%
X87600000Y-52110000D03*
X87600000Y-51090000D03*
%TD*%
D15*
%TO.C,U2*%
X107560999Y-52146999D03*
D16*
X107760999Y-52681999D03*
D17*
X107460999Y-52781999D03*
D15*
X106560999Y-52146999D03*
D16*
X106360999Y-52681999D03*
D17*
X106660999Y-52781999D03*
D18*
X105610999Y-53696999D03*
X105610999Y-54196999D03*
D19*
X106310999Y-54946999D03*
D20*
X106810999Y-54896999D03*
X107310999Y-54896999D03*
D19*
X107810999Y-54946999D03*
D18*
X108510999Y-54196999D03*
X108510999Y-53696999D03*
%TD*%
D10*
%TO.C,R39*%
X82790000Y-73100000D03*
X83810000Y-73100000D03*
%TD*%
D21*
%TO.C,C44*%
X97444500Y-63119000D03*
X96484500Y-63119000D03*
%TD*%
D14*
%TO.C,R25*%
X83800000Y-54010000D03*
X83800000Y-52990000D03*
%TD*%
D10*
%TO.C,R6*%
X96454500Y-62166500D03*
X97474500Y-62166500D03*
%TD*%
%TO.C,R13*%
X85690000Y-76900000D03*
X86710000Y-76900000D03*
%TD*%
D11*
%TO.C,C43*%
X94389000Y-67691000D03*
X95349000Y-67691000D03*
%TD*%
D22*
%TO.C,D5*%
X101730000Y-80899000D03*
X98930000Y-80899000D03*
%TD*%
D23*
%TO.C,C20*%
X109728000Y-54963000D03*
X109728000Y-54003000D03*
%TD*%
D24*
%TO.C,R27*%
X83800000Y-51090000D03*
X83800000Y-52110000D03*
%TD*%
%TO.C,R42*%
X85500000Y-56290000D03*
X85500000Y-57310000D03*
%TD*%
D10*
%TO.C,R37*%
X82790000Y-74100000D03*
X83810000Y-74100000D03*
%TD*%
D25*
%TO.C,C72*%
X93200000Y-57675000D03*
X93200000Y-56125000D03*
%TD*%
D26*
%TO.C,D2*%
X87949999Y-74149999D03*
X88599999Y-74149999D03*
X89249999Y-74149999D03*
X89249999Y-72249999D03*
X88599999Y-72249999D03*
X87949999Y-72249999D03*
%TD*%
D25*
%TO.C,C38*%
X103632000Y-63894000D03*
X103632000Y-62344000D03*
%TD*%
D21*
%TO.C,C78*%
X83780000Y-62200000D03*
X82820000Y-62200000D03*
%TD*%
%TO.C,C55*%
X95349000Y-76200000D03*
X94389000Y-76200000D03*
%TD*%
D11*
%TO.C,C80*%
X94420000Y-63700000D03*
X95380000Y-63700000D03*
%TD*%
D21*
%TO.C,C69*%
X83780000Y-63200000D03*
X82820000Y-63200000D03*
%TD*%
D11*
%TO.C,C56*%
X94389000Y-75057000D03*
X95349000Y-75057000D03*
%TD*%
D27*
%TO.C,C70*%
X89700000Y-69025000D03*
X89700000Y-70575000D03*
%TD*%
%TO.C,C71*%
X83400000Y-66325000D03*
X83400000Y-67875000D03*
%TD*%
D14*
%TO.C,R16*%
X90500000Y-72810000D03*
X90500000Y-71790000D03*
%TD*%
D25*
%TO.C,C22*%
X99060000Y-56528000D03*
X99060000Y-54978000D03*
%TD*%
%TO.C,C10*%
X99060000Y-49162000D03*
X99060000Y-47612000D03*
%TD*%
D10*
%TO.C,R15*%
X85690000Y-78000000D03*
X86710000Y-78000000D03*
%TD*%
D25*
%TO.C,C48*%
X99060000Y-71260000D03*
X99060000Y-69710000D03*
%TD*%
D28*
%TO.C,C6*%
X90725000Y-48100000D03*
X92275000Y-48100000D03*
%TD*%
D14*
%TO.C,R29*%
X87500000Y-56410000D03*
X87500000Y-55390000D03*
%TD*%
D10*
%TO.C,R10*%
X96454500Y-76898500D03*
X97474500Y-76898500D03*
%TD*%
D29*
%TO.C,C85*%
X91900000Y-56720000D03*
X91900000Y-57680000D03*
%TD*%
D25*
%TO.C,C9*%
X100584000Y-49162000D03*
X100584000Y-47612000D03*
%TD*%
D24*
%TO.C,R45*%
X84500000Y-56290000D03*
X84500000Y-57310000D03*
%TD*%
D10*
%TO.C,R41*%
X85490000Y-58300000D03*
X86510000Y-58300000D03*
%TD*%
D27*
%TO.C,C2*%
X99800000Y-42625000D03*
X99800000Y-44175000D03*
%TD*%
D25*
%TO.C,C24*%
X102108000Y-56528000D03*
X102108000Y-54978000D03*
%TD*%
D11*
%TO.C,C17*%
X94417000Y-52959000D03*
X95377000Y-52959000D03*
%TD*%
D10*
%TO.C,R4*%
X96454500Y-54800500D03*
X97474500Y-54800500D03*
%TD*%
D29*
%TO.C,C76*%
X88500000Y-68820000D03*
X88500000Y-69780000D03*
%TD*%
D11*
%TO.C,C58*%
X105692000Y-72771000D03*
X106652000Y-72771000D03*
%TD*%
D30*
%TO.C,C7*%
X97575000Y-47100000D03*
X96025000Y-47100000D03*
%TD*%
D11*
%TO.C,C32*%
X106581000Y-58039000D03*
X107541000Y-58039000D03*
%TD*%
D31*
%TO.C,R11*%
X97474500Y-71437500D03*
X96454500Y-71437500D03*
%TD*%
D25*
%TO.C,C37*%
X102108000Y-63894000D03*
X102108000Y-62344000D03*
%TD*%
D23*
%TO.C,C59*%
X108839000Y-77061000D03*
X108839000Y-76101000D03*
%TD*%
D29*
%TO.C,C74*%
X90900000Y-68820000D03*
X90900000Y-69780000D03*
%TD*%
D23*
%TO.C,C67*%
X88600000Y-53980000D03*
X88600000Y-53020000D03*
%TD*%
D10*
%TO.C,R31*%
X82790000Y-70100001D03*
X83810000Y-70100001D03*
%TD*%
D24*
%TO.C,R40*%
X86500000Y-56290000D03*
X86500000Y-57310000D03*
%TD*%
D23*
%TO.C,C46*%
X109728000Y-69568000D03*
X109728000Y-68608000D03*
%TD*%
D25*
%TO.C,C11*%
X102108000Y-49162000D03*
X102108000Y-47612000D03*
%TD*%
D32*
%TO.C,RV1*%
X116410000Y-83058000D03*
X113460000Y-83058000D03*
%TD*%
D21*
%TO.C,C16*%
X95377000Y-54102000D03*
X94417000Y-54102000D03*
%TD*%
D10*
%TO.C,R19*%
X85690000Y-75800000D03*
X86710000Y-75800000D03*
%TD*%
D21*
%TO.C,C77*%
X83780000Y-60000000D03*
X82820000Y-60000000D03*
%TD*%
D25*
%TO.C,C51*%
X103632000Y-71260000D03*
X103632000Y-69710000D03*
%TD*%
D12*
%TO.C,H1*%
X105290000Y-43815000D03*
X105883109Y-42383109D03*
X105883109Y-45246891D03*
X107315000Y-41790000D03*
D13*
X107315000Y-43815000D03*
D12*
X107315000Y-45840000D03*
X108746891Y-42383109D03*
X108746891Y-45246891D03*
X109340000Y-43815000D03*
%TD*%
D26*
%TO.C,D4*%
X86349999Y-51549999D03*
X85699999Y-51549999D03*
X85049999Y-51549999D03*
X85049999Y-53449999D03*
X85699999Y-53449999D03*
X86349999Y-53449999D03*
%TD*%
D33*
%TO.C,J1*%
X80644999Y-42544999D03*
D34*
X78104999Y-42544999D03*
X80644999Y-45084999D03*
X78104999Y-45084999D03*
X80644999Y-47624999D03*
X78104999Y-47624999D03*
X80644999Y-50164999D03*
X78104999Y-50164999D03*
X80644999Y-52704999D03*
X78104999Y-52704999D03*
X80644999Y-55244999D03*
X78104999Y-55244999D03*
X80644999Y-57784999D03*
X78104999Y-57784999D03*
X80644999Y-60324999D03*
X78104999Y-60324999D03*
X80644999Y-62864999D03*
X78104999Y-62864999D03*
X80644999Y-65404999D03*
X78104999Y-65404999D03*
X80644999Y-67944999D03*
X78104999Y-67944999D03*
X80644999Y-70484999D03*
X78104999Y-70484999D03*
X80644999Y-73024999D03*
X78104999Y-73024999D03*
X80644999Y-75564999D03*
X78104999Y-75564999D03*
X80644999Y-78104999D03*
X78104999Y-78104999D03*
X80644999Y-80644999D03*
X78104999Y-80644999D03*
X80644999Y-83184999D03*
X78104999Y-83184999D03*
%TD*%
D29*
%TO.C,C66*%
X88600000Y-47320000D03*
X88600000Y-48280000D03*
%TD*%
D15*
%TO.C,U4*%
X107560999Y-66878999D03*
D16*
X107760999Y-67413999D03*
D17*
X107460999Y-67513999D03*
D15*
X106560999Y-66878999D03*
D16*
X106360999Y-67413999D03*
D17*
X106660999Y-67513999D03*
D18*
X105610999Y-68428999D03*
X105610999Y-68928999D03*
D19*
X106310999Y-69678999D03*
D20*
X106810999Y-69628999D03*
X107310999Y-69628999D03*
D19*
X107810999Y-69678999D03*
D18*
X108510999Y-68928999D03*
X108510999Y-68428999D03*
%TD*%
D24*
%TO.C,R43*%
X83500000Y-56290000D03*
X83500000Y-57310000D03*
%TD*%
D35*
%TO.C,J2*%
X114300000Y-43815000D03*
D36*
X114299999Y-48894999D03*
X114299999Y-53974999D03*
X114299999Y-59054999D03*
X114299999Y-64134999D03*
X114299999Y-69214999D03*
%TD*%
D25*
%TO.C,C23*%
X100584000Y-56528000D03*
X100584000Y-54978000D03*
%TD*%
D24*
%TO.C,R14*%
X90500000Y-77490000D03*
X90500000Y-78510000D03*
%TD*%
%TO.C,R18*%
X90500000Y-73690000D03*
X90500000Y-74710000D03*
%TD*%
D10*
%TO.C,R33*%
X82790000Y-69100000D03*
X83810000Y-69100000D03*
%TD*%
D24*
%TO.C,R24*%
X87600000Y-52990000D03*
X87600000Y-54010000D03*
%TD*%
D26*
%TO.C,D1*%
X87949999Y-77949999D03*
X88599999Y-77949999D03*
X89249999Y-77949999D03*
X89249999Y-76049999D03*
X88599999Y-76049999D03*
X87949999Y-76049999D03*
%TD*%
D24*
%TO.C,R38*%
X84800000Y-73090001D03*
X84800000Y-74110001D03*
%TD*%
D25*
%TO.C,C50*%
X102108000Y-71260000D03*
X102108000Y-69710000D03*
%TD*%
D15*
%TO.C,U5*%
X106671999Y-74244999D03*
D16*
X106871999Y-74779999D03*
D17*
X106571999Y-74879999D03*
D15*
X105671999Y-74244999D03*
D16*
X105471999Y-74779999D03*
D17*
X105771999Y-74879999D03*
D18*
X104721999Y-75794999D03*
X104721999Y-76294999D03*
D19*
X105421999Y-77044999D03*
D20*
X105921999Y-76994999D03*
X106421999Y-76994999D03*
D19*
X106921999Y-77044999D03*
D18*
X107621999Y-76294999D03*
X107621999Y-75794999D03*
%TD*%
D27*
%TO.C,C73*%
X94700000Y-64925000D03*
X94700000Y-66475000D03*
%TD*%
D31*
%TO.C,R5*%
X97474500Y-49339500D03*
X96454500Y-49339500D03*
%TD*%
D11*
%TO.C,C47*%
X107470000Y-70866000D03*
X108430000Y-70866000D03*
%TD*%
D28*
%TO.C,C8*%
X90825000Y-53899999D03*
X92375000Y-53899999D03*
%TD*%
D25*
%TO.C,C12*%
X103632000Y-49162000D03*
X103632000Y-47612000D03*
%TD*%
D23*
%TO.C,C33*%
X109728000Y-62329000D03*
X109728000Y-61369000D03*
%TD*%
D11*
%TO.C,C75*%
X94320000Y-58900000D03*
X95280000Y-58900000D03*
%TD*%
D10*
%TO.C,R34*%
X82790000Y-72100001D03*
X83810000Y-72100001D03*
%TD*%
D21*
%TO.C,C79*%
X83780000Y-65100000D03*
X82820000Y-65100000D03*
%TD*%
D14*
%TO.C,R21*%
X83800000Y-50110000D03*
X83800000Y-49090000D03*
%TD*%
D21*
%TO.C,C31*%
X97444500Y-55753000D03*
X96484500Y-55753000D03*
%TD*%
D23*
%TO.C,C62*%
X91500000Y-78480000D03*
X91500000Y-77520000D03*
%TD*%
D15*
%TO.C,U3*%
X107560999Y-59512999D03*
D16*
X107760999Y-60047999D03*
D17*
X107460999Y-60147999D03*
D15*
X106560999Y-59512999D03*
D16*
X106360999Y-60047999D03*
D17*
X106660999Y-60147999D03*
D18*
X105610999Y-61062999D03*
X105610999Y-61562999D03*
D19*
X106310999Y-62312999D03*
D20*
X106810999Y-62262999D03*
X107310999Y-62262999D03*
D19*
X107810999Y-62312999D03*
D18*
X108510999Y-61562999D03*
X108510999Y-61062999D03*
%TD*%
D29*
%TO.C,C63*%
X91500000Y-71820000D03*
X91500000Y-72780000D03*
%TD*%
D11*
%TO.C,C19*%
X106581000Y-50673000D03*
X107541000Y-50673000D03*
%TD*%
D37*
%TO.C,C4*%
X90600000Y-42650000D03*
X90600000Y-44550000D03*
%TD*%
D31*
%TO.C,R7*%
X97474500Y-56705500D03*
X96454500Y-56705500D03*
%TD*%
D14*
%TO.C,R22*%
X87600000Y-48310000D03*
X87600000Y-47290000D03*
%TD*%
D38*
%TO.C,U7*%
X98260000Y-42700000D03*
D39*
X97450000Y-42700000D03*
X96950000Y-42700000D03*
X96950000Y-45500000D03*
X97450000Y-45500000D03*
D38*
X98260000Y-45500000D03*
D40*
X98360000Y-44600000D03*
D41*
X97990000Y-44100000D03*
D40*
X98360000Y-43600000D03*
%TD*%
D21*
%TO.C,C57*%
X97444500Y-70485000D03*
X96484500Y-70485000D03*
%TD*%
D14*
%TO.C,R12*%
X90500000Y-76610000D03*
X90500000Y-75590000D03*
%TD*%
D31*
%TO.C,R1*%
X100510000Y-46400000D03*
X99490000Y-46400000D03*
%TD*%
D11*
%TO.C,C30*%
X94389000Y-60325000D03*
X95349000Y-60325000D03*
%TD*%
D12*
%TO.C,H4*%
X83700000Y-81915000D03*
X84293109Y-80483109D03*
X84293109Y-83346891D03*
X85725000Y-79890000D03*
D13*
X85725000Y-81915000D03*
D12*
X85725000Y-83940000D03*
X87156891Y-80483109D03*
X87156891Y-83346891D03*
X87750000Y-81915000D03*
%TD*%
D10*
%TO.C,R3*%
X99490000Y-45400000D03*
X100510000Y-45400000D03*
%TD*%
D21*
%TO.C,C18*%
X97444500Y-48387000D03*
X96484500Y-48387000D03*
%TD*%
D26*
%TO.C,D3*%
X86349999Y-47649999D03*
X85699999Y-47649999D03*
X85049999Y-47649999D03*
X85049999Y-49549999D03*
X85699999Y-49549999D03*
X86349999Y-49549999D03*
%TD*%
D42*
%TO.C,X1*%
X90725000Y-56675000D03*
X88875000Y-56675000D03*
X88875000Y-58125000D03*
X90725000Y-58125000D03*
%TD*%
D43*
%TO.C,C1*%
X112771812Y-78998188D03*
X116590188Y-75179812D03*
%TD*%
D44*
%TO.C,U6*%
X90750000Y-52450000D03*
X91250000Y-52450000D03*
X91750000Y-52450000D03*
X92250000Y-52450000D03*
X92250000Y-49550000D03*
X91750000Y-49550000D03*
X91250000Y-49550000D03*
X90750000Y-49550000D03*
D45*
X91499999Y-50999999D03*
%TD*%
D29*
%TO.C,C61*%
X91500000Y-75620000D03*
X91500000Y-76580000D03*
%TD*%
D24*
%TO.C,R20*%
X87600000Y-49190000D03*
X87600000Y-50210000D03*
%TD*%
D31*
%TO.C,R44*%
X84510000Y-58300000D03*
X83490000Y-58300000D03*
%TD*%
D12*
%TO.C,H3*%
X105290000Y-81915000D03*
X105883109Y-80483109D03*
X105883109Y-83346891D03*
X107315000Y-79890000D03*
D13*
X107315000Y-81915000D03*
D12*
X107315000Y-83940000D03*
X108746891Y-80483109D03*
X108746891Y-83346891D03*
X109340000Y-81915000D03*
%TD*%
D37*
%TO.C,C3*%
X102000000Y-42650000D03*
X102000000Y-44550000D03*
%TD*%
D31*
%TO.C,R9*%
X97474500Y-64071500D03*
X96454500Y-64071500D03*
%TD*%
D24*
%TO.C,R35*%
X84800000Y-71090000D03*
X84800000Y-72110000D03*
%TD*%
D11*
%TO.C,C21*%
X107470000Y-56134000D03*
X108430000Y-56134000D03*
%TD*%
D14*
%TO.C,R28*%
X87500000Y-58310000D03*
X87500000Y-57290000D03*
%TD*%
D21*
%TO.C,C29*%
X95349000Y-61468000D03*
X94389000Y-61468000D03*
%TD*%
D25*
%TO.C,C49*%
X100584000Y-71260000D03*
X100584000Y-69710000D03*
%TD*%
D11*
%TO.C,C60*%
X106581000Y-78232000D03*
X107541000Y-78232000D03*
%TD*%
D24*
%TO.C,R32*%
X84800000Y-69090000D03*
X84800000Y-70110000D03*
%TD*%
D10*
%TO.C,R8*%
X96454500Y-69532500D03*
X97474500Y-69532500D03*
%TD*%
D29*
%TO.C,C68*%
X88600000Y-51120000D03*
X88600000Y-52080000D03*
%TD*%
D21*
%TO.C,C42*%
X95349000Y-68834000D03*
X94389000Y-68834000D03*
%TD*%
D33*
%TO.C,J3*%
X91439999Y-83819999D03*
D34*
X93979999Y-83819999D03*
X96519999Y-83819999D03*
X99059999Y-83819999D03*
X101599999Y-83819999D03*
%TD*%
D37*
%TO.C,C5*%
X92700000Y-42650000D03*
X92700000Y-44550000D03*
%TD*%
D25*
%TO.C,C35*%
X99060000Y-63894000D03*
X99060000Y-62344000D03*
%TD*%
D11*
%TO.C,C45*%
X106581000Y-65405000D03*
X107541000Y-65405000D03*
%TD*%
D46*
%TO.C,U1*%
X92500000Y-60000000D03*
X92500000Y-60800000D03*
X92500000Y-61600000D03*
X92500000Y-62400000D03*
X92500000Y-63200000D03*
X92500000Y-64000000D03*
X92500000Y-64800000D03*
X92500000Y-65600000D03*
X92500000Y-66400000D03*
X92500000Y-67200000D03*
X91700000Y-60000000D03*
X91700000Y-60800000D03*
X91700000Y-61600000D03*
X91700000Y-62400000D03*
X91700000Y-63200000D03*
X91700000Y-64000000D03*
X91700000Y-64800000D03*
X91700000Y-65600000D03*
X91700000Y-66400000D03*
X91700000Y-67200000D03*
X90900000Y-60000000D03*
X90900000Y-60800000D03*
X90900000Y-61600000D03*
X90900000Y-62400000D03*
X90900000Y-63200000D03*
X90900000Y-64000000D03*
X90900000Y-64800000D03*
X90900000Y-65600000D03*
X90900000Y-66400000D03*
X90900000Y-67200000D03*
X90100000Y-60000000D03*
X90100000Y-60800000D03*
X90100000Y-61600000D03*
X90100000Y-62400000D03*
X90100000Y-63200000D03*
X90100000Y-64000000D03*
X90100000Y-64800000D03*
X90100000Y-65600000D03*
X90100000Y-66400000D03*
X90100000Y-67200000D03*
X89300000Y-60000000D03*
X89300000Y-60800000D03*
X89300000Y-61600000D03*
X89300000Y-62400000D03*
X89300000Y-63200000D03*
X89300000Y-64000000D03*
X89300000Y-64800000D03*
X89300000Y-65600000D03*
X89300000Y-66400000D03*
X89300000Y-67200000D03*
X88500000Y-60000000D03*
X88500000Y-60800000D03*
X88500000Y-61600000D03*
X88500000Y-62400000D03*
X88500000Y-63200000D03*
X88500000Y-64000000D03*
X88500000Y-64800000D03*
X88500000Y-65600000D03*
X88500000Y-66400000D03*
X88500000Y-67200000D03*
X87700000Y-60000000D03*
X87700000Y-60800000D03*
X87700000Y-61600000D03*
X87700000Y-62400000D03*
X87700000Y-63200000D03*
X87700000Y-64000000D03*
X87700000Y-64800000D03*
X87700000Y-65600000D03*
X87700000Y-66400000D03*
X87700000Y-67200000D03*
X86900000Y-60000000D03*
X86900000Y-60800000D03*
X86900000Y-61600000D03*
X86900000Y-62400000D03*
X86900000Y-63200000D03*
X86900000Y-64000000D03*
X86900000Y-64800000D03*
X86900000Y-65600000D03*
X86900000Y-66400000D03*
X86900000Y-67200000D03*
X86100000Y-60000000D03*
X86100000Y-60800000D03*
X86100000Y-61600000D03*
X86100000Y-62400000D03*
X86100000Y-63200000D03*
X86100000Y-64000000D03*
X86100000Y-64800000D03*
X86100000Y-65600000D03*
X86100000Y-66400000D03*
X86100000Y-67200000D03*
X85300000Y-60000000D03*
X85300000Y-60800000D03*
X85300000Y-61600000D03*
X85300000Y-62400000D03*
X85300000Y-63200000D03*
X85300000Y-64000000D03*
X85300000Y-64800000D03*
X85300000Y-65600000D03*
X85300000Y-66400000D03*
X85300000Y-67200000D03*
%TD*%
D25*
%TO.C,C25*%
X103632000Y-56528000D03*
X103632000Y-54978000D03*
%TD*%
D10*
%TO.C,R17*%
X85690000Y-74700000D03*
X86710000Y-74700000D03*
%TD*%
D23*
%TO.C,C64*%
X91500000Y-74680000D03*
X91500000Y-73720000D03*
%TD*%
D31*
%TO.C,R30*%
X96410000Y-78400000D03*
X95390000Y-78400000D03*
%TD*%
D23*
%TO.C,C65*%
X88600000Y-50180000D03*
X88600000Y-49220000D03*
%TD*%
D25*
%TO.C,C36*%
X100584000Y-63894000D03*
X100584000Y-62344000D03*
%TD*%
D24*
%TO.C,R23*%
X83800000Y-47190000D03*
X83800000Y-48210000D03*
%TD*%
D33*
%TO.C,J101*%
X113029999Y-42544999D03*
D34*
X115569999Y-42544999D03*
X113029999Y-45084999D03*
X115569999Y-45084999D03*
X113029999Y-47624999D03*
X115569999Y-47624999D03*
X113029999Y-50164999D03*
X115569999Y-50164999D03*
X113029999Y-52704999D03*
X115569999Y-52704999D03*
X113029999Y-55244999D03*
X115569999Y-55244999D03*
X113029999Y-57784999D03*
X115569999Y-57784999D03*
X113029999Y-60324999D03*
X115569999Y-60324999D03*
X113029999Y-62864999D03*
X115569999Y-62864999D03*
X113029999Y-65404999D03*
X115569999Y-65404999D03*
X113029999Y-67944999D03*
X115569999Y-67944999D03*
X113029999Y-70484999D03*
X115569999Y-70484999D03*
%TD*%
M02*
