%TF.GenerationSoftware,KiCad,Pcbnew,(7.0.0)*%
%TF.CreationDate,2023-11-18T15:32:54-05:00*%
%TF.ProjectId,ECE4760 Motor Driver,45434534-3736-4302-904d-6f746f722044,0*%
%TF.SameCoordinates,Original*%
%TF.FileFunction,Legend,Bot*%
%TF.FilePolarity,Positive*%
%FSLAX46Y46*%
G04 Gerber Fmt 4.6, Leading zero omitted, Abs format (unit mm)*
G04 Created by KiCad (PCBNEW (7.0.0)) date 2023-11-18 15:32:54*
%MOMM*%
%LPD*%
G01*
G04 APERTURE LIST*
G04 Aperture macros list*
%AMRoundRect*
0 Rectangle with rounded corners*
0 $1 Rounding radius*
0 $2 $3 $4 $5 $6 $7 $8 $9 X,Y pos of 4 corners*
0 Add a 4 corners polygon primitive as box body*
4,1,4,$2,$3,$4,$5,$6,$7,$8,$9,$2,$3,0*
0 Add four circle primitives for the rounded corners*
1,1,$1+$1,$2,$3*
1,1,$1+$1,$4,$5*
1,1,$1+$1,$6,$7*
1,1,$1+$1,$8,$9*
0 Add four rect primitives between the rounded corners*
20,1,$1+$1,$2,$3,$4,$5,0*
20,1,$1+$1,$4,$5,$6,$7,0*
20,1,$1+$1,$6,$7,$8,$9,0*
20,1,$1+$1,$8,$9,$2,$3,0*%
G04 Aperture macros list end*
%ADD10C,0.200000*%
%ADD11C,0.150000*%
%ADD12C,0.120000*%
%ADD13C,0.800000*%
%ADD14C,5.400000*%
%ADD15R,1.700000X1.700000*%
%ADD16O,1.700000X1.700000*%
%ADD17RoundRect,0.250000X-1.550000X0.650000X-1.550000X-0.650000X1.550000X-0.650000X1.550000X0.650000X0*%
%ADD18O,3.600000X1.800000*%
%ADD19C,0.350000*%
%ADD20C,0.499999*%
%ADD21C,0.300000*%
%ADD22RoundRect,0.250000X-0.475000X0.250000X-0.475000X-0.250000X0.475000X-0.250000X0.475000X0.250000X0*%
%ADD23RoundRect,0.140000X0.170000X-0.140000X0.170000X0.140000X-0.170000X0.140000X-0.170000X-0.140000X0*%
%ADD24RoundRect,0.140000X0.140000X0.170000X-0.140000X0.170000X-0.140000X-0.170000X0.140000X-0.170000X0*%
%ADD25C,2.000000*%
%ADD26RoundRect,0.140000X-0.140000X-0.170000X0.140000X-0.170000X0.140000X0.170000X-0.140000X0.170000X0*%
%ADD27RoundRect,0.140000X-0.170000X0.140000X-0.170000X-0.140000X0.170000X-0.140000X0.170000X0.140000X0*%
G04 APERTURE END LIST*
D10*
X119275238Y-54689285D02*
X116608571Y-54689285D01*
X118608571Y-54832142D02*
X118608571Y-54546428D01*
X118608571Y-54546428D02*
X118513333Y-54403571D01*
X118513333Y-54403571D02*
X118322857Y-54260714D01*
X118322857Y-54260714D02*
X118132380Y-54189285D01*
X118132380Y-54189285D02*
X117751428Y-54189285D01*
X117751428Y-54189285D02*
X117560952Y-54260714D01*
X117560952Y-54260714D02*
X117370476Y-54403571D01*
X117370476Y-54403571D02*
X117275238Y-54546428D01*
X117275238Y-54546428D02*
X117275238Y-54832142D01*
X117275238Y-54832142D02*
X117370476Y-54975000D01*
X117370476Y-54975000D02*
X117560952Y-55117857D01*
X117560952Y-55117857D02*
X117751428Y-55189285D01*
X117751428Y-55189285D02*
X118132380Y-55189285D01*
X118132380Y-55189285D02*
X118322857Y-55117857D01*
X118322857Y-55117857D02*
X118513333Y-54975000D01*
X118513333Y-54975000D02*
X118608571Y-54832142D01*
X117275238Y-52760713D02*
X117275238Y-53617856D01*
X117275238Y-53189285D02*
X119275238Y-53189285D01*
X119275238Y-53189285D02*
X118989523Y-53332142D01*
X118989523Y-53332142D02*
X118799047Y-53474999D01*
X118799047Y-53474999D02*
X118703809Y-53617856D01*
X98980953Y-49033571D02*
X98647620Y-49033571D01*
X98439286Y-49557380D02*
X98915477Y-49557380D01*
X98915477Y-49557380D02*
X99040477Y-48557380D01*
X99040477Y-48557380D02*
X98564286Y-48557380D01*
X97451191Y-49462142D02*
X97492858Y-49509761D01*
X97492858Y-49509761D02*
X97629762Y-49557380D01*
X97629762Y-49557380D02*
X97725000Y-49557380D01*
X97725000Y-49557380D02*
X97873810Y-49509761D01*
X97873810Y-49509761D02*
X97980953Y-49414523D01*
X97980953Y-49414523D02*
X98040477Y-49319285D01*
X98040477Y-49319285D02*
X98111905Y-49128809D01*
X98111905Y-49128809D02*
X98129762Y-48985952D01*
X98129762Y-48985952D02*
X98105953Y-48795476D01*
X98105953Y-48795476D02*
X98070238Y-48700238D01*
X98070238Y-48700238D02*
X97986905Y-48605000D01*
X97986905Y-48605000D02*
X97850000Y-48557380D01*
X97850000Y-48557380D02*
X97754762Y-48557380D01*
X97754762Y-48557380D02*
X97605953Y-48605000D01*
X97605953Y-48605000D02*
X97552381Y-48652619D01*
X97076191Y-49033571D02*
X96742858Y-49033571D01*
X96534524Y-49557380D02*
X97010715Y-49557380D01*
X97010715Y-49557380D02*
X97135715Y-48557380D01*
X97135715Y-48557380D02*
X96659524Y-48557380D01*
X95760715Y-48890714D02*
X95677381Y-49557380D01*
X96046429Y-48509761D02*
X96195238Y-49224047D01*
X96195238Y-49224047D02*
X95576191Y-49224047D01*
X95373810Y-48557380D02*
X94707143Y-48557380D01*
X94707143Y-48557380D02*
X95010715Y-49557380D01*
X93897619Y-48557380D02*
X94088095Y-48557380D01*
X94088095Y-48557380D02*
X94177381Y-48605000D01*
X94177381Y-48605000D02*
X94219048Y-48652619D01*
X94219048Y-48652619D02*
X94296429Y-48795476D01*
X94296429Y-48795476D02*
X94320238Y-48985952D01*
X94320238Y-48985952D02*
X94272619Y-49366904D01*
X94272619Y-49366904D02*
X94213095Y-49462142D01*
X94213095Y-49462142D02*
X94159524Y-49509761D01*
X94159524Y-49509761D02*
X94058334Y-49557380D01*
X94058334Y-49557380D02*
X93867857Y-49557380D01*
X93867857Y-49557380D02*
X93778572Y-49509761D01*
X93778572Y-49509761D02*
X93736905Y-49462142D01*
X93736905Y-49462142D02*
X93701191Y-49366904D01*
X93701191Y-49366904D02*
X93730953Y-49128809D01*
X93730953Y-49128809D02*
X93790476Y-49033571D01*
X93790476Y-49033571D02*
X93844048Y-48985952D01*
X93844048Y-48985952D02*
X93945238Y-48938333D01*
X93945238Y-48938333D02*
X94135714Y-48938333D01*
X94135714Y-48938333D02*
X94225000Y-48985952D01*
X94225000Y-48985952D02*
X94266667Y-49033571D01*
X94266667Y-49033571D02*
X94302381Y-49128809D01*
X93183333Y-48557380D02*
X93088095Y-48557380D01*
X93088095Y-48557380D02*
X92986905Y-48605000D01*
X92986905Y-48605000D02*
X92933333Y-48652619D01*
X92933333Y-48652619D02*
X92873810Y-48747857D01*
X92873810Y-48747857D02*
X92802381Y-48938333D01*
X92802381Y-48938333D02*
X92772619Y-49176428D01*
X92772619Y-49176428D02*
X92796429Y-49366904D01*
X92796429Y-49366904D02*
X92832143Y-49462142D01*
X92832143Y-49462142D02*
X92873810Y-49509761D01*
X92873810Y-49509761D02*
X92963095Y-49557380D01*
X92963095Y-49557380D02*
X93058333Y-49557380D01*
X93058333Y-49557380D02*
X93159524Y-49509761D01*
X93159524Y-49509761D02*
X93213095Y-49462142D01*
X93213095Y-49462142D02*
X93272619Y-49366904D01*
X93272619Y-49366904D02*
X93344048Y-49176428D01*
X93344048Y-49176428D02*
X93373810Y-48938333D01*
X93373810Y-48938333D02*
X93350000Y-48747857D01*
X93350000Y-48747857D02*
X93314286Y-48652619D01*
X93314286Y-48652619D02*
X93272619Y-48605000D01*
X93272619Y-48605000D02*
X93183333Y-48557380D01*
X91696429Y-49557380D02*
X91821429Y-48557380D01*
X91821429Y-48557380D02*
X91398810Y-49271666D01*
X91398810Y-49271666D02*
X91154762Y-48557380D01*
X91154762Y-48557380D02*
X91029762Y-49557380D01*
X90410715Y-49557380D02*
X90511905Y-49509761D01*
X90511905Y-49509761D02*
X90565476Y-49462142D01*
X90565476Y-49462142D02*
X90625000Y-49366904D01*
X90625000Y-49366904D02*
X90660715Y-49081190D01*
X90660715Y-49081190D02*
X90625000Y-48985952D01*
X90625000Y-48985952D02*
X90583334Y-48938333D01*
X90583334Y-48938333D02*
X90494048Y-48890714D01*
X90494048Y-48890714D02*
X90351191Y-48890714D01*
X90351191Y-48890714D02*
X90250000Y-48938333D01*
X90250000Y-48938333D02*
X90196429Y-48985952D01*
X90196429Y-48985952D02*
X90136905Y-49081190D01*
X90136905Y-49081190D02*
X90101191Y-49366904D01*
X90101191Y-49366904D02*
X90136905Y-49462142D01*
X90136905Y-49462142D02*
X90178572Y-49509761D01*
X90178572Y-49509761D02*
X90267857Y-49557380D01*
X90267857Y-49557380D02*
X90410715Y-49557380D01*
X89875000Y-48890714D02*
X89494048Y-48890714D01*
X89773810Y-48557380D02*
X89666667Y-49414523D01*
X89666667Y-49414523D02*
X89607143Y-49509761D01*
X89607143Y-49509761D02*
X89505953Y-49557380D01*
X89505953Y-49557380D02*
X89410714Y-49557380D01*
X88934524Y-49557380D02*
X89035714Y-49509761D01*
X89035714Y-49509761D02*
X89089285Y-49462142D01*
X89089285Y-49462142D02*
X89148809Y-49366904D01*
X89148809Y-49366904D02*
X89184524Y-49081190D01*
X89184524Y-49081190D02*
X89148809Y-48985952D01*
X89148809Y-48985952D02*
X89107143Y-48938333D01*
X89107143Y-48938333D02*
X89017857Y-48890714D01*
X89017857Y-48890714D02*
X88875000Y-48890714D01*
X88875000Y-48890714D02*
X88773809Y-48938333D01*
X88773809Y-48938333D02*
X88720238Y-48985952D01*
X88720238Y-48985952D02*
X88660714Y-49081190D01*
X88660714Y-49081190D02*
X88625000Y-49366904D01*
X88625000Y-49366904D02*
X88660714Y-49462142D01*
X88660714Y-49462142D02*
X88702381Y-49509761D01*
X88702381Y-49509761D02*
X88791666Y-49557380D01*
X88791666Y-49557380D02*
X88934524Y-49557380D01*
X88172619Y-49557380D02*
X88255952Y-48890714D01*
X88232142Y-49081190D02*
X88196428Y-48985952D01*
X88196428Y-48985952D02*
X88154762Y-48938333D01*
X88154762Y-48938333D02*
X88065476Y-48890714D01*
X88065476Y-48890714D02*
X87970238Y-48890714D01*
X86953571Y-49557380D02*
X87078571Y-48557380D01*
X87078571Y-48557380D02*
X86840475Y-48557380D01*
X86840475Y-48557380D02*
X86691666Y-48605000D01*
X86691666Y-48605000D02*
X86584523Y-48700238D01*
X86584523Y-48700238D02*
X86524999Y-48795476D01*
X86524999Y-48795476D02*
X86453571Y-48985952D01*
X86453571Y-48985952D02*
X86435714Y-49128809D01*
X86435714Y-49128809D02*
X86459523Y-49319285D01*
X86459523Y-49319285D02*
X86495237Y-49414523D01*
X86495237Y-49414523D02*
X86578571Y-49509761D01*
X86578571Y-49509761D02*
X86715475Y-49557380D01*
X86715475Y-49557380D02*
X86953571Y-49557380D01*
X85953571Y-49557380D02*
X86036904Y-48890714D01*
X86013094Y-49081190D02*
X85977380Y-48985952D01*
X85977380Y-48985952D02*
X85935714Y-48938333D01*
X85935714Y-48938333D02*
X85846428Y-48890714D01*
X85846428Y-48890714D02*
X85751190Y-48890714D01*
X85334523Y-49557380D02*
X85417856Y-48890714D01*
X85459523Y-48557380D02*
X85501189Y-48605000D01*
X85501189Y-48605000D02*
X85447618Y-48652619D01*
X85447618Y-48652619D02*
X85405951Y-48605000D01*
X85405951Y-48605000D02*
X85459523Y-48557380D01*
X85459523Y-48557380D02*
X85447618Y-48652619D01*
X85036904Y-48890714D02*
X84715476Y-49557380D01*
X84715476Y-49557380D02*
X84560714Y-48890714D01*
X83721428Y-49509761D02*
X83810713Y-49557380D01*
X83810713Y-49557380D02*
X84001190Y-49557380D01*
X84001190Y-49557380D02*
X84102380Y-49509761D01*
X84102380Y-49509761D02*
X84161904Y-49414523D01*
X84161904Y-49414523D02*
X84209523Y-49033571D01*
X84209523Y-49033571D02*
X84173809Y-48938333D01*
X84173809Y-48938333D02*
X84084523Y-48890714D01*
X84084523Y-48890714D02*
X83894047Y-48890714D01*
X83894047Y-48890714D02*
X83792856Y-48938333D01*
X83792856Y-48938333D02*
X83733332Y-49033571D01*
X83733332Y-49033571D02*
X83721428Y-49128809D01*
X83721428Y-49128809D02*
X84185713Y-49224047D01*
X83239285Y-49557380D02*
X83322618Y-48890714D01*
X83298808Y-49081190D02*
X83263094Y-48985952D01*
X83263094Y-48985952D02*
X83221428Y-48938333D01*
X83221428Y-48938333D02*
X83132142Y-48890714D01*
X83132142Y-48890714D02*
X83036904Y-48890714D01*
X98250000Y-51129761D02*
X98101191Y-51177380D01*
X98101191Y-51177380D02*
X97863095Y-51177380D01*
X97863095Y-51177380D02*
X97773810Y-51129761D01*
X97773810Y-51129761D02*
X97732143Y-51082142D01*
X97732143Y-51082142D02*
X97696429Y-50986904D01*
X97696429Y-50986904D02*
X97708333Y-50891666D01*
X97708333Y-50891666D02*
X97767857Y-50796428D01*
X97767857Y-50796428D02*
X97821429Y-50748809D01*
X97821429Y-50748809D02*
X97922619Y-50701190D01*
X97922619Y-50701190D02*
X98119048Y-50653571D01*
X98119048Y-50653571D02*
X98220238Y-50605952D01*
X98220238Y-50605952D02*
X98273810Y-50558333D01*
X98273810Y-50558333D02*
X98333333Y-50463095D01*
X98333333Y-50463095D02*
X98345238Y-50367857D01*
X98345238Y-50367857D02*
X98309524Y-50272619D01*
X98309524Y-50272619D02*
X98267857Y-50225000D01*
X98267857Y-50225000D02*
X98178572Y-50177380D01*
X98178572Y-50177380D02*
X97940476Y-50177380D01*
X97940476Y-50177380D02*
X97791667Y-50225000D01*
X97083333Y-50177380D02*
X96994048Y-50891666D01*
X96994048Y-50891666D02*
X97023810Y-51034523D01*
X97023810Y-51034523D02*
X97107143Y-51129761D01*
X97107143Y-51129761D02*
X97244048Y-51177380D01*
X97244048Y-51177380D02*
X97339286Y-51177380D01*
X96214286Y-50653571D02*
X96065476Y-50701190D01*
X96065476Y-50701190D02*
X96011905Y-50748809D01*
X96011905Y-50748809D02*
X95952381Y-50844047D01*
X95952381Y-50844047D02*
X95934524Y-50986904D01*
X95934524Y-50986904D02*
X95970238Y-51082142D01*
X95970238Y-51082142D02*
X96011905Y-51129761D01*
X96011905Y-51129761D02*
X96101190Y-51177380D01*
X96101190Y-51177380D02*
X96482143Y-51177380D01*
X96482143Y-51177380D02*
X96607143Y-50177380D01*
X96607143Y-50177380D02*
X96273809Y-50177380D01*
X96273809Y-50177380D02*
X96172619Y-50225000D01*
X96172619Y-50225000D02*
X96119047Y-50272619D01*
X96119047Y-50272619D02*
X96059524Y-50367857D01*
X96059524Y-50367857D02*
X96047619Y-50463095D01*
X96047619Y-50463095D02*
X96083333Y-50558333D01*
X96083333Y-50558333D02*
X96125000Y-50605952D01*
X96125000Y-50605952D02*
X96214286Y-50653571D01*
X96214286Y-50653571D02*
X96547619Y-50653571D01*
X94298809Y-50129761D02*
X94995238Y-51415476D01*
X93371428Y-50272619D02*
X93329761Y-50225000D01*
X93329761Y-50225000D02*
X93240476Y-50177380D01*
X93240476Y-50177380D02*
X93002380Y-50177380D01*
X93002380Y-50177380D02*
X92901190Y-50225000D01*
X92901190Y-50225000D02*
X92847618Y-50272619D01*
X92847618Y-50272619D02*
X92788095Y-50367857D01*
X92788095Y-50367857D02*
X92776190Y-50463095D01*
X92776190Y-50463095D02*
X92805952Y-50605952D01*
X92805952Y-50605952D02*
X93305952Y-51177380D01*
X93305952Y-51177380D02*
X92686904Y-51177380D01*
X92192856Y-50177380D02*
X92097618Y-50177380D01*
X92097618Y-50177380D02*
X91996428Y-50225000D01*
X91996428Y-50225000D02*
X91942856Y-50272619D01*
X91942856Y-50272619D02*
X91883333Y-50367857D01*
X91883333Y-50367857D02*
X91811904Y-50558333D01*
X91811904Y-50558333D02*
X91782142Y-50796428D01*
X91782142Y-50796428D02*
X91805952Y-50986904D01*
X91805952Y-50986904D02*
X91841666Y-51082142D01*
X91841666Y-51082142D02*
X91883333Y-51129761D01*
X91883333Y-51129761D02*
X91972618Y-51177380D01*
X91972618Y-51177380D02*
X92067856Y-51177380D01*
X92067856Y-51177380D02*
X92169047Y-51129761D01*
X92169047Y-51129761D02*
X92222618Y-51082142D01*
X92222618Y-51082142D02*
X92282142Y-50986904D01*
X92282142Y-50986904D02*
X92353571Y-50796428D01*
X92353571Y-50796428D02*
X92383333Y-50558333D01*
X92383333Y-50558333D02*
X92359523Y-50367857D01*
X92359523Y-50367857D02*
X92323809Y-50272619D01*
X92323809Y-50272619D02*
X92282142Y-50225000D01*
X92282142Y-50225000D02*
X92192856Y-50177380D01*
X91466666Y-50272619D02*
X91424999Y-50225000D01*
X91424999Y-50225000D02*
X91335714Y-50177380D01*
X91335714Y-50177380D02*
X91097618Y-50177380D01*
X91097618Y-50177380D02*
X90996428Y-50225000D01*
X90996428Y-50225000D02*
X90942856Y-50272619D01*
X90942856Y-50272619D02*
X90883333Y-50367857D01*
X90883333Y-50367857D02*
X90871428Y-50463095D01*
X90871428Y-50463095D02*
X90901190Y-50605952D01*
X90901190Y-50605952D02*
X91401190Y-51177380D01*
X91401190Y-51177380D02*
X90782142Y-51177380D01*
X90573809Y-50177380D02*
X89954761Y-50177380D01*
X89954761Y-50177380D02*
X90240475Y-50558333D01*
X90240475Y-50558333D02*
X90097618Y-50558333D01*
X90097618Y-50558333D02*
X89996428Y-50605952D01*
X89996428Y-50605952D02*
X89942856Y-50653571D01*
X89942856Y-50653571D02*
X89883333Y-50748809D01*
X89883333Y-50748809D02*
X89853571Y-50986904D01*
X89853571Y-50986904D02*
X89889285Y-51082142D01*
X89889285Y-51082142D02*
X89930952Y-51129761D01*
X89930952Y-51129761D02*
X90020237Y-51177380D01*
X90020237Y-51177380D02*
X90305952Y-51177380D01*
X90305952Y-51177380D02*
X90407142Y-51129761D01*
X90407142Y-51129761D02*
X90460714Y-51082142D01*
X88217856Y-50129761D02*
X88914285Y-51415476D01*
X87129761Y-51177380D02*
X87213094Y-50510714D01*
X87189284Y-50701190D02*
X87153570Y-50605952D01*
X87153570Y-50605952D02*
X87111904Y-50558333D01*
X87111904Y-50558333D02*
X87022618Y-50510714D01*
X87022618Y-50510714D02*
X86927380Y-50510714D01*
X86135713Y-51129761D02*
X86224998Y-51177380D01*
X86224998Y-51177380D02*
X86415475Y-51177380D01*
X86415475Y-51177380D02*
X86516665Y-51129761D01*
X86516665Y-51129761D02*
X86576189Y-51034523D01*
X86576189Y-51034523D02*
X86623808Y-50653571D01*
X86623808Y-50653571D02*
X86588094Y-50558333D01*
X86588094Y-50558333D02*
X86498808Y-50510714D01*
X86498808Y-50510714D02*
X86308332Y-50510714D01*
X86308332Y-50510714D02*
X86207141Y-50558333D01*
X86207141Y-50558333D02*
X86147617Y-50653571D01*
X86147617Y-50653571D02*
X86135713Y-50748809D01*
X86135713Y-50748809D02*
X86599998Y-50844047D01*
X85832141Y-50510714D02*
X85510713Y-51177380D01*
X85510713Y-51177380D02*
X85355951Y-50510714D01*
X84226188Y-50177380D02*
X84130950Y-50177380D01*
X84130950Y-50177380D02*
X84029760Y-50225000D01*
X84029760Y-50225000D02*
X83976188Y-50272619D01*
X83976188Y-50272619D02*
X83916665Y-50367857D01*
X83916665Y-50367857D02*
X83845236Y-50558333D01*
X83845236Y-50558333D02*
X83815474Y-50796428D01*
X83815474Y-50796428D02*
X83839284Y-50986904D01*
X83839284Y-50986904D02*
X83874998Y-51082142D01*
X83874998Y-51082142D02*
X83916665Y-51129761D01*
X83916665Y-51129761D02*
X84005950Y-51177380D01*
X84005950Y-51177380D02*
X84101188Y-51177380D01*
X84101188Y-51177380D02*
X84202379Y-51129761D01*
X84202379Y-51129761D02*
X84255950Y-51082142D01*
X84255950Y-51082142D02*
X84315474Y-50986904D01*
X84315474Y-50986904D02*
X84386903Y-50796428D01*
X84386903Y-50796428D02*
X84416665Y-50558333D01*
X84416665Y-50558333D02*
X84392855Y-50367857D01*
X84392855Y-50367857D02*
X84357141Y-50272619D01*
X84357141Y-50272619D02*
X84315474Y-50225000D01*
X84315474Y-50225000D02*
X84226188Y-50177380D01*
X119275238Y-64849285D02*
X116608571Y-64849285D01*
X118608571Y-64992142D02*
X118608571Y-64706428D01*
X118608571Y-64706428D02*
X118513333Y-64563571D01*
X118513333Y-64563571D02*
X118322857Y-64420714D01*
X118322857Y-64420714D02*
X118132380Y-64349285D01*
X118132380Y-64349285D02*
X117751428Y-64349285D01*
X117751428Y-64349285D02*
X117560952Y-64420714D01*
X117560952Y-64420714D02*
X117370476Y-64563571D01*
X117370476Y-64563571D02*
X117275238Y-64706428D01*
X117275238Y-64706428D02*
X117275238Y-64992142D01*
X117275238Y-64992142D02*
X117370476Y-65135000D01*
X117370476Y-65135000D02*
X117560952Y-65277857D01*
X117560952Y-65277857D02*
X117751428Y-65349285D01*
X117751428Y-65349285D02*
X118132380Y-65349285D01*
X118132380Y-65349285D02*
X118322857Y-65277857D01*
X118322857Y-65277857D02*
X118513333Y-65135000D01*
X118513333Y-65135000D02*
X118608571Y-64992142D01*
X119275238Y-63849285D02*
X119275238Y-62920713D01*
X119275238Y-62920713D02*
X118513333Y-63420713D01*
X118513333Y-63420713D02*
X118513333Y-63206428D01*
X118513333Y-63206428D02*
X118418095Y-63063571D01*
X118418095Y-63063571D02*
X118322857Y-62992142D01*
X118322857Y-62992142D02*
X118132380Y-62920713D01*
X118132380Y-62920713D02*
X117656190Y-62920713D01*
X117656190Y-62920713D02*
X117465714Y-62992142D01*
X117465714Y-62992142D02*
X117370476Y-63063571D01*
X117370476Y-63063571D02*
X117275238Y-63206428D01*
X117275238Y-63206428D02*
X117275238Y-63634999D01*
X117275238Y-63634999D02*
X117370476Y-63777856D01*
X117370476Y-63777856D02*
X117465714Y-63849285D01*
X118799000Y-50037856D02*
X118894238Y-50180714D01*
X118894238Y-50180714D02*
X118894238Y-50394999D01*
X118894238Y-50394999D02*
X118799000Y-50609285D01*
X118799000Y-50609285D02*
X118608523Y-50752142D01*
X118608523Y-50752142D02*
X118418047Y-50823571D01*
X118418047Y-50823571D02*
X118037095Y-50894999D01*
X118037095Y-50894999D02*
X117751380Y-50894999D01*
X117751380Y-50894999D02*
X117370428Y-50823571D01*
X117370428Y-50823571D02*
X117179952Y-50752142D01*
X117179952Y-50752142D02*
X116989476Y-50609285D01*
X116989476Y-50609285D02*
X116894238Y-50394999D01*
X116894238Y-50394999D02*
X116894238Y-50252142D01*
X116894238Y-50252142D02*
X116989476Y-50037856D01*
X116989476Y-50037856D02*
X117084714Y-49966428D01*
X117084714Y-49966428D02*
X117751380Y-49966428D01*
X117751380Y-49966428D02*
X117751380Y-50252142D01*
X116894238Y-49323571D02*
X118894238Y-49323571D01*
X118894238Y-49323571D02*
X116894238Y-48466428D01*
X116894238Y-48466428D02*
X118894238Y-48466428D01*
X116894238Y-47752142D02*
X118894238Y-47752142D01*
X118894238Y-47752142D02*
X118894238Y-47394999D01*
X118894238Y-47394999D02*
X118799000Y-47180713D01*
X118799000Y-47180713D02*
X118608523Y-47037856D01*
X118608523Y-47037856D02*
X118418047Y-46966427D01*
X118418047Y-46966427D02*
X118037095Y-46894999D01*
X118037095Y-46894999D02*
X117751380Y-46894999D01*
X117751380Y-46894999D02*
X117370428Y-46966427D01*
X117370428Y-46966427D02*
X117179952Y-47037856D01*
X117179952Y-47037856D02*
X116989476Y-47180713D01*
X116989476Y-47180713D02*
X116894238Y-47394999D01*
X116894238Y-47394999D02*
X116894238Y-47752142D01*
X119275238Y-59769285D02*
X116608571Y-59769285D01*
X118608571Y-59912142D02*
X118608571Y-59626428D01*
X118608571Y-59626428D02*
X118513333Y-59483571D01*
X118513333Y-59483571D02*
X118322857Y-59340714D01*
X118322857Y-59340714D02*
X118132380Y-59269285D01*
X118132380Y-59269285D02*
X117751428Y-59269285D01*
X117751428Y-59269285D02*
X117560952Y-59340714D01*
X117560952Y-59340714D02*
X117370476Y-59483571D01*
X117370476Y-59483571D02*
X117275238Y-59626428D01*
X117275238Y-59626428D02*
X117275238Y-59912142D01*
X117275238Y-59912142D02*
X117370476Y-60055000D01*
X117370476Y-60055000D02*
X117560952Y-60197857D01*
X117560952Y-60197857D02*
X117751428Y-60269285D01*
X117751428Y-60269285D02*
X118132380Y-60269285D01*
X118132380Y-60269285D02*
X118322857Y-60197857D01*
X118322857Y-60197857D02*
X118513333Y-60055000D01*
X118513333Y-60055000D02*
X118608571Y-59912142D01*
X119084761Y-58697856D02*
X119180000Y-58626428D01*
X119180000Y-58626428D02*
X119275238Y-58483571D01*
X119275238Y-58483571D02*
X119275238Y-58126428D01*
X119275238Y-58126428D02*
X119180000Y-57983571D01*
X119180000Y-57983571D02*
X119084761Y-57912142D01*
X119084761Y-57912142D02*
X118894285Y-57840713D01*
X118894285Y-57840713D02*
X118703809Y-57840713D01*
X118703809Y-57840713D02*
X118418095Y-57912142D01*
X118418095Y-57912142D02*
X117275238Y-58769285D01*
X117275238Y-58769285D02*
X117275238Y-57840713D01*
D11*
X95935000Y-80248380D02*
X95887380Y-80153142D01*
X95887380Y-80153142D02*
X95887380Y-80010285D01*
X95887380Y-80010285D02*
X95935000Y-79867428D01*
X95935000Y-79867428D02*
X96030238Y-79772190D01*
X96030238Y-79772190D02*
X96125476Y-79724571D01*
X96125476Y-79724571D02*
X96315952Y-79676952D01*
X96315952Y-79676952D02*
X96458809Y-79676952D01*
X96458809Y-79676952D02*
X96649285Y-79724571D01*
X96649285Y-79724571D02*
X96744523Y-79772190D01*
X96744523Y-79772190D02*
X96839761Y-79867428D01*
X96839761Y-79867428D02*
X96887380Y-80010285D01*
X96887380Y-80010285D02*
X96887380Y-80105523D01*
X96887380Y-80105523D02*
X96839761Y-80248380D01*
X96839761Y-80248380D02*
X96792142Y-80295999D01*
X96792142Y-80295999D02*
X96458809Y-80295999D01*
X96458809Y-80295999D02*
X96458809Y-80105523D01*
X96220714Y-80724571D02*
X96887380Y-80724571D01*
X96315952Y-80724571D02*
X96268333Y-80772190D01*
X96268333Y-80772190D02*
X96220714Y-80867428D01*
X96220714Y-80867428D02*
X96220714Y-81010285D01*
X96220714Y-81010285D02*
X96268333Y-81105523D01*
X96268333Y-81105523D02*
X96363571Y-81153142D01*
X96363571Y-81153142D02*
X96887380Y-81153142D01*
X96887380Y-82057904D02*
X95887380Y-82057904D01*
X96839761Y-82057904D02*
X96887380Y-81962666D01*
X96887380Y-81962666D02*
X96887380Y-81772190D01*
X96887380Y-81772190D02*
X96839761Y-81676952D01*
X96839761Y-81676952D02*
X96792142Y-81629333D01*
X96792142Y-81629333D02*
X96696904Y-81581714D01*
X96696904Y-81581714D02*
X96411190Y-81581714D01*
X96411190Y-81581714D02*
X96315952Y-81629333D01*
X96315952Y-81629333D02*
X96268333Y-81676952D01*
X96268333Y-81676952D02*
X96220714Y-81772190D01*
X96220714Y-81772190D02*
X96220714Y-81962666D01*
X96220714Y-81962666D02*
X96268333Y-82057904D01*
X99427380Y-81295999D02*
X98951190Y-80962666D01*
X99427380Y-80724571D02*
X98427380Y-80724571D01*
X98427380Y-80724571D02*
X98427380Y-81105523D01*
X98427380Y-81105523D02*
X98475000Y-81200761D01*
X98475000Y-81200761D02*
X98522619Y-81248380D01*
X98522619Y-81248380D02*
X98617857Y-81295999D01*
X98617857Y-81295999D02*
X98760714Y-81295999D01*
X98760714Y-81295999D02*
X98855952Y-81248380D01*
X98855952Y-81248380D02*
X98903571Y-81200761D01*
X98903571Y-81200761D02*
X98951190Y-81105523D01*
X98951190Y-81105523D02*
X98951190Y-80724571D01*
X99427380Y-81629333D02*
X98760714Y-82153142D01*
X98760714Y-81629333D02*
X99427380Y-82153142D01*
D10*
X118227571Y-44886428D02*
X116894238Y-44886428D01*
X118989476Y-45243570D02*
X117560904Y-45600713D01*
X117560904Y-45600713D02*
X117560904Y-44672142D01*
X118037095Y-43886428D02*
X118132333Y-44029285D01*
X118132333Y-44029285D02*
X118227571Y-44100714D01*
X118227571Y-44100714D02*
X118418047Y-44172142D01*
X118418047Y-44172142D02*
X118513285Y-44172142D01*
X118513285Y-44172142D02*
X118703761Y-44100714D01*
X118703761Y-44100714D02*
X118799000Y-44029285D01*
X118799000Y-44029285D02*
X118894238Y-43886428D01*
X118894238Y-43886428D02*
X118894238Y-43600714D01*
X118894238Y-43600714D02*
X118799000Y-43457857D01*
X118799000Y-43457857D02*
X118703761Y-43386428D01*
X118703761Y-43386428D02*
X118513285Y-43314999D01*
X118513285Y-43314999D02*
X118418047Y-43314999D01*
X118418047Y-43314999D02*
X118227571Y-43386428D01*
X118227571Y-43386428D02*
X118132333Y-43457857D01*
X118132333Y-43457857D02*
X118037095Y-43600714D01*
X118037095Y-43600714D02*
X118037095Y-43886428D01*
X118037095Y-43886428D02*
X117941857Y-44029285D01*
X117941857Y-44029285D02*
X117846619Y-44100714D01*
X117846619Y-44100714D02*
X117656142Y-44172142D01*
X117656142Y-44172142D02*
X117275190Y-44172142D01*
X117275190Y-44172142D02*
X117084714Y-44100714D01*
X117084714Y-44100714D02*
X116989476Y-44029285D01*
X116989476Y-44029285D02*
X116894238Y-43886428D01*
X116894238Y-43886428D02*
X116894238Y-43600714D01*
X116894238Y-43600714D02*
X116989476Y-43457857D01*
X116989476Y-43457857D02*
X117084714Y-43386428D01*
X117084714Y-43386428D02*
X117275190Y-43314999D01*
X117275190Y-43314999D02*
X117656142Y-43314999D01*
X117656142Y-43314999D02*
X117846619Y-43386428D01*
X117846619Y-43386428D02*
X117941857Y-43457857D01*
X117941857Y-43457857D02*
X118037095Y-43600714D01*
X118894238Y-42886428D02*
X116894238Y-42386428D01*
X116894238Y-42386428D02*
X118894238Y-41886428D01*
X119275238Y-69929285D02*
X116608571Y-69929285D01*
X118608571Y-70072142D02*
X118608571Y-69786428D01*
X118608571Y-69786428D02*
X118513333Y-69643571D01*
X118513333Y-69643571D02*
X118322857Y-69500714D01*
X118322857Y-69500714D02*
X118132380Y-69429285D01*
X118132380Y-69429285D02*
X117751428Y-69429285D01*
X117751428Y-69429285D02*
X117560952Y-69500714D01*
X117560952Y-69500714D02*
X117370476Y-69643571D01*
X117370476Y-69643571D02*
X117275238Y-69786428D01*
X117275238Y-69786428D02*
X117275238Y-70072142D01*
X117275238Y-70072142D02*
X117370476Y-70215000D01*
X117370476Y-70215000D02*
X117560952Y-70357857D01*
X117560952Y-70357857D02*
X117751428Y-70429285D01*
X117751428Y-70429285D02*
X118132380Y-70429285D01*
X118132380Y-70429285D02*
X118322857Y-70357857D01*
X118322857Y-70357857D02*
X118513333Y-70215000D01*
X118513333Y-70215000D02*
X118608571Y-70072142D01*
X118608571Y-68143571D02*
X117275238Y-68143571D01*
X119370476Y-68500713D02*
X117941904Y-68857856D01*
X117941904Y-68857856D02*
X117941904Y-67929285D01*
D11*
X100967380Y-80819809D02*
X100967380Y-81391237D01*
X101967380Y-81105523D02*
X100967380Y-81105523D01*
X101967380Y-81629333D02*
X101300714Y-82153142D01*
X101300714Y-81629333D02*
X101967380Y-82153142D01*
X94252142Y-80772189D02*
X94299761Y-80724570D01*
X94299761Y-80724570D02*
X94347380Y-80581713D01*
X94347380Y-80581713D02*
X94347380Y-80486475D01*
X94347380Y-80486475D02*
X94299761Y-80343618D01*
X94299761Y-80343618D02*
X94204523Y-80248380D01*
X94204523Y-80248380D02*
X94109285Y-80200761D01*
X94109285Y-80200761D02*
X93918809Y-80153142D01*
X93918809Y-80153142D02*
X93775952Y-80153142D01*
X93775952Y-80153142D02*
X93585476Y-80200761D01*
X93585476Y-80200761D02*
X93490238Y-80248380D01*
X93490238Y-80248380D02*
X93395000Y-80343618D01*
X93395000Y-80343618D02*
X93347380Y-80486475D01*
X93347380Y-80486475D02*
X93347380Y-80581713D01*
X93347380Y-80581713D02*
X93395000Y-80724570D01*
X93395000Y-80724570D02*
X93442619Y-80772189D01*
X94347380Y-81343618D02*
X94299761Y-81248380D01*
X94299761Y-81248380D02*
X94204523Y-81200761D01*
X94204523Y-81200761D02*
X93347380Y-81200761D01*
X94347380Y-81724571D02*
X93347380Y-81724571D01*
X93966428Y-81819809D02*
X94347380Y-82105523D01*
X93680714Y-82105523D02*
X94061666Y-81724571D01*
X91807380Y-79153142D02*
X90807380Y-79153142D01*
X90807380Y-79153142D02*
X90807380Y-79391237D01*
X90807380Y-79391237D02*
X90855000Y-79534094D01*
X90855000Y-79534094D02*
X90950238Y-79629332D01*
X90950238Y-79629332D02*
X91045476Y-79676951D01*
X91045476Y-79676951D02*
X91235952Y-79724570D01*
X91235952Y-79724570D02*
X91378809Y-79724570D01*
X91378809Y-79724570D02*
X91569285Y-79676951D01*
X91569285Y-79676951D02*
X91664523Y-79629332D01*
X91664523Y-79629332D02*
X91759761Y-79534094D01*
X91759761Y-79534094D02*
X91807380Y-79391237D01*
X91807380Y-79391237D02*
X91807380Y-79153142D01*
X91807380Y-80581713D02*
X91283571Y-80581713D01*
X91283571Y-80581713D02*
X91188333Y-80534094D01*
X91188333Y-80534094D02*
X91140714Y-80438856D01*
X91140714Y-80438856D02*
X91140714Y-80248380D01*
X91140714Y-80248380D02*
X91188333Y-80153142D01*
X91759761Y-80581713D02*
X91807380Y-80486475D01*
X91807380Y-80486475D02*
X91807380Y-80248380D01*
X91807380Y-80248380D02*
X91759761Y-80153142D01*
X91759761Y-80153142D02*
X91664523Y-80105523D01*
X91664523Y-80105523D02*
X91569285Y-80105523D01*
X91569285Y-80105523D02*
X91474047Y-80153142D01*
X91474047Y-80153142D02*
X91426428Y-80248380D01*
X91426428Y-80248380D02*
X91426428Y-80486475D01*
X91426428Y-80486475D02*
X91378809Y-80581713D01*
X91140714Y-80915047D02*
X91140714Y-81295999D01*
X90807380Y-81057904D02*
X91664523Y-81057904D01*
X91664523Y-81057904D02*
X91759761Y-81105523D01*
X91759761Y-81105523D02*
X91807380Y-81200761D01*
X91807380Y-81200761D02*
X91807380Y-81295999D01*
X91807380Y-82057904D02*
X91283571Y-82057904D01*
X91283571Y-82057904D02*
X91188333Y-82010285D01*
X91188333Y-82010285D02*
X91140714Y-81915047D01*
X91140714Y-81915047D02*
X91140714Y-81724571D01*
X91140714Y-81724571D02*
X91188333Y-81629333D01*
X91759761Y-82057904D02*
X91807380Y-81962666D01*
X91807380Y-81962666D02*
X91807380Y-81724571D01*
X91807380Y-81724571D02*
X91759761Y-81629333D01*
X91759761Y-81629333D02*
X91664523Y-81581714D01*
X91664523Y-81581714D02*
X91569285Y-81581714D01*
X91569285Y-81581714D02*
X91474047Y-81629333D01*
X91474047Y-81629333D02*
X91426428Y-81724571D01*
X91426428Y-81724571D02*
X91426428Y-81962666D01*
X91426428Y-81962666D02*
X91378809Y-82057904D01*
%TO.C,TP1*%
X86352381Y-55866380D02*
X86685714Y-55390190D01*
X86923809Y-55866380D02*
X86923809Y-54866380D01*
X86923809Y-54866380D02*
X86542857Y-54866380D01*
X86542857Y-54866380D02*
X86447619Y-54914000D01*
X86447619Y-54914000D02*
X86400000Y-54961619D01*
X86400000Y-54961619D02*
X86352381Y-55056857D01*
X86352381Y-55056857D02*
X86352381Y-55199714D01*
X86352381Y-55199714D02*
X86400000Y-55294952D01*
X86400000Y-55294952D02*
X86447619Y-55342571D01*
X86447619Y-55342571D02*
X86542857Y-55390190D01*
X86542857Y-55390190D02*
X86923809Y-55390190D01*
X85923809Y-55342571D02*
X85590476Y-55342571D01*
X85447619Y-55866380D02*
X85923809Y-55866380D01*
X85923809Y-55866380D02*
X85923809Y-54866380D01*
X85923809Y-54866380D02*
X85447619Y-54866380D01*
X85066666Y-55818761D02*
X84923809Y-55866380D01*
X84923809Y-55866380D02*
X84685714Y-55866380D01*
X84685714Y-55866380D02*
X84590476Y-55818761D01*
X84590476Y-55818761D02*
X84542857Y-55771142D01*
X84542857Y-55771142D02*
X84495238Y-55675904D01*
X84495238Y-55675904D02*
X84495238Y-55580666D01*
X84495238Y-55580666D02*
X84542857Y-55485428D01*
X84542857Y-55485428D02*
X84590476Y-55437809D01*
X84590476Y-55437809D02*
X84685714Y-55390190D01*
X84685714Y-55390190D02*
X84876190Y-55342571D01*
X84876190Y-55342571D02*
X84971428Y-55294952D01*
X84971428Y-55294952D02*
X85019047Y-55247333D01*
X85019047Y-55247333D02*
X85066666Y-55152095D01*
X85066666Y-55152095D02*
X85066666Y-55056857D01*
X85066666Y-55056857D02*
X85019047Y-54961619D01*
X85019047Y-54961619D02*
X84971428Y-54914000D01*
X84971428Y-54914000D02*
X84876190Y-54866380D01*
X84876190Y-54866380D02*
X84638095Y-54866380D01*
X84638095Y-54866380D02*
X84495238Y-54914000D01*
X84066666Y-55342571D02*
X83733333Y-55342571D01*
X83590476Y-55866380D02*
X84066666Y-55866380D01*
X84066666Y-55866380D02*
X84066666Y-54866380D01*
X84066666Y-54866380D02*
X83590476Y-54866380D01*
X83304761Y-54866380D02*
X82733333Y-54866380D01*
X83019047Y-55866380D02*
X83019047Y-54866380D01*
%TO.C,TP2*%
X96557142Y-54072571D02*
X96414285Y-54120190D01*
X96414285Y-54120190D02*
X96366666Y-54167809D01*
X96366666Y-54167809D02*
X96319047Y-54263047D01*
X96319047Y-54263047D02*
X96319047Y-54405904D01*
X96319047Y-54405904D02*
X96366666Y-54501142D01*
X96366666Y-54501142D02*
X96414285Y-54548761D01*
X96414285Y-54548761D02*
X96509523Y-54596380D01*
X96509523Y-54596380D02*
X96890475Y-54596380D01*
X96890475Y-54596380D02*
X96890475Y-53596380D01*
X96890475Y-53596380D02*
X96557142Y-53596380D01*
X96557142Y-53596380D02*
X96461904Y-53644000D01*
X96461904Y-53644000D02*
X96414285Y-53691619D01*
X96414285Y-53691619D02*
X96366666Y-53786857D01*
X96366666Y-53786857D02*
X96366666Y-53882095D01*
X96366666Y-53882095D02*
X96414285Y-53977333D01*
X96414285Y-53977333D02*
X96461904Y-54024952D01*
X96461904Y-54024952D02*
X96557142Y-54072571D01*
X96557142Y-54072571D02*
X96890475Y-54072571D01*
X95699999Y-53596380D02*
X95509523Y-53596380D01*
X95509523Y-53596380D02*
X95414285Y-53644000D01*
X95414285Y-53644000D02*
X95319047Y-53739238D01*
X95319047Y-53739238D02*
X95271428Y-53929714D01*
X95271428Y-53929714D02*
X95271428Y-54263047D01*
X95271428Y-54263047D02*
X95319047Y-54453523D01*
X95319047Y-54453523D02*
X95414285Y-54548761D01*
X95414285Y-54548761D02*
X95509523Y-54596380D01*
X95509523Y-54596380D02*
X95699999Y-54596380D01*
X95699999Y-54596380D02*
X95795237Y-54548761D01*
X95795237Y-54548761D02*
X95890475Y-54453523D01*
X95890475Y-54453523D02*
X95938094Y-54263047D01*
X95938094Y-54263047D02*
X95938094Y-53929714D01*
X95938094Y-53929714D02*
X95890475Y-53739238D01*
X95890475Y-53739238D02*
X95795237Y-53644000D01*
X95795237Y-53644000D02*
X95699999Y-53596380D01*
X94652380Y-53596380D02*
X94461904Y-53596380D01*
X94461904Y-53596380D02*
X94366666Y-53644000D01*
X94366666Y-53644000D02*
X94271428Y-53739238D01*
X94271428Y-53739238D02*
X94223809Y-53929714D01*
X94223809Y-53929714D02*
X94223809Y-54263047D01*
X94223809Y-54263047D02*
X94271428Y-54453523D01*
X94271428Y-54453523D02*
X94366666Y-54548761D01*
X94366666Y-54548761D02*
X94461904Y-54596380D01*
X94461904Y-54596380D02*
X94652380Y-54596380D01*
X94652380Y-54596380D02*
X94747618Y-54548761D01*
X94747618Y-54548761D02*
X94842856Y-54453523D01*
X94842856Y-54453523D02*
X94890475Y-54263047D01*
X94890475Y-54263047D02*
X94890475Y-53929714D01*
X94890475Y-53929714D02*
X94842856Y-53739238D01*
X94842856Y-53739238D02*
X94747618Y-53644000D01*
X94747618Y-53644000D02*
X94652380Y-53596380D01*
X93938094Y-53596380D02*
X93366666Y-53596380D01*
X93652380Y-54596380D02*
X93652380Y-53596380D01*
%TO.C,TP4*%
X109592904Y-65407380D02*
X109021476Y-65407380D01*
X109307190Y-66407380D02*
X109307190Y-65407380D01*
X108688142Y-66407380D02*
X108688142Y-65407380D01*
X108688142Y-65407380D02*
X108307190Y-65407380D01*
X108307190Y-65407380D02*
X108211952Y-65455000D01*
X108211952Y-65455000D02*
X108164333Y-65502619D01*
X108164333Y-65502619D02*
X108116714Y-65597857D01*
X108116714Y-65597857D02*
X108116714Y-65740714D01*
X108116714Y-65740714D02*
X108164333Y-65835952D01*
X108164333Y-65835952D02*
X108211952Y-65883571D01*
X108211952Y-65883571D02*
X108307190Y-65931190D01*
X108307190Y-65931190D02*
X108688142Y-65931190D01*
X107259571Y-65740714D02*
X107259571Y-66407380D01*
X107497666Y-65359761D02*
X107735761Y-66074047D01*
X107735761Y-66074047D02*
X107116714Y-66074047D01*
%TO.C,TP7*%
X111116904Y-59565380D02*
X110545476Y-59565380D01*
X110831190Y-60565380D02*
X110831190Y-59565380D01*
X110212142Y-60565380D02*
X110212142Y-59565380D01*
X110212142Y-59565380D02*
X109831190Y-59565380D01*
X109831190Y-59565380D02*
X109735952Y-59613000D01*
X109735952Y-59613000D02*
X109688333Y-59660619D01*
X109688333Y-59660619D02*
X109640714Y-59755857D01*
X109640714Y-59755857D02*
X109640714Y-59898714D01*
X109640714Y-59898714D02*
X109688333Y-59993952D01*
X109688333Y-59993952D02*
X109735952Y-60041571D01*
X109735952Y-60041571D02*
X109831190Y-60089190D01*
X109831190Y-60089190D02*
X110212142Y-60089190D01*
X109307380Y-59565380D02*
X108640714Y-59565380D01*
X108640714Y-59565380D02*
X109069285Y-60565380D01*
%TO.C,TP5*%
X109592904Y-68489380D02*
X109021476Y-68489380D01*
X109307190Y-69489380D02*
X109307190Y-68489380D01*
X108688142Y-69489380D02*
X108688142Y-68489380D01*
X108688142Y-68489380D02*
X108307190Y-68489380D01*
X108307190Y-68489380D02*
X108211952Y-68537000D01*
X108211952Y-68537000D02*
X108164333Y-68584619D01*
X108164333Y-68584619D02*
X108116714Y-68679857D01*
X108116714Y-68679857D02*
X108116714Y-68822714D01*
X108116714Y-68822714D02*
X108164333Y-68917952D01*
X108164333Y-68917952D02*
X108211952Y-68965571D01*
X108211952Y-68965571D02*
X108307190Y-69013190D01*
X108307190Y-69013190D02*
X108688142Y-69013190D01*
X107211952Y-68489380D02*
X107688142Y-68489380D01*
X107688142Y-68489380D02*
X107735761Y-68965571D01*
X107735761Y-68965571D02*
X107688142Y-68917952D01*
X107688142Y-68917952D02*
X107592904Y-68870333D01*
X107592904Y-68870333D02*
X107354809Y-68870333D01*
X107354809Y-68870333D02*
X107259571Y-68917952D01*
X107259571Y-68917952D02*
X107211952Y-68965571D01*
X107211952Y-68965571D02*
X107164333Y-69060809D01*
X107164333Y-69060809D02*
X107164333Y-69298904D01*
X107164333Y-69298904D02*
X107211952Y-69394142D01*
X107211952Y-69394142D02*
X107259571Y-69441761D01*
X107259571Y-69441761D02*
X107354809Y-69489380D01*
X107354809Y-69489380D02*
X107592904Y-69489380D01*
X107592904Y-69489380D02*
X107688142Y-69441761D01*
X107688142Y-69441761D02*
X107735761Y-69394142D01*
%TO.C,TP3*%
X109592904Y-53757380D02*
X109021476Y-53757380D01*
X109307190Y-54757380D02*
X109307190Y-53757380D01*
X108688142Y-54757380D02*
X108688142Y-53757380D01*
X108688142Y-53757380D02*
X108307190Y-53757380D01*
X108307190Y-53757380D02*
X108211952Y-53805000D01*
X108211952Y-53805000D02*
X108164333Y-53852619D01*
X108164333Y-53852619D02*
X108116714Y-53947857D01*
X108116714Y-53947857D02*
X108116714Y-54090714D01*
X108116714Y-54090714D02*
X108164333Y-54185952D01*
X108164333Y-54185952D02*
X108211952Y-54233571D01*
X108211952Y-54233571D02*
X108307190Y-54281190D01*
X108307190Y-54281190D02*
X108688142Y-54281190D01*
X107783380Y-53757380D02*
X107164333Y-53757380D01*
X107164333Y-53757380D02*
X107497666Y-54138333D01*
X107497666Y-54138333D02*
X107354809Y-54138333D01*
X107354809Y-54138333D02*
X107259571Y-54185952D01*
X107259571Y-54185952D02*
X107211952Y-54233571D01*
X107211952Y-54233571D02*
X107164333Y-54328809D01*
X107164333Y-54328809D02*
X107164333Y-54566904D01*
X107164333Y-54566904D02*
X107211952Y-54662142D01*
X107211952Y-54662142D02*
X107259571Y-54709761D01*
X107259571Y-54709761D02*
X107354809Y-54757380D01*
X107354809Y-54757380D02*
X107640523Y-54757380D01*
X107640523Y-54757380D02*
X107735761Y-54709761D01*
X107735761Y-54709761D02*
X107783380Y-54662142D01*
%TO.C,TP6*%
X108576904Y-73950380D02*
X108005476Y-73950380D01*
X108291190Y-74950380D02*
X108291190Y-73950380D01*
X107672142Y-74950380D02*
X107672142Y-73950380D01*
X107672142Y-73950380D02*
X107291190Y-73950380D01*
X107291190Y-73950380D02*
X107195952Y-73998000D01*
X107195952Y-73998000D02*
X107148333Y-74045619D01*
X107148333Y-74045619D02*
X107100714Y-74140857D01*
X107100714Y-74140857D02*
X107100714Y-74283714D01*
X107100714Y-74283714D02*
X107148333Y-74378952D01*
X107148333Y-74378952D02*
X107195952Y-74426571D01*
X107195952Y-74426571D02*
X107291190Y-74474190D01*
X107291190Y-74474190D02*
X107672142Y-74474190D01*
X106243571Y-73950380D02*
X106434047Y-73950380D01*
X106434047Y-73950380D02*
X106529285Y-73998000D01*
X106529285Y-73998000D02*
X106576904Y-74045619D01*
X106576904Y-74045619D02*
X106672142Y-74188476D01*
X106672142Y-74188476D02*
X106719761Y-74378952D01*
X106719761Y-74378952D02*
X106719761Y-74759904D01*
X106719761Y-74759904D02*
X106672142Y-74855142D01*
X106672142Y-74855142D02*
X106624523Y-74902761D01*
X106624523Y-74902761D02*
X106529285Y-74950380D01*
X106529285Y-74950380D02*
X106338809Y-74950380D01*
X106338809Y-74950380D02*
X106243571Y-74902761D01*
X106243571Y-74902761D02*
X106195952Y-74855142D01*
X106195952Y-74855142D02*
X106148333Y-74759904D01*
X106148333Y-74759904D02*
X106148333Y-74521809D01*
X106148333Y-74521809D02*
X106195952Y-74426571D01*
X106195952Y-74426571D02*
X106243571Y-74378952D01*
X106243571Y-74378952D02*
X106338809Y-74331333D01*
X106338809Y-74331333D02*
X106529285Y-74331333D01*
X106529285Y-74331333D02*
X106624523Y-74378952D01*
X106624523Y-74378952D02*
X106672142Y-74426571D01*
X106672142Y-74426571D02*
X106719761Y-74521809D01*
D12*
%TO.C,J2*%
X119160000Y-40775000D02*
X119160000Y-42775000D01*
X117910000Y-40775000D02*
X119160000Y-40775000D01*
X118770000Y-41165000D02*
X111300000Y-41165000D01*
X116460000Y-42315000D02*
X112160000Y-42315000D01*
X112160000Y-42315000D02*
X112160000Y-43065000D01*
X112160000Y-44565000D02*
X112160000Y-45315000D01*
X112160000Y-45315000D02*
X116460000Y-45315000D01*
X116460000Y-47395000D02*
X112160000Y-47395000D01*
X112160000Y-47395000D02*
X112160000Y-48145000D01*
X112160000Y-49645000D02*
X112160000Y-50395000D01*
X112160000Y-50395000D02*
X116460000Y-50395000D01*
X116460000Y-52475000D02*
X112160000Y-52475000D01*
X112160000Y-52475000D02*
X112160000Y-53225000D01*
X112160000Y-54725000D02*
X112160000Y-55475000D01*
X112160000Y-55475000D02*
X116460000Y-55475000D01*
X116460000Y-57555000D02*
X112160000Y-57555000D01*
X112160000Y-57555000D02*
X112160000Y-58305000D01*
X112160000Y-59805000D02*
X112160000Y-60555000D01*
X112160000Y-60555000D02*
X116460000Y-60555000D01*
X116460000Y-62635000D02*
X112160000Y-62635000D01*
X112160000Y-62635000D02*
X112160000Y-63385000D01*
X112160000Y-64885000D02*
X112160000Y-65635000D01*
X112160000Y-65635000D02*
X116460000Y-65635000D01*
X116460000Y-67715000D02*
X112160000Y-67715000D01*
X112160000Y-67715000D02*
X112160000Y-68465000D01*
X112160000Y-69965000D02*
X112160000Y-70715000D01*
X112160000Y-70715000D02*
X116460000Y-70715000D01*
X111300000Y-71865000D02*
X111300000Y-41165000D01*
X111300000Y-71865000D02*
X118770000Y-71865000D01*
X112160000Y-44565000D02*
G75*
G03*
X112160156Y-43065353I-1699995J750000D01*
G01*
X112160000Y-49645000D02*
G75*
G03*
X112160155Y-48145353I-1700000J750000D01*
G01*
X112160000Y-54725000D02*
G75*
G03*
X112160155Y-53225353I-1700000J750000D01*
G01*
X112160000Y-59805000D02*
G75*
G03*
X112160155Y-58305353I-1700000J750000D01*
G01*
X112160000Y-64885000D02*
G75*
G03*
X112160155Y-63385353I-1700000J750000D01*
G01*
X112160000Y-69965000D02*
G75*
G03*
X112160155Y-68465353I-1700000J750000D01*
G01*
%TO.C,C14*%
X102335000Y-51808748D02*
X102335000Y-52331252D01*
X100865000Y-51808748D02*
X100865000Y-52331252D01*
%TO.C,C52*%
X100303000Y-73906748D02*
X100303000Y-74429252D01*
X98833000Y-73906748D02*
X98833000Y-74429252D01*
%TO.C,C82*%
X89840000Y-64607836D02*
X89840000Y-64392164D01*
X90560000Y-64607836D02*
X90560000Y-64392164D01*
%TO.C,C83*%
X89907836Y-63460000D02*
X89692164Y-63460000D01*
X89907836Y-62740000D02*
X89692164Y-62740000D01*
%TO.C,C40*%
X102335000Y-66540748D02*
X102335000Y-67063252D01*
X100865000Y-66540748D02*
X100865000Y-67063252D01*
%TO.C,C27*%
X102335000Y-59174748D02*
X102335000Y-59697252D01*
X100865000Y-59174748D02*
X100865000Y-59697252D01*
%TO.C,C13*%
X100303000Y-51808748D02*
X100303000Y-52331252D01*
X98833000Y-51808748D02*
X98833000Y-52331252D01*
%TO.C,C26*%
X100303000Y-59174748D02*
X100303000Y-59697252D01*
X98833000Y-59174748D02*
X98833000Y-59697252D01*
%TO.C,C41*%
X104367000Y-66540748D02*
X104367000Y-67063252D01*
X102897000Y-66540748D02*
X102897000Y-67063252D01*
%TO.C,C54*%
X104367000Y-73906748D02*
X104367000Y-74429252D01*
X102897000Y-73906748D02*
X102897000Y-74429252D01*
%TO.C,C28*%
X104367000Y-59174748D02*
X104367000Y-59697252D01*
X102897000Y-59174748D02*
X102897000Y-59697252D01*
%TO.C,C53*%
X102335000Y-73906748D02*
X102335000Y-74429252D01*
X100865000Y-73906748D02*
X100865000Y-74429252D01*
%TO.C,TP1*%
X86100000Y-57500000D02*
G75*
G03*
X86100000Y-57500000I-1200000J0D01*
G01*
%TO.C,C81*%
X88692164Y-64540000D02*
X88907836Y-64540000D01*
X88692164Y-65260000D02*
X88907836Y-65260000D01*
%TO.C,TP2*%
X96400000Y-56200000D02*
G75*
G03*
X96400000Y-56200000I-1200000J0D01*
G01*
%TO.C,TP4*%
X109531000Y-63754000D02*
G75*
G03*
X109531000Y-63754000I-1200000J0D01*
G01*
%TO.C,TP7*%
X108261000Y-60198000D02*
G75*
G03*
X108261000Y-60198000I-1200000J0D01*
G01*
%TO.C,C84*%
X88760000Y-63392164D02*
X88760000Y-63607836D01*
X88040000Y-63392164D02*
X88040000Y-63607836D01*
%TO.C,TP5*%
X109531000Y-71120000D02*
G75*
G03*
X109531000Y-71120000I-1200000J0D01*
G01*
%TO.C,TP3*%
X109531000Y-56388000D02*
G75*
G03*
X109531000Y-56388000I-1200000J0D01*
G01*
%TO.C,C15*%
X104367000Y-51808748D02*
X104367000Y-52331252D01*
X102897000Y-51808748D02*
X102897000Y-52331252D01*
%TO.C,C39*%
X100303000Y-66540748D02*
X100303000Y-67063252D01*
X98833000Y-66540748D02*
X98833000Y-67063252D01*
%TO.C,TP6*%
X108515000Y-76581000D02*
G75*
G03*
X108515000Y-76581000I-1200000J0D01*
G01*
%TD*%
%LPC*%
D13*
%TO.C,H2*%
X83700000Y-43815000D03*
X84293109Y-42383109D03*
X84293109Y-45246891D03*
X85725000Y-41790000D03*
D14*
X85725000Y-43815000D03*
D13*
X85725000Y-45840000D03*
X87156891Y-42383109D03*
X87156891Y-45246891D03*
X87750000Y-43815000D03*
%TD*%
%TO.C,H1*%
X105290000Y-43815000D03*
X105883109Y-42383109D03*
X105883109Y-45246891D03*
X107315000Y-41790000D03*
D14*
X107315000Y-43815000D03*
D13*
X107315000Y-45840000D03*
X108746891Y-42383109D03*
X108746891Y-45246891D03*
X109340000Y-43815000D03*
%TD*%
D15*
%TO.C,J1*%
X80644999Y-42544999D03*
D16*
X78104999Y-42544999D03*
X80644999Y-45084999D03*
X78104999Y-45084999D03*
X80644999Y-47624999D03*
X78104999Y-47624999D03*
X80644999Y-50164999D03*
X78104999Y-50164999D03*
X80644999Y-52704999D03*
X78104999Y-52704999D03*
X80644999Y-55244999D03*
X78104999Y-55244999D03*
X80644999Y-57784999D03*
X78104999Y-57784999D03*
X80644999Y-60324999D03*
X78104999Y-60324999D03*
X80644999Y-62864999D03*
X78104999Y-62864999D03*
X80644999Y-65404999D03*
X78104999Y-65404999D03*
X80644999Y-67944999D03*
X78104999Y-67944999D03*
X80644999Y-70484999D03*
X78104999Y-70484999D03*
X80644999Y-73024999D03*
X78104999Y-73024999D03*
X80644999Y-75564999D03*
X78104999Y-75564999D03*
X80644999Y-78104999D03*
X78104999Y-78104999D03*
X80644999Y-80644999D03*
X78104999Y-80644999D03*
X80644999Y-83184999D03*
X78104999Y-83184999D03*
%TD*%
D17*
%TO.C,J2*%
X114300000Y-43815000D03*
D18*
X114299999Y-48894999D03*
X114299999Y-53974999D03*
X114299999Y-59054999D03*
X114299999Y-64134999D03*
X114299999Y-69214999D03*
%TD*%
D19*
%TO.C,U7*%
X96950000Y-42370000D03*
X96950000Y-43050000D03*
D20*
X95750001Y-42370001D03*
X95250000Y-42370001D03*
X94750001Y-42370001D03*
X95710001Y-43319999D03*
X94890000Y-43319999D03*
D21*
X98530000Y-44100000D03*
D19*
X97530000Y-44100000D03*
X96530000Y-44100000D03*
X95530000Y-44100000D03*
X94530000Y-44100000D03*
%TD*%
D13*
%TO.C,H4*%
X83700000Y-81915000D03*
X84293109Y-80483109D03*
X84293109Y-83346891D03*
X85725000Y-79890000D03*
D14*
X85725000Y-81915000D03*
D13*
X85725000Y-83940000D03*
X87156891Y-80483109D03*
X87156891Y-83346891D03*
X87750000Y-81915000D03*
%TD*%
%TO.C,H3*%
X105290000Y-81915000D03*
X105883109Y-80483109D03*
X105883109Y-83346891D03*
X107315000Y-79890000D03*
D14*
X107315000Y-81915000D03*
D13*
X107315000Y-83940000D03*
X108746891Y-80483109D03*
X108746891Y-83346891D03*
X109340000Y-81915000D03*
%TD*%
D15*
%TO.C,J3*%
X91439999Y-83819999D03*
D16*
X93979999Y-83819999D03*
X96519999Y-83819999D03*
X99059999Y-83819999D03*
X101599999Y-83819999D03*
%TD*%
D22*
%TO.C,C14*%
X101600000Y-51120000D03*
X101600000Y-53020000D03*
%TD*%
%TO.C,C52*%
X99568000Y-73218000D03*
X99568000Y-75118000D03*
%TD*%
D23*
%TO.C,C82*%
X90200000Y-64980000D03*
X90200000Y-64020000D03*
%TD*%
D24*
%TO.C,C83*%
X90280000Y-63100000D03*
X89320000Y-63100000D03*
%TD*%
D22*
%TO.C,C40*%
X101600000Y-65852000D03*
X101600000Y-67752000D03*
%TD*%
%TO.C,C27*%
X101600000Y-58486000D03*
X101600000Y-60386000D03*
%TD*%
%TO.C,C13*%
X99568000Y-51120000D03*
X99568000Y-53020000D03*
%TD*%
%TO.C,C26*%
X99568000Y-58486000D03*
X99568000Y-60386000D03*
%TD*%
%TO.C,C41*%
X103632000Y-65852000D03*
X103632000Y-67752000D03*
%TD*%
%TO.C,C54*%
X103632000Y-73218000D03*
X103632000Y-75118000D03*
%TD*%
%TO.C,C28*%
X103632000Y-58486000D03*
X103632000Y-60386000D03*
%TD*%
%TO.C,C53*%
X101600000Y-73218000D03*
X101600000Y-75118000D03*
%TD*%
D25*
%TO.C,TP1*%
X84900000Y-57500000D03*
%TD*%
D26*
%TO.C,C81*%
X88320000Y-64900000D03*
X89280000Y-64900000D03*
%TD*%
D25*
%TO.C,TP2*%
X95200000Y-56200000D03*
%TD*%
%TO.C,TP4*%
X108331000Y-63754000D03*
%TD*%
%TO.C,TP7*%
X107061000Y-60198000D03*
%TD*%
D15*
%TO.C,J101*%
X113029999Y-42544999D03*
D16*
X115569999Y-42544999D03*
X113029999Y-45084999D03*
X115569999Y-45084999D03*
X113029999Y-47624999D03*
X115569999Y-47624999D03*
X113029999Y-50164999D03*
X115569999Y-50164999D03*
X113029999Y-52704999D03*
X115569999Y-52704999D03*
X113029999Y-55244999D03*
X115569999Y-55244999D03*
X113029999Y-57784999D03*
X115569999Y-57784999D03*
X113029999Y-60324999D03*
X115569999Y-60324999D03*
X113029999Y-62864999D03*
X115569999Y-62864999D03*
X113029999Y-65404999D03*
X115569999Y-65404999D03*
X113029999Y-67944999D03*
X115569999Y-67944999D03*
X113029999Y-70484999D03*
X115569999Y-70484999D03*
%TD*%
D27*
%TO.C,C84*%
X88400000Y-63020000D03*
X88400000Y-63980000D03*
%TD*%
D25*
%TO.C,TP5*%
X108331000Y-71120000D03*
%TD*%
%TO.C,TP3*%
X108331000Y-56388000D03*
%TD*%
D22*
%TO.C,C15*%
X103632000Y-51120000D03*
X103632000Y-53020000D03*
%TD*%
%TO.C,C39*%
X99568000Y-65852000D03*
X99568000Y-67752000D03*
%TD*%
D25*
%TO.C,TP6*%
X107315000Y-76581000D03*
%TD*%
M02*
