%TF.GenerationSoftware,KiCad,Pcbnew,(7.0.0)*%
%TF.CreationDate,2023-11-18T15:32:54-05:00*%
%TF.ProjectId,ECE4760 Motor Driver,45434534-3736-4302-904d-6f746f722044,0*%
%TF.SameCoordinates,Original*%
%TF.FileFunction,Soldermask,Bot*%
%TF.FilePolarity,Negative*%
%FSLAX46Y46*%
G04 Gerber Fmt 4.6, Leading zero omitted, Abs format (unit mm)*
G04 Created by KiCad (PCBNEW (7.0.0)) date 2023-11-18 15:32:54*
%MOMM*%
%LPD*%
G01*
G04 APERTURE LIST*
G04 Aperture macros list*
%AMRoundRect*
0 Rectangle with rounded corners*
0 $1 Rounding radius*
0 $2 $3 $4 $5 $6 $7 $8 $9 X,Y pos of 4 corners*
0 Add a 4 corners polygon primitive as box body*
4,1,4,$2,$3,$4,$5,$6,$7,$8,$9,$2,$3,0*
0 Add four circle primitives for the rounded corners*
1,1,$1+$1,$2,$3*
1,1,$1+$1,$4,$5*
1,1,$1+$1,$6,$7*
1,1,$1+$1,$8,$9*
0 Add four rect primitives between the rounded corners*
20,1,$1+$1,$2,$3,$4,$5,0*
20,1,$1+$1,$4,$5,$6,$7,0*
20,1,$1+$1,$6,$7,$8,$9,0*
20,1,$1+$1,$8,$9,$2,$3,0*%
G04 Aperture macros list end*
%ADD10C,0.800000*%
%ADD11C,5.400000*%
%ADD12R,1.700000X1.700000*%
%ADD13O,1.700000X1.700000*%
%ADD14RoundRect,0.250000X-1.550000X0.650000X-1.550000X-0.650000X1.550000X-0.650000X1.550000X0.650000X0*%
%ADD15O,3.600000X1.800000*%
%ADD16C,0.350000*%
%ADD17C,0.499999*%
%ADD18C,0.300000*%
%ADD19RoundRect,0.250000X-0.475000X0.250000X-0.475000X-0.250000X0.475000X-0.250000X0.475000X0.250000X0*%
%ADD20RoundRect,0.140000X0.170000X-0.140000X0.170000X0.140000X-0.170000X0.140000X-0.170000X-0.140000X0*%
%ADD21RoundRect,0.140000X0.140000X0.170000X-0.140000X0.170000X-0.140000X-0.170000X0.140000X-0.170000X0*%
%ADD22C,2.000000*%
%ADD23RoundRect,0.140000X-0.140000X-0.170000X0.140000X-0.170000X0.140000X0.170000X-0.140000X0.170000X0*%
%ADD24RoundRect,0.140000X-0.170000X0.140000X-0.170000X-0.140000X0.170000X-0.140000X0.170000X0.140000X0*%
G04 APERTURE END LIST*
D10*
%TO.C,H2*%
X83700000Y-43815000D03*
X84293109Y-42383109D03*
X84293109Y-45246891D03*
X85725000Y-41790000D03*
D11*
X85725000Y-43815000D03*
D10*
X85725000Y-45840000D03*
X87156891Y-42383109D03*
X87156891Y-45246891D03*
X87750000Y-43815000D03*
%TD*%
%TO.C,H1*%
X105290000Y-43815000D03*
X105883109Y-42383109D03*
X105883109Y-45246891D03*
X107315000Y-41790000D03*
D11*
X107315000Y-43815000D03*
D10*
X107315000Y-45840000D03*
X108746891Y-42383109D03*
X108746891Y-45246891D03*
X109340000Y-43815000D03*
%TD*%
D12*
%TO.C,J1*%
X80644999Y-42544999D03*
D13*
X78104999Y-42544999D03*
X80644999Y-45084999D03*
X78104999Y-45084999D03*
X80644999Y-47624999D03*
X78104999Y-47624999D03*
X80644999Y-50164999D03*
X78104999Y-50164999D03*
X80644999Y-52704999D03*
X78104999Y-52704999D03*
X80644999Y-55244999D03*
X78104999Y-55244999D03*
X80644999Y-57784999D03*
X78104999Y-57784999D03*
X80644999Y-60324999D03*
X78104999Y-60324999D03*
X80644999Y-62864999D03*
X78104999Y-62864999D03*
X80644999Y-65404999D03*
X78104999Y-65404999D03*
X80644999Y-67944999D03*
X78104999Y-67944999D03*
X80644999Y-70484999D03*
X78104999Y-70484999D03*
X80644999Y-73024999D03*
X78104999Y-73024999D03*
X80644999Y-75564999D03*
X78104999Y-75564999D03*
X80644999Y-78104999D03*
X78104999Y-78104999D03*
X80644999Y-80644999D03*
X78104999Y-80644999D03*
X80644999Y-83184999D03*
X78104999Y-83184999D03*
%TD*%
D14*
%TO.C,J2*%
X114300000Y-43815000D03*
D15*
X114299999Y-48894999D03*
X114299999Y-53974999D03*
X114299999Y-59054999D03*
X114299999Y-64134999D03*
X114299999Y-69214999D03*
%TD*%
D16*
%TO.C,U7*%
X96950000Y-42370000D03*
X96950000Y-43050000D03*
D17*
X95750001Y-42370001D03*
X95250000Y-42370001D03*
X94750001Y-42370001D03*
X95710001Y-43319999D03*
X94890000Y-43319999D03*
D18*
X98530000Y-44100000D03*
D16*
X97530000Y-44100000D03*
X96530000Y-44100000D03*
X95530000Y-44100000D03*
X94530000Y-44100000D03*
%TD*%
D10*
%TO.C,H4*%
X83700000Y-81915000D03*
X84293109Y-80483109D03*
X84293109Y-83346891D03*
X85725000Y-79890000D03*
D11*
X85725000Y-81915000D03*
D10*
X85725000Y-83940000D03*
X87156891Y-80483109D03*
X87156891Y-83346891D03*
X87750000Y-81915000D03*
%TD*%
%TO.C,H3*%
X105290000Y-81915000D03*
X105883109Y-80483109D03*
X105883109Y-83346891D03*
X107315000Y-79890000D03*
D11*
X107315000Y-81915000D03*
D10*
X107315000Y-83940000D03*
X108746891Y-80483109D03*
X108746891Y-83346891D03*
X109340000Y-81915000D03*
%TD*%
D12*
%TO.C,J3*%
X91439999Y-83819999D03*
D13*
X93979999Y-83819999D03*
X96519999Y-83819999D03*
X99059999Y-83819999D03*
X101599999Y-83819999D03*
%TD*%
D19*
%TO.C,C14*%
X101600000Y-51120000D03*
X101600000Y-53020000D03*
%TD*%
%TO.C,C52*%
X99568000Y-73218000D03*
X99568000Y-75118000D03*
%TD*%
D20*
%TO.C,C82*%
X90200000Y-64980000D03*
X90200000Y-64020000D03*
%TD*%
D21*
%TO.C,C83*%
X90280000Y-63100000D03*
X89320000Y-63100000D03*
%TD*%
D19*
%TO.C,C40*%
X101600000Y-65852000D03*
X101600000Y-67752000D03*
%TD*%
%TO.C,C27*%
X101600000Y-58486000D03*
X101600000Y-60386000D03*
%TD*%
%TO.C,C13*%
X99568000Y-51120000D03*
X99568000Y-53020000D03*
%TD*%
%TO.C,C26*%
X99568000Y-58486000D03*
X99568000Y-60386000D03*
%TD*%
%TO.C,C41*%
X103632000Y-65852000D03*
X103632000Y-67752000D03*
%TD*%
%TO.C,C54*%
X103632000Y-73218000D03*
X103632000Y-75118000D03*
%TD*%
%TO.C,C28*%
X103632000Y-58486000D03*
X103632000Y-60386000D03*
%TD*%
%TO.C,C53*%
X101600000Y-73218000D03*
X101600000Y-75118000D03*
%TD*%
D22*
%TO.C,TP1*%
X84900000Y-57500000D03*
%TD*%
D23*
%TO.C,C81*%
X88320000Y-64900000D03*
X89280000Y-64900000D03*
%TD*%
D22*
%TO.C,TP2*%
X95200000Y-56200000D03*
%TD*%
%TO.C,TP4*%
X108331000Y-63754000D03*
%TD*%
%TO.C,TP7*%
X107061000Y-60198000D03*
%TD*%
D12*
%TO.C,J101*%
X113029999Y-42544999D03*
D13*
X115569999Y-42544999D03*
X113029999Y-45084999D03*
X115569999Y-45084999D03*
X113029999Y-47624999D03*
X115569999Y-47624999D03*
X113029999Y-50164999D03*
X115569999Y-50164999D03*
X113029999Y-52704999D03*
X115569999Y-52704999D03*
X113029999Y-55244999D03*
X115569999Y-55244999D03*
X113029999Y-57784999D03*
X115569999Y-57784999D03*
X113029999Y-60324999D03*
X115569999Y-60324999D03*
X113029999Y-62864999D03*
X115569999Y-62864999D03*
X113029999Y-65404999D03*
X115569999Y-65404999D03*
X113029999Y-67944999D03*
X115569999Y-67944999D03*
X113029999Y-70484999D03*
X115569999Y-70484999D03*
%TD*%
D24*
%TO.C,C84*%
X88400000Y-63020000D03*
X88400000Y-63980000D03*
%TD*%
D22*
%TO.C,TP5*%
X108331000Y-71120000D03*
%TD*%
%TO.C,TP3*%
X108331000Y-56388000D03*
%TD*%
D19*
%TO.C,C15*%
X103632000Y-51120000D03*
X103632000Y-53020000D03*
%TD*%
%TO.C,C39*%
X99568000Y-65852000D03*
X99568000Y-67752000D03*
%TD*%
D22*
%TO.C,TP6*%
X107315000Y-76581000D03*
%TD*%
M02*
