%TF.GenerationSoftware,KiCad,Pcbnew,(7.0.0)*%
%TF.CreationDate,2023-11-10T13:47:01-05:00*%
%TF.ProjectId,ECE4760 Motor Driver,45434534-3736-4302-904d-6f746f722044,rev?*%
%TF.SameCoordinates,Original*%
%TF.FileFunction,Legend,Bot*%
%TF.FilePolarity,Positive*%
%FSLAX46Y46*%
G04 Gerber Fmt 4.6, Leading zero omitted, Abs format (unit mm)*
G04 Created by KiCad (PCBNEW (7.0.0)) date 2023-11-10 13:47:01*
%MOMM*%
%LPD*%
G01*
G04 APERTURE LIST*
G04 Aperture macros list*
%AMRoundRect*
0 Rectangle with rounded corners*
0 $1 Rounding radius*
0 $2 $3 $4 $5 $6 $7 $8 $9 X,Y pos of 4 corners*
0 Add a 4 corners polygon primitive as box body*
4,1,4,$2,$3,$4,$5,$6,$7,$8,$9,$2,$3,0*
0 Add four circle primitives for the rounded corners*
1,1,$1+$1,$2,$3*
1,1,$1+$1,$4,$5*
1,1,$1+$1,$6,$7*
1,1,$1+$1,$8,$9*
0 Add four rect primitives between the rounded corners*
20,1,$1+$1,$2,$3,$4,$5,0*
20,1,$1+$1,$4,$5,$6,$7,0*
20,1,$1+$1,$6,$7,$8,$9,0*
20,1,$1+$1,$8,$9,$2,$3,0*%
G04 Aperture macros list end*
%ADD10C,0.200000*%
%ADD11C,0.150000*%
%ADD12C,0.300000*%
%ADD13C,0.120000*%
%ADD14C,0.800000*%
%ADD15C,5.400000*%
%ADD16R,1.700000X1.700000*%
%ADD17O,1.700000X1.700000*%
%ADD18RoundRect,0.250000X-1.550000X0.650000X-1.550000X-0.650000X1.550000X-0.650000X1.550000X0.650000X0*%
%ADD19O,3.600000X1.800000*%
%ADD20C,0.349999*%
%ADD21C,0.499999*%
%ADD22C,0.399999*%
%ADD23R,1.600000X1.600000*%
%ADD24C,1.600000*%
%ADD25RoundRect,0.250000X-0.475000X0.250000X-0.475000X-0.250000X0.475000X-0.250000X0.475000X0.250000X0*%
%ADD26RoundRect,0.250000X1.100000X-0.325000X1.100000X0.325000X-1.100000X0.325000X-1.100000X-0.325000X0*%
%ADD27C,2.000000*%
G04 APERTURE END LIST*
D10*
X119021238Y-53419285D02*
X116354571Y-53419285D01*
X118354571Y-53562142D02*
X118354571Y-53276428D01*
X118354571Y-53276428D02*
X118259333Y-53133571D01*
X118259333Y-53133571D02*
X118068857Y-52990714D01*
X118068857Y-52990714D02*
X117878380Y-52919285D01*
X117878380Y-52919285D02*
X117497428Y-52919285D01*
X117497428Y-52919285D02*
X117306952Y-52990714D01*
X117306952Y-52990714D02*
X117116476Y-53133571D01*
X117116476Y-53133571D02*
X117021238Y-53276428D01*
X117021238Y-53276428D02*
X117021238Y-53562142D01*
X117021238Y-53562142D02*
X117116476Y-53705000D01*
X117116476Y-53705000D02*
X117306952Y-53847857D01*
X117306952Y-53847857D02*
X117497428Y-53919285D01*
X117497428Y-53919285D02*
X117878380Y-53919285D01*
X117878380Y-53919285D02*
X118068857Y-53847857D01*
X118068857Y-53847857D02*
X118259333Y-53705000D01*
X118259333Y-53705000D02*
X118354571Y-53562142D01*
X117021238Y-51490713D02*
X117021238Y-52347856D01*
X117021238Y-51919285D02*
X119021238Y-51919285D01*
X119021238Y-51919285D02*
X118735523Y-52062142D01*
X118735523Y-52062142D02*
X118545047Y-52204999D01*
X118545047Y-52204999D02*
X118449809Y-52347856D01*
D11*
X102433237Y-77853380D02*
X102433237Y-78662904D01*
X102433237Y-78662904D02*
X102385618Y-78758142D01*
X102385618Y-78758142D02*
X102337999Y-78805761D01*
X102337999Y-78805761D02*
X102242761Y-78853380D01*
X102242761Y-78853380D02*
X102052285Y-78853380D01*
X102052285Y-78853380D02*
X101957047Y-78805761D01*
X101957047Y-78805761D02*
X101909428Y-78758142D01*
X101909428Y-78758142D02*
X101861809Y-78662904D01*
X101861809Y-78662904D02*
X101861809Y-77853380D01*
X101433237Y-78567666D02*
X100957047Y-78567666D01*
X101528475Y-78853380D02*
X101195142Y-77853380D01*
X101195142Y-77853380D02*
X100861809Y-78853380D01*
X99957047Y-78853380D02*
X100290380Y-78377190D01*
X100528475Y-78853380D02*
X100528475Y-77853380D01*
X100528475Y-77853380D02*
X100147523Y-77853380D01*
X100147523Y-77853380D02*
X100052285Y-77901000D01*
X100052285Y-77901000D02*
X100004666Y-77948619D01*
X100004666Y-77948619D02*
X99957047Y-78043857D01*
X99957047Y-78043857D02*
X99957047Y-78186714D01*
X99957047Y-78186714D02*
X100004666Y-78281952D01*
X100004666Y-78281952D02*
X100052285Y-78329571D01*
X100052285Y-78329571D02*
X100147523Y-78377190D01*
X100147523Y-78377190D02*
X100528475Y-78377190D01*
X99671332Y-77853380D02*
X99099904Y-77853380D01*
X99385618Y-78853380D02*
X99385618Y-77853380D01*
D12*
X108509284Y-79138501D02*
X108009284Y-79138501D01*
X107680415Y-80055167D02*
X108394700Y-80055167D01*
X108394700Y-80055167D02*
X108613450Y-78305167D01*
X108613450Y-78305167D02*
X107899165Y-78305167D01*
X106201248Y-79888501D02*
X106262260Y-79971834D01*
X106262260Y-79971834D02*
X106466129Y-80055167D01*
X106466129Y-80055167D02*
X106608986Y-80055167D01*
X106608986Y-80055167D02*
X106833688Y-79971834D01*
X106833688Y-79971834D02*
X106997379Y-79805167D01*
X106997379Y-79805167D02*
X107089641Y-79638501D01*
X107089641Y-79638501D02*
X107202736Y-79305167D01*
X107202736Y-79305167D02*
X107233986Y-79055167D01*
X107233986Y-79055167D02*
X107204224Y-78721834D01*
X107204224Y-78721834D02*
X107153629Y-78555167D01*
X107153629Y-78555167D02*
X107031605Y-78388501D01*
X107031605Y-78388501D02*
X106827736Y-78305167D01*
X106827736Y-78305167D02*
X106684879Y-78305167D01*
X106684879Y-78305167D02*
X106460176Y-78388501D01*
X106460176Y-78388501D02*
X106378331Y-78471834D01*
X105652141Y-79138501D02*
X105152141Y-79138501D01*
X104823272Y-80055167D02*
X105537557Y-80055167D01*
X105537557Y-80055167D02*
X105756307Y-78305167D01*
X105756307Y-78305167D02*
X105042022Y-78305167D01*
X103683391Y-78888501D02*
X103537557Y-80055167D01*
X104123867Y-78221834D02*
X104324760Y-79471834D01*
X104324760Y-79471834D02*
X103396188Y-79471834D01*
X103113450Y-78305167D02*
X102113450Y-78305167D01*
X102113450Y-78305167D02*
X102537558Y-80055167D01*
X100899165Y-78305167D02*
X101184879Y-78305167D01*
X101184879Y-78305167D02*
X101317320Y-78388501D01*
X101317320Y-78388501D02*
X101378332Y-78471834D01*
X101378332Y-78471834D02*
X101489939Y-78721834D01*
X101489939Y-78721834D02*
X101519701Y-79055167D01*
X101519701Y-79055167D02*
X101436368Y-79721834D01*
X101436368Y-79721834D02*
X101344106Y-79888501D01*
X101344106Y-79888501D02*
X101262260Y-79971834D01*
X101262260Y-79971834D02*
X101108987Y-80055167D01*
X101108987Y-80055167D02*
X100823272Y-80055167D01*
X100823272Y-80055167D02*
X100690832Y-79971834D01*
X100690832Y-79971834D02*
X100629820Y-79888501D01*
X100629820Y-79888501D02*
X100579225Y-79721834D01*
X100579225Y-79721834D02*
X100631308Y-79305167D01*
X100631308Y-79305167D02*
X100723570Y-79138501D01*
X100723570Y-79138501D02*
X100805415Y-79055167D01*
X100805415Y-79055167D02*
X100958689Y-78971834D01*
X100958689Y-78971834D02*
X101244403Y-78971834D01*
X101244403Y-78971834D02*
X101376844Y-79055167D01*
X101376844Y-79055167D02*
X101437856Y-79138501D01*
X101437856Y-79138501D02*
X101488451Y-79305167D01*
X99827737Y-78305167D02*
X99684880Y-78305167D01*
X99684880Y-78305167D02*
X99531606Y-78388501D01*
X99531606Y-78388501D02*
X99449761Y-78471834D01*
X99449761Y-78471834D02*
X99357499Y-78638501D01*
X99357499Y-78638501D02*
X99244404Y-78971834D01*
X99244404Y-78971834D02*
X99192320Y-79388501D01*
X99192320Y-79388501D02*
X99222082Y-79721834D01*
X99222082Y-79721834D02*
X99272678Y-79888501D01*
X99272678Y-79888501D02*
X99333689Y-79971834D01*
X99333689Y-79971834D02*
X99466130Y-80055167D01*
X99466130Y-80055167D02*
X99608987Y-80055167D01*
X99608987Y-80055167D02*
X99762261Y-79971834D01*
X99762261Y-79971834D02*
X99844106Y-79888501D01*
X99844106Y-79888501D02*
X99936368Y-79721834D01*
X99936368Y-79721834D02*
X100049463Y-79388501D01*
X100049463Y-79388501D02*
X100101547Y-78971834D01*
X100101547Y-78971834D02*
X100071785Y-78638501D01*
X100071785Y-78638501D02*
X100021189Y-78471834D01*
X100021189Y-78471834D02*
X99960178Y-78388501D01*
X99960178Y-78388501D02*
X99827737Y-78305167D01*
X97566130Y-80055167D02*
X97784880Y-78305167D01*
X97784880Y-78305167D02*
X97128630Y-79555167D01*
X97128630Y-79555167D02*
X96784880Y-78305167D01*
X96784880Y-78305167D02*
X96566130Y-80055167D01*
X95637559Y-80055167D02*
X95790832Y-79971834D01*
X95790832Y-79971834D02*
X95872678Y-79888501D01*
X95872678Y-79888501D02*
X95964940Y-79721834D01*
X95964940Y-79721834D02*
X96027440Y-79221834D01*
X96027440Y-79221834D02*
X95976844Y-79055167D01*
X95976844Y-79055167D02*
X95915832Y-78971834D01*
X95915832Y-78971834D02*
X95783392Y-78888501D01*
X95783392Y-78888501D02*
X95569106Y-78888501D01*
X95569106Y-78888501D02*
X95415832Y-78971834D01*
X95415832Y-78971834D02*
X95333987Y-79055167D01*
X95333987Y-79055167D02*
X95241725Y-79221834D01*
X95241725Y-79221834D02*
X95179225Y-79721834D01*
X95179225Y-79721834D02*
X95229821Y-79888501D01*
X95229821Y-79888501D02*
X95290832Y-79971834D01*
X95290832Y-79971834D02*
X95423273Y-80055167D01*
X95423273Y-80055167D02*
X95637559Y-80055167D01*
X94854820Y-78888501D02*
X94283392Y-78888501D01*
X94713451Y-78305167D02*
X94525951Y-79805167D01*
X94525951Y-79805167D02*
X94433689Y-79971834D01*
X94433689Y-79971834D02*
X94280416Y-80055167D01*
X94280416Y-80055167D02*
X94137558Y-80055167D01*
X93423273Y-80055167D02*
X93576546Y-79971834D01*
X93576546Y-79971834D02*
X93658392Y-79888501D01*
X93658392Y-79888501D02*
X93750654Y-79721834D01*
X93750654Y-79721834D02*
X93813154Y-79221834D01*
X93813154Y-79221834D02*
X93762558Y-79055167D01*
X93762558Y-79055167D02*
X93701546Y-78971834D01*
X93701546Y-78971834D02*
X93569106Y-78888501D01*
X93569106Y-78888501D02*
X93354820Y-78888501D01*
X93354820Y-78888501D02*
X93201546Y-78971834D01*
X93201546Y-78971834D02*
X93119701Y-79055167D01*
X93119701Y-79055167D02*
X93027439Y-79221834D01*
X93027439Y-79221834D02*
X92964939Y-79721834D01*
X92964939Y-79721834D02*
X93015535Y-79888501D01*
X93015535Y-79888501D02*
X93076546Y-79971834D01*
X93076546Y-79971834D02*
X93208987Y-80055167D01*
X93208987Y-80055167D02*
X93423273Y-80055167D01*
X92280415Y-80055167D02*
X92426249Y-78888501D01*
X92384582Y-79221834D02*
X92333987Y-79055167D01*
X92333987Y-79055167D02*
X92272975Y-78971834D01*
X92272975Y-78971834D02*
X92140534Y-78888501D01*
X92140534Y-78888501D02*
X91997677Y-78888501D01*
X90451844Y-80055167D02*
X90670594Y-78305167D01*
X90670594Y-78305167D02*
X90313451Y-78305167D01*
X90313451Y-78305167D02*
X90088749Y-78388501D01*
X90088749Y-78388501D02*
X89925059Y-78555167D01*
X89925059Y-78555167D02*
X89832797Y-78721834D01*
X89832797Y-78721834D02*
X89719701Y-79055167D01*
X89719701Y-79055167D02*
X89688451Y-79305167D01*
X89688451Y-79305167D02*
X89718213Y-79638501D01*
X89718213Y-79638501D02*
X89768809Y-79805167D01*
X89768809Y-79805167D02*
X89890832Y-79971834D01*
X89890832Y-79971834D02*
X90094701Y-80055167D01*
X90094701Y-80055167D02*
X90451844Y-80055167D01*
X88951844Y-80055167D02*
X89097678Y-78888501D01*
X89056011Y-79221834D02*
X89005416Y-79055167D01*
X89005416Y-79055167D02*
X88944404Y-78971834D01*
X88944404Y-78971834D02*
X88811963Y-78888501D01*
X88811963Y-78888501D02*
X88669106Y-78888501D01*
X88023273Y-80055167D02*
X88169107Y-78888501D01*
X88242023Y-78305167D02*
X88303035Y-78388501D01*
X88303035Y-78388501D02*
X88221190Y-78471834D01*
X88221190Y-78471834D02*
X88160178Y-78388501D01*
X88160178Y-78388501D02*
X88242023Y-78305167D01*
X88242023Y-78305167D02*
X88221190Y-78471834D01*
X87597678Y-78888501D02*
X87094702Y-80055167D01*
X87094702Y-80055167D02*
X86883392Y-78888501D01*
X85605118Y-79971834D02*
X85737559Y-80055167D01*
X85737559Y-80055167D02*
X86023273Y-80055167D01*
X86023273Y-80055167D02*
X86176547Y-79971834D01*
X86176547Y-79971834D02*
X86268809Y-79805167D01*
X86268809Y-79805167D02*
X86352142Y-79138501D01*
X86352142Y-79138501D02*
X86301547Y-78971834D01*
X86301547Y-78971834D02*
X86169107Y-78888501D01*
X86169107Y-78888501D02*
X85883392Y-78888501D01*
X85883392Y-78888501D02*
X85730118Y-78971834D01*
X85730118Y-78971834D02*
X85637857Y-79138501D01*
X85637857Y-79138501D02*
X85617023Y-79305167D01*
X85617023Y-79305167D02*
X86310476Y-79471834D01*
X84880416Y-80055167D02*
X85026250Y-78888501D01*
X84984583Y-79221834D02*
X84933988Y-79055167D01*
X84933988Y-79055167D02*
X84872976Y-78971834D01*
X84872976Y-78971834D02*
X84740535Y-78888501D01*
X84740535Y-78888501D02*
X84597678Y-78888501D01*
X102854522Y-82806834D02*
X102629819Y-82890167D01*
X102629819Y-82890167D02*
X102272676Y-82890167D01*
X102272676Y-82890167D02*
X102140236Y-82806834D01*
X102140236Y-82806834D02*
X102079224Y-82723501D01*
X102079224Y-82723501D02*
X102028629Y-82556834D01*
X102028629Y-82556834D02*
X102049462Y-82390167D01*
X102049462Y-82390167D02*
X102141724Y-82223501D01*
X102141724Y-82223501D02*
X102223569Y-82140167D01*
X102223569Y-82140167D02*
X102376843Y-82056834D01*
X102376843Y-82056834D02*
X102672974Y-81973501D01*
X102672974Y-81973501D02*
X102826248Y-81890167D01*
X102826248Y-81890167D02*
X102908093Y-81806834D01*
X102908093Y-81806834D02*
X103000355Y-81640167D01*
X103000355Y-81640167D02*
X103021188Y-81473501D01*
X103021188Y-81473501D02*
X102970593Y-81306834D01*
X102970593Y-81306834D02*
X102909581Y-81223501D01*
X102909581Y-81223501D02*
X102777141Y-81140167D01*
X102777141Y-81140167D02*
X102419998Y-81140167D01*
X102419998Y-81140167D02*
X102195295Y-81223501D01*
X101134284Y-81140167D02*
X100978034Y-82390167D01*
X100978034Y-82390167D02*
X101018212Y-82640167D01*
X101018212Y-82640167D02*
X101140236Y-82806834D01*
X101140236Y-82806834D02*
X101344105Y-82890167D01*
X101344105Y-82890167D02*
X101486962Y-82890167D01*
X99815832Y-81973501D02*
X99591129Y-82056834D01*
X99591129Y-82056834D02*
X99509284Y-82140167D01*
X99509284Y-82140167D02*
X99417022Y-82306834D01*
X99417022Y-82306834D02*
X99385772Y-82556834D01*
X99385772Y-82556834D02*
X99436367Y-82723501D01*
X99436367Y-82723501D02*
X99497379Y-82806834D01*
X99497379Y-82806834D02*
X99629820Y-82890167D01*
X99629820Y-82890167D02*
X100201248Y-82890167D01*
X100201248Y-82890167D02*
X100419998Y-81140167D01*
X100419998Y-81140167D02*
X99919998Y-81140167D01*
X99919998Y-81140167D02*
X99766725Y-81223501D01*
X99766725Y-81223501D02*
X99684879Y-81306834D01*
X99684879Y-81306834D02*
X99592617Y-81473501D01*
X99592617Y-81473501D02*
X99571784Y-81640167D01*
X99571784Y-81640167D02*
X99622379Y-81806834D01*
X99622379Y-81806834D02*
X99683391Y-81890167D01*
X99683391Y-81890167D02*
X99815832Y-81973501D01*
X99815832Y-81973501D02*
X100315832Y-81973501D01*
X96958986Y-81056834D02*
X97963451Y-83306834D01*
X95557499Y-81306834D02*
X95496487Y-81223501D01*
X95496487Y-81223501D02*
X95364046Y-81140167D01*
X95364046Y-81140167D02*
X95006903Y-81140167D01*
X95006903Y-81140167D02*
X94853630Y-81223501D01*
X94853630Y-81223501D02*
X94771784Y-81306834D01*
X94771784Y-81306834D02*
X94679522Y-81473501D01*
X94679522Y-81473501D02*
X94658689Y-81640167D01*
X94658689Y-81640167D02*
X94698868Y-81890167D01*
X94698868Y-81890167D02*
X95431010Y-82890167D01*
X95431010Y-82890167D02*
X94502439Y-82890167D01*
X93792618Y-81140167D02*
X93649761Y-81140167D01*
X93649761Y-81140167D02*
X93496487Y-81223501D01*
X93496487Y-81223501D02*
X93414642Y-81306834D01*
X93414642Y-81306834D02*
X93322380Y-81473501D01*
X93322380Y-81473501D02*
X93209285Y-81806834D01*
X93209285Y-81806834D02*
X93157201Y-82223501D01*
X93157201Y-82223501D02*
X93186963Y-82556834D01*
X93186963Y-82556834D02*
X93237559Y-82723501D01*
X93237559Y-82723501D02*
X93298570Y-82806834D01*
X93298570Y-82806834D02*
X93431011Y-82890167D01*
X93431011Y-82890167D02*
X93573868Y-82890167D01*
X93573868Y-82890167D02*
X93727142Y-82806834D01*
X93727142Y-82806834D02*
X93808987Y-82723501D01*
X93808987Y-82723501D02*
X93901249Y-82556834D01*
X93901249Y-82556834D02*
X94014344Y-82223501D01*
X94014344Y-82223501D02*
X94066428Y-81806834D01*
X94066428Y-81806834D02*
X94036666Y-81473501D01*
X94036666Y-81473501D02*
X93986070Y-81306834D01*
X93986070Y-81306834D02*
X93925059Y-81223501D01*
X93925059Y-81223501D02*
X93792618Y-81140167D01*
X92700357Y-81306834D02*
X92639345Y-81223501D01*
X92639345Y-81223501D02*
X92506904Y-81140167D01*
X92506904Y-81140167D02*
X92149761Y-81140167D01*
X92149761Y-81140167D02*
X91996488Y-81223501D01*
X91996488Y-81223501D02*
X91914642Y-81306834D01*
X91914642Y-81306834D02*
X91822380Y-81473501D01*
X91822380Y-81473501D02*
X91801547Y-81640167D01*
X91801547Y-81640167D02*
X91841726Y-81890167D01*
X91841726Y-81890167D02*
X92573868Y-82890167D01*
X92573868Y-82890167D02*
X91645297Y-82890167D01*
X91364047Y-81140167D02*
X90435476Y-81140167D01*
X90435476Y-81140167D02*
X90852143Y-81806834D01*
X90852143Y-81806834D02*
X90637857Y-81806834D01*
X90637857Y-81806834D02*
X90484583Y-81890167D01*
X90484583Y-81890167D02*
X90402738Y-81973501D01*
X90402738Y-81973501D02*
X90310476Y-82140167D01*
X90310476Y-82140167D02*
X90258393Y-82556834D01*
X90258393Y-82556834D02*
X90308988Y-82723501D01*
X90308988Y-82723501D02*
X90370000Y-82806834D01*
X90370000Y-82806834D02*
X90502440Y-82890167D01*
X90502440Y-82890167D02*
X90931012Y-82890167D01*
X90931012Y-82890167D02*
X91084286Y-82806834D01*
X91084286Y-82806834D02*
X91166131Y-82723501D01*
X99016129Y-85725167D02*
X99161963Y-84558501D01*
X99120296Y-84891834D02*
X99069701Y-84725167D01*
X99069701Y-84725167D02*
X99008689Y-84641834D01*
X99008689Y-84641834D02*
X98876248Y-84558501D01*
X98876248Y-84558501D02*
X98733391Y-84558501D01*
X97526546Y-85641834D02*
X97658987Y-85725167D01*
X97658987Y-85725167D02*
X97944701Y-85725167D01*
X97944701Y-85725167D02*
X98097975Y-85641834D01*
X98097975Y-85641834D02*
X98190237Y-85475167D01*
X98190237Y-85475167D02*
X98273570Y-84808501D01*
X98273570Y-84808501D02*
X98222975Y-84641834D01*
X98222975Y-84641834D02*
X98090535Y-84558501D01*
X98090535Y-84558501D02*
X97804820Y-84558501D01*
X97804820Y-84558501D02*
X97651546Y-84641834D01*
X97651546Y-84641834D02*
X97559285Y-84808501D01*
X97559285Y-84808501D02*
X97538451Y-84975167D01*
X97538451Y-84975167D02*
X98231904Y-85141834D01*
X97090535Y-84558501D02*
X96587559Y-85725167D01*
X96587559Y-85725167D02*
X96376249Y-84558501D01*
X94692023Y-83975167D02*
X94549166Y-83975167D01*
X94549166Y-83975167D02*
X94395892Y-84058501D01*
X94395892Y-84058501D02*
X94314047Y-84141834D01*
X94314047Y-84141834D02*
X94221785Y-84308501D01*
X94221785Y-84308501D02*
X94108690Y-84641834D01*
X94108690Y-84641834D02*
X94056606Y-85058501D01*
X94056606Y-85058501D02*
X94086368Y-85391834D01*
X94086368Y-85391834D02*
X94136964Y-85558501D01*
X94136964Y-85558501D02*
X94197975Y-85641834D01*
X94197975Y-85641834D02*
X94330416Y-85725167D01*
X94330416Y-85725167D02*
X94473273Y-85725167D01*
X94473273Y-85725167D02*
X94626547Y-85641834D01*
X94626547Y-85641834D02*
X94708392Y-85558501D01*
X94708392Y-85558501D02*
X94800654Y-85391834D01*
X94800654Y-85391834D02*
X94913749Y-85058501D01*
X94913749Y-85058501D02*
X94965833Y-84641834D01*
X94965833Y-84641834D02*
X94936071Y-84308501D01*
X94936071Y-84308501D02*
X94885475Y-84141834D01*
X94885475Y-84141834D02*
X94824464Y-84058501D01*
X94824464Y-84058501D02*
X94692023Y-83975167D01*
D10*
X89962428Y-71722857D02*
X89962428Y-71389524D01*
X89438619Y-71181190D02*
X89438619Y-71657381D01*
X89438619Y-71657381D02*
X90438619Y-71782381D01*
X90438619Y-71782381D02*
X90438619Y-71306190D01*
X89533857Y-70193095D02*
X89486238Y-70234762D01*
X89486238Y-70234762D02*
X89438619Y-70371666D01*
X89438619Y-70371666D02*
X89438619Y-70466904D01*
X89438619Y-70466904D02*
X89486238Y-70615714D01*
X89486238Y-70615714D02*
X89581476Y-70722857D01*
X89581476Y-70722857D02*
X89676714Y-70782381D01*
X89676714Y-70782381D02*
X89867190Y-70853809D01*
X89867190Y-70853809D02*
X90010047Y-70871666D01*
X90010047Y-70871666D02*
X90200523Y-70847857D01*
X90200523Y-70847857D02*
X90295761Y-70812142D01*
X90295761Y-70812142D02*
X90391000Y-70728809D01*
X90391000Y-70728809D02*
X90438619Y-70591904D01*
X90438619Y-70591904D02*
X90438619Y-70496666D01*
X90438619Y-70496666D02*
X90391000Y-70347857D01*
X90391000Y-70347857D02*
X90343380Y-70294285D01*
X89962428Y-69818095D02*
X89962428Y-69484762D01*
X89438619Y-69276428D02*
X89438619Y-69752619D01*
X89438619Y-69752619D02*
X90438619Y-69877619D01*
X90438619Y-69877619D02*
X90438619Y-69401428D01*
X90105285Y-68502619D02*
X89438619Y-68419285D01*
X90486238Y-68788333D02*
X89771952Y-68937142D01*
X89771952Y-68937142D02*
X89771952Y-68318095D01*
X90438619Y-68115714D02*
X90438619Y-67449047D01*
X90438619Y-67449047D02*
X89438619Y-67752619D01*
X90438619Y-66639523D02*
X90438619Y-66829999D01*
X90438619Y-66829999D02*
X90391000Y-66919285D01*
X90391000Y-66919285D02*
X90343380Y-66960952D01*
X90343380Y-66960952D02*
X90200523Y-67038333D01*
X90200523Y-67038333D02*
X90010047Y-67062142D01*
X90010047Y-67062142D02*
X89629095Y-67014523D01*
X89629095Y-67014523D02*
X89533857Y-66954999D01*
X89533857Y-66954999D02*
X89486238Y-66901428D01*
X89486238Y-66901428D02*
X89438619Y-66800238D01*
X89438619Y-66800238D02*
X89438619Y-66609761D01*
X89438619Y-66609761D02*
X89486238Y-66520476D01*
X89486238Y-66520476D02*
X89533857Y-66478809D01*
X89533857Y-66478809D02*
X89629095Y-66443095D01*
X89629095Y-66443095D02*
X89867190Y-66472857D01*
X89867190Y-66472857D02*
X89962428Y-66532380D01*
X89962428Y-66532380D02*
X90010047Y-66585952D01*
X90010047Y-66585952D02*
X90057666Y-66687142D01*
X90057666Y-66687142D02*
X90057666Y-66877618D01*
X90057666Y-66877618D02*
X90010047Y-66966904D01*
X90010047Y-66966904D02*
X89962428Y-67008571D01*
X89962428Y-67008571D02*
X89867190Y-67044285D01*
X90438619Y-65925237D02*
X90438619Y-65829999D01*
X90438619Y-65829999D02*
X90391000Y-65728809D01*
X90391000Y-65728809D02*
X90343380Y-65675237D01*
X90343380Y-65675237D02*
X90248142Y-65615714D01*
X90248142Y-65615714D02*
X90057666Y-65544285D01*
X90057666Y-65544285D02*
X89819571Y-65514523D01*
X89819571Y-65514523D02*
X89629095Y-65538333D01*
X89629095Y-65538333D02*
X89533857Y-65574047D01*
X89533857Y-65574047D02*
X89486238Y-65615714D01*
X89486238Y-65615714D02*
X89438619Y-65704999D01*
X89438619Y-65704999D02*
X89438619Y-65800237D01*
X89438619Y-65800237D02*
X89486238Y-65901428D01*
X89486238Y-65901428D02*
X89533857Y-65954999D01*
X89533857Y-65954999D02*
X89629095Y-66014523D01*
X89629095Y-66014523D02*
X89819571Y-66085952D01*
X89819571Y-66085952D02*
X90057666Y-66115714D01*
X90057666Y-66115714D02*
X90248142Y-66091904D01*
X90248142Y-66091904D02*
X90343380Y-66056190D01*
X90343380Y-66056190D02*
X90391000Y-66014523D01*
X90391000Y-66014523D02*
X90438619Y-65925237D01*
X87818619Y-72885953D02*
X88818619Y-73010953D01*
X88818619Y-73010953D02*
X88104333Y-72588334D01*
X88104333Y-72588334D02*
X88818619Y-72344286D01*
X88818619Y-72344286D02*
X87818619Y-72219286D01*
X87818619Y-71600239D02*
X87866238Y-71701429D01*
X87866238Y-71701429D02*
X87913857Y-71755000D01*
X87913857Y-71755000D02*
X88009095Y-71814524D01*
X88009095Y-71814524D02*
X88294809Y-71850239D01*
X88294809Y-71850239D02*
X88390047Y-71814524D01*
X88390047Y-71814524D02*
X88437666Y-71772858D01*
X88437666Y-71772858D02*
X88485285Y-71683572D01*
X88485285Y-71683572D02*
X88485285Y-71540715D01*
X88485285Y-71540715D02*
X88437666Y-71439524D01*
X88437666Y-71439524D02*
X88390047Y-71385953D01*
X88390047Y-71385953D02*
X88294809Y-71326429D01*
X88294809Y-71326429D02*
X88009095Y-71290715D01*
X88009095Y-71290715D02*
X87913857Y-71326429D01*
X87913857Y-71326429D02*
X87866238Y-71368096D01*
X87866238Y-71368096D02*
X87818619Y-71457381D01*
X87818619Y-71457381D02*
X87818619Y-71600239D01*
X88485285Y-71064524D02*
X88485285Y-70683572D01*
X88818619Y-70963334D02*
X87961476Y-70856191D01*
X87961476Y-70856191D02*
X87866238Y-70796667D01*
X87866238Y-70796667D02*
X87818619Y-70695477D01*
X87818619Y-70695477D02*
X87818619Y-70600238D01*
X87818619Y-70124048D02*
X87866238Y-70225238D01*
X87866238Y-70225238D02*
X87913857Y-70278809D01*
X87913857Y-70278809D02*
X88009095Y-70338333D01*
X88009095Y-70338333D02*
X88294809Y-70374048D01*
X88294809Y-70374048D02*
X88390047Y-70338333D01*
X88390047Y-70338333D02*
X88437666Y-70296667D01*
X88437666Y-70296667D02*
X88485285Y-70207381D01*
X88485285Y-70207381D02*
X88485285Y-70064524D01*
X88485285Y-70064524D02*
X88437666Y-69963333D01*
X88437666Y-69963333D02*
X88390047Y-69909762D01*
X88390047Y-69909762D02*
X88294809Y-69850238D01*
X88294809Y-69850238D02*
X88009095Y-69814524D01*
X88009095Y-69814524D02*
X87913857Y-69850238D01*
X87913857Y-69850238D02*
X87866238Y-69891905D01*
X87866238Y-69891905D02*
X87818619Y-69981190D01*
X87818619Y-69981190D02*
X87818619Y-70124048D01*
X87818619Y-69362143D02*
X88485285Y-69445476D01*
X88294809Y-69421666D02*
X88390047Y-69385952D01*
X88390047Y-69385952D02*
X88437666Y-69344286D01*
X88437666Y-69344286D02*
X88485285Y-69255000D01*
X88485285Y-69255000D02*
X88485285Y-69159762D01*
X87818619Y-68143095D02*
X88818619Y-68268095D01*
X88818619Y-68268095D02*
X88818619Y-68029999D01*
X88818619Y-68029999D02*
X88771000Y-67881190D01*
X88771000Y-67881190D02*
X88675761Y-67774047D01*
X88675761Y-67774047D02*
X88580523Y-67714523D01*
X88580523Y-67714523D02*
X88390047Y-67643095D01*
X88390047Y-67643095D02*
X88247190Y-67625238D01*
X88247190Y-67625238D02*
X88056714Y-67649047D01*
X88056714Y-67649047D02*
X87961476Y-67684761D01*
X87961476Y-67684761D02*
X87866238Y-67768095D01*
X87866238Y-67768095D02*
X87818619Y-67904999D01*
X87818619Y-67904999D02*
X87818619Y-68143095D01*
X87818619Y-67143095D02*
X88485285Y-67226428D01*
X88294809Y-67202618D02*
X88390047Y-67166904D01*
X88390047Y-67166904D02*
X88437666Y-67125238D01*
X88437666Y-67125238D02*
X88485285Y-67035952D01*
X88485285Y-67035952D02*
X88485285Y-66940714D01*
X87818619Y-66524047D02*
X88485285Y-66607380D01*
X88818619Y-66649047D02*
X88771000Y-66690713D01*
X88771000Y-66690713D02*
X88723380Y-66637142D01*
X88723380Y-66637142D02*
X88771000Y-66595475D01*
X88771000Y-66595475D02*
X88818619Y-66649047D01*
X88818619Y-66649047D02*
X88723380Y-66637142D01*
X88485285Y-66226428D02*
X87818619Y-65905000D01*
X87818619Y-65905000D02*
X88485285Y-65750238D01*
X87866238Y-64910952D02*
X87818619Y-65000237D01*
X87818619Y-65000237D02*
X87818619Y-65190714D01*
X87818619Y-65190714D02*
X87866238Y-65291904D01*
X87866238Y-65291904D02*
X87961476Y-65351428D01*
X87961476Y-65351428D02*
X88342428Y-65399047D01*
X88342428Y-65399047D02*
X88437666Y-65363333D01*
X88437666Y-65363333D02*
X88485285Y-65274047D01*
X88485285Y-65274047D02*
X88485285Y-65083571D01*
X88485285Y-65083571D02*
X88437666Y-64982380D01*
X88437666Y-64982380D02*
X88342428Y-64922856D01*
X88342428Y-64922856D02*
X88247190Y-64910952D01*
X88247190Y-64910952D02*
X88151952Y-65375237D01*
X87818619Y-64428809D02*
X88485285Y-64512142D01*
X88294809Y-64488332D02*
X88390047Y-64452618D01*
X88390047Y-64452618D02*
X88437666Y-64410952D01*
X88437666Y-64410952D02*
X88485285Y-64321666D01*
X88485285Y-64321666D02*
X88485285Y-64226428D01*
X86246238Y-72799047D02*
X86198619Y-72650238D01*
X86198619Y-72650238D02*
X86198619Y-72412142D01*
X86198619Y-72412142D02*
X86246238Y-72322857D01*
X86246238Y-72322857D02*
X86293857Y-72281190D01*
X86293857Y-72281190D02*
X86389095Y-72245476D01*
X86389095Y-72245476D02*
X86484333Y-72257380D01*
X86484333Y-72257380D02*
X86579571Y-72316904D01*
X86579571Y-72316904D02*
X86627190Y-72370476D01*
X86627190Y-72370476D02*
X86674809Y-72471666D01*
X86674809Y-72471666D02*
X86722428Y-72668095D01*
X86722428Y-72668095D02*
X86770047Y-72769285D01*
X86770047Y-72769285D02*
X86817666Y-72822857D01*
X86817666Y-72822857D02*
X86912904Y-72882380D01*
X86912904Y-72882380D02*
X87008142Y-72894285D01*
X87008142Y-72894285D02*
X87103380Y-72858571D01*
X87103380Y-72858571D02*
X87151000Y-72816904D01*
X87151000Y-72816904D02*
X87198619Y-72727619D01*
X87198619Y-72727619D02*
X87198619Y-72489523D01*
X87198619Y-72489523D02*
X87151000Y-72340714D01*
X87198619Y-71632380D02*
X86484333Y-71543095D01*
X86484333Y-71543095D02*
X86341476Y-71572857D01*
X86341476Y-71572857D02*
X86246238Y-71656190D01*
X86246238Y-71656190D02*
X86198619Y-71793095D01*
X86198619Y-71793095D02*
X86198619Y-71888333D01*
X86722428Y-70763333D02*
X86674809Y-70614523D01*
X86674809Y-70614523D02*
X86627190Y-70560952D01*
X86627190Y-70560952D02*
X86531952Y-70501428D01*
X86531952Y-70501428D02*
X86389095Y-70483571D01*
X86389095Y-70483571D02*
X86293857Y-70519285D01*
X86293857Y-70519285D02*
X86246238Y-70560952D01*
X86246238Y-70560952D02*
X86198619Y-70650237D01*
X86198619Y-70650237D02*
X86198619Y-71031190D01*
X86198619Y-71031190D02*
X87198619Y-71156190D01*
X87198619Y-71156190D02*
X87198619Y-70822856D01*
X87198619Y-70822856D02*
X87151000Y-70721666D01*
X87151000Y-70721666D02*
X87103380Y-70668094D01*
X87103380Y-70668094D02*
X87008142Y-70608571D01*
X87008142Y-70608571D02*
X86912904Y-70596666D01*
X86912904Y-70596666D02*
X86817666Y-70632380D01*
X86817666Y-70632380D02*
X86770047Y-70674047D01*
X86770047Y-70674047D02*
X86722428Y-70763333D01*
X86722428Y-70763333D02*
X86722428Y-71096666D01*
X87246238Y-68847856D02*
X85960523Y-69544285D01*
X87103380Y-67920475D02*
X87151000Y-67878808D01*
X87151000Y-67878808D02*
X87198619Y-67789523D01*
X87198619Y-67789523D02*
X87198619Y-67551427D01*
X87198619Y-67551427D02*
X87151000Y-67450237D01*
X87151000Y-67450237D02*
X87103380Y-67396665D01*
X87103380Y-67396665D02*
X87008142Y-67337142D01*
X87008142Y-67337142D02*
X86912904Y-67325237D01*
X86912904Y-67325237D02*
X86770047Y-67354999D01*
X86770047Y-67354999D02*
X86198619Y-67854999D01*
X86198619Y-67854999D02*
X86198619Y-67235951D01*
X87198619Y-66741903D02*
X87198619Y-66646665D01*
X87198619Y-66646665D02*
X87151000Y-66545475D01*
X87151000Y-66545475D02*
X87103380Y-66491903D01*
X87103380Y-66491903D02*
X87008142Y-66432380D01*
X87008142Y-66432380D02*
X86817666Y-66360951D01*
X86817666Y-66360951D02*
X86579571Y-66331189D01*
X86579571Y-66331189D02*
X86389095Y-66354999D01*
X86389095Y-66354999D02*
X86293857Y-66390713D01*
X86293857Y-66390713D02*
X86246238Y-66432380D01*
X86246238Y-66432380D02*
X86198619Y-66521665D01*
X86198619Y-66521665D02*
X86198619Y-66616903D01*
X86198619Y-66616903D02*
X86246238Y-66718094D01*
X86246238Y-66718094D02*
X86293857Y-66771665D01*
X86293857Y-66771665D02*
X86389095Y-66831189D01*
X86389095Y-66831189D02*
X86579571Y-66902618D01*
X86579571Y-66902618D02*
X86817666Y-66932380D01*
X86817666Y-66932380D02*
X87008142Y-66908570D01*
X87008142Y-66908570D02*
X87103380Y-66872856D01*
X87103380Y-66872856D02*
X87151000Y-66831189D01*
X87151000Y-66831189D02*
X87198619Y-66741903D01*
X87103380Y-66015713D02*
X87151000Y-65974046D01*
X87151000Y-65974046D02*
X87198619Y-65884761D01*
X87198619Y-65884761D02*
X87198619Y-65646665D01*
X87198619Y-65646665D02*
X87151000Y-65545475D01*
X87151000Y-65545475D02*
X87103380Y-65491903D01*
X87103380Y-65491903D02*
X87008142Y-65432380D01*
X87008142Y-65432380D02*
X86912904Y-65420475D01*
X86912904Y-65420475D02*
X86770047Y-65450237D01*
X86770047Y-65450237D02*
X86198619Y-65950237D01*
X86198619Y-65950237D02*
X86198619Y-65331189D01*
X87198619Y-65122856D02*
X87198619Y-64503808D01*
X87198619Y-64503808D02*
X86817666Y-64789522D01*
X86817666Y-64789522D02*
X86817666Y-64646665D01*
X86817666Y-64646665D02*
X86770047Y-64545475D01*
X86770047Y-64545475D02*
X86722428Y-64491903D01*
X86722428Y-64491903D02*
X86627190Y-64432380D01*
X86627190Y-64432380D02*
X86389095Y-64402618D01*
X86389095Y-64402618D02*
X86293857Y-64438332D01*
X86293857Y-64438332D02*
X86246238Y-64479999D01*
X86246238Y-64479999D02*
X86198619Y-64569284D01*
X86198619Y-64569284D02*
X86198619Y-64854999D01*
X86198619Y-64854999D02*
X86246238Y-64956189D01*
X86246238Y-64956189D02*
X86293857Y-65009761D01*
X84578619Y-70243095D02*
X85245285Y-70326428D01*
X85054809Y-70302618D02*
X85150047Y-70266904D01*
X85150047Y-70266904D02*
X85197666Y-70225238D01*
X85197666Y-70225238D02*
X85245285Y-70135952D01*
X85245285Y-70135952D02*
X85245285Y-70040714D01*
X84626238Y-69249047D02*
X84578619Y-69338332D01*
X84578619Y-69338332D02*
X84578619Y-69528809D01*
X84578619Y-69528809D02*
X84626238Y-69629999D01*
X84626238Y-69629999D02*
X84721476Y-69689523D01*
X84721476Y-69689523D02*
X85102428Y-69737142D01*
X85102428Y-69737142D02*
X85197666Y-69701428D01*
X85197666Y-69701428D02*
X85245285Y-69612142D01*
X85245285Y-69612142D02*
X85245285Y-69421666D01*
X85245285Y-69421666D02*
X85197666Y-69320475D01*
X85197666Y-69320475D02*
X85102428Y-69260951D01*
X85102428Y-69260951D02*
X85007190Y-69249047D01*
X85007190Y-69249047D02*
X84911952Y-69713332D01*
X85245285Y-68945475D02*
X84578619Y-68624047D01*
X84578619Y-68624047D02*
X85245285Y-68469285D01*
X85578619Y-67339522D02*
X85578619Y-67244284D01*
X85578619Y-67244284D02*
X85531000Y-67143094D01*
X85531000Y-67143094D02*
X85483380Y-67089522D01*
X85483380Y-67089522D02*
X85388142Y-67029999D01*
X85388142Y-67029999D02*
X85197666Y-66958570D01*
X85197666Y-66958570D02*
X84959571Y-66928808D01*
X84959571Y-66928808D02*
X84769095Y-66952618D01*
X84769095Y-66952618D02*
X84673857Y-66988332D01*
X84673857Y-66988332D02*
X84626238Y-67029999D01*
X84626238Y-67029999D02*
X84578619Y-67119284D01*
X84578619Y-67119284D02*
X84578619Y-67214522D01*
X84578619Y-67214522D02*
X84626238Y-67315713D01*
X84626238Y-67315713D02*
X84673857Y-67369284D01*
X84673857Y-67369284D02*
X84769095Y-67428808D01*
X84769095Y-67428808D02*
X84959571Y-67500237D01*
X84959571Y-67500237D02*
X85197666Y-67529999D01*
X85197666Y-67529999D02*
X85388142Y-67506189D01*
X85388142Y-67506189D02*
X85483380Y-67470475D01*
X85483380Y-67470475D02*
X85531000Y-67428808D01*
X85531000Y-67428808D02*
X85578619Y-67339522D01*
X119021238Y-63579285D02*
X116354571Y-63579285D01*
X118354571Y-63722142D02*
X118354571Y-63436428D01*
X118354571Y-63436428D02*
X118259333Y-63293571D01*
X118259333Y-63293571D02*
X118068857Y-63150714D01*
X118068857Y-63150714D02*
X117878380Y-63079285D01*
X117878380Y-63079285D02*
X117497428Y-63079285D01*
X117497428Y-63079285D02*
X117306952Y-63150714D01*
X117306952Y-63150714D02*
X117116476Y-63293571D01*
X117116476Y-63293571D02*
X117021238Y-63436428D01*
X117021238Y-63436428D02*
X117021238Y-63722142D01*
X117021238Y-63722142D02*
X117116476Y-63865000D01*
X117116476Y-63865000D02*
X117306952Y-64007857D01*
X117306952Y-64007857D02*
X117497428Y-64079285D01*
X117497428Y-64079285D02*
X117878380Y-64079285D01*
X117878380Y-64079285D02*
X118068857Y-64007857D01*
X118068857Y-64007857D02*
X118259333Y-63865000D01*
X118259333Y-63865000D02*
X118354571Y-63722142D01*
X119021238Y-62579285D02*
X119021238Y-61650713D01*
X119021238Y-61650713D02*
X118259333Y-62150713D01*
X118259333Y-62150713D02*
X118259333Y-61936428D01*
X118259333Y-61936428D02*
X118164095Y-61793571D01*
X118164095Y-61793571D02*
X118068857Y-61722142D01*
X118068857Y-61722142D02*
X117878380Y-61650713D01*
X117878380Y-61650713D02*
X117402190Y-61650713D01*
X117402190Y-61650713D02*
X117211714Y-61722142D01*
X117211714Y-61722142D02*
X117116476Y-61793571D01*
X117116476Y-61793571D02*
X117021238Y-61936428D01*
X117021238Y-61936428D02*
X117021238Y-62364999D01*
X117021238Y-62364999D02*
X117116476Y-62507856D01*
X117116476Y-62507856D02*
X117211714Y-62579285D01*
X118926000Y-74167856D02*
X119021238Y-74310714D01*
X119021238Y-74310714D02*
X119021238Y-74524999D01*
X119021238Y-74524999D02*
X118926000Y-74739285D01*
X118926000Y-74739285D02*
X118735523Y-74882142D01*
X118735523Y-74882142D02*
X118545047Y-74953571D01*
X118545047Y-74953571D02*
X118164095Y-75024999D01*
X118164095Y-75024999D02*
X117878380Y-75024999D01*
X117878380Y-75024999D02*
X117497428Y-74953571D01*
X117497428Y-74953571D02*
X117306952Y-74882142D01*
X117306952Y-74882142D02*
X117116476Y-74739285D01*
X117116476Y-74739285D02*
X117021238Y-74524999D01*
X117021238Y-74524999D02*
X117021238Y-74382142D01*
X117021238Y-74382142D02*
X117116476Y-74167856D01*
X117116476Y-74167856D02*
X117211714Y-74096428D01*
X117211714Y-74096428D02*
X117878380Y-74096428D01*
X117878380Y-74096428D02*
X117878380Y-74382142D01*
X117021238Y-73453571D02*
X119021238Y-73453571D01*
X119021238Y-73453571D02*
X117021238Y-72596428D01*
X117021238Y-72596428D02*
X119021238Y-72596428D01*
X117021238Y-71882142D02*
X119021238Y-71882142D01*
X119021238Y-71882142D02*
X119021238Y-71524999D01*
X119021238Y-71524999D02*
X118926000Y-71310713D01*
X118926000Y-71310713D02*
X118735523Y-71167856D01*
X118735523Y-71167856D02*
X118545047Y-71096427D01*
X118545047Y-71096427D02*
X118164095Y-71024999D01*
X118164095Y-71024999D02*
X117878380Y-71024999D01*
X117878380Y-71024999D02*
X117497428Y-71096427D01*
X117497428Y-71096427D02*
X117306952Y-71167856D01*
X117306952Y-71167856D02*
X117116476Y-71310713D01*
X117116476Y-71310713D02*
X117021238Y-71524999D01*
X117021238Y-71524999D02*
X117021238Y-71882142D01*
X119021238Y-58499285D02*
X116354571Y-58499285D01*
X118354571Y-58642142D02*
X118354571Y-58356428D01*
X118354571Y-58356428D02*
X118259333Y-58213571D01*
X118259333Y-58213571D02*
X118068857Y-58070714D01*
X118068857Y-58070714D02*
X117878380Y-57999285D01*
X117878380Y-57999285D02*
X117497428Y-57999285D01*
X117497428Y-57999285D02*
X117306952Y-58070714D01*
X117306952Y-58070714D02*
X117116476Y-58213571D01*
X117116476Y-58213571D02*
X117021238Y-58356428D01*
X117021238Y-58356428D02*
X117021238Y-58642142D01*
X117021238Y-58642142D02*
X117116476Y-58785000D01*
X117116476Y-58785000D02*
X117306952Y-58927857D01*
X117306952Y-58927857D02*
X117497428Y-58999285D01*
X117497428Y-58999285D02*
X117878380Y-58999285D01*
X117878380Y-58999285D02*
X118068857Y-58927857D01*
X118068857Y-58927857D02*
X118259333Y-58785000D01*
X118259333Y-58785000D02*
X118354571Y-58642142D01*
X118830761Y-57427856D02*
X118926000Y-57356428D01*
X118926000Y-57356428D02*
X119021238Y-57213571D01*
X119021238Y-57213571D02*
X119021238Y-56856428D01*
X119021238Y-56856428D02*
X118926000Y-56713571D01*
X118926000Y-56713571D02*
X118830761Y-56642142D01*
X118830761Y-56642142D02*
X118640285Y-56570713D01*
X118640285Y-56570713D02*
X118449809Y-56570713D01*
X118449809Y-56570713D02*
X118164095Y-56642142D01*
X118164095Y-56642142D02*
X117021238Y-57499285D01*
X117021238Y-57499285D02*
X117021238Y-56570713D01*
X119021238Y-83470713D02*
X119021238Y-84184999D01*
X119021238Y-84184999D02*
X118068857Y-84256427D01*
X118068857Y-84256427D02*
X118164095Y-84184999D01*
X118164095Y-84184999D02*
X118259333Y-84042142D01*
X118259333Y-84042142D02*
X118259333Y-83684999D01*
X118259333Y-83684999D02*
X118164095Y-83542142D01*
X118164095Y-83542142D02*
X118068857Y-83470713D01*
X118068857Y-83470713D02*
X117878380Y-83399284D01*
X117878380Y-83399284D02*
X117402190Y-83399284D01*
X117402190Y-83399284D02*
X117211714Y-83470713D01*
X117211714Y-83470713D02*
X117116476Y-83542142D01*
X117116476Y-83542142D02*
X117021238Y-83684999D01*
X117021238Y-83684999D02*
X117021238Y-84042142D01*
X117021238Y-84042142D02*
X117116476Y-84184999D01*
X117116476Y-84184999D02*
X117211714Y-84256427D01*
X119021238Y-82970713D02*
X117021238Y-82470713D01*
X117021238Y-82470713D02*
X119021238Y-81970713D01*
D11*
X102961809Y-80123380D02*
X103295142Y-79647190D01*
X103533237Y-80123380D02*
X103533237Y-79123380D01*
X103533237Y-79123380D02*
X103152285Y-79123380D01*
X103152285Y-79123380D02*
X103057047Y-79171000D01*
X103057047Y-79171000D02*
X103009428Y-79218619D01*
X103009428Y-79218619D02*
X102961809Y-79313857D01*
X102961809Y-79313857D02*
X102961809Y-79456714D01*
X102961809Y-79456714D02*
X103009428Y-79551952D01*
X103009428Y-79551952D02*
X103057047Y-79599571D01*
X103057047Y-79599571D02*
X103152285Y-79647190D01*
X103152285Y-79647190D02*
X103533237Y-79647190D01*
X102628475Y-79123380D02*
X101961809Y-80123380D01*
X101961809Y-79123380D02*
X102628475Y-80123380D01*
X100457047Y-79171000D02*
X100552285Y-79123380D01*
X100552285Y-79123380D02*
X100695142Y-79123380D01*
X100695142Y-79123380D02*
X100837999Y-79171000D01*
X100837999Y-79171000D02*
X100933237Y-79266238D01*
X100933237Y-79266238D02*
X100980856Y-79361476D01*
X100980856Y-79361476D02*
X101028475Y-79551952D01*
X101028475Y-79551952D02*
X101028475Y-79694809D01*
X101028475Y-79694809D02*
X100980856Y-79885285D01*
X100980856Y-79885285D02*
X100933237Y-79980523D01*
X100933237Y-79980523D02*
X100837999Y-80075761D01*
X100837999Y-80075761D02*
X100695142Y-80123380D01*
X100695142Y-80123380D02*
X100599904Y-80123380D01*
X100599904Y-80123380D02*
X100457047Y-80075761D01*
X100457047Y-80075761D02*
X100409428Y-80028142D01*
X100409428Y-80028142D02*
X100409428Y-79694809D01*
X100409428Y-79694809D02*
X100599904Y-79694809D01*
X99523713Y-79123380D02*
X98952285Y-79123380D01*
X99237999Y-80123380D02*
X99237999Y-79123380D01*
X98714189Y-79123380D02*
X98047523Y-80123380D01*
X98047523Y-79123380D02*
X98714189Y-80123380D01*
D10*
X118354571Y-79176428D02*
X117021238Y-79176428D01*
X119116476Y-79533570D02*
X117687904Y-79890713D01*
X117687904Y-79890713D02*
X117687904Y-78962142D01*
X118164095Y-78176428D02*
X118259333Y-78319285D01*
X118259333Y-78319285D02*
X118354571Y-78390714D01*
X118354571Y-78390714D02*
X118545047Y-78462142D01*
X118545047Y-78462142D02*
X118640285Y-78462142D01*
X118640285Y-78462142D02*
X118830761Y-78390714D01*
X118830761Y-78390714D02*
X118926000Y-78319285D01*
X118926000Y-78319285D02*
X119021238Y-78176428D01*
X119021238Y-78176428D02*
X119021238Y-77890714D01*
X119021238Y-77890714D02*
X118926000Y-77747857D01*
X118926000Y-77747857D02*
X118830761Y-77676428D01*
X118830761Y-77676428D02*
X118640285Y-77604999D01*
X118640285Y-77604999D02*
X118545047Y-77604999D01*
X118545047Y-77604999D02*
X118354571Y-77676428D01*
X118354571Y-77676428D02*
X118259333Y-77747857D01*
X118259333Y-77747857D02*
X118164095Y-77890714D01*
X118164095Y-77890714D02*
X118164095Y-78176428D01*
X118164095Y-78176428D02*
X118068857Y-78319285D01*
X118068857Y-78319285D02*
X117973619Y-78390714D01*
X117973619Y-78390714D02*
X117783142Y-78462142D01*
X117783142Y-78462142D02*
X117402190Y-78462142D01*
X117402190Y-78462142D02*
X117211714Y-78390714D01*
X117211714Y-78390714D02*
X117116476Y-78319285D01*
X117116476Y-78319285D02*
X117021238Y-78176428D01*
X117021238Y-78176428D02*
X117021238Y-77890714D01*
X117021238Y-77890714D02*
X117116476Y-77747857D01*
X117116476Y-77747857D02*
X117211714Y-77676428D01*
X117211714Y-77676428D02*
X117402190Y-77604999D01*
X117402190Y-77604999D02*
X117783142Y-77604999D01*
X117783142Y-77604999D02*
X117973619Y-77676428D01*
X117973619Y-77676428D02*
X118068857Y-77747857D01*
X118068857Y-77747857D02*
X118164095Y-77890714D01*
X119021238Y-77176428D02*
X117021238Y-76676428D01*
X117021238Y-76676428D02*
X119021238Y-76176428D01*
X119021238Y-68659285D02*
X116354571Y-68659285D01*
X118354571Y-68802142D02*
X118354571Y-68516428D01*
X118354571Y-68516428D02*
X118259333Y-68373571D01*
X118259333Y-68373571D02*
X118068857Y-68230714D01*
X118068857Y-68230714D02*
X117878380Y-68159285D01*
X117878380Y-68159285D02*
X117497428Y-68159285D01*
X117497428Y-68159285D02*
X117306952Y-68230714D01*
X117306952Y-68230714D02*
X117116476Y-68373571D01*
X117116476Y-68373571D02*
X117021238Y-68516428D01*
X117021238Y-68516428D02*
X117021238Y-68802142D01*
X117021238Y-68802142D02*
X117116476Y-68945000D01*
X117116476Y-68945000D02*
X117306952Y-69087857D01*
X117306952Y-69087857D02*
X117497428Y-69159285D01*
X117497428Y-69159285D02*
X117878380Y-69159285D01*
X117878380Y-69159285D02*
X118068857Y-69087857D01*
X118068857Y-69087857D02*
X118259333Y-68945000D01*
X118259333Y-68945000D02*
X118354571Y-68802142D01*
X118354571Y-66873571D02*
X117021238Y-66873571D01*
X119116476Y-67230713D02*
X117687904Y-67587856D01*
X117687904Y-67587856D02*
X117687904Y-66659285D01*
D11*
X95651476Y-79901142D02*
X95699095Y-79948761D01*
X95699095Y-79948761D02*
X95841952Y-79996380D01*
X95841952Y-79996380D02*
X95937190Y-79996380D01*
X95937190Y-79996380D02*
X96080047Y-79948761D01*
X96080047Y-79948761D02*
X96175285Y-79853523D01*
X96175285Y-79853523D02*
X96222904Y-79758285D01*
X96222904Y-79758285D02*
X96270523Y-79567809D01*
X96270523Y-79567809D02*
X96270523Y-79424952D01*
X96270523Y-79424952D02*
X96222904Y-79234476D01*
X96222904Y-79234476D02*
X96175285Y-79139238D01*
X96175285Y-79139238D02*
X96080047Y-79044000D01*
X96080047Y-79044000D02*
X95937190Y-78996380D01*
X95937190Y-78996380D02*
X95841952Y-78996380D01*
X95841952Y-78996380D02*
X95699095Y-79044000D01*
X95699095Y-79044000D02*
X95651476Y-79091619D01*
X94099095Y-79044000D02*
X94194333Y-78996380D01*
X94194333Y-78996380D02*
X94337190Y-78996380D01*
X94337190Y-78996380D02*
X94480047Y-79044000D01*
X94480047Y-79044000D02*
X94575285Y-79139238D01*
X94575285Y-79139238D02*
X94622904Y-79234476D01*
X94622904Y-79234476D02*
X94670523Y-79424952D01*
X94670523Y-79424952D02*
X94670523Y-79567809D01*
X94670523Y-79567809D02*
X94622904Y-79758285D01*
X94622904Y-79758285D02*
X94575285Y-79853523D01*
X94575285Y-79853523D02*
X94480047Y-79948761D01*
X94480047Y-79948761D02*
X94337190Y-79996380D01*
X94337190Y-79996380D02*
X94241952Y-79996380D01*
X94241952Y-79996380D02*
X94099095Y-79948761D01*
X94099095Y-79948761D02*
X94051476Y-79901142D01*
X94051476Y-79901142D02*
X94051476Y-79567809D01*
X94051476Y-79567809D02*
X94241952Y-79567809D01*
X93022904Y-79996380D02*
X93022904Y-78996380D01*
X93022904Y-78996380D02*
X92784809Y-78996380D01*
X92784809Y-78996380D02*
X92641952Y-79044000D01*
X92641952Y-79044000D02*
X92546714Y-79139238D01*
X92546714Y-79139238D02*
X92499095Y-79234476D01*
X92499095Y-79234476D02*
X92451476Y-79424952D01*
X92451476Y-79424952D02*
X92451476Y-79567809D01*
X92451476Y-79567809D02*
X92499095Y-79758285D01*
X92499095Y-79758285D02*
X92546714Y-79853523D01*
X92546714Y-79853523D02*
X92641952Y-79948761D01*
X92641952Y-79948761D02*
X92784809Y-79996380D01*
X92784809Y-79996380D02*
X93022904Y-79996380D01*
X95718142Y-78678761D02*
X95575285Y-78726380D01*
X95575285Y-78726380D02*
X95337190Y-78726380D01*
X95337190Y-78726380D02*
X95241952Y-78678761D01*
X95241952Y-78678761D02*
X95194333Y-78631142D01*
X95194333Y-78631142D02*
X95146714Y-78535904D01*
X95146714Y-78535904D02*
X95146714Y-78440666D01*
X95146714Y-78440666D02*
X95194333Y-78345428D01*
X95194333Y-78345428D02*
X95241952Y-78297809D01*
X95241952Y-78297809D02*
X95337190Y-78250190D01*
X95337190Y-78250190D02*
X95527666Y-78202571D01*
X95527666Y-78202571D02*
X95622904Y-78154952D01*
X95622904Y-78154952D02*
X95670523Y-78107333D01*
X95670523Y-78107333D02*
X95718142Y-78012095D01*
X95718142Y-78012095D02*
X95718142Y-77916857D01*
X95718142Y-77916857D02*
X95670523Y-77821619D01*
X95670523Y-77821619D02*
X95622904Y-77774000D01*
X95622904Y-77774000D02*
X95527666Y-77726380D01*
X95527666Y-77726380D02*
X95289571Y-77726380D01*
X95289571Y-77726380D02*
X95146714Y-77774000D01*
X94813380Y-77726380D02*
X94575285Y-78726380D01*
X94575285Y-78726380D02*
X94384809Y-78012095D01*
X94384809Y-78012095D02*
X94194333Y-78726380D01*
X94194333Y-78726380D02*
X93956238Y-77726380D01*
X93575285Y-78726380D02*
X93575285Y-77726380D01*
X93575285Y-77726380D02*
X93337190Y-77726380D01*
X93337190Y-77726380D02*
X93194333Y-77774000D01*
X93194333Y-77774000D02*
X93099095Y-77869238D01*
X93099095Y-77869238D02*
X93051476Y-77964476D01*
X93051476Y-77964476D02*
X93003857Y-78154952D01*
X93003857Y-78154952D02*
X93003857Y-78297809D01*
X93003857Y-78297809D02*
X93051476Y-78488285D01*
X93051476Y-78488285D02*
X93099095Y-78583523D01*
X93099095Y-78583523D02*
X93194333Y-78678761D01*
X93194333Y-78678761D02*
X93337190Y-78726380D01*
X93337190Y-78726380D02*
X93575285Y-78726380D01*
X103211142Y-44166571D02*
X103068285Y-44214190D01*
X103068285Y-44214190D02*
X103020666Y-44261809D01*
X103020666Y-44261809D02*
X102973047Y-44357047D01*
X102973047Y-44357047D02*
X102973047Y-44499904D01*
X102973047Y-44499904D02*
X103020666Y-44595142D01*
X103020666Y-44595142D02*
X103068285Y-44642761D01*
X103068285Y-44642761D02*
X103163523Y-44690380D01*
X103163523Y-44690380D02*
X103544475Y-44690380D01*
X103544475Y-44690380D02*
X103544475Y-43690380D01*
X103544475Y-43690380D02*
X103211142Y-43690380D01*
X103211142Y-43690380D02*
X103115904Y-43738000D01*
X103115904Y-43738000D02*
X103068285Y-43785619D01*
X103068285Y-43785619D02*
X103020666Y-43880857D01*
X103020666Y-43880857D02*
X103020666Y-43976095D01*
X103020666Y-43976095D02*
X103068285Y-44071333D01*
X103068285Y-44071333D02*
X103115904Y-44118952D01*
X103115904Y-44118952D02*
X103211142Y-44166571D01*
X103211142Y-44166571D02*
X103544475Y-44166571D01*
X102353999Y-43690380D02*
X102163523Y-43690380D01*
X102163523Y-43690380D02*
X102068285Y-43738000D01*
X102068285Y-43738000D02*
X101973047Y-43833238D01*
X101973047Y-43833238D02*
X101925428Y-44023714D01*
X101925428Y-44023714D02*
X101925428Y-44357047D01*
X101925428Y-44357047D02*
X101973047Y-44547523D01*
X101973047Y-44547523D02*
X102068285Y-44642761D01*
X102068285Y-44642761D02*
X102163523Y-44690380D01*
X102163523Y-44690380D02*
X102353999Y-44690380D01*
X102353999Y-44690380D02*
X102449237Y-44642761D01*
X102449237Y-44642761D02*
X102544475Y-44547523D01*
X102544475Y-44547523D02*
X102592094Y-44357047D01*
X102592094Y-44357047D02*
X102592094Y-44023714D01*
X102592094Y-44023714D02*
X102544475Y-43833238D01*
X102544475Y-43833238D02*
X102449237Y-43738000D01*
X102449237Y-43738000D02*
X102353999Y-43690380D01*
X101306380Y-43690380D02*
X101115904Y-43690380D01*
X101115904Y-43690380D02*
X101020666Y-43738000D01*
X101020666Y-43738000D02*
X100925428Y-43833238D01*
X100925428Y-43833238D02*
X100877809Y-44023714D01*
X100877809Y-44023714D02*
X100877809Y-44357047D01*
X100877809Y-44357047D02*
X100925428Y-44547523D01*
X100925428Y-44547523D02*
X101020666Y-44642761D01*
X101020666Y-44642761D02*
X101115904Y-44690380D01*
X101115904Y-44690380D02*
X101306380Y-44690380D01*
X101306380Y-44690380D02*
X101401618Y-44642761D01*
X101401618Y-44642761D02*
X101496856Y-44547523D01*
X101496856Y-44547523D02*
X101544475Y-44357047D01*
X101544475Y-44357047D02*
X101544475Y-44023714D01*
X101544475Y-44023714D02*
X101496856Y-43833238D01*
X101496856Y-43833238D02*
X101401618Y-43738000D01*
X101401618Y-43738000D02*
X101306380Y-43690380D01*
X100592094Y-43690380D02*
X100020666Y-43690380D01*
X100306380Y-44690380D02*
X100306380Y-43690380D01*
%TO.C,C55*%
X101872142Y-48252142D02*
X101919761Y-48204523D01*
X101919761Y-48204523D02*
X101967380Y-48061666D01*
X101967380Y-48061666D02*
X101967380Y-47966428D01*
X101967380Y-47966428D02*
X101919761Y-47823571D01*
X101919761Y-47823571D02*
X101824523Y-47728333D01*
X101824523Y-47728333D02*
X101729285Y-47680714D01*
X101729285Y-47680714D02*
X101538809Y-47633095D01*
X101538809Y-47633095D02*
X101395952Y-47633095D01*
X101395952Y-47633095D02*
X101205476Y-47680714D01*
X101205476Y-47680714D02*
X101110238Y-47728333D01*
X101110238Y-47728333D02*
X101015000Y-47823571D01*
X101015000Y-47823571D02*
X100967380Y-47966428D01*
X100967380Y-47966428D02*
X100967380Y-48061666D01*
X100967380Y-48061666D02*
X101015000Y-48204523D01*
X101015000Y-48204523D02*
X101062619Y-48252142D01*
X100967380Y-49156904D02*
X100967380Y-48680714D01*
X100967380Y-48680714D02*
X101443571Y-48633095D01*
X101443571Y-48633095D02*
X101395952Y-48680714D01*
X101395952Y-48680714D02*
X101348333Y-48775952D01*
X101348333Y-48775952D02*
X101348333Y-49014047D01*
X101348333Y-49014047D02*
X101395952Y-49109285D01*
X101395952Y-49109285D02*
X101443571Y-49156904D01*
X101443571Y-49156904D02*
X101538809Y-49204523D01*
X101538809Y-49204523D02*
X101776904Y-49204523D01*
X101776904Y-49204523D02*
X101872142Y-49156904D01*
X101872142Y-49156904D02*
X101919761Y-49109285D01*
X101919761Y-49109285D02*
X101967380Y-49014047D01*
X101967380Y-49014047D02*
X101967380Y-48775952D01*
X101967380Y-48775952D02*
X101919761Y-48680714D01*
X101919761Y-48680714D02*
X101872142Y-48633095D01*
X100967380Y-50109285D02*
X100967380Y-49633095D01*
X100967380Y-49633095D02*
X101443571Y-49585476D01*
X101443571Y-49585476D02*
X101395952Y-49633095D01*
X101395952Y-49633095D02*
X101348333Y-49728333D01*
X101348333Y-49728333D02*
X101348333Y-49966428D01*
X101348333Y-49966428D02*
X101395952Y-50061666D01*
X101395952Y-50061666D02*
X101443571Y-50109285D01*
X101443571Y-50109285D02*
X101538809Y-50156904D01*
X101538809Y-50156904D02*
X101776904Y-50156904D01*
X101776904Y-50156904D02*
X101872142Y-50109285D01*
X101872142Y-50109285D02*
X101919761Y-50061666D01*
X101919761Y-50061666D02*
X101967380Y-49966428D01*
X101967380Y-49966428D02*
X101967380Y-49728333D01*
X101967380Y-49728333D02*
X101919761Y-49633095D01*
X101919761Y-49633095D02*
X101872142Y-49585476D01*
%TO.C,C63*%
X99840142Y-70350142D02*
X99887761Y-70302523D01*
X99887761Y-70302523D02*
X99935380Y-70159666D01*
X99935380Y-70159666D02*
X99935380Y-70064428D01*
X99935380Y-70064428D02*
X99887761Y-69921571D01*
X99887761Y-69921571D02*
X99792523Y-69826333D01*
X99792523Y-69826333D02*
X99697285Y-69778714D01*
X99697285Y-69778714D02*
X99506809Y-69731095D01*
X99506809Y-69731095D02*
X99363952Y-69731095D01*
X99363952Y-69731095D02*
X99173476Y-69778714D01*
X99173476Y-69778714D02*
X99078238Y-69826333D01*
X99078238Y-69826333D02*
X98983000Y-69921571D01*
X98983000Y-69921571D02*
X98935380Y-70064428D01*
X98935380Y-70064428D02*
X98935380Y-70159666D01*
X98935380Y-70159666D02*
X98983000Y-70302523D01*
X98983000Y-70302523D02*
X99030619Y-70350142D01*
X98935380Y-71207285D02*
X98935380Y-71016809D01*
X98935380Y-71016809D02*
X98983000Y-70921571D01*
X98983000Y-70921571D02*
X99030619Y-70873952D01*
X99030619Y-70873952D02*
X99173476Y-70778714D01*
X99173476Y-70778714D02*
X99363952Y-70731095D01*
X99363952Y-70731095D02*
X99744904Y-70731095D01*
X99744904Y-70731095D02*
X99840142Y-70778714D01*
X99840142Y-70778714D02*
X99887761Y-70826333D01*
X99887761Y-70826333D02*
X99935380Y-70921571D01*
X99935380Y-70921571D02*
X99935380Y-71112047D01*
X99935380Y-71112047D02*
X99887761Y-71207285D01*
X99887761Y-71207285D02*
X99840142Y-71254904D01*
X99840142Y-71254904D02*
X99744904Y-71302523D01*
X99744904Y-71302523D02*
X99506809Y-71302523D01*
X99506809Y-71302523D02*
X99411571Y-71254904D01*
X99411571Y-71254904D02*
X99363952Y-71207285D01*
X99363952Y-71207285D02*
X99316333Y-71112047D01*
X99316333Y-71112047D02*
X99316333Y-70921571D01*
X99316333Y-70921571D02*
X99363952Y-70826333D01*
X99363952Y-70826333D02*
X99411571Y-70778714D01*
X99411571Y-70778714D02*
X99506809Y-70731095D01*
X98935380Y-71635857D02*
X98935380Y-72254904D01*
X98935380Y-72254904D02*
X99316333Y-71921571D01*
X99316333Y-71921571D02*
X99316333Y-72064428D01*
X99316333Y-72064428D02*
X99363952Y-72159666D01*
X99363952Y-72159666D02*
X99411571Y-72207285D01*
X99411571Y-72207285D02*
X99506809Y-72254904D01*
X99506809Y-72254904D02*
X99744904Y-72254904D01*
X99744904Y-72254904D02*
X99840142Y-72207285D01*
X99840142Y-72207285D02*
X99887761Y-72159666D01*
X99887761Y-72159666D02*
X99935380Y-72064428D01*
X99935380Y-72064428D02*
X99935380Y-71778714D01*
X99935380Y-71778714D02*
X99887761Y-71683476D01*
X99887761Y-71683476D02*
X99840142Y-71635857D01*
%TO.C,C61*%
X101872142Y-62984142D02*
X101919761Y-62936523D01*
X101919761Y-62936523D02*
X101967380Y-62793666D01*
X101967380Y-62793666D02*
X101967380Y-62698428D01*
X101967380Y-62698428D02*
X101919761Y-62555571D01*
X101919761Y-62555571D02*
X101824523Y-62460333D01*
X101824523Y-62460333D02*
X101729285Y-62412714D01*
X101729285Y-62412714D02*
X101538809Y-62365095D01*
X101538809Y-62365095D02*
X101395952Y-62365095D01*
X101395952Y-62365095D02*
X101205476Y-62412714D01*
X101205476Y-62412714D02*
X101110238Y-62460333D01*
X101110238Y-62460333D02*
X101015000Y-62555571D01*
X101015000Y-62555571D02*
X100967380Y-62698428D01*
X100967380Y-62698428D02*
X100967380Y-62793666D01*
X100967380Y-62793666D02*
X101015000Y-62936523D01*
X101015000Y-62936523D02*
X101062619Y-62984142D01*
X100967380Y-63841285D02*
X100967380Y-63650809D01*
X100967380Y-63650809D02*
X101015000Y-63555571D01*
X101015000Y-63555571D02*
X101062619Y-63507952D01*
X101062619Y-63507952D02*
X101205476Y-63412714D01*
X101205476Y-63412714D02*
X101395952Y-63365095D01*
X101395952Y-63365095D02*
X101776904Y-63365095D01*
X101776904Y-63365095D02*
X101872142Y-63412714D01*
X101872142Y-63412714D02*
X101919761Y-63460333D01*
X101919761Y-63460333D02*
X101967380Y-63555571D01*
X101967380Y-63555571D02*
X101967380Y-63746047D01*
X101967380Y-63746047D02*
X101919761Y-63841285D01*
X101919761Y-63841285D02*
X101872142Y-63888904D01*
X101872142Y-63888904D02*
X101776904Y-63936523D01*
X101776904Y-63936523D02*
X101538809Y-63936523D01*
X101538809Y-63936523D02*
X101443571Y-63888904D01*
X101443571Y-63888904D02*
X101395952Y-63841285D01*
X101395952Y-63841285D02*
X101348333Y-63746047D01*
X101348333Y-63746047D02*
X101348333Y-63555571D01*
X101348333Y-63555571D02*
X101395952Y-63460333D01*
X101395952Y-63460333D02*
X101443571Y-63412714D01*
X101443571Y-63412714D02*
X101538809Y-63365095D01*
X101967380Y-64888904D02*
X101967380Y-64317476D01*
X101967380Y-64603190D02*
X100967380Y-64603190D01*
X100967380Y-64603190D02*
X101110238Y-64507952D01*
X101110238Y-64507952D02*
X101205476Y-64412714D01*
X101205476Y-64412714D02*
X101253095Y-64317476D01*
%TO.C,C58*%
X101872142Y-55618142D02*
X101919761Y-55570523D01*
X101919761Y-55570523D02*
X101967380Y-55427666D01*
X101967380Y-55427666D02*
X101967380Y-55332428D01*
X101967380Y-55332428D02*
X101919761Y-55189571D01*
X101919761Y-55189571D02*
X101824523Y-55094333D01*
X101824523Y-55094333D02*
X101729285Y-55046714D01*
X101729285Y-55046714D02*
X101538809Y-54999095D01*
X101538809Y-54999095D02*
X101395952Y-54999095D01*
X101395952Y-54999095D02*
X101205476Y-55046714D01*
X101205476Y-55046714D02*
X101110238Y-55094333D01*
X101110238Y-55094333D02*
X101015000Y-55189571D01*
X101015000Y-55189571D02*
X100967380Y-55332428D01*
X100967380Y-55332428D02*
X100967380Y-55427666D01*
X100967380Y-55427666D02*
X101015000Y-55570523D01*
X101015000Y-55570523D02*
X101062619Y-55618142D01*
X100967380Y-56522904D02*
X100967380Y-56046714D01*
X100967380Y-56046714D02*
X101443571Y-55999095D01*
X101443571Y-55999095D02*
X101395952Y-56046714D01*
X101395952Y-56046714D02*
X101348333Y-56141952D01*
X101348333Y-56141952D02*
X101348333Y-56380047D01*
X101348333Y-56380047D02*
X101395952Y-56475285D01*
X101395952Y-56475285D02*
X101443571Y-56522904D01*
X101443571Y-56522904D02*
X101538809Y-56570523D01*
X101538809Y-56570523D02*
X101776904Y-56570523D01*
X101776904Y-56570523D02*
X101872142Y-56522904D01*
X101872142Y-56522904D02*
X101919761Y-56475285D01*
X101919761Y-56475285D02*
X101967380Y-56380047D01*
X101967380Y-56380047D02*
X101967380Y-56141952D01*
X101967380Y-56141952D02*
X101919761Y-56046714D01*
X101919761Y-56046714D02*
X101872142Y-55999095D01*
X101395952Y-57141952D02*
X101348333Y-57046714D01*
X101348333Y-57046714D02*
X101300714Y-56999095D01*
X101300714Y-56999095D02*
X101205476Y-56951476D01*
X101205476Y-56951476D02*
X101157857Y-56951476D01*
X101157857Y-56951476D02*
X101062619Y-56999095D01*
X101062619Y-56999095D02*
X101015000Y-57046714D01*
X101015000Y-57046714D02*
X100967380Y-57141952D01*
X100967380Y-57141952D02*
X100967380Y-57332428D01*
X100967380Y-57332428D02*
X101015000Y-57427666D01*
X101015000Y-57427666D02*
X101062619Y-57475285D01*
X101062619Y-57475285D02*
X101157857Y-57522904D01*
X101157857Y-57522904D02*
X101205476Y-57522904D01*
X101205476Y-57522904D02*
X101300714Y-57475285D01*
X101300714Y-57475285D02*
X101348333Y-57427666D01*
X101348333Y-57427666D02*
X101395952Y-57332428D01*
X101395952Y-57332428D02*
X101395952Y-57141952D01*
X101395952Y-57141952D02*
X101443571Y-57046714D01*
X101443571Y-57046714D02*
X101491190Y-56999095D01*
X101491190Y-56999095D02*
X101586428Y-56951476D01*
X101586428Y-56951476D02*
X101776904Y-56951476D01*
X101776904Y-56951476D02*
X101872142Y-56999095D01*
X101872142Y-56999095D02*
X101919761Y-57046714D01*
X101919761Y-57046714D02*
X101967380Y-57141952D01*
X101967380Y-57141952D02*
X101967380Y-57332428D01*
X101967380Y-57332428D02*
X101919761Y-57427666D01*
X101919761Y-57427666D02*
X101872142Y-57475285D01*
X101872142Y-57475285D02*
X101776904Y-57522904D01*
X101776904Y-57522904D02*
X101586428Y-57522904D01*
X101586428Y-57522904D02*
X101491190Y-57475285D01*
X101491190Y-57475285D02*
X101443571Y-57427666D01*
X101443571Y-57427666D02*
X101395952Y-57332428D01*
%TO.C,C54*%
X99840142Y-48252142D02*
X99887761Y-48204523D01*
X99887761Y-48204523D02*
X99935380Y-48061666D01*
X99935380Y-48061666D02*
X99935380Y-47966428D01*
X99935380Y-47966428D02*
X99887761Y-47823571D01*
X99887761Y-47823571D02*
X99792523Y-47728333D01*
X99792523Y-47728333D02*
X99697285Y-47680714D01*
X99697285Y-47680714D02*
X99506809Y-47633095D01*
X99506809Y-47633095D02*
X99363952Y-47633095D01*
X99363952Y-47633095D02*
X99173476Y-47680714D01*
X99173476Y-47680714D02*
X99078238Y-47728333D01*
X99078238Y-47728333D02*
X98983000Y-47823571D01*
X98983000Y-47823571D02*
X98935380Y-47966428D01*
X98935380Y-47966428D02*
X98935380Y-48061666D01*
X98935380Y-48061666D02*
X98983000Y-48204523D01*
X98983000Y-48204523D02*
X99030619Y-48252142D01*
X98935380Y-49156904D02*
X98935380Y-48680714D01*
X98935380Y-48680714D02*
X99411571Y-48633095D01*
X99411571Y-48633095D02*
X99363952Y-48680714D01*
X99363952Y-48680714D02*
X99316333Y-48775952D01*
X99316333Y-48775952D02*
X99316333Y-49014047D01*
X99316333Y-49014047D02*
X99363952Y-49109285D01*
X99363952Y-49109285D02*
X99411571Y-49156904D01*
X99411571Y-49156904D02*
X99506809Y-49204523D01*
X99506809Y-49204523D02*
X99744904Y-49204523D01*
X99744904Y-49204523D02*
X99840142Y-49156904D01*
X99840142Y-49156904D02*
X99887761Y-49109285D01*
X99887761Y-49109285D02*
X99935380Y-49014047D01*
X99935380Y-49014047D02*
X99935380Y-48775952D01*
X99935380Y-48775952D02*
X99887761Y-48680714D01*
X99887761Y-48680714D02*
X99840142Y-48633095D01*
X99268714Y-50061666D02*
X99935380Y-50061666D01*
X98887761Y-49823571D02*
X99602047Y-49585476D01*
X99602047Y-49585476D02*
X99602047Y-50204523D01*
%TO.C,C57*%
X99840142Y-55618142D02*
X99887761Y-55570523D01*
X99887761Y-55570523D02*
X99935380Y-55427666D01*
X99935380Y-55427666D02*
X99935380Y-55332428D01*
X99935380Y-55332428D02*
X99887761Y-55189571D01*
X99887761Y-55189571D02*
X99792523Y-55094333D01*
X99792523Y-55094333D02*
X99697285Y-55046714D01*
X99697285Y-55046714D02*
X99506809Y-54999095D01*
X99506809Y-54999095D02*
X99363952Y-54999095D01*
X99363952Y-54999095D02*
X99173476Y-55046714D01*
X99173476Y-55046714D02*
X99078238Y-55094333D01*
X99078238Y-55094333D02*
X98983000Y-55189571D01*
X98983000Y-55189571D02*
X98935380Y-55332428D01*
X98935380Y-55332428D02*
X98935380Y-55427666D01*
X98935380Y-55427666D02*
X98983000Y-55570523D01*
X98983000Y-55570523D02*
X99030619Y-55618142D01*
X98935380Y-56522904D02*
X98935380Y-56046714D01*
X98935380Y-56046714D02*
X99411571Y-55999095D01*
X99411571Y-55999095D02*
X99363952Y-56046714D01*
X99363952Y-56046714D02*
X99316333Y-56141952D01*
X99316333Y-56141952D02*
X99316333Y-56380047D01*
X99316333Y-56380047D02*
X99363952Y-56475285D01*
X99363952Y-56475285D02*
X99411571Y-56522904D01*
X99411571Y-56522904D02*
X99506809Y-56570523D01*
X99506809Y-56570523D02*
X99744904Y-56570523D01*
X99744904Y-56570523D02*
X99840142Y-56522904D01*
X99840142Y-56522904D02*
X99887761Y-56475285D01*
X99887761Y-56475285D02*
X99935380Y-56380047D01*
X99935380Y-56380047D02*
X99935380Y-56141952D01*
X99935380Y-56141952D02*
X99887761Y-56046714D01*
X99887761Y-56046714D02*
X99840142Y-55999095D01*
X98935380Y-56903857D02*
X98935380Y-57570523D01*
X98935380Y-57570523D02*
X99935380Y-57141952D01*
%TO.C,C62*%
X103904142Y-62984142D02*
X103951761Y-62936523D01*
X103951761Y-62936523D02*
X103999380Y-62793666D01*
X103999380Y-62793666D02*
X103999380Y-62698428D01*
X103999380Y-62698428D02*
X103951761Y-62555571D01*
X103951761Y-62555571D02*
X103856523Y-62460333D01*
X103856523Y-62460333D02*
X103761285Y-62412714D01*
X103761285Y-62412714D02*
X103570809Y-62365095D01*
X103570809Y-62365095D02*
X103427952Y-62365095D01*
X103427952Y-62365095D02*
X103237476Y-62412714D01*
X103237476Y-62412714D02*
X103142238Y-62460333D01*
X103142238Y-62460333D02*
X103047000Y-62555571D01*
X103047000Y-62555571D02*
X102999380Y-62698428D01*
X102999380Y-62698428D02*
X102999380Y-62793666D01*
X102999380Y-62793666D02*
X103047000Y-62936523D01*
X103047000Y-62936523D02*
X103094619Y-62984142D01*
X102999380Y-63841285D02*
X102999380Y-63650809D01*
X102999380Y-63650809D02*
X103047000Y-63555571D01*
X103047000Y-63555571D02*
X103094619Y-63507952D01*
X103094619Y-63507952D02*
X103237476Y-63412714D01*
X103237476Y-63412714D02*
X103427952Y-63365095D01*
X103427952Y-63365095D02*
X103808904Y-63365095D01*
X103808904Y-63365095D02*
X103904142Y-63412714D01*
X103904142Y-63412714D02*
X103951761Y-63460333D01*
X103951761Y-63460333D02*
X103999380Y-63555571D01*
X103999380Y-63555571D02*
X103999380Y-63746047D01*
X103999380Y-63746047D02*
X103951761Y-63841285D01*
X103951761Y-63841285D02*
X103904142Y-63888904D01*
X103904142Y-63888904D02*
X103808904Y-63936523D01*
X103808904Y-63936523D02*
X103570809Y-63936523D01*
X103570809Y-63936523D02*
X103475571Y-63888904D01*
X103475571Y-63888904D02*
X103427952Y-63841285D01*
X103427952Y-63841285D02*
X103380333Y-63746047D01*
X103380333Y-63746047D02*
X103380333Y-63555571D01*
X103380333Y-63555571D02*
X103427952Y-63460333D01*
X103427952Y-63460333D02*
X103475571Y-63412714D01*
X103475571Y-63412714D02*
X103570809Y-63365095D01*
X103094619Y-64317476D02*
X103047000Y-64365095D01*
X103047000Y-64365095D02*
X102999380Y-64460333D01*
X102999380Y-64460333D02*
X102999380Y-64698428D01*
X102999380Y-64698428D02*
X103047000Y-64793666D01*
X103047000Y-64793666D02*
X103094619Y-64841285D01*
X103094619Y-64841285D02*
X103189857Y-64888904D01*
X103189857Y-64888904D02*
X103285095Y-64888904D01*
X103285095Y-64888904D02*
X103427952Y-64841285D01*
X103427952Y-64841285D02*
X103999380Y-64269857D01*
X103999380Y-64269857D02*
X103999380Y-64888904D01*
%TO.C,J6*%
X99462380Y-35666666D02*
X100176666Y-35666666D01*
X100176666Y-35666666D02*
X100319523Y-35619047D01*
X100319523Y-35619047D02*
X100414761Y-35523809D01*
X100414761Y-35523809D02*
X100462380Y-35380952D01*
X100462380Y-35380952D02*
X100462380Y-35285714D01*
X99462380Y-36571428D02*
X99462380Y-36380952D01*
X99462380Y-36380952D02*
X99510000Y-36285714D01*
X99510000Y-36285714D02*
X99557619Y-36238095D01*
X99557619Y-36238095D02*
X99700476Y-36142857D01*
X99700476Y-36142857D02*
X99890952Y-36095238D01*
X99890952Y-36095238D02*
X100271904Y-36095238D01*
X100271904Y-36095238D02*
X100367142Y-36142857D01*
X100367142Y-36142857D02*
X100414761Y-36190476D01*
X100414761Y-36190476D02*
X100462380Y-36285714D01*
X100462380Y-36285714D02*
X100462380Y-36476190D01*
X100462380Y-36476190D02*
X100414761Y-36571428D01*
X100414761Y-36571428D02*
X100367142Y-36619047D01*
X100367142Y-36619047D02*
X100271904Y-36666666D01*
X100271904Y-36666666D02*
X100033809Y-36666666D01*
X100033809Y-36666666D02*
X99938571Y-36619047D01*
X99938571Y-36619047D02*
X99890952Y-36571428D01*
X99890952Y-36571428D02*
X99843333Y-36476190D01*
X99843333Y-36476190D02*
X99843333Y-36285714D01*
X99843333Y-36285714D02*
X99890952Y-36190476D01*
X99890952Y-36190476D02*
X99938571Y-36142857D01*
X99938571Y-36142857D02*
X100033809Y-36095238D01*
%TO.C,C65*%
X103904142Y-70350142D02*
X103951761Y-70302523D01*
X103951761Y-70302523D02*
X103999380Y-70159666D01*
X103999380Y-70159666D02*
X103999380Y-70064428D01*
X103999380Y-70064428D02*
X103951761Y-69921571D01*
X103951761Y-69921571D02*
X103856523Y-69826333D01*
X103856523Y-69826333D02*
X103761285Y-69778714D01*
X103761285Y-69778714D02*
X103570809Y-69731095D01*
X103570809Y-69731095D02*
X103427952Y-69731095D01*
X103427952Y-69731095D02*
X103237476Y-69778714D01*
X103237476Y-69778714D02*
X103142238Y-69826333D01*
X103142238Y-69826333D02*
X103047000Y-69921571D01*
X103047000Y-69921571D02*
X102999380Y-70064428D01*
X102999380Y-70064428D02*
X102999380Y-70159666D01*
X102999380Y-70159666D02*
X103047000Y-70302523D01*
X103047000Y-70302523D02*
X103094619Y-70350142D01*
X102999380Y-71207285D02*
X102999380Y-71016809D01*
X102999380Y-71016809D02*
X103047000Y-70921571D01*
X103047000Y-70921571D02*
X103094619Y-70873952D01*
X103094619Y-70873952D02*
X103237476Y-70778714D01*
X103237476Y-70778714D02*
X103427952Y-70731095D01*
X103427952Y-70731095D02*
X103808904Y-70731095D01*
X103808904Y-70731095D02*
X103904142Y-70778714D01*
X103904142Y-70778714D02*
X103951761Y-70826333D01*
X103951761Y-70826333D02*
X103999380Y-70921571D01*
X103999380Y-70921571D02*
X103999380Y-71112047D01*
X103999380Y-71112047D02*
X103951761Y-71207285D01*
X103951761Y-71207285D02*
X103904142Y-71254904D01*
X103904142Y-71254904D02*
X103808904Y-71302523D01*
X103808904Y-71302523D02*
X103570809Y-71302523D01*
X103570809Y-71302523D02*
X103475571Y-71254904D01*
X103475571Y-71254904D02*
X103427952Y-71207285D01*
X103427952Y-71207285D02*
X103380333Y-71112047D01*
X103380333Y-71112047D02*
X103380333Y-70921571D01*
X103380333Y-70921571D02*
X103427952Y-70826333D01*
X103427952Y-70826333D02*
X103475571Y-70778714D01*
X103475571Y-70778714D02*
X103570809Y-70731095D01*
X102999380Y-72207285D02*
X102999380Y-71731095D01*
X102999380Y-71731095D02*
X103475571Y-71683476D01*
X103475571Y-71683476D02*
X103427952Y-71731095D01*
X103427952Y-71731095D02*
X103380333Y-71826333D01*
X103380333Y-71826333D02*
X103380333Y-72064428D01*
X103380333Y-72064428D02*
X103427952Y-72159666D01*
X103427952Y-72159666D02*
X103475571Y-72207285D01*
X103475571Y-72207285D02*
X103570809Y-72254904D01*
X103570809Y-72254904D02*
X103808904Y-72254904D01*
X103808904Y-72254904D02*
X103904142Y-72207285D01*
X103904142Y-72207285D02*
X103951761Y-72159666D01*
X103951761Y-72159666D02*
X103999380Y-72064428D01*
X103999380Y-72064428D02*
X103999380Y-71826333D01*
X103999380Y-71826333D02*
X103951761Y-71731095D01*
X103951761Y-71731095D02*
X103904142Y-71683476D01*
%TO.C,RV1*%
X110567380Y-71304761D02*
X110091190Y-70971428D01*
X110567380Y-70733333D02*
X109567380Y-70733333D01*
X109567380Y-70733333D02*
X109567380Y-71114285D01*
X109567380Y-71114285D02*
X109615000Y-71209523D01*
X109615000Y-71209523D02*
X109662619Y-71257142D01*
X109662619Y-71257142D02*
X109757857Y-71304761D01*
X109757857Y-71304761D02*
X109900714Y-71304761D01*
X109900714Y-71304761D02*
X109995952Y-71257142D01*
X109995952Y-71257142D02*
X110043571Y-71209523D01*
X110043571Y-71209523D02*
X110091190Y-71114285D01*
X110091190Y-71114285D02*
X110091190Y-70733333D01*
X109567380Y-71590476D02*
X110567380Y-71923809D01*
X110567380Y-71923809D02*
X109567380Y-72257142D01*
X110567380Y-73114285D02*
X110567380Y-72542857D01*
X110567380Y-72828571D02*
X109567380Y-72828571D01*
X109567380Y-72828571D02*
X109710238Y-72733333D01*
X109710238Y-72733333D02*
X109805476Y-72638095D01*
X109805476Y-72638095D02*
X109853095Y-72542857D01*
%TO.C,C59*%
X103904142Y-55618142D02*
X103951761Y-55570523D01*
X103951761Y-55570523D02*
X103999380Y-55427666D01*
X103999380Y-55427666D02*
X103999380Y-55332428D01*
X103999380Y-55332428D02*
X103951761Y-55189571D01*
X103951761Y-55189571D02*
X103856523Y-55094333D01*
X103856523Y-55094333D02*
X103761285Y-55046714D01*
X103761285Y-55046714D02*
X103570809Y-54999095D01*
X103570809Y-54999095D02*
X103427952Y-54999095D01*
X103427952Y-54999095D02*
X103237476Y-55046714D01*
X103237476Y-55046714D02*
X103142238Y-55094333D01*
X103142238Y-55094333D02*
X103047000Y-55189571D01*
X103047000Y-55189571D02*
X102999380Y-55332428D01*
X102999380Y-55332428D02*
X102999380Y-55427666D01*
X102999380Y-55427666D02*
X103047000Y-55570523D01*
X103047000Y-55570523D02*
X103094619Y-55618142D01*
X102999380Y-56522904D02*
X102999380Y-56046714D01*
X102999380Y-56046714D02*
X103475571Y-55999095D01*
X103475571Y-55999095D02*
X103427952Y-56046714D01*
X103427952Y-56046714D02*
X103380333Y-56141952D01*
X103380333Y-56141952D02*
X103380333Y-56380047D01*
X103380333Y-56380047D02*
X103427952Y-56475285D01*
X103427952Y-56475285D02*
X103475571Y-56522904D01*
X103475571Y-56522904D02*
X103570809Y-56570523D01*
X103570809Y-56570523D02*
X103808904Y-56570523D01*
X103808904Y-56570523D02*
X103904142Y-56522904D01*
X103904142Y-56522904D02*
X103951761Y-56475285D01*
X103951761Y-56475285D02*
X103999380Y-56380047D01*
X103999380Y-56380047D02*
X103999380Y-56141952D01*
X103999380Y-56141952D02*
X103951761Y-56046714D01*
X103951761Y-56046714D02*
X103904142Y-55999095D01*
X103999380Y-57046714D02*
X103999380Y-57237190D01*
X103999380Y-57237190D02*
X103951761Y-57332428D01*
X103951761Y-57332428D02*
X103904142Y-57380047D01*
X103904142Y-57380047D02*
X103761285Y-57475285D01*
X103761285Y-57475285D02*
X103570809Y-57522904D01*
X103570809Y-57522904D02*
X103189857Y-57522904D01*
X103189857Y-57522904D02*
X103094619Y-57475285D01*
X103094619Y-57475285D02*
X103047000Y-57427666D01*
X103047000Y-57427666D02*
X102999380Y-57332428D01*
X102999380Y-57332428D02*
X102999380Y-57141952D01*
X102999380Y-57141952D02*
X103047000Y-57046714D01*
X103047000Y-57046714D02*
X103094619Y-56999095D01*
X103094619Y-56999095D02*
X103189857Y-56951476D01*
X103189857Y-56951476D02*
X103427952Y-56951476D01*
X103427952Y-56951476D02*
X103523190Y-56999095D01*
X103523190Y-56999095D02*
X103570809Y-57046714D01*
X103570809Y-57046714D02*
X103618428Y-57141952D01*
X103618428Y-57141952D02*
X103618428Y-57332428D01*
X103618428Y-57332428D02*
X103570809Y-57427666D01*
X103570809Y-57427666D02*
X103523190Y-57475285D01*
X103523190Y-57475285D02*
X103427952Y-57522904D01*
%TO.C,C64*%
X101872142Y-70350142D02*
X101919761Y-70302523D01*
X101919761Y-70302523D02*
X101967380Y-70159666D01*
X101967380Y-70159666D02*
X101967380Y-70064428D01*
X101967380Y-70064428D02*
X101919761Y-69921571D01*
X101919761Y-69921571D02*
X101824523Y-69826333D01*
X101824523Y-69826333D02*
X101729285Y-69778714D01*
X101729285Y-69778714D02*
X101538809Y-69731095D01*
X101538809Y-69731095D02*
X101395952Y-69731095D01*
X101395952Y-69731095D02*
X101205476Y-69778714D01*
X101205476Y-69778714D02*
X101110238Y-69826333D01*
X101110238Y-69826333D02*
X101015000Y-69921571D01*
X101015000Y-69921571D02*
X100967380Y-70064428D01*
X100967380Y-70064428D02*
X100967380Y-70159666D01*
X100967380Y-70159666D02*
X101015000Y-70302523D01*
X101015000Y-70302523D02*
X101062619Y-70350142D01*
X100967380Y-71207285D02*
X100967380Y-71016809D01*
X100967380Y-71016809D02*
X101015000Y-70921571D01*
X101015000Y-70921571D02*
X101062619Y-70873952D01*
X101062619Y-70873952D02*
X101205476Y-70778714D01*
X101205476Y-70778714D02*
X101395952Y-70731095D01*
X101395952Y-70731095D02*
X101776904Y-70731095D01*
X101776904Y-70731095D02*
X101872142Y-70778714D01*
X101872142Y-70778714D02*
X101919761Y-70826333D01*
X101919761Y-70826333D02*
X101967380Y-70921571D01*
X101967380Y-70921571D02*
X101967380Y-71112047D01*
X101967380Y-71112047D02*
X101919761Y-71207285D01*
X101919761Y-71207285D02*
X101872142Y-71254904D01*
X101872142Y-71254904D02*
X101776904Y-71302523D01*
X101776904Y-71302523D02*
X101538809Y-71302523D01*
X101538809Y-71302523D02*
X101443571Y-71254904D01*
X101443571Y-71254904D02*
X101395952Y-71207285D01*
X101395952Y-71207285D02*
X101348333Y-71112047D01*
X101348333Y-71112047D02*
X101348333Y-70921571D01*
X101348333Y-70921571D02*
X101395952Y-70826333D01*
X101395952Y-70826333D02*
X101443571Y-70778714D01*
X101443571Y-70778714D02*
X101538809Y-70731095D01*
X101300714Y-72159666D02*
X101967380Y-72159666D01*
X100919761Y-71921571D02*
X101634047Y-71683476D01*
X101634047Y-71683476D02*
X101634047Y-72302523D01*
%TO.C,TP2*%
X112259904Y-57332380D02*
X111688476Y-57332380D01*
X111974190Y-58332380D02*
X111974190Y-57332380D01*
X111355142Y-58332380D02*
X111355142Y-57332380D01*
X111355142Y-57332380D02*
X110974190Y-57332380D01*
X110974190Y-57332380D02*
X110878952Y-57380000D01*
X110878952Y-57380000D02*
X110831333Y-57427619D01*
X110831333Y-57427619D02*
X110783714Y-57522857D01*
X110783714Y-57522857D02*
X110783714Y-57665714D01*
X110783714Y-57665714D02*
X110831333Y-57760952D01*
X110831333Y-57760952D02*
X110878952Y-57808571D01*
X110878952Y-57808571D02*
X110974190Y-57856190D01*
X110974190Y-57856190D02*
X111355142Y-57856190D01*
X110402761Y-57427619D02*
X110355142Y-57380000D01*
X110355142Y-57380000D02*
X110259904Y-57332380D01*
X110259904Y-57332380D02*
X110021809Y-57332380D01*
X110021809Y-57332380D02*
X109926571Y-57380000D01*
X109926571Y-57380000D02*
X109878952Y-57427619D01*
X109878952Y-57427619D02*
X109831333Y-57522857D01*
X109831333Y-57522857D02*
X109831333Y-57618095D01*
X109831333Y-57618095D02*
X109878952Y-57760952D01*
X109878952Y-57760952D02*
X110450380Y-58332380D01*
X110450380Y-58332380D02*
X109831333Y-58332380D01*
%TO.C,TP5*%
X112259904Y-54739380D02*
X111688476Y-54739380D01*
X111974190Y-55739380D02*
X111974190Y-54739380D01*
X111355142Y-55739380D02*
X111355142Y-54739380D01*
X111355142Y-54739380D02*
X110974190Y-54739380D01*
X110974190Y-54739380D02*
X110878952Y-54787000D01*
X110878952Y-54787000D02*
X110831333Y-54834619D01*
X110831333Y-54834619D02*
X110783714Y-54929857D01*
X110783714Y-54929857D02*
X110783714Y-55072714D01*
X110783714Y-55072714D02*
X110831333Y-55167952D01*
X110831333Y-55167952D02*
X110878952Y-55215571D01*
X110878952Y-55215571D02*
X110974190Y-55263190D01*
X110974190Y-55263190D02*
X111355142Y-55263190D01*
X109878952Y-54739380D02*
X110355142Y-54739380D01*
X110355142Y-54739380D02*
X110402761Y-55215571D01*
X110402761Y-55215571D02*
X110355142Y-55167952D01*
X110355142Y-55167952D02*
X110259904Y-55120333D01*
X110259904Y-55120333D02*
X110021809Y-55120333D01*
X110021809Y-55120333D02*
X109926571Y-55167952D01*
X109926571Y-55167952D02*
X109878952Y-55215571D01*
X109878952Y-55215571D02*
X109831333Y-55310809D01*
X109831333Y-55310809D02*
X109831333Y-55548904D01*
X109831333Y-55548904D02*
X109878952Y-55644142D01*
X109878952Y-55644142D02*
X109926571Y-55691761D01*
X109926571Y-55691761D02*
X110021809Y-55739380D01*
X110021809Y-55739380D02*
X110259904Y-55739380D01*
X110259904Y-55739380D02*
X110355142Y-55691761D01*
X110355142Y-55691761D02*
X110402761Y-55644142D01*
%TO.C,J100*%
X115585714Y-39142380D02*
X115585714Y-39856666D01*
X115585714Y-39856666D02*
X115633333Y-39999523D01*
X115633333Y-39999523D02*
X115728571Y-40094761D01*
X115728571Y-40094761D02*
X115871428Y-40142380D01*
X115871428Y-40142380D02*
X115966666Y-40142380D01*
X114585714Y-40142380D02*
X115157142Y-40142380D01*
X114871428Y-40142380D02*
X114871428Y-39142380D01*
X114871428Y-39142380D02*
X114966666Y-39285238D01*
X114966666Y-39285238D02*
X115061904Y-39380476D01*
X115061904Y-39380476D02*
X115157142Y-39428095D01*
X113966666Y-39142380D02*
X113871428Y-39142380D01*
X113871428Y-39142380D02*
X113776190Y-39190000D01*
X113776190Y-39190000D02*
X113728571Y-39237619D01*
X113728571Y-39237619D02*
X113680952Y-39332857D01*
X113680952Y-39332857D02*
X113633333Y-39523333D01*
X113633333Y-39523333D02*
X113633333Y-39761428D01*
X113633333Y-39761428D02*
X113680952Y-39951904D01*
X113680952Y-39951904D02*
X113728571Y-40047142D01*
X113728571Y-40047142D02*
X113776190Y-40094761D01*
X113776190Y-40094761D02*
X113871428Y-40142380D01*
X113871428Y-40142380D02*
X113966666Y-40142380D01*
X113966666Y-40142380D02*
X114061904Y-40094761D01*
X114061904Y-40094761D02*
X114109523Y-40047142D01*
X114109523Y-40047142D02*
X114157142Y-39951904D01*
X114157142Y-39951904D02*
X114204761Y-39761428D01*
X114204761Y-39761428D02*
X114204761Y-39523333D01*
X114204761Y-39523333D02*
X114157142Y-39332857D01*
X114157142Y-39332857D02*
X114109523Y-39237619D01*
X114109523Y-39237619D02*
X114061904Y-39190000D01*
X114061904Y-39190000D02*
X113966666Y-39142380D01*
X113014285Y-39142380D02*
X112919047Y-39142380D01*
X112919047Y-39142380D02*
X112823809Y-39190000D01*
X112823809Y-39190000D02*
X112776190Y-39237619D01*
X112776190Y-39237619D02*
X112728571Y-39332857D01*
X112728571Y-39332857D02*
X112680952Y-39523333D01*
X112680952Y-39523333D02*
X112680952Y-39761428D01*
X112680952Y-39761428D02*
X112728571Y-39951904D01*
X112728571Y-39951904D02*
X112776190Y-40047142D01*
X112776190Y-40047142D02*
X112823809Y-40094761D01*
X112823809Y-40094761D02*
X112919047Y-40142380D01*
X112919047Y-40142380D02*
X113014285Y-40142380D01*
X113014285Y-40142380D02*
X113109523Y-40094761D01*
X113109523Y-40094761D02*
X113157142Y-40047142D01*
X113157142Y-40047142D02*
X113204761Y-39951904D01*
X113204761Y-39951904D02*
X113252380Y-39761428D01*
X113252380Y-39761428D02*
X113252380Y-39523333D01*
X113252380Y-39523333D02*
X113204761Y-39332857D01*
X113204761Y-39332857D02*
X113157142Y-39237619D01*
X113157142Y-39237619D02*
X113109523Y-39190000D01*
X113109523Y-39190000D02*
X113014285Y-39142380D01*
%TO.C,TP3*%
X109731904Y-64169380D02*
X109160476Y-64169380D01*
X109446190Y-65169380D02*
X109446190Y-64169380D01*
X108827142Y-65169380D02*
X108827142Y-64169380D01*
X108827142Y-64169380D02*
X108446190Y-64169380D01*
X108446190Y-64169380D02*
X108350952Y-64217000D01*
X108350952Y-64217000D02*
X108303333Y-64264619D01*
X108303333Y-64264619D02*
X108255714Y-64359857D01*
X108255714Y-64359857D02*
X108255714Y-64502714D01*
X108255714Y-64502714D02*
X108303333Y-64597952D01*
X108303333Y-64597952D02*
X108350952Y-64645571D01*
X108350952Y-64645571D02*
X108446190Y-64693190D01*
X108446190Y-64693190D02*
X108827142Y-64693190D01*
X107922380Y-64169380D02*
X107303333Y-64169380D01*
X107303333Y-64169380D02*
X107636666Y-64550333D01*
X107636666Y-64550333D02*
X107493809Y-64550333D01*
X107493809Y-64550333D02*
X107398571Y-64597952D01*
X107398571Y-64597952D02*
X107350952Y-64645571D01*
X107350952Y-64645571D02*
X107303333Y-64740809D01*
X107303333Y-64740809D02*
X107303333Y-64978904D01*
X107303333Y-64978904D02*
X107350952Y-65074142D01*
X107350952Y-65074142D02*
X107398571Y-65121761D01*
X107398571Y-65121761D02*
X107493809Y-65169380D01*
X107493809Y-65169380D02*
X107779523Y-65169380D01*
X107779523Y-65169380D02*
X107874761Y-65121761D01*
X107874761Y-65121761D02*
X107922380Y-65074142D01*
%TO.C,TP1*%
X108531904Y-49693380D02*
X107960476Y-49693380D01*
X108246190Y-50693380D02*
X108246190Y-49693380D01*
X107627142Y-50693380D02*
X107627142Y-49693380D01*
X107627142Y-49693380D02*
X107246190Y-49693380D01*
X107246190Y-49693380D02*
X107150952Y-49741000D01*
X107150952Y-49741000D02*
X107103333Y-49788619D01*
X107103333Y-49788619D02*
X107055714Y-49883857D01*
X107055714Y-49883857D02*
X107055714Y-50026714D01*
X107055714Y-50026714D02*
X107103333Y-50121952D01*
X107103333Y-50121952D02*
X107150952Y-50169571D01*
X107150952Y-50169571D02*
X107246190Y-50217190D01*
X107246190Y-50217190D02*
X107627142Y-50217190D01*
X106103333Y-50693380D02*
X106674761Y-50693380D01*
X106389047Y-50693380D02*
X106389047Y-49693380D01*
X106389047Y-49693380D02*
X106484285Y-49836238D01*
X106484285Y-49836238D02*
X106579523Y-49931476D01*
X106579523Y-49931476D02*
X106674761Y-49979095D01*
%TO.C,C56*%
X103904142Y-48252142D02*
X103951761Y-48204523D01*
X103951761Y-48204523D02*
X103999380Y-48061666D01*
X103999380Y-48061666D02*
X103999380Y-47966428D01*
X103999380Y-47966428D02*
X103951761Y-47823571D01*
X103951761Y-47823571D02*
X103856523Y-47728333D01*
X103856523Y-47728333D02*
X103761285Y-47680714D01*
X103761285Y-47680714D02*
X103570809Y-47633095D01*
X103570809Y-47633095D02*
X103427952Y-47633095D01*
X103427952Y-47633095D02*
X103237476Y-47680714D01*
X103237476Y-47680714D02*
X103142238Y-47728333D01*
X103142238Y-47728333D02*
X103047000Y-47823571D01*
X103047000Y-47823571D02*
X102999380Y-47966428D01*
X102999380Y-47966428D02*
X102999380Y-48061666D01*
X102999380Y-48061666D02*
X103047000Y-48204523D01*
X103047000Y-48204523D02*
X103094619Y-48252142D01*
X102999380Y-49156904D02*
X102999380Y-48680714D01*
X102999380Y-48680714D02*
X103475571Y-48633095D01*
X103475571Y-48633095D02*
X103427952Y-48680714D01*
X103427952Y-48680714D02*
X103380333Y-48775952D01*
X103380333Y-48775952D02*
X103380333Y-49014047D01*
X103380333Y-49014047D02*
X103427952Y-49109285D01*
X103427952Y-49109285D02*
X103475571Y-49156904D01*
X103475571Y-49156904D02*
X103570809Y-49204523D01*
X103570809Y-49204523D02*
X103808904Y-49204523D01*
X103808904Y-49204523D02*
X103904142Y-49156904D01*
X103904142Y-49156904D02*
X103951761Y-49109285D01*
X103951761Y-49109285D02*
X103999380Y-49014047D01*
X103999380Y-49014047D02*
X103999380Y-48775952D01*
X103999380Y-48775952D02*
X103951761Y-48680714D01*
X103951761Y-48680714D02*
X103904142Y-48633095D01*
X102999380Y-50061666D02*
X102999380Y-49871190D01*
X102999380Y-49871190D02*
X103047000Y-49775952D01*
X103047000Y-49775952D02*
X103094619Y-49728333D01*
X103094619Y-49728333D02*
X103237476Y-49633095D01*
X103237476Y-49633095D02*
X103427952Y-49585476D01*
X103427952Y-49585476D02*
X103808904Y-49585476D01*
X103808904Y-49585476D02*
X103904142Y-49633095D01*
X103904142Y-49633095D02*
X103951761Y-49680714D01*
X103951761Y-49680714D02*
X103999380Y-49775952D01*
X103999380Y-49775952D02*
X103999380Y-49966428D01*
X103999380Y-49966428D02*
X103951761Y-50061666D01*
X103951761Y-50061666D02*
X103904142Y-50109285D01*
X103904142Y-50109285D02*
X103808904Y-50156904D01*
X103808904Y-50156904D02*
X103570809Y-50156904D01*
X103570809Y-50156904D02*
X103475571Y-50109285D01*
X103475571Y-50109285D02*
X103427952Y-50061666D01*
X103427952Y-50061666D02*
X103380333Y-49966428D01*
X103380333Y-49966428D02*
X103380333Y-49775952D01*
X103380333Y-49775952D02*
X103427952Y-49680714D01*
X103427952Y-49680714D02*
X103475571Y-49633095D01*
X103475571Y-49633095D02*
X103570809Y-49585476D01*
%TO.C,C60*%
X99840142Y-62984142D02*
X99887761Y-62936523D01*
X99887761Y-62936523D02*
X99935380Y-62793666D01*
X99935380Y-62793666D02*
X99935380Y-62698428D01*
X99935380Y-62698428D02*
X99887761Y-62555571D01*
X99887761Y-62555571D02*
X99792523Y-62460333D01*
X99792523Y-62460333D02*
X99697285Y-62412714D01*
X99697285Y-62412714D02*
X99506809Y-62365095D01*
X99506809Y-62365095D02*
X99363952Y-62365095D01*
X99363952Y-62365095D02*
X99173476Y-62412714D01*
X99173476Y-62412714D02*
X99078238Y-62460333D01*
X99078238Y-62460333D02*
X98983000Y-62555571D01*
X98983000Y-62555571D02*
X98935380Y-62698428D01*
X98935380Y-62698428D02*
X98935380Y-62793666D01*
X98935380Y-62793666D02*
X98983000Y-62936523D01*
X98983000Y-62936523D02*
X99030619Y-62984142D01*
X98935380Y-63841285D02*
X98935380Y-63650809D01*
X98935380Y-63650809D02*
X98983000Y-63555571D01*
X98983000Y-63555571D02*
X99030619Y-63507952D01*
X99030619Y-63507952D02*
X99173476Y-63412714D01*
X99173476Y-63412714D02*
X99363952Y-63365095D01*
X99363952Y-63365095D02*
X99744904Y-63365095D01*
X99744904Y-63365095D02*
X99840142Y-63412714D01*
X99840142Y-63412714D02*
X99887761Y-63460333D01*
X99887761Y-63460333D02*
X99935380Y-63555571D01*
X99935380Y-63555571D02*
X99935380Y-63746047D01*
X99935380Y-63746047D02*
X99887761Y-63841285D01*
X99887761Y-63841285D02*
X99840142Y-63888904D01*
X99840142Y-63888904D02*
X99744904Y-63936523D01*
X99744904Y-63936523D02*
X99506809Y-63936523D01*
X99506809Y-63936523D02*
X99411571Y-63888904D01*
X99411571Y-63888904D02*
X99363952Y-63841285D01*
X99363952Y-63841285D02*
X99316333Y-63746047D01*
X99316333Y-63746047D02*
X99316333Y-63555571D01*
X99316333Y-63555571D02*
X99363952Y-63460333D01*
X99363952Y-63460333D02*
X99411571Y-63412714D01*
X99411571Y-63412714D02*
X99506809Y-63365095D01*
X98935380Y-64555571D02*
X98935380Y-64650809D01*
X98935380Y-64650809D02*
X98983000Y-64746047D01*
X98983000Y-64746047D02*
X99030619Y-64793666D01*
X99030619Y-64793666D02*
X99125857Y-64841285D01*
X99125857Y-64841285D02*
X99316333Y-64888904D01*
X99316333Y-64888904D02*
X99554428Y-64888904D01*
X99554428Y-64888904D02*
X99744904Y-64841285D01*
X99744904Y-64841285D02*
X99840142Y-64793666D01*
X99840142Y-64793666D02*
X99887761Y-64746047D01*
X99887761Y-64746047D02*
X99935380Y-64650809D01*
X99935380Y-64650809D02*
X99935380Y-64555571D01*
X99935380Y-64555571D02*
X99887761Y-64460333D01*
X99887761Y-64460333D02*
X99840142Y-64412714D01*
X99840142Y-64412714D02*
X99744904Y-64365095D01*
X99744904Y-64365095D02*
X99554428Y-64317476D01*
X99554428Y-64317476D02*
X99316333Y-64317476D01*
X99316333Y-64317476D02*
X99125857Y-64365095D01*
X99125857Y-64365095D02*
X99030619Y-64412714D01*
X99030619Y-64412714D02*
X98983000Y-64460333D01*
X98983000Y-64460333D02*
X98935380Y-64555571D01*
%TO.C,TP4*%
X109431904Y-72369380D02*
X108860476Y-72369380D01*
X109146190Y-73369380D02*
X109146190Y-72369380D01*
X108527142Y-73369380D02*
X108527142Y-72369380D01*
X108527142Y-72369380D02*
X108146190Y-72369380D01*
X108146190Y-72369380D02*
X108050952Y-72417000D01*
X108050952Y-72417000D02*
X108003333Y-72464619D01*
X108003333Y-72464619D02*
X107955714Y-72559857D01*
X107955714Y-72559857D02*
X107955714Y-72702714D01*
X107955714Y-72702714D02*
X108003333Y-72797952D01*
X108003333Y-72797952D02*
X108050952Y-72845571D01*
X108050952Y-72845571D02*
X108146190Y-72893190D01*
X108146190Y-72893190D02*
X108527142Y-72893190D01*
X107098571Y-72702714D02*
X107098571Y-73369380D01*
X107336666Y-72321761D02*
X107574761Y-73036047D01*
X107574761Y-73036047D02*
X106955714Y-73036047D01*
D13*
%TO.C,J1*%
X60011000Y-41977000D02*
X60011000Y-85277000D01*
X60011000Y-41977000D02*
X62611000Y-41977000D01*
X60011000Y-85277000D02*
X65211000Y-85277000D01*
X62611000Y-41977000D02*
X62611000Y-44577000D01*
X62611000Y-44577000D02*
X65211000Y-44577000D01*
X63881000Y-41977000D02*
X65211000Y-41977000D01*
X65211000Y-41977000D02*
X65211000Y-43307000D01*
X65211000Y-44577000D02*
X65211000Y-85277000D01*
%TO.C,C1*%
X110987198Y-74135000D02*
X110987198Y-74935000D01*
X111387198Y-74535000D02*
X110587198Y-74535000D01*
X115068802Y-80915000D02*
X115068802Y-72755000D01*
X115108802Y-80915000D02*
X115108802Y-72755000D01*
X115148802Y-80915000D02*
X115148802Y-72755000D01*
X115188802Y-80914000D02*
X115188802Y-72756000D01*
X115228802Y-80912000D02*
X115228802Y-72758000D01*
X115268802Y-80911000D02*
X115268802Y-72759000D01*
X115308802Y-80909000D02*
X115308802Y-72761000D01*
X115348802Y-80906000D02*
X115348802Y-72764000D01*
X115388802Y-80903000D02*
X115388802Y-72767000D01*
X115428802Y-80900000D02*
X115428802Y-72770000D01*
X115468802Y-80896000D02*
X115468802Y-72774000D01*
X115508802Y-80892000D02*
X115508802Y-72778000D01*
X115548802Y-80887000D02*
X115548802Y-72783000D01*
X115588802Y-80883000D02*
X115588802Y-72787000D01*
X115628802Y-80877000D02*
X115628802Y-72793000D01*
X115668802Y-80872000D02*
X115668802Y-72798000D01*
X115708802Y-80865000D02*
X115708802Y-72805000D01*
X115748802Y-80859000D02*
X115748802Y-72811000D01*
X115789802Y-80852000D02*
X115789802Y-72818000D01*
X115829802Y-80845000D02*
X115829802Y-72825000D01*
X115869802Y-80837000D02*
X115869802Y-72833000D01*
X115909802Y-80829000D02*
X115909802Y-72841000D01*
X115949802Y-80820000D02*
X115949802Y-72850000D01*
X115989802Y-80811000D02*
X115989802Y-72859000D01*
X116029802Y-80802000D02*
X116029802Y-72868000D01*
X116069802Y-80792000D02*
X116069802Y-72878000D01*
X116109802Y-80782000D02*
X116109802Y-72888000D01*
X116149802Y-80771000D02*
X116149802Y-72899000D01*
X116189802Y-80760000D02*
X116189802Y-72910000D01*
X116229802Y-80749000D02*
X116229802Y-72921000D01*
X116269802Y-80737000D02*
X116269802Y-72933000D01*
X116309802Y-80724000D02*
X116309802Y-72946000D01*
X116349802Y-80712000D02*
X116349802Y-72958000D01*
X116389802Y-80698000D02*
X116389802Y-72972000D01*
X116429802Y-80685000D02*
X116429802Y-72985000D01*
X116469802Y-80670000D02*
X116469802Y-73000000D01*
X116509802Y-80656000D02*
X116509802Y-73014000D01*
X116549802Y-75795000D02*
X116549802Y-73030000D01*
X116549802Y-80640000D02*
X116549802Y-77875000D01*
X116589802Y-75795000D02*
X116589802Y-73045000D01*
X116589802Y-80625000D02*
X116589802Y-77875000D01*
X116629802Y-75795000D02*
X116629802Y-73061000D01*
X116629802Y-80609000D02*
X116629802Y-77875000D01*
X116669802Y-75795000D02*
X116669802Y-73078000D01*
X116669802Y-80592000D02*
X116669802Y-77875000D01*
X116709802Y-75795000D02*
X116709802Y-73095000D01*
X116709802Y-80575000D02*
X116709802Y-77875000D01*
X116749802Y-75795000D02*
X116749802Y-73113000D01*
X116749802Y-80557000D02*
X116749802Y-77875000D01*
X116789802Y-75795000D02*
X116789802Y-73131000D01*
X116789802Y-80539000D02*
X116789802Y-77875000D01*
X116829802Y-75795000D02*
X116829802Y-73149000D01*
X116829802Y-80521000D02*
X116829802Y-77875000D01*
X116869802Y-75795000D02*
X116869802Y-73169000D01*
X116869802Y-80501000D02*
X116869802Y-77875000D01*
X116909802Y-75795000D02*
X116909802Y-73188000D01*
X116909802Y-80482000D02*
X116909802Y-77875000D01*
X116949802Y-75795000D02*
X116949802Y-73208000D01*
X116949802Y-80462000D02*
X116949802Y-77875000D01*
X116989802Y-75795000D02*
X116989802Y-73229000D01*
X116989802Y-80441000D02*
X116989802Y-77875000D01*
X117029802Y-75795000D02*
X117029802Y-73251000D01*
X117029802Y-80419000D02*
X117029802Y-77875000D01*
X117069802Y-75795000D02*
X117069802Y-73273000D01*
X117069802Y-80397000D02*
X117069802Y-77875000D01*
X117109802Y-75795000D02*
X117109802Y-73295000D01*
X117109802Y-80375000D02*
X117109802Y-77875000D01*
X117149802Y-75795000D02*
X117149802Y-73318000D01*
X117149802Y-80352000D02*
X117149802Y-77875000D01*
X117189802Y-75795000D02*
X117189802Y-73342000D01*
X117189802Y-80328000D02*
X117189802Y-77875000D01*
X117229802Y-75795000D02*
X117229802Y-73366000D01*
X117229802Y-80304000D02*
X117229802Y-77875000D01*
X117269802Y-75795000D02*
X117269802Y-73391000D01*
X117269802Y-80279000D02*
X117269802Y-77875000D01*
X117309802Y-75795000D02*
X117309802Y-73417000D01*
X117309802Y-80253000D02*
X117309802Y-77875000D01*
X117349802Y-75795000D02*
X117349802Y-73443000D01*
X117349802Y-80227000D02*
X117349802Y-77875000D01*
X117389802Y-75795000D02*
X117389802Y-73470000D01*
X117389802Y-80200000D02*
X117389802Y-77875000D01*
X117429802Y-75795000D02*
X117429802Y-73497000D01*
X117429802Y-80173000D02*
X117429802Y-77875000D01*
X117469802Y-75795000D02*
X117469802Y-73526000D01*
X117469802Y-80144000D02*
X117469802Y-77875000D01*
X117509802Y-75795000D02*
X117509802Y-73555000D01*
X117509802Y-80115000D02*
X117509802Y-77875000D01*
X117549802Y-75795000D02*
X117549802Y-73585000D01*
X117549802Y-80085000D02*
X117549802Y-77875000D01*
X117589802Y-75795000D02*
X117589802Y-73615000D01*
X117589802Y-80055000D02*
X117589802Y-77875000D01*
X117629802Y-75795000D02*
X117629802Y-73646000D01*
X117629802Y-80024000D02*
X117629802Y-77875000D01*
X117669802Y-75795000D02*
X117669802Y-73679000D01*
X117669802Y-79991000D02*
X117669802Y-77875000D01*
X117709802Y-75795000D02*
X117709802Y-73711000D01*
X117709802Y-79959000D02*
X117709802Y-77875000D01*
X117749802Y-75795000D02*
X117749802Y-73745000D01*
X117749802Y-79925000D02*
X117749802Y-77875000D01*
X117789802Y-75795000D02*
X117789802Y-73780000D01*
X117789802Y-79890000D02*
X117789802Y-77875000D01*
X117829802Y-75795000D02*
X117829802Y-73816000D01*
X117829802Y-79854000D02*
X117829802Y-77875000D01*
X117869802Y-75795000D02*
X117869802Y-73852000D01*
X117869802Y-79818000D02*
X117869802Y-77875000D01*
X117909802Y-75795000D02*
X117909802Y-73890000D01*
X117909802Y-79780000D02*
X117909802Y-77875000D01*
X117949802Y-75795000D02*
X117949802Y-73928000D01*
X117949802Y-79742000D02*
X117949802Y-77875000D01*
X117989802Y-75795000D02*
X117989802Y-73968000D01*
X117989802Y-79702000D02*
X117989802Y-77875000D01*
X118029802Y-75795000D02*
X118029802Y-74009000D01*
X118029802Y-79661000D02*
X118029802Y-77875000D01*
X118069802Y-75795000D02*
X118069802Y-74051000D01*
X118069802Y-79619000D02*
X118069802Y-77875000D01*
X118109802Y-75795000D02*
X118109802Y-74094000D01*
X118109802Y-79576000D02*
X118109802Y-77875000D01*
X118149802Y-75795000D02*
X118149802Y-74138000D01*
X118149802Y-79532000D02*
X118149802Y-77875000D01*
X118189802Y-75795000D02*
X118189802Y-74184000D01*
X118189802Y-79486000D02*
X118189802Y-77875000D01*
X118229802Y-75795000D02*
X118229802Y-74231000D01*
X118229802Y-79439000D02*
X118229802Y-77875000D01*
X118269802Y-75795000D02*
X118269802Y-74279000D01*
X118269802Y-79391000D02*
X118269802Y-77875000D01*
X118309802Y-75795000D02*
X118309802Y-74330000D01*
X118309802Y-79340000D02*
X118309802Y-77875000D01*
X118349802Y-75795000D02*
X118349802Y-74381000D01*
X118349802Y-79289000D02*
X118349802Y-77875000D01*
X118389802Y-75795000D02*
X118389802Y-74435000D01*
X118389802Y-79235000D02*
X118389802Y-77875000D01*
X118429802Y-75795000D02*
X118429802Y-74490000D01*
X118429802Y-79180000D02*
X118429802Y-77875000D01*
X118469802Y-75795000D02*
X118469802Y-74548000D01*
X118469802Y-79122000D02*
X118469802Y-77875000D01*
X118509802Y-75795000D02*
X118509802Y-74607000D01*
X118509802Y-79063000D02*
X118509802Y-77875000D01*
X118549802Y-75795000D02*
X118549802Y-74669000D01*
X118549802Y-79001000D02*
X118549802Y-77875000D01*
X118589802Y-75795000D02*
X118589802Y-74733000D01*
X118589802Y-78937000D02*
X118589802Y-77875000D01*
X118629802Y-78869000D02*
X118629802Y-74801000D01*
X118669802Y-78799000D02*
X118669802Y-74871000D01*
X118709802Y-78725000D02*
X118709802Y-74945000D01*
X118749802Y-78648000D02*
X118749802Y-75022000D01*
X118789802Y-78566000D02*
X118789802Y-75104000D01*
X118829802Y-78480000D02*
X118829802Y-75190000D01*
X118869802Y-78387000D02*
X118869802Y-75283000D01*
X118909802Y-78288000D02*
X118909802Y-75382000D01*
X118949802Y-78181000D02*
X118949802Y-75489000D01*
X118989802Y-78064000D02*
X118989802Y-75606000D01*
X119029802Y-77933000D02*
X119029802Y-75737000D01*
X119069802Y-77783000D02*
X119069802Y-75887000D01*
X119109802Y-77603000D02*
X119109802Y-76067000D01*
X119149802Y-77368000D02*
X119149802Y-76302000D01*
X119188802Y-76835000D02*
G75*
G03*
X119188802Y-76835000I-4120000J0D01*
G01*
%TO.C,C55*%
X102335000Y-51808748D02*
X102335000Y-52331252D01*
X100865000Y-51808748D02*
X100865000Y-52331252D01*
%TO.C,C63*%
X100303000Y-73906748D02*
X100303000Y-74429252D01*
X98833000Y-73906748D02*
X98833000Y-74429252D01*
%TO.C,C61*%
X102335000Y-66540748D02*
X102335000Y-67063252D01*
X100865000Y-66540748D02*
X100865000Y-67063252D01*
%TO.C,C58*%
X102335000Y-59174748D02*
X102335000Y-59697252D01*
X100865000Y-59174748D02*
X100865000Y-59697252D01*
%TO.C,C54*%
X100303000Y-51808748D02*
X100303000Y-52331252D01*
X98833000Y-51808748D02*
X98833000Y-52331252D01*
%TO.C,C57*%
X100303000Y-59174748D02*
X100303000Y-59697252D01*
X98833000Y-59174748D02*
X98833000Y-59697252D01*
%TO.C,C62*%
X104367000Y-66540748D02*
X104367000Y-67063252D01*
X102897000Y-66540748D02*
X102897000Y-67063252D01*
%TO.C,J6*%
X106295000Y-34670000D02*
X106295000Y-37330000D01*
X103695000Y-34670000D02*
X106295000Y-34670000D01*
X103695000Y-34670000D02*
X103695000Y-37330000D01*
X102425000Y-34670000D02*
X101095000Y-34670000D01*
X101095000Y-34670000D02*
X101095000Y-36000000D01*
X103695000Y-37330000D02*
X106295000Y-37330000D01*
%TO.C,C65*%
X104367000Y-73906748D02*
X104367000Y-74429252D01*
X102897000Y-73906748D02*
X102897000Y-74429252D01*
%TO.C,RV1*%
X108876000Y-76276252D02*
X108876000Y-74853748D01*
X111596000Y-76276252D02*
X111596000Y-74853748D01*
%TO.C,C59*%
X104367000Y-59174748D02*
X104367000Y-59697252D01*
X102897000Y-59174748D02*
X102897000Y-59697252D01*
%TO.C,C64*%
X102335000Y-73906748D02*
X102335000Y-74429252D01*
X100865000Y-73906748D02*
X100865000Y-74429252D01*
%TO.C,TP2*%
X109670000Y-58600000D02*
G75*
G03*
X109670000Y-58600000I-1200000J0D01*
G01*
%TO.C,TP5*%
X109404000Y-55372000D02*
G75*
G03*
X109404000Y-55372000I-1200000J0D01*
G01*
%TO.C,J100*%
X116900000Y-71815000D02*
X111700000Y-71815000D01*
X116900000Y-41215000D02*
X116900000Y-71815000D01*
X116900000Y-41215000D02*
X114300000Y-41215000D01*
X114300000Y-43815000D02*
X111700000Y-43815000D01*
X114300000Y-41215000D02*
X114300000Y-43815000D01*
X113030000Y-41215000D02*
X111700000Y-41215000D01*
X111700000Y-43815000D02*
X111700000Y-71815000D01*
X111700000Y-41215000D02*
X111700000Y-42545000D01*
%TO.C,TP3*%
X109670000Y-66800000D02*
G75*
G03*
X109670000Y-66800000I-1200000J0D01*
G01*
%TO.C,TP1*%
X108470000Y-52324000D02*
G75*
G03*
X108470000Y-52324000I-1200000J0D01*
G01*
%TO.C,C56*%
X104367000Y-51808748D02*
X104367000Y-52331252D01*
X102897000Y-51808748D02*
X102897000Y-52331252D01*
%TO.C,C60*%
X100303000Y-66540748D02*
X100303000Y-67063252D01*
X98833000Y-66540748D02*
X98833000Y-67063252D01*
%TO.C,TP4*%
X109370000Y-75000000D02*
G75*
G03*
X109370000Y-75000000I-1200000J0D01*
G01*
%TD*%
%LPC*%
D14*
%TO.C,H2*%
X83700000Y-43815000D03*
X84293109Y-42383109D03*
X84293109Y-45246891D03*
X85725000Y-41790000D03*
D15*
X85725000Y-43815000D03*
D14*
X85725000Y-45840000D03*
X87156891Y-42383109D03*
X87156891Y-45246891D03*
X87750000Y-43815000D03*
%TD*%
%TO.C,H1*%
X105290000Y-43815000D03*
X105883109Y-42383109D03*
X105883109Y-45246891D03*
X107315000Y-41790000D03*
D15*
X107315000Y-43815000D03*
D14*
X107315000Y-45840000D03*
X108746891Y-42383109D03*
X108746891Y-45246891D03*
X109340000Y-43815000D03*
%TD*%
D16*
%TO.C,J1*%
X63880999Y-43306999D03*
D17*
X61340999Y-43306999D03*
X63880999Y-45846999D03*
X61340999Y-45846999D03*
X63880999Y-48386999D03*
X61340999Y-48386999D03*
X63880999Y-50926999D03*
X61340999Y-50926999D03*
X63880999Y-53466999D03*
X61340999Y-53466999D03*
X63880999Y-56006999D03*
X61340999Y-56006999D03*
X63880999Y-58546999D03*
X61340999Y-58546999D03*
X63880999Y-61086999D03*
X61340999Y-61086999D03*
X63880999Y-63626999D03*
X61340999Y-63626999D03*
X63880999Y-66166999D03*
X61340999Y-66166999D03*
X63880999Y-68706999D03*
X61340999Y-68706999D03*
X63880999Y-71246999D03*
X61340999Y-71246999D03*
X63880999Y-73786999D03*
X61340999Y-73786999D03*
X63880999Y-76326999D03*
X61340999Y-76326999D03*
X63880999Y-78866999D03*
X61340999Y-78866999D03*
X63880999Y-81406999D03*
X61340999Y-81406999D03*
X63880999Y-83946999D03*
X61340999Y-83946999D03*
%TD*%
D18*
%TO.C,J2*%
X114300000Y-43815000D03*
D19*
X114299999Y-48894999D03*
X114299999Y-53974999D03*
X114299999Y-59054999D03*
X114299999Y-64134999D03*
X114299999Y-69214999D03*
%TD*%
D20*
%TO.C,U7*%
X96950001Y-43050000D03*
X96950001Y-42370001D03*
D21*
X94890000Y-43319999D03*
X95710001Y-43319999D03*
X94750001Y-42370001D03*
X95250000Y-42370001D03*
X95750001Y-42370001D03*
D22*
X98530001Y-44100000D03*
X97530000Y-44100000D03*
D21*
X96530000Y-44100000D03*
X95529999Y-44100000D03*
X94530001Y-44100000D03*
%TD*%
D16*
%TO.C,REF\u002A\u002A*%
X80771999Y-42544999D03*
D17*
X78231999Y-42544999D03*
X80771999Y-45084999D03*
X78231999Y-45084999D03*
X80771999Y-47624999D03*
X78231999Y-47624999D03*
X80771999Y-50164999D03*
X78231999Y-50164999D03*
X80771999Y-52704999D03*
X78231999Y-52704999D03*
X80771999Y-55244999D03*
X78231999Y-55244999D03*
X80771999Y-57784999D03*
X78231999Y-57784999D03*
X80771999Y-60324999D03*
X78231999Y-60324999D03*
X80771999Y-62864999D03*
X78231999Y-62864999D03*
X80771999Y-65404999D03*
X78231999Y-65404999D03*
X80771999Y-67944999D03*
X78231999Y-67944999D03*
X80771999Y-70484999D03*
X78231999Y-70484999D03*
X80771999Y-73024999D03*
X78231999Y-73024999D03*
X80771999Y-75564999D03*
X78231999Y-75564999D03*
X80771999Y-78104999D03*
X78231999Y-78104999D03*
X80771999Y-80644999D03*
X78231999Y-80644999D03*
X80771999Y-83184999D03*
X78231999Y-83184999D03*
X80771999Y-85724999D03*
X78231999Y-85724999D03*
X80771999Y-88264999D03*
X78231999Y-88264999D03*
X80771999Y-90804999D03*
X78231999Y-90804999D03*
%TD*%
D14*
%TO.C,H4*%
X83700000Y-81915000D03*
X84293109Y-80483109D03*
X84293109Y-83346891D03*
X85725000Y-79890000D03*
D15*
X85725000Y-81915000D03*
D14*
X85725000Y-83940000D03*
X87156891Y-80483109D03*
X87156891Y-83346891D03*
X87750000Y-81915000D03*
%TD*%
D23*
%TO.C,C1*%
X112567801Y-76834999D03*
D24*
X117567802Y-76835000D03*
%TD*%
D14*
%TO.C,H3*%
X105290000Y-81915000D03*
X105883109Y-80483109D03*
X105883109Y-83346891D03*
X107315000Y-79890000D03*
D15*
X107315000Y-81915000D03*
D14*
X107315000Y-83940000D03*
X108746891Y-80483109D03*
X108746891Y-83346891D03*
X109340000Y-81915000D03*
%TD*%
D25*
%TO.C,C55*%
X101600000Y-51120000D03*
X101600000Y-53020000D03*
%TD*%
%TO.C,C63*%
X99568000Y-73218000D03*
X99568000Y-75118000D03*
%TD*%
%TO.C,C61*%
X101600000Y-65852000D03*
X101600000Y-67752000D03*
%TD*%
%TO.C,C58*%
X101600000Y-58486000D03*
X101600000Y-60386000D03*
%TD*%
%TO.C,C54*%
X99568000Y-51120000D03*
X99568000Y-53020000D03*
%TD*%
%TO.C,C57*%
X99568000Y-58486000D03*
X99568000Y-60386000D03*
%TD*%
%TO.C,C62*%
X103632000Y-65852000D03*
X103632000Y-67752000D03*
%TD*%
D16*
%TO.C,J6*%
X102424999Y-35999999D03*
D17*
X104964999Y-35999999D03*
%TD*%
D25*
%TO.C,C65*%
X103632000Y-73218000D03*
X103632000Y-75118000D03*
%TD*%
D26*
%TO.C,RV1*%
X110236000Y-77040000D03*
X110236000Y-74090000D03*
%TD*%
D25*
%TO.C,C59*%
X103632000Y-58486000D03*
X103632000Y-60386000D03*
%TD*%
%TO.C,C64*%
X101600000Y-73218000D03*
X101600000Y-75118000D03*
%TD*%
D27*
%TO.C,TP2*%
X108470000Y-58600000D03*
%TD*%
%TO.C,TP5*%
X108204000Y-55372000D03*
%TD*%
D16*
%TO.C,J100*%
X113029999Y-42544999D03*
D17*
X115569999Y-42544999D03*
X113029999Y-45084999D03*
X115569999Y-45084999D03*
X113029999Y-47624999D03*
X115569999Y-47624999D03*
X113029999Y-50164999D03*
X115569999Y-50164999D03*
X113029999Y-52704999D03*
X115569999Y-52704999D03*
X113029999Y-55244999D03*
X115569999Y-55244999D03*
X113029999Y-57784999D03*
X115569999Y-57784999D03*
X113029999Y-60324999D03*
X115569999Y-60324999D03*
X113029999Y-62864999D03*
X115569999Y-62864999D03*
X113029999Y-65404999D03*
X115569999Y-65404999D03*
X113029999Y-67944999D03*
X115569999Y-67944999D03*
X113029999Y-70484999D03*
X115569999Y-70484999D03*
%TD*%
D27*
%TO.C,TP3*%
X108470000Y-66800000D03*
%TD*%
%TO.C,TP1*%
X107270000Y-52324000D03*
%TD*%
D25*
%TO.C,C56*%
X103632000Y-51120000D03*
X103632000Y-53020000D03*
%TD*%
%TO.C,C60*%
X99568000Y-65852000D03*
X99568000Y-67752000D03*
%TD*%
D27*
%TO.C,TP4*%
X108170000Y-75000000D03*
%TD*%
M02*
