%TF.GenerationSoftware,KiCad,Pcbnew,(7.0.0)*%
%TF.CreationDate,2023-11-18T15:32:53-05:00*%
%TF.ProjectId,ECE4760 Motor Driver,45434534-3736-4302-904d-6f746f722044,0*%
%TF.SameCoordinates,Original*%
%TF.FileFunction,Legend,Top*%
%TF.FilePolarity,Positive*%
%FSLAX46Y46*%
G04 Gerber Fmt 4.6, Leading zero omitted, Abs format (unit mm)*
G04 Created by KiCad (PCBNEW (7.0.0)) date 2023-11-18 15:32:53*
%MOMM*%
%LPD*%
G01*
G04 APERTURE LIST*
G04 Aperture macros list*
%AMRoundRect*
0 Rectangle with rounded corners*
0 $1 Rounding radius*
0 $2 $3 $4 $5 $6 $7 $8 $9 X,Y pos of 4 corners*
0 Add a 4 corners polygon primitive as box body*
4,1,4,$2,$3,$4,$5,$6,$7,$8,$9,$2,$3,0*
0 Add four circle primitives for the rounded corners*
1,1,$1+$1,$2,$3*
1,1,$1+$1,$4,$5*
1,1,$1+$1,$6,$7*
1,1,$1+$1,$8,$9*
0 Add four rect primitives between the rounded corners*
20,1,$1+$1,$2,$3,$4,$5,0*
20,1,$1+$1,$4,$5,$6,$7,0*
20,1,$1+$1,$6,$7,$8,$9,0*
20,1,$1+$1,$8,$9,$2,$3,0*%
%AMRotRect*
0 Rectangle, with rotation*
0 The origin of the aperture is its center*
0 $1 length*
0 $2 width*
0 $3 Rotation angle, in degrees counterclockwise*
0 Add horizontal line*
21,1,$1,$2,0,0,$3*%
G04 Aperture macros list end*
%ADD10C,0.150000*%
%ADD11C,0.200000*%
%ADD12C,0.120000*%
%ADD13C,0.127000*%
%ADD14C,0.250000*%
%ADD15C,0.313500*%
%ADD16RoundRect,0.135000X-0.135000X-0.185000X0.135000X-0.185000X0.135000X0.185000X-0.135000X0.185000X0*%
%ADD17RoundRect,0.140000X-0.140000X-0.170000X0.140000X-0.170000X0.140000X0.170000X-0.140000X0.170000X0*%
%ADD18C,0.800000*%
%ADD19C,5.400000*%
%ADD20RoundRect,0.135000X0.185000X-0.135000X0.185000X0.135000X-0.185000X0.135000X-0.185000X-0.135000X0*%
%ADD21R,0.800000X1.070000*%
%ADD22RotRect,0.282800X0.282800X315.000000*%
%ADD23R,0.600000X0.200000*%
%ADD24R,0.850000X0.300000*%
%ADD25R,0.300000X0.800000*%
%ADD26R,0.300000X0.850000*%
%ADD27RoundRect,0.140000X0.140000X0.170000X-0.140000X0.170000X-0.140000X-0.170000X0.140000X-0.170000X0*%
%ADD28RoundRect,0.250000X0.375000X0.625000X-0.375000X0.625000X-0.375000X-0.625000X0.375000X-0.625000X0*%
%ADD29RoundRect,0.140000X0.170000X-0.140000X0.170000X0.140000X-0.170000X0.140000X-0.170000X-0.140000X0*%
%ADD30RoundRect,0.135000X-0.185000X0.135000X-0.185000X-0.135000X0.185000X-0.135000X0.185000X0.135000X0*%
%ADD31RoundRect,0.225000X0.250000X-0.225000X0.250000X0.225000X-0.250000X0.225000X-0.250000X-0.225000X0*%
%ADD32R,0.400000X0.650000*%
%ADD33RoundRect,0.225000X-0.250000X0.225000X-0.250000X-0.225000X0.250000X-0.225000X0.250000X0.225000X0*%
%ADD34RoundRect,0.225000X-0.225000X-0.250000X0.225000X-0.250000X0.225000X0.250000X-0.225000X0.250000X0*%
%ADD35RoundRect,0.140000X-0.170000X0.140000X-0.170000X-0.140000X0.170000X-0.140000X0.170000X0.140000X0*%
%ADD36RoundRect,0.225000X0.225000X0.250000X-0.225000X0.250000X-0.225000X-0.250000X0.225000X-0.250000X0*%
%ADD37RoundRect,0.135000X0.135000X0.185000X-0.135000X0.185000X-0.135000X-0.185000X0.135000X-0.185000X0*%
%ADD38RoundRect,0.250000X0.325000X1.100000X-0.325000X1.100000X-0.325000X-1.100000X0.325000X-1.100000X0*%
%ADD39R,1.700000X1.700000*%
%ADD40O,1.700000X1.700000*%
%ADD41RoundRect,0.250000X-1.550000X0.650000X-1.550000X-0.650000X1.550000X-0.650000X1.550000X0.650000X0*%
%ADD42O,3.600000X1.800000*%
%ADD43RoundRect,0.250000X-0.475000X0.250000X-0.475000X-0.250000X0.475000X-0.250000X0.475000X0.250000X0*%
%ADD44RoundRect,0.142500X-0.092500X0.457500X-0.092500X-0.457500X0.092500X-0.457500X0.092500X0.457500X0*%
%ADD45RoundRect,0.112500X-0.062500X0.487500X-0.062500X-0.487500X0.062500X-0.487500X0.062500X0.487500X0*%
%ADD46RoundRect,0.112500X-0.337500X0.062500X-0.337500X-0.062500X0.337500X-0.062500X0.337500X0.062500X0*%
%ADD47RoundRect,0.075000X-0.685000X0.075000X-0.685000X-0.075000X0.685000X-0.075000X0.685000X0.075000X0*%
%ADD48RoundRect,0.200000X-0.250000X0.200000X-0.250000X-0.200000X0.250000X-0.200000X0.250000X0.200000X0*%
%ADD49RoundRect,0.250000X-0.671751X-1.449569X1.449569X0.671751X0.671751X1.449569X-1.449569X-0.671751X0*%
%ADD50RoundRect,0.062500X0.062500X-0.362500X0.062500X0.362500X-0.062500X0.362500X-0.062500X-0.362500X0*%
%ADD51R,2.380000X1.650000*%
%ADD52C,0.540000*%
G04 APERTURE END LIST*
D10*
X95132619Y-81399999D02*
X95608809Y-81066666D01*
X95132619Y-80828571D02*
X96132619Y-80828571D01*
X96132619Y-80828571D02*
X96132619Y-81209523D01*
X96132619Y-81209523D02*
X96085000Y-81304761D01*
X96085000Y-81304761D02*
X96037380Y-81352380D01*
X96037380Y-81352380D02*
X95942142Y-81399999D01*
X95942142Y-81399999D02*
X95799285Y-81399999D01*
X95799285Y-81399999D02*
X95704047Y-81352380D01*
X95704047Y-81352380D02*
X95656428Y-81304761D01*
X95656428Y-81304761D02*
X95608809Y-81209523D01*
X95608809Y-81209523D02*
X95608809Y-80828571D01*
X95132619Y-81733333D02*
X95799285Y-82257142D01*
X95799285Y-81733333D02*
X95132619Y-82257142D01*
X94585000Y-80352380D02*
X94632619Y-80257142D01*
X94632619Y-80257142D02*
X94632619Y-80114285D01*
X94632619Y-80114285D02*
X94585000Y-79971428D01*
X94585000Y-79971428D02*
X94489761Y-79876190D01*
X94489761Y-79876190D02*
X94394523Y-79828571D01*
X94394523Y-79828571D02*
X94204047Y-79780952D01*
X94204047Y-79780952D02*
X94061190Y-79780952D01*
X94061190Y-79780952D02*
X93870714Y-79828571D01*
X93870714Y-79828571D02*
X93775476Y-79876190D01*
X93775476Y-79876190D02*
X93680238Y-79971428D01*
X93680238Y-79971428D02*
X93632619Y-80114285D01*
X93632619Y-80114285D02*
X93632619Y-80209523D01*
X93632619Y-80209523D02*
X93680238Y-80352380D01*
X93680238Y-80352380D02*
X93727857Y-80399999D01*
X93727857Y-80399999D02*
X94061190Y-80399999D01*
X94061190Y-80399999D02*
X94061190Y-80209523D01*
X94299285Y-80828571D02*
X93632619Y-80828571D01*
X94204047Y-80828571D02*
X94251666Y-80876190D01*
X94251666Y-80876190D02*
X94299285Y-80971428D01*
X94299285Y-80971428D02*
X94299285Y-81114285D01*
X94299285Y-81114285D02*
X94251666Y-81209523D01*
X94251666Y-81209523D02*
X94156428Y-81257142D01*
X94156428Y-81257142D02*
X93632619Y-81257142D01*
X93632619Y-82161904D02*
X94632619Y-82161904D01*
X93680238Y-82161904D02*
X93632619Y-82066666D01*
X93632619Y-82066666D02*
X93632619Y-81876190D01*
X93632619Y-81876190D02*
X93680238Y-81780952D01*
X93680238Y-81780952D02*
X93727857Y-81733333D01*
X93727857Y-81733333D02*
X93823095Y-81685714D01*
X93823095Y-81685714D02*
X94108809Y-81685714D01*
X94108809Y-81685714D02*
X94204047Y-81733333D01*
X94204047Y-81733333D02*
X94251666Y-81780952D01*
X94251666Y-81780952D02*
X94299285Y-81876190D01*
X94299285Y-81876190D02*
X94299285Y-82066666D01*
X94299285Y-82066666D02*
X94251666Y-82161904D01*
X92180238Y-79495238D02*
X92132619Y-79638095D01*
X92132619Y-79638095D02*
X92132619Y-79876190D01*
X92132619Y-79876190D02*
X92180238Y-79971428D01*
X92180238Y-79971428D02*
X92227857Y-80019047D01*
X92227857Y-80019047D02*
X92323095Y-80066666D01*
X92323095Y-80066666D02*
X92418333Y-80066666D01*
X92418333Y-80066666D02*
X92513571Y-80019047D01*
X92513571Y-80019047D02*
X92561190Y-79971428D01*
X92561190Y-79971428D02*
X92608809Y-79876190D01*
X92608809Y-79876190D02*
X92656428Y-79685714D01*
X92656428Y-79685714D02*
X92704047Y-79590476D01*
X92704047Y-79590476D02*
X92751666Y-79542857D01*
X92751666Y-79542857D02*
X92846904Y-79495238D01*
X92846904Y-79495238D02*
X92942142Y-79495238D01*
X92942142Y-79495238D02*
X93037380Y-79542857D01*
X93037380Y-79542857D02*
X93085000Y-79590476D01*
X93085000Y-79590476D02*
X93132619Y-79685714D01*
X93132619Y-79685714D02*
X93132619Y-79923809D01*
X93132619Y-79923809D02*
X93085000Y-80066666D01*
X93132619Y-80400000D02*
X92132619Y-80638095D01*
X92132619Y-80638095D02*
X92846904Y-80828571D01*
X92846904Y-80828571D02*
X92132619Y-81019047D01*
X92132619Y-81019047D02*
X93132619Y-81257143D01*
X92227857Y-82209523D02*
X92180238Y-82161904D01*
X92180238Y-82161904D02*
X92132619Y-82019047D01*
X92132619Y-82019047D02*
X92132619Y-81923809D01*
X92132619Y-81923809D02*
X92180238Y-81780952D01*
X92180238Y-81780952D02*
X92275476Y-81685714D01*
X92275476Y-81685714D02*
X92370714Y-81638095D01*
X92370714Y-81638095D02*
X92561190Y-81590476D01*
X92561190Y-81590476D02*
X92704047Y-81590476D01*
X92704047Y-81590476D02*
X92894523Y-81638095D01*
X92894523Y-81638095D02*
X92989761Y-81685714D01*
X92989761Y-81685714D02*
X93085000Y-81780952D01*
X93085000Y-81780952D02*
X93132619Y-81923809D01*
X93132619Y-81923809D02*
X93132619Y-82019047D01*
X93132619Y-82019047D02*
X93085000Y-82161904D01*
X93085000Y-82161904D02*
X93037380Y-82209523D01*
D11*
X116617761Y-54689285D02*
X119284428Y-54689285D01*
X117284428Y-54832142D02*
X117284428Y-54546428D01*
X117284428Y-54546428D02*
X117379666Y-54403571D01*
X117379666Y-54403571D02*
X117570142Y-54260714D01*
X117570142Y-54260714D02*
X117760619Y-54189285D01*
X117760619Y-54189285D02*
X118141571Y-54189285D01*
X118141571Y-54189285D02*
X118332047Y-54260714D01*
X118332047Y-54260714D02*
X118522523Y-54403571D01*
X118522523Y-54403571D02*
X118617761Y-54546428D01*
X118617761Y-54546428D02*
X118617761Y-54832142D01*
X118617761Y-54832142D02*
X118522523Y-54975000D01*
X118522523Y-54975000D02*
X118332047Y-55117857D01*
X118332047Y-55117857D02*
X118141571Y-55189285D01*
X118141571Y-55189285D02*
X117760619Y-55189285D01*
X117760619Y-55189285D02*
X117570142Y-55117857D01*
X117570142Y-55117857D02*
X117379666Y-54975000D01*
X117379666Y-54975000D02*
X117284428Y-54832142D01*
X118617761Y-52760713D02*
X118617761Y-53617856D01*
X118617761Y-53189285D02*
X116617761Y-53189285D01*
X116617761Y-53189285D02*
X116903476Y-53332142D01*
X116903476Y-53332142D02*
X117093952Y-53474999D01*
X117093952Y-53474999D02*
X117189190Y-53617856D01*
X117538428Y-44886428D02*
X118871761Y-44886428D01*
X116776523Y-45243570D02*
X118205095Y-45600713D01*
X118205095Y-45600713D02*
X118205095Y-44672142D01*
X117728904Y-43886428D02*
X117633666Y-44029285D01*
X117633666Y-44029285D02*
X117538428Y-44100714D01*
X117538428Y-44100714D02*
X117347952Y-44172142D01*
X117347952Y-44172142D02*
X117252714Y-44172142D01*
X117252714Y-44172142D02*
X117062238Y-44100714D01*
X117062238Y-44100714D02*
X116967000Y-44029285D01*
X116967000Y-44029285D02*
X116871761Y-43886428D01*
X116871761Y-43886428D02*
X116871761Y-43600714D01*
X116871761Y-43600714D02*
X116967000Y-43457857D01*
X116967000Y-43457857D02*
X117062238Y-43386428D01*
X117062238Y-43386428D02*
X117252714Y-43314999D01*
X117252714Y-43314999D02*
X117347952Y-43314999D01*
X117347952Y-43314999D02*
X117538428Y-43386428D01*
X117538428Y-43386428D02*
X117633666Y-43457857D01*
X117633666Y-43457857D02*
X117728904Y-43600714D01*
X117728904Y-43600714D02*
X117728904Y-43886428D01*
X117728904Y-43886428D02*
X117824142Y-44029285D01*
X117824142Y-44029285D02*
X117919380Y-44100714D01*
X117919380Y-44100714D02*
X118109857Y-44172142D01*
X118109857Y-44172142D02*
X118490809Y-44172142D01*
X118490809Y-44172142D02*
X118681285Y-44100714D01*
X118681285Y-44100714D02*
X118776523Y-44029285D01*
X118776523Y-44029285D02*
X118871761Y-43886428D01*
X118871761Y-43886428D02*
X118871761Y-43600714D01*
X118871761Y-43600714D02*
X118776523Y-43457857D01*
X118776523Y-43457857D02*
X118681285Y-43386428D01*
X118681285Y-43386428D02*
X118490809Y-43314999D01*
X118490809Y-43314999D02*
X118109857Y-43314999D01*
X118109857Y-43314999D02*
X117919380Y-43386428D01*
X117919380Y-43386428D02*
X117824142Y-43457857D01*
X117824142Y-43457857D02*
X117728904Y-43600714D01*
X116871761Y-42886428D02*
X118871761Y-42386428D01*
X118871761Y-42386428D02*
X116871761Y-41886428D01*
X116617761Y-69929285D02*
X119284428Y-69929285D01*
X117284428Y-70072142D02*
X117284428Y-69786428D01*
X117284428Y-69786428D02*
X117379666Y-69643571D01*
X117379666Y-69643571D02*
X117570142Y-69500714D01*
X117570142Y-69500714D02*
X117760619Y-69429285D01*
X117760619Y-69429285D02*
X118141571Y-69429285D01*
X118141571Y-69429285D02*
X118332047Y-69500714D01*
X118332047Y-69500714D02*
X118522523Y-69643571D01*
X118522523Y-69643571D02*
X118617761Y-69786428D01*
X118617761Y-69786428D02*
X118617761Y-70072142D01*
X118617761Y-70072142D02*
X118522523Y-70215000D01*
X118522523Y-70215000D02*
X118332047Y-70357857D01*
X118332047Y-70357857D02*
X118141571Y-70429285D01*
X118141571Y-70429285D02*
X117760619Y-70429285D01*
X117760619Y-70429285D02*
X117570142Y-70357857D01*
X117570142Y-70357857D02*
X117379666Y-70215000D01*
X117379666Y-70215000D02*
X117284428Y-70072142D01*
X117284428Y-68143571D02*
X118617761Y-68143571D01*
X116522523Y-68500713D02*
X117951095Y-68857856D01*
X117951095Y-68857856D02*
X117951095Y-67929285D01*
X116617761Y-64849285D02*
X119284428Y-64849285D01*
X117284428Y-64992142D02*
X117284428Y-64706428D01*
X117284428Y-64706428D02*
X117379666Y-64563571D01*
X117379666Y-64563571D02*
X117570142Y-64420714D01*
X117570142Y-64420714D02*
X117760619Y-64349285D01*
X117760619Y-64349285D02*
X118141571Y-64349285D01*
X118141571Y-64349285D02*
X118332047Y-64420714D01*
X118332047Y-64420714D02*
X118522523Y-64563571D01*
X118522523Y-64563571D02*
X118617761Y-64706428D01*
X118617761Y-64706428D02*
X118617761Y-64992142D01*
X118617761Y-64992142D02*
X118522523Y-65135000D01*
X118522523Y-65135000D02*
X118332047Y-65277857D01*
X118332047Y-65277857D02*
X118141571Y-65349285D01*
X118141571Y-65349285D02*
X117760619Y-65349285D01*
X117760619Y-65349285D02*
X117570142Y-65277857D01*
X117570142Y-65277857D02*
X117379666Y-65135000D01*
X117379666Y-65135000D02*
X117284428Y-64992142D01*
X116617761Y-63849285D02*
X116617761Y-62920713D01*
X116617761Y-62920713D02*
X117379666Y-63420713D01*
X117379666Y-63420713D02*
X117379666Y-63206428D01*
X117379666Y-63206428D02*
X117474904Y-63063571D01*
X117474904Y-63063571D02*
X117570142Y-62992142D01*
X117570142Y-62992142D02*
X117760619Y-62920713D01*
X117760619Y-62920713D02*
X118236809Y-62920713D01*
X118236809Y-62920713D02*
X118427285Y-62992142D01*
X118427285Y-62992142D02*
X118522523Y-63063571D01*
X118522523Y-63063571D02*
X118617761Y-63206428D01*
X118617761Y-63206428D02*
X118617761Y-63634999D01*
X118617761Y-63634999D02*
X118522523Y-63777856D01*
X118522523Y-63777856D02*
X118427285Y-63849285D01*
X116967000Y-50037856D02*
X116871761Y-50180714D01*
X116871761Y-50180714D02*
X116871761Y-50394999D01*
X116871761Y-50394999D02*
X116967000Y-50609285D01*
X116967000Y-50609285D02*
X117157476Y-50752142D01*
X117157476Y-50752142D02*
X117347952Y-50823571D01*
X117347952Y-50823571D02*
X117728904Y-50894999D01*
X117728904Y-50894999D02*
X118014619Y-50894999D01*
X118014619Y-50894999D02*
X118395571Y-50823571D01*
X118395571Y-50823571D02*
X118586047Y-50752142D01*
X118586047Y-50752142D02*
X118776523Y-50609285D01*
X118776523Y-50609285D02*
X118871761Y-50394999D01*
X118871761Y-50394999D02*
X118871761Y-50252142D01*
X118871761Y-50252142D02*
X118776523Y-50037856D01*
X118776523Y-50037856D02*
X118681285Y-49966428D01*
X118681285Y-49966428D02*
X118014619Y-49966428D01*
X118014619Y-49966428D02*
X118014619Y-50252142D01*
X118871761Y-49323571D02*
X116871761Y-49323571D01*
X116871761Y-49323571D02*
X118871761Y-48466428D01*
X118871761Y-48466428D02*
X116871761Y-48466428D01*
X118871761Y-47752142D02*
X116871761Y-47752142D01*
X116871761Y-47752142D02*
X116871761Y-47394999D01*
X116871761Y-47394999D02*
X116967000Y-47180713D01*
X116967000Y-47180713D02*
X117157476Y-47037856D01*
X117157476Y-47037856D02*
X117347952Y-46966427D01*
X117347952Y-46966427D02*
X117728904Y-46894999D01*
X117728904Y-46894999D02*
X118014619Y-46894999D01*
X118014619Y-46894999D02*
X118395571Y-46966427D01*
X118395571Y-46966427D02*
X118586047Y-47037856D01*
X118586047Y-47037856D02*
X118776523Y-47180713D01*
X118776523Y-47180713D02*
X118871761Y-47394999D01*
X118871761Y-47394999D02*
X118871761Y-47752142D01*
X116617761Y-59769285D02*
X119284428Y-59769285D01*
X117284428Y-59912142D02*
X117284428Y-59626428D01*
X117284428Y-59626428D02*
X117379666Y-59483571D01*
X117379666Y-59483571D02*
X117570142Y-59340714D01*
X117570142Y-59340714D02*
X117760619Y-59269285D01*
X117760619Y-59269285D02*
X118141571Y-59269285D01*
X118141571Y-59269285D02*
X118332047Y-59340714D01*
X118332047Y-59340714D02*
X118522523Y-59483571D01*
X118522523Y-59483571D02*
X118617761Y-59626428D01*
X118617761Y-59626428D02*
X118617761Y-59912142D01*
X118617761Y-59912142D02*
X118522523Y-60055000D01*
X118522523Y-60055000D02*
X118332047Y-60197857D01*
X118332047Y-60197857D02*
X118141571Y-60269285D01*
X118141571Y-60269285D02*
X117760619Y-60269285D01*
X117760619Y-60269285D02*
X117570142Y-60197857D01*
X117570142Y-60197857D02*
X117379666Y-60055000D01*
X117379666Y-60055000D02*
X117284428Y-59912142D01*
X116808238Y-58697856D02*
X116713000Y-58626428D01*
X116713000Y-58626428D02*
X116617761Y-58483571D01*
X116617761Y-58483571D02*
X116617761Y-58126428D01*
X116617761Y-58126428D02*
X116713000Y-57983571D01*
X116713000Y-57983571D02*
X116808238Y-57912142D01*
X116808238Y-57912142D02*
X116998714Y-57840713D01*
X116998714Y-57840713D02*
X117189190Y-57840713D01*
X117189190Y-57840713D02*
X117474904Y-57912142D01*
X117474904Y-57912142D02*
X118617761Y-58769285D01*
X118617761Y-58769285D02*
X118617761Y-57840713D01*
D10*
X90680238Y-79495238D02*
X90632619Y-79638095D01*
X90632619Y-79638095D02*
X90632619Y-79876190D01*
X90632619Y-79876190D02*
X90680238Y-79971428D01*
X90680238Y-79971428D02*
X90727857Y-80019047D01*
X90727857Y-80019047D02*
X90823095Y-80066666D01*
X90823095Y-80066666D02*
X90918333Y-80066666D01*
X90918333Y-80066666D02*
X91013571Y-80019047D01*
X91013571Y-80019047D02*
X91061190Y-79971428D01*
X91061190Y-79971428D02*
X91108809Y-79876190D01*
X91108809Y-79876190D02*
X91156428Y-79685714D01*
X91156428Y-79685714D02*
X91204047Y-79590476D01*
X91204047Y-79590476D02*
X91251666Y-79542857D01*
X91251666Y-79542857D02*
X91346904Y-79495238D01*
X91346904Y-79495238D02*
X91442142Y-79495238D01*
X91442142Y-79495238D02*
X91537380Y-79542857D01*
X91537380Y-79542857D02*
X91585000Y-79590476D01*
X91585000Y-79590476D02*
X91632619Y-79685714D01*
X91632619Y-79685714D02*
X91632619Y-79923809D01*
X91632619Y-79923809D02*
X91585000Y-80066666D01*
X91632619Y-80400000D02*
X90632619Y-80638095D01*
X90632619Y-80638095D02*
X91346904Y-80828571D01*
X91346904Y-80828571D02*
X90632619Y-81019047D01*
X90632619Y-81019047D02*
X91632619Y-81257143D01*
X90632619Y-81638095D02*
X91632619Y-81638095D01*
X91632619Y-81638095D02*
X91632619Y-81876190D01*
X91632619Y-81876190D02*
X91585000Y-82019047D01*
X91585000Y-82019047D02*
X91489761Y-82114285D01*
X91489761Y-82114285D02*
X91394523Y-82161904D01*
X91394523Y-82161904D02*
X91204047Y-82209523D01*
X91204047Y-82209523D02*
X91061190Y-82209523D01*
X91061190Y-82209523D02*
X90870714Y-82161904D01*
X90870714Y-82161904D02*
X90775476Y-82114285D01*
X90775476Y-82114285D02*
X90680238Y-82019047D01*
X90680238Y-82019047D02*
X90632619Y-81876190D01*
X90632619Y-81876190D02*
X90632619Y-81638095D01*
X97632619Y-80923809D02*
X97632619Y-81495237D01*
X96632619Y-81209523D02*
X97632619Y-81209523D01*
X96632619Y-81733333D02*
X97299285Y-82257142D01*
X97299285Y-81733333D02*
X96632619Y-82257142D01*
%TO.C,U2*%
X109138095Y-51735380D02*
X109138095Y-52544904D01*
X109138095Y-52544904D02*
X109185714Y-52640142D01*
X109185714Y-52640142D02*
X109233333Y-52687761D01*
X109233333Y-52687761D02*
X109328571Y-52735380D01*
X109328571Y-52735380D02*
X109519047Y-52735380D01*
X109519047Y-52735380D02*
X109614285Y-52687761D01*
X109614285Y-52687761D02*
X109661904Y-52640142D01*
X109661904Y-52640142D02*
X109709523Y-52544904D01*
X109709523Y-52544904D02*
X109709523Y-51735380D01*
X110138095Y-51830619D02*
X110185714Y-51783000D01*
X110185714Y-51783000D02*
X110280952Y-51735380D01*
X110280952Y-51735380D02*
X110519047Y-51735380D01*
X110519047Y-51735380D02*
X110614285Y-51783000D01*
X110614285Y-51783000D02*
X110661904Y-51830619D01*
X110661904Y-51830619D02*
X110709523Y-51925857D01*
X110709523Y-51925857D02*
X110709523Y-52021095D01*
X110709523Y-52021095D02*
X110661904Y-52163952D01*
X110661904Y-52163952D02*
X110090476Y-52735380D01*
X110090476Y-52735380D02*
X110709523Y-52735380D01*
%TO.C,D5*%
X99591905Y-79467380D02*
X99591905Y-78467380D01*
X99591905Y-78467380D02*
X99830000Y-78467380D01*
X99830000Y-78467380D02*
X99972857Y-78515000D01*
X99972857Y-78515000D02*
X100068095Y-78610238D01*
X100068095Y-78610238D02*
X100115714Y-78705476D01*
X100115714Y-78705476D02*
X100163333Y-78895952D01*
X100163333Y-78895952D02*
X100163333Y-79038809D01*
X100163333Y-79038809D02*
X100115714Y-79229285D01*
X100115714Y-79229285D02*
X100068095Y-79324523D01*
X100068095Y-79324523D02*
X99972857Y-79419761D01*
X99972857Y-79419761D02*
X99830000Y-79467380D01*
X99830000Y-79467380D02*
X99591905Y-79467380D01*
X101068095Y-78467380D02*
X100591905Y-78467380D01*
X100591905Y-78467380D02*
X100544286Y-78943571D01*
X100544286Y-78943571D02*
X100591905Y-78895952D01*
X100591905Y-78895952D02*
X100687143Y-78848333D01*
X100687143Y-78848333D02*
X100925238Y-78848333D01*
X100925238Y-78848333D02*
X101020476Y-78895952D01*
X101020476Y-78895952D02*
X101068095Y-78943571D01*
X101068095Y-78943571D02*
X101115714Y-79038809D01*
X101115714Y-79038809D02*
X101115714Y-79276904D01*
X101115714Y-79276904D02*
X101068095Y-79372142D01*
X101068095Y-79372142D02*
X101020476Y-79419761D01*
X101020476Y-79419761D02*
X100925238Y-79467380D01*
X100925238Y-79467380D02*
X100687143Y-79467380D01*
X100687143Y-79467380D02*
X100591905Y-79419761D01*
X100591905Y-79419761D02*
X100544286Y-79372142D01*
%TO.C,Q1*%
X102901761Y-52532619D02*
X102806523Y-52485000D01*
X102806523Y-52485000D02*
X102711285Y-52389761D01*
X102711285Y-52389761D02*
X102568428Y-52246904D01*
X102568428Y-52246904D02*
X102473190Y-52199285D01*
X102473190Y-52199285D02*
X102377952Y-52199285D01*
X102425571Y-52437380D02*
X102330333Y-52389761D01*
X102330333Y-52389761D02*
X102235095Y-52294523D01*
X102235095Y-52294523D02*
X102187476Y-52104047D01*
X102187476Y-52104047D02*
X102187476Y-51770714D01*
X102187476Y-51770714D02*
X102235095Y-51580238D01*
X102235095Y-51580238D02*
X102330333Y-51485000D01*
X102330333Y-51485000D02*
X102425571Y-51437380D01*
X102425571Y-51437380D02*
X102616047Y-51437380D01*
X102616047Y-51437380D02*
X102711285Y-51485000D01*
X102711285Y-51485000D02*
X102806523Y-51580238D01*
X102806523Y-51580238D02*
X102854142Y-51770714D01*
X102854142Y-51770714D02*
X102854142Y-52104047D01*
X102854142Y-52104047D02*
X102806523Y-52294523D01*
X102806523Y-52294523D02*
X102711285Y-52389761D01*
X102711285Y-52389761D02*
X102616047Y-52437380D01*
X102616047Y-52437380D02*
X102425571Y-52437380D01*
X103806523Y-52437380D02*
X103235095Y-52437380D01*
X103520809Y-52437380D02*
X103520809Y-51437380D01*
X103520809Y-51437380D02*
X103425571Y-51580238D01*
X103425571Y-51580238D02*
X103330333Y-51675476D01*
X103330333Y-51675476D02*
X103235095Y-51723095D01*
%TO.C,D2*%
X87861905Y-75588380D02*
X87861905Y-74588380D01*
X87861905Y-74588380D02*
X88100000Y-74588380D01*
X88100000Y-74588380D02*
X88242857Y-74636000D01*
X88242857Y-74636000D02*
X88338095Y-74731238D01*
X88338095Y-74731238D02*
X88385714Y-74826476D01*
X88385714Y-74826476D02*
X88433333Y-75016952D01*
X88433333Y-75016952D02*
X88433333Y-75159809D01*
X88433333Y-75159809D02*
X88385714Y-75350285D01*
X88385714Y-75350285D02*
X88338095Y-75445523D01*
X88338095Y-75445523D02*
X88242857Y-75540761D01*
X88242857Y-75540761D02*
X88100000Y-75588380D01*
X88100000Y-75588380D02*
X87861905Y-75588380D01*
X88814286Y-74683619D02*
X88861905Y-74636000D01*
X88861905Y-74636000D02*
X88957143Y-74588380D01*
X88957143Y-74588380D02*
X89195238Y-74588380D01*
X89195238Y-74588380D02*
X89290476Y-74636000D01*
X89290476Y-74636000D02*
X89338095Y-74683619D01*
X89338095Y-74683619D02*
X89385714Y-74778857D01*
X89385714Y-74778857D02*
X89385714Y-74874095D01*
X89385714Y-74874095D02*
X89338095Y-75016952D01*
X89338095Y-75016952D02*
X88766667Y-75588380D01*
X88766667Y-75588380D02*
X89385714Y-75588380D01*
%TO.C,RV1*%
X118731380Y-83653238D02*
X118255190Y-83986571D01*
X118731380Y-84224666D02*
X117731380Y-84224666D01*
X117731380Y-84224666D02*
X117731380Y-83843714D01*
X117731380Y-83843714D02*
X117779000Y-83748476D01*
X117779000Y-83748476D02*
X117826619Y-83700857D01*
X117826619Y-83700857D02*
X117921857Y-83653238D01*
X117921857Y-83653238D02*
X118064714Y-83653238D01*
X118064714Y-83653238D02*
X118159952Y-83700857D01*
X118159952Y-83700857D02*
X118207571Y-83748476D01*
X118207571Y-83748476D02*
X118255190Y-83843714D01*
X118255190Y-83843714D02*
X118255190Y-84224666D01*
X117731380Y-83367523D02*
X118731380Y-83034190D01*
X118731380Y-83034190D02*
X117731380Y-82700857D01*
X118731380Y-81843714D02*
X118731380Y-82415142D01*
X118731380Y-82129428D02*
X117731380Y-82129428D01*
X117731380Y-82129428D02*
X117874238Y-82224666D01*
X117874238Y-82224666D02*
X117969476Y-82319904D01*
X117969476Y-82319904D02*
X118017095Y-82415142D01*
%TO.C,D4*%
X84961905Y-54967380D02*
X84961905Y-53967380D01*
X84961905Y-53967380D02*
X85200000Y-53967380D01*
X85200000Y-53967380D02*
X85342857Y-54015000D01*
X85342857Y-54015000D02*
X85438095Y-54110238D01*
X85438095Y-54110238D02*
X85485714Y-54205476D01*
X85485714Y-54205476D02*
X85533333Y-54395952D01*
X85533333Y-54395952D02*
X85533333Y-54538809D01*
X85533333Y-54538809D02*
X85485714Y-54729285D01*
X85485714Y-54729285D02*
X85438095Y-54824523D01*
X85438095Y-54824523D02*
X85342857Y-54919761D01*
X85342857Y-54919761D02*
X85200000Y-54967380D01*
X85200000Y-54967380D02*
X84961905Y-54967380D01*
X86390476Y-54300714D02*
X86390476Y-54967380D01*
X86152381Y-53919761D02*
X85914286Y-54634047D01*
X85914286Y-54634047D02*
X86533333Y-54634047D01*
%TO.C,J1*%
X82298380Y-78057333D02*
X83012666Y-78057333D01*
X83012666Y-78057333D02*
X83155523Y-78104952D01*
X83155523Y-78104952D02*
X83250761Y-78200190D01*
X83250761Y-78200190D02*
X83298380Y-78343047D01*
X83298380Y-78343047D02*
X83298380Y-78438285D01*
X83298380Y-77057333D02*
X83298380Y-77628761D01*
X83298380Y-77343047D02*
X82298380Y-77343047D01*
X82298380Y-77343047D02*
X82441238Y-77438285D01*
X82441238Y-77438285D02*
X82536476Y-77533523D01*
X82536476Y-77533523D02*
X82584095Y-77628761D01*
%TO.C,U4*%
X109138095Y-66467380D02*
X109138095Y-67276904D01*
X109138095Y-67276904D02*
X109185714Y-67372142D01*
X109185714Y-67372142D02*
X109233333Y-67419761D01*
X109233333Y-67419761D02*
X109328571Y-67467380D01*
X109328571Y-67467380D02*
X109519047Y-67467380D01*
X109519047Y-67467380D02*
X109614285Y-67419761D01*
X109614285Y-67419761D02*
X109661904Y-67372142D01*
X109661904Y-67372142D02*
X109709523Y-67276904D01*
X109709523Y-67276904D02*
X109709523Y-66467380D01*
X110614285Y-66800714D02*
X110614285Y-67467380D01*
X110376190Y-66419761D02*
X110138095Y-67134047D01*
X110138095Y-67134047D02*
X110757142Y-67134047D01*
%TO.C,J2*%
X109902666Y-46738380D02*
X109902666Y-47452666D01*
X109902666Y-47452666D02*
X109855047Y-47595523D01*
X109855047Y-47595523D02*
X109759809Y-47690761D01*
X109759809Y-47690761D02*
X109616952Y-47738380D01*
X109616952Y-47738380D02*
X109521714Y-47738380D01*
X110331238Y-46833619D02*
X110378857Y-46786000D01*
X110378857Y-46786000D02*
X110474095Y-46738380D01*
X110474095Y-46738380D02*
X110712190Y-46738380D01*
X110712190Y-46738380D02*
X110807428Y-46786000D01*
X110807428Y-46786000D02*
X110855047Y-46833619D01*
X110855047Y-46833619D02*
X110902666Y-46928857D01*
X110902666Y-46928857D02*
X110902666Y-47024095D01*
X110902666Y-47024095D02*
X110855047Y-47166952D01*
X110855047Y-47166952D02*
X110283619Y-47738380D01*
X110283619Y-47738380D02*
X110902666Y-47738380D01*
%TO.C,D1*%
X87861905Y-79488380D02*
X87861905Y-78488380D01*
X87861905Y-78488380D02*
X88100000Y-78488380D01*
X88100000Y-78488380D02*
X88242857Y-78536000D01*
X88242857Y-78536000D02*
X88338095Y-78631238D01*
X88338095Y-78631238D02*
X88385714Y-78726476D01*
X88385714Y-78726476D02*
X88433333Y-78916952D01*
X88433333Y-78916952D02*
X88433333Y-79059809D01*
X88433333Y-79059809D02*
X88385714Y-79250285D01*
X88385714Y-79250285D02*
X88338095Y-79345523D01*
X88338095Y-79345523D02*
X88242857Y-79440761D01*
X88242857Y-79440761D02*
X88100000Y-79488380D01*
X88100000Y-79488380D02*
X87861905Y-79488380D01*
X89385714Y-79488380D02*
X88814286Y-79488380D01*
X89100000Y-79488380D02*
X89100000Y-78488380D01*
X89100000Y-78488380D02*
X89004762Y-78631238D01*
X89004762Y-78631238D02*
X88909524Y-78726476D01*
X88909524Y-78726476D02*
X88814286Y-78774095D01*
%TO.C,U5*%
X108238095Y-73767380D02*
X108238095Y-74576904D01*
X108238095Y-74576904D02*
X108285714Y-74672142D01*
X108285714Y-74672142D02*
X108333333Y-74719761D01*
X108333333Y-74719761D02*
X108428571Y-74767380D01*
X108428571Y-74767380D02*
X108619047Y-74767380D01*
X108619047Y-74767380D02*
X108714285Y-74719761D01*
X108714285Y-74719761D02*
X108761904Y-74672142D01*
X108761904Y-74672142D02*
X108809523Y-74576904D01*
X108809523Y-74576904D02*
X108809523Y-73767380D01*
X109761904Y-73767380D02*
X109285714Y-73767380D01*
X109285714Y-73767380D02*
X109238095Y-74243571D01*
X109238095Y-74243571D02*
X109285714Y-74195952D01*
X109285714Y-74195952D02*
X109380952Y-74148333D01*
X109380952Y-74148333D02*
X109619047Y-74148333D01*
X109619047Y-74148333D02*
X109714285Y-74195952D01*
X109714285Y-74195952D02*
X109761904Y-74243571D01*
X109761904Y-74243571D02*
X109809523Y-74338809D01*
X109809523Y-74338809D02*
X109809523Y-74576904D01*
X109809523Y-74576904D02*
X109761904Y-74672142D01*
X109761904Y-74672142D02*
X109714285Y-74719761D01*
X109714285Y-74719761D02*
X109619047Y-74767380D01*
X109619047Y-74767380D02*
X109380952Y-74767380D01*
X109380952Y-74767380D02*
X109285714Y-74719761D01*
X109285714Y-74719761D02*
X109238095Y-74672142D01*
%TO.C,Q4*%
X102901761Y-74630619D02*
X102806523Y-74583000D01*
X102806523Y-74583000D02*
X102711285Y-74487761D01*
X102711285Y-74487761D02*
X102568428Y-74344904D01*
X102568428Y-74344904D02*
X102473190Y-74297285D01*
X102473190Y-74297285D02*
X102377952Y-74297285D01*
X102425571Y-74535380D02*
X102330333Y-74487761D01*
X102330333Y-74487761D02*
X102235095Y-74392523D01*
X102235095Y-74392523D02*
X102187476Y-74202047D01*
X102187476Y-74202047D02*
X102187476Y-73868714D01*
X102187476Y-73868714D02*
X102235095Y-73678238D01*
X102235095Y-73678238D02*
X102330333Y-73583000D01*
X102330333Y-73583000D02*
X102425571Y-73535380D01*
X102425571Y-73535380D02*
X102616047Y-73535380D01*
X102616047Y-73535380D02*
X102711285Y-73583000D01*
X102711285Y-73583000D02*
X102806523Y-73678238D01*
X102806523Y-73678238D02*
X102854142Y-73868714D01*
X102854142Y-73868714D02*
X102854142Y-74202047D01*
X102854142Y-74202047D02*
X102806523Y-74392523D01*
X102806523Y-74392523D02*
X102711285Y-74487761D01*
X102711285Y-74487761D02*
X102616047Y-74535380D01*
X102616047Y-74535380D02*
X102425571Y-74535380D01*
X103711285Y-73868714D02*
X103711285Y-74535380D01*
X103473190Y-73487761D02*
X103235095Y-74202047D01*
X103235095Y-74202047D02*
X103854142Y-74202047D01*
%TO.C,U3*%
X109138095Y-59101380D02*
X109138095Y-59910904D01*
X109138095Y-59910904D02*
X109185714Y-60006142D01*
X109185714Y-60006142D02*
X109233333Y-60053761D01*
X109233333Y-60053761D02*
X109328571Y-60101380D01*
X109328571Y-60101380D02*
X109519047Y-60101380D01*
X109519047Y-60101380D02*
X109614285Y-60053761D01*
X109614285Y-60053761D02*
X109661904Y-60006142D01*
X109661904Y-60006142D02*
X109709523Y-59910904D01*
X109709523Y-59910904D02*
X109709523Y-59101380D01*
X110090476Y-59101380D02*
X110709523Y-59101380D01*
X110709523Y-59101380D02*
X110376190Y-59482333D01*
X110376190Y-59482333D02*
X110519047Y-59482333D01*
X110519047Y-59482333D02*
X110614285Y-59529952D01*
X110614285Y-59529952D02*
X110661904Y-59577571D01*
X110661904Y-59577571D02*
X110709523Y-59672809D01*
X110709523Y-59672809D02*
X110709523Y-59910904D01*
X110709523Y-59910904D02*
X110661904Y-60006142D01*
X110661904Y-60006142D02*
X110614285Y-60053761D01*
X110614285Y-60053761D02*
X110519047Y-60101380D01*
X110519047Y-60101380D02*
X110233333Y-60101380D01*
X110233333Y-60101380D02*
X110138095Y-60053761D01*
X110138095Y-60053761D02*
X110090476Y-60006142D01*
%TO.C,U7*%
X95538095Y-40767380D02*
X95538095Y-41576904D01*
X95538095Y-41576904D02*
X95585714Y-41672142D01*
X95585714Y-41672142D02*
X95633333Y-41719761D01*
X95633333Y-41719761D02*
X95728571Y-41767380D01*
X95728571Y-41767380D02*
X95919047Y-41767380D01*
X95919047Y-41767380D02*
X96014285Y-41719761D01*
X96014285Y-41719761D02*
X96061904Y-41672142D01*
X96061904Y-41672142D02*
X96109523Y-41576904D01*
X96109523Y-41576904D02*
X96109523Y-40767380D01*
X96490476Y-40767380D02*
X97157142Y-40767380D01*
X97157142Y-40767380D02*
X96728571Y-41767380D01*
%TO.C,D3*%
X84961905Y-51067380D02*
X84961905Y-50067380D01*
X84961905Y-50067380D02*
X85200000Y-50067380D01*
X85200000Y-50067380D02*
X85342857Y-50115000D01*
X85342857Y-50115000D02*
X85438095Y-50210238D01*
X85438095Y-50210238D02*
X85485714Y-50305476D01*
X85485714Y-50305476D02*
X85533333Y-50495952D01*
X85533333Y-50495952D02*
X85533333Y-50638809D01*
X85533333Y-50638809D02*
X85485714Y-50829285D01*
X85485714Y-50829285D02*
X85438095Y-50924523D01*
X85438095Y-50924523D02*
X85342857Y-51019761D01*
X85342857Y-51019761D02*
X85200000Y-51067380D01*
X85200000Y-51067380D02*
X84961905Y-51067380D01*
X85866667Y-50067380D02*
X86485714Y-50067380D01*
X86485714Y-50067380D02*
X86152381Y-50448333D01*
X86152381Y-50448333D02*
X86295238Y-50448333D01*
X86295238Y-50448333D02*
X86390476Y-50495952D01*
X86390476Y-50495952D02*
X86438095Y-50543571D01*
X86438095Y-50543571D02*
X86485714Y-50638809D01*
X86485714Y-50638809D02*
X86485714Y-50876904D01*
X86485714Y-50876904D02*
X86438095Y-50972142D01*
X86438095Y-50972142D02*
X86390476Y-51019761D01*
X86390476Y-51019761D02*
X86295238Y-51067380D01*
X86295238Y-51067380D02*
X86009524Y-51067380D01*
X86009524Y-51067380D02*
X85914286Y-51019761D01*
X85914286Y-51019761D02*
X85866667Y-50972142D01*
%TO.C,X1*%
X88990476Y-54867380D02*
X89657142Y-55867380D01*
X89657142Y-54867380D02*
X88990476Y-55867380D01*
X90561904Y-55867380D02*
X89990476Y-55867380D01*
X90276190Y-55867380D02*
X90276190Y-54867380D01*
X90276190Y-54867380D02*
X90180952Y-55010238D01*
X90180952Y-55010238D02*
X90085714Y-55105476D01*
X90085714Y-55105476D02*
X89990476Y-55153095D01*
%TO.C,C1*%
X111679669Y-74323370D02*
X111679669Y-74390714D01*
X111679669Y-74390714D02*
X111612325Y-74525401D01*
X111612325Y-74525401D02*
X111544982Y-74592744D01*
X111544982Y-74592744D02*
X111410295Y-74660088D01*
X111410295Y-74660088D02*
X111275608Y-74660088D01*
X111275608Y-74660088D02*
X111174592Y-74626416D01*
X111174592Y-74626416D02*
X111006234Y-74525401D01*
X111006234Y-74525401D02*
X110905218Y-74424386D01*
X110905218Y-74424386D02*
X110804203Y-74256027D01*
X110804203Y-74256027D02*
X110770531Y-74155012D01*
X110770531Y-74155012D02*
X110770531Y-74020325D01*
X110770531Y-74020325D02*
X110837875Y-73885638D01*
X110837875Y-73885638D02*
X110905218Y-73818294D01*
X110905218Y-73818294D02*
X111039905Y-73750951D01*
X111039905Y-73750951D02*
X111107249Y-73750951D01*
X112420447Y-73717279D02*
X112016386Y-74121340D01*
X112218417Y-73919309D02*
X111511310Y-73212203D01*
X111511310Y-73212203D02*
X111544982Y-73380561D01*
X111544982Y-73380561D02*
X111544982Y-73515248D01*
X111544982Y-73515248D02*
X111511310Y-73616264D01*
%TO.C,U6*%
X93367380Y-51761904D02*
X94176904Y-51761904D01*
X94176904Y-51761904D02*
X94272142Y-51714285D01*
X94272142Y-51714285D02*
X94319761Y-51666666D01*
X94319761Y-51666666D02*
X94367380Y-51571428D01*
X94367380Y-51571428D02*
X94367380Y-51380952D01*
X94367380Y-51380952D02*
X94319761Y-51285714D01*
X94319761Y-51285714D02*
X94272142Y-51238095D01*
X94272142Y-51238095D02*
X94176904Y-51190476D01*
X94176904Y-51190476D02*
X93367380Y-51190476D01*
X93367380Y-50285714D02*
X93367380Y-50476190D01*
X93367380Y-50476190D02*
X93415000Y-50571428D01*
X93415000Y-50571428D02*
X93462619Y-50619047D01*
X93462619Y-50619047D02*
X93605476Y-50714285D01*
X93605476Y-50714285D02*
X93795952Y-50761904D01*
X93795952Y-50761904D02*
X94176904Y-50761904D01*
X94176904Y-50761904D02*
X94272142Y-50714285D01*
X94272142Y-50714285D02*
X94319761Y-50666666D01*
X94319761Y-50666666D02*
X94367380Y-50571428D01*
X94367380Y-50571428D02*
X94367380Y-50380952D01*
X94367380Y-50380952D02*
X94319761Y-50285714D01*
X94319761Y-50285714D02*
X94272142Y-50238095D01*
X94272142Y-50238095D02*
X94176904Y-50190476D01*
X94176904Y-50190476D02*
X93938809Y-50190476D01*
X93938809Y-50190476D02*
X93843571Y-50238095D01*
X93843571Y-50238095D02*
X93795952Y-50285714D01*
X93795952Y-50285714D02*
X93748333Y-50380952D01*
X93748333Y-50380952D02*
X93748333Y-50571428D01*
X93748333Y-50571428D02*
X93795952Y-50666666D01*
X93795952Y-50666666D02*
X93843571Y-50714285D01*
X93843571Y-50714285D02*
X93938809Y-50761904D01*
%TO.C,Q2*%
X102901761Y-59898619D02*
X102806523Y-59851000D01*
X102806523Y-59851000D02*
X102711285Y-59755761D01*
X102711285Y-59755761D02*
X102568428Y-59612904D01*
X102568428Y-59612904D02*
X102473190Y-59565285D01*
X102473190Y-59565285D02*
X102377952Y-59565285D01*
X102425571Y-59803380D02*
X102330333Y-59755761D01*
X102330333Y-59755761D02*
X102235095Y-59660523D01*
X102235095Y-59660523D02*
X102187476Y-59470047D01*
X102187476Y-59470047D02*
X102187476Y-59136714D01*
X102187476Y-59136714D02*
X102235095Y-58946238D01*
X102235095Y-58946238D02*
X102330333Y-58851000D01*
X102330333Y-58851000D02*
X102425571Y-58803380D01*
X102425571Y-58803380D02*
X102616047Y-58803380D01*
X102616047Y-58803380D02*
X102711285Y-58851000D01*
X102711285Y-58851000D02*
X102806523Y-58946238D01*
X102806523Y-58946238D02*
X102854142Y-59136714D01*
X102854142Y-59136714D02*
X102854142Y-59470047D01*
X102854142Y-59470047D02*
X102806523Y-59660523D01*
X102806523Y-59660523D02*
X102711285Y-59755761D01*
X102711285Y-59755761D02*
X102616047Y-59803380D01*
X102616047Y-59803380D02*
X102425571Y-59803380D01*
X103235095Y-58898619D02*
X103282714Y-58851000D01*
X103282714Y-58851000D02*
X103377952Y-58803380D01*
X103377952Y-58803380D02*
X103616047Y-58803380D01*
X103616047Y-58803380D02*
X103711285Y-58851000D01*
X103711285Y-58851000D02*
X103758904Y-58898619D01*
X103758904Y-58898619D02*
X103806523Y-58993857D01*
X103806523Y-58993857D02*
X103806523Y-59089095D01*
X103806523Y-59089095D02*
X103758904Y-59231952D01*
X103758904Y-59231952D02*
X103187476Y-59803380D01*
X103187476Y-59803380D02*
X103806523Y-59803380D01*
%TO.C,J3*%
X88776666Y-83187380D02*
X88776666Y-83901666D01*
X88776666Y-83901666D02*
X88729047Y-84044523D01*
X88729047Y-84044523D02*
X88633809Y-84139761D01*
X88633809Y-84139761D02*
X88490952Y-84187380D01*
X88490952Y-84187380D02*
X88395714Y-84187380D01*
X89157619Y-83187380D02*
X89776666Y-83187380D01*
X89776666Y-83187380D02*
X89443333Y-83568333D01*
X89443333Y-83568333D02*
X89586190Y-83568333D01*
X89586190Y-83568333D02*
X89681428Y-83615952D01*
X89681428Y-83615952D02*
X89729047Y-83663571D01*
X89729047Y-83663571D02*
X89776666Y-83758809D01*
X89776666Y-83758809D02*
X89776666Y-83996904D01*
X89776666Y-83996904D02*
X89729047Y-84092142D01*
X89729047Y-84092142D02*
X89681428Y-84139761D01*
X89681428Y-84139761D02*
X89586190Y-84187380D01*
X89586190Y-84187380D02*
X89300476Y-84187380D01*
X89300476Y-84187380D02*
X89205238Y-84139761D01*
X89205238Y-84139761D02*
X89157619Y-84092142D01*
%TO.C,Q3*%
X102901761Y-67264619D02*
X102806523Y-67217000D01*
X102806523Y-67217000D02*
X102711285Y-67121761D01*
X102711285Y-67121761D02*
X102568428Y-66978904D01*
X102568428Y-66978904D02*
X102473190Y-66931285D01*
X102473190Y-66931285D02*
X102377952Y-66931285D01*
X102425571Y-67169380D02*
X102330333Y-67121761D01*
X102330333Y-67121761D02*
X102235095Y-67026523D01*
X102235095Y-67026523D02*
X102187476Y-66836047D01*
X102187476Y-66836047D02*
X102187476Y-66502714D01*
X102187476Y-66502714D02*
X102235095Y-66312238D01*
X102235095Y-66312238D02*
X102330333Y-66217000D01*
X102330333Y-66217000D02*
X102425571Y-66169380D01*
X102425571Y-66169380D02*
X102616047Y-66169380D01*
X102616047Y-66169380D02*
X102711285Y-66217000D01*
X102711285Y-66217000D02*
X102806523Y-66312238D01*
X102806523Y-66312238D02*
X102854142Y-66502714D01*
X102854142Y-66502714D02*
X102854142Y-66836047D01*
X102854142Y-66836047D02*
X102806523Y-67026523D01*
X102806523Y-67026523D02*
X102711285Y-67121761D01*
X102711285Y-67121761D02*
X102616047Y-67169380D01*
X102616047Y-67169380D02*
X102425571Y-67169380D01*
X103187476Y-66169380D02*
X103806523Y-66169380D01*
X103806523Y-66169380D02*
X103473190Y-66550333D01*
X103473190Y-66550333D02*
X103616047Y-66550333D01*
X103616047Y-66550333D02*
X103711285Y-66597952D01*
X103711285Y-66597952D02*
X103758904Y-66645571D01*
X103758904Y-66645571D02*
X103806523Y-66740809D01*
X103806523Y-66740809D02*
X103806523Y-66978904D01*
X103806523Y-66978904D02*
X103758904Y-67074142D01*
X103758904Y-67074142D02*
X103711285Y-67121761D01*
X103711285Y-67121761D02*
X103616047Y-67169380D01*
X103616047Y-67169380D02*
X103330333Y-67169380D01*
X103330333Y-67169380D02*
X103235095Y-67121761D01*
X103235095Y-67121761D02*
X103187476Y-67074142D01*
%TO.C,U1*%
X86138095Y-68067380D02*
X86138095Y-68876904D01*
X86138095Y-68876904D02*
X86185714Y-68972142D01*
X86185714Y-68972142D02*
X86233333Y-69019761D01*
X86233333Y-69019761D02*
X86328571Y-69067380D01*
X86328571Y-69067380D02*
X86519047Y-69067380D01*
X86519047Y-69067380D02*
X86614285Y-69019761D01*
X86614285Y-69019761D02*
X86661904Y-68972142D01*
X86661904Y-68972142D02*
X86709523Y-68876904D01*
X86709523Y-68876904D02*
X86709523Y-68067380D01*
X87709523Y-69067380D02*
X87138095Y-69067380D01*
X87423809Y-69067380D02*
X87423809Y-68067380D01*
X87423809Y-68067380D02*
X87328571Y-68210238D01*
X87328571Y-68210238D02*
X87233333Y-68305476D01*
X87233333Y-68305476D02*
X87138095Y-68353095D01*
D12*
%TO.C,R36*%
X83146359Y-70720001D02*
X83453641Y-70720001D01*
X83146359Y-71480001D02*
X83453641Y-71480001D01*
%TO.C,C34*%
X107842164Y-63140000D02*
X108057836Y-63140000D01*
X107842164Y-63860000D02*
X108057836Y-63860000D01*
%TO.C,R26*%
X87220000Y-51753641D02*
X87220000Y-51446359D01*
X87980000Y-51753641D02*
X87980000Y-51446359D01*
%TO.C,U2*%
X108681000Y-51927000D02*
X108311000Y-51927000D01*
X108681000Y-51927000D02*
X108681000Y-53217000D01*
X108311000Y-51927000D02*
X108311000Y-51667000D01*
X105811000Y-51927000D02*
X105441000Y-51927000D01*
X105441000Y-51927000D02*
X105441000Y-53217000D01*
X108681000Y-55167000D02*
X108681000Y-54667000D01*
X108681000Y-55167000D02*
X108311000Y-55167000D01*
X105811000Y-55167000D02*
X105441000Y-55167000D01*
X105441000Y-55167000D02*
X105441000Y-54667000D01*
%TO.C,R39*%
X83146359Y-72720000D02*
X83453641Y-72720000D01*
X83146359Y-73480000D02*
X83453641Y-73480000D01*
%TO.C,C44*%
X97072336Y-63479000D02*
X96856664Y-63479000D01*
X97072336Y-62759000D02*
X96856664Y-62759000D01*
%TO.C,R25*%
X83420000Y-53653641D02*
X83420000Y-53346359D01*
X84180000Y-53653641D02*
X84180000Y-53346359D01*
%TO.C,R6*%
X96810859Y-61786500D02*
X97118141Y-61786500D01*
X96810859Y-62546500D02*
X97118141Y-62546500D01*
%TO.C,R13*%
X86046359Y-76520000D02*
X86353641Y-76520000D01*
X86046359Y-77280000D02*
X86353641Y-77280000D01*
%TO.C,C43*%
X94761164Y-67331000D02*
X94976836Y-67331000D01*
X94761164Y-68051000D02*
X94976836Y-68051000D01*
%TO.C,D5*%
X102615000Y-82034000D02*
X102615000Y-79764000D01*
X102615000Y-79764000D02*
X98730000Y-79764000D01*
X98730000Y-82034000D02*
X102615000Y-82034000D01*
%TO.C,C20*%
X109368000Y-54590836D02*
X109368000Y-54375164D01*
X110088000Y-54590836D02*
X110088000Y-54375164D01*
%TO.C,R27*%
X84180000Y-51446359D02*
X84180000Y-51753641D01*
X83420000Y-51446359D02*
X83420000Y-51753641D01*
%TO.C,R42*%
X85880000Y-56646359D02*
X85880000Y-56953641D01*
X85120000Y-56646359D02*
X85120000Y-56953641D01*
%TO.C,R37*%
X83146359Y-73720000D02*
X83453641Y-73720000D01*
X83146359Y-74480000D02*
X83453641Y-74480000D01*
%TO.C,C72*%
X92690000Y-57040580D02*
X92690000Y-56759420D01*
X93710000Y-57040580D02*
X93710000Y-56759420D01*
D13*
%TO.C,Q1*%
X96410000Y-50170000D02*
X96410000Y-50670000D01*
X96410000Y-50170000D02*
X96910000Y-50170000D01*
X96410000Y-51470000D02*
X96410000Y-51970000D01*
X96410000Y-52520000D02*
X96410000Y-53020000D01*
X96410000Y-53470000D02*
X96410000Y-53970000D01*
X96410000Y-53970000D02*
X96910000Y-53970000D01*
X97410000Y-50170000D02*
X97910000Y-50170000D01*
X97410000Y-53970000D02*
X97910000Y-53970000D01*
X98410000Y-50170000D02*
X98910000Y-50170000D01*
X98410000Y-53970000D02*
X98910000Y-53970000D01*
X99410000Y-50170000D02*
X99910000Y-50170000D01*
X99410000Y-53970000D02*
X99910000Y-53970000D01*
X100410000Y-50170000D02*
X100910000Y-50170000D01*
X100410000Y-53970000D02*
X100910000Y-53970000D01*
X101410000Y-50170000D02*
X101710000Y-50170000D01*
X101410000Y-53970000D02*
X101710000Y-53970000D01*
X101710000Y-50170000D02*
X101710000Y-50670000D01*
X101710000Y-51170000D02*
X101710000Y-51670000D01*
X101710000Y-52470000D02*
X101710000Y-52970000D01*
X101710000Y-53470000D02*
X101710000Y-53970000D01*
D12*
X96314000Y-49820000D02*
G75*
G03*
X96314000Y-49820000I-254000J0D01*
G01*
%TO.C,D2*%
X89760000Y-73900000D02*
X89760000Y-72500000D01*
X87440000Y-72500000D02*
X87440000Y-74400000D01*
%TO.C,C38*%
X103122000Y-63259580D02*
X103122000Y-62978420D01*
X104142000Y-63259580D02*
X104142000Y-62978420D01*
%TO.C,C78*%
X83407836Y-62560000D02*
X83192164Y-62560000D01*
X83407836Y-61840000D02*
X83192164Y-61840000D01*
%TO.C,C55*%
X94976836Y-76560000D02*
X94761164Y-76560000D01*
X94976836Y-75840000D02*
X94761164Y-75840000D01*
%TO.C,C80*%
X94792164Y-63340000D02*
X95007836Y-63340000D01*
X94792164Y-64060000D02*
X95007836Y-64060000D01*
%TO.C,C69*%
X83407836Y-63560000D02*
X83192164Y-63560000D01*
X83407836Y-62840000D02*
X83192164Y-62840000D01*
%TO.C,C56*%
X94761164Y-74697000D02*
X94976836Y-74697000D01*
X94761164Y-75417000D02*
X94976836Y-75417000D01*
%TO.C,C70*%
X90210000Y-69659420D02*
X90210000Y-69940580D01*
X89190000Y-69659420D02*
X89190000Y-69940580D01*
%TO.C,C71*%
X83910000Y-66959420D02*
X83910000Y-67240580D01*
X82890000Y-66959420D02*
X82890000Y-67240580D01*
%TO.C,R16*%
X90120000Y-72453641D02*
X90120000Y-72146359D01*
X90880000Y-72453641D02*
X90880000Y-72146359D01*
%TO.C,C22*%
X98550000Y-55893580D02*
X98550000Y-55612420D01*
X99570000Y-55893580D02*
X99570000Y-55612420D01*
%TO.C,C10*%
X98550000Y-48527580D02*
X98550000Y-48246420D01*
X99570000Y-48527580D02*
X99570000Y-48246420D01*
%TO.C,R15*%
X86046359Y-77620000D02*
X86353641Y-77620000D01*
X86046359Y-78380000D02*
X86353641Y-78380000D01*
%TO.C,C48*%
X98550000Y-70625580D02*
X98550000Y-70344420D01*
X99570000Y-70625580D02*
X99570000Y-70344420D01*
%TO.C,C6*%
X91359420Y-47590000D02*
X91640580Y-47590000D01*
X91359420Y-48610000D02*
X91640580Y-48610000D01*
%TO.C,R29*%
X87120000Y-56053641D02*
X87120000Y-55746359D01*
X87880000Y-56053641D02*
X87880000Y-55746359D01*
%TO.C,R10*%
X96810859Y-76518500D02*
X97118141Y-76518500D01*
X96810859Y-77278500D02*
X97118141Y-77278500D01*
%TO.C,C85*%
X92260000Y-57092164D02*
X92260000Y-57307836D01*
X91540000Y-57092164D02*
X91540000Y-57307836D01*
%TO.C,C9*%
X100074000Y-48527580D02*
X100074000Y-48246420D01*
X101094000Y-48527580D02*
X101094000Y-48246420D01*
%TO.C,R45*%
X84880000Y-56646359D02*
X84880000Y-56953641D01*
X84120000Y-56646359D02*
X84120000Y-56953641D01*
%TO.C,R41*%
X85846359Y-57920000D02*
X86153641Y-57920000D01*
X85846359Y-58680000D02*
X86153641Y-58680000D01*
%TO.C,C2*%
X100310000Y-43259420D02*
X100310000Y-43540580D01*
X99290000Y-43259420D02*
X99290000Y-43540580D01*
%TO.C,C24*%
X101598000Y-55893580D02*
X101598000Y-55612420D01*
X102618000Y-55893580D02*
X102618000Y-55612420D01*
%TO.C,C17*%
X94789164Y-52599000D02*
X95004836Y-52599000D01*
X94789164Y-53319000D02*
X95004836Y-53319000D01*
%TO.C,R4*%
X96810859Y-54420500D02*
X97118141Y-54420500D01*
X96810859Y-55180500D02*
X97118141Y-55180500D01*
%TO.C,C76*%
X88860000Y-69192164D02*
X88860000Y-69407836D01*
X88140000Y-69192164D02*
X88140000Y-69407836D01*
%TO.C,C58*%
X106064164Y-72411000D02*
X106279836Y-72411000D01*
X106064164Y-73131000D02*
X106279836Y-73131000D01*
%TO.C,C7*%
X96940580Y-47610000D02*
X96659420Y-47610000D01*
X96940580Y-46590000D02*
X96659420Y-46590000D01*
%TO.C,C32*%
X106953164Y-57679000D02*
X107168836Y-57679000D01*
X106953164Y-58399000D02*
X107168836Y-58399000D01*
%TO.C,R11*%
X97118141Y-71817500D02*
X96810859Y-71817500D01*
X97118141Y-71057500D02*
X96810859Y-71057500D01*
%TO.C,C37*%
X101598000Y-63259580D02*
X101598000Y-62978420D01*
X102618000Y-63259580D02*
X102618000Y-62978420D01*
%TO.C,C59*%
X108479000Y-76688836D02*
X108479000Y-76473164D01*
X109199000Y-76688836D02*
X109199000Y-76473164D01*
%TO.C,C74*%
X91260000Y-69192164D02*
X91260000Y-69407836D01*
X90540000Y-69192164D02*
X90540000Y-69407836D01*
%TO.C,C67*%
X88240000Y-53607836D02*
X88240000Y-53392164D01*
X88960000Y-53607836D02*
X88960000Y-53392164D01*
%TO.C,R31*%
X83146359Y-69720001D02*
X83453641Y-69720001D01*
X83146359Y-70480001D02*
X83453641Y-70480001D01*
%TO.C,R40*%
X86880000Y-56646359D02*
X86880000Y-56953641D01*
X86120000Y-56646359D02*
X86120000Y-56953641D01*
%TO.C,C46*%
X109368000Y-69195836D02*
X109368000Y-68980164D01*
X110088000Y-69195836D02*
X110088000Y-68980164D01*
%TO.C,C11*%
X101598000Y-48527580D02*
X101598000Y-48246420D01*
X102618000Y-48527580D02*
X102618000Y-48246420D01*
%TO.C,RV1*%
X115646252Y-84418000D02*
X114223748Y-84418000D01*
X115646252Y-81698000D02*
X114223748Y-81698000D01*
%TO.C,C16*%
X95004836Y-54462000D02*
X94789164Y-54462000D01*
X95004836Y-53742000D02*
X94789164Y-53742000D01*
%TO.C,R19*%
X86046359Y-75420000D02*
X86353641Y-75420000D01*
X86046359Y-76180000D02*
X86353641Y-76180000D01*
%TO.C,C77*%
X83407836Y-60360000D02*
X83192164Y-60360000D01*
X83407836Y-59640000D02*
X83192164Y-59640000D01*
%TO.C,C51*%
X103122000Y-70625580D02*
X103122000Y-70344420D01*
X104142000Y-70625580D02*
X104142000Y-70344420D01*
%TO.C,D4*%
X84540000Y-51800000D02*
X84540000Y-53200000D01*
X86860000Y-53200000D02*
X86860000Y-51300000D01*
%TO.C,J1*%
X76775000Y-41215000D02*
X76775000Y-84515000D01*
X76775000Y-41215000D02*
X79375000Y-41215000D01*
X76775000Y-84515000D02*
X81975000Y-84515000D01*
X79375000Y-41215000D02*
X79375000Y-43815000D01*
X79375000Y-43815000D02*
X81975000Y-43815000D01*
X80645000Y-41215000D02*
X81975000Y-41215000D01*
X81975000Y-41215000D02*
X81975000Y-42545000D01*
X81975000Y-43815000D02*
X81975000Y-84515000D01*
%TO.C,C66*%
X88960000Y-47692164D02*
X88960000Y-47907836D01*
X88240000Y-47692164D02*
X88240000Y-47907836D01*
%TO.C,U4*%
X108681000Y-66659000D02*
X108311000Y-66659000D01*
X108681000Y-66659000D02*
X108681000Y-67949000D01*
X108311000Y-66659000D02*
X108311000Y-66399000D01*
X105811000Y-66659000D02*
X105441000Y-66659000D01*
X105441000Y-66659000D02*
X105441000Y-67949000D01*
X108681000Y-69899000D02*
X108681000Y-69399000D01*
X108681000Y-69899000D02*
X108311000Y-69899000D01*
X105811000Y-69899000D02*
X105441000Y-69899000D01*
X105441000Y-69899000D02*
X105441000Y-69399000D01*
%TO.C,R43*%
X83880000Y-56646359D02*
X83880000Y-56953641D01*
X83120000Y-56646359D02*
X83120000Y-56953641D01*
%TO.C,J2*%
X119150000Y-40775000D02*
X119150000Y-42775000D01*
X117900000Y-40775000D02*
X119150000Y-40775000D01*
X118760000Y-41165000D02*
X111290000Y-41165000D01*
X111290000Y-41165000D02*
X111290000Y-71865000D01*
X112150000Y-42315000D02*
X116450000Y-42315000D01*
X112150000Y-43065000D02*
X112150000Y-42315000D01*
X116450000Y-45315000D02*
X112150000Y-45315000D01*
X112150000Y-45315000D02*
X112150000Y-44565000D01*
X112150000Y-47395000D02*
X116450000Y-47395000D01*
X112150000Y-48145000D02*
X112150000Y-47395000D01*
X116450000Y-50395000D02*
X112150000Y-50395000D01*
X112150000Y-50395000D02*
X112150000Y-49645000D01*
X112150000Y-52475000D02*
X116450000Y-52475000D01*
X112150000Y-53225000D02*
X112150000Y-52475000D01*
X116450000Y-55475000D02*
X112150000Y-55475000D01*
X112150000Y-55475000D02*
X112150000Y-54725000D01*
X112150000Y-57555000D02*
X116450000Y-57555000D01*
X112150000Y-58305000D02*
X112150000Y-57555000D01*
X116450000Y-60555000D02*
X112150000Y-60555000D01*
X112150000Y-60555000D02*
X112150000Y-59805000D01*
X112150000Y-62635000D02*
X116450000Y-62635000D01*
X112150000Y-63385000D02*
X112150000Y-62635000D01*
X116450000Y-65635000D02*
X112150000Y-65635000D01*
X112150000Y-65635000D02*
X112150000Y-64885000D01*
X112150000Y-67715000D02*
X116450000Y-67715000D01*
X112150000Y-68465000D02*
X112150000Y-67715000D01*
X116450000Y-70715000D02*
X112150000Y-70715000D01*
X112150000Y-70715000D02*
X112150000Y-69965000D01*
X111290000Y-71865000D02*
X118760000Y-71865000D01*
X112150155Y-44564647D02*
G75*
G03*
X112150000Y-43065000I-1700155J749647D01*
G01*
X112150155Y-49644647D02*
G75*
G03*
X112150000Y-48145000I-1700155J749647D01*
G01*
X112150155Y-54724647D02*
G75*
G03*
X112150000Y-53225000I-1700155J749647D01*
G01*
X112150155Y-59804647D02*
G75*
G03*
X112150000Y-58305000I-1700155J749647D01*
G01*
X112150155Y-64884647D02*
G75*
G03*
X112150000Y-63385000I-1700155J749647D01*
G01*
X112150155Y-69964647D02*
G75*
G03*
X112150000Y-68465000I-1700155J749647D01*
G01*
%TO.C,C23*%
X100074000Y-55893580D02*
X100074000Y-55612420D01*
X101094000Y-55893580D02*
X101094000Y-55612420D01*
%TO.C,R14*%
X90880000Y-77846359D02*
X90880000Y-78153641D01*
X90120000Y-77846359D02*
X90120000Y-78153641D01*
%TO.C,R18*%
X90880000Y-74046359D02*
X90880000Y-74353641D01*
X90120000Y-74046359D02*
X90120000Y-74353641D01*
%TO.C,R33*%
X83146359Y-68720000D02*
X83453641Y-68720000D01*
X83146359Y-69480000D02*
X83453641Y-69480000D01*
%TO.C,R24*%
X87980000Y-53346359D02*
X87980000Y-53653641D01*
X87220000Y-53346359D02*
X87220000Y-53653641D01*
%TO.C,D1*%
X89760000Y-77700000D02*
X89760000Y-76300000D01*
X87440000Y-76300000D02*
X87440000Y-78200000D01*
%TO.C,R38*%
X85180000Y-73446360D02*
X85180000Y-73753642D01*
X84420000Y-73446360D02*
X84420000Y-73753642D01*
%TO.C,C50*%
X101598000Y-70625580D02*
X101598000Y-70344420D01*
X102618000Y-70625580D02*
X102618000Y-70344420D01*
%TO.C,U5*%
X107792000Y-74025000D02*
X107422000Y-74025000D01*
X107792000Y-74025000D02*
X107792000Y-75315000D01*
X107422000Y-74025000D02*
X107422000Y-73765000D01*
X104922000Y-74025000D02*
X104552000Y-74025000D01*
X104552000Y-74025000D02*
X104552000Y-75315000D01*
X107792000Y-77265000D02*
X107792000Y-76765000D01*
X107792000Y-77265000D02*
X107422000Y-77265000D01*
X104922000Y-77265000D02*
X104552000Y-77265000D01*
X104552000Y-77265000D02*
X104552000Y-76765000D01*
%TO.C,C73*%
X95210000Y-65559420D02*
X95210000Y-65840580D01*
X94190000Y-65559420D02*
X94190000Y-65840580D01*
%TO.C,R5*%
X97118141Y-49719500D02*
X96810859Y-49719500D01*
X97118141Y-48959500D02*
X96810859Y-48959500D01*
%TO.C,C47*%
X107842164Y-70506000D02*
X108057836Y-70506000D01*
X107842164Y-71226000D02*
X108057836Y-71226000D01*
%TO.C,C8*%
X91459420Y-53389999D02*
X91740580Y-53389999D01*
X91459420Y-54409999D02*
X91740580Y-54409999D01*
%TO.C,C12*%
X103122000Y-48527580D02*
X103122000Y-48246420D01*
X104142000Y-48527580D02*
X104142000Y-48246420D01*
%TO.C,C33*%
X109368000Y-61956836D02*
X109368000Y-61741164D01*
X110088000Y-61956836D02*
X110088000Y-61741164D01*
%TO.C,C75*%
X94692164Y-58540000D02*
X94907836Y-58540000D01*
X94692164Y-59260000D02*
X94907836Y-59260000D01*
%TO.C,R34*%
X83146359Y-71720001D02*
X83453641Y-71720001D01*
X83146359Y-72480001D02*
X83453641Y-72480001D01*
D13*
%TO.C,Q4*%
X96410000Y-72268000D02*
X96410000Y-72768000D01*
X96410000Y-72268000D02*
X96910000Y-72268000D01*
X96410000Y-73568000D02*
X96410000Y-74068000D01*
X96410000Y-74618000D02*
X96410000Y-75118000D01*
X96410000Y-75568000D02*
X96410000Y-76068000D01*
X96410000Y-76068000D02*
X96910000Y-76068000D01*
X97410000Y-72268000D02*
X97910000Y-72268000D01*
X97410000Y-76068000D02*
X97910000Y-76068000D01*
X98410000Y-72268000D02*
X98910000Y-72268000D01*
X98410000Y-76068000D02*
X98910000Y-76068000D01*
X99410000Y-72268000D02*
X99910000Y-72268000D01*
X99410000Y-76068000D02*
X99910000Y-76068000D01*
X100410000Y-72268000D02*
X100910000Y-72268000D01*
X100410000Y-76068000D02*
X100910000Y-76068000D01*
X101410000Y-72268000D02*
X101710000Y-72268000D01*
X101410000Y-76068000D02*
X101710000Y-76068000D01*
X101710000Y-72268000D02*
X101710000Y-72768000D01*
X101710000Y-73268000D02*
X101710000Y-73768000D01*
X101710000Y-74568000D02*
X101710000Y-75068000D01*
X101710000Y-75568000D02*
X101710000Y-76068000D01*
D12*
X96314000Y-71918000D02*
G75*
G03*
X96314000Y-71918000I-254000J0D01*
G01*
%TO.C,C79*%
X83407836Y-65460000D02*
X83192164Y-65460000D01*
X83407836Y-64740000D02*
X83192164Y-64740000D01*
%TO.C,R21*%
X83420000Y-49753641D02*
X83420000Y-49446359D01*
X84180000Y-49753641D02*
X84180000Y-49446359D01*
%TO.C,C31*%
X97072336Y-56113000D02*
X96856664Y-56113000D01*
X97072336Y-55393000D02*
X96856664Y-55393000D01*
%TO.C,C62*%
X91140000Y-78107836D02*
X91140000Y-77892164D01*
X91860000Y-78107836D02*
X91860000Y-77892164D01*
%TO.C,U3*%
X108681000Y-59293000D02*
X108311000Y-59293000D01*
X108681000Y-59293000D02*
X108681000Y-60583000D01*
X108311000Y-59293000D02*
X108311000Y-59033000D01*
X105811000Y-59293000D02*
X105441000Y-59293000D01*
X105441000Y-59293000D02*
X105441000Y-60583000D01*
X108681000Y-62533000D02*
X108681000Y-62033000D01*
X108681000Y-62533000D02*
X108311000Y-62533000D01*
X105811000Y-62533000D02*
X105441000Y-62533000D01*
X105441000Y-62533000D02*
X105441000Y-62033000D01*
%TO.C,C63*%
X91860000Y-72192164D02*
X91860000Y-72407836D01*
X91140000Y-72192164D02*
X91140000Y-72407836D01*
%TO.C,C19*%
X106953164Y-50313000D02*
X107168836Y-50313000D01*
X106953164Y-51033000D02*
X107168836Y-51033000D01*
%TO.C,C4*%
X91335000Y-43338748D02*
X91335000Y-43861252D01*
X89865000Y-43338748D02*
X89865000Y-43861252D01*
%TO.C,R7*%
X97118141Y-57085500D02*
X96810859Y-57085500D01*
X97118141Y-56325500D02*
X96810859Y-56325500D01*
%TO.C,R22*%
X87220000Y-47953641D02*
X87220000Y-47646359D01*
X87980000Y-47953641D02*
X87980000Y-47646359D01*
D10*
%TO.C,U7*%
X98900000Y-41999999D02*
X98900000Y-43050000D01*
X98874501Y-41999999D02*
X98900000Y-41999999D01*
X93875001Y-41999999D02*
X94025001Y-41999999D01*
X93875001Y-41999999D02*
X93875001Y-46200001D01*
X98900000Y-45150000D02*
X98900000Y-46200001D01*
X98874501Y-46200001D02*
X98900000Y-46200001D01*
X93875001Y-46200001D02*
X94025001Y-46200001D01*
D14*
X98387001Y-41600000D02*
G75*
G03*
X98387001Y-41600000I-125001J0D01*
G01*
D12*
%TO.C,C57*%
X97072336Y-70845000D02*
X96856664Y-70845000D01*
X97072336Y-70125000D02*
X96856664Y-70125000D01*
%TO.C,R12*%
X90120000Y-76253641D02*
X90120000Y-75946359D01*
X90880000Y-76253641D02*
X90880000Y-75946359D01*
%TO.C,R1*%
X100153641Y-46780000D02*
X99846359Y-46780000D01*
X100153641Y-46020000D02*
X99846359Y-46020000D01*
%TO.C,C30*%
X94761164Y-59965000D02*
X94976836Y-59965000D01*
X94761164Y-60685000D02*
X94976836Y-60685000D01*
%TO.C,R3*%
X99846359Y-45020000D02*
X100153641Y-45020000D01*
X99846359Y-45780000D02*
X100153641Y-45780000D01*
%TO.C,C18*%
X97072336Y-48747000D02*
X96856664Y-48747000D01*
X97072336Y-48027000D02*
X96856664Y-48027000D01*
%TO.C,D3*%
X84540000Y-47900000D02*
X84540000Y-49300000D01*
X86860000Y-49300000D02*
X86860000Y-47400000D01*
%TO.C,X1*%
X89480000Y-56290000D02*
X90120000Y-56290000D01*
X91360000Y-57020000D02*
X91360000Y-56330000D01*
X88440000Y-57230000D02*
X88440000Y-57570000D01*
X91160000Y-57240000D02*
X91160000Y-57570000D01*
X89480000Y-58510000D02*
X90120000Y-58510000D01*
X91160000Y-57240000D02*
G75*
G03*
X91359999Y-57020000I-120002J310001D01*
G01*
%TO.C,C1*%
X110236834Y-78920407D02*
X110793680Y-78363560D01*
X110236834Y-78363560D02*
X110793680Y-78920407D01*
X110611202Y-77841671D02*
X111520233Y-78750701D01*
X110611202Y-77841671D02*
X110611202Y-76336329D01*
X113928329Y-81158798D02*
X113019299Y-80249767D01*
X113928329Y-81158798D02*
X115433671Y-81158798D01*
X110611202Y-76336329D02*
X114681000Y-72266532D01*
X115433671Y-81158798D02*
X119503468Y-77089000D01*
X114681000Y-72266532D02*
X116342701Y-73928233D01*
X119503468Y-77089000D02*
X117841767Y-75427299D01*
%TO.C,U6*%
X93110000Y-52500000D02*
X93110000Y-49500000D01*
X89890000Y-51000000D02*
X89890000Y-49500000D01*
%TO.C,C61*%
X91860000Y-75992164D02*
X91860000Y-76207836D01*
X91140000Y-75992164D02*
X91140000Y-76207836D01*
%TO.C,R20*%
X87980000Y-49546359D02*
X87980000Y-49853641D01*
X87220000Y-49546359D02*
X87220000Y-49853641D01*
%TO.C,R44*%
X84153641Y-58680000D02*
X83846359Y-58680000D01*
X84153641Y-57920000D02*
X83846359Y-57920000D01*
%TO.C,C3*%
X102735000Y-43338748D02*
X102735000Y-43861252D01*
X101265000Y-43338748D02*
X101265000Y-43861252D01*
%TO.C,R9*%
X97118141Y-64451500D02*
X96810859Y-64451500D01*
X97118141Y-63691500D02*
X96810859Y-63691500D01*
D13*
%TO.C,Q2*%
X96410000Y-57536000D02*
X96410000Y-58036000D01*
X96410000Y-57536000D02*
X96910000Y-57536000D01*
X96410000Y-58836000D02*
X96410000Y-59336000D01*
X96410000Y-59886000D02*
X96410000Y-60386000D01*
X96410000Y-60836000D02*
X96410000Y-61336000D01*
X96410000Y-61336000D02*
X96910000Y-61336000D01*
X97410000Y-57536000D02*
X97910000Y-57536000D01*
X97410000Y-61336000D02*
X97910000Y-61336000D01*
X98410000Y-57536000D02*
X98910000Y-57536000D01*
X98410000Y-61336000D02*
X98910000Y-61336000D01*
X99410000Y-57536000D02*
X99910000Y-57536000D01*
X99410000Y-61336000D02*
X99910000Y-61336000D01*
X100410000Y-57536000D02*
X100910000Y-57536000D01*
X100410000Y-61336000D02*
X100910000Y-61336000D01*
X101410000Y-57536000D02*
X101710000Y-57536000D01*
X101410000Y-61336000D02*
X101710000Y-61336000D01*
X101710000Y-57536000D02*
X101710000Y-58036000D01*
X101710000Y-58536000D02*
X101710000Y-59036000D01*
X101710000Y-59836000D02*
X101710000Y-60336000D01*
X101710000Y-60836000D02*
X101710000Y-61336000D01*
D12*
X96314000Y-57186000D02*
G75*
G03*
X96314000Y-57186000I-254000J0D01*
G01*
%TO.C,R35*%
X85180000Y-71446359D02*
X85180000Y-71753641D01*
X84420000Y-71446359D02*
X84420000Y-71753641D01*
%TO.C,C21*%
X107842164Y-55774000D02*
X108057836Y-55774000D01*
X107842164Y-56494000D02*
X108057836Y-56494000D01*
%TO.C,R28*%
X87120000Y-57953641D02*
X87120000Y-57646359D01*
X87880000Y-57953641D02*
X87880000Y-57646359D01*
%TO.C,C29*%
X94976836Y-61828000D02*
X94761164Y-61828000D01*
X94976836Y-61108000D02*
X94761164Y-61108000D01*
%TO.C,C49*%
X100074000Y-70625580D02*
X100074000Y-70344420D01*
X101094000Y-70625580D02*
X101094000Y-70344420D01*
%TO.C,C60*%
X106953164Y-77872000D02*
X107168836Y-77872000D01*
X106953164Y-78592000D02*
X107168836Y-78592000D01*
%TO.C,R32*%
X85180000Y-69446359D02*
X85180000Y-69753641D01*
X84420000Y-69446359D02*
X84420000Y-69753641D01*
%TO.C,R8*%
X96810859Y-69152500D02*
X97118141Y-69152500D01*
X96810859Y-69912500D02*
X97118141Y-69912500D01*
%TO.C,C68*%
X88960000Y-51492164D02*
X88960000Y-51707836D01*
X88240000Y-51492164D02*
X88240000Y-51707836D01*
%TO.C,C42*%
X94976836Y-69194000D02*
X94761164Y-69194000D01*
X94976836Y-68474000D02*
X94761164Y-68474000D01*
%TO.C,J3*%
X90110000Y-85150000D02*
X90110000Y-83820000D01*
X91440000Y-85150000D02*
X90110000Y-85150000D01*
X92710000Y-85150000D02*
X102930000Y-85150000D01*
X92710000Y-85150000D02*
X92710000Y-82490000D01*
X102930000Y-85150000D02*
X102930000Y-82490000D01*
X92710000Y-82490000D02*
X102930000Y-82490000D01*
%TO.C,C5*%
X93435000Y-43338748D02*
X93435000Y-43861252D01*
X91965000Y-43338748D02*
X91965000Y-43861252D01*
%TO.C,C35*%
X98550000Y-63259580D02*
X98550000Y-62978420D01*
X99570000Y-63259580D02*
X99570000Y-62978420D01*
%TO.C,C45*%
X106953164Y-65045000D02*
X107168836Y-65045000D01*
X106953164Y-65765000D02*
X107168836Y-65765000D01*
D13*
%TO.C,Q3*%
X96410000Y-64902000D02*
X96410000Y-65402000D01*
X96410000Y-64902000D02*
X96910000Y-64902000D01*
X96410000Y-66202000D02*
X96410000Y-66702000D01*
X96410000Y-67252000D02*
X96410000Y-67752000D01*
X96410000Y-68202000D02*
X96410000Y-68702000D01*
X96410000Y-68702000D02*
X96910000Y-68702000D01*
X97410000Y-64902000D02*
X97910000Y-64902000D01*
X97410000Y-68702000D02*
X97910000Y-68702000D01*
X98410000Y-64902000D02*
X98910000Y-64902000D01*
X98410000Y-68702000D02*
X98910000Y-68702000D01*
X99410000Y-64902000D02*
X99910000Y-64902000D01*
X99410000Y-68702000D02*
X99910000Y-68702000D01*
X100410000Y-64902000D02*
X100910000Y-64902000D01*
X100410000Y-68702000D02*
X100910000Y-68702000D01*
X101410000Y-64902000D02*
X101710000Y-64902000D01*
X101410000Y-68702000D02*
X101710000Y-68702000D01*
X101710000Y-64902000D02*
X101710000Y-65402000D01*
X101710000Y-65902000D02*
X101710000Y-66402000D01*
X101710000Y-67202000D02*
X101710000Y-67702000D01*
X101710000Y-68202000D02*
X101710000Y-68702000D01*
D12*
X96314000Y-64552000D02*
G75*
G03*
X96314000Y-64552000I-254000J0D01*
G01*
D13*
%TO.C,U1*%
X91775000Y-59475000D02*
X92275000Y-59475000D01*
X90775000Y-59475000D02*
X91275000Y-59475000D01*
X89775000Y-59475000D02*
X90275000Y-59475000D01*
X88775000Y-59475000D02*
X89275000Y-59475000D01*
X87775000Y-59475000D02*
X88275000Y-59475000D01*
X86775000Y-59475000D02*
X87275000Y-59475000D01*
X85775000Y-59475000D02*
X86275000Y-59475000D01*
X84775000Y-59475000D02*
X85275000Y-59475000D01*
X84775000Y-59725000D02*
X84775000Y-59475000D01*
X93025000Y-60475000D02*
X93025000Y-60975000D01*
X84775000Y-60725000D02*
X84775000Y-60225000D01*
X93025000Y-61475000D02*
X93025000Y-61975000D01*
X84775000Y-61725000D02*
X84775000Y-61225000D01*
X93025000Y-62475000D02*
X93025000Y-62975000D01*
X84775000Y-62725000D02*
X84775000Y-62225000D01*
X93025000Y-63475000D02*
X93025000Y-63975000D01*
X84775000Y-63725000D02*
X84775000Y-63225000D01*
X93025000Y-64475000D02*
X93025000Y-64975000D01*
X84775000Y-64725000D02*
X84775000Y-64225000D01*
X93025000Y-65475000D02*
X93025000Y-65975000D01*
X84775000Y-65725000D02*
X84775000Y-65225000D01*
X93025000Y-66475000D02*
X93025000Y-66975000D01*
X84775000Y-66725000D02*
X84775000Y-66225000D01*
X93025000Y-67475000D02*
X93025000Y-67725000D01*
X93025000Y-67725000D02*
X92525000Y-67725000D01*
X92025000Y-67725000D02*
X91525000Y-67725000D01*
X91025000Y-67725000D02*
X90525000Y-67725000D01*
X90025000Y-67725000D02*
X89525000Y-67725000D01*
X89025000Y-67725000D02*
X88525000Y-67725000D01*
X88025000Y-67725000D02*
X87525000Y-67725000D01*
X87025000Y-67725000D02*
X86525000Y-67725000D01*
X86025000Y-67725000D02*
X85525000Y-67725000D01*
X85025000Y-67725000D02*
X84775000Y-67725000D01*
X84775000Y-67725000D02*
X84775000Y-67225000D01*
D15*
X93306750Y-59350000D02*
G75*
G03*
X93306750Y-59350000I-156750J0D01*
G01*
D12*
%TO.C,C25*%
X103122000Y-55893580D02*
X103122000Y-55612420D01*
X104142000Y-55893580D02*
X104142000Y-55612420D01*
%TO.C,R17*%
X86046359Y-74320000D02*
X86353641Y-74320000D01*
X86046359Y-75080000D02*
X86353641Y-75080000D01*
%TO.C,C64*%
X91140000Y-74307836D02*
X91140000Y-74092164D01*
X91860000Y-74307836D02*
X91860000Y-74092164D01*
%TO.C,R30*%
X96053641Y-78780000D02*
X95746359Y-78780000D01*
X96053641Y-78020000D02*
X95746359Y-78020000D01*
%TO.C,C65*%
X88240000Y-49807836D02*
X88240000Y-49592164D01*
X88960000Y-49807836D02*
X88960000Y-49592164D01*
%TO.C,C36*%
X100074000Y-63259580D02*
X100074000Y-62978420D01*
X101094000Y-63259580D02*
X101094000Y-62978420D01*
%TO.C,R23*%
X84180000Y-47546359D02*
X84180000Y-47853641D01*
X83420000Y-47546359D02*
X83420000Y-47853641D01*
%TD*%
%LPC*%
%TO.C,Q1*%
G36*
X96515000Y-51630000D02*
G01*
X97005000Y-51630000D01*
X97005000Y-51360000D01*
X96515000Y-51360000D01*
X96515000Y-51630000D01*
G37*
G36*
X96515000Y-52130000D02*
G01*
X97005000Y-52130000D01*
X97005000Y-51860000D01*
X96515000Y-51860000D01*
X96515000Y-52130000D01*
G37*
G36*
X96515000Y-52630000D02*
G01*
X97005000Y-52630000D01*
X97005000Y-52360000D01*
X96515000Y-52360000D01*
X96515000Y-52630000D01*
G37*
G36*
X96515000Y-53130000D02*
G01*
X97005000Y-53130000D01*
X97005000Y-52860000D01*
X96515000Y-52860000D01*
X96515000Y-53130000D01*
G37*
G36*
X97520000Y-50765000D02*
G01*
X97250000Y-50765000D01*
X97250000Y-50275000D01*
X97520000Y-50275000D01*
X97520000Y-50765000D01*
G37*
G36*
X97600000Y-53375000D02*
G01*
X97870000Y-53375000D01*
X97870000Y-53865000D01*
X97600000Y-53865000D01*
X97600000Y-53375000D01*
G37*
G36*
X98020000Y-50765000D02*
G01*
X97750000Y-50765000D01*
X97750000Y-50275000D01*
X98020000Y-50275000D01*
X98020000Y-50765000D01*
G37*
G36*
X98100000Y-53375000D02*
G01*
X98370000Y-53375000D01*
X98370000Y-53865000D01*
X98100000Y-53865000D01*
X98100000Y-53375000D01*
G37*
G36*
X98251000Y-51878000D02*
G01*
X101560000Y-51878000D01*
X101560000Y-52262000D01*
X98251000Y-52262000D01*
X98251000Y-51878000D01*
G37*
G36*
X97368000Y-53872000D02*
G01*
X97098000Y-53872000D01*
X97098000Y-53637000D01*
X96510000Y-53637000D01*
X96510000Y-53367000D01*
X97368000Y-53367000D01*
X97368000Y-53872000D01*
G37*
G36*
X97020000Y-50780000D02*
G01*
X96515000Y-50780000D01*
X96515000Y-50510000D01*
X96750000Y-50510000D01*
X96750000Y-50275000D01*
X97020000Y-50275000D01*
X97020000Y-50780000D01*
G37*
G36*
X98900000Y-50485000D02*
G01*
X99130000Y-50485000D01*
X99130000Y-50265000D01*
X99400000Y-50265000D01*
X99400000Y-50485000D01*
X99630000Y-50485000D01*
X99630000Y-50265000D01*
X99900000Y-50265000D01*
X99900000Y-50485000D01*
X100130000Y-50485000D01*
X100130000Y-50265000D01*
X100400000Y-50265000D01*
X100400000Y-50485000D01*
X100630000Y-50485000D01*
X100630000Y-50265000D01*
X100900000Y-50265000D01*
X100900000Y-50485000D01*
X101130000Y-50485000D01*
X101130000Y-50265000D01*
X101400000Y-50265000D01*
X101400000Y-50485000D01*
X101630000Y-50485000D01*
X101630000Y-51015000D01*
X98630000Y-51015000D01*
X98630000Y-50265000D01*
X98900000Y-50265000D01*
X98900000Y-50485000D01*
G37*
G36*
X101630000Y-53655000D02*
G01*
X101400000Y-53655000D01*
X101400000Y-53875000D01*
X101130000Y-53875000D01*
X101130000Y-53655000D01*
X100900000Y-53655000D01*
X100900000Y-53875000D01*
X100630000Y-53875000D01*
X100630000Y-53655000D01*
X100400000Y-53655000D01*
X100400000Y-53875000D01*
X100130000Y-53875000D01*
X100130000Y-53655000D01*
X99900000Y-53655000D01*
X99900000Y-53875000D01*
X99630000Y-53875000D01*
X99630000Y-53655000D01*
X99400000Y-53655000D01*
X99400000Y-53875000D01*
X99130000Y-53875000D01*
X99130000Y-53655000D01*
X98900000Y-53655000D01*
X98900000Y-53875000D01*
X98630000Y-53875000D01*
X98630000Y-53125000D01*
X101630000Y-53125000D01*
X101630000Y-53655000D01*
G37*
%TO.C,Q4*%
G36*
X96515000Y-73728000D02*
G01*
X97005000Y-73728000D01*
X97005000Y-73458000D01*
X96515000Y-73458000D01*
X96515000Y-73728000D01*
G37*
G36*
X96515000Y-74228000D02*
G01*
X97005000Y-74228000D01*
X97005000Y-73958000D01*
X96515000Y-73958000D01*
X96515000Y-74228000D01*
G37*
G36*
X96515000Y-74728000D02*
G01*
X97005000Y-74728000D01*
X97005000Y-74458000D01*
X96515000Y-74458000D01*
X96515000Y-74728000D01*
G37*
G36*
X96515000Y-75228000D02*
G01*
X97005000Y-75228000D01*
X97005000Y-74958000D01*
X96515000Y-74958000D01*
X96515000Y-75228000D01*
G37*
G36*
X97520000Y-72863000D02*
G01*
X97250000Y-72863000D01*
X97250000Y-72373000D01*
X97520000Y-72373000D01*
X97520000Y-72863000D01*
G37*
G36*
X97600000Y-75473000D02*
G01*
X97870000Y-75473000D01*
X97870000Y-75963000D01*
X97600000Y-75963000D01*
X97600000Y-75473000D01*
G37*
G36*
X98020000Y-72863000D02*
G01*
X97750000Y-72863000D01*
X97750000Y-72373000D01*
X98020000Y-72373000D01*
X98020000Y-72863000D01*
G37*
G36*
X98100000Y-75473000D02*
G01*
X98370000Y-75473000D01*
X98370000Y-75963000D01*
X98100000Y-75963000D01*
X98100000Y-75473000D01*
G37*
G36*
X98251000Y-73976000D02*
G01*
X101560000Y-73976000D01*
X101560000Y-74360000D01*
X98251000Y-74360000D01*
X98251000Y-73976000D01*
G37*
G36*
X97368000Y-75970000D02*
G01*
X97098000Y-75970000D01*
X97098000Y-75735000D01*
X96510000Y-75735000D01*
X96510000Y-75465000D01*
X97368000Y-75465000D01*
X97368000Y-75970000D01*
G37*
G36*
X97020000Y-72878000D02*
G01*
X96515000Y-72878000D01*
X96515000Y-72608000D01*
X96750000Y-72608000D01*
X96750000Y-72373000D01*
X97020000Y-72373000D01*
X97020000Y-72878000D01*
G37*
G36*
X98900000Y-72583000D02*
G01*
X99130000Y-72583000D01*
X99130000Y-72363000D01*
X99400000Y-72363000D01*
X99400000Y-72583000D01*
X99630000Y-72583000D01*
X99630000Y-72363000D01*
X99900000Y-72363000D01*
X99900000Y-72583000D01*
X100130000Y-72583000D01*
X100130000Y-72363000D01*
X100400000Y-72363000D01*
X100400000Y-72583000D01*
X100630000Y-72583000D01*
X100630000Y-72363000D01*
X100900000Y-72363000D01*
X100900000Y-72583000D01*
X101130000Y-72583000D01*
X101130000Y-72363000D01*
X101400000Y-72363000D01*
X101400000Y-72583000D01*
X101630000Y-72583000D01*
X101630000Y-73113000D01*
X98630000Y-73113000D01*
X98630000Y-72363000D01*
X98900000Y-72363000D01*
X98900000Y-72583000D01*
G37*
G36*
X101630000Y-75753000D02*
G01*
X101400000Y-75753000D01*
X101400000Y-75973000D01*
X101130000Y-75973000D01*
X101130000Y-75753000D01*
X100900000Y-75753000D01*
X100900000Y-75973000D01*
X100630000Y-75973000D01*
X100630000Y-75753000D01*
X100400000Y-75753000D01*
X100400000Y-75973000D01*
X100130000Y-75973000D01*
X100130000Y-75753000D01*
X99900000Y-75753000D01*
X99900000Y-75973000D01*
X99630000Y-75973000D01*
X99630000Y-75753000D01*
X99400000Y-75753000D01*
X99400000Y-75973000D01*
X99130000Y-75973000D01*
X99130000Y-75753000D01*
X98900000Y-75753000D01*
X98900000Y-75973000D01*
X98630000Y-75973000D01*
X98630000Y-75223000D01*
X101630000Y-75223000D01*
X101630000Y-75753000D01*
G37*
%TO.C,U7*%
G36*
X94625000Y-42200001D02*
G01*
X94625000Y-42474999D01*
X94674999Y-42524999D01*
X94824999Y-42524999D01*
X94875002Y-42474999D01*
X94874999Y-42200001D01*
X94924999Y-42149999D01*
X95075001Y-42149999D01*
X95124999Y-42200001D01*
X95125001Y-42474999D01*
X95175001Y-42524999D01*
X95325001Y-42524999D01*
X95375001Y-42474999D01*
X95375001Y-42200001D01*
X95425000Y-42149999D01*
X95575000Y-42149999D01*
X95625000Y-42200001D01*
X95625000Y-42474999D01*
X95675000Y-42524999D01*
X95825002Y-42525002D01*
X95875000Y-42474999D01*
X95875002Y-42200001D01*
X95924999Y-42149999D01*
X96075002Y-42149999D01*
X96124999Y-42200001D01*
X96125002Y-42475002D01*
X96175002Y-42524999D01*
X96275027Y-42525004D01*
X96324999Y-42574999D01*
X96324989Y-43600001D01*
X96274999Y-43650001D01*
X94325003Y-43650003D01*
X94275000Y-43600004D01*
X94275000Y-42575002D01*
X94325003Y-42524999D01*
X94325000Y-42524999D01*
X94375000Y-42474999D01*
X94375000Y-42200001D01*
X94425000Y-42149999D01*
X94575000Y-42149999D01*
X94625000Y-42200001D01*
G37*
G36*
X96274999Y-44549999D02*
G01*
X96324994Y-44599999D01*
X96324999Y-45625001D01*
X96275022Y-45674996D01*
X96175002Y-45675001D01*
X96124999Y-45724998D01*
X96124999Y-45999999D01*
X96074999Y-46050001D01*
X95924999Y-46050001D01*
X95875002Y-45999999D01*
X95875000Y-45725001D01*
X95825002Y-45675001D01*
X95675000Y-45675001D01*
X95625000Y-45725001D01*
X95625000Y-45999999D01*
X95575000Y-46050001D01*
X95425000Y-46049999D01*
X95375001Y-45999999D01*
X95375001Y-45725001D01*
X95325001Y-45675001D01*
X95175001Y-45675001D01*
X95125001Y-45725001D01*
X95124999Y-45999999D01*
X95075001Y-46050001D01*
X94924999Y-46050001D01*
X94874999Y-45999999D01*
X94874999Y-45725001D01*
X94824999Y-45675001D01*
X94674999Y-45675001D01*
X94625000Y-45725001D01*
X94625000Y-45999999D01*
X94575000Y-46050001D01*
X94425000Y-46049999D01*
X94375000Y-45999999D01*
X94375000Y-45725001D01*
X94325000Y-45675001D01*
X94325003Y-45675001D01*
X94275000Y-45625001D01*
X94275000Y-44599999D01*
X94325003Y-44549997D01*
X96274999Y-44549999D01*
G37*
%TO.C,Q2*%
G36*
X96515000Y-58996000D02*
G01*
X97005000Y-58996000D01*
X97005000Y-58726000D01*
X96515000Y-58726000D01*
X96515000Y-58996000D01*
G37*
G36*
X96515000Y-59496000D02*
G01*
X97005000Y-59496000D01*
X97005000Y-59226000D01*
X96515000Y-59226000D01*
X96515000Y-59496000D01*
G37*
G36*
X96515000Y-59996000D02*
G01*
X97005000Y-59996000D01*
X97005000Y-59726000D01*
X96515000Y-59726000D01*
X96515000Y-59996000D01*
G37*
G36*
X96515000Y-60496000D02*
G01*
X97005000Y-60496000D01*
X97005000Y-60226000D01*
X96515000Y-60226000D01*
X96515000Y-60496000D01*
G37*
G36*
X97520000Y-58131000D02*
G01*
X97250000Y-58131000D01*
X97250000Y-57641000D01*
X97520000Y-57641000D01*
X97520000Y-58131000D01*
G37*
G36*
X97600000Y-60741000D02*
G01*
X97870000Y-60741000D01*
X97870000Y-61231000D01*
X97600000Y-61231000D01*
X97600000Y-60741000D01*
G37*
G36*
X98020000Y-58131000D02*
G01*
X97750000Y-58131000D01*
X97750000Y-57641000D01*
X98020000Y-57641000D01*
X98020000Y-58131000D01*
G37*
G36*
X98100000Y-60741000D02*
G01*
X98370000Y-60741000D01*
X98370000Y-61231000D01*
X98100000Y-61231000D01*
X98100000Y-60741000D01*
G37*
G36*
X98251000Y-59244000D02*
G01*
X101560000Y-59244000D01*
X101560000Y-59628000D01*
X98251000Y-59628000D01*
X98251000Y-59244000D01*
G37*
G36*
X97368000Y-61238000D02*
G01*
X97098000Y-61238000D01*
X97098000Y-61003000D01*
X96510000Y-61003000D01*
X96510000Y-60733000D01*
X97368000Y-60733000D01*
X97368000Y-61238000D01*
G37*
G36*
X97020000Y-58146000D02*
G01*
X96515000Y-58146000D01*
X96515000Y-57876000D01*
X96750000Y-57876000D01*
X96750000Y-57641000D01*
X97020000Y-57641000D01*
X97020000Y-58146000D01*
G37*
G36*
X98900000Y-57851000D02*
G01*
X99130000Y-57851000D01*
X99130000Y-57631000D01*
X99400000Y-57631000D01*
X99400000Y-57851000D01*
X99630000Y-57851000D01*
X99630000Y-57631000D01*
X99900000Y-57631000D01*
X99900000Y-57851000D01*
X100130000Y-57851000D01*
X100130000Y-57631000D01*
X100400000Y-57631000D01*
X100400000Y-57851000D01*
X100630000Y-57851000D01*
X100630000Y-57631000D01*
X100900000Y-57631000D01*
X100900000Y-57851000D01*
X101130000Y-57851000D01*
X101130000Y-57631000D01*
X101400000Y-57631000D01*
X101400000Y-57851000D01*
X101630000Y-57851000D01*
X101630000Y-58381000D01*
X98630000Y-58381000D01*
X98630000Y-57631000D01*
X98900000Y-57631000D01*
X98900000Y-57851000D01*
G37*
G36*
X101630000Y-61021000D02*
G01*
X101400000Y-61021000D01*
X101400000Y-61241000D01*
X101130000Y-61241000D01*
X101130000Y-61021000D01*
X100900000Y-61021000D01*
X100900000Y-61241000D01*
X100630000Y-61241000D01*
X100630000Y-61021000D01*
X100400000Y-61021000D01*
X100400000Y-61241000D01*
X100130000Y-61241000D01*
X100130000Y-61021000D01*
X99900000Y-61021000D01*
X99900000Y-61241000D01*
X99630000Y-61241000D01*
X99630000Y-61021000D01*
X99400000Y-61021000D01*
X99400000Y-61241000D01*
X99130000Y-61241000D01*
X99130000Y-61021000D01*
X98900000Y-61021000D01*
X98900000Y-61241000D01*
X98630000Y-61241000D01*
X98630000Y-60491000D01*
X101630000Y-60491000D01*
X101630000Y-61021000D01*
G37*
%TO.C,Q3*%
G36*
X96515000Y-66362000D02*
G01*
X97005000Y-66362000D01*
X97005000Y-66092000D01*
X96515000Y-66092000D01*
X96515000Y-66362000D01*
G37*
G36*
X96515000Y-66862000D02*
G01*
X97005000Y-66862000D01*
X97005000Y-66592000D01*
X96515000Y-66592000D01*
X96515000Y-66862000D01*
G37*
G36*
X96515000Y-67362000D02*
G01*
X97005000Y-67362000D01*
X97005000Y-67092000D01*
X96515000Y-67092000D01*
X96515000Y-67362000D01*
G37*
G36*
X96515000Y-67862000D02*
G01*
X97005000Y-67862000D01*
X97005000Y-67592000D01*
X96515000Y-67592000D01*
X96515000Y-67862000D01*
G37*
G36*
X97520000Y-65497000D02*
G01*
X97250000Y-65497000D01*
X97250000Y-65007000D01*
X97520000Y-65007000D01*
X97520000Y-65497000D01*
G37*
G36*
X97600000Y-68107000D02*
G01*
X97870000Y-68107000D01*
X97870000Y-68597000D01*
X97600000Y-68597000D01*
X97600000Y-68107000D01*
G37*
G36*
X98020000Y-65497000D02*
G01*
X97750000Y-65497000D01*
X97750000Y-65007000D01*
X98020000Y-65007000D01*
X98020000Y-65497000D01*
G37*
G36*
X98100000Y-68107000D02*
G01*
X98370000Y-68107000D01*
X98370000Y-68597000D01*
X98100000Y-68597000D01*
X98100000Y-68107000D01*
G37*
G36*
X98251000Y-66610000D02*
G01*
X101560000Y-66610000D01*
X101560000Y-66994000D01*
X98251000Y-66994000D01*
X98251000Y-66610000D01*
G37*
G36*
X97368000Y-68604000D02*
G01*
X97098000Y-68604000D01*
X97098000Y-68369000D01*
X96510000Y-68369000D01*
X96510000Y-68099000D01*
X97368000Y-68099000D01*
X97368000Y-68604000D01*
G37*
G36*
X97020000Y-65512000D02*
G01*
X96515000Y-65512000D01*
X96515000Y-65242000D01*
X96750000Y-65242000D01*
X96750000Y-65007000D01*
X97020000Y-65007000D01*
X97020000Y-65512000D01*
G37*
G36*
X98900000Y-65217000D02*
G01*
X99130000Y-65217000D01*
X99130000Y-64997000D01*
X99400000Y-64997000D01*
X99400000Y-65217000D01*
X99630000Y-65217000D01*
X99630000Y-64997000D01*
X99900000Y-64997000D01*
X99900000Y-65217000D01*
X100130000Y-65217000D01*
X100130000Y-64997000D01*
X100400000Y-64997000D01*
X100400000Y-65217000D01*
X100630000Y-65217000D01*
X100630000Y-64997000D01*
X100900000Y-64997000D01*
X100900000Y-65217000D01*
X101130000Y-65217000D01*
X101130000Y-64997000D01*
X101400000Y-64997000D01*
X101400000Y-65217000D01*
X101630000Y-65217000D01*
X101630000Y-65747000D01*
X98630000Y-65747000D01*
X98630000Y-64997000D01*
X98900000Y-64997000D01*
X98900000Y-65217000D01*
G37*
G36*
X101630000Y-68387000D02*
G01*
X101400000Y-68387000D01*
X101400000Y-68607000D01*
X101130000Y-68607000D01*
X101130000Y-68387000D01*
X100900000Y-68387000D01*
X100900000Y-68607000D01*
X100630000Y-68607000D01*
X100630000Y-68387000D01*
X100400000Y-68387000D01*
X100400000Y-68607000D01*
X100130000Y-68607000D01*
X100130000Y-68387000D01*
X99900000Y-68387000D01*
X99900000Y-68607000D01*
X99630000Y-68607000D01*
X99630000Y-68387000D01*
X99400000Y-68387000D01*
X99400000Y-68607000D01*
X99130000Y-68607000D01*
X99130000Y-68387000D01*
X98900000Y-68387000D01*
X98900000Y-68607000D01*
X98630000Y-68607000D01*
X98630000Y-67857000D01*
X101630000Y-67857000D01*
X101630000Y-68387000D01*
G37*
%TD*%
D16*
%TO.C,R36*%
X82790000Y-71100001D03*
X83810000Y-71100001D03*
%TD*%
D17*
%TO.C,C34*%
X107470000Y-63500000D03*
X108430000Y-63500000D03*
%TD*%
D18*
%TO.C,H2*%
X83700000Y-43815000D03*
X84293109Y-42383109D03*
X84293109Y-45246891D03*
X85725000Y-41790000D03*
D19*
X85725000Y-43815000D03*
D18*
X85725000Y-45840000D03*
X87156891Y-42383109D03*
X87156891Y-45246891D03*
X87750000Y-43815000D03*
%TD*%
D20*
%TO.C,R26*%
X87600000Y-52110000D03*
X87600000Y-51090000D03*
%TD*%
D21*
%TO.C,U2*%
X107560999Y-52146999D03*
D22*
X107760999Y-52681999D03*
D23*
X107460999Y-52781999D03*
D21*
X106560999Y-52146999D03*
D22*
X106360999Y-52681999D03*
D23*
X106660999Y-52781999D03*
D24*
X105610999Y-53696999D03*
X105610999Y-54196999D03*
D25*
X106310999Y-54946999D03*
D26*
X106810999Y-54896999D03*
X107310999Y-54896999D03*
D25*
X107810999Y-54946999D03*
D24*
X108510999Y-54196999D03*
X108510999Y-53696999D03*
%TD*%
D16*
%TO.C,R39*%
X82790000Y-73100000D03*
X83810000Y-73100000D03*
%TD*%
D27*
%TO.C,C44*%
X97444500Y-63119000D03*
X96484500Y-63119000D03*
%TD*%
D20*
%TO.C,R25*%
X83800000Y-54010000D03*
X83800000Y-52990000D03*
%TD*%
D16*
%TO.C,R6*%
X96454500Y-62166500D03*
X97474500Y-62166500D03*
%TD*%
%TO.C,R13*%
X85690000Y-76900000D03*
X86710000Y-76900000D03*
%TD*%
D17*
%TO.C,C43*%
X94389000Y-67691000D03*
X95349000Y-67691000D03*
%TD*%
D28*
%TO.C,D5*%
X101730000Y-80899000D03*
X98930000Y-80899000D03*
%TD*%
D29*
%TO.C,C20*%
X109728000Y-54963000D03*
X109728000Y-54003000D03*
%TD*%
D30*
%TO.C,R27*%
X83800000Y-51090000D03*
X83800000Y-52110000D03*
%TD*%
%TO.C,R42*%
X85500000Y-56290000D03*
X85500000Y-57310000D03*
%TD*%
D16*
%TO.C,R37*%
X82790000Y-74100000D03*
X83810000Y-74100000D03*
%TD*%
D31*
%TO.C,C72*%
X93200000Y-57675000D03*
X93200000Y-56125000D03*
%TD*%
D32*
%TO.C,D2*%
X87949999Y-74149999D03*
X88599999Y-74149999D03*
X89249999Y-74149999D03*
X89249999Y-72249999D03*
X88599999Y-72249999D03*
X87949999Y-72249999D03*
%TD*%
D31*
%TO.C,C38*%
X103632000Y-63894000D03*
X103632000Y-62344000D03*
%TD*%
D27*
%TO.C,C78*%
X83780000Y-62200000D03*
X82820000Y-62200000D03*
%TD*%
%TO.C,C55*%
X95349000Y-76200000D03*
X94389000Y-76200000D03*
%TD*%
D17*
%TO.C,C80*%
X94420000Y-63700000D03*
X95380000Y-63700000D03*
%TD*%
D27*
%TO.C,C69*%
X83780000Y-63200000D03*
X82820000Y-63200000D03*
%TD*%
D17*
%TO.C,C56*%
X94389000Y-75057000D03*
X95349000Y-75057000D03*
%TD*%
D33*
%TO.C,C70*%
X89700000Y-69025000D03*
X89700000Y-70575000D03*
%TD*%
%TO.C,C71*%
X83400000Y-66325000D03*
X83400000Y-67875000D03*
%TD*%
D20*
%TO.C,R16*%
X90500000Y-72810000D03*
X90500000Y-71790000D03*
%TD*%
D31*
%TO.C,C22*%
X99060000Y-56528000D03*
X99060000Y-54978000D03*
%TD*%
%TO.C,C10*%
X99060000Y-49162000D03*
X99060000Y-47612000D03*
%TD*%
D16*
%TO.C,R15*%
X85690000Y-78000000D03*
X86710000Y-78000000D03*
%TD*%
D31*
%TO.C,C48*%
X99060000Y-71260000D03*
X99060000Y-69710000D03*
%TD*%
D34*
%TO.C,C6*%
X90725000Y-48100000D03*
X92275000Y-48100000D03*
%TD*%
D20*
%TO.C,R29*%
X87500000Y-56410000D03*
X87500000Y-55390000D03*
%TD*%
D16*
%TO.C,R10*%
X96454500Y-76898500D03*
X97474500Y-76898500D03*
%TD*%
D35*
%TO.C,C85*%
X91900000Y-56720000D03*
X91900000Y-57680000D03*
%TD*%
D31*
%TO.C,C9*%
X100584000Y-49162000D03*
X100584000Y-47612000D03*
%TD*%
D30*
%TO.C,R45*%
X84500000Y-56290000D03*
X84500000Y-57310000D03*
%TD*%
D16*
%TO.C,R41*%
X85490000Y-58300000D03*
X86510000Y-58300000D03*
%TD*%
D33*
%TO.C,C2*%
X99800000Y-42625000D03*
X99800000Y-44175000D03*
%TD*%
D31*
%TO.C,C24*%
X102108000Y-56528000D03*
X102108000Y-54978000D03*
%TD*%
D17*
%TO.C,C17*%
X94417000Y-52959000D03*
X95377000Y-52959000D03*
%TD*%
D16*
%TO.C,R4*%
X96454500Y-54800500D03*
X97474500Y-54800500D03*
%TD*%
D35*
%TO.C,C76*%
X88500000Y-68820000D03*
X88500000Y-69780000D03*
%TD*%
D17*
%TO.C,C58*%
X105692000Y-72771000D03*
X106652000Y-72771000D03*
%TD*%
D36*
%TO.C,C7*%
X97575000Y-47100000D03*
X96025000Y-47100000D03*
%TD*%
D17*
%TO.C,C32*%
X106581000Y-58039000D03*
X107541000Y-58039000D03*
%TD*%
D37*
%TO.C,R11*%
X97474500Y-71437500D03*
X96454500Y-71437500D03*
%TD*%
D31*
%TO.C,C37*%
X102108000Y-63894000D03*
X102108000Y-62344000D03*
%TD*%
D29*
%TO.C,C59*%
X108839000Y-77061000D03*
X108839000Y-76101000D03*
%TD*%
D35*
%TO.C,C74*%
X90900000Y-68820000D03*
X90900000Y-69780000D03*
%TD*%
D29*
%TO.C,C67*%
X88600000Y-53980000D03*
X88600000Y-53020000D03*
%TD*%
D16*
%TO.C,R31*%
X82790000Y-70100001D03*
X83810000Y-70100001D03*
%TD*%
D30*
%TO.C,R40*%
X86500000Y-56290000D03*
X86500000Y-57310000D03*
%TD*%
D29*
%TO.C,C46*%
X109728000Y-69568000D03*
X109728000Y-68608000D03*
%TD*%
D31*
%TO.C,C11*%
X102108000Y-49162000D03*
X102108000Y-47612000D03*
%TD*%
D38*
%TO.C,RV1*%
X116410000Y-83058000D03*
X113460000Y-83058000D03*
%TD*%
D27*
%TO.C,C16*%
X95377000Y-54102000D03*
X94417000Y-54102000D03*
%TD*%
D16*
%TO.C,R19*%
X85690000Y-75800000D03*
X86710000Y-75800000D03*
%TD*%
D27*
%TO.C,C77*%
X83780000Y-60000000D03*
X82820000Y-60000000D03*
%TD*%
D31*
%TO.C,C51*%
X103632000Y-71260000D03*
X103632000Y-69710000D03*
%TD*%
D18*
%TO.C,H1*%
X105290000Y-43815000D03*
X105883109Y-42383109D03*
X105883109Y-45246891D03*
X107315000Y-41790000D03*
D19*
X107315000Y-43815000D03*
D18*
X107315000Y-45840000D03*
X108746891Y-42383109D03*
X108746891Y-45246891D03*
X109340000Y-43815000D03*
%TD*%
D32*
%TO.C,D4*%
X86349999Y-51549999D03*
X85699999Y-51549999D03*
X85049999Y-51549999D03*
X85049999Y-53449999D03*
X85699999Y-53449999D03*
X86349999Y-53449999D03*
%TD*%
D39*
%TO.C,J1*%
X80644999Y-42544999D03*
D40*
X78104999Y-42544999D03*
X80644999Y-45084999D03*
X78104999Y-45084999D03*
X80644999Y-47624999D03*
X78104999Y-47624999D03*
X80644999Y-50164999D03*
X78104999Y-50164999D03*
X80644999Y-52704999D03*
X78104999Y-52704999D03*
X80644999Y-55244999D03*
X78104999Y-55244999D03*
X80644999Y-57784999D03*
X78104999Y-57784999D03*
X80644999Y-60324999D03*
X78104999Y-60324999D03*
X80644999Y-62864999D03*
X78104999Y-62864999D03*
X80644999Y-65404999D03*
X78104999Y-65404999D03*
X80644999Y-67944999D03*
X78104999Y-67944999D03*
X80644999Y-70484999D03*
X78104999Y-70484999D03*
X80644999Y-73024999D03*
X78104999Y-73024999D03*
X80644999Y-75564999D03*
X78104999Y-75564999D03*
X80644999Y-78104999D03*
X78104999Y-78104999D03*
X80644999Y-80644999D03*
X78104999Y-80644999D03*
X80644999Y-83184999D03*
X78104999Y-83184999D03*
%TD*%
D35*
%TO.C,C66*%
X88600000Y-47320000D03*
X88600000Y-48280000D03*
%TD*%
D21*
%TO.C,U4*%
X107560999Y-66878999D03*
D22*
X107760999Y-67413999D03*
D23*
X107460999Y-67513999D03*
D21*
X106560999Y-66878999D03*
D22*
X106360999Y-67413999D03*
D23*
X106660999Y-67513999D03*
D24*
X105610999Y-68428999D03*
X105610999Y-68928999D03*
D25*
X106310999Y-69678999D03*
D26*
X106810999Y-69628999D03*
X107310999Y-69628999D03*
D25*
X107810999Y-69678999D03*
D24*
X108510999Y-68928999D03*
X108510999Y-68428999D03*
%TD*%
D30*
%TO.C,R43*%
X83500000Y-56290000D03*
X83500000Y-57310000D03*
%TD*%
D41*
%TO.C,J2*%
X114300000Y-43815000D03*
D42*
X114299999Y-48894999D03*
X114299999Y-53974999D03*
X114299999Y-59054999D03*
X114299999Y-64134999D03*
X114299999Y-69214999D03*
%TD*%
D31*
%TO.C,C23*%
X100584000Y-56528000D03*
X100584000Y-54978000D03*
%TD*%
D30*
%TO.C,R14*%
X90500000Y-77490000D03*
X90500000Y-78510000D03*
%TD*%
%TO.C,R18*%
X90500000Y-73690000D03*
X90500000Y-74710000D03*
%TD*%
D16*
%TO.C,R33*%
X82790000Y-69100000D03*
X83810000Y-69100000D03*
%TD*%
D30*
%TO.C,R24*%
X87600000Y-52990000D03*
X87600000Y-54010000D03*
%TD*%
D32*
%TO.C,D1*%
X87949999Y-77949999D03*
X88599999Y-77949999D03*
X89249999Y-77949999D03*
X89249999Y-76049999D03*
X88599999Y-76049999D03*
X87949999Y-76049999D03*
%TD*%
D30*
%TO.C,R38*%
X84800000Y-73090001D03*
X84800000Y-74110001D03*
%TD*%
D31*
%TO.C,C50*%
X102108000Y-71260000D03*
X102108000Y-69710000D03*
%TD*%
D21*
%TO.C,U5*%
X106671999Y-74244999D03*
D22*
X106871999Y-74779999D03*
D23*
X106571999Y-74879999D03*
D21*
X105671999Y-74244999D03*
D22*
X105471999Y-74779999D03*
D23*
X105771999Y-74879999D03*
D24*
X104721999Y-75794999D03*
X104721999Y-76294999D03*
D25*
X105421999Y-77044999D03*
D26*
X105921999Y-76994999D03*
X106421999Y-76994999D03*
D25*
X106921999Y-77044999D03*
D24*
X107621999Y-76294999D03*
X107621999Y-75794999D03*
%TD*%
D33*
%TO.C,C73*%
X94700000Y-64925000D03*
X94700000Y-66475000D03*
%TD*%
D37*
%TO.C,R5*%
X97474500Y-49339500D03*
X96454500Y-49339500D03*
%TD*%
D17*
%TO.C,C47*%
X107470000Y-70866000D03*
X108430000Y-70866000D03*
%TD*%
D34*
%TO.C,C8*%
X90825000Y-53899999D03*
X92375000Y-53899999D03*
%TD*%
D31*
%TO.C,C12*%
X103632000Y-49162000D03*
X103632000Y-47612000D03*
%TD*%
D29*
%TO.C,C33*%
X109728000Y-62329000D03*
X109728000Y-61369000D03*
%TD*%
D17*
%TO.C,C75*%
X94320000Y-58900000D03*
X95280000Y-58900000D03*
%TD*%
D16*
%TO.C,R34*%
X82790000Y-72100001D03*
X83810000Y-72100001D03*
%TD*%
D27*
%TO.C,C79*%
X83780000Y-65100000D03*
X82820000Y-65100000D03*
%TD*%
D20*
%TO.C,R21*%
X83800000Y-50110000D03*
X83800000Y-49090000D03*
%TD*%
D27*
%TO.C,C31*%
X97444500Y-55753000D03*
X96484500Y-55753000D03*
%TD*%
D29*
%TO.C,C62*%
X91500000Y-78480000D03*
X91500000Y-77520000D03*
%TD*%
D21*
%TO.C,U3*%
X107560999Y-59512999D03*
D22*
X107760999Y-60047999D03*
D23*
X107460999Y-60147999D03*
D21*
X106560999Y-59512999D03*
D22*
X106360999Y-60047999D03*
D23*
X106660999Y-60147999D03*
D24*
X105610999Y-61062999D03*
X105610999Y-61562999D03*
D25*
X106310999Y-62312999D03*
D26*
X106810999Y-62262999D03*
X107310999Y-62262999D03*
D25*
X107810999Y-62312999D03*
D24*
X108510999Y-61562999D03*
X108510999Y-61062999D03*
%TD*%
D35*
%TO.C,C63*%
X91500000Y-71820000D03*
X91500000Y-72780000D03*
%TD*%
D17*
%TO.C,C19*%
X106581000Y-50673000D03*
X107541000Y-50673000D03*
%TD*%
D43*
%TO.C,C4*%
X90600000Y-42650000D03*
X90600000Y-44550000D03*
%TD*%
D37*
%TO.C,R7*%
X97474500Y-56705500D03*
X96454500Y-56705500D03*
%TD*%
D20*
%TO.C,R22*%
X87600000Y-48310000D03*
X87600000Y-47290000D03*
%TD*%
D44*
%TO.C,U7*%
X98260000Y-42700000D03*
D45*
X97450000Y-42700000D03*
X96950000Y-42700000D03*
X96950000Y-45500000D03*
X97450000Y-45500000D03*
D44*
X98260000Y-45500000D03*
D46*
X98360000Y-44600000D03*
D47*
X97990000Y-44100000D03*
D46*
X98360000Y-43600000D03*
%TD*%
D27*
%TO.C,C57*%
X97444500Y-70485000D03*
X96484500Y-70485000D03*
%TD*%
D20*
%TO.C,R12*%
X90500000Y-76610000D03*
X90500000Y-75590000D03*
%TD*%
D37*
%TO.C,R1*%
X100510000Y-46400000D03*
X99490000Y-46400000D03*
%TD*%
D17*
%TO.C,C30*%
X94389000Y-60325000D03*
X95349000Y-60325000D03*
%TD*%
D18*
%TO.C,H4*%
X83700000Y-81915000D03*
X84293109Y-80483109D03*
X84293109Y-83346891D03*
X85725000Y-79890000D03*
D19*
X85725000Y-81915000D03*
D18*
X85725000Y-83940000D03*
X87156891Y-80483109D03*
X87156891Y-83346891D03*
X87750000Y-81915000D03*
%TD*%
D16*
%TO.C,R3*%
X99490000Y-45400000D03*
X100510000Y-45400000D03*
%TD*%
D27*
%TO.C,C18*%
X97444500Y-48387000D03*
X96484500Y-48387000D03*
%TD*%
D32*
%TO.C,D3*%
X86349999Y-47649999D03*
X85699999Y-47649999D03*
X85049999Y-47649999D03*
X85049999Y-49549999D03*
X85699999Y-49549999D03*
X86349999Y-49549999D03*
%TD*%
D48*
%TO.C,X1*%
X90725000Y-56675000D03*
X88875000Y-56675000D03*
X88875000Y-58125000D03*
X90725000Y-58125000D03*
%TD*%
D49*
%TO.C,C1*%
X112771812Y-78998188D03*
X116590188Y-75179812D03*
%TD*%
D50*
%TO.C,U6*%
X90750000Y-52450000D03*
X91250000Y-52450000D03*
X91750000Y-52450000D03*
X92250000Y-52450000D03*
X92250000Y-49550000D03*
X91750000Y-49550000D03*
X91250000Y-49550000D03*
X90750000Y-49550000D03*
D51*
X91499999Y-50999999D03*
%TD*%
D35*
%TO.C,C61*%
X91500000Y-75620000D03*
X91500000Y-76580000D03*
%TD*%
D30*
%TO.C,R20*%
X87600000Y-49190000D03*
X87600000Y-50210000D03*
%TD*%
D37*
%TO.C,R44*%
X84510000Y-58300000D03*
X83490000Y-58300000D03*
%TD*%
D18*
%TO.C,H3*%
X105290000Y-81915000D03*
X105883109Y-80483109D03*
X105883109Y-83346891D03*
X107315000Y-79890000D03*
D19*
X107315000Y-81915000D03*
D18*
X107315000Y-83940000D03*
X108746891Y-80483109D03*
X108746891Y-83346891D03*
X109340000Y-81915000D03*
%TD*%
D43*
%TO.C,C3*%
X102000000Y-42650000D03*
X102000000Y-44550000D03*
%TD*%
D37*
%TO.C,R9*%
X97474500Y-64071500D03*
X96454500Y-64071500D03*
%TD*%
D30*
%TO.C,R35*%
X84800000Y-71090000D03*
X84800000Y-72110000D03*
%TD*%
D17*
%TO.C,C21*%
X107470000Y-56134000D03*
X108430000Y-56134000D03*
%TD*%
D20*
%TO.C,R28*%
X87500000Y-58310000D03*
X87500000Y-57290000D03*
%TD*%
D27*
%TO.C,C29*%
X95349000Y-61468000D03*
X94389000Y-61468000D03*
%TD*%
D31*
%TO.C,C49*%
X100584000Y-71260000D03*
X100584000Y-69710000D03*
%TD*%
D17*
%TO.C,C60*%
X106581000Y-78232000D03*
X107541000Y-78232000D03*
%TD*%
D30*
%TO.C,R32*%
X84800000Y-69090000D03*
X84800000Y-70110000D03*
%TD*%
D16*
%TO.C,R8*%
X96454500Y-69532500D03*
X97474500Y-69532500D03*
%TD*%
D35*
%TO.C,C68*%
X88600000Y-51120000D03*
X88600000Y-52080000D03*
%TD*%
D27*
%TO.C,C42*%
X95349000Y-68834000D03*
X94389000Y-68834000D03*
%TD*%
D39*
%TO.C,J3*%
X91439999Y-83819999D03*
D40*
X93979999Y-83819999D03*
X96519999Y-83819999D03*
X99059999Y-83819999D03*
X101599999Y-83819999D03*
%TD*%
D43*
%TO.C,C5*%
X92700000Y-42650000D03*
X92700000Y-44550000D03*
%TD*%
D31*
%TO.C,C35*%
X99060000Y-63894000D03*
X99060000Y-62344000D03*
%TD*%
D17*
%TO.C,C45*%
X106581000Y-65405000D03*
X107541000Y-65405000D03*
%TD*%
D52*
%TO.C,U1*%
X92500000Y-60000000D03*
X92500000Y-60800000D03*
X92500000Y-61600000D03*
X92500000Y-62400000D03*
X92500000Y-63200000D03*
X92500000Y-64000000D03*
X92500000Y-64800000D03*
X92500000Y-65600000D03*
X92500000Y-66400000D03*
X92500000Y-67200000D03*
X91700000Y-60000000D03*
X91700000Y-60800000D03*
X91700000Y-61600000D03*
X91700000Y-62400000D03*
X91700000Y-63200000D03*
X91700000Y-64000000D03*
X91700000Y-64800000D03*
X91700000Y-65600000D03*
X91700000Y-66400000D03*
X91700000Y-67200000D03*
X90900000Y-60000000D03*
X90900000Y-60800000D03*
X90900000Y-61600000D03*
X90900000Y-62400000D03*
X90900000Y-63200000D03*
X90900000Y-64000000D03*
X90900000Y-64800000D03*
X90900000Y-65600000D03*
X90900000Y-66400000D03*
X90900000Y-67200000D03*
X90100000Y-60000000D03*
X90100000Y-60800000D03*
X90100000Y-61600000D03*
X90100000Y-62400000D03*
X90100000Y-63200000D03*
X90100000Y-64000000D03*
X90100000Y-64800000D03*
X90100000Y-65600000D03*
X90100000Y-66400000D03*
X90100000Y-67200000D03*
X89300000Y-60000000D03*
X89300000Y-60800000D03*
X89300000Y-61600000D03*
X89300000Y-62400000D03*
X89300000Y-63200000D03*
X89300000Y-64000000D03*
X89300000Y-64800000D03*
X89300000Y-65600000D03*
X89300000Y-66400000D03*
X89300000Y-67200000D03*
X88500000Y-60000000D03*
X88500000Y-60800000D03*
X88500000Y-61600000D03*
X88500000Y-62400000D03*
X88500000Y-63200000D03*
X88500000Y-64000000D03*
X88500000Y-64800000D03*
X88500000Y-65600000D03*
X88500000Y-66400000D03*
X88500000Y-67200000D03*
X87700000Y-60000000D03*
X87700000Y-60800000D03*
X87700000Y-61600000D03*
X87700000Y-62400000D03*
X87700000Y-63200000D03*
X87700000Y-64000000D03*
X87700000Y-64800000D03*
X87700000Y-65600000D03*
X87700000Y-66400000D03*
X87700000Y-67200000D03*
X86900000Y-60000000D03*
X86900000Y-60800000D03*
X86900000Y-61600000D03*
X86900000Y-62400000D03*
X86900000Y-63200000D03*
X86900000Y-64000000D03*
X86900000Y-64800000D03*
X86900000Y-65600000D03*
X86900000Y-66400000D03*
X86900000Y-67200000D03*
X86100000Y-60000000D03*
X86100000Y-60800000D03*
X86100000Y-61600000D03*
X86100000Y-62400000D03*
X86100000Y-63200000D03*
X86100000Y-64000000D03*
X86100000Y-64800000D03*
X86100000Y-65600000D03*
X86100000Y-66400000D03*
X86100000Y-67200000D03*
X85300000Y-60000000D03*
X85300000Y-60800000D03*
X85300000Y-61600000D03*
X85300000Y-62400000D03*
X85300000Y-63200000D03*
X85300000Y-64000000D03*
X85300000Y-64800000D03*
X85300000Y-65600000D03*
X85300000Y-66400000D03*
X85300000Y-67200000D03*
%TD*%
D31*
%TO.C,C25*%
X103632000Y-56528000D03*
X103632000Y-54978000D03*
%TD*%
D16*
%TO.C,R17*%
X85690000Y-74700000D03*
X86710000Y-74700000D03*
%TD*%
D29*
%TO.C,C64*%
X91500000Y-74680000D03*
X91500000Y-73720000D03*
%TD*%
D37*
%TO.C,R30*%
X96410000Y-78400000D03*
X95390000Y-78400000D03*
%TD*%
D29*
%TO.C,C65*%
X88600000Y-50180000D03*
X88600000Y-49220000D03*
%TD*%
D31*
%TO.C,C36*%
X100584000Y-63894000D03*
X100584000Y-62344000D03*
%TD*%
D30*
%TO.C,R23*%
X83800000Y-47190000D03*
X83800000Y-48210000D03*
%TD*%
D39*
%TO.C,J101*%
X113029999Y-42544999D03*
D40*
X115569999Y-42544999D03*
X113029999Y-45084999D03*
X115569999Y-45084999D03*
X113029999Y-47624999D03*
X115569999Y-47624999D03*
X113029999Y-50164999D03*
X115569999Y-50164999D03*
X113029999Y-52704999D03*
X115569999Y-52704999D03*
X113029999Y-55244999D03*
X115569999Y-55244999D03*
X113029999Y-57784999D03*
X115569999Y-57784999D03*
X113029999Y-60324999D03*
X115569999Y-60324999D03*
X113029999Y-62864999D03*
X115569999Y-62864999D03*
X113029999Y-65404999D03*
X115569999Y-65404999D03*
X113029999Y-67944999D03*
X115569999Y-67944999D03*
X113029999Y-70484999D03*
X115569999Y-70484999D03*
%TD*%
M02*
