M48
; DRILL file {KiCad (7.0.0)} date Fri Nov 10 13:47:01 2023
; FORMAT={-:-/ absolute / inch / decimal}
; #@! TF.CreationDate,2023-11-10T13:47:01-05:00
; #@! TF.GenerationSoftware,Kicad,Pcbnew,(7.0.0)
; #@! TF.FileFunction,Plated,1,6,PTH
FMAT,2
INCH
; #@! TA.AperFunction,Plated,PTH,ViaDrill
T1C0.0079
; #@! TA.AperFunction,Plated,PTH,ComponentDrill
T2C0.0080
; #@! TA.AperFunction,Plated,PTH,ViaDrill
T3C0.0098
; #@! TA.AperFunction,Plated,PTH,ViaDrill
T4C0.0118
; #@! TA.AperFunction,Plated,PTH,ComponentDrill
T5C0.0197
; #@! TA.AperFunction,Plated,PTH,ComponentDrill
T6C0.0315
; #@! TA.AperFunction,Plated,PTH,ComponentDrill
T7C0.0394
; #@! TA.AperFunction,Plated,PTH,ComponentDrill
T8C0.0472
; #@! TA.AperFunction,Plated,PTH,ComponentDrill
T9C0.1063
%
G90
G05
T1
X3.3898Y-2.5118
X3.4134Y-2.2283
X3.4213Y-2.4803
X3.4528Y-2.4803
X3.4843Y-2.4803
X3.5Y-2.5276
X3.5Y-2.5591
X3.5157Y-2.4803
X3.5315Y-2.2756
X3.5787Y-2.2913
X3.5787Y-2.3228
X3.5787Y-2.3543
X3.5787Y-2.5118
X3.5787Y-2.5433
X3.5945Y-2.2756
X3.626Y-2.2756
X3.626Y-2.3386
X3.6417Y-2.2323
X3.7244Y-2.2317
X3.7244Y-2.2087
X3.7244Y-2.272
X3.7244Y-2.311
X3.7244Y-2.3386
X3.7244Y-2.3661
X3.7252Y-2.2514
X3.895Y-2.09
X3.895Y-2.12
X3.895Y-2.38
X3.895Y-2.41
X3.895Y-2.67
X3.895Y-2.7
X3.895Y-2.96
X3.895Y-2.99
X3.905Y-2.105
X3.905Y-2.395
X3.905Y-2.685
X3.905Y-2.975
X3.915Y-2.09
X3.915Y-2.12
X3.915Y-2.38
X3.915Y-2.41
X3.915Y-2.67
X3.915Y-2.7
X3.915Y-2.96
X3.915Y-2.99
X3.925Y-2.105
X3.925Y-2.395
X3.925Y-2.685
X3.925Y-2.975
X3.935Y-2.09
X3.935Y-2.12
X3.935Y-2.38
X3.935Y-2.41
X3.935Y-2.67
X3.935Y-2.7
X3.935Y-2.96
X3.935Y-2.99
X3.945Y-2.105
X3.945Y-2.395
X3.945Y-2.685
X3.945Y-2.975
X3.955Y-2.09
X3.955Y-2.12
X3.955Y-2.38
X3.955Y-2.41
X3.955Y-2.67
X3.955Y-2.7
X3.955Y-2.96
X3.955Y-2.99
X3.965Y-2.105
X3.965Y-2.395
X3.965Y-2.685
X3.965Y-2.975
X3.975Y-2.09
X3.975Y-2.12
X3.975Y-2.38
X3.975Y-2.41
X3.975Y-2.67
X3.975Y-2.7
X3.975Y-2.96
X3.975Y-2.99
X3.985Y-2.105
X3.985Y-2.395
X3.985Y-2.685
X3.985Y-2.975
X3.995Y-2.09
X3.995Y-2.12
X3.995Y-2.38
X3.995Y-2.41
X3.995Y-2.67
X3.995Y-2.7
X3.995Y-2.96
X3.995Y-2.99
X4.005Y-2.105
X4.005Y-2.395
X4.005Y-2.685
X4.005Y-2.975
T2
X3.7217Y-1.7362
X3.7303Y-1.6681
X3.7358Y-1.7055
X3.75Y-1.6681
X3.761Y-1.7362
X3.7681Y-1.7055
X3.7697Y-1.6681
X3.8004Y-1.7362
X3.8169Y-1.6681
X3.8169Y-1.6949
X3.8398Y-1.7362
X3.8791Y-1.7362
T3
X3.2791Y-1.9567
X3.2803Y-2.0039
X3.3189Y-2.0039
X3.3425Y-2.5591
X3.3583Y-2.3543
X3.3583Y-2.3858
X3.3697Y-1.9567
X3.3709Y-2.0039
X3.3898Y-2.4173
X3.3898Y-2.4488
X3.4602Y-1.9567
X3.4614Y-2.0039
X3.4843Y-2.3858
X3.4843Y-2.4173
X3.4843Y-2.4488
X3.5157Y-2.3858
X3.5157Y-2.4173
X3.5157Y-2.4488
X3.5157Y-2.5118
X3.5472Y-2.3228
X3.5472Y-2.3858
X3.5472Y-2.4173
X3.5472Y-2.4488
X3.552Y-2.0039
X3.5787Y-2.4803
X3.6102Y-2.4488
X3.6417Y-2.3228
X3.6576Y-1.9566
X3.89Y-1.865
X3.89Y-1.885
X3.89Y-2.155
X3.89Y-2.175
X3.89Y-2.445
X3.89Y-2.465
X3.89Y-2.735
X3.89Y-2.755
X3.91Y-1.865
X3.91Y-1.885
X3.91Y-2.155
X3.91Y-2.175
X3.91Y-2.445
X3.91Y-2.465
X3.91Y-2.735
X3.91Y-2.755
X3.95Y-1.865
X3.95Y-1.885
X3.95Y-2.155
X3.95Y-2.175
X3.95Y-2.445
X3.95Y-2.465
X3.95Y-2.735
X3.95Y-2.755
X3.97Y-1.865
X3.97Y-1.885
X3.97Y-2.155
X3.97Y-2.175
X3.97Y-2.445
X3.97Y-2.465
X3.97Y-2.735
X3.97Y-2.755
X4.01Y-1.865
X4.01Y-1.885
X4.01Y-2.155
X4.01Y-2.175
X4.01Y-2.445
X4.01Y-2.465
X4.01Y-2.735
X4.01Y-2.755
X4.03Y-1.865
X4.03Y-1.885
X4.03Y-2.155
X4.03Y-2.175
X4.03Y-2.445
X4.03Y-2.465
X4.03Y-2.735
X4.03Y-2.755
X4.07Y-1.865
X4.07Y-1.885
X4.07Y-2.155
X4.07Y-2.175
X4.07Y-2.445
X4.07Y-2.465
X4.07Y-2.735
X4.07Y-2.755
X4.09Y-1.865
X4.09Y-1.885
X4.09Y-2.155
X4.09Y-2.175
X4.09Y-2.445
X4.09Y-2.465
X4.09Y-2.735
X4.09Y-2.755
T4
X3.4843Y-2.1024
X3.5118Y-2.1024
X3.6181Y-2.1409
X3.6181Y-2.1024
X3.9Y-1.925
X3.9Y-1.945
X3.9Y-1.965
X3.9Y-1.985
X3.9Y-2.005
X3.9Y-2.22
X3.9Y-2.24
X3.9Y-2.26
X3.9Y-2.28
X3.9Y-2.3
X3.9Y-2.51
X3.9Y-2.53
X3.9Y-2.55
X3.9Y-2.57
X3.9Y-2.59
X3.9Y-2.8
X3.9Y-2.82
X3.9Y-2.84
X3.9Y-2.86
X3.9Y-2.88
X3.96Y-1.925
X3.96Y-1.945
X3.96Y-1.965
X3.96Y-1.985
X3.96Y-2.005
X3.96Y-2.22
X3.96Y-2.24
X3.96Y-2.26
X3.96Y-2.28
X3.96Y-2.3
X3.96Y-2.51
X3.96Y-2.53
X3.96Y-2.55
X3.96Y-2.57
X3.96Y-2.59
X3.96Y-2.8
X3.96Y-2.82
X3.96Y-2.84
X3.96Y-2.86
X3.96Y-2.88
X4.02Y-1.925
X4.02Y-1.945
X4.02Y-1.965
X4.02Y-2.22
X4.02Y-2.24
X4.02Y-2.26
X4.02Y-2.51
X4.02Y-2.53
X4.02Y-2.55
X4.02Y-2.8
X4.02Y-2.82
X4.02Y-2.84
X4.08Y-1.925
X4.08Y-1.945
X4.08Y-2.22
X4.08Y-2.24
X4.08Y-2.51
X4.08Y-2.53
X4.08Y-2.8
X4.08Y-2.82
X4.1229Y-2.9811
X4.1579Y-2.1111
X4.1779Y-2.3011
X4.1779Y-2.5911
X4.285Y-2.9961
X4.32Y-2.1261
X4.32Y-2.1639
X4.32Y-2.4161
X4.32Y-2.4539
X4.32Y-2.7011
X4.32Y-2.7389
T5
X3.2953Y-1.725
X3.2953Y-3.225
X3.3186Y-1.6686
X3.3186Y-1.7814
X3.3186Y-3.1686
X3.3186Y-3.2814
X3.375Y-1.6453
X3.375Y-1.8047
X3.375Y-3.1453
X3.375Y-3.3047
X3.4314Y-1.6686
X3.4314Y-1.7814
X3.4314Y-3.1686
X3.4314Y-3.2814
X3.4547Y-1.725
X3.4547Y-3.225
X4.1453Y-1.725
X4.1453Y-3.225
X4.1686Y-1.6686
X4.1686Y-1.7814
X4.1686Y-3.1686
X4.1686Y-3.2814
X4.225Y-1.6453
X4.225Y-1.8047
X4.225Y-3.1453
X4.225Y-3.3047
X4.2814Y-1.6686
X4.2814Y-1.7814
X4.2814Y-3.1686
X4.2814Y-3.2814
X4.3047Y-1.725
X4.3047Y-3.225
T6
X4.4318Y-3.025
X4.6287Y-3.025
T7
X2.415Y-1.705
X2.415Y-1.805
X2.415Y-1.905
X2.415Y-2.005
X2.415Y-2.105
X2.415Y-2.205
X2.415Y-2.305
X2.415Y-2.405
X2.415Y-2.505
X2.415Y-2.605
X2.415Y-2.705
X2.415Y-2.805
X2.415Y-2.905
X2.415Y-3.005
X2.415Y-3.105
X2.415Y-3.205
X2.415Y-3.305
X2.515Y-1.705
X2.515Y-1.805
X2.515Y-1.905
X2.515Y-2.005
X2.515Y-2.105
X2.515Y-2.205
X2.515Y-2.305
X2.515Y-2.405
X2.515Y-2.505
X2.515Y-2.605
X2.515Y-2.705
X2.515Y-2.805
X2.515Y-2.905
X2.515Y-3.005
X2.515Y-3.105
X2.515Y-3.205
X2.515Y-3.305
X3.08Y-1.675
X3.08Y-1.775
X3.08Y-1.875
X3.08Y-1.975
X3.08Y-2.075
X3.08Y-2.175
X3.08Y-2.275
X3.08Y-2.375
X3.08Y-2.475
X3.08Y-2.575
X3.08Y-2.675
X3.08Y-2.775
X3.08Y-2.875
X3.08Y-2.975
X3.08Y-3.075
X3.08Y-3.175
X3.08Y-3.275
X3.08Y-3.375
X3.08Y-3.475
X3.08Y-3.575
X3.18Y-1.675
X3.18Y-1.775
X3.18Y-1.875
X3.18Y-1.975
X3.18Y-2.075
X3.18Y-2.175
X3.18Y-2.275
X3.18Y-2.375
X3.18Y-2.475
X3.18Y-2.575
X3.18Y-2.675
X3.18Y-2.775
X3.18Y-2.875
X3.18Y-2.975
X3.18Y-3.075
X3.18Y-3.175
X3.18Y-3.275
X3.18Y-3.375
X3.18Y-3.475
X3.18Y-3.575
X4.0325Y-1.4173
X4.1325Y-1.4173
X4.45Y-1.675
X4.45Y-1.775
X4.45Y-1.875
X4.45Y-1.975
X4.45Y-2.075
X4.45Y-2.175
X4.45Y-2.275
X4.45Y-2.375
X4.45Y-2.475
X4.45Y-2.575
X4.45Y-2.675
X4.45Y-2.775
X4.55Y-1.675
X4.55Y-1.775
X4.55Y-1.875
X4.55Y-1.975
X4.55Y-2.075
X4.55Y-2.175
X4.55Y-2.275
X4.55Y-2.375
X4.55Y-2.475
X4.55Y-2.575
X4.55Y-2.675
X4.55Y-2.775
T8
X4.5Y-1.725
X4.5Y-1.925
X4.5Y-2.125
X4.5Y-2.325
X4.5Y-2.525
X4.5Y-2.725
T9
X3.375Y-1.725
X3.375Y-3.225
X4.225Y-1.725
X4.225Y-3.225
T0
M30
