M48
; DRILL file {KiCad (7.0.0)} date Fri Dec 15 13:48:26 2023
; FORMAT={-:-/ absolute / inch / decimal}
; #@! TF.CreationDate,2023-12-15T13:48:26-05:00
; #@! TF.GenerationSoftware,Kicad,Pcbnew,(7.0.0)
; #@! TF.FileFunction,Plated,1,6,PTH
FMAT,2
INCH
; #@! TA.AperFunction,Plated,PTH,ViaDrill
T1C0.0118
; #@! TA.AperFunction,Plated,PTH,ViaDrill
T2C0.0177
; #@! TA.AperFunction,Plated,PTH,ComponentDrill
T3C0.0197
; #@! TA.AperFunction,Plated,PTH,ComponentDrill
T4C0.0315
; #@! TA.AperFunction,Plated,PTH,ComponentDrill
T5C0.0320
; #@! TA.AperFunction,Plated,PTH,ComponentDrill
T6C0.0394
; #@! TA.AperFunction,Plated,PTH,ComponentDrill
T7C0.0472
; #@! TA.AperFunction,Plated,PTH,ComponentDrill
T8C0.1063
%
G90
G05
T1
X2.8421Y-2.9331
X2.8819Y-2.1535
X2.8819Y-2.3346
X2.8819Y-2.3898
X2.8819Y-2.5709
X2.8819Y-2.626
X2.8819Y-2.8071
X2.8903Y-2.874
X2.8903Y-2.9921
X2.9287Y-2.9331
X2.9675Y-2.3986
X2.9675Y-2.562
X2.9675Y-2.6348
X2.9675Y-2.7982
X3.0433Y-2.0004
X3.0433Y-2.0362
X3.0512Y-2.4335
X3.0512Y-2.4693
X3.0512Y-2.5831
X3.0591Y-2.1386
X3.0591Y-2.1988
X3.0945Y-2.0004
X3.0945Y-2.0362
X3.1024Y-2.4335
X3.1024Y-2.4693
X3.1024Y-2.5831
X3.1299Y-2.2913
X3.1457Y-2.0004
X3.1457Y-2.0362
X3.1535Y-2.4335
X3.1535Y-2.4693
X3.1535Y-2.5831
X3.1772Y-2.2677
X3.1929Y-2.0756
X3.1929Y-2.1339
X3.1969Y-2.5713
X3.2362Y-2.5713
X3.2638Y-2.3524
X3.2756Y-1.8236
X3.2756Y-1.8614
X3.2756Y-2.0008
X3.2756Y-2.0386
X3.2756Y-2.5713
X3.2972Y-2.063
X3.2972Y-2.3868
X3.311Y-2.1457
X3.315Y-2.5713
X3.3228Y-2.0472
X3.3543Y-2.0472
X3.3543Y-2.5713
X3.3819Y-2.0472
X3.3937Y-2.5713
X3.3957Y-2.3898
X3.4016Y-2.1457
X3.4331Y-2.4882
X3.4331Y-2.5268
X3.4548Y-1.8937
X3.4567Y-2.3071
X3.4787Y-2.047
X3.502Y-2.2618
X3.503Y-2.0551
X3.5039Y-2.3326
X3.5039Y-2.1949
X3.5039Y-2.2244
X3.5039Y-2.3583
X3.5059Y-2.1693
X3.5059Y-2.3071
X3.5217Y-2.3937
X3.5276Y-2.0079
X3.5433Y-2.5315
X3.5433Y-2.5591
X3.5669Y-2.0787
X3.5669Y-2.1181
X3.5827Y-2.4055
X3.5945Y-2.2323
X3.6024Y-2.2638
X3.6102Y-2.4173
X3.6179Y-2.1692
X3.6179Y-2.3818
X3.6181Y-1.9567
X3.6181Y-2.1417
X3.6181Y-2.3543
X3.6183Y-1.9293
X3.624Y-2.2933
X3.6496Y-1.8937
X3.6496Y-2.1063
X3.6496Y-2.3189
X3.6535Y-2.5315
X3.6774Y-2.2558
X3.6774Y-2.4684
X3.6776Y-2.0433
X3.7043Y-1.8465
X3.7441Y-1.8465
X3.7616Y-2.1239
X3.7616Y-2.3365
X3.7616Y-2.5491
X3.7618Y-1.9114
X3.8079Y-2.0039
X3.8081Y-2.2167
X3.8081Y-2.4293
X3.8081Y-2.6419
X3.8268Y-2.6693
X3.8455Y-2.177
X3.8455Y-2.3896
X3.8455Y-2.6022
X3.8457Y-1.9646
X3.8457Y-2.0039
X3.8459Y-2.2167
X3.8459Y-2.4293
X3.8459Y-2.6419
X3.8467Y-2.1377
X3.8467Y-2.3503
X3.8467Y-2.5629
X3.8469Y-1.9252
X3.9575Y-2.1701
X3.9575Y-2.1957
X3.9575Y-2.3827
X3.9575Y-2.4083
X3.9575Y-2.5953
X3.9575Y-2.6209
X3.9577Y-1.9577
X3.9577Y-1.9833
X3.9882Y-1.8268
X3.9882Y-1.8504
X3.9882Y-2.0394
X3.9882Y-2.063
X3.9882Y-2.252
X3.9882Y-2.2756
X3.9882Y-2.4646
X3.9882Y-2.4882
X4.0736Y-2.1957
X4.0736Y-2.4083
X4.0736Y-2.6209
X4.0738Y-1.9833
X4.1024Y-2.0197
X4.1024Y-2.2323
X4.1024Y-2.4449
X4.1024Y-2.6535
X4.125Y-2.2047
X4.125Y-2.4173
X4.125Y-2.626
X4.1457Y-1.9921
X4.1969Y-2.2047
X4.2754Y-2.4606
X4.2756Y-2.0354
X4.2756Y-2.248
X4.2756Y-2.6693
X4.2961Y-1.9961
X4.2961Y-2.2087
X4.2961Y-2.4213
X4.2961Y-2.6299
X4.3339Y-2.2087
X4.3339Y-2.248
X4.3339Y-2.4213
X4.3339Y-2.4606
X4.3339Y-2.6299
X4.3339Y-2.6693
X4.3346Y-1.9961
X4.3346Y-2.0354
T2
X3.0551Y-2.6929
X3.0866Y-2.6929
X3.2244Y-2.7598
X3.2598Y-2.7598
X3.3425Y-2.6299
X3.3425Y-2.6614
X3.3819Y-2.6299
X3.3819Y-2.6614
X3.4459Y-2.7323
X3.4724Y-2.5276
X3.4724Y-2.5591
X3.5541Y-2.7392
X3.685Y-1.9173
X3.685Y-1.9882
X3.685Y-2.1299
X3.685Y-2.2008
X3.685Y-2.3425
X3.685Y-2.4134
X3.685Y-2.5551
X3.6969Y-2.6024
X3.7047Y-2.7638
X3.7244Y-1.9173
X3.7244Y-1.9882
X3.7244Y-2.1299
X3.7244Y-2.2008
X3.7244Y-2.3425
X3.7244Y-2.4134
X3.7244Y-2.5551
X3.7244Y-2.626
X3.7992Y-2.0709
X3.7992Y-2.2835
X3.7992Y-2.4961
X3.8031Y-1.6535
X3.8228Y-1.6339
X3.8228Y-1.6732
X3.8268Y-1.8386
X3.8268Y-1.8701
X3.8386Y-2.0709
X3.8386Y-2.2835
X3.8386Y-2.4961
X3.8425Y-1.6535
X3.8622Y-1.6339
X3.8622Y-1.6732
X3.8819Y-1.6535
X3.9921Y-1.8976
X3.9921Y-1.9291
X3.9921Y-1.9606
X3.9921Y-1.9921
X3.9921Y-2.1102
X3.9921Y-2.1417
X3.9921Y-2.1732
X3.9921Y-2.2047
X3.9921Y-2.3228
X3.9921Y-2.3543
X3.9921Y-2.3858
X3.9921Y-2.4173
X3.9921Y-2.5354
X3.9921Y-2.5669
X3.9921Y-2.5984
X3.9921Y-2.6299
X4.0157Y-1.9134
X4.0157Y-1.9449
X4.0157Y-1.9764
X4.0157Y-2.126
X4.0157Y-2.1575
X4.0157Y-2.189
X4.0157Y-2.3386
X4.0157Y-2.3701
X4.0157Y-2.4016
X4.0157Y-2.5512
X4.0157Y-2.5827
X4.0157Y-2.6142
X4.0394Y-1.8976
X4.0394Y-1.9291
X4.0394Y-1.9606
X4.0394Y-1.9921
X4.0394Y-2.1102
X4.0394Y-2.1417
X4.0394Y-2.1732
X4.0394Y-2.2047
X4.0394Y-2.3228
X4.0394Y-2.3543
X4.0394Y-2.3858
X4.0394Y-2.4173
X4.0394Y-2.5354
X4.0394Y-2.5669
X4.0394Y-2.5984
X4.0394Y-2.6299
T3
X3.0453Y-1.675
X3.0453Y-2.925
X3.0686Y-1.6186
X3.0686Y-1.7314
X3.0686Y-2.8686
X3.0686Y-2.9814
X3.125Y-1.5953
X3.125Y-1.7547
X3.125Y-2.8453
X3.125Y-3.0047
X3.1814Y-1.6186
X3.1814Y-1.7314
X3.1814Y-2.8686
X3.1814Y-2.9814
X3.2047Y-1.675
X3.2047Y-2.925
X4.1453Y-1.675
X4.1453Y-2.925
X4.1686Y-1.6186
X4.1686Y-1.7314
X4.1686Y-2.8686
X4.1686Y-2.9814
X4.225Y-1.5953
X4.225Y-1.7547
X4.225Y-2.8453
X4.225Y-3.0047
X4.2814Y-1.6186
X4.2814Y-1.7314
X4.2814Y-2.8686
X4.2814Y-2.9814
X4.3047Y-1.675
X4.3047Y-2.925
T4
X3.9476Y-1.675
X4.046Y-1.675
T5
X4.425Y-1.625
X4.425Y-1.725
X4.525Y-1.625
X4.525Y-1.725
X4.625Y-1.625
X4.625Y-1.725
T6
X2.925Y-1.625
X2.925Y-1.725
X2.925Y-1.825
X2.925Y-1.925
X2.925Y-2.025
X3.325Y-1.625
X3.325Y-1.725
X3.325Y-2.875
X3.325Y-2.975
X3.425Y-1.625
X3.425Y-1.725
X3.425Y-2.875
X3.425Y-2.975
X3.525Y-1.625
X3.525Y-1.725
X3.525Y-2.875
X3.525Y-2.975
X3.625Y-1.625
X3.625Y-1.725
X3.625Y-2.875
X3.625Y-2.975
X3.725Y-1.625
X3.725Y-1.725
X3.725Y-2.875
X3.725Y-2.975
X3.825Y-2.875
X3.825Y-2.975
X3.925Y-2.875
X3.925Y-2.975
X4.025Y-2.875
X4.025Y-2.975
X4.445Y-1.875
X4.445Y-1.975
X4.445Y-2.075
X4.445Y-2.175
X4.445Y-2.275
X4.445Y-2.375
X4.445Y-2.475
X4.445Y-2.575
X4.445Y-2.675
X4.445Y-2.775
X4.445Y-2.875
X4.445Y-2.975
X4.545Y-1.875
X4.545Y-1.975
X4.545Y-2.075
X4.545Y-2.175
X4.545Y-2.275
X4.545Y-2.375
X4.545Y-2.475
X4.545Y-2.575
X4.545Y-2.675
X4.545Y-2.775
X4.545Y-2.875
X4.545Y-2.975
T7
X4.5Y-1.925
X4.5Y-2.125
X4.5Y-2.325
X4.5Y-2.525
X4.5Y-2.725
X4.5Y-2.925
T8
X3.125Y-1.675
X3.125Y-2.925
X4.225Y-1.675
X4.225Y-2.925
T0
M30
