M48
; DRILL file {KiCad (7.0.0)} date Sat Nov 18 15:32:54 2023
; FORMAT={-:-/ absolute / inch / decimal}
; #@! TF.CreationDate,2023-11-18T15:32:54-05:00
; #@! TF.GenerationSoftware,Kicad,Pcbnew,(7.0.0)
; #@! TF.FileFunction,Plated,1,6,PTH
FMAT,2
INCH
; #@! TA.AperFunction,Plated,PTH,ViaDrill
T1C0.0079
; #@! TA.AperFunction,Plated,PTH,ComponentDrill
T2C0.0079
; #@! TA.AperFunction,Plated,PTH,ComponentDrill
T3C0.0080
; #@! TA.AperFunction,Plated,PTH,ViaDrill
T4C0.0098
; #@! TA.AperFunction,Plated,PTH,ViaDrill
T5C0.0118
; #@! TA.AperFunction,Plated,PTH,ViaDrill
T6C0.0177
; #@! TA.AperFunction,Plated,PTH,ComponentDrill
T7C0.0197
; #@! TA.AperFunction,Plated,PTH,ComponentDrill
T8C0.0394
; #@! TA.AperFunction,Plated,PTH,ComponentDrill
T9C0.0472
; #@! TA.AperFunction,Plated,PTH,ComponentDrill
T10C0.1063
%
G90
G05
T1
X3.3346Y-2.5512
X3.3386Y-2.7205
X3.3386Y-2.7598
X3.3898Y-2.3622
X3.3898Y-2.3937
X3.3898Y-2.5827
X3.3898Y-2.6142
X3.3898Y-2.6457
X3.4213Y-2.5827
X3.4528Y-2.5197
X3.4528Y-2.5827
X3.4843Y-2.5827
X3.4843Y-2.6142
X3.5157Y-2.5827
X3.563Y-2.4094
X3.5787Y-2.5197
X3.5945Y-2.378
X3.5945Y-2.4094
X3.6102Y-2.4252
X3.6102Y-2.4567
X3.6102Y-2.5197
X3.6102Y-2.5512
X3.6102Y-2.6142
X3.626Y-2.378
X3.6417Y-2.3346
X3.6417Y-2.5827
X3.78Y-2.025
X3.78Y-2.05
X3.7843Y-2.3379
X3.7843Y-2.6279
X3.7843Y-2.9179
X3.785Y-2.315
X3.785Y-2.895
X3.8674Y-2.095
X3.8674Y-2.385
X3.8674Y-2.675
X3.8674Y-2.96
X3.8676Y-2.1356
X3.8676Y-2.4256
X3.8676Y-2.7156
X3.8676Y-3.0006
X3.895Y-2.09
X3.895Y-2.12
X3.895Y-2.38
X3.895Y-2.41
X3.895Y-2.67
X3.895Y-2.7
X3.895Y-2.96
X3.895Y-2.99
X3.905Y-2.105
X3.905Y-2.395
X3.905Y-2.685
X3.905Y-2.975
X3.915Y-2.09
X3.915Y-2.12
X3.915Y-2.38
X3.915Y-2.41
X3.915Y-2.67
X3.915Y-2.7
X3.915Y-2.96
X3.915Y-2.99
X3.925Y-2.105
X3.925Y-2.395
X3.925Y-2.685
X3.925Y-2.975
X3.935Y-2.09
X3.935Y-2.12
X3.935Y-2.38
X3.935Y-2.41
X3.935Y-2.67
X3.935Y-2.7
X3.935Y-2.96
X3.935Y-2.99
X3.945Y-2.105
X3.945Y-2.395
X3.945Y-2.685
X3.945Y-2.975
X3.955Y-2.09
X3.955Y-2.12
X3.955Y-2.38
X3.955Y-2.41
X3.955Y-2.67
X3.955Y-2.7
X3.955Y-2.96
X3.955Y-2.99
X3.965Y-2.105
X3.965Y-2.395
X3.965Y-2.685
X3.965Y-2.975
X3.975Y-2.09
X3.975Y-2.12
X3.975Y-2.38
X3.975Y-2.41
X3.975Y-2.67
X3.975Y-2.7
X3.975Y-2.96
X3.975Y-2.99
X3.985Y-2.105
X3.985Y-2.395
X3.985Y-2.685
X3.985Y-2.975
X3.995Y-2.09
X3.995Y-2.12
X3.995Y-2.38
X3.995Y-2.41
X3.995Y-2.67
X3.995Y-2.7
X3.995Y-2.96
X3.995Y-2.99
X4.005Y-2.105
X4.005Y-2.395
X4.005Y-2.685
X4.005Y-2.975
T2
X3.7217Y-1.7362
X3.761Y-1.7362
X3.8004Y-1.7362
X3.8169Y-1.6681
X3.8169Y-1.6949
X3.8398Y-1.7362
X3.8791Y-1.7362
T3
X3.7303Y-1.6681
X3.7358Y-1.7055
X3.75Y-1.6681
X3.7681Y-1.7055
X3.7697Y-1.6681
T4
X3.3147Y-2.5354
X3.3307Y-2.4252
X3.3583Y-2.3937
X3.3583Y-2.4567
X3.3898Y-2.4882
X3.3898Y-2.5197
X3.4213Y-2.4252
X3.4449Y-2.1811
X3.4449Y-2.2555
X3.445Y-2.295
X3.4488Y-1.9213
X3.4488Y-2.0709
X3.4843Y-2.3622
X3.4843Y-2.3937
X3.4843Y-2.4252
X3.4843Y-2.4882
X3.4843Y-2.5197
X3.4843Y-2.5512
X3.4843Y-2.7087
X3.4843Y-2.748
X3.4882Y-1.8622
X3.4882Y-1.9213
X3.4882Y-1.9764
X3.4882Y-2.0118
X3.4882Y-2.0709
X3.4882Y-2.126
X3.4882Y-2.8425
X3.4882Y-2.8819
X3.4882Y-2.9213
X3.4882Y-2.9921
X3.515Y-3.02
X3.5157Y-2.3937
X3.5157Y-2.4882
X3.5157Y-2.5197
X3.5157Y-2.5512
X3.5315Y-2.7008
X3.5315Y-2.7224
X3.5315Y-2.7598
X3.5315Y-2.7835
X3.5472Y-2.3622
X3.5472Y-2.3937
X3.5472Y-2.4252
X3.5472Y-2.4882
X3.5472Y-2.5197
X3.5472Y-2.5512
X3.563Y-2.8661
X3.563Y-2.9016
X3.563Y-3.0161
X3.563Y-3.0508
X3.5787Y-2.7087
X3.5787Y-2.748
X3.6024Y-2.8276
X3.6024Y-2.8654
X3.6024Y-2.9024
X3.6024Y-2.9402
X3.6024Y-2.9764
X3.6024Y-3.0157
X3.6024Y-3.052
X3.6024Y-3.0898
X3.6299Y-2.6693
X3.6329Y-1.9508
X3.7134Y-2.3189
X3.7161Y-2.375
X3.7441Y-2.3189
X3.8685Y-1.7913
X3.89Y-1.865
X3.89Y-1.885
X3.89Y-2.155
X3.89Y-2.175
X3.89Y-2.445
X3.89Y-2.465
X3.89Y-2.735
X3.89Y-2.755
X3.8937Y-1.7047
X3.91Y-1.865
X3.91Y-1.885
X3.91Y-2.155
X3.91Y-2.175
X3.91Y-2.445
X3.91Y-2.465
X3.91Y-2.735
X3.91Y-2.755
X3.95Y-1.865
X3.95Y-1.885
X3.95Y-2.155
X3.95Y-2.175
X3.95Y-2.445
X3.95Y-2.465
X3.95Y-2.735
X3.95Y-2.755
X3.97Y-1.865
X3.97Y-1.885
X3.97Y-2.155
X3.97Y-2.175
X3.97Y-2.445
X3.97Y-2.465
X3.97Y-2.735
X3.97Y-2.755
X4.01Y-1.865
X4.01Y-1.885
X4.01Y-2.155
X4.01Y-2.175
X4.01Y-2.445
X4.01Y-2.465
X4.01Y-2.735
X4.01Y-2.755
X4.03Y-1.865
X4.03Y-1.885
X4.03Y-2.155
X4.03Y-2.175
X4.03Y-2.445
X4.03Y-2.465
X4.03Y-2.735
X4.03Y-2.755
X4.07Y-1.865
X4.07Y-1.885
X4.07Y-2.155
X4.07Y-2.175
X4.07Y-2.445
X4.07Y-2.465
X4.07Y-2.735
X4.07Y-2.755
X4.09Y-1.865
X4.09Y-1.885
X4.09Y-2.155
X4.09Y-2.175
X4.09Y-2.445
X4.09Y-2.465
X4.09Y-2.735
X4.09Y-2.755
X4.0906Y-3.0157
X4.195Y-3.09
X4.2047Y-2.5
X4.2087Y-2.7874
X4.24Y-3.04
X4.2689Y-2.21
X4.2689Y-2.5
X4.2689Y-2.79
X4.285Y-3.03
T5
X3.2598Y-2.3622
X3.2598Y-2.4488
X3.2598Y-2.4882
X3.2598Y-2.563
X3.2992Y-2.3622
X3.2992Y-2.4488
X3.2992Y-2.4882
X3.2992Y-2.563
X3.2992Y-2.5984
X3.2992Y-2.622
X3.2992Y-2.6575
X3.2992Y-2.685
X3.3484Y-1.9508
X3.3484Y-2.1043
X3.374Y-1.876
X3.374Y-1.9508
X3.374Y-2.0295
X3.374Y-2.1043
X3.3996Y-1.876
X3.3996Y-2.0295
X3.4843Y-2.2323
X3.5118Y-2.2323
X3.5157Y-2.6457
X3.6181Y-2.2709
X3.6181Y-2.2323
X3.6575Y-2.2244
X3.6575Y-2.2638
X3.6811Y-2.2244
X3.6811Y-2.2638
X3.7165Y-2.5079
X3.7165Y-2.563
X3.7165Y-2.6102
X3.7172Y-2.085
X3.7172Y-2.665
X3.7172Y-2.955
X3.72Y-2.115
X3.72Y-2.145
X3.72Y-2.405
X3.72Y-2.435
X3.72Y-2.695
X3.72Y-2.725
X3.72Y-2.985
X3.72Y-3.015
X3.7402Y-2.563
X3.7402Y-2.6102
X3.748Y-2.2126
X3.75Y-2.115
X3.75Y-2.145
X3.75Y-2.405
X3.75Y-2.435
X3.75Y-2.695
X3.75Y-2.725
X3.75Y-2.985
X3.75Y-3.015
X3.7559Y-2.5079
X3.7559Y-3.0866
X3.7795Y-1.8425
X3.7795Y-1.8661
X3.895Y-1.945
X3.895Y-1.985
X3.895Y-2.24
X3.895Y-2.28
X3.895Y-2.53
X3.895Y-2.57
X3.895Y-2.82
X3.895Y-2.86
X3.905Y-1.925
X3.905Y-1.965
X3.905Y-2.005
X3.905Y-2.22
X3.905Y-2.26
X3.905Y-2.3
X3.905Y-2.51
X3.905Y-2.55
X3.905Y-2.59
X3.905Y-2.8
X3.905Y-2.84
X3.905Y-2.88
X3.955Y-1.945
X3.955Y-1.985
X3.955Y-2.24
X3.955Y-2.28
X3.955Y-2.53
X3.955Y-2.57
X3.955Y-2.82
X3.955Y-2.86
X3.9567Y-1.7874
X3.9567Y-1.8268
X3.965Y-1.925
X3.965Y-1.965
X3.965Y-2.005
X3.965Y-2.22
X3.965Y-2.26
X3.965Y-2.3
X3.965Y-2.51
X3.965Y-2.55
X3.965Y-2.59
X3.965Y-2.8
X3.965Y-2.84
X3.965Y-2.88
X4.015Y-1.945
X4.015Y-1.985
X4.015Y-2.24
X4.015Y-2.28
X4.015Y-2.53
X4.015Y-2.57
X4.015Y-2.82
X4.015Y-2.86
X4.025Y-1.925
X4.025Y-1.965
X4.025Y-2.22
X4.025Y-2.26
X4.025Y-2.51
X4.025Y-2.55
X4.025Y-2.8
X4.025Y-2.84
X4.05Y-3.25
X4.075Y-1.945
X4.075Y-2.24
X4.075Y-2.53
X4.075Y-2.82
X4.085Y-1.925
X4.085Y-2.22
X4.085Y-2.51
X4.085Y-2.8
X4.1579Y-2.1111
X4.1579Y-2.4011
X4.1579Y-2.6911
X4.2008Y-2.2087
X4.2165Y-2.3937
X4.285Y-2.9961
X4.32Y-2.1261
X4.32Y-2.1639
X4.32Y-2.4161
X4.32Y-2.4539
X4.32Y-2.7011
X4.32Y-2.7389
X4.385Y-3.135
X4.39Y-3.16
X4.405Y-3.115
X4.41Y-3.14
X4.415Y-3.165
X4.425Y-3.095
X4.43Y-3.12
X4.435Y-3.145
X4.445Y-3.075
X4.45Y-3.1
X4.455Y-3.125
X4.465Y-3.055
X4.47Y-3.08
X4.475Y-3.105
X4.49Y-3.06
X4.495Y-3.085
X4.535Y-2.985
X4.54Y-3.01
X4.555Y-2.965
X4.56Y-2.99
X4.565Y-3.015
X4.575Y-2.945
X4.58Y-2.97
X4.585Y-2.995
X4.595Y-2.925
X4.6Y-2.95
X4.605Y-2.975
X4.615Y-2.905
X4.62Y-2.93
X4.625Y-2.955
X4.64Y-2.91
X4.645Y-2.935
T6
X3.5512Y-1.685
X3.5512Y-1.7441
X3.5709Y-1.9882
X3.5709Y-2.0276
X3.5827Y-1.685
X3.5827Y-1.7441
X3.5827Y-1.878
X3.5827Y-1.9094
X3.5866Y-2.1063
X3.5866Y-2.1378
X3.622Y-1.878
X3.622Y-1.9094
X3.626Y-2.1063
X3.626Y-2.1378
X3.6339Y-1.685
X3.6339Y-1.7441
X3.6378Y-1.9882
X3.6378Y-2.0276
X3.6654Y-1.685
X3.6654Y-1.7441
X3.9291Y-1.6811
X3.9291Y-1.7402
X4.0Y-1.685
X4.0Y-1.748
X4.0315Y-1.685
X4.0315Y-1.748
X4.44Y-3.25
X4.44Y-3.29
X4.46Y-3.23
X4.46Y-3.27
X4.46Y-3.31
X4.48Y-3.25
X4.48Y-3.29
X4.57Y-3.25
X4.57Y-3.29
X4.59Y-3.23
X4.59Y-3.27
X4.59Y-3.31
X4.61Y-3.25
X4.61Y-3.29
T7
X3.2953Y-1.725
X3.2953Y-3.225
X3.3186Y-1.6686
X3.3186Y-1.7814
X3.3186Y-3.1686
X3.3186Y-3.2814
X3.375Y-1.6453
X3.375Y-1.8047
X3.375Y-3.1453
X3.375Y-3.3047
X3.4314Y-1.6686
X3.4314Y-1.7814
X3.4314Y-3.1686
X3.4314Y-3.2814
X3.4547Y-1.725
X3.4547Y-3.225
X4.1453Y-1.725
X4.1453Y-3.225
X4.1686Y-1.6686
X4.1686Y-1.7814
X4.1686Y-3.1686
X4.1686Y-3.2814
X4.225Y-1.6453
X4.225Y-1.8047
X4.225Y-3.1453
X4.225Y-3.3047
X4.2814Y-1.6686
X4.2814Y-1.7814
X4.2814Y-3.1686
X4.2814Y-3.2814
X4.3047Y-1.725
X4.3047Y-3.225
T8
X3.075Y-1.675
X3.075Y-1.775
X3.075Y-1.875
X3.075Y-1.975
X3.075Y-2.075
X3.075Y-2.175
X3.075Y-2.275
X3.075Y-2.375
X3.075Y-2.475
X3.075Y-2.575
X3.075Y-2.675
X3.075Y-2.775
X3.075Y-2.875
X3.075Y-2.975
X3.075Y-3.075
X3.075Y-3.175
X3.075Y-3.275
X3.175Y-1.675
X3.175Y-1.775
X3.175Y-1.875
X3.175Y-1.975
X3.175Y-2.075
X3.175Y-2.175
X3.175Y-2.275
X3.175Y-2.375
X3.175Y-2.475
X3.175Y-2.575
X3.175Y-2.675
X3.175Y-2.775
X3.175Y-2.875
X3.175Y-2.975
X3.175Y-3.075
X3.175Y-3.175
X3.175Y-3.275
X3.6Y-3.3
X3.7Y-3.3
X3.8Y-3.3
X3.9Y-3.3
X4.0Y-3.3
X4.45Y-1.675
X4.45Y-1.775
X4.45Y-1.875
X4.45Y-1.975
X4.45Y-2.075
X4.45Y-2.175
X4.45Y-2.275
X4.45Y-2.375
X4.45Y-2.475
X4.45Y-2.575
X4.45Y-2.675
X4.45Y-2.775
X4.55Y-1.675
X4.55Y-1.775
X4.55Y-1.875
X4.55Y-1.975
X4.55Y-2.075
X4.55Y-2.175
X4.55Y-2.275
X4.55Y-2.375
X4.55Y-2.475
X4.55Y-2.575
X4.55Y-2.675
X4.55Y-2.775
T9
X4.5Y-1.725
X4.5Y-1.925
X4.5Y-2.125
X4.5Y-2.325
X4.5Y-2.525
X4.5Y-2.725
T10
X3.375Y-1.725
X3.375Y-3.225
X4.225Y-1.725
X4.225Y-3.225
T0
M30
