%TF.GenerationSoftware,KiCad,Pcbnew,(7.0.0)*%
%TF.CreationDate,2023-11-06T15:13:21-05:00*%
%TF.ProjectId,ECE4760 Motor Driver,45434534-3736-4302-904d-6f746f722044,rev?*%
%TF.SameCoordinates,Original*%
%TF.FileFunction,Copper,L5,Inr*%
%TF.FilePolarity,Positive*%
%FSLAX46Y46*%
G04 Gerber Fmt 4.6, Leading zero omitted, Abs format (unit mm)*
G04 Created by KiCad (PCBNEW (7.0.0)) date 2023-11-06 15:13:21*
%MOMM*%
%LPD*%
G01*
G04 APERTURE LIST*
G04 Aperture macros list*
%AMRoundRect*
0 Rectangle with rounded corners*
0 $1 Rounding radius*
0 $2 $3 $4 $5 $6 $7 $8 $9 X,Y pos of 4 corners*
0 Add a 4 corners polygon primitive as box body*
4,1,4,$2,$3,$4,$5,$6,$7,$8,$9,$2,$3,0*
0 Add four circle primitives for the rounded corners*
1,1,$1+$1,$2,$3*
1,1,$1+$1,$4,$5*
1,1,$1+$1,$6,$7*
1,1,$1+$1,$8,$9*
0 Add four rect primitives between the rounded corners*
20,1,$1+$1,$2,$3,$4,$5,0*
20,1,$1+$1,$4,$5,$6,$7,0*
20,1,$1+$1,$6,$7,$8,$9,0*
20,1,$1+$1,$8,$9,$2,$3,0*%
G04 Aperture macros list end*
%TA.AperFunction,ComponentPad*%
%ADD10C,0.800000*%
%TD*%
%TA.AperFunction,ComponentPad*%
%ADD11C,5.400000*%
%TD*%
%TA.AperFunction,ComponentPad*%
%ADD12RoundRect,0.250000X-1.550000X0.650000X-1.550000X-0.650000X1.550000X-0.650000X1.550000X0.650000X0*%
%TD*%
%TA.AperFunction,ComponentPad*%
%ADD13O,3.600000X1.800000*%
%TD*%
%TA.AperFunction,ComponentPad*%
%ADD14R,1.600000X1.600000*%
%TD*%
%TA.AperFunction,ComponentPad*%
%ADD15C,1.600000*%
%TD*%
%TA.AperFunction,ComponentPad*%
%ADD16R,1.700000X1.700000*%
%TD*%
%TA.AperFunction,ComponentPad*%
%ADD17O,1.700000X1.700000*%
%TD*%
%TA.AperFunction,ViaPad*%
%ADD18C,0.400000*%
%TD*%
%TA.AperFunction,ViaPad*%
%ADD19C,0.300000*%
%TD*%
%TA.AperFunction,ViaPad*%
%ADD20C,0.450000*%
%TD*%
%TA.AperFunction,ViaPad*%
%ADD21C,0.600000*%
%TD*%
%TA.AperFunction,ViaPad*%
%ADD22C,0.350000*%
%TD*%
G04 APERTURE END LIST*
D10*
%TO.N,GND*%
%TO.C,H2*%
X83700000Y-43815000D03*
X84293109Y-42383109D03*
X84293109Y-45246891D03*
X85725000Y-41790000D03*
D11*
X85725000Y-43815000D03*
D10*
X85725000Y-45840000D03*
X87156891Y-42383109D03*
X87156891Y-45246891D03*
X87750000Y-43815000D03*
%TD*%
%TO.N,GND*%
%TO.C,H1*%
X105290000Y-43815000D03*
X105883109Y-42383109D03*
X105883109Y-45246891D03*
X107315000Y-41790000D03*
D11*
X107315000Y-43815000D03*
D10*
X107315000Y-45840000D03*
X108746891Y-42383109D03*
X108746891Y-45246891D03*
X109340000Y-43815000D03*
%TD*%
D12*
%TO.N,PH1*%
%TO.C,J2*%
X114300000Y-52705000D03*
D13*
%TO.N,PH2*%
X114299999Y-57784999D03*
%TO.N,PH3*%
X114299999Y-62864999D03*
%TO.N,PH4*%
X114299999Y-67944999D03*
%TO.N,GND*%
X114299999Y-73024999D03*
%TO.N,Vdrive*%
X114299999Y-78104999D03*
%TO.N,+5V*%
X114299999Y-83184999D03*
%TD*%
D10*
%TO.N,GND*%
%TO.C,H4*%
X83700000Y-83185000D03*
X84293109Y-81753109D03*
X84293109Y-84616891D03*
X85725000Y-81160000D03*
D11*
X85725000Y-83185000D03*
D10*
X85725000Y-85210000D03*
X87156891Y-81753109D03*
X87156891Y-84616891D03*
X87750000Y-83185000D03*
%TD*%
D14*
%TO.N,Vdrive*%
%TO.C,C1*%
X112532348Y-45084999D03*
D15*
%TO.N,GND*%
X117532349Y-45085000D03*
%TD*%
D10*
%TO.N,GND*%
%TO.C,H3*%
X105290000Y-83185000D03*
X105883109Y-81753109D03*
X105883109Y-84616891D03*
X107315000Y-81160000D03*
D11*
X107315000Y-83185000D03*
D10*
X107315000Y-85210000D03*
X108746891Y-81753109D03*
X108746891Y-84616891D03*
X109340000Y-83185000D03*
%TD*%
D16*
%TO.N,/BOOT_SELECT*%
%TO.C,J6*%
X100583999Y-41909999D03*
D17*
%TO.N,GND*%
X103123999Y-41909999D03*
%TD*%
D16*
%TO.N,GND*%
%TO.C,J1*%
X78231999Y-43179999D03*
D17*
%TO.N,+5V*%
X80771999Y-43179999D03*
%TO.N,Hall_C_In*%
X78231999Y-45719999D03*
%TO.N,Hall_B_In*%
X80771999Y-45719999D03*
%TO.N,Hall_I_In*%
X78231999Y-48259999D03*
%TO.N,Hall_A_In*%
X80771999Y-48259999D03*
%TO.N,GND*%
X78231999Y-50799999D03*
%TO.N,+5V*%
X80771999Y-50799999D03*
%TO.N,Aux_Enc_B_In-*%
X78231999Y-53339999D03*
%TO.N,Aux_Enc_B_In+*%
X80771999Y-53339999D03*
%TO.N,Aux_Enc_A_In-*%
X78231999Y-55879999D03*
%TO.N,Aux_Enc_A_In+*%
X80771999Y-55879999D03*
%TO.N,GND*%
X78231999Y-58419999D03*
%TO.N,+5V*%
X80771999Y-58419999D03*
%TO.N,~{Abort}*%
X78231999Y-60959999D03*
%TO.N,~{Fault_Enable}*%
X80771999Y-60959999D03*
%TO.N,LED_1*%
X78231999Y-63499999D03*
%TO.N,LED_2*%
X80771999Y-63499999D03*
%TO.N,GND*%
X78231999Y-66039999D03*
%TO.N,+3V3*%
X80771999Y-66039999D03*
%TO.N,Enc_A_In+*%
X78231999Y-68579999D03*
%TO.N,Enc_A_In-*%
X80771999Y-68579999D03*
%TO.N,Enc_B_In+*%
X78231999Y-71119999D03*
%TO.N,Enc_B_In-*%
X80771999Y-71119999D03*
%TO.N,Enc_I_In+*%
X78231999Y-73659999D03*
%TO.N,Enc_I_In-*%
X80771999Y-73659999D03*
%TO.N,GND*%
X78231999Y-76199999D03*
%TO.N,+5V*%
X80771999Y-76199999D03*
%TO.N,Lim_L_In*%
X78231999Y-78739999D03*
%TO.N,Lim_H_In*%
X80771999Y-78739999D03*
%TO.N,Lim_R_In*%
X78231999Y-81279999D03*
%TO.N,Lim_Aux_In*%
X80771999Y-81279999D03*
%TO.N,GND*%
X78231999Y-83819999D03*
%TO.N,+5V*%
X80771999Y-83819999D03*
%TD*%
D16*
%TO.N,PH1*%
%TO.C,J100*%
X113029999Y-51434999D03*
D17*
X115569999Y-51434999D03*
X113029999Y-53974999D03*
X115569999Y-53974999D03*
%TO.N,PH2*%
X113029999Y-56514999D03*
X115569999Y-56514999D03*
X113029999Y-59054999D03*
X115569999Y-59054999D03*
%TO.N,PH3*%
X113029999Y-61594999D03*
X115569999Y-61594999D03*
X113029999Y-64134999D03*
X115569999Y-64134999D03*
%TO.N,PH4*%
X113029999Y-66674999D03*
X115569999Y-66674999D03*
X113029999Y-69214999D03*
X115569999Y-69214999D03*
%TO.N,GND*%
X113029999Y-71754999D03*
X115569999Y-71754999D03*
X113029999Y-74294999D03*
X115569999Y-74294999D03*
%TO.N,Vdrive*%
X113029999Y-76834999D03*
X115569999Y-76834999D03*
X113029999Y-79374999D03*
X115569999Y-79374999D03*
%TO.N,+5V*%
X113029999Y-81914999D03*
X115569999Y-81914999D03*
X113029999Y-84454999D03*
X115569999Y-84454999D03*
%TD*%
D18*
%TO.N,GND*%
X85590000Y-49700000D03*
X106400000Y-78200000D03*
D19*
X88800000Y-61000000D03*
D20*
X92202000Y-80899000D03*
X87000000Y-73800000D03*
X88200000Y-53500000D03*
X89600000Y-76000000D03*
D21*
X90500001Y-77000000D03*
D19*
X88800000Y-57800000D03*
D18*
X86800000Y-59000000D03*
X87200000Y-56300000D03*
D20*
X108331000Y-77188000D03*
X90900000Y-76000000D03*
D18*
X83290000Y-49700000D03*
X87800000Y-56300000D03*
X107800000Y-70000000D03*
D20*
X97473000Y-76581000D03*
D18*
X87920000Y-50900000D03*
X88400000Y-59800000D03*
D20*
X104849000Y-67592498D03*
X94500000Y-48000000D03*
X92202000Y-82042000D03*
X104849000Y-51082498D03*
X109220000Y-52423000D03*
D21*
X91300001Y-76999999D03*
D19*
X89600000Y-61800000D03*
D22*
X96647000Y-58674000D03*
D18*
X86000000Y-60600000D03*
D20*
X92500000Y-61300000D03*
D21*
X83500001Y-76999999D03*
D20*
X95000000Y-44700000D03*
X109220000Y-68806000D03*
D18*
X85620000Y-50900000D03*
D21*
X84300001Y-77000000D03*
D22*
X96647000Y-66929000D03*
D19*
X88000000Y-62600000D03*
D20*
X90900000Y-73800000D03*
X87000000Y-76000000D03*
X109220000Y-60678000D03*
X100838000Y-80899000D03*
X88900000Y-53500000D03*
X100838000Y-82042000D03*
X85700000Y-76000000D03*
X85700000Y-73800000D03*
D19*
X88800000Y-62600000D03*
D20*
X97473000Y-51816000D03*
D22*
X96647000Y-75184000D03*
D18*
X87890000Y-49700000D03*
X107800000Y-53500000D03*
D20*
X91900001Y-53499999D03*
D18*
X90220000Y-50900000D03*
X83320000Y-50900000D03*
D20*
X97473000Y-68326000D03*
D18*
X84400000Y-59800000D03*
X87800000Y-55700000D03*
D20*
X103960000Y-75847498D03*
D22*
X96647000Y-50419000D03*
D20*
X89600000Y-73800000D03*
X104849000Y-59337498D03*
D19*
X88000000Y-61000000D03*
D18*
X107800000Y-61800000D03*
D20*
X97473000Y-60071000D03*
D19*
X84500000Y-56600000D03*
%TO.N,+3V3*%
X85000000Y-55900000D03*
D18*
%TO.N,/HALL_I*%
X84300000Y-50900000D03*
D19*
X86700000Y-56600000D03*
D18*
%TO.N,LED_1*%
X84000000Y-65000000D03*
%TO.N,LED_2*%
X85200000Y-62200000D03*
%TO.N,/BOOT_SELECT*%
X92903200Y-49696800D03*
X91600000Y-59000000D03*
D19*
%TO.N,Net-(U1-PA1)*%
X86800000Y-58200000D03*
%TD*%
%TA.AperFunction,Conductor*%
%TO.N,GND*%
G36*
X109556755Y-50801891D02*
G01*
X109624883Y-50815400D01*
X109660478Y-50830094D01*
X109710049Y-50863087D01*
X109737343Y-50890251D01*
X109770575Y-50939663D01*
X109785442Y-50975190D01*
X109799278Y-51043253D01*
X109801261Y-51062499D01*
X109899443Y-71484263D01*
X109897611Y-71503703D01*
X109884187Y-71572484D01*
X109869402Y-71608422D01*
X109830541Y-71666734D01*
X109818163Y-71681836D01*
X108577832Y-72922167D01*
X108577827Y-72922172D01*
X108574395Y-72925605D01*
X108571696Y-72929643D01*
X108571692Y-72929649D01*
X108524751Y-72999902D01*
X108524749Y-72999905D01*
X108519335Y-73008009D01*
X108517433Y-73017566D01*
X108517432Y-73017571D01*
X108500947Y-73100446D01*
X108500946Y-73100452D01*
X108500000Y-73105210D01*
X108500000Y-73110068D01*
X108500000Y-75783984D01*
X108484028Y-75837903D01*
X108441267Y-75874425D01*
X108385513Y-75881765D01*
X108338696Y-75874350D01*
X108331000Y-75873131D01*
X108323304Y-75874350D01*
X108229034Y-75889281D01*
X108229032Y-75889281D01*
X108221339Y-75890500D01*
X108214401Y-75894034D01*
X108214398Y-75894036D01*
X108129352Y-75937369D01*
X108129350Y-75937370D01*
X108122413Y-75940905D01*
X108116909Y-75946408D01*
X108116906Y-75946411D01*
X108049411Y-76013906D01*
X108049408Y-76013909D01*
X108043905Y-76019413D01*
X108040370Y-76026350D01*
X108040369Y-76026352D01*
X107997036Y-76111398D01*
X107997034Y-76111401D01*
X107993500Y-76118339D01*
X107992281Y-76126032D01*
X107992281Y-76126034D01*
X107984151Y-76177363D01*
X107976131Y-76228000D01*
X107993500Y-76337661D01*
X108043905Y-76436587D01*
X108122413Y-76515095D01*
X108221339Y-76565500D01*
X108331000Y-76582869D01*
X108338696Y-76581650D01*
X108385513Y-76574235D01*
X108441267Y-76581575D01*
X108484028Y-76618097D01*
X108500000Y-76672016D01*
X108500000Y-77685038D01*
X108498097Y-77704354D01*
X108484505Y-77772679D01*
X108469724Y-77808364D01*
X108431023Y-77866285D01*
X108418711Y-77881288D01*
X106381288Y-79918711D01*
X106366285Y-79931023D01*
X106308364Y-79969724D01*
X106272679Y-79984505D01*
X106204354Y-79998097D01*
X106185038Y-80000000D01*
X94114962Y-80000000D01*
X94095647Y-79998097D01*
X94027321Y-79984505D01*
X93991635Y-79969724D01*
X93933714Y-79931023D01*
X93918711Y-79918711D01*
X91981288Y-77981288D01*
X91968976Y-77966285D01*
X91930275Y-77908364D01*
X91915493Y-77872677D01*
X91901902Y-77804352D01*
X91900000Y-77785038D01*
X91900000Y-71010068D01*
X91900000Y-71005210D01*
X91880665Y-70908009D01*
X91825605Y-70825605D01*
X90074395Y-69074395D01*
X89991991Y-69019335D01*
X89982431Y-69017433D01*
X89982428Y-69017432D01*
X89899553Y-69000947D01*
X89899548Y-69000946D01*
X89894790Y-69000000D01*
X89889932Y-69000000D01*
X88014962Y-69000000D01*
X87995647Y-68998097D01*
X87927321Y-68984505D01*
X87891635Y-68969724D01*
X87833714Y-68931023D01*
X87818711Y-68918711D01*
X84708176Y-65808176D01*
X84681526Y-65759596D01*
X84684945Y-65707459D01*
X84686734Y-65704363D01*
X84705136Y-65600000D01*
X84686734Y-65495637D01*
X84633748Y-65403862D01*
X84627115Y-65398296D01*
X84627114Y-65398295D01*
X84559204Y-65341312D01*
X84559203Y-65341311D01*
X84552568Y-65335744D01*
X84544429Y-65332781D01*
X84544428Y-65332781D01*
X84465141Y-65303924D01*
X84417904Y-65267678D01*
X84400000Y-65210894D01*
X84400000Y-65042466D01*
X84401219Y-65026979D01*
X84404273Y-65007697D01*
X84405492Y-65000000D01*
X84401219Y-64973021D01*
X84400000Y-64957534D01*
X84400000Y-63800000D01*
X84894864Y-63800000D01*
X84896368Y-63808530D01*
X84911761Y-63895833D01*
X84911762Y-63895837D01*
X84913266Y-63904363D01*
X84917594Y-63911859D01*
X84917595Y-63911862D01*
X84934598Y-63941312D01*
X84966252Y-63996138D01*
X84972884Y-64001703D01*
X84972885Y-64001704D01*
X85019830Y-64041095D01*
X85047432Y-64064256D01*
X85147014Y-64100500D01*
X85244326Y-64100500D01*
X85252986Y-64100500D01*
X85352568Y-64064256D01*
X85433748Y-63996138D01*
X85486734Y-63904363D01*
X85505136Y-63800000D01*
X85486734Y-63695637D01*
X85481721Y-63686955D01*
X85438076Y-63611359D01*
X85433748Y-63603862D01*
X85427115Y-63598296D01*
X85427114Y-63598295D01*
X85359204Y-63541312D01*
X85359203Y-63541311D01*
X85352568Y-63535744D01*
X85344429Y-63532781D01*
X85344428Y-63532781D01*
X85261123Y-63502461D01*
X85261120Y-63502460D01*
X85252986Y-63499500D01*
X85147014Y-63499500D01*
X85138880Y-63502460D01*
X85138876Y-63502461D01*
X85055571Y-63532781D01*
X85055567Y-63532782D01*
X85047432Y-63535744D01*
X85040799Y-63541309D01*
X85040795Y-63541312D01*
X84972885Y-63598295D01*
X84972881Y-63598299D01*
X84966252Y-63603862D01*
X84961925Y-63611356D01*
X84961923Y-63611359D01*
X84917595Y-63688137D01*
X84917593Y-63688142D01*
X84913266Y-63695637D01*
X84911763Y-63704160D01*
X84911761Y-63704166D01*
X84902975Y-63754000D01*
X84894864Y-63800000D01*
X84400000Y-63800000D01*
X84400000Y-63000000D01*
X85694864Y-63000000D01*
X85696368Y-63008530D01*
X85711761Y-63095833D01*
X85711762Y-63095837D01*
X85713266Y-63104363D01*
X85717594Y-63111859D01*
X85717595Y-63111862D01*
X85752339Y-63172040D01*
X85766252Y-63196138D01*
X85772884Y-63201703D01*
X85772885Y-63201704D01*
X85785698Y-63212455D01*
X85847432Y-63264256D01*
X85947014Y-63300500D01*
X86044326Y-63300500D01*
X86052986Y-63300500D01*
X86152568Y-63264256D01*
X86233748Y-63196138D01*
X86286734Y-63104363D01*
X86302504Y-63014925D01*
X86309784Y-62999999D01*
X86490215Y-62999999D01*
X86497495Y-63014925D01*
X86513266Y-63104363D01*
X86517594Y-63111859D01*
X86517595Y-63111862D01*
X86552339Y-63172040D01*
X86566252Y-63196138D01*
X86572884Y-63201703D01*
X86572885Y-63201704D01*
X86585698Y-63212455D01*
X86647432Y-63264256D01*
X86747014Y-63300500D01*
X86844326Y-63300500D01*
X86852986Y-63300500D01*
X86952568Y-63264256D01*
X87033748Y-63196138D01*
X87086734Y-63104363D01*
X87102504Y-63014925D01*
X87109784Y-62999999D01*
X87102504Y-62985073D01*
X87088238Y-62904166D01*
X87088237Y-62904165D01*
X87086734Y-62895637D01*
X87081721Y-62886955D01*
X87072888Y-62871656D01*
X87033748Y-62803862D01*
X87027115Y-62798296D01*
X87027114Y-62798295D01*
X86959204Y-62741312D01*
X86959203Y-62741311D01*
X86952568Y-62735744D01*
X86944429Y-62732781D01*
X86944428Y-62732781D01*
X86861123Y-62702461D01*
X86861120Y-62702460D01*
X86852986Y-62699500D01*
X86747014Y-62699500D01*
X86738880Y-62702460D01*
X86738876Y-62702461D01*
X86655571Y-62732781D01*
X86655567Y-62732782D01*
X86647432Y-62735744D01*
X86640799Y-62741309D01*
X86640795Y-62741312D01*
X86572885Y-62798295D01*
X86572881Y-62798299D01*
X86566252Y-62803862D01*
X86561925Y-62811356D01*
X86561923Y-62811359D01*
X86517595Y-62888137D01*
X86517593Y-62888142D01*
X86513266Y-62895637D01*
X86511763Y-62904160D01*
X86511761Y-62904166D01*
X86497496Y-62985073D01*
X86490215Y-62999999D01*
X86309784Y-62999999D01*
X86302504Y-62985073D01*
X86288238Y-62904166D01*
X86288237Y-62904165D01*
X86286734Y-62895637D01*
X86281721Y-62886955D01*
X86272888Y-62871656D01*
X86233748Y-62803862D01*
X86227115Y-62798296D01*
X86227114Y-62798295D01*
X86159204Y-62741312D01*
X86159203Y-62741311D01*
X86152568Y-62735744D01*
X86144429Y-62732781D01*
X86144428Y-62732781D01*
X86061123Y-62702461D01*
X86061120Y-62702460D01*
X86052986Y-62699500D01*
X85947014Y-62699500D01*
X85938880Y-62702460D01*
X85938876Y-62702461D01*
X85855571Y-62732781D01*
X85855567Y-62732782D01*
X85847432Y-62735744D01*
X85840799Y-62741309D01*
X85840795Y-62741312D01*
X85772885Y-62798295D01*
X85772881Y-62798299D01*
X85766252Y-62803862D01*
X85761925Y-62811356D01*
X85761923Y-62811359D01*
X85717595Y-62888137D01*
X85717593Y-62888142D01*
X85713266Y-62895637D01*
X85711763Y-62904160D01*
X85711761Y-62904166D01*
X85697496Y-62985073D01*
X85694864Y-63000000D01*
X84400000Y-63000000D01*
X84400000Y-62200000D01*
X84794508Y-62200000D01*
X84795727Y-62207697D01*
X84812525Y-62313760D01*
X84814354Y-62325304D01*
X84871950Y-62438342D01*
X84961658Y-62528050D01*
X85074696Y-62585646D01*
X85200000Y-62605492D01*
X85325304Y-62585646D01*
X85438342Y-62528050D01*
X85528050Y-62438342D01*
X85585646Y-62325304D01*
X85605492Y-62200000D01*
X85585646Y-62074696D01*
X85528050Y-61961658D01*
X85438342Y-61871950D01*
X85431403Y-61868414D01*
X85431400Y-61868412D01*
X85388437Y-61846521D01*
X85352039Y-61814741D01*
X85335019Y-61769518D01*
X85341431Y-61721626D01*
X85369744Y-61682477D01*
X85453194Y-61612455D01*
X85510588Y-61513045D01*
X85530521Y-61400000D01*
X85522578Y-61354955D01*
X85512092Y-61295484D01*
X85512091Y-61295483D01*
X85510588Y-61286955D01*
X85453194Y-61187545D01*
X85433546Y-61171058D01*
X85371895Y-61119326D01*
X85371892Y-61119324D01*
X85365261Y-61113760D01*
X85357125Y-61110799D01*
X85357124Y-61110798D01*
X85265530Y-61077461D01*
X85265528Y-61077460D01*
X85257394Y-61074500D01*
X85142606Y-61074500D01*
X85134472Y-61077460D01*
X85134469Y-61077461D01*
X85042879Y-61110797D01*
X85042875Y-61110798D01*
X85034740Y-61113760D01*
X85028106Y-61119326D01*
X85028105Y-61119327D01*
X84953437Y-61181980D01*
X84953434Y-61181983D01*
X84946806Y-61187545D01*
X84942479Y-61195039D01*
X84942477Y-61195042D01*
X84893741Y-61279455D01*
X84893739Y-61279460D01*
X84889412Y-61286955D01*
X84887909Y-61295478D01*
X84887907Y-61295484D01*
X84870983Y-61391470D01*
X84869479Y-61400000D01*
X84870983Y-61408530D01*
X84887907Y-61504515D01*
X84887908Y-61504519D01*
X84889412Y-61513045D01*
X84893740Y-61520541D01*
X84893741Y-61520544D01*
X84942477Y-61604957D01*
X84946806Y-61612455D01*
X85030255Y-61682477D01*
X85058568Y-61721626D01*
X85064980Y-61769518D01*
X85047960Y-61814740D01*
X85011563Y-61846521D01*
X84968597Y-61868413D01*
X84968590Y-61868417D01*
X84961658Y-61871950D01*
X84956154Y-61877453D01*
X84956151Y-61877456D01*
X84877456Y-61956151D01*
X84877453Y-61956154D01*
X84871950Y-61961658D01*
X84868415Y-61968595D01*
X84868414Y-61968597D01*
X84817890Y-62067755D01*
X84817888Y-62067758D01*
X84814354Y-62074696D01*
X84794508Y-62200000D01*
X84400000Y-62200000D01*
X84400000Y-61310068D01*
X84400000Y-61305210D01*
X84380665Y-61208009D01*
X84325605Y-61125605D01*
X84294504Y-61094504D01*
X84267410Y-61043814D01*
X84273044Y-60986614D01*
X84309507Y-60942185D01*
X84364508Y-60925500D01*
X84448734Y-60925500D01*
X84457394Y-60925500D01*
X84565261Y-60886240D01*
X84653194Y-60812455D01*
X84710588Y-60713045D01*
X84730521Y-60600000D01*
X84710588Y-60486955D01*
X84653194Y-60387545D01*
X84646560Y-60381978D01*
X84571895Y-60319326D01*
X84571892Y-60319324D01*
X84565261Y-60313760D01*
X84557125Y-60310799D01*
X84557124Y-60310798D01*
X84465530Y-60277461D01*
X84465528Y-60277460D01*
X84457394Y-60274500D01*
X84342606Y-60274500D01*
X84334471Y-60277460D01*
X84334464Y-60277462D01*
X84332858Y-60278047D01*
X84328345Y-60278541D01*
X84325936Y-60278966D01*
X84325908Y-60278808D01*
X84286076Y-60283170D01*
X84242215Y-60266112D01*
X84211186Y-60230730D01*
X84200000Y-60185017D01*
X84200000Y-59763752D01*
X84201902Y-59744438D01*
X84205630Y-59725696D01*
X84215493Y-59676109D01*
X84230275Y-59640425D01*
X84233230Y-59636002D01*
X84263456Y-59590765D01*
X84290765Y-59563456D01*
X84340425Y-59530274D01*
X84376109Y-59515493D01*
X84444438Y-59501901D01*
X84463752Y-59500000D01*
X84636965Y-59500000D01*
X84662587Y-59503373D01*
X84699375Y-59513230D01*
X84743757Y-59538853D01*
X84761146Y-59556242D01*
X84786768Y-59600622D01*
X84799999Y-59649999D01*
X84800000Y-59650000D01*
X84808260Y-59680829D01*
X84820096Y-59725000D01*
X84829310Y-59734213D01*
X84829310Y-59734214D01*
X84841986Y-59746890D01*
X84863382Y-59778854D01*
X84867706Y-59800312D01*
X84869479Y-59800000D01*
X84887907Y-59904515D01*
X84887908Y-59904519D01*
X84889412Y-59913045D01*
X84893740Y-59920541D01*
X84893741Y-59920544D01*
X84917294Y-59961339D01*
X84946806Y-60012455D01*
X84953438Y-60018020D01*
X84953439Y-60018021D01*
X85028104Y-60080673D01*
X85028105Y-60080674D01*
X85034739Y-60086240D01*
X85142606Y-60125500D01*
X85248734Y-60125500D01*
X85257394Y-60125500D01*
X85365261Y-60086240D01*
X85453194Y-60012455D01*
X85510588Y-59913045D01*
X85511028Y-59913299D01*
X85543215Y-59871352D01*
X85600000Y-59853447D01*
X85656785Y-59871352D01*
X85688971Y-59913299D01*
X85689412Y-59913045D01*
X85746806Y-60012455D01*
X85753438Y-60018020D01*
X85753439Y-60018021D01*
X85828104Y-60080673D01*
X85828105Y-60080674D01*
X85834739Y-60086240D01*
X85942606Y-60125500D01*
X86048734Y-60125500D01*
X86057394Y-60125500D01*
X86165261Y-60086240D01*
X86237364Y-60025737D01*
X86288078Y-60003423D01*
X86342839Y-60011851D01*
X86384496Y-60048383D01*
X86400000Y-60101576D01*
X86400000Y-61694790D01*
X86400946Y-61699548D01*
X86400947Y-61699553D01*
X86417432Y-61782428D01*
X86417433Y-61782431D01*
X86419335Y-61791991D01*
X86474395Y-61874395D01*
X87125605Y-62525605D01*
X87208009Y-62580665D01*
X87305210Y-62600000D01*
X87337206Y-62600000D01*
X87393990Y-62617904D01*
X87430236Y-62665140D01*
X87432833Y-62724624D01*
X87400841Y-62774837D01*
X87391287Y-62782855D01*
X87372884Y-62798296D01*
X87372880Y-62798299D01*
X87366252Y-62803862D01*
X87361925Y-62811356D01*
X87361923Y-62811359D01*
X87317595Y-62888137D01*
X87317593Y-62888142D01*
X87313266Y-62895637D01*
X87311763Y-62904160D01*
X87311761Y-62904166D01*
X87297496Y-62985073D01*
X87290215Y-62999999D01*
X87297495Y-63014925D01*
X87313266Y-63104363D01*
X87317594Y-63111859D01*
X87317595Y-63111862D01*
X87352339Y-63172040D01*
X87366252Y-63196138D01*
X87372884Y-63201703D01*
X87372885Y-63201704D01*
X87385698Y-63212455D01*
X87447432Y-63264256D01*
X87547014Y-63300500D01*
X87644326Y-63300500D01*
X87652986Y-63300500D01*
X87752568Y-63264256D01*
X87833748Y-63196138D01*
X87835072Y-63197716D01*
X87875380Y-63172040D01*
X87934862Y-63174638D01*
X87982097Y-63210884D01*
X88000000Y-63267667D01*
X88000000Y-63810894D01*
X87982096Y-63867678D01*
X87934859Y-63903924D01*
X87855571Y-63932781D01*
X87855567Y-63932782D01*
X87847432Y-63935744D01*
X87840799Y-63941309D01*
X87840795Y-63941312D01*
X87772885Y-63998295D01*
X87772881Y-63998299D01*
X87766252Y-64003862D01*
X87761925Y-64011356D01*
X87761923Y-64011359D01*
X87717595Y-64088137D01*
X87717593Y-64088142D01*
X87713266Y-64095637D01*
X87711763Y-64104160D01*
X87711761Y-64104166D01*
X87698318Y-64180413D01*
X87694864Y-64200000D01*
X87696368Y-64208530D01*
X87711761Y-64295833D01*
X87711762Y-64295837D01*
X87713266Y-64304363D01*
X87717594Y-64311859D01*
X87717595Y-64311862D01*
X87761923Y-64388640D01*
X87766252Y-64396138D01*
X87847432Y-64464256D01*
X87934859Y-64496076D01*
X87982096Y-64532322D01*
X88000000Y-64589106D01*
X88000000Y-64610894D01*
X87982096Y-64667678D01*
X87934859Y-64703924D01*
X87855571Y-64732781D01*
X87855567Y-64732782D01*
X87847432Y-64735744D01*
X87840799Y-64741309D01*
X87840795Y-64741312D01*
X87772885Y-64798295D01*
X87772881Y-64798299D01*
X87766252Y-64803862D01*
X87761925Y-64811356D01*
X87761923Y-64811359D01*
X87717595Y-64888137D01*
X87717593Y-64888142D01*
X87713266Y-64895637D01*
X87711763Y-64904160D01*
X87711761Y-64904166D01*
X87699621Y-64973021D01*
X87694864Y-65000000D01*
X87696368Y-65008530D01*
X87711761Y-65095833D01*
X87711762Y-65095837D01*
X87713266Y-65104363D01*
X87717594Y-65111859D01*
X87717595Y-65111862D01*
X87725356Y-65125304D01*
X87766252Y-65196138D01*
X87772884Y-65201703D01*
X87772885Y-65201704D01*
X87809690Y-65232587D01*
X87847432Y-65264256D01*
X87947014Y-65300500D01*
X87946352Y-65302318D01*
X87988134Y-65323776D01*
X88015999Y-65375224D01*
X88017432Y-65382426D01*
X88019335Y-65391991D01*
X88074395Y-65474395D01*
X88825605Y-66225605D01*
X88908009Y-66280665D01*
X89005210Y-66300000D01*
X91385038Y-66300000D01*
X91404351Y-66301901D01*
X91472677Y-66315493D01*
X91508364Y-66330275D01*
X91566285Y-66368976D01*
X91581288Y-66381288D01*
X94618711Y-69418711D01*
X94631023Y-69433714D01*
X94669724Y-69491635D01*
X94684505Y-69527321D01*
X94698097Y-69595647D01*
X94700000Y-69614962D01*
X94700000Y-76794790D01*
X94700946Y-76799548D01*
X94700947Y-76799553D01*
X94717432Y-76882428D01*
X94717433Y-76882431D01*
X94719335Y-76891991D01*
X94774395Y-76974395D01*
X95125605Y-77325605D01*
X95208009Y-77380665D01*
X95305210Y-77400000D01*
X95310068Y-77400000D01*
X101989932Y-77400000D01*
X101994790Y-77400000D01*
X102091991Y-77380665D01*
X102174395Y-77325605D01*
X103028498Y-76471502D01*
X106529479Y-76471502D01*
X106530983Y-76480032D01*
X106547907Y-76576017D01*
X106547908Y-76576021D01*
X106549412Y-76584547D01*
X106553740Y-76592043D01*
X106553741Y-76592046D01*
X106568782Y-76618097D01*
X106606806Y-76683957D01*
X106613438Y-76689522D01*
X106613439Y-76689523D01*
X106688104Y-76752175D01*
X106688105Y-76752176D01*
X106694739Y-76757742D01*
X106802606Y-76797002D01*
X106908734Y-76797002D01*
X106917394Y-76797002D01*
X107025261Y-76757742D01*
X107113194Y-76683957D01*
X107170588Y-76584547D01*
X107190521Y-76471502D01*
X107170588Y-76358457D01*
X107113194Y-76259047D01*
X107076194Y-76228000D01*
X107031895Y-76190828D01*
X107031892Y-76190826D01*
X107025261Y-76185262D01*
X107017125Y-76182301D01*
X107017124Y-76182300D01*
X106925530Y-76148963D01*
X106925528Y-76148962D01*
X106917394Y-76146002D01*
X106802606Y-76146002D01*
X106794472Y-76148962D01*
X106794469Y-76148963D01*
X106702879Y-76182299D01*
X106702875Y-76182300D01*
X106694740Y-76185262D01*
X106688106Y-76190828D01*
X106688105Y-76190829D01*
X106613437Y-76253482D01*
X106613434Y-76253485D01*
X106606806Y-76259047D01*
X106602479Y-76266541D01*
X106602477Y-76266544D01*
X106553741Y-76350957D01*
X106553739Y-76350962D01*
X106549412Y-76358457D01*
X106547909Y-76366980D01*
X106547907Y-76366986D01*
X106530983Y-76462972D01*
X106529479Y-76471502D01*
X103028498Y-76471502D01*
X104025605Y-75474395D01*
X104080665Y-75391991D01*
X104100000Y-75294790D01*
X104100000Y-68216502D01*
X107418479Y-68216502D01*
X107419983Y-68225032D01*
X107436907Y-68321017D01*
X107436908Y-68321021D01*
X107438412Y-68329547D01*
X107442740Y-68337043D01*
X107442741Y-68337046D01*
X107491477Y-68421459D01*
X107495806Y-68428957D01*
X107502438Y-68434522D01*
X107502439Y-68434523D01*
X107577104Y-68497175D01*
X107577105Y-68497176D01*
X107583739Y-68502742D01*
X107691606Y-68542002D01*
X107797734Y-68542002D01*
X107806394Y-68542002D01*
X107914261Y-68502742D01*
X108002194Y-68428957D01*
X108059588Y-68329547D01*
X108079521Y-68216502D01*
X108078017Y-68207972D01*
X108061092Y-68111986D01*
X108061091Y-68111985D01*
X108059588Y-68103457D01*
X108002194Y-68004047D01*
X107972416Y-67979060D01*
X107920895Y-67935828D01*
X107920892Y-67935826D01*
X107914261Y-67930262D01*
X107906125Y-67927301D01*
X107906124Y-67927300D01*
X107814530Y-67893963D01*
X107814528Y-67893962D01*
X107806394Y-67891002D01*
X107691606Y-67891002D01*
X107683472Y-67893962D01*
X107683469Y-67893963D01*
X107591879Y-67927299D01*
X107591875Y-67927300D01*
X107583740Y-67930262D01*
X107577106Y-67935828D01*
X107577105Y-67935829D01*
X107502437Y-67998482D01*
X107502434Y-67998485D01*
X107495806Y-68004047D01*
X107491479Y-68011541D01*
X107491477Y-68011544D01*
X107442741Y-68095957D01*
X107442739Y-68095962D01*
X107438412Y-68103457D01*
X107436909Y-68111980D01*
X107436907Y-68111986D01*
X107419983Y-68207972D01*
X107418479Y-68216502D01*
X104100000Y-68216502D01*
X104100000Y-67846000D01*
X108865131Y-67846000D01*
X108882500Y-67955661D01*
X108932905Y-68054587D01*
X109011413Y-68133095D01*
X109110339Y-68183500D01*
X109220000Y-68200869D01*
X109329661Y-68183500D01*
X109428587Y-68133095D01*
X109507095Y-68054587D01*
X109557500Y-67955661D01*
X109574869Y-67846000D01*
X109557500Y-67736339D01*
X109507095Y-67637413D01*
X109428587Y-67558905D01*
X109329661Y-67508500D01*
X109220000Y-67491131D01*
X109212304Y-67492350D01*
X109118034Y-67507281D01*
X109118032Y-67507281D01*
X109110339Y-67508500D01*
X109103401Y-67512034D01*
X109103398Y-67512036D01*
X109018352Y-67555369D01*
X109018350Y-67555370D01*
X109011413Y-67558905D01*
X109005909Y-67564408D01*
X109005906Y-67564411D01*
X108938411Y-67631906D01*
X108938408Y-67631909D01*
X108932905Y-67637413D01*
X108929370Y-67644350D01*
X108929369Y-67644352D01*
X108886036Y-67729398D01*
X108886034Y-67729401D01*
X108882500Y-67736339D01*
X108865131Y-67846000D01*
X104100000Y-67846000D01*
X104100000Y-59961502D01*
X107418479Y-59961502D01*
X107419983Y-59970032D01*
X107436907Y-60066017D01*
X107436908Y-60066021D01*
X107438412Y-60074547D01*
X107442740Y-60082043D01*
X107442741Y-60082046D01*
X107491477Y-60166459D01*
X107495806Y-60173957D01*
X107502438Y-60179522D01*
X107502439Y-60179523D01*
X107577104Y-60242175D01*
X107577105Y-60242176D01*
X107583739Y-60247742D01*
X107691606Y-60287002D01*
X107797734Y-60287002D01*
X107806394Y-60287002D01*
X107914261Y-60247742D01*
X108002194Y-60173957D01*
X108059588Y-60074547D01*
X108079521Y-59961502D01*
X108071567Y-59916391D01*
X108061092Y-59856986D01*
X108061091Y-59856985D01*
X108059588Y-59848457D01*
X108002194Y-59749047D01*
X107974366Y-59725696D01*
X107965194Y-59718000D01*
X108865131Y-59718000D01*
X108882500Y-59827661D01*
X108886035Y-59834600D01*
X108886036Y-59834601D01*
X108897442Y-59856986D01*
X108932905Y-59926587D01*
X109011413Y-60005095D01*
X109110339Y-60055500D01*
X109220000Y-60072869D01*
X109329661Y-60055500D01*
X109428587Y-60005095D01*
X109507095Y-59926587D01*
X109557500Y-59827661D01*
X109574869Y-59718000D01*
X109557500Y-59608339D01*
X109507095Y-59509413D01*
X109428587Y-59430905D01*
X109329661Y-59380500D01*
X109314748Y-59378138D01*
X109227696Y-59364350D01*
X109220000Y-59363131D01*
X109212304Y-59364350D01*
X109118034Y-59379281D01*
X109118032Y-59379281D01*
X109110339Y-59380500D01*
X109103401Y-59384034D01*
X109103398Y-59384036D01*
X109018352Y-59427369D01*
X109018350Y-59427370D01*
X109011413Y-59430905D01*
X109005909Y-59436408D01*
X109005906Y-59436411D01*
X108938411Y-59503906D01*
X108938408Y-59503909D01*
X108932905Y-59509413D01*
X108929370Y-59516350D01*
X108929369Y-59516352D01*
X108886036Y-59601398D01*
X108886034Y-59601401D01*
X108882500Y-59608339D01*
X108881281Y-59616032D01*
X108881281Y-59616034D01*
X108875901Y-59650000D01*
X108865131Y-59718000D01*
X107965194Y-59718000D01*
X107920895Y-59680828D01*
X107920892Y-59680826D01*
X107914261Y-59675262D01*
X107906125Y-59672301D01*
X107906124Y-59672300D01*
X107814530Y-59638963D01*
X107814528Y-59638962D01*
X107806394Y-59636002D01*
X107691606Y-59636002D01*
X107683472Y-59638962D01*
X107683469Y-59638963D01*
X107591879Y-59672299D01*
X107591875Y-59672300D01*
X107583740Y-59675262D01*
X107577106Y-59680828D01*
X107577105Y-59680829D01*
X107502437Y-59743482D01*
X107502434Y-59743485D01*
X107495806Y-59749047D01*
X107491479Y-59756541D01*
X107491477Y-59756544D01*
X107442741Y-59840957D01*
X107442739Y-59840962D01*
X107438412Y-59848457D01*
X107436909Y-59856980D01*
X107436907Y-59856986D01*
X107419983Y-59952972D01*
X107418479Y-59961502D01*
X104100000Y-59961502D01*
X104100000Y-51706502D01*
X107418479Y-51706502D01*
X107419983Y-51715032D01*
X107436907Y-51811017D01*
X107436908Y-51811021D01*
X107438412Y-51819547D01*
X107442740Y-51827043D01*
X107442741Y-51827046D01*
X107491477Y-51911459D01*
X107495806Y-51918957D01*
X107502438Y-51924522D01*
X107502439Y-51924523D01*
X107577104Y-51987175D01*
X107577105Y-51987176D01*
X107583739Y-51992742D01*
X107691606Y-52032002D01*
X107797734Y-52032002D01*
X107806394Y-52032002D01*
X107914261Y-51992742D01*
X108002194Y-51918957D01*
X108059588Y-51819547D01*
X108079521Y-51706502D01*
X108059588Y-51593457D01*
X108002194Y-51494047D01*
X107965194Y-51463000D01*
X108865131Y-51463000D01*
X108882500Y-51572661D01*
X108932905Y-51671587D01*
X109011413Y-51750095D01*
X109110339Y-51800500D01*
X109220000Y-51817869D01*
X109329661Y-51800500D01*
X109428587Y-51750095D01*
X109507095Y-51671587D01*
X109557500Y-51572661D01*
X109574869Y-51463000D01*
X109557500Y-51353339D01*
X109507095Y-51254413D01*
X109428587Y-51175905D01*
X109329661Y-51125500D01*
X109314748Y-51123138D01*
X109227696Y-51109350D01*
X109220000Y-51108131D01*
X109212304Y-51109350D01*
X109118034Y-51124281D01*
X109118032Y-51124281D01*
X109110339Y-51125500D01*
X109103401Y-51129034D01*
X109103398Y-51129036D01*
X109018352Y-51172369D01*
X109018350Y-51172370D01*
X109011413Y-51175905D01*
X109005909Y-51181408D01*
X109005906Y-51181411D01*
X108938411Y-51248906D01*
X108938408Y-51248909D01*
X108932905Y-51254413D01*
X108929370Y-51261350D01*
X108929369Y-51261352D01*
X108886036Y-51346398D01*
X108886034Y-51346401D01*
X108882500Y-51353339D01*
X108881281Y-51361032D01*
X108881281Y-51361034D01*
X108873151Y-51412363D01*
X108865131Y-51463000D01*
X107965194Y-51463000D01*
X107920895Y-51425828D01*
X107920892Y-51425826D01*
X107914261Y-51420262D01*
X107906125Y-51417301D01*
X107906124Y-51417300D01*
X107814530Y-51383963D01*
X107814528Y-51383962D01*
X107806394Y-51381002D01*
X107691606Y-51381002D01*
X107683472Y-51383962D01*
X107683469Y-51383963D01*
X107591879Y-51417299D01*
X107591875Y-51417300D01*
X107583740Y-51420262D01*
X107577106Y-51425828D01*
X107577105Y-51425829D01*
X107502437Y-51488482D01*
X107502434Y-51488485D01*
X107495806Y-51494047D01*
X107491479Y-51501541D01*
X107491477Y-51501544D01*
X107442741Y-51585957D01*
X107442739Y-51585962D01*
X107438412Y-51593457D01*
X107436909Y-51601980D01*
X107436907Y-51601986D01*
X107419983Y-51697972D01*
X107418479Y-51706502D01*
X104100000Y-51706502D01*
X104100000Y-51063752D01*
X104101902Y-51044438D01*
X104115493Y-50976111D01*
X104130275Y-50940425D01*
X104130784Y-50939663D01*
X104163456Y-50890765D01*
X104190765Y-50863456D01*
X104240425Y-50830274D01*
X104276109Y-50815493D01*
X104344438Y-50801901D01*
X104363752Y-50800000D01*
X109537499Y-50800000D01*
X109556755Y-50801891D01*
G37*
%TD.AperFunction*%
%TD*%
%TA.AperFunction,Conductor*%
%TO.N,GND*%
G36*
X97474000Y-41672613D02*
G01*
X97519387Y-41718000D01*
X97536000Y-41780000D01*
X97536000Y-76965637D01*
X97519493Y-77027453D01*
X97474368Y-77072811D01*
X97412639Y-77089635D01*
X95931838Y-77097261D01*
X95871910Y-77082170D01*
X95826708Y-77040029D01*
X95807460Y-76981304D01*
X95818946Y-76920582D01*
X95858314Y-76872945D01*
X95858890Y-76872525D01*
X95867587Y-76868095D01*
X95946095Y-76789587D01*
X95996500Y-76690661D01*
X96013869Y-76581000D01*
X95996500Y-76471339D01*
X95946095Y-76372413D01*
X95867587Y-76293905D01*
X95858895Y-76289476D01*
X95858892Y-76289474D01*
X95794998Y-76256919D01*
X95768661Y-76243500D01*
X95759023Y-76241973D01*
X95759019Y-76241972D01*
X95668641Y-76227658D01*
X95659000Y-76226131D01*
X95649359Y-76227658D01*
X95558980Y-76241972D01*
X95558974Y-76241973D01*
X95549339Y-76243500D01*
X95540643Y-76247930D01*
X95540642Y-76247931D01*
X95459107Y-76289474D01*
X95459101Y-76289478D01*
X95450413Y-76293905D01*
X95443514Y-76300803D01*
X95443511Y-76300806D01*
X95378806Y-76365511D01*
X95378803Y-76365514D01*
X95371905Y-76372413D01*
X95367478Y-76381101D01*
X95367474Y-76381107D01*
X95325931Y-76462642D01*
X95321500Y-76471339D01*
X95319973Y-76480974D01*
X95319972Y-76480980D01*
X95311029Y-76537449D01*
X95304131Y-76581000D01*
X95305658Y-76590641D01*
X95319972Y-76681019D01*
X95319973Y-76681023D01*
X95321500Y-76690661D01*
X95323647Y-76694875D01*
X95326588Y-76757265D01*
X95295966Y-76815098D01*
X95240169Y-76849290D01*
X95174737Y-76850317D01*
X95117894Y-76817894D01*
X95036319Y-76736319D01*
X95009439Y-76696091D01*
X95000000Y-76648638D01*
X95000000Y-75616488D01*
X95014010Y-75559232D01*
X95052876Y-75514914D01*
X95107813Y-75493549D01*
X95166408Y-75499965D01*
X95177568Y-75504027D01*
X95192606Y-75509500D01*
X95296547Y-75509500D01*
X95307394Y-75509500D01*
X95415261Y-75470240D01*
X95503194Y-75396455D01*
X95560588Y-75297045D01*
X95573644Y-75222999D01*
X95578637Y-75194685D01*
X95580521Y-75184000D01*
X95560588Y-75070955D01*
X95503194Y-74971545D01*
X95415261Y-74897760D01*
X95405067Y-74894049D01*
X95405066Y-74894049D01*
X95317587Y-74862209D01*
X95317582Y-74862208D01*
X95307394Y-74858500D01*
X95192606Y-74858500D01*
X95182413Y-74862209D01*
X95182412Y-74862210D01*
X95166412Y-74868034D01*
X95107816Y-74874452D01*
X95052877Y-74853088D01*
X95014011Y-74808770D01*
X95000000Y-74751513D01*
X95000000Y-69312211D01*
X95000000Y-69300000D01*
X94026000Y-68326000D01*
X95304131Y-68326000D01*
X95305658Y-68335641D01*
X95319972Y-68426019D01*
X95319973Y-68426023D01*
X95321500Y-68435661D01*
X95325931Y-68444357D01*
X95367474Y-68525892D01*
X95367476Y-68525895D01*
X95371905Y-68534587D01*
X95450413Y-68613095D01*
X95549339Y-68663500D01*
X95659000Y-68680869D01*
X95768661Y-68663500D01*
X95867587Y-68613095D01*
X95946095Y-68534587D01*
X95996500Y-68435661D01*
X96013869Y-68326000D01*
X95996500Y-68216339D01*
X95946095Y-68117413D01*
X95867587Y-68038905D01*
X95858895Y-68034476D01*
X95858892Y-68034474D01*
X95794998Y-68001919D01*
X95768661Y-67988500D01*
X95759023Y-67986973D01*
X95759019Y-67986972D01*
X95668641Y-67972658D01*
X95659000Y-67971131D01*
X95649359Y-67972658D01*
X95558980Y-67986972D01*
X95558974Y-67986973D01*
X95549339Y-67988500D01*
X95540643Y-67992930D01*
X95540642Y-67992931D01*
X95459107Y-68034474D01*
X95459101Y-68034478D01*
X95450413Y-68038905D01*
X95443514Y-68045803D01*
X95443511Y-68045806D01*
X95378806Y-68110511D01*
X95378803Y-68110514D01*
X95371905Y-68117413D01*
X95367478Y-68126101D01*
X95367474Y-68126107D01*
X95342030Y-68176046D01*
X95321500Y-68216339D01*
X95319973Y-68225974D01*
X95319972Y-68225980D01*
X95305658Y-68316359D01*
X95304131Y-68326000D01*
X94026000Y-68326000D01*
X92629000Y-66929000D01*
X94919479Y-66929000D01*
X94921363Y-66939685D01*
X94937527Y-67031360D01*
X94937528Y-67031364D01*
X94939412Y-67042045D01*
X94944835Y-67051439D01*
X94944836Y-67051440D01*
X94991379Y-67132056D01*
X94991380Y-67132057D01*
X94996806Y-67141455D01*
X95084739Y-67215240D01*
X95138672Y-67234870D01*
X95182412Y-67250790D01*
X95182413Y-67250790D01*
X95192606Y-67254500D01*
X95296547Y-67254500D01*
X95307394Y-67254500D01*
X95415261Y-67215240D01*
X95503194Y-67141455D01*
X95560588Y-67042045D01*
X95571699Y-66979033D01*
X95578637Y-66939685D01*
X95580521Y-66929000D01*
X95560588Y-66815955D01*
X95503194Y-66716545D01*
X95415261Y-66642760D01*
X95405067Y-66639049D01*
X95405066Y-66639049D01*
X95317587Y-66607209D01*
X95317582Y-66607208D01*
X95307394Y-66603500D01*
X95192606Y-66603500D01*
X95182418Y-66607207D01*
X95182412Y-66607209D01*
X95094931Y-66639050D01*
X95094927Y-66639052D01*
X95084740Y-66642760D01*
X95076436Y-66649727D01*
X95076432Y-66649730D01*
X95005116Y-66709571D01*
X95005112Y-66709574D01*
X94996806Y-66716545D01*
X94991385Y-66725933D01*
X94991381Y-66725939D01*
X94944836Y-66806559D01*
X94944834Y-66806562D01*
X94939412Y-66815955D01*
X94937529Y-66826633D01*
X94937527Y-66826639D01*
X94923095Y-66908492D01*
X94919479Y-66929000D01*
X92629000Y-66929000D01*
X91700000Y-66000000D01*
X91687789Y-66000000D01*
X89151362Y-66000000D01*
X89103909Y-65990561D01*
X89063681Y-65963681D01*
X88336319Y-65236319D01*
X88309439Y-65196091D01*
X88300000Y-65148638D01*
X88300000Y-65100000D01*
X94894864Y-65100000D01*
X94896748Y-65110685D01*
X94911381Y-65193678D01*
X94911382Y-65193683D01*
X94913266Y-65204363D01*
X94918689Y-65213757D01*
X94918690Y-65213758D01*
X94932883Y-65238342D01*
X94966252Y-65296138D01*
X95047432Y-65364256D01*
X95147014Y-65400500D01*
X95242139Y-65400500D01*
X95252986Y-65400500D01*
X95352568Y-65364256D01*
X95433748Y-65296138D01*
X95486734Y-65204363D01*
X95505136Y-65100000D01*
X95486734Y-64995637D01*
X95433748Y-64903862D01*
X95406991Y-64881410D01*
X95360875Y-64842714D01*
X95360873Y-64842713D01*
X95352568Y-64835744D01*
X95252986Y-64799500D01*
X95147014Y-64799500D01*
X95136821Y-64803209D01*
X95136820Y-64803210D01*
X95057624Y-64832034D01*
X95057621Y-64832035D01*
X95047432Y-64835744D01*
X95039128Y-64842711D01*
X95039124Y-64842714D01*
X94974561Y-64896889D01*
X94974558Y-64896892D01*
X94966252Y-64903862D01*
X94960829Y-64913253D01*
X94960827Y-64913257D01*
X94918690Y-64986241D01*
X94918688Y-64986244D01*
X94913266Y-64995637D01*
X94911383Y-65006315D01*
X94911381Y-65006321D01*
X94901388Y-65062999D01*
X94894864Y-65100000D01*
X88300000Y-65100000D01*
X88300000Y-65039975D01*
X88301884Y-65018443D01*
X88303252Y-65010685D01*
X88305136Y-65000000D01*
X88301883Y-64981556D01*
X88300000Y-64960025D01*
X88300000Y-64300000D01*
X89394864Y-64300000D01*
X89396748Y-64310685D01*
X89411381Y-64393678D01*
X89411382Y-64393683D01*
X89413266Y-64404363D01*
X89418689Y-64413757D01*
X89418690Y-64413758D01*
X89455202Y-64477000D01*
X89466252Y-64496138D01*
X89474561Y-64503110D01*
X89512923Y-64535300D01*
X89547432Y-64564256D01*
X89647014Y-64600500D01*
X89742139Y-64600500D01*
X89752986Y-64600500D01*
X89852568Y-64564256D01*
X89933748Y-64496138D01*
X89975177Y-64424379D01*
X90015938Y-64381801D01*
X90071757Y-64362853D01*
X90130018Y-64371821D01*
X90165082Y-64397532D01*
X90166252Y-64396138D01*
X90247432Y-64464256D01*
X90347014Y-64500500D01*
X90442139Y-64500500D01*
X90452986Y-64500500D01*
X90552568Y-64464256D01*
X90633748Y-64396138D01*
X90686734Y-64304363D01*
X90705136Y-64200000D01*
X90692000Y-64125500D01*
X90688618Y-64106321D01*
X90688617Y-64106320D01*
X90686734Y-64095637D01*
X90677282Y-64079266D01*
X90639172Y-64013257D01*
X90633748Y-64003862D01*
X90588030Y-63965500D01*
X90560875Y-63942714D01*
X90560873Y-63942713D01*
X90552568Y-63935744D01*
X90452986Y-63899500D01*
X90347014Y-63899500D01*
X90336821Y-63903209D01*
X90336820Y-63903210D01*
X90257624Y-63932034D01*
X90257621Y-63932035D01*
X90247432Y-63935744D01*
X90239128Y-63942711D01*
X90239124Y-63942714D01*
X90174561Y-63996889D01*
X90174558Y-63996892D01*
X90166252Y-64003862D01*
X90160828Y-64013255D01*
X90160829Y-64013255D01*
X90124823Y-64075619D01*
X90084059Y-64118200D01*
X90028240Y-64137146D01*
X89969979Y-64128177D01*
X89934918Y-64102467D01*
X89933748Y-64103862D01*
X89860875Y-64042714D01*
X89860873Y-64042713D01*
X89852568Y-64035744D01*
X89752986Y-63999500D01*
X89647014Y-63999500D01*
X89636821Y-64003209D01*
X89636820Y-64003210D01*
X89557624Y-64032034D01*
X89557621Y-64032035D01*
X89547432Y-64035744D01*
X89539128Y-64042711D01*
X89539124Y-64042714D01*
X89474561Y-64096889D01*
X89474558Y-64096892D01*
X89466252Y-64103862D01*
X89460829Y-64113253D01*
X89460827Y-64113257D01*
X89418690Y-64186241D01*
X89418688Y-64186244D01*
X89413266Y-64195637D01*
X89411383Y-64206315D01*
X89411381Y-64206321D01*
X89403632Y-64250272D01*
X89394864Y-64300000D01*
X88300000Y-64300000D01*
X88300000Y-64249500D01*
X88316613Y-64187500D01*
X88362000Y-64142113D01*
X88424000Y-64125500D01*
X88446547Y-64125500D01*
X88457394Y-64125500D01*
X88565261Y-64086240D01*
X88653194Y-64012455D01*
X88710588Y-63913045D01*
X88730521Y-63800000D01*
X88722410Y-63754000D01*
X88712472Y-63697639D01*
X88712471Y-63697638D01*
X88710588Y-63686955D01*
X88653194Y-63587545D01*
X88565261Y-63513760D01*
X88555067Y-63510049D01*
X88555066Y-63510049D01*
X88536302Y-63503220D01*
X88486562Y-63469670D01*
X88458395Y-63416696D01*
X88458396Y-63356699D01*
X88486563Y-63303725D01*
X88536302Y-63270176D01*
X88552568Y-63264256D01*
X88633748Y-63196138D01*
X88686734Y-63104363D01*
X88705136Y-63000000D01*
X89669479Y-63000000D01*
X89671363Y-63010685D01*
X89687527Y-63102360D01*
X89687528Y-63102364D01*
X89689412Y-63113045D01*
X89694835Y-63122439D01*
X89694836Y-63122440D01*
X89741379Y-63203056D01*
X89741380Y-63203057D01*
X89746806Y-63212455D01*
X89834739Y-63286240D01*
X89882260Y-63303536D01*
X89932412Y-63321790D01*
X89932413Y-63321790D01*
X89942606Y-63325500D01*
X90046547Y-63325500D01*
X90057394Y-63325500D01*
X90165261Y-63286240D01*
X90253194Y-63212455D01*
X90310588Y-63113045D01*
X90330521Y-63000000D01*
X90315992Y-62917602D01*
X90312472Y-62897639D01*
X90312471Y-62897638D01*
X90310588Y-62886955D01*
X90253194Y-62787545D01*
X90165261Y-62713760D01*
X90155067Y-62710049D01*
X90155066Y-62710049D01*
X90067587Y-62678209D01*
X90067582Y-62678208D01*
X90057394Y-62674500D01*
X89942606Y-62674500D01*
X89932418Y-62678207D01*
X89932412Y-62678209D01*
X89844931Y-62710050D01*
X89844927Y-62710052D01*
X89834740Y-62713760D01*
X89826436Y-62720727D01*
X89826432Y-62720730D01*
X89755116Y-62780571D01*
X89755112Y-62780574D01*
X89746806Y-62787545D01*
X89741385Y-62796933D01*
X89741381Y-62796939D01*
X89694836Y-62877559D01*
X89694834Y-62877562D01*
X89689412Y-62886955D01*
X89687529Y-62897633D01*
X89687527Y-62897639D01*
X89682615Y-62925500D01*
X89669479Y-63000000D01*
X88705136Y-63000000D01*
X88692000Y-62925500D01*
X88688618Y-62906321D01*
X88688617Y-62906320D01*
X88686734Y-62895637D01*
X88677282Y-62879266D01*
X88653729Y-62838470D01*
X88633748Y-62803862D01*
X88605991Y-62780571D01*
X88560875Y-62742714D01*
X88560873Y-62742713D01*
X88552568Y-62735744D01*
X88452986Y-62699500D01*
X88347014Y-62699500D01*
X88336821Y-62703209D01*
X88336820Y-62703210D01*
X88247432Y-62735744D01*
X88247032Y-62734647D01*
X88209203Y-62746571D01*
X88155990Y-62739562D01*
X88110723Y-62710723D01*
X88000000Y-62600000D01*
X92869479Y-62600000D01*
X92871363Y-62610685D01*
X92887527Y-62702360D01*
X92887528Y-62702364D01*
X92889412Y-62713045D01*
X92894835Y-62722439D01*
X92894836Y-62722440D01*
X92941379Y-62803056D01*
X92941380Y-62803057D01*
X92946806Y-62812455D01*
X93034739Y-62886240D01*
X93066058Y-62897639D01*
X93132412Y-62921790D01*
X93132413Y-62921790D01*
X93142606Y-62925500D01*
X93246547Y-62925500D01*
X93257394Y-62925500D01*
X93365261Y-62886240D01*
X93453194Y-62812455D01*
X93510588Y-62713045D01*
X93526586Y-62622315D01*
X93528637Y-62610685D01*
X93530521Y-62600000D01*
X93517385Y-62525500D01*
X93512472Y-62497639D01*
X93512471Y-62497638D01*
X93510588Y-62486955D01*
X93453194Y-62387545D01*
X93365261Y-62313760D01*
X93355067Y-62310049D01*
X93355066Y-62310049D01*
X93267587Y-62278209D01*
X93267582Y-62278208D01*
X93257394Y-62274500D01*
X93142606Y-62274500D01*
X93132418Y-62278207D01*
X93132412Y-62278209D01*
X93044931Y-62310050D01*
X93044927Y-62310052D01*
X93034740Y-62313760D01*
X93026436Y-62320727D01*
X93026432Y-62320730D01*
X92955116Y-62380571D01*
X92955112Y-62380574D01*
X92946806Y-62387545D01*
X92941385Y-62396933D01*
X92941381Y-62396939D01*
X92894836Y-62477559D01*
X92894834Y-62477562D01*
X92889412Y-62486955D01*
X92887529Y-62497633D01*
X92887527Y-62497639D01*
X92874768Y-62570002D01*
X92869479Y-62600000D01*
X88000000Y-62600000D01*
X87905562Y-62505562D01*
X87876721Y-62460291D01*
X87869715Y-62407073D01*
X87885857Y-62355880D01*
X87910588Y-62313045D01*
X87930521Y-62200000D01*
X88869479Y-62200000D01*
X88871363Y-62210685D01*
X88887527Y-62302360D01*
X88887528Y-62302364D01*
X88889412Y-62313045D01*
X88894835Y-62322439D01*
X88894836Y-62322440D01*
X88941379Y-62403056D01*
X88941380Y-62403057D01*
X88946806Y-62412455D01*
X89034739Y-62486240D01*
X89081952Y-62503424D01*
X89132412Y-62521790D01*
X89132413Y-62521790D01*
X89142606Y-62525500D01*
X89246547Y-62525500D01*
X89257394Y-62525500D01*
X89365261Y-62486240D01*
X89453194Y-62412455D01*
X89510588Y-62313045D01*
X89530521Y-62200000D01*
X90469479Y-62200000D01*
X90471363Y-62210685D01*
X90487527Y-62302360D01*
X90487528Y-62302364D01*
X90489412Y-62313045D01*
X90494835Y-62322439D01*
X90494836Y-62322440D01*
X90541379Y-62403056D01*
X90541380Y-62403057D01*
X90546806Y-62412455D01*
X90634739Y-62486240D01*
X90681952Y-62503424D01*
X90732412Y-62521790D01*
X90732413Y-62521790D01*
X90742606Y-62525500D01*
X90846547Y-62525500D01*
X90857394Y-62525500D01*
X90965261Y-62486240D01*
X91053194Y-62412455D01*
X91110588Y-62313045D01*
X91130521Y-62200000D01*
X91127250Y-62181450D01*
X91112472Y-62097639D01*
X91112471Y-62097638D01*
X91110588Y-62086955D01*
X91053194Y-61987545D01*
X90965261Y-61913760D01*
X90955067Y-61910049D01*
X90955066Y-61910049D01*
X90867587Y-61878209D01*
X90867582Y-61878208D01*
X90857394Y-61874500D01*
X90742606Y-61874500D01*
X90732418Y-61878207D01*
X90732412Y-61878209D01*
X90644931Y-61910050D01*
X90644927Y-61910052D01*
X90634740Y-61913760D01*
X90626436Y-61920727D01*
X90626432Y-61920730D01*
X90555116Y-61980571D01*
X90555112Y-61980574D01*
X90546806Y-61987545D01*
X90541385Y-61996933D01*
X90541381Y-61996939D01*
X90494836Y-62077559D01*
X90494834Y-62077562D01*
X90489412Y-62086955D01*
X90487529Y-62097633D01*
X90487527Y-62097639D01*
X90472750Y-62181450D01*
X90469479Y-62200000D01*
X89530521Y-62200000D01*
X89527250Y-62181450D01*
X89512472Y-62097639D01*
X89512471Y-62097638D01*
X89510588Y-62086955D01*
X89453194Y-61987545D01*
X89365261Y-61913760D01*
X89355067Y-61910049D01*
X89355066Y-61910049D01*
X89267587Y-61878209D01*
X89267582Y-61878208D01*
X89257394Y-61874500D01*
X89142606Y-61874500D01*
X89132418Y-61878207D01*
X89132412Y-61878209D01*
X89044931Y-61910050D01*
X89044927Y-61910052D01*
X89034740Y-61913760D01*
X89026436Y-61920727D01*
X89026432Y-61920730D01*
X88955116Y-61980571D01*
X88955112Y-61980574D01*
X88946806Y-61987545D01*
X88941385Y-61996933D01*
X88941381Y-61996939D01*
X88894836Y-62077559D01*
X88894834Y-62077562D01*
X88889412Y-62086955D01*
X88887529Y-62097633D01*
X88887527Y-62097639D01*
X88872750Y-62181450D01*
X88869479Y-62200000D01*
X87930521Y-62200000D01*
X87927250Y-62181450D01*
X87912472Y-62097639D01*
X87912471Y-62097638D01*
X87910588Y-62086955D01*
X87853194Y-61987545D01*
X87765261Y-61913760D01*
X87755067Y-61910049D01*
X87755066Y-61910049D01*
X87667587Y-61878209D01*
X87667582Y-61878208D01*
X87657394Y-61874500D01*
X87542606Y-61874500D01*
X87532418Y-61878207D01*
X87532412Y-61878209D01*
X87444931Y-61910050D01*
X87444927Y-61910052D01*
X87434740Y-61913760D01*
X87426436Y-61920727D01*
X87426432Y-61920730D01*
X87355116Y-61980571D01*
X87355112Y-61980574D01*
X87346806Y-61987545D01*
X87341384Y-61996935D01*
X87341379Y-61996942D01*
X87332707Y-62011963D01*
X87294210Y-62053064D01*
X87241505Y-62072899D01*
X87185463Y-62067379D01*
X87137641Y-62037641D01*
X86963606Y-61863606D01*
X86930629Y-61804521D01*
X86933581Y-61736921D01*
X86971580Y-61680937D01*
X87053194Y-61612455D01*
X87110588Y-61513045D01*
X87130521Y-61400000D01*
X87110588Y-61286955D01*
X87053194Y-61187545D01*
X86965261Y-61113760D01*
X86955067Y-61110049D01*
X86955066Y-61110049D01*
X86867587Y-61078209D01*
X86867582Y-61078208D01*
X86857394Y-61074500D01*
X86824000Y-61074500D01*
X86762000Y-61057887D01*
X86716613Y-61012500D01*
X86713264Y-61000000D01*
X89294864Y-61000000D01*
X89296748Y-61010685D01*
X89311381Y-61093678D01*
X89311382Y-61093683D01*
X89313266Y-61104363D01*
X89318689Y-61113757D01*
X89318690Y-61113758D01*
X89352578Y-61172455D01*
X89366252Y-61196138D01*
X89374561Y-61203110D01*
X89437050Y-61255545D01*
X89447432Y-61264256D01*
X89547014Y-61300500D01*
X89642139Y-61300500D01*
X89652986Y-61300500D01*
X89752568Y-61264256D01*
X89833748Y-61196138D01*
X89886734Y-61104363D01*
X89905136Y-61000000D01*
X89886734Y-60895637D01*
X89833748Y-60803862D01*
X89781630Y-60760130D01*
X89760875Y-60742714D01*
X89760873Y-60742713D01*
X89752568Y-60735744D01*
X89652986Y-60699500D01*
X89547014Y-60699500D01*
X89536821Y-60703209D01*
X89536820Y-60703210D01*
X89457624Y-60732034D01*
X89457621Y-60732035D01*
X89447432Y-60735744D01*
X89439128Y-60742711D01*
X89439124Y-60742714D01*
X89374561Y-60796889D01*
X89374558Y-60796892D01*
X89366252Y-60803862D01*
X89360829Y-60813253D01*
X89360827Y-60813257D01*
X89318690Y-60886241D01*
X89318688Y-60886244D01*
X89313266Y-60895637D01*
X89311383Y-60906315D01*
X89311381Y-60906321D01*
X89301917Y-60960000D01*
X89294864Y-61000000D01*
X86713264Y-61000000D01*
X86700000Y-60950500D01*
X86700000Y-59800000D01*
X87269479Y-59800000D01*
X87271363Y-59810685D01*
X87287527Y-59902360D01*
X87287528Y-59902364D01*
X87289412Y-59913045D01*
X87294835Y-59922439D01*
X87294836Y-59922440D01*
X87341379Y-60003056D01*
X87341380Y-60003057D01*
X87346806Y-60012455D01*
X87434739Y-60086240D01*
X87488672Y-60105870D01*
X87532412Y-60121790D01*
X87532413Y-60121790D01*
X87542606Y-60125500D01*
X87646547Y-60125500D01*
X87657394Y-60125500D01*
X87765261Y-60086240D01*
X87853194Y-60012455D01*
X87910588Y-59913045D01*
X87930521Y-59800000D01*
X87921537Y-59749047D01*
X87912472Y-59697639D01*
X87912471Y-59697638D01*
X87910588Y-59686955D01*
X87853194Y-59587545D01*
X87765261Y-59513760D01*
X87755067Y-59510049D01*
X87755066Y-59510049D01*
X87667587Y-59478209D01*
X87667582Y-59478208D01*
X87657394Y-59474500D01*
X87542606Y-59474500D01*
X87532418Y-59478207D01*
X87532412Y-59478209D01*
X87444931Y-59510050D01*
X87444927Y-59510052D01*
X87434740Y-59513760D01*
X87426436Y-59520727D01*
X87426432Y-59520730D01*
X87355116Y-59580571D01*
X87355112Y-59580574D01*
X87346806Y-59587545D01*
X87341385Y-59596933D01*
X87341381Y-59596939D01*
X87294836Y-59677559D01*
X87294834Y-59677562D01*
X87289412Y-59686955D01*
X87287529Y-59697633D01*
X87287527Y-59697639D01*
X87278463Y-59749047D01*
X87269479Y-59800000D01*
X86700000Y-59800000D01*
X86700000Y-59516326D01*
X86700000Y-59500000D01*
X86683674Y-59500000D01*
X86149319Y-59500000D01*
X86106910Y-59492522D01*
X86077469Y-59481806D01*
X86067585Y-59478209D01*
X86067584Y-59478208D01*
X86057394Y-59474500D01*
X85942606Y-59474500D01*
X85932417Y-59478208D01*
X85932414Y-59478209D01*
X85914175Y-59484848D01*
X85893089Y-59492522D01*
X85850681Y-59500000D01*
X85349319Y-59500000D01*
X85306910Y-59492522D01*
X85277469Y-59481806D01*
X85267585Y-59478209D01*
X85267584Y-59478208D01*
X85257394Y-59474500D01*
X85224000Y-59474500D01*
X85162000Y-59457887D01*
X85116613Y-59412500D01*
X85100000Y-59350500D01*
X85100000Y-59216326D01*
X85100000Y-59200000D01*
X85083674Y-59200000D01*
X83916326Y-59200000D01*
X83900000Y-59200000D01*
X83900000Y-61200000D01*
X83908638Y-61208638D01*
X84063681Y-61363681D01*
X84090561Y-61403909D01*
X84100000Y-61451362D01*
X84100000Y-61812315D01*
X84085989Y-61869572D01*
X84047124Y-61913890D01*
X83992186Y-61935254D01*
X83933591Y-61928837D01*
X83852986Y-61899500D01*
X83747014Y-61899500D01*
X83736821Y-61903209D01*
X83736820Y-61903210D01*
X83657624Y-61932034D01*
X83657621Y-61932035D01*
X83647432Y-61935744D01*
X83639128Y-61942711D01*
X83639124Y-61942714D01*
X83574561Y-61996889D01*
X83574558Y-61996892D01*
X83566252Y-62003862D01*
X83560829Y-62013253D01*
X83560827Y-62013257D01*
X83518690Y-62086241D01*
X83518688Y-62086244D01*
X83513266Y-62095637D01*
X83511383Y-62106315D01*
X83511381Y-62106321D01*
X83504297Y-62146500D01*
X83494864Y-62200000D01*
X83496748Y-62210685D01*
X83511381Y-62293678D01*
X83511382Y-62293683D01*
X83513266Y-62304363D01*
X83566252Y-62396138D01*
X83647432Y-62464256D01*
X83683983Y-62477559D01*
X83700245Y-62483478D01*
X83749985Y-62517027D01*
X83778152Y-62570002D01*
X83778152Y-62629998D01*
X83749985Y-62682973D01*
X83700245Y-62716522D01*
X83657624Y-62732034D01*
X83657621Y-62732035D01*
X83647432Y-62735744D01*
X83639128Y-62742711D01*
X83639124Y-62742714D01*
X83574561Y-62796889D01*
X83574558Y-62796892D01*
X83566252Y-62803862D01*
X83560829Y-62813253D01*
X83560827Y-62813257D01*
X83518691Y-62886240D01*
X83513266Y-62895637D01*
X83511383Y-62906315D01*
X83511381Y-62906321D01*
X83496748Y-62989315D01*
X83494864Y-63000000D01*
X83496748Y-63010685D01*
X83511381Y-63093678D01*
X83511382Y-63093683D01*
X83513266Y-63104363D01*
X83518689Y-63113757D01*
X83518690Y-63113758D01*
X83521716Y-63119000D01*
X83566252Y-63196138D01*
X83647432Y-63264256D01*
X83747014Y-63300500D01*
X83842139Y-63300500D01*
X83852986Y-63300500D01*
X83933591Y-63271162D01*
X83992186Y-63264746D01*
X84047124Y-63286110D01*
X84085989Y-63330428D01*
X84100000Y-63387685D01*
X84100000Y-64472764D01*
X84086485Y-64529059D01*
X84048885Y-64573082D01*
X83995398Y-64595236D01*
X83985598Y-64596789D01*
X83884337Y-64612826D01*
X83884330Y-64612828D01*
X83874696Y-64614354D01*
X83866000Y-64618784D01*
X83865999Y-64618785D01*
X83770353Y-64667519D01*
X83770349Y-64667521D01*
X83761658Y-64671950D01*
X83754759Y-64678848D01*
X83754756Y-64678851D01*
X83678851Y-64754756D01*
X83678848Y-64754759D01*
X83671950Y-64761658D01*
X83667521Y-64770349D01*
X83667519Y-64770353D01*
X83618785Y-64865999D01*
X83614354Y-64874696D01*
X83612828Y-64884330D01*
X83612826Y-64884337D01*
X83600839Y-64960025D01*
X83594508Y-65000000D01*
X83596035Y-65009641D01*
X83612826Y-65115662D01*
X83612827Y-65115667D01*
X83614354Y-65125304D01*
X83671950Y-65238342D01*
X83761658Y-65328050D01*
X83874696Y-65385646D01*
X83995398Y-65404763D01*
X84048885Y-65426918D01*
X84086485Y-65470941D01*
X84100000Y-65527236D01*
X84100000Y-65560025D01*
X84098116Y-65581556D01*
X84094864Y-65600000D01*
X84096748Y-65610685D01*
X84098116Y-65618443D01*
X84100000Y-65639975D01*
X84100000Y-65700000D01*
X84108638Y-65708637D01*
X84108638Y-65708638D01*
X84113882Y-65713882D01*
X84133588Y-65739562D01*
X84166252Y-65796138D01*
X84247432Y-65864256D01*
X84257628Y-65867967D01*
X84267020Y-65873389D01*
X84265672Y-65875723D01*
X84293321Y-65893321D01*
X84667716Y-66267716D01*
X84697454Y-66315538D01*
X84702974Y-66371581D01*
X84683138Y-66424286D01*
X84647845Y-66457343D01*
X84647432Y-66457494D01*
X84639124Y-66464464D01*
X84639119Y-66464468D01*
X84579705Y-66514322D01*
X84528596Y-66539990D01*
X84471404Y-66539990D01*
X84420295Y-66514322D01*
X84360879Y-66464466D01*
X84360872Y-66464462D01*
X84352568Y-66457494D01*
X84252986Y-66421250D01*
X84147014Y-66421250D01*
X84136821Y-66424959D01*
X84136820Y-66424960D01*
X84057624Y-66453784D01*
X84057621Y-66453785D01*
X84047432Y-66457494D01*
X84039128Y-66464461D01*
X84039124Y-66464464D01*
X83974561Y-66518639D01*
X83974558Y-66518642D01*
X83966252Y-66525612D01*
X83960829Y-66535003D01*
X83960827Y-66535007D01*
X83918690Y-66607991D01*
X83918688Y-66607994D01*
X83913266Y-66617387D01*
X83911383Y-66628065D01*
X83911381Y-66628071D01*
X83903107Y-66675000D01*
X83894864Y-66721750D01*
X83896748Y-66732435D01*
X83911381Y-66815428D01*
X83911382Y-66815433D01*
X83913266Y-66826113D01*
X83918689Y-66835507D01*
X83918690Y-66835508D01*
X83923881Y-66844500D01*
X83966252Y-66917888D01*
X83974561Y-66924860D01*
X84006472Y-66951637D01*
X84047432Y-66986006D01*
X84147014Y-67022250D01*
X84242139Y-67022250D01*
X84252986Y-67022250D01*
X84352568Y-66986006D01*
X84420293Y-66929177D01*
X84471402Y-66903510D01*
X84528595Y-66903509D01*
X84579704Y-66929177D01*
X84639120Y-66979033D01*
X84639126Y-66979036D01*
X84647432Y-66986006D01*
X84747014Y-67022250D01*
X84842139Y-67022250D01*
X84852986Y-67022250D01*
X84952568Y-66986006D01*
X85033748Y-66917888D01*
X85056951Y-66877698D01*
X85095445Y-66836598D01*
X85148150Y-66816760D01*
X85204195Y-66822279D01*
X85252018Y-66852018D01*
X87700000Y-69300000D01*
X89748638Y-69300000D01*
X89796091Y-69309439D01*
X89836319Y-69336319D01*
X91563681Y-71063681D01*
X91590561Y-71103909D01*
X91600000Y-71151362D01*
X91600000Y-78100000D01*
X91608638Y-78108638D01*
X93610119Y-80110119D01*
X93641634Y-80163621D01*
X93643260Y-80225694D01*
X93614588Y-80280772D01*
X93562809Y-80315044D01*
X93509394Y-80319248D01*
X93509394Y-80319500D01*
X93394606Y-80319500D01*
X93384418Y-80323207D01*
X93384412Y-80323209D01*
X93296931Y-80355050D01*
X93296927Y-80355052D01*
X93286740Y-80358760D01*
X93278436Y-80365727D01*
X93278432Y-80365730D01*
X93207116Y-80425571D01*
X93207112Y-80425574D01*
X93198806Y-80432545D01*
X93193385Y-80441933D01*
X93193381Y-80441939D01*
X93146836Y-80522559D01*
X93146834Y-80522562D01*
X93141412Y-80531955D01*
X93139529Y-80542633D01*
X93139527Y-80542639D01*
X93126128Y-80618632D01*
X93121479Y-80645000D01*
X93123363Y-80655685D01*
X93139527Y-80747360D01*
X93139528Y-80747364D01*
X93141412Y-80758045D01*
X93146835Y-80767439D01*
X93146836Y-80767440D01*
X93193379Y-80848056D01*
X93193380Y-80848057D01*
X93198806Y-80857455D01*
X93286739Y-80931240D01*
X93310170Y-80939768D01*
X93384412Y-80966790D01*
X93384413Y-80966790D01*
X93394606Y-80970500D01*
X93498547Y-80970500D01*
X93509394Y-80970500D01*
X93617261Y-80931240D01*
X93705194Y-80857455D01*
X93762588Y-80758045D01*
X93782521Y-80645000D01*
X93777872Y-80618632D01*
X93764472Y-80542639D01*
X93764471Y-80542638D01*
X93762588Y-80531955D01*
X93736055Y-80485999D01*
X93719443Y-80424000D01*
X93736056Y-80362000D01*
X93781443Y-80316613D01*
X93843443Y-80300000D01*
X99196557Y-80300000D01*
X99258557Y-80316613D01*
X99303944Y-80362000D01*
X99320557Y-80424000D01*
X99303944Y-80486000D01*
X99282836Y-80522559D01*
X99282834Y-80522562D01*
X99277412Y-80531955D01*
X99275529Y-80542633D01*
X99275527Y-80542639D01*
X99262128Y-80618632D01*
X99257479Y-80645000D01*
X99259363Y-80655685D01*
X99275527Y-80747360D01*
X99275528Y-80747364D01*
X99277412Y-80758045D01*
X99282835Y-80767439D01*
X99282836Y-80767440D01*
X99329379Y-80848056D01*
X99329380Y-80848057D01*
X99334806Y-80857455D01*
X99422739Y-80931240D01*
X99446170Y-80939768D01*
X99520412Y-80966790D01*
X99520413Y-80966790D01*
X99530606Y-80970500D01*
X99634547Y-80970500D01*
X99645394Y-80970500D01*
X99753261Y-80931240D01*
X99841194Y-80857455D01*
X99898588Y-80758045D01*
X99918521Y-80645000D01*
X99913872Y-80618632D01*
X99900472Y-80542639D01*
X99900471Y-80542638D01*
X99898588Y-80531955D01*
X99872055Y-80485999D01*
X99855443Y-80424000D01*
X99872056Y-80362000D01*
X99917443Y-80316613D01*
X99979443Y-80300000D01*
X101696557Y-80300000D01*
X101758557Y-80316613D01*
X101803944Y-80362000D01*
X101820557Y-80424000D01*
X101803944Y-80486000D01*
X101782836Y-80522559D01*
X101782834Y-80522562D01*
X101777412Y-80531955D01*
X101775529Y-80542633D01*
X101775527Y-80542639D01*
X101762128Y-80618632D01*
X101757479Y-80645000D01*
X101759363Y-80655685D01*
X101775527Y-80747360D01*
X101775528Y-80747364D01*
X101777412Y-80758045D01*
X101782835Y-80767439D01*
X101782836Y-80767440D01*
X101829379Y-80848056D01*
X101829380Y-80848057D01*
X101834806Y-80857455D01*
X101922739Y-80931240D01*
X101946170Y-80939768D01*
X102020412Y-80966790D01*
X102020413Y-80966790D01*
X102030606Y-80970500D01*
X102134547Y-80970500D01*
X102145394Y-80970500D01*
X102253261Y-80931240D01*
X102341194Y-80857455D01*
X102398588Y-80758045D01*
X102418521Y-80645000D01*
X102413872Y-80618632D01*
X102400472Y-80542639D01*
X102400471Y-80542638D01*
X102398588Y-80531955D01*
X102372055Y-80485999D01*
X102355443Y-80424000D01*
X102372056Y-80362000D01*
X102417443Y-80316613D01*
X102479443Y-80300000D01*
X106487789Y-80300000D01*
X106500000Y-80300000D01*
X107425000Y-79375000D01*
X111974417Y-79375000D01*
X111975014Y-79381061D01*
X111994102Y-79574869D01*
X111994103Y-79574875D01*
X111994700Y-79580934D01*
X111996467Y-79586759D01*
X111996468Y-79586764D01*
X112034567Y-79712359D01*
X112054768Y-79778954D01*
X112152315Y-79961450D01*
X112283590Y-80121410D01*
X112443550Y-80252685D01*
X112626046Y-80350232D01*
X112824066Y-80410300D01*
X113030000Y-80430583D01*
X113235934Y-80410300D01*
X113433954Y-80350232D01*
X113616450Y-80252685D01*
X113776410Y-80121410D01*
X113907685Y-79961450D01*
X114005232Y-79778954D01*
X114065300Y-79580934D01*
X114085583Y-79375000D01*
X114082976Y-79348527D01*
X114082299Y-79341653D01*
X114094490Y-79274656D01*
X114140222Y-79224199D01*
X114205702Y-79205500D01*
X114394298Y-79205500D01*
X114459778Y-79224199D01*
X114505510Y-79274656D01*
X114517701Y-79341653D01*
X114517024Y-79348527D01*
X114514417Y-79375000D01*
X114515014Y-79381061D01*
X114534102Y-79574869D01*
X114534103Y-79574875D01*
X114534700Y-79580934D01*
X114536467Y-79586759D01*
X114536468Y-79586764D01*
X114574567Y-79712359D01*
X114594768Y-79778954D01*
X114692315Y-79961450D01*
X114823590Y-80121410D01*
X114983550Y-80252685D01*
X115166046Y-80350232D01*
X115364066Y-80410300D01*
X115570000Y-80430583D01*
X115775934Y-80410300D01*
X115973954Y-80350232D01*
X116156450Y-80252685D01*
X116316410Y-80121410D01*
X116447685Y-79961450D01*
X116545232Y-79778954D01*
X116605300Y-79580934D01*
X116625583Y-79375000D01*
X116605300Y-79169066D01*
X116545232Y-78971046D01*
X116447685Y-78788550D01*
X116316410Y-78628590D01*
X116279534Y-78598326D01*
X116248096Y-78559513D01*
X116234524Y-78511442D01*
X116241018Y-78461920D01*
X116274344Y-78365633D01*
X116304254Y-78157602D01*
X116294254Y-77947670D01*
X116270610Y-77850211D01*
X116246098Y-77749170D01*
X116246097Y-77749169D01*
X116244704Y-77743424D01*
X116244370Y-77742694D01*
X116238185Y-77695559D01*
X116251757Y-77647484D01*
X116283195Y-77608668D01*
X116316410Y-77581410D01*
X116447685Y-77421450D01*
X116545232Y-77238954D01*
X116605300Y-77040934D01*
X116625583Y-76835000D01*
X116605300Y-76629066D01*
X116545232Y-76431046D01*
X116447685Y-76248550D01*
X116316410Y-76088590D01*
X116297413Y-76073000D01*
X116232117Y-76019413D01*
X116156450Y-75957315D01*
X116151079Y-75954444D01*
X115979328Y-75862640D01*
X115979323Y-75862638D01*
X115973954Y-75859768D01*
X115930040Y-75846447D01*
X115781764Y-75801468D01*
X115781759Y-75801467D01*
X115775934Y-75799700D01*
X115769875Y-75799103D01*
X115769869Y-75799102D01*
X115576061Y-75780014D01*
X115570000Y-75779417D01*
X115563939Y-75780014D01*
X115370130Y-75799102D01*
X115370122Y-75799103D01*
X115364066Y-75799700D01*
X115358242Y-75801466D01*
X115358235Y-75801468D01*
X115171877Y-75857999D01*
X115171875Y-75857999D01*
X115166046Y-75859768D01*
X115160679Y-75862636D01*
X115160671Y-75862640D01*
X114988920Y-75954444D01*
X114988915Y-75954447D01*
X114983550Y-75957315D01*
X114978846Y-75961174D01*
X114978842Y-75961178D01*
X114828296Y-76084727D01*
X114828290Y-76084732D01*
X114823590Y-76088590D01*
X114819732Y-76093290D01*
X114819727Y-76093296D01*
X114696178Y-76243842D01*
X114696174Y-76243846D01*
X114692315Y-76248550D01*
X114689447Y-76253915D01*
X114689444Y-76253920D01*
X114597640Y-76425671D01*
X114597636Y-76425679D01*
X114594768Y-76431046D01*
X114592999Y-76436875D01*
X114592999Y-76436877D01*
X114536468Y-76623235D01*
X114536466Y-76623242D01*
X114534700Y-76629066D01*
X114534103Y-76635122D01*
X114534102Y-76635130D01*
X114516377Y-76815098D01*
X114514417Y-76835000D01*
X114515014Y-76841061D01*
X114515014Y-76841064D01*
X114517701Y-76868347D01*
X114505510Y-76935344D01*
X114459778Y-76985801D01*
X114394298Y-77004500D01*
X114205702Y-77004500D01*
X114140222Y-76985801D01*
X114094490Y-76935344D01*
X114082299Y-76868347D01*
X114084986Y-76841064D01*
X114084986Y-76841061D01*
X114085583Y-76835000D01*
X114065300Y-76629066D01*
X114005232Y-76431046D01*
X113907685Y-76248550D01*
X113776410Y-76088590D01*
X113757413Y-76073000D01*
X113692117Y-76019413D01*
X113616450Y-75957315D01*
X113611079Y-75954444D01*
X113439328Y-75862640D01*
X113439323Y-75862638D01*
X113433954Y-75859768D01*
X113390040Y-75846447D01*
X113241764Y-75801468D01*
X113241759Y-75801467D01*
X113235934Y-75799700D01*
X113229875Y-75799103D01*
X113229869Y-75799102D01*
X113036061Y-75780014D01*
X113030000Y-75779417D01*
X113023939Y-75780014D01*
X112830130Y-75799102D01*
X112830122Y-75799103D01*
X112824066Y-75799700D01*
X112818242Y-75801466D01*
X112818235Y-75801468D01*
X112631877Y-75857999D01*
X112631875Y-75857999D01*
X112626046Y-75859768D01*
X112620679Y-75862636D01*
X112620671Y-75862640D01*
X112448920Y-75954444D01*
X112448915Y-75954447D01*
X112443550Y-75957315D01*
X112438846Y-75961174D01*
X112438842Y-75961178D01*
X112288296Y-76084727D01*
X112288290Y-76084732D01*
X112283590Y-76088590D01*
X112279732Y-76093290D01*
X112279727Y-76093296D01*
X112156178Y-76243842D01*
X112156174Y-76243846D01*
X112152315Y-76248550D01*
X112149447Y-76253915D01*
X112149444Y-76253920D01*
X112057640Y-76425671D01*
X112057636Y-76425679D01*
X112054768Y-76431046D01*
X112052999Y-76436875D01*
X112052999Y-76436877D01*
X111996468Y-76623235D01*
X111996466Y-76623242D01*
X111994700Y-76629066D01*
X111994103Y-76635122D01*
X111994102Y-76635130D01*
X111976377Y-76815098D01*
X111974417Y-76835000D01*
X111975014Y-76841061D01*
X111994102Y-77034869D01*
X111994103Y-77034875D01*
X111994700Y-77040934D01*
X111996467Y-77046759D01*
X111996468Y-77046764D01*
X112009473Y-77089635D01*
X112054768Y-77238954D01*
X112057638Y-77244323D01*
X112057640Y-77244328D01*
X112127960Y-77375886D01*
X112152315Y-77421450D01*
X112283590Y-77581410D01*
X112320465Y-77611672D01*
X112351902Y-77650485D01*
X112365475Y-77698555D01*
X112358980Y-77748080D01*
X112327588Y-77838781D01*
X112327584Y-77838793D01*
X112325656Y-77844367D01*
X112324816Y-77850203D01*
X112324815Y-77850211D01*
X112296585Y-78046558D01*
X112296584Y-78046564D01*
X112295746Y-78052398D01*
X112296026Y-78058282D01*
X112296026Y-78058289D01*
X112300564Y-78153550D01*
X112305746Y-78262330D01*
X112307135Y-78268058D01*
X112307137Y-78268067D01*
X112353903Y-78460837D01*
X112353905Y-78460843D01*
X112355296Y-78466576D01*
X112355629Y-78467306D01*
X112361814Y-78514443D01*
X112348242Y-78562515D01*
X112316804Y-78601331D01*
X112288298Y-78624725D01*
X112288291Y-78624731D01*
X112283590Y-78628590D01*
X112279732Y-78633290D01*
X112279727Y-78633296D01*
X112156178Y-78783842D01*
X112156174Y-78783846D01*
X112152315Y-78788550D01*
X112149447Y-78793915D01*
X112149444Y-78793920D01*
X112057640Y-78965671D01*
X112057636Y-78965679D01*
X112054768Y-78971046D01*
X112052999Y-78976875D01*
X112052999Y-78976877D01*
X111996468Y-79163235D01*
X111996466Y-79163242D01*
X111994700Y-79169066D01*
X111994103Y-79175122D01*
X111994102Y-79175130D01*
X111984300Y-79274656D01*
X111974417Y-79375000D01*
X107425000Y-79375000D01*
X108800000Y-78000000D01*
X108800000Y-73251362D01*
X108809439Y-73203909D01*
X108836319Y-73163681D01*
X110163681Y-71836319D01*
X110203909Y-71809439D01*
X110251362Y-71800000D01*
X118240000Y-71800000D01*
X118302000Y-71816613D01*
X118347387Y-71862000D01*
X118364000Y-71924000D01*
X118364000Y-85220000D01*
X118347387Y-85282000D01*
X118302000Y-85327387D01*
X118240000Y-85344000D01*
X116461565Y-85344000D01*
X116395225Y-85324762D01*
X116349470Y-85273017D01*
X116338498Y-85204821D01*
X116365712Y-85141335D01*
X116376182Y-85128577D01*
X116447685Y-85041450D01*
X116545232Y-84858954D01*
X116605300Y-84660934D01*
X116625583Y-84455000D01*
X116605300Y-84249066D01*
X116545232Y-84051046D01*
X116447685Y-83868550D01*
X116316410Y-83708590D01*
X116279534Y-83678326D01*
X116248096Y-83639513D01*
X116234524Y-83591442D01*
X116241018Y-83541920D01*
X116274344Y-83445633D01*
X116304254Y-83237602D01*
X116294254Y-83027670D01*
X116270610Y-82930211D01*
X116246098Y-82829170D01*
X116246097Y-82829169D01*
X116244704Y-82823424D01*
X116244370Y-82822694D01*
X116238185Y-82775559D01*
X116251757Y-82727484D01*
X116283195Y-82688668D01*
X116316410Y-82661410D01*
X116447685Y-82501450D01*
X116545232Y-82318954D01*
X116605300Y-82120934D01*
X116625583Y-81915000D01*
X116605300Y-81709066D01*
X116545232Y-81511046D01*
X116447685Y-81328550D01*
X116316410Y-81168590D01*
X116156450Y-81037315D01*
X116151079Y-81034444D01*
X115979328Y-80942640D01*
X115979323Y-80942638D01*
X115973954Y-80939768D01*
X115922850Y-80924266D01*
X115781764Y-80881468D01*
X115781759Y-80881467D01*
X115775934Y-80879700D01*
X115769875Y-80879103D01*
X115769869Y-80879102D01*
X115576061Y-80860014D01*
X115570000Y-80859417D01*
X115563939Y-80860014D01*
X115370130Y-80879102D01*
X115370122Y-80879103D01*
X115364066Y-80879700D01*
X115358242Y-80881466D01*
X115358235Y-80881468D01*
X115171877Y-80937999D01*
X115171875Y-80937999D01*
X115166046Y-80939768D01*
X115160679Y-80942636D01*
X115160671Y-80942640D01*
X114988920Y-81034444D01*
X114988915Y-81034447D01*
X114983550Y-81037315D01*
X114978846Y-81041174D01*
X114978842Y-81041178D01*
X114828296Y-81164727D01*
X114828290Y-81164732D01*
X114823590Y-81168590D01*
X114819732Y-81173290D01*
X114819727Y-81173296D01*
X114696178Y-81323842D01*
X114696174Y-81323846D01*
X114692315Y-81328550D01*
X114689447Y-81333915D01*
X114689444Y-81333920D01*
X114597640Y-81505671D01*
X114597636Y-81505679D01*
X114594768Y-81511046D01*
X114592999Y-81516875D01*
X114592999Y-81516877D01*
X114536468Y-81703235D01*
X114536466Y-81703242D01*
X114534700Y-81709066D01*
X114534103Y-81715122D01*
X114534102Y-81715130D01*
X114519728Y-81861079D01*
X114514417Y-81915000D01*
X114515014Y-81921061D01*
X114515014Y-81921064D01*
X114517701Y-81948347D01*
X114505510Y-82015344D01*
X114459778Y-82065801D01*
X114394298Y-82084500D01*
X114205702Y-82084500D01*
X114140222Y-82065801D01*
X114094490Y-82015344D01*
X114082299Y-81948347D01*
X114084986Y-81921064D01*
X114084986Y-81921061D01*
X114085583Y-81915000D01*
X114065300Y-81709066D01*
X114005232Y-81511046D01*
X113907685Y-81328550D01*
X113776410Y-81168590D01*
X113616450Y-81037315D01*
X113611079Y-81034444D01*
X113439328Y-80942640D01*
X113439323Y-80942638D01*
X113433954Y-80939768D01*
X113382850Y-80924266D01*
X113241764Y-80881468D01*
X113241759Y-80881467D01*
X113235934Y-80879700D01*
X113229875Y-80879103D01*
X113229869Y-80879102D01*
X113036061Y-80860014D01*
X113030000Y-80859417D01*
X113023939Y-80860014D01*
X112830130Y-80879102D01*
X112830122Y-80879103D01*
X112824066Y-80879700D01*
X112818242Y-80881466D01*
X112818235Y-80881468D01*
X112631877Y-80937999D01*
X112631875Y-80937999D01*
X112626046Y-80939768D01*
X112620679Y-80942636D01*
X112620671Y-80942640D01*
X112448920Y-81034444D01*
X112448915Y-81034447D01*
X112443550Y-81037315D01*
X112438846Y-81041174D01*
X112438842Y-81041178D01*
X112288296Y-81164727D01*
X112288290Y-81164732D01*
X112283590Y-81168590D01*
X112279732Y-81173290D01*
X112279727Y-81173296D01*
X112156178Y-81323842D01*
X112156174Y-81323846D01*
X112152315Y-81328550D01*
X112149447Y-81333915D01*
X112149444Y-81333920D01*
X112057640Y-81505671D01*
X112057636Y-81505679D01*
X112054768Y-81511046D01*
X112052999Y-81516875D01*
X112052999Y-81516877D01*
X111996468Y-81703235D01*
X111996466Y-81703242D01*
X111994700Y-81709066D01*
X111994103Y-81715122D01*
X111994102Y-81715130D01*
X111979728Y-81861079D01*
X111974417Y-81915000D01*
X111975014Y-81921061D01*
X111994102Y-82114869D01*
X111994103Y-82114875D01*
X111994700Y-82120934D01*
X111996467Y-82126759D01*
X111996468Y-82126764D01*
X112034567Y-82252359D01*
X112054768Y-82318954D01*
X112057638Y-82324323D01*
X112057640Y-82324328D01*
X112112907Y-82427724D01*
X112152315Y-82501450D01*
X112283590Y-82661410D01*
X112320465Y-82691672D01*
X112351902Y-82730485D01*
X112365475Y-82778555D01*
X112358980Y-82828080D01*
X112327588Y-82918781D01*
X112327584Y-82918793D01*
X112325656Y-82924367D01*
X112324816Y-82930203D01*
X112324815Y-82930211D01*
X112296585Y-83126558D01*
X112296584Y-83126564D01*
X112295746Y-83132398D01*
X112296026Y-83138282D01*
X112296026Y-83138289D01*
X112300564Y-83233550D01*
X112305746Y-83342330D01*
X112307135Y-83348058D01*
X112307137Y-83348067D01*
X112353903Y-83540837D01*
X112353905Y-83540843D01*
X112355296Y-83546576D01*
X112355629Y-83547306D01*
X112361814Y-83594443D01*
X112348242Y-83642515D01*
X112316804Y-83681331D01*
X112288298Y-83704725D01*
X112288291Y-83704731D01*
X112283590Y-83708590D01*
X112279732Y-83713290D01*
X112279727Y-83713296D01*
X112156178Y-83863842D01*
X112156174Y-83863846D01*
X112152315Y-83868550D01*
X112149447Y-83873915D01*
X112149444Y-83873920D01*
X112057640Y-84045671D01*
X112057636Y-84045679D01*
X112054768Y-84051046D01*
X112052999Y-84056875D01*
X112052999Y-84056877D01*
X111996468Y-84243235D01*
X111996466Y-84243242D01*
X111994700Y-84249066D01*
X111994103Y-84255122D01*
X111994102Y-84255130D01*
X111984300Y-84354656D01*
X111974417Y-84455000D01*
X111975014Y-84461061D01*
X111994102Y-84654869D01*
X111994103Y-84654875D01*
X111994700Y-84660934D01*
X111996467Y-84666759D01*
X111996468Y-84666764D01*
X112034567Y-84792359D01*
X112054768Y-84858954D01*
X112057638Y-84864323D01*
X112057640Y-84864328D01*
X112127960Y-84995886D01*
X112152315Y-85041450D01*
X112156179Y-85046158D01*
X112234288Y-85141335D01*
X112261502Y-85204821D01*
X112250530Y-85273017D01*
X112204775Y-85324762D01*
X112138435Y-85344000D01*
X78702229Y-85344000D01*
X78644972Y-85329989D01*
X78600654Y-85291123D01*
X78579290Y-85236185D01*
X78585707Y-85177589D01*
X78618456Y-85128577D01*
X78670136Y-85100225D01*
X78690261Y-85094832D01*
X78700397Y-85091143D01*
X78904671Y-84995888D01*
X78914016Y-84990492D01*
X78982248Y-84942715D01*
X78989681Y-84934603D01*
X78983768Y-84925321D01*
X77966128Y-83907681D01*
X77934034Y-83852094D01*
X77934034Y-83820000D01*
X78590431Y-83820000D01*
X78597095Y-83831542D01*
X79337321Y-84571768D01*
X79346603Y-84577681D01*
X79354715Y-84570248D01*
X79402492Y-84502016D01*
X79407888Y-84492671D01*
X79503143Y-84288397D01*
X79506832Y-84278261D01*
X79538158Y-84161351D01*
X79569679Y-84106339D01*
X79624274Y-84074100D01*
X79687669Y-84073062D01*
X79743289Y-84103498D01*
X79776594Y-84157449D01*
X79796768Y-84223954D01*
X79799638Y-84229323D01*
X79799640Y-84229328D01*
X79839660Y-84304199D01*
X79894315Y-84406450D01*
X80025590Y-84566410D01*
X80185550Y-84697685D01*
X80368046Y-84795232D01*
X80566066Y-84855300D01*
X80772000Y-84875583D01*
X80977934Y-84855300D01*
X81175954Y-84795232D01*
X81358450Y-84697685D01*
X81518410Y-84566410D01*
X81649685Y-84406450D01*
X81747232Y-84223954D01*
X81807300Y-84025934D01*
X81827583Y-83820000D01*
X81807300Y-83614066D01*
X81747232Y-83416046D01*
X81649685Y-83233550D01*
X81518410Y-83073590D01*
X81358450Y-82942315D01*
X81324872Y-82924367D01*
X81181328Y-82847640D01*
X81181323Y-82847638D01*
X81175954Y-82844768D01*
X81124534Y-82829170D01*
X80983764Y-82786468D01*
X80983759Y-82786467D01*
X80977934Y-82784700D01*
X80971875Y-82784103D01*
X80971869Y-82784102D01*
X80778061Y-82765014D01*
X80772000Y-82764417D01*
X80765939Y-82765014D01*
X80572130Y-82784102D01*
X80572122Y-82784103D01*
X80566066Y-82784700D01*
X80560242Y-82786466D01*
X80560235Y-82786468D01*
X80373877Y-82842999D01*
X80373875Y-82842999D01*
X80368046Y-82844768D01*
X80362679Y-82847636D01*
X80362671Y-82847640D01*
X80190920Y-82939444D01*
X80190915Y-82939447D01*
X80185550Y-82942315D01*
X80180846Y-82946174D01*
X80180842Y-82946178D01*
X80030296Y-83069727D01*
X80030290Y-83069732D01*
X80025590Y-83073590D01*
X80021732Y-83078290D01*
X80021727Y-83078296D01*
X79898178Y-83228842D01*
X79898174Y-83228846D01*
X79894315Y-83233550D01*
X79891447Y-83238915D01*
X79891444Y-83238920D01*
X79799640Y-83410671D01*
X79799636Y-83410679D01*
X79796768Y-83416046D01*
X79795001Y-83421870D01*
X79794996Y-83421883D01*
X79776593Y-83482551D01*
X79743289Y-83536502D01*
X79687668Y-83566937D01*
X79624274Y-83565899D01*
X79569680Y-83533660D01*
X79538158Y-83478648D01*
X79506832Y-83361738D01*
X79503143Y-83351602D01*
X79407889Y-83147332D01*
X79402491Y-83137982D01*
X79354714Y-83069749D01*
X79346603Y-83062316D01*
X79337324Y-83068227D01*
X78597095Y-83808457D01*
X78590431Y-83820000D01*
X77934034Y-83820000D01*
X77934034Y-83787906D01*
X77966128Y-83732319D01*
X78232000Y-83466447D01*
X78983771Y-82714674D01*
X78989682Y-82705395D01*
X78982249Y-82697284D01*
X78914018Y-82649508D01*
X78904668Y-82644110D01*
X78700397Y-82548856D01*
X78690263Y-82545168D01*
X78573350Y-82513841D01*
X78518338Y-82482319D01*
X78486099Y-82427724D01*
X78485062Y-82364329D01*
X78515499Y-82308709D01*
X78569448Y-82275406D01*
X78635954Y-82255232D01*
X78818450Y-82157685D01*
X78978410Y-82026410D01*
X79109685Y-81866450D01*
X79207232Y-81683954D01*
X79267300Y-81485934D01*
X79287583Y-81280000D01*
X79716417Y-81280000D01*
X79717014Y-81286061D01*
X79736102Y-81479869D01*
X79736103Y-81479875D01*
X79736700Y-81485934D01*
X79738467Y-81491759D01*
X79738468Y-81491764D01*
X79746086Y-81516877D01*
X79796768Y-81683954D01*
X79799638Y-81689323D01*
X79799640Y-81689328D01*
X79813432Y-81715130D01*
X79894315Y-81866450D01*
X79898178Y-81871157D01*
X79992440Y-81986017D01*
X80025590Y-82026410D01*
X80185550Y-82157685D01*
X80368046Y-82255232D01*
X80566066Y-82315300D01*
X80772000Y-82335583D01*
X80977934Y-82315300D01*
X81175954Y-82255232D01*
X81358450Y-82157685D01*
X81518410Y-82026410D01*
X81649685Y-81866450D01*
X81747232Y-81683954D01*
X81807300Y-81485934D01*
X81827583Y-81280000D01*
X81807300Y-81074066D01*
X81747232Y-80876046D01*
X81649685Y-80693550D01*
X81609841Y-80645000D01*
X90621479Y-80645000D01*
X90623363Y-80655685D01*
X90639527Y-80747360D01*
X90639528Y-80747364D01*
X90641412Y-80758045D01*
X90646835Y-80767439D01*
X90646836Y-80767440D01*
X90693379Y-80848056D01*
X90693380Y-80848057D01*
X90698806Y-80857455D01*
X90786739Y-80931240D01*
X90810170Y-80939768D01*
X90884412Y-80966790D01*
X90884413Y-80966790D01*
X90894606Y-80970500D01*
X90998547Y-80970500D01*
X91009394Y-80970500D01*
X91117261Y-80931240D01*
X91205194Y-80857455D01*
X91262588Y-80758045D01*
X91282521Y-80645000D01*
X91277872Y-80618632D01*
X91264472Y-80542639D01*
X91264471Y-80542638D01*
X91262588Y-80531955D01*
X91205194Y-80432545D01*
X91117261Y-80358760D01*
X91107067Y-80355049D01*
X91107066Y-80355049D01*
X91019587Y-80323209D01*
X91019582Y-80323208D01*
X91009394Y-80319500D01*
X90894606Y-80319500D01*
X90884418Y-80323207D01*
X90884412Y-80323209D01*
X90796931Y-80355050D01*
X90796927Y-80355052D01*
X90786740Y-80358760D01*
X90778436Y-80365727D01*
X90778432Y-80365730D01*
X90707116Y-80425571D01*
X90707112Y-80425574D01*
X90698806Y-80432545D01*
X90693385Y-80441933D01*
X90693381Y-80441939D01*
X90646836Y-80522559D01*
X90646834Y-80522562D01*
X90641412Y-80531955D01*
X90639529Y-80542633D01*
X90639527Y-80542639D01*
X90626128Y-80618632D01*
X90621479Y-80645000D01*
X81609841Y-80645000D01*
X81518410Y-80533590D01*
X81358450Y-80402315D01*
X81353079Y-80399444D01*
X81181328Y-80307640D01*
X81181323Y-80307638D01*
X81175954Y-80304768D01*
X81096849Y-80280772D01*
X80983764Y-80246468D01*
X80983759Y-80246467D01*
X80977934Y-80244700D01*
X80971875Y-80244103D01*
X80971869Y-80244102D01*
X80778061Y-80225014D01*
X80772000Y-80224417D01*
X80765939Y-80225014D01*
X80572130Y-80244102D01*
X80572122Y-80244103D01*
X80566066Y-80244700D01*
X80560242Y-80246466D01*
X80560235Y-80246468D01*
X80373877Y-80302999D01*
X80373875Y-80302999D01*
X80368046Y-80304768D01*
X80362679Y-80307636D01*
X80362671Y-80307640D01*
X80190920Y-80399444D01*
X80190915Y-80399447D01*
X80185550Y-80402315D01*
X80180846Y-80406174D01*
X80180842Y-80406178D01*
X80030296Y-80529727D01*
X80030290Y-80529732D01*
X80025590Y-80533590D01*
X80021732Y-80538290D01*
X80021727Y-80538296D01*
X79898178Y-80688842D01*
X79898174Y-80688846D01*
X79894315Y-80693550D01*
X79891447Y-80698915D01*
X79891444Y-80698920D01*
X79799640Y-80870671D01*
X79799636Y-80870679D01*
X79796768Y-80876046D01*
X79794999Y-80881875D01*
X79794999Y-80881877D01*
X79738468Y-81068235D01*
X79738466Y-81068242D01*
X79736700Y-81074066D01*
X79736103Y-81080122D01*
X79736102Y-81080130D01*
X79717890Y-81265040D01*
X79716417Y-81280000D01*
X79287583Y-81280000D01*
X79267300Y-81074066D01*
X79207232Y-80876046D01*
X79109685Y-80693550D01*
X78978410Y-80533590D01*
X78818450Y-80402315D01*
X78813079Y-80399444D01*
X78641328Y-80307640D01*
X78641323Y-80307638D01*
X78635954Y-80304768D01*
X78556849Y-80280772D01*
X78443764Y-80246468D01*
X78443759Y-80246467D01*
X78437934Y-80244700D01*
X78431875Y-80244103D01*
X78431869Y-80244102D01*
X78238061Y-80225014D01*
X78232000Y-80224417D01*
X78225939Y-80225014D01*
X78032130Y-80244102D01*
X78032122Y-80244103D01*
X78026066Y-80244700D01*
X78020242Y-80246466D01*
X78020235Y-80246468D01*
X77833877Y-80302999D01*
X77833875Y-80302999D01*
X77828046Y-80304768D01*
X77822679Y-80307636D01*
X77822671Y-80307640D01*
X77650920Y-80399444D01*
X77650915Y-80399447D01*
X77645550Y-80402315D01*
X77640846Y-80406174D01*
X77640842Y-80406178D01*
X77490296Y-80529727D01*
X77490290Y-80529732D01*
X77485590Y-80533590D01*
X77481732Y-80538290D01*
X77481727Y-80538296D01*
X77435854Y-80594194D01*
X77387453Y-80630091D01*
X77327846Y-80638933D01*
X77271109Y-80618632D01*
X77230642Y-80573983D01*
X77216000Y-80515530D01*
X77216000Y-79504470D01*
X77230642Y-79446017D01*
X77271109Y-79401368D01*
X77327846Y-79381067D01*
X77387453Y-79389909D01*
X77435853Y-79425805D01*
X77485590Y-79486410D01*
X77645550Y-79617685D01*
X77828046Y-79715232D01*
X78026066Y-79775300D01*
X78232000Y-79795583D01*
X78437934Y-79775300D01*
X78635954Y-79715232D01*
X78818450Y-79617685D01*
X78978410Y-79486410D01*
X79109685Y-79326450D01*
X79207232Y-79143954D01*
X79267300Y-78945934D01*
X79287583Y-78740000D01*
X79716417Y-78740000D01*
X79717014Y-78746061D01*
X79736102Y-78939869D01*
X79736103Y-78939875D01*
X79736700Y-78945934D01*
X79738467Y-78951759D01*
X79738468Y-78951764D01*
X79785666Y-79107356D01*
X79796768Y-79143954D01*
X79799638Y-79149323D01*
X79799640Y-79149328D01*
X79866630Y-79274656D01*
X79894315Y-79326450D01*
X79898178Y-79331157D01*
X79992440Y-79446017D01*
X80025590Y-79486410D01*
X80185550Y-79617685D01*
X80368046Y-79715232D01*
X80566066Y-79775300D01*
X80772000Y-79795583D01*
X80977934Y-79775300D01*
X81175954Y-79715232D01*
X81358450Y-79617685D01*
X81518410Y-79486410D01*
X81649685Y-79326450D01*
X81747232Y-79143954D01*
X81790900Y-78999999D01*
X83069197Y-78999999D01*
X83070724Y-79009640D01*
X83088754Y-79123483D01*
X83088755Y-79123488D01*
X83090282Y-79133125D01*
X83094713Y-79141821D01*
X83136686Y-79224199D01*
X83151473Y-79253219D01*
X83246781Y-79348527D01*
X83366875Y-79409718D01*
X83500001Y-79430803D01*
X83633127Y-79409718D01*
X83753221Y-79348527D01*
X83812320Y-79289427D01*
X83867907Y-79257334D01*
X83932095Y-79257334D01*
X83987681Y-79289427D01*
X84046781Y-79348527D01*
X84166875Y-79409718D01*
X84300001Y-79430803D01*
X84433127Y-79409718D01*
X84553221Y-79348527D01*
X84648529Y-79253219D01*
X84709720Y-79133125D01*
X84730805Y-78999999D01*
X90069197Y-78999999D01*
X90070724Y-79009640D01*
X90088754Y-79123483D01*
X90088755Y-79123488D01*
X90090282Y-79133125D01*
X90094713Y-79141821D01*
X90136686Y-79224199D01*
X90151473Y-79253219D01*
X90246781Y-79348527D01*
X90366875Y-79409718D01*
X90500001Y-79430803D01*
X90633127Y-79409718D01*
X90753221Y-79348527D01*
X90812320Y-79289427D01*
X90867907Y-79257334D01*
X90932095Y-79257334D01*
X90987681Y-79289427D01*
X91046781Y-79348527D01*
X91166875Y-79409718D01*
X91300001Y-79430803D01*
X91433127Y-79409718D01*
X91553221Y-79348527D01*
X91648529Y-79253219D01*
X91709720Y-79133125D01*
X91730805Y-78999999D01*
X91709720Y-78866873D01*
X91648529Y-78746779D01*
X91553221Y-78651471D01*
X91433127Y-78590280D01*
X91423490Y-78588753D01*
X91423485Y-78588752D01*
X91309642Y-78570722D01*
X91300001Y-78569195D01*
X91290360Y-78570722D01*
X91176516Y-78588752D01*
X91176509Y-78588753D01*
X91166875Y-78590280D01*
X91158179Y-78594710D01*
X91158178Y-78594711D01*
X91055476Y-78647040D01*
X91055472Y-78647042D01*
X91046781Y-78651471D01*
X91039882Y-78658369D01*
X91039879Y-78658372D01*
X90987682Y-78710570D01*
X90932095Y-78742664D01*
X90867907Y-78742664D01*
X90812320Y-78710570D01*
X90760122Y-78658372D01*
X90753221Y-78651471D01*
X90633127Y-78590280D01*
X90623490Y-78588753D01*
X90623485Y-78588752D01*
X90509642Y-78570722D01*
X90500001Y-78569195D01*
X90490360Y-78570722D01*
X90376516Y-78588752D01*
X90376509Y-78588753D01*
X90366875Y-78590280D01*
X90358179Y-78594710D01*
X90358178Y-78594711D01*
X90255476Y-78647040D01*
X90255472Y-78647042D01*
X90246781Y-78651471D01*
X90239882Y-78658369D01*
X90239879Y-78658372D01*
X90158374Y-78739877D01*
X90158371Y-78739880D01*
X90151473Y-78746779D01*
X90147044Y-78755470D01*
X90147042Y-78755474D01*
X90127453Y-78793920D01*
X90090282Y-78866873D01*
X90088755Y-78876507D01*
X90088754Y-78876514D01*
X90074634Y-78965671D01*
X90069197Y-78999999D01*
X84730805Y-78999999D01*
X84709720Y-78866873D01*
X84648529Y-78746779D01*
X84553221Y-78651471D01*
X84433127Y-78590280D01*
X84423490Y-78588753D01*
X84423485Y-78588752D01*
X84309642Y-78570722D01*
X84300001Y-78569195D01*
X84290360Y-78570722D01*
X84176516Y-78588752D01*
X84176509Y-78588753D01*
X84166875Y-78590280D01*
X84158179Y-78594710D01*
X84158178Y-78594711D01*
X84055476Y-78647040D01*
X84055472Y-78647042D01*
X84046781Y-78651471D01*
X84039882Y-78658369D01*
X84039879Y-78658372D01*
X83987682Y-78710570D01*
X83932095Y-78742664D01*
X83867907Y-78742664D01*
X83812320Y-78710570D01*
X83760122Y-78658372D01*
X83753221Y-78651471D01*
X83633127Y-78590280D01*
X83623490Y-78588753D01*
X83623485Y-78588752D01*
X83509642Y-78570722D01*
X83500001Y-78569195D01*
X83490360Y-78570722D01*
X83376516Y-78588752D01*
X83376509Y-78588753D01*
X83366875Y-78590280D01*
X83358179Y-78594710D01*
X83358178Y-78594711D01*
X83255476Y-78647040D01*
X83255472Y-78647042D01*
X83246781Y-78651471D01*
X83239882Y-78658369D01*
X83239879Y-78658372D01*
X83158374Y-78739877D01*
X83158371Y-78739880D01*
X83151473Y-78746779D01*
X83147044Y-78755470D01*
X83147042Y-78755474D01*
X83127453Y-78793920D01*
X83090282Y-78866873D01*
X83088755Y-78876507D01*
X83088754Y-78876514D01*
X83074634Y-78965671D01*
X83069197Y-78999999D01*
X81790900Y-78999999D01*
X81807300Y-78945934D01*
X81827583Y-78740000D01*
X81807300Y-78534066D01*
X81747232Y-78336046D01*
X81649685Y-78153550D01*
X81518410Y-77993590D01*
X81358450Y-77862315D01*
X81324872Y-77844367D01*
X81181328Y-77767640D01*
X81181323Y-77767638D01*
X81175954Y-77764768D01*
X81124534Y-77749170D01*
X80983764Y-77706468D01*
X80983759Y-77706467D01*
X80977934Y-77704700D01*
X80971875Y-77704103D01*
X80971869Y-77704102D01*
X80778061Y-77685014D01*
X80772000Y-77684417D01*
X80765939Y-77685014D01*
X80572130Y-77704102D01*
X80572122Y-77704103D01*
X80566066Y-77704700D01*
X80560242Y-77706466D01*
X80560235Y-77706468D01*
X80373877Y-77762999D01*
X80373875Y-77762999D01*
X80368046Y-77764768D01*
X80362679Y-77767636D01*
X80362671Y-77767640D01*
X80190920Y-77859444D01*
X80190915Y-77859447D01*
X80185550Y-77862315D01*
X80180846Y-77866174D01*
X80180842Y-77866178D01*
X80030296Y-77989727D01*
X80030290Y-77989732D01*
X80025590Y-77993590D01*
X80021732Y-77998290D01*
X80021727Y-77998296D01*
X79898178Y-78148842D01*
X79898174Y-78148846D01*
X79894315Y-78153550D01*
X79891447Y-78158915D01*
X79891444Y-78158920D01*
X79799640Y-78330671D01*
X79799636Y-78330679D01*
X79796768Y-78336046D01*
X79794999Y-78341875D01*
X79794999Y-78341877D01*
X79738468Y-78528235D01*
X79738466Y-78528242D01*
X79736700Y-78534066D01*
X79736103Y-78540122D01*
X79736102Y-78540130D01*
X79719316Y-78710570D01*
X79716417Y-78740000D01*
X79287583Y-78740000D01*
X79267300Y-78534066D01*
X79207232Y-78336046D01*
X79109685Y-78153550D01*
X78978410Y-77993590D01*
X78818450Y-77862315D01*
X78784872Y-77844367D01*
X78641328Y-77767640D01*
X78641323Y-77767638D01*
X78635954Y-77764768D01*
X78584534Y-77749170D01*
X78569449Y-77744594D01*
X78515498Y-77711289D01*
X78485062Y-77655669D01*
X78486100Y-77592274D01*
X78518339Y-77537679D01*
X78573351Y-77506158D01*
X78690261Y-77474832D01*
X78700397Y-77471143D01*
X78904671Y-77375888D01*
X78914016Y-77370492D01*
X78982248Y-77322715D01*
X78989681Y-77314603D01*
X78983768Y-77305321D01*
X77966128Y-76287681D01*
X77934034Y-76232094D01*
X77934034Y-76200000D01*
X78590431Y-76200000D01*
X78597095Y-76211542D01*
X79337321Y-76951768D01*
X79346603Y-76957681D01*
X79354715Y-76950248D01*
X79402492Y-76882016D01*
X79407888Y-76872671D01*
X79503143Y-76668397D01*
X79506832Y-76658261D01*
X79538158Y-76541351D01*
X79569679Y-76486339D01*
X79624274Y-76454100D01*
X79687669Y-76453062D01*
X79743289Y-76483498D01*
X79776594Y-76537449D01*
X79796768Y-76603954D01*
X79799638Y-76609323D01*
X79799640Y-76609328D01*
X79847762Y-76699357D01*
X79894315Y-76786450D01*
X80025590Y-76946410D01*
X80185550Y-77077685D01*
X80368046Y-77175232D01*
X80566066Y-77235300D01*
X80772000Y-77255583D01*
X80977934Y-77235300D01*
X81175954Y-77175232D01*
X81358450Y-77077685D01*
X81518410Y-76946410D01*
X81649685Y-76786450D01*
X81747232Y-76603954D01*
X81807300Y-76405934D01*
X81827583Y-76200000D01*
X81807300Y-75994066D01*
X81747232Y-75796046D01*
X81649685Y-75613550D01*
X81518410Y-75453590D01*
X81358450Y-75322315D01*
X81353079Y-75319444D01*
X81181328Y-75227640D01*
X81181323Y-75227638D01*
X81175954Y-75224768D01*
X81139356Y-75213666D01*
X80983764Y-75166468D01*
X80983759Y-75166467D01*
X80977934Y-75164700D01*
X80971875Y-75164103D01*
X80971869Y-75164102D01*
X80778061Y-75145014D01*
X80772000Y-75144417D01*
X80765939Y-75145014D01*
X80572130Y-75164102D01*
X80572122Y-75164103D01*
X80566066Y-75164700D01*
X80560242Y-75166466D01*
X80560235Y-75166468D01*
X80373877Y-75222999D01*
X80373875Y-75222999D01*
X80368046Y-75224768D01*
X80362679Y-75227636D01*
X80362671Y-75227640D01*
X80190920Y-75319444D01*
X80190915Y-75319447D01*
X80185550Y-75322315D01*
X80180846Y-75326174D01*
X80180842Y-75326178D01*
X80030296Y-75449727D01*
X80030290Y-75449732D01*
X80025590Y-75453590D01*
X80021732Y-75458290D01*
X80021727Y-75458296D01*
X79898178Y-75608842D01*
X79898174Y-75608846D01*
X79894315Y-75613550D01*
X79891447Y-75618915D01*
X79891444Y-75618920D01*
X79799640Y-75790671D01*
X79799636Y-75790679D01*
X79796768Y-75796046D01*
X79795001Y-75801870D01*
X79794996Y-75801883D01*
X79776593Y-75862551D01*
X79743289Y-75916502D01*
X79687668Y-75946937D01*
X79624274Y-75945899D01*
X79569680Y-75913660D01*
X79538158Y-75858648D01*
X79506832Y-75741738D01*
X79503143Y-75731602D01*
X79407889Y-75527332D01*
X79402491Y-75517982D01*
X79354714Y-75449749D01*
X79346603Y-75442316D01*
X79337324Y-75448227D01*
X78597095Y-76188457D01*
X78590431Y-76200000D01*
X77934034Y-76200000D01*
X77934034Y-76167906D01*
X77966128Y-76112319D01*
X78232000Y-75846447D01*
X78983771Y-75094674D01*
X78989682Y-75085395D01*
X78982249Y-75077284D01*
X78914018Y-75029508D01*
X78904668Y-75024110D01*
X78700397Y-74928856D01*
X78690263Y-74925168D01*
X78573350Y-74893841D01*
X78518338Y-74862319D01*
X78486099Y-74807724D01*
X78485062Y-74744329D01*
X78515499Y-74688709D01*
X78569448Y-74655406D01*
X78635954Y-74635232D01*
X78818450Y-74537685D01*
X78978410Y-74406410D01*
X79109685Y-74246450D01*
X79207232Y-74063954D01*
X79267300Y-73865934D01*
X79287583Y-73660000D01*
X79716417Y-73660000D01*
X79717014Y-73666061D01*
X79736102Y-73859869D01*
X79736103Y-73859875D01*
X79736700Y-73865934D01*
X79796768Y-74063954D01*
X79894315Y-74246450D01*
X79898178Y-74251157D01*
X79992440Y-74366017D01*
X80025590Y-74406410D01*
X80185550Y-74537685D01*
X80368046Y-74635232D01*
X80566066Y-74695300D01*
X80772000Y-74715583D01*
X80977934Y-74695300D01*
X81175954Y-74635232D01*
X81358450Y-74537685D01*
X81518410Y-74406410D01*
X81649685Y-74246450D01*
X81747232Y-74063954D01*
X81807300Y-73865934D01*
X81827583Y-73660000D01*
X81807300Y-73454066D01*
X81747232Y-73256046D01*
X81649685Y-73073550D01*
X81518410Y-72913590D01*
X81404370Y-72820000D01*
X86669479Y-72820000D01*
X86671363Y-72830682D01*
X86671363Y-72830685D01*
X86687527Y-72922360D01*
X86687528Y-72922364D01*
X86689412Y-72933045D01*
X86694835Y-72942439D01*
X86694836Y-72942440D01*
X86741379Y-73023056D01*
X86741380Y-73023057D01*
X86746806Y-73032455D01*
X86834739Y-73106240D01*
X86860181Y-73115500D01*
X86932412Y-73141790D01*
X86932413Y-73141790D01*
X86942606Y-73145500D01*
X87046547Y-73145500D01*
X87057394Y-73145500D01*
X87164745Y-73106427D01*
X87228684Y-73100834D01*
X87286857Y-73127960D01*
X87323674Y-73180539D01*
X87329268Y-73244482D01*
X87319479Y-73300000D01*
X87321363Y-73310685D01*
X87337527Y-73402360D01*
X87337528Y-73402364D01*
X87339412Y-73413045D01*
X87344835Y-73422439D01*
X87344836Y-73422440D01*
X87391379Y-73503056D01*
X87391380Y-73503057D01*
X87396806Y-73512455D01*
X87484739Y-73586240D01*
X87538672Y-73605870D01*
X87582412Y-73621790D01*
X87582413Y-73621790D01*
X87592606Y-73625500D01*
X87696547Y-73625500D01*
X87707394Y-73625500D01*
X87815261Y-73586240D01*
X87903194Y-73512455D01*
X87960588Y-73413045D01*
X87980521Y-73300000D01*
X87964863Y-73211205D01*
X87972420Y-73142217D01*
X88015862Y-73088094D01*
X88081581Y-73065791D01*
X88133882Y-73078593D01*
X88134739Y-73076240D01*
X88232412Y-73111790D01*
X88232413Y-73111790D01*
X88242606Y-73115500D01*
X88346547Y-73115500D01*
X88357394Y-73115500D01*
X88465261Y-73076240D01*
X88473578Y-73069261D01*
X88479455Y-73065868D01*
X88537100Y-73049330D01*
X88595764Y-73061777D01*
X88641726Y-73100298D01*
X88664236Y-73155882D01*
X88660156Y-73195088D01*
X88663266Y-73195637D01*
X88644864Y-73300000D01*
X88646748Y-73310685D01*
X88661381Y-73393678D01*
X88661382Y-73393683D01*
X88663266Y-73404363D01*
X88716252Y-73496138D01*
X88797432Y-73564256D01*
X88897014Y-73600500D01*
X88992139Y-73600500D01*
X89002986Y-73600500D01*
X89102568Y-73564256D01*
X89183748Y-73496138D01*
X89236734Y-73404363D01*
X89255136Y-73300000D01*
X89236734Y-73195637D01*
X89183748Y-73103862D01*
X89175438Y-73096889D01*
X89110875Y-73042714D01*
X89110873Y-73042713D01*
X89102568Y-73035744D01*
X89070872Y-73024208D01*
X89013179Y-73003210D01*
X89002986Y-72999500D01*
X88897014Y-72999500D01*
X88886821Y-73003209D01*
X88886820Y-73003210D01*
X88807623Y-73032034D01*
X88807618Y-73032036D01*
X88797432Y-73035744D01*
X88790233Y-73041784D01*
X88733555Y-73058034D01*
X88674870Y-73045557D01*
X88628912Y-73006989D01*
X88606440Y-72951359D01*
X88611504Y-72903206D01*
X88610588Y-72903045D01*
X88628637Y-72800685D01*
X88630521Y-72790000D01*
X88610588Y-72676955D01*
X88553194Y-72577545D01*
X88465261Y-72503760D01*
X88455067Y-72500049D01*
X88455066Y-72500049D01*
X88367587Y-72468209D01*
X88367582Y-72468208D01*
X88357394Y-72464500D01*
X88242606Y-72464500D01*
X88232418Y-72468207D01*
X88232412Y-72468209D01*
X88144931Y-72500050D01*
X88144927Y-72500052D01*
X88134740Y-72503760D01*
X88126436Y-72510727D01*
X88126432Y-72510730D01*
X88055116Y-72570571D01*
X88055112Y-72570574D01*
X88046806Y-72577545D01*
X88041385Y-72586933D01*
X88041381Y-72586939D01*
X87994836Y-72667559D01*
X87994834Y-72667562D01*
X87989412Y-72676955D01*
X87987529Y-72687633D01*
X87987527Y-72687639D01*
X87971363Y-72779315D01*
X87969479Y-72790000D01*
X87971363Y-72800685D01*
X87971363Y-72800686D01*
X87985135Y-72878795D01*
X87977579Y-72947781D01*
X87934140Y-73001903D01*
X87868423Y-73024208D01*
X87816117Y-73011406D01*
X87815261Y-73013760D01*
X87717587Y-72978209D01*
X87717582Y-72978208D01*
X87707394Y-72974500D01*
X87592606Y-72974500D01*
X87582413Y-72978209D01*
X87582412Y-72978210D01*
X87485257Y-73013571D01*
X87421314Y-73019165D01*
X87363140Y-72992038D01*
X87326325Y-72939458D01*
X87320731Y-72875519D01*
X87330521Y-72820000D01*
X87310588Y-72706955D01*
X87253194Y-72607545D01*
X87165261Y-72533760D01*
X87155067Y-72530049D01*
X87155066Y-72530049D01*
X87067587Y-72498209D01*
X87067582Y-72498208D01*
X87057394Y-72494500D01*
X86942606Y-72494500D01*
X86932418Y-72498207D01*
X86932412Y-72498209D01*
X86844931Y-72530050D01*
X86844927Y-72530052D01*
X86834740Y-72533760D01*
X86826436Y-72540727D01*
X86826432Y-72540730D01*
X86755116Y-72600571D01*
X86755112Y-72600574D01*
X86746806Y-72607545D01*
X86741385Y-72616933D01*
X86741381Y-72616939D01*
X86694836Y-72697559D01*
X86694834Y-72697562D01*
X86689412Y-72706955D01*
X86687529Y-72717633D01*
X86687527Y-72717639D01*
X86671363Y-72809315D01*
X86669479Y-72820000D01*
X81404370Y-72820000D01*
X81358450Y-72782315D01*
X81353079Y-72779444D01*
X81181328Y-72687640D01*
X81181323Y-72687638D01*
X81175954Y-72684768D01*
X81119223Y-72667559D01*
X80983764Y-72626468D01*
X80983759Y-72626467D01*
X80977934Y-72624700D01*
X80971875Y-72624103D01*
X80971869Y-72624102D01*
X80778061Y-72605014D01*
X80772000Y-72604417D01*
X80765939Y-72605014D01*
X80572130Y-72624102D01*
X80572122Y-72624103D01*
X80566066Y-72624700D01*
X80560242Y-72626466D01*
X80560235Y-72626468D01*
X80373877Y-72682999D01*
X80373875Y-72682999D01*
X80368046Y-72684768D01*
X80362679Y-72687636D01*
X80362671Y-72687640D01*
X80190920Y-72779444D01*
X80190915Y-72779447D01*
X80185550Y-72782315D01*
X80180846Y-72786174D01*
X80180842Y-72786178D01*
X80030296Y-72909727D01*
X80030290Y-72909732D01*
X80025590Y-72913590D01*
X80021732Y-72918290D01*
X80021727Y-72918296D01*
X79898178Y-73068842D01*
X79898174Y-73068846D01*
X79894315Y-73073550D01*
X79891447Y-73078915D01*
X79891444Y-73078920D01*
X79799640Y-73250671D01*
X79799636Y-73250679D01*
X79796768Y-73256046D01*
X79794999Y-73261875D01*
X79794999Y-73261877D01*
X79738468Y-73448235D01*
X79738466Y-73448242D01*
X79736700Y-73454066D01*
X79736103Y-73460122D01*
X79736102Y-73460130D01*
X79723682Y-73586240D01*
X79716417Y-73660000D01*
X79287583Y-73660000D01*
X79267300Y-73454066D01*
X79207232Y-73256046D01*
X79109685Y-73073550D01*
X78978410Y-72913590D01*
X78818450Y-72782315D01*
X78813079Y-72779444D01*
X78641328Y-72687640D01*
X78641323Y-72687638D01*
X78635954Y-72684768D01*
X78579223Y-72667559D01*
X78443764Y-72626468D01*
X78443759Y-72626467D01*
X78437934Y-72624700D01*
X78431875Y-72624103D01*
X78431869Y-72624102D01*
X78238061Y-72605014D01*
X78232000Y-72604417D01*
X78225939Y-72605014D01*
X78032130Y-72624102D01*
X78032122Y-72624103D01*
X78026066Y-72624700D01*
X78020242Y-72626466D01*
X78020235Y-72626468D01*
X77833877Y-72682999D01*
X77833875Y-72682999D01*
X77828046Y-72684768D01*
X77822679Y-72687636D01*
X77822671Y-72687640D01*
X77650920Y-72779444D01*
X77650915Y-72779447D01*
X77645550Y-72782315D01*
X77640846Y-72786174D01*
X77640842Y-72786178D01*
X77490296Y-72909727D01*
X77490290Y-72909732D01*
X77485590Y-72913590D01*
X77481732Y-72918290D01*
X77481727Y-72918296D01*
X77435854Y-72974194D01*
X77387453Y-73010091D01*
X77327846Y-73018933D01*
X77271109Y-72998632D01*
X77230642Y-72953983D01*
X77216000Y-72895530D01*
X77216000Y-71884470D01*
X77230642Y-71826017D01*
X77271109Y-71781368D01*
X77327846Y-71761067D01*
X77387453Y-71769909D01*
X77435853Y-71805805D01*
X77485590Y-71866410D01*
X77645550Y-71997685D01*
X77828046Y-72095232D01*
X78026066Y-72155300D01*
X78232000Y-72175583D01*
X78437934Y-72155300D01*
X78635954Y-72095232D01*
X78818450Y-71997685D01*
X78978410Y-71866410D01*
X79109685Y-71706450D01*
X79207232Y-71523954D01*
X79267300Y-71325934D01*
X79287583Y-71120000D01*
X79716417Y-71120000D01*
X79717014Y-71126061D01*
X79736102Y-71319869D01*
X79736103Y-71319875D01*
X79736700Y-71325934D01*
X79796768Y-71523954D01*
X79894315Y-71706450D01*
X79898178Y-71711157D01*
X79992440Y-71826017D01*
X80025590Y-71866410D01*
X80185550Y-71997685D01*
X80368046Y-72095232D01*
X80566066Y-72155300D01*
X80772000Y-72175583D01*
X80977934Y-72155300D01*
X81175954Y-72095232D01*
X81358450Y-71997685D01*
X81518410Y-71866410D01*
X81649685Y-71706450D01*
X81747232Y-71523954D01*
X81807300Y-71325934D01*
X81827583Y-71120000D01*
X81807300Y-70914066D01*
X81747232Y-70716046D01*
X81649685Y-70533550D01*
X81518410Y-70373590D01*
X81358450Y-70242315D01*
X81353079Y-70239444D01*
X81181328Y-70147640D01*
X81181323Y-70147638D01*
X81175954Y-70144768D01*
X81139356Y-70133666D01*
X80983764Y-70086468D01*
X80983759Y-70086467D01*
X80977934Y-70084700D01*
X80971875Y-70084103D01*
X80971869Y-70084102D01*
X80778061Y-70065014D01*
X80772000Y-70064417D01*
X80765939Y-70065014D01*
X80572130Y-70084102D01*
X80572122Y-70084103D01*
X80566066Y-70084700D01*
X80560242Y-70086466D01*
X80560235Y-70086468D01*
X80373877Y-70142999D01*
X80373875Y-70142999D01*
X80368046Y-70144768D01*
X80362679Y-70147636D01*
X80362671Y-70147640D01*
X80190920Y-70239444D01*
X80190915Y-70239447D01*
X80185550Y-70242315D01*
X80180846Y-70246174D01*
X80180842Y-70246178D01*
X80030296Y-70369727D01*
X80030290Y-70369732D01*
X80025590Y-70373590D01*
X80021732Y-70378290D01*
X80021727Y-70378296D01*
X79898178Y-70528842D01*
X79898174Y-70528846D01*
X79894315Y-70533550D01*
X79891447Y-70538915D01*
X79891444Y-70538920D01*
X79799640Y-70710671D01*
X79799636Y-70710679D01*
X79796768Y-70716046D01*
X79794999Y-70721875D01*
X79794999Y-70721877D01*
X79738468Y-70908235D01*
X79738466Y-70908242D01*
X79736700Y-70914066D01*
X79736103Y-70920122D01*
X79736102Y-70920130D01*
X79733398Y-70947587D01*
X79716417Y-71120000D01*
X79287583Y-71120000D01*
X79267300Y-70914066D01*
X79207232Y-70716046D01*
X79109685Y-70533550D01*
X78978410Y-70373590D01*
X78818450Y-70242315D01*
X78813079Y-70239444D01*
X78641328Y-70147640D01*
X78641323Y-70147638D01*
X78635954Y-70144768D01*
X78599356Y-70133666D01*
X78443764Y-70086468D01*
X78443759Y-70086467D01*
X78437934Y-70084700D01*
X78431875Y-70084103D01*
X78431869Y-70084102D01*
X78238061Y-70065014D01*
X78232000Y-70064417D01*
X78225939Y-70065014D01*
X78032130Y-70084102D01*
X78032122Y-70084103D01*
X78026066Y-70084700D01*
X78020242Y-70086466D01*
X78020235Y-70086468D01*
X77833877Y-70142999D01*
X77833875Y-70142999D01*
X77828046Y-70144768D01*
X77822679Y-70147636D01*
X77822671Y-70147640D01*
X77650920Y-70239444D01*
X77650915Y-70239447D01*
X77645550Y-70242315D01*
X77640846Y-70246174D01*
X77640842Y-70246178D01*
X77490296Y-70369727D01*
X77490290Y-70369732D01*
X77485590Y-70373590D01*
X77481732Y-70378290D01*
X77481727Y-70378296D01*
X77435854Y-70434194D01*
X77387453Y-70470091D01*
X77327846Y-70478933D01*
X77271109Y-70458632D01*
X77230642Y-70413983D01*
X77216000Y-70355530D01*
X77216000Y-69344470D01*
X77230642Y-69286017D01*
X77271109Y-69241368D01*
X77327846Y-69221067D01*
X77387453Y-69229909D01*
X77435853Y-69265805D01*
X77485590Y-69326410D01*
X77645550Y-69457685D01*
X77828046Y-69555232D01*
X78026066Y-69615300D01*
X78232000Y-69635583D01*
X78437934Y-69615300D01*
X78635954Y-69555232D01*
X78818450Y-69457685D01*
X78978410Y-69326410D01*
X79109685Y-69166450D01*
X79207232Y-68983954D01*
X79267300Y-68785934D01*
X79287583Y-68580000D01*
X79716417Y-68580000D01*
X79717014Y-68586061D01*
X79736102Y-68779869D01*
X79736103Y-68779875D01*
X79736700Y-68785934D01*
X79738467Y-68791759D01*
X79738468Y-68791764D01*
X79768116Y-68889500D01*
X79796768Y-68983954D01*
X79799638Y-68989323D01*
X79799640Y-68989328D01*
X79829665Y-69045500D01*
X79894315Y-69166450D01*
X79898178Y-69171157D01*
X79992440Y-69286017D01*
X80025590Y-69326410D01*
X80185550Y-69457685D01*
X80368046Y-69555232D01*
X80566066Y-69615300D01*
X80772000Y-69635583D01*
X80977934Y-69615300D01*
X81175954Y-69555232D01*
X81358450Y-69457685D01*
X81518410Y-69326410D01*
X81649685Y-69166450D01*
X81747232Y-68983954D01*
X81807300Y-68785934D01*
X81827583Y-68580000D01*
X81807300Y-68374066D01*
X81747232Y-68176046D01*
X81649685Y-67993550D01*
X81518410Y-67833590D01*
X81499413Y-67818000D01*
X81363157Y-67706178D01*
X81358450Y-67702315D01*
X81324872Y-67684367D01*
X81181328Y-67607640D01*
X81181323Y-67607638D01*
X81175954Y-67604768D01*
X81139356Y-67593666D01*
X80983764Y-67546468D01*
X80983759Y-67546467D01*
X80977934Y-67544700D01*
X80971875Y-67544103D01*
X80971869Y-67544102D01*
X80778061Y-67525014D01*
X80772000Y-67524417D01*
X80765939Y-67525014D01*
X80572130Y-67544102D01*
X80572122Y-67544103D01*
X80566066Y-67544700D01*
X80560242Y-67546466D01*
X80560235Y-67546468D01*
X80373877Y-67602999D01*
X80373875Y-67602999D01*
X80368046Y-67604768D01*
X80362679Y-67607636D01*
X80362671Y-67607640D01*
X80190920Y-67699444D01*
X80190915Y-67699447D01*
X80185550Y-67702315D01*
X80180846Y-67706174D01*
X80180842Y-67706178D01*
X80030296Y-67829727D01*
X80030290Y-67829732D01*
X80025590Y-67833590D01*
X80021732Y-67838290D01*
X80021727Y-67838296D01*
X79898178Y-67988842D01*
X79898174Y-67988846D01*
X79894315Y-67993550D01*
X79891447Y-67998915D01*
X79891444Y-67998920D01*
X79799640Y-68170671D01*
X79799636Y-68170679D01*
X79796768Y-68176046D01*
X79794999Y-68181875D01*
X79794999Y-68181877D01*
X79738468Y-68368235D01*
X79738466Y-68368242D01*
X79736700Y-68374066D01*
X79736103Y-68380122D01*
X79736102Y-68380130D01*
X79717890Y-68565040D01*
X79716417Y-68580000D01*
X79287583Y-68580000D01*
X79267300Y-68374066D01*
X79207232Y-68176046D01*
X79109685Y-67993550D01*
X78978410Y-67833590D01*
X78959413Y-67818000D01*
X78823157Y-67706178D01*
X78818450Y-67702315D01*
X78784872Y-67684367D01*
X78641328Y-67607640D01*
X78641323Y-67607638D01*
X78635954Y-67604768D01*
X78607868Y-67596248D01*
X78569449Y-67584594D01*
X78515498Y-67551289D01*
X78485062Y-67495669D01*
X78486100Y-67432274D01*
X78518339Y-67377679D01*
X78573351Y-67346158D01*
X78690261Y-67314832D01*
X78700397Y-67311143D01*
X78904671Y-67215888D01*
X78914016Y-67210492D01*
X78982248Y-67162715D01*
X78989681Y-67154603D01*
X78983768Y-67145321D01*
X77966128Y-66127681D01*
X77934034Y-66072094D01*
X77934034Y-66040000D01*
X78590431Y-66040000D01*
X78597095Y-66051542D01*
X79337321Y-66791768D01*
X79346603Y-66797681D01*
X79354715Y-66790248D01*
X79402492Y-66722016D01*
X79407888Y-66712671D01*
X79503143Y-66508397D01*
X79506832Y-66498261D01*
X79538158Y-66381351D01*
X79569679Y-66326339D01*
X79624274Y-66294100D01*
X79687669Y-66293062D01*
X79743289Y-66323498D01*
X79776594Y-66377449D01*
X79796768Y-66443954D01*
X79799638Y-66449323D01*
X79799640Y-66449328D01*
X79882048Y-66603500D01*
X79894315Y-66626450D01*
X80025590Y-66786410D01*
X80185550Y-66917685D01*
X80368046Y-67015232D01*
X80566066Y-67075300D01*
X80772000Y-67095583D01*
X80977934Y-67075300D01*
X81175954Y-67015232D01*
X81358450Y-66917685D01*
X81518410Y-66786410D01*
X81649685Y-66626450D01*
X81747232Y-66443954D01*
X81807300Y-66245934D01*
X81827583Y-66040000D01*
X81807300Y-65834066D01*
X81747232Y-65636046D01*
X81649685Y-65453550D01*
X81518410Y-65293590D01*
X81358450Y-65162315D01*
X81353079Y-65159444D01*
X81181328Y-65067640D01*
X81181323Y-65067638D01*
X81175954Y-65064768D01*
X81139356Y-65053666D01*
X80983764Y-65006468D01*
X80983759Y-65006467D01*
X80977934Y-65004700D01*
X80971875Y-65004103D01*
X80971869Y-65004102D01*
X80778061Y-64985014D01*
X80772000Y-64984417D01*
X80765939Y-64985014D01*
X80572130Y-65004102D01*
X80572122Y-65004103D01*
X80566066Y-65004700D01*
X80560242Y-65006466D01*
X80560235Y-65006468D01*
X80373877Y-65062999D01*
X80373875Y-65062999D01*
X80368046Y-65064768D01*
X80362679Y-65067636D01*
X80362671Y-65067640D01*
X80190920Y-65159444D01*
X80190915Y-65159447D01*
X80185550Y-65162315D01*
X80180846Y-65166174D01*
X80180842Y-65166178D01*
X80030296Y-65289727D01*
X80030290Y-65289732D01*
X80025590Y-65293590D01*
X80021732Y-65298290D01*
X80021727Y-65298296D01*
X79898178Y-65448842D01*
X79898174Y-65448846D01*
X79894315Y-65453550D01*
X79891447Y-65458915D01*
X79891444Y-65458920D01*
X79799640Y-65630671D01*
X79799636Y-65630679D01*
X79796768Y-65636046D01*
X79795001Y-65641870D01*
X79794996Y-65641883D01*
X79776593Y-65702551D01*
X79743289Y-65756502D01*
X79687668Y-65786937D01*
X79624274Y-65785899D01*
X79569680Y-65753660D01*
X79538158Y-65698648D01*
X79506832Y-65581738D01*
X79503143Y-65571602D01*
X79407889Y-65367332D01*
X79402491Y-65357982D01*
X79354714Y-65289749D01*
X79346603Y-65282316D01*
X79337324Y-65288227D01*
X78597095Y-66028457D01*
X78590431Y-66040000D01*
X77934034Y-66040000D01*
X77934034Y-66007906D01*
X77966128Y-65952319D01*
X78232000Y-65686447D01*
X78983771Y-64934674D01*
X78989682Y-64925395D01*
X78982249Y-64917284D01*
X78914018Y-64869508D01*
X78904668Y-64864110D01*
X78700397Y-64768856D01*
X78690263Y-64765168D01*
X78573350Y-64733841D01*
X78518338Y-64702319D01*
X78486099Y-64647724D01*
X78485062Y-64584329D01*
X78515499Y-64528709D01*
X78569448Y-64495406D01*
X78635954Y-64475232D01*
X78818450Y-64377685D01*
X78978410Y-64246410D01*
X79109685Y-64086450D01*
X79207232Y-63903954D01*
X79267300Y-63705934D01*
X79287583Y-63500000D01*
X79716417Y-63500000D01*
X79717014Y-63506061D01*
X79736102Y-63699869D01*
X79736103Y-63699875D01*
X79736700Y-63705934D01*
X79738467Y-63711759D01*
X79738468Y-63711764D01*
X79751280Y-63754000D01*
X79796768Y-63903954D01*
X79799638Y-63909323D01*
X79799640Y-63909328D01*
X79855191Y-64013255D01*
X79894315Y-64086450D01*
X79906999Y-64101905D01*
X79992440Y-64206017D01*
X80025590Y-64246410D01*
X80185550Y-64377685D01*
X80368046Y-64475232D01*
X80566066Y-64535300D01*
X80772000Y-64555583D01*
X80977934Y-64535300D01*
X81175954Y-64475232D01*
X81358450Y-64377685D01*
X81518410Y-64246410D01*
X81649685Y-64086450D01*
X81747232Y-63903954D01*
X81807300Y-63705934D01*
X81827583Y-63500000D01*
X81807300Y-63294066D01*
X81747232Y-63096046D01*
X81649685Y-62913550D01*
X81518410Y-62753590D01*
X81505157Y-62742714D01*
X81363157Y-62626178D01*
X81358450Y-62622315D01*
X81289848Y-62585646D01*
X81181328Y-62527640D01*
X81181323Y-62527638D01*
X81175954Y-62524768D01*
X81112640Y-62505562D01*
X80983764Y-62466468D01*
X80983759Y-62466467D01*
X80977934Y-62464700D01*
X80971875Y-62464103D01*
X80971869Y-62464102D01*
X80778061Y-62445014D01*
X80772000Y-62444417D01*
X80765939Y-62445014D01*
X80572130Y-62464102D01*
X80572122Y-62464103D01*
X80566066Y-62464700D01*
X80560242Y-62466466D01*
X80560235Y-62466468D01*
X80373877Y-62522999D01*
X80373875Y-62522999D01*
X80368046Y-62524768D01*
X80362679Y-62527636D01*
X80362671Y-62527640D01*
X80190920Y-62619444D01*
X80190915Y-62619447D01*
X80185550Y-62622315D01*
X80180846Y-62626174D01*
X80180842Y-62626178D01*
X80030296Y-62749727D01*
X80030290Y-62749732D01*
X80025590Y-62753590D01*
X80021732Y-62758290D01*
X80021727Y-62758296D01*
X79898178Y-62908842D01*
X79898174Y-62908846D01*
X79894315Y-62913550D01*
X79891447Y-62918915D01*
X79891444Y-62918920D01*
X79799640Y-63090671D01*
X79799636Y-63090679D01*
X79796768Y-63096046D01*
X79794999Y-63101875D01*
X79794999Y-63101877D01*
X79738468Y-63288235D01*
X79738466Y-63288242D01*
X79736700Y-63294066D01*
X79736103Y-63300122D01*
X79736102Y-63300130D01*
X79730531Y-63356699D01*
X79716417Y-63500000D01*
X79287583Y-63500000D01*
X79267300Y-63294066D01*
X79207232Y-63096046D01*
X79109685Y-62913550D01*
X78978410Y-62753590D01*
X78965157Y-62742714D01*
X78823157Y-62626178D01*
X78818450Y-62622315D01*
X78749848Y-62585646D01*
X78641328Y-62527640D01*
X78641323Y-62527638D01*
X78635954Y-62524768D01*
X78572640Y-62505562D01*
X78443764Y-62466468D01*
X78443759Y-62466467D01*
X78437934Y-62464700D01*
X78431875Y-62464103D01*
X78431869Y-62464102D01*
X78238061Y-62445014D01*
X78232000Y-62444417D01*
X78225939Y-62445014D01*
X78032130Y-62464102D01*
X78032122Y-62464103D01*
X78026066Y-62464700D01*
X78020242Y-62466466D01*
X78020235Y-62466468D01*
X77833877Y-62522999D01*
X77833875Y-62522999D01*
X77828046Y-62524768D01*
X77822679Y-62527636D01*
X77822671Y-62527640D01*
X77650920Y-62619444D01*
X77650915Y-62619447D01*
X77645550Y-62622315D01*
X77640846Y-62626174D01*
X77640842Y-62626178D01*
X77490296Y-62749727D01*
X77490290Y-62749732D01*
X77485590Y-62753590D01*
X77481732Y-62758290D01*
X77481727Y-62758296D01*
X77435854Y-62814194D01*
X77387453Y-62850091D01*
X77327846Y-62858933D01*
X77271109Y-62838632D01*
X77230642Y-62793983D01*
X77216000Y-62735530D01*
X77216000Y-62200000D01*
X82569479Y-62200000D01*
X82571363Y-62210685D01*
X82587527Y-62302360D01*
X82587528Y-62302364D01*
X82589412Y-62313045D01*
X82594835Y-62322439D01*
X82594836Y-62322440D01*
X82641379Y-62403056D01*
X82641380Y-62403057D01*
X82646806Y-62412455D01*
X82734739Y-62486240D01*
X82781952Y-62503424D01*
X82832412Y-62521790D01*
X82832413Y-62521790D01*
X82842606Y-62525500D01*
X82946547Y-62525500D01*
X82957394Y-62525500D01*
X83065261Y-62486240D01*
X83153194Y-62412455D01*
X83210588Y-62313045D01*
X83230521Y-62200000D01*
X83227250Y-62181450D01*
X83212472Y-62097639D01*
X83212471Y-62097638D01*
X83210588Y-62086955D01*
X83153194Y-61987545D01*
X83065261Y-61913760D01*
X83055067Y-61910049D01*
X83055066Y-61910049D01*
X82967587Y-61878209D01*
X82967582Y-61878208D01*
X82957394Y-61874500D01*
X82842606Y-61874500D01*
X82832418Y-61878207D01*
X82832412Y-61878209D01*
X82744931Y-61910050D01*
X82744927Y-61910052D01*
X82734740Y-61913760D01*
X82726436Y-61920727D01*
X82726432Y-61920730D01*
X82655116Y-61980571D01*
X82655112Y-61980574D01*
X82646806Y-61987545D01*
X82641385Y-61996933D01*
X82641381Y-61996939D01*
X82594836Y-62077559D01*
X82594834Y-62077562D01*
X82589412Y-62086955D01*
X82587529Y-62097633D01*
X82587527Y-62097639D01*
X82572750Y-62181450D01*
X82569479Y-62200000D01*
X77216000Y-62200000D01*
X77216000Y-61724470D01*
X77230642Y-61666017D01*
X77271109Y-61621368D01*
X77327846Y-61601067D01*
X77387453Y-61609909D01*
X77435853Y-61645805D01*
X77485590Y-61706410D01*
X77645550Y-61837685D01*
X77828046Y-61935232D01*
X78026066Y-61995300D01*
X78232000Y-62015583D01*
X78437934Y-61995300D01*
X78635954Y-61935232D01*
X78818450Y-61837685D01*
X78978410Y-61706410D01*
X79109685Y-61546450D01*
X79207232Y-61363954D01*
X79267300Y-61165934D01*
X79287583Y-60960000D01*
X79716417Y-60960000D01*
X79717014Y-60966061D01*
X79736102Y-61159869D01*
X79736103Y-61159875D01*
X79736700Y-61165934D01*
X79738467Y-61171759D01*
X79738468Y-61171764D01*
X79766525Y-61264256D01*
X79796768Y-61363954D01*
X79799638Y-61369323D01*
X79799640Y-61369328D01*
X79821746Y-61410685D01*
X79894315Y-61546450D01*
X79898178Y-61551157D01*
X79992440Y-61666017D01*
X80025590Y-61706410D01*
X80185550Y-61837685D01*
X80368046Y-61935232D01*
X80566066Y-61995300D01*
X80772000Y-62015583D01*
X80977934Y-61995300D01*
X81175954Y-61935232D01*
X81358450Y-61837685D01*
X81518410Y-61706410D01*
X81649685Y-61546450D01*
X81747232Y-61363954D01*
X81807300Y-61165934D01*
X81827583Y-60960000D01*
X81807300Y-60754066D01*
X81747232Y-60556046D01*
X81649685Y-60373550D01*
X81518410Y-60213590D01*
X81358450Y-60082315D01*
X81340778Y-60072869D01*
X81181328Y-59987640D01*
X81181323Y-59987638D01*
X81175954Y-59984768D01*
X81130501Y-59970980D01*
X80983764Y-59926468D01*
X80983759Y-59926467D01*
X80977934Y-59924700D01*
X80971875Y-59924103D01*
X80971869Y-59924102D01*
X80778061Y-59905014D01*
X80772000Y-59904417D01*
X80765939Y-59905014D01*
X80572130Y-59924102D01*
X80572122Y-59924103D01*
X80566066Y-59924700D01*
X80560242Y-59926466D01*
X80560235Y-59926468D01*
X80373877Y-59982999D01*
X80373875Y-59982999D01*
X80368046Y-59984768D01*
X80362679Y-59987636D01*
X80362671Y-59987640D01*
X80190920Y-60079444D01*
X80190915Y-60079447D01*
X80185550Y-60082315D01*
X80180846Y-60086174D01*
X80180842Y-60086178D01*
X80030296Y-60209727D01*
X80030290Y-60209732D01*
X80025590Y-60213590D01*
X80021732Y-60218290D01*
X80021727Y-60218296D01*
X79898178Y-60368842D01*
X79898174Y-60368846D01*
X79894315Y-60373550D01*
X79891447Y-60378915D01*
X79891444Y-60378920D01*
X79799640Y-60550671D01*
X79799636Y-60550679D01*
X79796768Y-60556046D01*
X79794999Y-60561875D01*
X79794999Y-60561877D01*
X79738468Y-60748235D01*
X79738466Y-60748242D01*
X79736700Y-60754066D01*
X79736103Y-60760122D01*
X79736102Y-60760130D01*
X79722756Y-60895637D01*
X79716417Y-60960000D01*
X79287583Y-60960000D01*
X79267300Y-60754066D01*
X79207232Y-60556046D01*
X79109685Y-60373550D01*
X78978410Y-60213590D01*
X78818450Y-60082315D01*
X78800778Y-60072869D01*
X78641328Y-59987640D01*
X78641323Y-59987638D01*
X78635954Y-59984768D01*
X78590501Y-59970980D01*
X78569449Y-59964594D01*
X78515498Y-59931289D01*
X78485062Y-59875669D01*
X78486100Y-59812274D01*
X78518339Y-59757679D01*
X78573351Y-59726158D01*
X78690261Y-59694832D01*
X78700397Y-59691143D01*
X78904671Y-59595888D01*
X78914016Y-59590492D01*
X78982248Y-59542715D01*
X78989681Y-59534603D01*
X78983768Y-59525321D01*
X77966128Y-58507681D01*
X77934034Y-58452094D01*
X77934034Y-58420000D01*
X78590431Y-58420000D01*
X78597095Y-58431542D01*
X79337321Y-59171768D01*
X79346603Y-59177681D01*
X79354715Y-59170248D01*
X79402492Y-59102016D01*
X79407888Y-59092671D01*
X79503143Y-58888397D01*
X79506832Y-58878261D01*
X79538158Y-58761351D01*
X79569679Y-58706339D01*
X79624274Y-58674100D01*
X79687669Y-58673062D01*
X79743289Y-58703498D01*
X79776594Y-58757449D01*
X79782331Y-58776360D01*
X79796768Y-58823954D01*
X79799638Y-58829323D01*
X79799640Y-58829328D01*
X79889582Y-58997595D01*
X79894315Y-59006450D01*
X80025590Y-59166410D01*
X80185550Y-59297685D01*
X80368046Y-59395232D01*
X80566066Y-59455300D01*
X80772000Y-59475583D01*
X80977934Y-59455300D01*
X81175954Y-59395232D01*
X81358450Y-59297685D01*
X81518410Y-59166410D01*
X81649685Y-59006450D01*
X81653133Y-59000000D01*
X88869479Y-59000000D01*
X88871363Y-59010685D01*
X88887527Y-59102360D01*
X88887528Y-59102364D01*
X88889412Y-59113045D01*
X88894835Y-59122439D01*
X88894836Y-59122440D01*
X88941379Y-59203056D01*
X88941380Y-59203057D01*
X88946806Y-59212455D01*
X89034739Y-59286240D01*
X89074070Y-59300555D01*
X89132412Y-59321790D01*
X89132413Y-59321790D01*
X89142606Y-59325500D01*
X89246547Y-59325500D01*
X89257394Y-59325500D01*
X89365261Y-59286240D01*
X89453194Y-59212455D01*
X89507047Y-59119177D01*
X89552432Y-59073792D01*
X89614433Y-59057179D01*
X89676433Y-59073792D01*
X89721820Y-59119179D01*
X89749088Y-59166410D01*
X89766252Y-59196138D01*
X89847432Y-59264256D01*
X89900246Y-59283478D01*
X89949983Y-59317025D01*
X89978151Y-59369999D01*
X89978152Y-59429995D01*
X89949986Y-59482970D01*
X89900247Y-59516520D01*
X89857626Y-59532033D01*
X89857622Y-59532035D01*
X89847432Y-59535744D01*
X89839128Y-59542711D01*
X89839124Y-59542714D01*
X89774561Y-59596889D01*
X89774558Y-59596892D01*
X89766252Y-59603862D01*
X89760829Y-59613253D01*
X89760827Y-59613257D01*
X89718690Y-59686241D01*
X89718688Y-59686244D01*
X89713266Y-59695637D01*
X89711383Y-59706315D01*
X89711381Y-59706321D01*
X89705808Y-59737931D01*
X89694864Y-59800000D01*
X89696748Y-59810685D01*
X89711381Y-59893678D01*
X89711382Y-59893683D01*
X89713266Y-59904363D01*
X89718689Y-59913757D01*
X89718690Y-59913758D01*
X89759687Y-59984768D01*
X89766252Y-59996138D01*
X89847432Y-60064256D01*
X89947014Y-60100500D01*
X90042139Y-60100500D01*
X90052986Y-60100500D01*
X90054360Y-60100000D01*
X93394864Y-60100000D01*
X93396748Y-60110685D01*
X93411381Y-60193678D01*
X93411382Y-60193683D01*
X93413266Y-60204363D01*
X93418689Y-60213757D01*
X93418690Y-60213758D01*
X93460680Y-60286488D01*
X93466252Y-60296138D01*
X93547432Y-60364256D01*
X93647014Y-60400500D01*
X93742139Y-60400500D01*
X93752986Y-60400500D01*
X93852568Y-60364256D01*
X93933748Y-60296138D01*
X93986734Y-60204363D01*
X94005136Y-60100000D01*
X94002018Y-60082315D01*
X94000023Y-60071000D01*
X95304131Y-60071000D01*
X95305658Y-60080641D01*
X95319972Y-60171019D01*
X95319973Y-60171023D01*
X95321500Y-60180661D01*
X95329076Y-60195530D01*
X95367474Y-60270892D01*
X95367476Y-60270895D01*
X95371905Y-60279587D01*
X95450413Y-60358095D01*
X95459106Y-60362524D01*
X95459107Y-60362525D01*
X95469784Y-60367965D01*
X95549339Y-60408500D01*
X95659000Y-60425869D01*
X95768661Y-60408500D01*
X95867587Y-60358095D01*
X95946095Y-60279587D01*
X95996500Y-60180661D01*
X96013869Y-60071000D01*
X95996500Y-59961339D01*
X95946095Y-59862413D01*
X95867587Y-59783905D01*
X95858895Y-59779476D01*
X95858892Y-59779474D01*
X95777357Y-59737931D01*
X95777358Y-59737931D01*
X95768661Y-59733500D01*
X95759023Y-59731973D01*
X95759019Y-59731972D01*
X95668641Y-59717658D01*
X95659000Y-59716131D01*
X95649359Y-59717658D01*
X95558980Y-59731972D01*
X95558974Y-59731973D01*
X95549339Y-59733500D01*
X95540643Y-59737930D01*
X95540642Y-59737931D01*
X95459107Y-59779474D01*
X95459101Y-59779478D01*
X95450413Y-59783905D01*
X95443514Y-59790803D01*
X95443511Y-59790806D01*
X95378806Y-59855511D01*
X95378803Y-59855514D01*
X95371905Y-59862413D01*
X95367478Y-59871101D01*
X95367474Y-59871107D01*
X95325931Y-59952642D01*
X95321500Y-59961339D01*
X95319973Y-59970974D01*
X95319972Y-59970980D01*
X95312299Y-60019430D01*
X95304131Y-60071000D01*
X94000023Y-60071000D01*
X93988618Y-60006321D01*
X93988617Y-60006320D01*
X93986734Y-59995637D01*
X93933748Y-59903862D01*
X93921611Y-59893678D01*
X93863587Y-59844990D01*
X93830910Y-59802405D01*
X93819292Y-59750000D01*
X93830910Y-59697595D01*
X93863587Y-59655010D01*
X93919207Y-59608339D01*
X93933748Y-59596138D01*
X93986734Y-59504363D01*
X94005136Y-59400000D01*
X93996408Y-59350500D01*
X93988618Y-59306321D01*
X93988617Y-59306320D01*
X93986734Y-59295637D01*
X93977282Y-59279266D01*
X93939172Y-59213257D01*
X93933748Y-59203862D01*
X93913345Y-59186742D01*
X93863587Y-59144990D01*
X93830910Y-59102405D01*
X93819292Y-59050000D01*
X93830910Y-58997595D01*
X93863587Y-58955010D01*
X93897913Y-58926207D01*
X93933748Y-58896138D01*
X93986734Y-58804363D01*
X94005136Y-58700000D01*
X94000552Y-58674000D01*
X94919479Y-58674000D01*
X94921363Y-58684685D01*
X94937527Y-58776360D01*
X94937528Y-58776364D01*
X94939412Y-58787045D01*
X94944835Y-58796439D01*
X94944836Y-58796440D01*
X94991379Y-58877056D01*
X94991380Y-58877057D01*
X94996806Y-58886455D01*
X95084739Y-58960240D01*
X95138672Y-58979869D01*
X95182412Y-58995790D01*
X95182413Y-58995790D01*
X95192606Y-58999500D01*
X95296547Y-58999500D01*
X95307394Y-58999500D01*
X95415261Y-58960240D01*
X95503194Y-58886455D01*
X95560588Y-58787045D01*
X95575320Y-58703498D01*
X95578637Y-58684685D01*
X95580521Y-58674000D01*
X95566774Y-58596035D01*
X95562472Y-58571639D01*
X95562471Y-58571638D01*
X95560588Y-58560955D01*
X95503194Y-58461545D01*
X95415261Y-58387760D01*
X95405067Y-58384049D01*
X95405066Y-58384049D01*
X95317587Y-58352209D01*
X95317582Y-58352208D01*
X95307394Y-58348500D01*
X95192606Y-58348500D01*
X95182418Y-58352207D01*
X95182412Y-58352209D01*
X95094931Y-58384050D01*
X95094927Y-58384052D01*
X95084740Y-58387760D01*
X95076436Y-58394727D01*
X95076432Y-58394730D01*
X95005116Y-58454571D01*
X95005112Y-58454574D01*
X94996806Y-58461545D01*
X94991385Y-58470933D01*
X94991381Y-58470939D01*
X94944836Y-58551559D01*
X94944834Y-58551562D01*
X94939412Y-58560955D01*
X94937529Y-58571633D01*
X94937527Y-58571639D01*
X94926926Y-58631764D01*
X94919479Y-58674000D01*
X94000552Y-58674000D01*
X93999409Y-58667519D01*
X93988618Y-58606321D01*
X93988617Y-58606320D01*
X93986734Y-58595637D01*
X93933748Y-58503862D01*
X93909455Y-58483478D01*
X93860875Y-58442714D01*
X93860873Y-58442713D01*
X93852568Y-58435744D01*
X93752986Y-58399500D01*
X93647014Y-58399500D01*
X93636821Y-58403209D01*
X93636820Y-58403210D01*
X93557624Y-58432034D01*
X93557621Y-58432035D01*
X93547432Y-58435744D01*
X93539128Y-58442711D01*
X93539124Y-58442714D01*
X93474561Y-58496889D01*
X93474558Y-58496892D01*
X93466252Y-58503862D01*
X93460829Y-58513253D01*
X93460827Y-58513257D01*
X93418690Y-58586241D01*
X93418688Y-58586244D01*
X93413266Y-58595637D01*
X93411383Y-58606315D01*
X93411381Y-58606321D01*
X93400591Y-58667519D01*
X93394864Y-58700000D01*
X93396748Y-58710685D01*
X93411381Y-58793678D01*
X93411382Y-58793683D01*
X93413266Y-58804363D01*
X93418689Y-58813757D01*
X93418690Y-58813758D01*
X93460661Y-58886455D01*
X93466252Y-58896138D01*
X93474561Y-58903110D01*
X93536413Y-58955010D01*
X93569089Y-58997595D01*
X93580707Y-59050000D01*
X93569089Y-59102405D01*
X93536413Y-59144990D01*
X93474561Y-59196889D01*
X93474558Y-59196892D01*
X93466252Y-59203862D01*
X93460829Y-59213253D01*
X93460827Y-59213257D01*
X93420287Y-59283476D01*
X93413266Y-59295637D01*
X93411383Y-59306315D01*
X93411381Y-59306321D01*
X93403592Y-59350500D01*
X93394864Y-59400000D01*
X93396748Y-59410685D01*
X93411381Y-59493678D01*
X93411382Y-59493683D01*
X93413266Y-59504363D01*
X93466252Y-59596138D01*
X93474561Y-59603110D01*
X93536413Y-59655010D01*
X93569089Y-59697595D01*
X93580707Y-59750000D01*
X93569089Y-59802405D01*
X93536413Y-59844990D01*
X93474561Y-59896889D01*
X93474558Y-59896892D01*
X93466252Y-59903862D01*
X93460829Y-59913253D01*
X93460827Y-59913257D01*
X93418690Y-59986241D01*
X93418688Y-59986244D01*
X93413266Y-59995637D01*
X93411383Y-60006315D01*
X93411381Y-60006321D01*
X93397982Y-60082315D01*
X93394864Y-60100000D01*
X90054360Y-60100000D01*
X90152568Y-60064256D01*
X90233748Y-59996138D01*
X90286734Y-59904363D01*
X90305136Y-59800000D01*
X90286734Y-59695637D01*
X90233748Y-59603862D01*
X90224243Y-59595886D01*
X90160875Y-59542714D01*
X90160873Y-59542713D01*
X90152568Y-59535744D01*
X90142378Y-59532035D01*
X90142376Y-59532034D01*
X90099753Y-59516521D01*
X90050013Y-59482970D01*
X90021847Y-59429996D01*
X90021847Y-59400000D01*
X90894864Y-59400000D01*
X90896748Y-59410685D01*
X90911381Y-59493678D01*
X90911382Y-59493683D01*
X90913266Y-59504363D01*
X90966252Y-59596138D01*
X91047432Y-59664256D01*
X91147014Y-59700500D01*
X91242139Y-59700500D01*
X91252986Y-59700500D01*
X91352568Y-59664256D01*
X91433748Y-59596138D01*
X91486734Y-59504363D01*
X91488618Y-59493676D01*
X91491575Y-59485554D01*
X91517903Y-59442871D01*
X91558983Y-59414106D01*
X91600022Y-59405632D01*
X91600000Y-59405492D01*
X91725304Y-59385646D01*
X91838342Y-59328050D01*
X91928050Y-59238342D01*
X91985646Y-59125304D01*
X92005492Y-59000000D01*
X91985646Y-58874696D01*
X91928050Y-58761658D01*
X91838342Y-58671950D01*
X91725304Y-58614354D01*
X91715667Y-58612827D01*
X91715662Y-58612826D01*
X91609641Y-58596035D01*
X91600000Y-58594508D01*
X91590359Y-58596035D01*
X91484337Y-58612826D01*
X91484330Y-58612828D01*
X91474696Y-58614354D01*
X91466000Y-58618784D01*
X91465999Y-58618785D01*
X91370353Y-58667519D01*
X91370349Y-58667521D01*
X91361658Y-58671950D01*
X91354759Y-58678848D01*
X91354756Y-58678851D01*
X91278851Y-58754756D01*
X91278848Y-58754759D01*
X91271950Y-58761658D01*
X91267521Y-58770349D01*
X91267519Y-58770353D01*
X91243180Y-58818122D01*
X91214354Y-58874696D01*
X91212828Y-58884330D01*
X91212826Y-58884337D01*
X91200169Y-58964256D01*
X91194508Y-59000000D01*
X91194707Y-59001260D01*
X91185894Y-59043946D01*
X91157128Y-59085027D01*
X91114444Y-59111354D01*
X91057625Y-59132033D01*
X91057619Y-59132036D01*
X91047432Y-59135744D01*
X91039128Y-59142711D01*
X91039124Y-59142714D01*
X90974561Y-59196889D01*
X90974558Y-59196892D01*
X90966252Y-59203862D01*
X90960829Y-59213253D01*
X90960827Y-59213257D01*
X90920287Y-59283476D01*
X90913266Y-59295637D01*
X90911383Y-59306315D01*
X90911381Y-59306321D01*
X90903592Y-59350500D01*
X90894864Y-59400000D01*
X90021847Y-59400000D01*
X90021848Y-59369998D01*
X90050016Y-59317025D01*
X90099753Y-59283478D01*
X90152568Y-59264256D01*
X90233748Y-59196138D01*
X90286734Y-59104363D01*
X90305136Y-59000000D01*
X90286734Y-58895637D01*
X90233748Y-58803862D01*
X90205991Y-58780571D01*
X90160875Y-58742714D01*
X90160873Y-58742713D01*
X90152568Y-58735744D01*
X90142377Y-58732035D01*
X90142374Y-58732033D01*
X90099755Y-58716522D01*
X90050015Y-58682973D01*
X90021847Y-58629999D01*
X90021847Y-58570001D01*
X90050015Y-58517027D01*
X90099755Y-58483478D01*
X90134206Y-58470939D01*
X90152568Y-58464256D01*
X90233748Y-58396138D01*
X90286734Y-58304363D01*
X90304612Y-58202967D01*
X90327266Y-58150452D01*
X90371078Y-58113689D01*
X90426729Y-58100500D01*
X90442139Y-58100500D01*
X90452986Y-58100500D01*
X90552568Y-58064256D01*
X90633748Y-57996138D01*
X90686734Y-57904363D01*
X90687065Y-57902481D01*
X90717027Y-57858061D01*
X90770001Y-57829893D01*
X90829999Y-57829893D01*
X90882973Y-57858061D01*
X90912934Y-57902481D01*
X90913266Y-57904363D01*
X90918687Y-57913754D01*
X90918689Y-57913757D01*
X90953618Y-57974256D01*
X90966252Y-57996138D01*
X90974561Y-58003110D01*
X91037379Y-58055821D01*
X91047432Y-58064256D01*
X91147014Y-58100500D01*
X91242139Y-58100500D01*
X91252986Y-58100500D01*
X91352568Y-58064256D01*
X91433748Y-57996138D01*
X91486734Y-57904363D01*
X91505136Y-57800000D01*
X91486734Y-57695637D01*
X91477282Y-57679266D01*
X91439172Y-57613257D01*
X91433748Y-57603862D01*
X91352568Y-57535744D01*
X91318597Y-57523380D01*
X91263179Y-57503210D01*
X91252986Y-57499500D01*
X91147014Y-57499500D01*
X91136821Y-57503209D01*
X91136820Y-57503210D01*
X91057624Y-57532034D01*
X91057621Y-57532035D01*
X91047432Y-57535744D01*
X91039128Y-57542711D01*
X91039124Y-57542714D01*
X90974561Y-57596889D01*
X90974558Y-57596892D01*
X90966252Y-57603862D01*
X90960829Y-57613253D01*
X90960827Y-57613257D01*
X90918691Y-57686240D01*
X90913266Y-57695637D01*
X90912934Y-57697519D01*
X90882972Y-57741939D01*
X90829998Y-57770106D01*
X90770002Y-57770106D01*
X90717028Y-57741939D01*
X90687065Y-57697519D01*
X90686734Y-57695637D01*
X90633748Y-57603862D01*
X90552568Y-57535744D01*
X90518597Y-57523380D01*
X90463179Y-57503210D01*
X90452986Y-57499500D01*
X90347014Y-57499500D01*
X90336821Y-57503209D01*
X90336820Y-57503210D01*
X90257624Y-57532034D01*
X90257621Y-57532035D01*
X90247432Y-57535744D01*
X90239128Y-57542711D01*
X90239124Y-57542714D01*
X90174561Y-57596889D01*
X90174558Y-57596892D01*
X90166252Y-57603862D01*
X90160829Y-57613253D01*
X90160827Y-57613257D01*
X90118691Y-57686240D01*
X90113266Y-57695637D01*
X90111382Y-57706320D01*
X90111382Y-57706321D01*
X90095387Y-57797033D01*
X90072734Y-57849548D01*
X90028922Y-57886311D01*
X89973271Y-57899500D01*
X89947014Y-57899500D01*
X89936821Y-57903209D01*
X89936820Y-57903210D01*
X89857624Y-57932034D01*
X89857621Y-57932035D01*
X89847432Y-57935744D01*
X89839128Y-57942711D01*
X89839124Y-57942714D01*
X89774561Y-57996889D01*
X89774558Y-57996892D01*
X89766252Y-58003862D01*
X89760829Y-58013253D01*
X89760827Y-58013257D01*
X89718690Y-58086241D01*
X89718688Y-58086244D01*
X89713266Y-58095637D01*
X89711383Y-58106315D01*
X89711381Y-58106321D01*
X89700877Y-58165899D01*
X89694864Y-58200000D01*
X89696748Y-58210685D01*
X89711381Y-58293678D01*
X89711382Y-58293683D01*
X89713266Y-58304363D01*
X89718689Y-58313757D01*
X89718690Y-58313758D01*
X89750857Y-58369474D01*
X89766252Y-58396138D01*
X89847432Y-58464256D01*
X89888673Y-58479266D01*
X89900245Y-58483478D01*
X89949985Y-58517027D01*
X89978152Y-58570002D01*
X89978152Y-58629998D01*
X89949985Y-58682973D01*
X89900245Y-58716522D01*
X89857624Y-58732034D01*
X89857621Y-58732035D01*
X89847432Y-58735744D01*
X89839128Y-58742711D01*
X89839124Y-58742714D01*
X89774561Y-58796889D01*
X89774558Y-58796892D01*
X89766252Y-58803862D01*
X89760829Y-58813253D01*
X89760827Y-58813257D01*
X89721820Y-58880820D01*
X89676433Y-58926207D01*
X89614433Y-58942820D01*
X89552433Y-58926207D01*
X89507046Y-58880820D01*
X89458620Y-58796943D01*
X89458619Y-58796942D01*
X89453194Y-58787545D01*
X89365261Y-58713760D01*
X89355067Y-58710049D01*
X89355066Y-58710049D01*
X89267587Y-58678209D01*
X89267582Y-58678208D01*
X89257394Y-58674500D01*
X89142606Y-58674500D01*
X89132418Y-58678207D01*
X89132412Y-58678209D01*
X89044931Y-58710050D01*
X89044927Y-58710052D01*
X89034740Y-58713760D01*
X89026436Y-58720727D01*
X89026432Y-58720730D01*
X88955116Y-58780571D01*
X88955112Y-58780574D01*
X88946806Y-58787545D01*
X88941385Y-58796933D01*
X88941381Y-58796939D01*
X88894836Y-58877559D01*
X88894834Y-58877562D01*
X88889412Y-58886955D01*
X88887529Y-58897633D01*
X88887527Y-58897639D01*
X88871972Y-58985862D01*
X88869479Y-59000000D01*
X81653133Y-59000000D01*
X81747232Y-58823954D01*
X81807300Y-58625934D01*
X81827583Y-58420000D01*
X81807300Y-58214066D01*
X81803033Y-58200000D01*
X84869479Y-58200000D01*
X84871363Y-58210685D01*
X84887527Y-58302360D01*
X84887528Y-58302364D01*
X84889412Y-58313045D01*
X84894835Y-58322439D01*
X84894836Y-58322440D01*
X84941379Y-58403056D01*
X84941380Y-58403057D01*
X84946806Y-58412455D01*
X85034739Y-58486240D01*
X85083156Y-58503862D01*
X85132412Y-58521790D01*
X85132413Y-58521790D01*
X85142606Y-58525500D01*
X85246547Y-58525500D01*
X85257394Y-58525500D01*
X85365261Y-58486240D01*
X85453194Y-58412455D01*
X85492614Y-58344176D01*
X85538000Y-58298791D01*
X85600000Y-58282178D01*
X85662000Y-58298791D01*
X85707385Y-58344176D01*
X85746806Y-58412455D01*
X85834739Y-58486240D01*
X85883156Y-58503862D01*
X85932412Y-58521790D01*
X85932413Y-58521790D01*
X85942606Y-58525500D01*
X86046547Y-58525500D01*
X86057394Y-58525500D01*
X86165261Y-58486240D01*
X86253194Y-58412455D01*
X86278010Y-58369471D01*
X86324805Y-58323284D01*
X86388639Y-58307514D01*
X86451562Y-58326601D01*
X86495880Y-58375175D01*
X86505846Y-58394733D01*
X86512905Y-58408587D01*
X86591413Y-58487095D01*
X86690339Y-58537500D01*
X86800000Y-58554869D01*
X86909661Y-58537500D01*
X87008587Y-58487095D01*
X87087095Y-58408587D01*
X87137500Y-58309661D01*
X87154737Y-58200827D01*
X87172824Y-58153298D01*
X87208472Y-58117024D01*
X87249719Y-58100500D01*
X87252986Y-58100500D01*
X87352568Y-58064256D01*
X87433748Y-57996138D01*
X87486734Y-57904363D01*
X87487065Y-57902481D01*
X87517027Y-57858061D01*
X87570001Y-57829893D01*
X87629999Y-57829893D01*
X87682973Y-57858061D01*
X87712934Y-57902481D01*
X87713266Y-57904363D01*
X87718687Y-57913754D01*
X87718689Y-57913757D01*
X87753618Y-57974256D01*
X87766252Y-57996138D01*
X87774561Y-58003110D01*
X87837379Y-58055821D01*
X87847432Y-58064256D01*
X87947014Y-58100500D01*
X88042139Y-58100500D01*
X88052986Y-58100500D01*
X88152568Y-58064256D01*
X88233748Y-57996138D01*
X88286734Y-57904363D01*
X88305136Y-57800000D01*
X88286734Y-57695637D01*
X88277282Y-57679266D01*
X88239172Y-57613257D01*
X88233748Y-57603862D01*
X88152568Y-57535744D01*
X88118597Y-57523380D01*
X88063179Y-57503210D01*
X88052986Y-57499500D01*
X88042139Y-57499500D01*
X88031454Y-57497616D01*
X88031963Y-57494724D01*
X87996463Y-57486311D01*
X87952651Y-57449548D01*
X87929998Y-57397033D01*
X87921419Y-57348382D01*
X87910588Y-57286955D01*
X87853194Y-57187545D01*
X87765261Y-57113760D01*
X87755067Y-57110049D01*
X87755066Y-57110049D01*
X87667587Y-57078209D01*
X87667582Y-57078208D01*
X87657394Y-57074500D01*
X87542606Y-57074500D01*
X87532418Y-57078207D01*
X87532412Y-57078209D01*
X87444931Y-57110050D01*
X87444927Y-57110052D01*
X87434740Y-57113760D01*
X87426436Y-57120727D01*
X87426432Y-57120730D01*
X87355116Y-57180571D01*
X87355112Y-57180574D01*
X87346806Y-57187545D01*
X87341385Y-57196933D01*
X87341381Y-57196939D01*
X87294836Y-57277559D01*
X87294834Y-57277562D01*
X87289412Y-57286955D01*
X87287528Y-57297638D01*
X87287528Y-57297639D01*
X87270002Y-57397033D01*
X87247349Y-57449548D01*
X87203537Y-57486311D01*
X87168036Y-57494724D01*
X87168546Y-57497616D01*
X87157861Y-57499500D01*
X87147014Y-57499500D01*
X87136821Y-57503209D01*
X87136820Y-57503210D01*
X87057624Y-57532034D01*
X87057621Y-57532035D01*
X87047432Y-57535744D01*
X87039128Y-57542711D01*
X87039124Y-57542714D01*
X86974561Y-57596889D01*
X86974558Y-57596892D01*
X86966252Y-57603862D01*
X86960829Y-57613253D01*
X86960827Y-57613257D01*
X86918691Y-57686240D01*
X86913266Y-57695637D01*
X86905800Y-57737982D01*
X86904705Y-57744190D01*
X86882052Y-57796705D01*
X86838240Y-57833468D01*
X86799603Y-57842625D01*
X86800000Y-57845131D01*
X86699980Y-57860972D01*
X86699974Y-57860973D01*
X86690339Y-57862500D01*
X86681643Y-57866930D01*
X86681642Y-57866931D01*
X86600107Y-57908474D01*
X86600101Y-57908478D01*
X86591413Y-57912905D01*
X86584514Y-57919803D01*
X86584511Y-57919806D01*
X86519806Y-57984511D01*
X86519803Y-57984514D01*
X86512905Y-57991413D01*
X86508478Y-58000100D01*
X86508471Y-58000111D01*
X86495879Y-58024825D01*
X86451562Y-58073399D01*
X86388639Y-58092485D01*
X86324805Y-58076716D01*
X86278010Y-58030528D01*
X86253194Y-57987545D01*
X86199309Y-57942330D01*
X86173574Y-57920735D01*
X86173572Y-57920733D01*
X86165261Y-57913760D01*
X86155062Y-57910048D01*
X86150455Y-57907388D01*
X86105067Y-57862000D01*
X86088454Y-57800000D01*
X86105067Y-57738000D01*
X86150455Y-57692612D01*
X86155062Y-57689952D01*
X86165261Y-57686240D01*
X86253194Y-57612455D01*
X86310588Y-57513045D01*
X86330521Y-57400000D01*
X86314562Y-57309492D01*
X86312472Y-57297639D01*
X86312471Y-57297638D01*
X86310588Y-57286955D01*
X86253194Y-57187545D01*
X86165261Y-57113760D01*
X86155067Y-57110049D01*
X86155066Y-57110049D01*
X86067587Y-57078209D01*
X86067582Y-57078208D01*
X86057394Y-57074500D01*
X85942606Y-57074500D01*
X85932418Y-57078207D01*
X85932412Y-57078209D01*
X85844931Y-57110050D01*
X85844927Y-57110052D01*
X85834740Y-57113760D01*
X85826436Y-57120727D01*
X85826432Y-57120730D01*
X85755116Y-57180571D01*
X85755112Y-57180574D01*
X85746806Y-57187545D01*
X85741385Y-57196933D01*
X85741381Y-57196939D01*
X85694836Y-57277559D01*
X85694834Y-57277562D01*
X85689412Y-57286955D01*
X85687529Y-57297633D01*
X85687527Y-57297639D01*
X85674534Y-57371331D01*
X85669479Y-57400000D01*
X85671363Y-57410685D01*
X85687527Y-57502360D01*
X85687528Y-57502364D01*
X85689412Y-57513045D01*
X85694835Y-57522439D01*
X85694836Y-57522440D01*
X85741379Y-57603056D01*
X85741380Y-57603057D01*
X85746806Y-57612455D01*
X85834739Y-57686240D01*
X85844933Y-57689950D01*
X85849545Y-57692613D01*
X85894932Y-57738000D01*
X85911545Y-57800000D01*
X85894932Y-57861999D01*
X85849546Y-57907387D01*
X85844934Y-57910049D01*
X85834740Y-57913760D01*
X85826430Y-57920732D01*
X85826428Y-57920734D01*
X85755116Y-57980571D01*
X85755112Y-57980574D01*
X85746806Y-57987545D01*
X85741385Y-57996933D01*
X85741381Y-57996939D01*
X85707387Y-58055821D01*
X85662000Y-58101208D01*
X85600000Y-58117821D01*
X85538000Y-58101208D01*
X85492613Y-58055821D01*
X85458620Y-57996943D01*
X85458619Y-57996942D01*
X85453194Y-57987545D01*
X85365261Y-57913760D01*
X85355067Y-57910049D01*
X85355066Y-57910049D01*
X85267587Y-57878209D01*
X85267582Y-57878208D01*
X85257394Y-57874500D01*
X85142606Y-57874500D01*
X85132418Y-57878207D01*
X85132412Y-57878209D01*
X85044931Y-57910050D01*
X85044927Y-57910052D01*
X85034740Y-57913760D01*
X85026436Y-57920727D01*
X85026432Y-57920730D01*
X84955116Y-57980571D01*
X84955112Y-57980574D01*
X84946806Y-57987545D01*
X84941385Y-57996933D01*
X84941381Y-57996939D01*
X84894836Y-58077559D01*
X84894834Y-58077562D01*
X84889412Y-58086955D01*
X84887529Y-58097633D01*
X84887527Y-58097639D01*
X84875492Y-58165899D01*
X84869479Y-58200000D01*
X81803033Y-58200000D01*
X81747232Y-58016046D01*
X81649685Y-57833550D01*
X81518410Y-57673590D01*
X81358450Y-57542315D01*
X81324872Y-57524367D01*
X81181328Y-57447640D01*
X81181323Y-57447638D01*
X81175954Y-57444768D01*
X81113477Y-57425816D01*
X80983764Y-57386468D01*
X80983759Y-57386467D01*
X80977934Y-57384700D01*
X80971875Y-57384103D01*
X80971869Y-57384102D01*
X80778061Y-57365014D01*
X80772000Y-57364417D01*
X80765939Y-57365014D01*
X80572130Y-57384102D01*
X80572122Y-57384103D01*
X80566066Y-57384700D01*
X80560242Y-57386466D01*
X80560235Y-57386468D01*
X80373877Y-57442999D01*
X80373875Y-57442999D01*
X80368046Y-57444768D01*
X80362679Y-57447636D01*
X80362671Y-57447640D01*
X80190920Y-57539444D01*
X80190915Y-57539447D01*
X80185550Y-57542315D01*
X80180846Y-57546174D01*
X80180842Y-57546178D01*
X80030296Y-57669727D01*
X80030290Y-57669732D01*
X80025590Y-57673590D01*
X80021732Y-57678290D01*
X80021727Y-57678296D01*
X79898178Y-57828842D01*
X79898174Y-57828846D01*
X79894315Y-57833550D01*
X79891447Y-57838915D01*
X79891444Y-57838920D01*
X79799640Y-58010671D01*
X79799636Y-58010679D01*
X79796768Y-58016046D01*
X79795001Y-58021870D01*
X79794996Y-58021883D01*
X79776593Y-58082551D01*
X79743289Y-58136502D01*
X79687668Y-58166937D01*
X79624274Y-58165899D01*
X79569680Y-58133660D01*
X79538158Y-58078648D01*
X79506832Y-57961738D01*
X79503143Y-57951602D01*
X79407889Y-57747332D01*
X79402491Y-57737982D01*
X79354714Y-57669749D01*
X79346603Y-57662316D01*
X79337324Y-57668227D01*
X78597095Y-58408457D01*
X78590431Y-58420000D01*
X77934034Y-58420000D01*
X77934034Y-58387906D01*
X77966128Y-58332319D01*
X78232000Y-58066447D01*
X78983771Y-57314674D01*
X78989682Y-57305395D01*
X78982249Y-57297284D01*
X78914018Y-57249508D01*
X78904668Y-57244110D01*
X78700397Y-57148856D01*
X78690263Y-57145168D01*
X78573350Y-57113841D01*
X78518338Y-57082319D01*
X78486099Y-57027724D01*
X78485062Y-56964329D01*
X78515499Y-56908709D01*
X78569448Y-56875406D01*
X78635954Y-56855232D01*
X78818450Y-56757685D01*
X78978410Y-56626410D01*
X79109685Y-56466450D01*
X79207232Y-56283954D01*
X79267300Y-56085934D01*
X79287583Y-55880000D01*
X79716417Y-55880000D01*
X79717014Y-55886061D01*
X79736102Y-56079869D01*
X79736103Y-56079875D01*
X79736700Y-56085934D01*
X79738467Y-56091759D01*
X79738468Y-56091764D01*
X79781332Y-56233068D01*
X79796768Y-56283954D01*
X79799638Y-56289323D01*
X79799640Y-56289328D01*
X79860512Y-56403210D01*
X79894315Y-56466450D01*
X79920879Y-56498819D01*
X79992440Y-56586017D01*
X80025590Y-56626410D01*
X80185550Y-56757685D01*
X80368046Y-56855232D01*
X80566066Y-56915300D01*
X80772000Y-56935583D01*
X80977934Y-56915300D01*
X81175954Y-56855232D01*
X81358450Y-56757685D01*
X81518410Y-56626410D01*
X81540084Y-56600000D01*
X86345131Y-56600000D01*
X86346658Y-56609641D01*
X86360972Y-56700019D01*
X86360973Y-56700023D01*
X86362500Y-56709661D01*
X86366931Y-56718357D01*
X86408474Y-56799892D01*
X86408476Y-56799895D01*
X86412905Y-56808587D01*
X86491413Y-56887095D01*
X86590339Y-56937500D01*
X86700000Y-56954869D01*
X86809661Y-56937500D01*
X86908587Y-56887095D01*
X86987095Y-56808587D01*
X87037500Y-56709661D01*
X87039030Y-56700000D01*
X91294864Y-56700000D01*
X91296748Y-56710685D01*
X91311381Y-56793678D01*
X91311382Y-56793683D01*
X91313266Y-56804363D01*
X91318689Y-56813757D01*
X91318690Y-56813758D01*
X91358004Y-56881853D01*
X91366252Y-56896138D01*
X91374561Y-56903110D01*
X91434819Y-56953673D01*
X91447432Y-56964256D01*
X91547014Y-57000500D01*
X91642139Y-57000500D01*
X91652986Y-57000500D01*
X91752568Y-56964256D01*
X91833748Y-56896138D01*
X91886734Y-56804363D01*
X91905136Y-56700000D01*
X91902590Y-56685562D01*
X93394234Y-56685562D01*
X93396118Y-56696247D01*
X93410751Y-56779240D01*
X93410752Y-56779245D01*
X93412636Y-56789925D01*
X93418059Y-56799319D01*
X93418060Y-56799320D01*
X93460197Y-56872305D01*
X93460199Y-56872307D01*
X93460332Y-56872538D01*
X93460334Y-56872541D01*
X93465622Y-56881700D01*
X93465355Y-56881853D01*
X93484026Y-56916477D01*
X93488398Y-56966437D01*
X93472623Y-57014042D01*
X93434413Y-57080226D01*
X93432530Y-57090904D01*
X93432528Y-57090910D01*
X93417895Y-57173904D01*
X93416011Y-57184589D01*
X93417895Y-57195274D01*
X93432528Y-57278267D01*
X93432529Y-57278272D01*
X93434413Y-57288952D01*
X93439836Y-57298345D01*
X93439838Y-57298350D01*
X93481903Y-57371209D01*
X93497677Y-57418811D01*
X93493308Y-57468768D01*
X93471261Y-57509658D01*
X93466252Y-57513862D01*
X93460832Y-57523248D01*
X93460829Y-57523253D01*
X93418690Y-57596241D01*
X93418688Y-57596244D01*
X93413266Y-57605637D01*
X93411383Y-57616315D01*
X93411381Y-57616321D01*
X93396748Y-57699315D01*
X93394864Y-57710000D01*
X93396748Y-57720685D01*
X93411381Y-57803678D01*
X93411382Y-57803683D01*
X93413266Y-57814363D01*
X93418689Y-57823757D01*
X93418690Y-57823758D01*
X93440175Y-57860972D01*
X93466252Y-57906138D01*
X93474561Y-57913110D01*
X93532513Y-57961738D01*
X93547432Y-57974256D01*
X93647014Y-58010500D01*
X93742139Y-58010500D01*
X93752986Y-58010500D01*
X93852568Y-57974256D01*
X93933748Y-57906138D01*
X93986734Y-57814363D01*
X94005136Y-57710000D01*
X94001997Y-57692200D01*
X93988618Y-57616321D01*
X93988617Y-57616320D01*
X93986734Y-57605637D01*
X93939242Y-57523379D01*
X93923468Y-57475775D01*
X93927840Y-57425816D01*
X93949884Y-57384931D01*
X93954895Y-57380727D01*
X94007881Y-57288952D01*
X94026283Y-57184589D01*
X94019332Y-57145168D01*
X94009765Y-57090910D01*
X94009764Y-57090909D01*
X94007881Y-57080226D01*
X93969670Y-57014042D01*
X93960319Y-56997845D01*
X93960317Y-56997843D01*
X93954895Y-56988451D01*
X93955161Y-56988297D01*
X93936490Y-56953673D01*
X93932118Y-56903712D01*
X93947890Y-56856112D01*
X93986104Y-56789925D01*
X94004506Y-56685562D01*
X93986104Y-56581199D01*
X93933118Y-56489424D01*
X93924808Y-56482451D01*
X93917833Y-56474138D01*
X93919637Y-56472623D01*
X93898782Y-56445439D01*
X93887169Y-56393033D01*
X93898792Y-56340630D01*
X93920131Y-56312824D01*
X93918463Y-56311424D01*
X93925437Y-56303111D01*
X93933748Y-56296138D01*
X93986734Y-56204363D01*
X94005136Y-56100000D01*
X93986734Y-55995637D01*
X93933748Y-55903862D01*
X93912534Y-55886061D01*
X93860875Y-55842714D01*
X93860873Y-55842713D01*
X93852568Y-55835744D01*
X93752986Y-55799500D01*
X93647014Y-55799500D01*
X93636821Y-55803209D01*
X93636820Y-55803210D01*
X93557624Y-55832034D01*
X93557621Y-55832035D01*
X93547432Y-55835744D01*
X93539128Y-55842711D01*
X93539124Y-55842714D01*
X93474561Y-55896889D01*
X93474558Y-55896892D01*
X93466252Y-55903862D01*
X93460829Y-55913253D01*
X93460827Y-55913257D01*
X93418690Y-55986241D01*
X93418688Y-55986244D01*
X93413266Y-55995637D01*
X93411383Y-56006315D01*
X93411381Y-56006321D01*
X93397344Y-56085934D01*
X93394864Y-56100000D01*
X93396748Y-56110685D01*
X93411381Y-56193678D01*
X93411382Y-56193683D01*
X93413266Y-56204363D01*
X93418689Y-56213757D01*
X93418690Y-56213758D01*
X93459217Y-56283954D01*
X93466252Y-56296138D01*
X93474561Y-56303110D01*
X93481537Y-56311424D01*
X93479733Y-56312937D01*
X93500579Y-56340104D01*
X93512200Y-56392495D01*
X93500597Y-56444890D01*
X93479240Y-56472740D01*
X93480907Y-56474138D01*
X93473930Y-56482452D01*
X93465622Y-56489424D01*
X93460199Y-56498815D01*
X93460197Y-56498819D01*
X93418060Y-56571803D01*
X93418058Y-56571806D01*
X93412636Y-56581199D01*
X93410753Y-56591877D01*
X93410751Y-56591883D01*
X93398858Y-56659339D01*
X93394234Y-56685562D01*
X91902590Y-56685562D01*
X91886734Y-56595637D01*
X91833748Y-56503862D01*
X91817632Y-56490339D01*
X91760875Y-56442714D01*
X91760873Y-56442713D01*
X91752568Y-56435744D01*
X91652986Y-56399500D01*
X91547014Y-56399500D01*
X91536821Y-56403209D01*
X91536820Y-56403210D01*
X91457624Y-56432034D01*
X91457621Y-56432035D01*
X91447432Y-56435744D01*
X91439128Y-56442711D01*
X91439124Y-56442714D01*
X91374561Y-56496889D01*
X91374558Y-56496892D01*
X91366252Y-56503862D01*
X91360829Y-56513253D01*
X91360827Y-56513257D01*
X91318690Y-56586241D01*
X91318688Y-56586244D01*
X91313266Y-56595637D01*
X91311383Y-56606315D01*
X91311381Y-56606321D01*
X91299294Y-56674877D01*
X91294864Y-56700000D01*
X87039030Y-56700000D01*
X87054869Y-56600000D01*
X87037500Y-56490339D01*
X86987095Y-56391413D01*
X86908587Y-56312905D01*
X86899895Y-56308476D01*
X86899892Y-56308474D01*
X86818357Y-56266931D01*
X86818358Y-56266931D01*
X86809661Y-56262500D01*
X86800023Y-56260973D01*
X86800019Y-56260972D01*
X86709641Y-56246658D01*
X86700000Y-56245131D01*
X86690359Y-56246658D01*
X86599980Y-56260972D01*
X86599974Y-56260973D01*
X86590339Y-56262500D01*
X86581643Y-56266930D01*
X86581642Y-56266931D01*
X86500107Y-56308474D01*
X86500101Y-56308478D01*
X86491413Y-56312905D01*
X86484514Y-56319803D01*
X86484511Y-56319806D01*
X86419806Y-56384511D01*
X86419803Y-56384514D01*
X86412905Y-56391413D01*
X86408478Y-56400101D01*
X86408474Y-56400107D01*
X86366931Y-56481642D01*
X86362500Y-56490339D01*
X86360973Y-56499974D01*
X86360972Y-56499980D01*
X86351401Y-56560413D01*
X86345131Y-56600000D01*
X81540084Y-56600000D01*
X81649685Y-56466450D01*
X81747232Y-56283954D01*
X81807300Y-56085934D01*
X81825613Y-55900000D01*
X84645131Y-55900000D01*
X84646658Y-55909641D01*
X84660972Y-56000019D01*
X84660973Y-56000023D01*
X84662500Y-56009661D01*
X84666931Y-56018357D01*
X84708474Y-56099892D01*
X84708476Y-56099895D01*
X84712905Y-56108587D01*
X84791413Y-56187095D01*
X84890339Y-56237500D01*
X85000000Y-56254869D01*
X85109661Y-56237500D01*
X85208587Y-56187095D01*
X85287095Y-56108587D01*
X85337500Y-56009661D01*
X85354869Y-55900000D01*
X85337500Y-55790339D01*
X85287095Y-55691413D01*
X85208587Y-55612905D01*
X85199895Y-55608476D01*
X85199892Y-55608474D01*
X85118357Y-55566931D01*
X85118358Y-55566931D01*
X85109661Y-55562500D01*
X85100023Y-55560973D01*
X85100019Y-55560972D01*
X85009641Y-55546658D01*
X85000000Y-55545131D01*
X84990359Y-55546658D01*
X84899980Y-55560972D01*
X84899974Y-55560973D01*
X84890339Y-55562500D01*
X84881643Y-55566930D01*
X84881642Y-55566931D01*
X84800107Y-55608474D01*
X84800101Y-55608478D01*
X84791413Y-55612905D01*
X84784514Y-55619803D01*
X84784511Y-55619806D01*
X84719806Y-55684511D01*
X84719803Y-55684514D01*
X84712905Y-55691413D01*
X84708478Y-55700101D01*
X84708474Y-55700107D01*
X84666931Y-55781642D01*
X84662500Y-55790339D01*
X84660973Y-55799974D01*
X84660972Y-55799980D01*
X84649259Y-55873939D01*
X84645131Y-55900000D01*
X81825613Y-55900000D01*
X81827583Y-55880000D01*
X81807300Y-55674066D01*
X81747232Y-55476046D01*
X81649685Y-55293550D01*
X81518410Y-55133590D01*
X81358450Y-55002315D01*
X81304843Y-54973661D01*
X81181328Y-54907640D01*
X81181323Y-54907638D01*
X81175954Y-54904768D01*
X81139356Y-54893666D01*
X80983764Y-54846468D01*
X80983759Y-54846467D01*
X80977934Y-54844700D01*
X80971875Y-54844103D01*
X80971869Y-54844102D01*
X80778061Y-54825014D01*
X80772000Y-54824417D01*
X80765939Y-54825014D01*
X80572130Y-54844102D01*
X80572122Y-54844103D01*
X80566066Y-54844700D01*
X80560242Y-54846466D01*
X80560235Y-54846468D01*
X80373877Y-54902999D01*
X80373875Y-54902999D01*
X80368046Y-54904768D01*
X80362679Y-54907636D01*
X80362671Y-54907640D01*
X80190920Y-54999444D01*
X80190915Y-54999447D01*
X80185550Y-55002315D01*
X80180846Y-55006174D01*
X80180842Y-55006178D01*
X80030296Y-55129727D01*
X80030290Y-55129732D01*
X80025590Y-55133590D01*
X80021732Y-55138290D01*
X80021727Y-55138296D01*
X79898178Y-55288842D01*
X79898174Y-55288846D01*
X79894315Y-55293550D01*
X79891447Y-55298915D01*
X79891444Y-55298920D01*
X79799640Y-55470671D01*
X79799636Y-55470679D01*
X79796768Y-55476046D01*
X79794999Y-55481875D01*
X79794999Y-55481877D01*
X79738468Y-55668235D01*
X79738466Y-55668242D01*
X79736700Y-55674066D01*
X79736103Y-55680122D01*
X79736102Y-55680130D01*
X79724298Y-55799980D01*
X79716417Y-55880000D01*
X79287583Y-55880000D01*
X79267300Y-55674066D01*
X79207232Y-55476046D01*
X79109685Y-55293550D01*
X78978410Y-55133590D01*
X78818450Y-55002315D01*
X78764843Y-54973661D01*
X78641328Y-54907640D01*
X78641323Y-54907638D01*
X78635954Y-54904768D01*
X78599356Y-54893666D01*
X78443764Y-54846468D01*
X78443759Y-54846467D01*
X78437934Y-54844700D01*
X78431875Y-54844103D01*
X78431869Y-54844102D01*
X78238061Y-54825014D01*
X78232000Y-54824417D01*
X78225939Y-54825014D01*
X78032130Y-54844102D01*
X78032122Y-54844103D01*
X78026066Y-54844700D01*
X78020242Y-54846466D01*
X78020235Y-54846468D01*
X77833877Y-54902999D01*
X77833875Y-54902999D01*
X77828046Y-54904768D01*
X77822679Y-54907636D01*
X77822671Y-54907640D01*
X77650920Y-54999444D01*
X77650915Y-54999447D01*
X77645550Y-55002315D01*
X77640846Y-55006174D01*
X77640842Y-55006178D01*
X77490296Y-55129727D01*
X77490290Y-55129732D01*
X77485590Y-55133590D01*
X77481732Y-55138290D01*
X77481727Y-55138296D01*
X77435854Y-55194194D01*
X77387453Y-55230091D01*
X77327846Y-55238933D01*
X77271109Y-55218632D01*
X77230642Y-55173983D01*
X77216000Y-55115530D01*
X77216000Y-54480000D01*
X91545131Y-54480000D01*
X91546658Y-54489641D01*
X91560972Y-54580019D01*
X91560973Y-54580023D01*
X91562500Y-54589661D01*
X91566931Y-54598357D01*
X91608474Y-54679892D01*
X91608476Y-54679895D01*
X91612905Y-54688587D01*
X91691413Y-54767095D01*
X91790339Y-54817500D01*
X91900000Y-54834869D01*
X92009661Y-54817500D01*
X92108587Y-54767095D01*
X92187095Y-54688587D01*
X92237500Y-54589661D01*
X92254869Y-54480000D01*
X92237500Y-54370339D01*
X92187095Y-54271413D01*
X92108587Y-54192905D01*
X92099895Y-54188476D01*
X92099892Y-54188474D01*
X92018357Y-54146931D01*
X92018358Y-54146931D01*
X92009661Y-54142500D01*
X92000023Y-54140973D01*
X92000019Y-54140972D01*
X91909641Y-54126658D01*
X91900000Y-54125131D01*
X91890359Y-54126658D01*
X91799980Y-54140972D01*
X91799974Y-54140973D01*
X91790339Y-54142500D01*
X91781643Y-54146930D01*
X91781642Y-54146931D01*
X91700107Y-54188474D01*
X91700101Y-54188478D01*
X91691413Y-54192905D01*
X91684514Y-54199803D01*
X91684511Y-54199806D01*
X91619806Y-54264511D01*
X91619803Y-54264514D01*
X91612905Y-54271413D01*
X91608478Y-54280101D01*
X91608474Y-54280107D01*
X91566931Y-54361642D01*
X91562500Y-54370339D01*
X91560973Y-54379974D01*
X91560972Y-54379980D01*
X91546658Y-54470359D01*
X91545131Y-54480000D01*
X77216000Y-54480000D01*
X77216000Y-54104470D01*
X77230642Y-54046017D01*
X77271109Y-54001368D01*
X77327846Y-53981067D01*
X77387453Y-53989909D01*
X77435853Y-54025805D01*
X77485590Y-54086410D01*
X77645550Y-54217685D01*
X77828046Y-54315232D01*
X78026066Y-54375300D01*
X78232000Y-54395583D01*
X78437934Y-54375300D01*
X78635954Y-54315232D01*
X78818450Y-54217685D01*
X78978410Y-54086410D01*
X79109685Y-53926450D01*
X79207232Y-53743954D01*
X79267300Y-53545934D01*
X79287583Y-53340000D01*
X79716417Y-53340000D01*
X79717014Y-53346061D01*
X79736102Y-53539869D01*
X79736103Y-53539875D01*
X79736700Y-53545934D01*
X79738467Y-53551759D01*
X79738468Y-53551764D01*
X79785666Y-53707356D01*
X79796768Y-53743954D01*
X79799638Y-53749323D01*
X79799640Y-53749328D01*
X79891444Y-53921079D01*
X79894315Y-53926450D01*
X79898178Y-53931157D01*
X79992440Y-54046017D01*
X80025590Y-54086410D01*
X80185550Y-54217685D01*
X80368046Y-54315232D01*
X80566066Y-54375300D01*
X80772000Y-54395583D01*
X80977934Y-54375300D01*
X81175954Y-54315232D01*
X81358450Y-54217685D01*
X81518410Y-54086410D01*
X81649685Y-53926450D01*
X81747232Y-53743954D01*
X81807300Y-53545934D01*
X81827583Y-53340000D01*
X81807300Y-53134066D01*
X81747232Y-52936046D01*
X81649685Y-52753550D01*
X81518410Y-52593590D01*
X81358450Y-52462315D01*
X81353079Y-52459444D01*
X81181328Y-52367640D01*
X81181323Y-52367638D01*
X81175954Y-52364768D01*
X81139356Y-52353666D01*
X80983764Y-52306468D01*
X80983759Y-52306467D01*
X80977934Y-52304700D01*
X80971875Y-52304103D01*
X80971869Y-52304102D01*
X80778061Y-52285014D01*
X80772000Y-52284417D01*
X80765939Y-52285014D01*
X80572130Y-52304102D01*
X80572122Y-52304103D01*
X80566066Y-52304700D01*
X80560242Y-52306466D01*
X80560235Y-52306468D01*
X80373877Y-52362999D01*
X80373875Y-52362999D01*
X80368046Y-52364768D01*
X80362679Y-52367636D01*
X80362671Y-52367640D01*
X80190920Y-52459444D01*
X80190915Y-52459447D01*
X80185550Y-52462315D01*
X80180846Y-52466174D01*
X80180842Y-52466178D01*
X80030296Y-52589727D01*
X80030290Y-52589732D01*
X80025590Y-52593590D01*
X80021732Y-52598290D01*
X80021727Y-52598296D01*
X79898178Y-52748842D01*
X79898174Y-52748846D01*
X79894315Y-52753550D01*
X79891447Y-52758915D01*
X79891444Y-52758920D01*
X79799640Y-52930671D01*
X79799636Y-52930679D01*
X79796768Y-52936046D01*
X79794999Y-52941875D01*
X79794999Y-52941877D01*
X79738468Y-53128235D01*
X79738466Y-53128242D01*
X79736700Y-53134066D01*
X79736103Y-53140122D01*
X79736102Y-53140130D01*
X79728676Y-53215533D01*
X79716417Y-53340000D01*
X79287583Y-53340000D01*
X79267300Y-53134066D01*
X79207232Y-52936046D01*
X79109685Y-52753550D01*
X78978410Y-52593590D01*
X78818450Y-52462315D01*
X78813079Y-52459444D01*
X78641328Y-52367640D01*
X78641323Y-52367638D01*
X78635954Y-52364768D01*
X78607868Y-52356248D01*
X78569449Y-52344594D01*
X78515498Y-52311289D01*
X78485062Y-52255669D01*
X78486100Y-52192274D01*
X78518339Y-52137679D01*
X78573351Y-52106158D01*
X78690261Y-52074832D01*
X78700397Y-52071143D01*
X78904671Y-51975888D01*
X78914016Y-51970492D01*
X78982248Y-51922715D01*
X78989681Y-51914603D01*
X78983768Y-51905321D01*
X77966128Y-50887681D01*
X77934034Y-50832094D01*
X77934034Y-50799999D01*
X78590431Y-50799999D01*
X78597095Y-50811542D01*
X79337321Y-51551768D01*
X79346603Y-51557681D01*
X79354715Y-51550248D01*
X79402492Y-51482016D01*
X79407888Y-51472671D01*
X79503143Y-51268397D01*
X79506832Y-51258261D01*
X79538158Y-51141351D01*
X79569679Y-51086339D01*
X79624274Y-51054100D01*
X79687669Y-51053062D01*
X79743289Y-51083498D01*
X79776594Y-51137449D01*
X79796768Y-51203954D01*
X79799638Y-51209323D01*
X79799640Y-51209328D01*
X79891403Y-51381002D01*
X79894315Y-51386450D01*
X79898178Y-51391157D01*
X80016887Y-51535806D01*
X80025590Y-51546410D01*
X80185550Y-51677685D01*
X80368046Y-51775232D01*
X80566066Y-51835300D01*
X80772000Y-51855583D01*
X80977934Y-51835300D01*
X81041558Y-51816000D01*
X95304131Y-51816000D01*
X95305658Y-51825641D01*
X95319972Y-51916019D01*
X95319973Y-51916023D01*
X95321500Y-51925661D01*
X95325931Y-51934357D01*
X95367474Y-52015892D01*
X95367476Y-52015895D01*
X95371905Y-52024587D01*
X95450413Y-52103095D01*
X95549339Y-52153500D01*
X95659000Y-52170869D01*
X95768661Y-52153500D01*
X95867587Y-52103095D01*
X95946095Y-52024587D01*
X95996500Y-51925661D01*
X96013869Y-51816000D01*
X95996500Y-51706339D01*
X95946095Y-51607413D01*
X95867587Y-51528905D01*
X95858895Y-51524476D01*
X95858892Y-51524474D01*
X95777357Y-51482931D01*
X95777358Y-51482931D01*
X95768661Y-51478500D01*
X95759023Y-51476973D01*
X95759019Y-51476972D01*
X95668641Y-51462658D01*
X95659000Y-51461131D01*
X95649359Y-51462658D01*
X95558980Y-51476972D01*
X95558974Y-51476973D01*
X95549339Y-51478500D01*
X95540643Y-51482930D01*
X95540642Y-51482931D01*
X95459107Y-51524474D01*
X95459101Y-51524478D01*
X95450413Y-51528905D01*
X95443514Y-51535803D01*
X95443511Y-51535806D01*
X95378806Y-51600511D01*
X95378803Y-51600514D01*
X95371905Y-51607413D01*
X95367478Y-51616101D01*
X95367474Y-51616107D01*
X95325931Y-51697642D01*
X95321500Y-51706339D01*
X95319973Y-51715974D01*
X95319972Y-51715980D01*
X95311043Y-51772359D01*
X95304131Y-51816000D01*
X81041558Y-51816000D01*
X81175954Y-51775232D01*
X81358450Y-51677685D01*
X81518410Y-51546410D01*
X81649685Y-51386450D01*
X81747232Y-51203954D01*
X81807300Y-51005934D01*
X81817734Y-50900000D01*
X83894508Y-50900000D01*
X83896035Y-50909641D01*
X83912826Y-51015662D01*
X83912827Y-51015667D01*
X83914354Y-51025304D01*
X83971950Y-51138342D01*
X84061658Y-51228050D01*
X84174696Y-51285646D01*
X84300000Y-51305492D01*
X84425304Y-51285646D01*
X84538342Y-51228050D01*
X84628050Y-51138342D01*
X84685646Y-51025304D01*
X84705492Y-50900000D01*
X84685646Y-50774696D01*
X84628050Y-50661658D01*
X84538342Y-50571950D01*
X84525196Y-50565252D01*
X84434000Y-50518785D01*
X84425304Y-50514354D01*
X84415667Y-50512827D01*
X84415662Y-50512826D01*
X84309641Y-50496035D01*
X84300000Y-50494508D01*
X84290359Y-50496035D01*
X84184337Y-50512826D01*
X84184330Y-50512828D01*
X84174696Y-50514354D01*
X84166000Y-50518784D01*
X84165999Y-50518785D01*
X84070353Y-50567519D01*
X84070349Y-50567521D01*
X84061658Y-50571950D01*
X84054759Y-50578848D01*
X84054756Y-50578851D01*
X83978851Y-50654756D01*
X83978848Y-50654759D01*
X83971950Y-50661658D01*
X83967521Y-50670349D01*
X83967519Y-50670353D01*
X83918785Y-50765999D01*
X83914354Y-50774696D01*
X83912828Y-50784330D01*
X83912826Y-50784337D01*
X83896529Y-50887236D01*
X83894508Y-50900000D01*
X81817734Y-50900000D01*
X81827583Y-50800000D01*
X81807300Y-50594066D01*
X81754195Y-50419000D01*
X94919479Y-50419000D01*
X94921363Y-50429685D01*
X94937527Y-50521360D01*
X94937528Y-50521364D01*
X94939412Y-50532045D01*
X94944835Y-50541439D01*
X94944836Y-50541440D01*
X94991379Y-50622056D01*
X94991380Y-50622057D01*
X94996806Y-50631455D01*
X95084739Y-50705240D01*
X95104189Y-50712319D01*
X95182412Y-50740790D01*
X95182413Y-50740790D01*
X95192606Y-50744500D01*
X95296547Y-50744500D01*
X95307394Y-50744500D01*
X95415261Y-50705240D01*
X95503194Y-50631455D01*
X95560588Y-50532045D01*
X95575681Y-50446447D01*
X95578637Y-50429685D01*
X95580521Y-50419000D01*
X95560588Y-50305955D01*
X95503194Y-50206545D01*
X95415261Y-50132760D01*
X95405067Y-50129049D01*
X95405066Y-50129049D01*
X95317587Y-50097209D01*
X95317582Y-50097208D01*
X95307394Y-50093500D01*
X95192606Y-50093500D01*
X95182418Y-50097207D01*
X95182412Y-50097209D01*
X95094931Y-50129050D01*
X95094927Y-50129052D01*
X95084740Y-50132760D01*
X95076436Y-50139727D01*
X95076432Y-50139730D01*
X95005116Y-50199571D01*
X95005112Y-50199574D01*
X94996806Y-50206545D01*
X94991385Y-50215933D01*
X94991381Y-50215939D01*
X94944836Y-50296559D01*
X94944834Y-50296562D01*
X94939412Y-50305955D01*
X94937529Y-50316633D01*
X94937527Y-50316639D01*
X94925562Y-50384500D01*
X94919479Y-50419000D01*
X81754195Y-50419000D01*
X81747232Y-50396046D01*
X81649685Y-50213550D01*
X81518410Y-50053590D01*
X81358450Y-49922315D01*
X81353079Y-49919444D01*
X81181328Y-49827640D01*
X81181323Y-49827638D01*
X81175954Y-49824768D01*
X81135386Y-49812462D01*
X80983764Y-49766468D01*
X80983759Y-49766467D01*
X80977934Y-49764700D01*
X80971875Y-49764103D01*
X80971869Y-49764102D01*
X80778061Y-49745014D01*
X80772000Y-49744417D01*
X80765939Y-49745014D01*
X80572130Y-49764102D01*
X80572122Y-49764103D01*
X80566066Y-49764700D01*
X80560242Y-49766466D01*
X80560235Y-49766468D01*
X80373877Y-49822999D01*
X80373875Y-49822999D01*
X80368046Y-49824768D01*
X80362679Y-49827636D01*
X80362671Y-49827640D01*
X80190920Y-49919444D01*
X80190915Y-49919447D01*
X80185550Y-49922315D01*
X80180846Y-49926174D01*
X80180842Y-49926178D01*
X80030296Y-50049727D01*
X80030290Y-50049732D01*
X80025590Y-50053590D01*
X80021732Y-50058290D01*
X80021727Y-50058296D01*
X79898178Y-50208842D01*
X79898174Y-50208846D01*
X79894315Y-50213550D01*
X79891447Y-50218915D01*
X79891444Y-50218920D01*
X79799640Y-50390671D01*
X79799636Y-50390679D01*
X79796768Y-50396046D01*
X79795001Y-50401870D01*
X79794996Y-50401883D01*
X79776593Y-50462551D01*
X79743289Y-50516502D01*
X79687668Y-50546937D01*
X79624274Y-50545899D01*
X79569680Y-50513660D01*
X79538158Y-50458648D01*
X79506832Y-50341738D01*
X79503143Y-50331602D01*
X79407889Y-50127332D01*
X79402491Y-50117982D01*
X79354714Y-50049749D01*
X79346603Y-50042316D01*
X79337324Y-50048227D01*
X78597095Y-50788457D01*
X78590431Y-50799999D01*
X77934034Y-50799999D01*
X77934034Y-50767906D01*
X77966128Y-50712319D01*
X78232000Y-50446447D01*
X78981645Y-49696800D01*
X92497708Y-49696800D01*
X92499235Y-49706441D01*
X92516026Y-49812462D01*
X92516027Y-49812467D01*
X92517554Y-49822104D01*
X92521985Y-49830800D01*
X92570582Y-49926178D01*
X92575150Y-49935142D01*
X92664858Y-50024850D01*
X92777896Y-50082446D01*
X92903200Y-50102292D01*
X93028504Y-50082446D01*
X93141542Y-50024850D01*
X93231250Y-49935142D01*
X93288846Y-49822104D01*
X93308692Y-49696800D01*
X93288846Y-49571496D01*
X93231250Y-49458458D01*
X93141542Y-49368750D01*
X93028504Y-49311154D01*
X93018867Y-49309627D01*
X93018862Y-49309626D01*
X92912841Y-49292835D01*
X92903200Y-49291308D01*
X92893559Y-49292835D01*
X92787537Y-49309626D01*
X92787530Y-49309628D01*
X92777896Y-49311154D01*
X92769200Y-49315584D01*
X92769199Y-49315585D01*
X92673553Y-49364319D01*
X92673549Y-49364321D01*
X92664858Y-49368750D01*
X92657959Y-49375648D01*
X92657956Y-49375651D01*
X92582051Y-49451556D01*
X92582048Y-49451559D01*
X92575150Y-49458458D01*
X92570721Y-49467149D01*
X92570719Y-49467153D01*
X92557121Y-49493841D01*
X92517554Y-49571496D01*
X92516028Y-49581130D01*
X92516026Y-49581137D01*
X92500799Y-49677284D01*
X92497708Y-49696800D01*
X78981645Y-49696800D01*
X78983771Y-49694674D01*
X78989682Y-49685395D01*
X78982249Y-49677284D01*
X78914018Y-49629508D01*
X78904668Y-49624110D01*
X78700397Y-49528856D01*
X78690263Y-49525168D01*
X78573350Y-49493841D01*
X78518338Y-49462319D01*
X78486099Y-49407724D01*
X78485062Y-49344329D01*
X78515499Y-49288709D01*
X78569448Y-49255406D01*
X78635954Y-49235232D01*
X78818450Y-49137685D01*
X78978410Y-49006410D01*
X79109685Y-48846450D01*
X79207232Y-48663954D01*
X79267300Y-48465934D01*
X79287583Y-48260000D01*
X79716417Y-48260000D01*
X79717014Y-48266061D01*
X79736102Y-48459869D01*
X79736103Y-48459875D01*
X79736700Y-48465934D01*
X79796768Y-48663954D01*
X79894315Y-48846450D01*
X79898178Y-48851157D01*
X79992440Y-48966017D01*
X80025590Y-49006410D01*
X80185550Y-49137685D01*
X80368046Y-49235232D01*
X80566066Y-49295300D01*
X80772000Y-49315583D01*
X80977934Y-49295300D01*
X81175954Y-49235232D01*
X81358450Y-49137685D01*
X81518410Y-49006410D01*
X81649685Y-48846450D01*
X81747232Y-48663954D01*
X81807300Y-48465934D01*
X81827583Y-48260000D01*
X81807300Y-48054066D01*
X81747232Y-47856046D01*
X81649685Y-47673550D01*
X81518410Y-47513590D01*
X81358450Y-47382315D01*
X81304843Y-47353661D01*
X81181328Y-47287640D01*
X81181323Y-47287638D01*
X81175954Y-47284768D01*
X81139356Y-47273666D01*
X80983764Y-47226468D01*
X80983759Y-47226467D01*
X80977934Y-47224700D01*
X80971875Y-47224103D01*
X80971869Y-47224102D01*
X80778061Y-47205014D01*
X80772000Y-47204417D01*
X80765939Y-47205014D01*
X80572130Y-47224102D01*
X80572122Y-47224103D01*
X80566066Y-47224700D01*
X80560242Y-47226466D01*
X80560235Y-47226468D01*
X80373877Y-47282999D01*
X80373875Y-47282999D01*
X80368046Y-47284768D01*
X80362679Y-47287636D01*
X80362671Y-47287640D01*
X80190920Y-47379444D01*
X80190915Y-47379447D01*
X80185550Y-47382315D01*
X80180846Y-47386174D01*
X80180842Y-47386178D01*
X80030296Y-47509727D01*
X80030290Y-47509732D01*
X80025590Y-47513590D01*
X80021732Y-47518290D01*
X80021727Y-47518296D01*
X79898178Y-47668842D01*
X79898174Y-47668846D01*
X79894315Y-47673550D01*
X79891447Y-47678915D01*
X79891444Y-47678920D01*
X79799640Y-47850671D01*
X79799636Y-47850679D01*
X79796768Y-47856046D01*
X79794999Y-47861875D01*
X79794999Y-47861877D01*
X79738468Y-48048235D01*
X79738466Y-48048242D01*
X79736700Y-48054066D01*
X79736103Y-48060122D01*
X79736102Y-48060130D01*
X79733398Y-48087587D01*
X79716417Y-48260000D01*
X79287583Y-48260000D01*
X79267300Y-48054066D01*
X79207232Y-47856046D01*
X79109685Y-47673550D01*
X78978410Y-47513590D01*
X78818450Y-47382315D01*
X78764843Y-47353661D01*
X78641328Y-47287640D01*
X78641323Y-47287638D01*
X78635954Y-47284768D01*
X78599356Y-47273666D01*
X78443764Y-47226468D01*
X78443759Y-47226467D01*
X78437934Y-47224700D01*
X78431875Y-47224103D01*
X78431869Y-47224102D01*
X78238061Y-47205014D01*
X78232000Y-47204417D01*
X78225939Y-47205014D01*
X78032130Y-47224102D01*
X78032122Y-47224103D01*
X78026066Y-47224700D01*
X78020242Y-47226466D01*
X78020235Y-47226468D01*
X77833877Y-47282999D01*
X77833875Y-47282999D01*
X77828046Y-47284768D01*
X77822679Y-47287636D01*
X77822671Y-47287640D01*
X77650920Y-47379444D01*
X77650915Y-47379447D01*
X77645550Y-47382315D01*
X77640846Y-47386174D01*
X77640842Y-47386178D01*
X77490296Y-47509727D01*
X77490290Y-47509732D01*
X77485590Y-47513590D01*
X77481732Y-47518290D01*
X77481727Y-47518296D01*
X77435854Y-47574194D01*
X77387453Y-47610091D01*
X77327846Y-47618933D01*
X77271109Y-47598632D01*
X77230642Y-47553983D01*
X77216000Y-47495530D01*
X77216000Y-46484470D01*
X77230642Y-46426017D01*
X77271109Y-46381368D01*
X77327846Y-46361067D01*
X77387453Y-46369909D01*
X77435853Y-46405805D01*
X77485590Y-46466410D01*
X77645550Y-46597685D01*
X77828046Y-46695232D01*
X78026066Y-46755300D01*
X78232000Y-46775583D01*
X78437934Y-46755300D01*
X78635954Y-46695232D01*
X78818450Y-46597685D01*
X78978410Y-46466410D01*
X79109685Y-46306450D01*
X79207232Y-46123954D01*
X79267300Y-45925934D01*
X79287583Y-45720000D01*
X79716417Y-45720000D01*
X79717014Y-45726061D01*
X79736102Y-45919869D01*
X79736103Y-45919875D01*
X79736700Y-45925934D01*
X79738467Y-45931759D01*
X79738468Y-45931764D01*
X79751280Y-45974000D01*
X79796768Y-46123954D01*
X79799638Y-46129323D01*
X79799640Y-46129328D01*
X79842569Y-46209641D01*
X79894315Y-46306450D01*
X79898178Y-46311157D01*
X79992440Y-46426017D01*
X80025590Y-46466410D01*
X80185550Y-46597685D01*
X80368046Y-46695232D01*
X80566066Y-46755300D01*
X80772000Y-46775583D01*
X80977934Y-46755300D01*
X81175954Y-46695232D01*
X81358450Y-46597685D01*
X81518410Y-46466410D01*
X81649685Y-46306450D01*
X81706584Y-46200000D01*
X88169196Y-46200000D01*
X88170723Y-46209641D01*
X88188753Y-46323484D01*
X88188754Y-46323489D01*
X88190281Y-46333126D01*
X88251472Y-46453220D01*
X88346780Y-46548528D01*
X88466874Y-46609719D01*
X88600000Y-46630804D01*
X88733126Y-46609719D01*
X88853220Y-46548528D01*
X88948528Y-46453220D01*
X89009719Y-46333126D01*
X89030804Y-46200000D01*
X89009719Y-46066874D01*
X88948528Y-45946780D01*
X88853220Y-45851472D01*
X88733126Y-45790281D01*
X88723489Y-45788754D01*
X88723484Y-45788753D01*
X88609641Y-45770723D01*
X88600000Y-45769196D01*
X88590359Y-45770723D01*
X88476515Y-45788753D01*
X88476508Y-45788754D01*
X88466874Y-45790281D01*
X88458178Y-45794711D01*
X88458177Y-45794712D01*
X88355475Y-45847041D01*
X88355471Y-45847043D01*
X88346780Y-45851472D01*
X88339881Y-45858370D01*
X88339878Y-45858373D01*
X88258373Y-45939878D01*
X88258370Y-45939881D01*
X88251472Y-45946780D01*
X88247043Y-45955471D01*
X88247041Y-45955475D01*
X88194712Y-46058177D01*
X88190281Y-46066874D01*
X88188754Y-46076508D01*
X88188753Y-46076515D01*
X88182164Y-46118122D01*
X88169196Y-46200000D01*
X81706584Y-46200000D01*
X81747232Y-46123954D01*
X81807300Y-45925934D01*
X81827583Y-45720000D01*
X81807300Y-45514066D01*
X81747232Y-45316046D01*
X81649685Y-45133550D01*
X81518410Y-44973590D01*
X81499413Y-44958000D01*
X81363157Y-44846178D01*
X81358450Y-44842315D01*
X81353079Y-44839444D01*
X81181328Y-44747640D01*
X81181323Y-44747638D01*
X81175954Y-44744768D01*
X81139356Y-44733666D01*
X80983764Y-44686468D01*
X80983759Y-44686467D01*
X80977934Y-44684700D01*
X80971875Y-44684103D01*
X80971869Y-44684102D01*
X80778061Y-44665014D01*
X80772000Y-44664417D01*
X80765939Y-44665014D01*
X80572130Y-44684102D01*
X80572122Y-44684103D01*
X80566066Y-44684700D01*
X80560242Y-44686466D01*
X80560235Y-44686468D01*
X80373877Y-44742999D01*
X80373875Y-44742999D01*
X80368046Y-44744768D01*
X80362679Y-44747636D01*
X80362671Y-44747640D01*
X80190920Y-44839444D01*
X80190915Y-44839447D01*
X80185550Y-44842315D01*
X80180846Y-44846174D01*
X80180842Y-44846178D01*
X80030296Y-44969727D01*
X80030290Y-44969732D01*
X80025590Y-44973590D01*
X80021732Y-44978290D01*
X80021727Y-44978296D01*
X79898178Y-45128842D01*
X79898174Y-45128846D01*
X79894315Y-45133550D01*
X79891447Y-45138915D01*
X79891444Y-45138920D01*
X79799640Y-45310671D01*
X79799636Y-45310679D01*
X79796768Y-45316046D01*
X79794999Y-45321875D01*
X79794999Y-45321877D01*
X79738468Y-45508235D01*
X79738466Y-45508242D01*
X79736700Y-45514066D01*
X79736103Y-45520122D01*
X79736102Y-45520130D01*
X79726352Y-45619131D01*
X79716417Y-45720000D01*
X79287583Y-45720000D01*
X79267300Y-45514066D01*
X79207232Y-45316046D01*
X79109685Y-45133550D01*
X78978410Y-44973590D01*
X78959413Y-44958000D01*
X78823157Y-44846178D01*
X78818450Y-44842315D01*
X78670732Y-44763357D01*
X78623459Y-44718790D01*
X78605211Y-44656434D01*
X78620998Y-44593411D01*
X78666486Y-44547021D01*
X78729187Y-44530000D01*
X79126518Y-44530000D01*
X79133114Y-44529646D01*
X79181665Y-44524427D01*
X79196643Y-44520887D01*
X79198576Y-44520166D01*
X79208026Y-44513604D01*
X79202155Y-44503709D01*
X77966127Y-43267681D01*
X77934033Y-43212093D01*
X77934033Y-43179998D01*
X78590431Y-43179998D01*
X78597095Y-43191541D01*
X79555709Y-44150155D01*
X79565604Y-44156026D01*
X79572166Y-44146576D01*
X79572887Y-44144643D01*
X79576427Y-44129665D01*
X79581646Y-44081114D01*
X79582000Y-44074518D01*
X79582000Y-43677187D01*
X79599021Y-43614486D01*
X79645411Y-43568998D01*
X79708434Y-43553211D01*
X79770790Y-43571459D01*
X79815357Y-43618732D01*
X79894315Y-43766450D01*
X80025590Y-43926410D01*
X80185550Y-44057685D01*
X80368046Y-44155232D01*
X80566066Y-44215300D01*
X80772000Y-44235583D01*
X80977934Y-44215300D01*
X81175954Y-44155232D01*
X81358450Y-44057685D01*
X81518410Y-43926410D01*
X81649685Y-43766450D01*
X81747232Y-43583954D01*
X81807300Y-43385934D01*
X81827583Y-43180000D01*
X81807300Y-42974066D01*
X81747232Y-42776046D01*
X81649685Y-42593550D01*
X81518410Y-42433590D01*
X81358450Y-42302315D01*
X81314616Y-42278885D01*
X81181328Y-42207640D01*
X81181323Y-42207638D01*
X81175954Y-42204768D01*
X81139356Y-42193666D01*
X80983764Y-42146468D01*
X80983759Y-42146467D01*
X80977934Y-42144700D01*
X80971875Y-42144103D01*
X80971869Y-42144102D01*
X80778061Y-42125014D01*
X80772000Y-42124417D01*
X80765939Y-42125014D01*
X80572130Y-42144102D01*
X80572122Y-42144103D01*
X80566066Y-42144700D01*
X80560242Y-42146466D01*
X80560235Y-42146468D01*
X80373877Y-42202999D01*
X80373875Y-42202999D01*
X80368046Y-42204768D01*
X80362679Y-42207636D01*
X80362671Y-42207640D01*
X80190920Y-42299444D01*
X80190915Y-42299447D01*
X80185550Y-42302315D01*
X80180846Y-42306174D01*
X80180842Y-42306178D01*
X80030296Y-42429727D01*
X80030290Y-42429732D01*
X80025590Y-42433590D01*
X80021732Y-42438290D01*
X80021727Y-42438296D01*
X79898178Y-42588842D01*
X79898174Y-42588846D01*
X79894315Y-42593550D01*
X79891447Y-42598915D01*
X79891444Y-42598920D01*
X79815358Y-42741267D01*
X79770790Y-42788541D01*
X79708434Y-42806789D01*
X79645411Y-42791002D01*
X79599021Y-42745514D01*
X79582000Y-42682813D01*
X79582000Y-42285482D01*
X79581646Y-42278885D01*
X79576427Y-42230337D01*
X79572885Y-42215352D01*
X79572165Y-42213422D01*
X79565604Y-42203972D01*
X79555710Y-42209842D01*
X78597095Y-43168456D01*
X78590431Y-43179998D01*
X77934033Y-43179998D01*
X77934033Y-43147906D01*
X77966127Y-43092319D01*
X78232000Y-42826447D01*
X79202154Y-41856290D01*
X79208783Y-41845118D01*
X79203971Y-41835506D01*
X79190977Y-41774469D01*
X79209358Y-41714834D01*
X79254458Y-41671703D01*
X79314854Y-41656000D01*
X97412000Y-41656000D01*
X97474000Y-41672613D01*
G37*
%TD.AperFunction*%
%TD*%
M02*
