%TF.GenerationSoftware,KiCad,Pcbnew,(7.0.0)*%
%TF.CreationDate,2023-10-30T13:55:28-04:00*%
%TF.ProjectId,ECE4760 Motor Driver,45434534-3736-4302-904d-6f746f722044,rev?*%
%TF.SameCoordinates,Original*%
%TF.FileFunction,Copper,L1,Top*%
%TF.FilePolarity,Positive*%
%FSLAX46Y46*%
G04 Gerber Fmt 4.6, Leading zero omitted, Abs format (unit mm)*
G04 Created by KiCad (PCBNEW (7.0.0)) date 2023-10-30 13:55:28*
%MOMM*%
%LPD*%
G01*
G04 APERTURE LIST*
G04 Aperture macros list*
%AMRoundRect*
0 Rectangle with rounded corners*
0 $1 Rounding radius*
0 $2 $3 $4 $5 $6 $7 $8 $9 X,Y pos of 4 corners*
0 Add a 4 corners polygon primitive as box body*
4,1,4,$2,$3,$4,$5,$6,$7,$8,$9,$2,$3,0*
0 Add four circle primitives for the rounded corners*
1,1,$1+$1,$2,$3*
1,1,$1+$1,$4,$5*
1,1,$1+$1,$6,$7*
1,1,$1+$1,$8,$9*
0 Add four rect primitives between the rounded corners*
20,1,$1+$1,$2,$3,$4,$5,0*
20,1,$1+$1,$4,$5,$6,$7,0*
20,1,$1+$1,$6,$7,$8,$9,0*
20,1,$1+$1,$8,$9,$2,$3,0*%
%AMRotRect*
0 Rectangle, with rotation*
0 The origin of the aperture is its center*
0 $1 length*
0 $2 width*
0 $3 Rotation angle, in degrees counterclockwise*
0 Add horizontal line*
21,1,$1,$2,0,0,$3*%
G04 Aperture macros list end*
%TA.AperFunction,SMDPad,CuDef*%
%ADD10RoundRect,0.135000X0.185000X-0.135000X0.185000X0.135000X-0.185000X0.135000X-0.185000X-0.135000X0*%
%TD*%
%TA.AperFunction,ComponentPad*%
%ADD11C,0.800000*%
%TD*%
%TA.AperFunction,ComponentPad*%
%ADD12C,5.400000*%
%TD*%
%TA.AperFunction,SMDPad,CuDef*%
%ADD13RoundRect,0.135000X-0.135000X-0.185000X0.135000X-0.185000X0.135000X0.185000X-0.135000X0.185000X0*%
%TD*%
%TA.AperFunction,SMDPad,CuDef*%
%ADD14R,0.800000X1.070000*%
%TD*%
%TA.AperFunction,SMDPad,CuDef*%
%ADD15RotRect,0.282800X0.282800X315.000000*%
%TD*%
%TA.AperFunction,SMDPad,CuDef*%
%ADD16R,0.600000X0.200000*%
%TD*%
%TA.AperFunction,SMDPad,CuDef*%
%ADD17R,0.850000X0.300000*%
%TD*%
%TA.AperFunction,SMDPad,CuDef*%
%ADD18R,0.300000X0.800000*%
%TD*%
%TA.AperFunction,SMDPad,CuDef*%
%ADD19R,0.300000X0.850000*%
%TD*%
%TA.AperFunction,SMDPad,CuDef*%
%ADD20RoundRect,0.140000X0.140000X0.170000X-0.140000X0.170000X-0.140000X-0.170000X0.140000X-0.170000X0*%
%TD*%
%TA.AperFunction,SMDPad,CuDef*%
%ADD21RoundRect,0.140000X0.170000X-0.140000X0.170000X0.140000X-0.170000X0.140000X-0.170000X-0.140000X0*%
%TD*%
%TA.AperFunction,SMDPad,CuDef*%
%ADD22RoundRect,0.135000X-0.185000X0.135000X-0.185000X-0.135000X0.185000X-0.135000X0.185000X0.135000X0*%
%TD*%
%TA.AperFunction,SMDPad,CuDef*%
%ADD23R,0.795000X0.245000*%
%TD*%
%TA.AperFunction,SMDPad,CuDef*%
%ADD24R,1.030000X0.680000*%
%TD*%
%TA.AperFunction,SMDPad,CuDef*%
%ADD25R,0.245000X0.795000*%
%TD*%
%TA.AperFunction,SMDPad,CuDef*%
%ADD26R,3.210000X1.255000*%
%TD*%
%TA.AperFunction,SMDPad,CuDef*%
%ADD27R,3.890000X0.990000*%
%TD*%
%TA.AperFunction,SMDPad,CuDef*%
%ADD28R,0.780000X0.780000*%
%TD*%
%TA.AperFunction,SMDPad,CuDef*%
%ADD29RoundRect,0.225000X0.250000X-0.225000X0.250000X0.225000X-0.250000X0.225000X-0.250000X-0.225000X0*%
%TD*%
%TA.AperFunction,SMDPad,CuDef*%
%ADD30RoundRect,0.140000X-0.170000X0.140000X-0.170000X-0.140000X0.170000X-0.140000X0.170000X0.140000X0*%
%TD*%
%TA.AperFunction,SMDPad,CuDef*%
%ADD31RoundRect,0.135000X0.135000X0.185000X-0.135000X0.185000X-0.135000X-0.185000X0.135000X-0.185000X0*%
%TD*%
%TA.AperFunction,SMDPad,CuDef*%
%ADD32RoundRect,0.140000X-0.140000X-0.170000X0.140000X-0.170000X0.140000X0.170000X-0.140000X0.170000X0*%
%TD*%
%TA.AperFunction,ComponentPad*%
%ADD33RoundRect,0.250000X-1.550000X0.650000X-1.550000X-0.650000X1.550000X-0.650000X1.550000X0.650000X0*%
%TD*%
%TA.AperFunction,ComponentPad*%
%ADD34O,3.600000X1.800000*%
%TD*%
%TA.AperFunction,SMDPad,CuDef*%
%ADD35RoundRect,0.200000X-0.250000X0.200000X-0.250000X-0.200000X0.250000X-0.200000X0.250000X0.200000X0*%
%TD*%
%TA.AperFunction,ComponentPad*%
%ADD36R,1.600000X1.600000*%
%TD*%
%TA.AperFunction,ComponentPad*%
%ADD37C,1.600000*%
%TD*%
%TA.AperFunction,SMDPad,CuDef*%
%ADD38C,0.400000*%
%TD*%
%TA.AperFunction,ComponentPad*%
%ADD39R,1.700000X1.700000*%
%TD*%
%TA.AperFunction,ComponentPad*%
%ADD40O,1.700000X1.700000*%
%TD*%
%TA.AperFunction,ViaPad*%
%ADD41C,0.350000*%
%TD*%
%TA.AperFunction,ViaPad*%
%ADD42C,0.400000*%
%TD*%
%TA.AperFunction,ViaPad*%
%ADD43C,0.300000*%
%TD*%
%TA.AperFunction,ViaPad*%
%ADD44C,0.450000*%
%TD*%
%TA.AperFunction,Conductor*%
%ADD45C,0.200000*%
%TD*%
%TA.AperFunction,Conductor*%
%ADD46C,0.381000*%
%TD*%
%TA.AperFunction,Conductor*%
%ADD47C,0.254000*%
%TD*%
G04 APERTURE END LIST*
D10*
%TO.P,R24,1*%
%TO.N,Enc_B_In-*%
X86300000Y-69610000D03*
%TO.P,R24,2*%
%TO.N,/ENC_B-*%
X86300000Y-68590000D03*
%TD*%
D11*
%TO.P,H2,1,1*%
%TO.N,GND*%
X83700000Y-43815000D03*
X84293109Y-42383109D03*
X84293109Y-45246891D03*
X85725000Y-41790000D03*
D12*
X85725000Y-43815000D03*
D11*
X85725000Y-45840000D03*
X87156891Y-42383109D03*
X87156891Y-45246891D03*
X87750000Y-43815000D03*
%TD*%
D13*
%TO.P,R15,1*%
%TO.N,GND*%
X90190000Y-49700000D03*
%TO.P,R15,2*%
%TO.N,/HALL_B*%
X91210000Y-49700000D03*
%TD*%
D14*
%TO.P,U2,1,IP+*%
%TO.N,PH1*%
X106798999Y-49606999D03*
D15*
X106998999Y-50141999D03*
D16*
X106698999Y-50241999D03*
D14*
%TO.P,U2,2,IP-*%
%TO.N,Net-(Q1-SW)*%
X105798999Y-49606999D03*
D15*
X105598999Y-50141999D03*
D16*
X105898999Y-50241999D03*
D17*
%TO.P,U2,3,GND*%
%TO.N,GND*%
X104848999Y-51156999D03*
%TO.P,U2,4,~{FAULT}*%
%TO.N,unconnected-(U2-~{FAULT}-Pad4)*%
X104848999Y-51656999D03*
D18*
%TO.P,U2,5,NC*%
%TO.N,unconnected-(U2-NC-Pad5)*%
X105548999Y-52406999D03*
D19*
%TO.P,U2,6,NC*%
%TO.N,unconnected-(U2-NC-Pad6)*%
X106048999Y-52356999D03*
%TO.P,U2,7,NC*%
%TO.N,unconnected-(U2-NC-Pad7)*%
X106548999Y-52356999D03*
D18*
%TO.P,U2,8,NC*%
%TO.N,unconnected-(U2-NC-Pad8)*%
X107048999Y-52406999D03*
D17*
%TO.P,U2,9,VIOUT*%
%TO.N,/PH1_SENSE*%
X107748999Y-51656999D03*
%TO.P,U2,10,VCC*%
%TO.N,+3V3*%
X107748999Y-51156999D03*
%TD*%
D10*
%TO.P,R27,1*%
%TO.N,Enc_I_In-*%
X88700000Y-69610000D03*
%TO.P,R27,2*%
%TO.N,/ENC_I-*%
X88700000Y-68590000D03*
%TD*%
D20*
%TO.P,C28,1*%
%TO.N,Net-(Q3-V_{PHASE})*%
X96492000Y-61849000D03*
%TO.P,C28,2*%
%TO.N,Net-(Q3-V_{BOOT})*%
X95532000Y-61849000D03*
%TD*%
D10*
%TO.P,R39,1*%
%TO.N,Lim_H_In*%
X84400000Y-76010000D03*
%TO.P,R39,2*%
%TO.N,/LIM_H*%
X84400000Y-74990000D03*
%TD*%
%TO.P,R38,1*%
%TO.N,GND*%
X89600000Y-73810000D03*
%TO.P,R38,2*%
%TO.N,/LIM_R*%
X89600000Y-72790000D03*
%TD*%
D13*
%TO.P,R6,1*%
%TO.N,+5V*%
X95502000Y-60706000D03*
%TO.P,R6,2*%
%TO.N,Net-(Q2-R_{DRV})*%
X96522000Y-60706000D03*
%TD*%
%TO.P,R12,1*%
%TO.N,Hall_A_In*%
X85590000Y-48500000D03*
%TO.P,R12,2*%
%TO.N,/HALL_A*%
X86610000Y-48500000D03*
%TD*%
D21*
%TO.P,C18,1*%
%TO.N,GND*%
X109220000Y-52423000D03*
%TO.P,C18,2*%
%TO.N,+3V3*%
X109220000Y-51463000D03*
%TD*%
D10*
%TO.P,R41,1*%
%TO.N,Lim_Aux_In*%
X88300000Y-76010000D03*
%TO.P,R41,2*%
%TO.N,/LIM_AUX*%
X88300000Y-74990000D03*
%TD*%
D22*
%TO.P,R30,1*%
%TO.N,Aux_Enc_A_In-*%
X84600000Y-52990000D03*
%TO.P,R30,2*%
%TO.N,/AUX_ENC_A-*%
X84600000Y-54010000D03*
%TD*%
D10*
%TO.P,R26,1*%
%TO.N,Enc_I_In+*%
X89899999Y-69610000D03*
%TO.P,R26,2*%
%TO.N,/ENC_I+*%
X89899999Y-68590000D03*
%TD*%
D23*
%TO.P,Q1,1,HS*%
%TO.N,/PH1_HI*%
X95872999Y-48954999D03*
%TO.P,Q1,2,LS*%
%TO.N,/PH1_LO*%
X95872999Y-49454999D03*
%TO.P,Q1,3,SD*%
%TO.N,unconnected-(Q1-SD-Pad3)*%
X95872999Y-49954999D03*
%TO.P,Q1,4,V_{DD}*%
%TO.N,Net-(Q1-V_{DD})*%
X95872999Y-50454999D03*
D24*
%TO.P,Q1,5,V_{DRV}*%
%TO.N,+5V*%
X96047999Y-51204999D03*
D25*
%TO.P,Q1,6,R_{DRV}*%
%TO.N,Net-(Q1-R_{DRV})*%
X96972999Y-51179999D03*
%TO.P,Q1,7,AGND*%
%TO.N,GND*%
X97472999Y-51179999D03*
D26*
%TO.P,Q1,8,PGND*%
X99472999Y-50929999D03*
D27*
%TO.P,Q1,9,SW*%
%TO.N,Net-(Q1-SW)*%
X99147999Y-49529999D03*
D26*
%TO.P,Q1,10,V_{PWR}*%
%TO.N,Vdrive*%
X99472999Y-48129999D03*
D25*
%TO.P,Q1,11,V_{PHASE}*%
%TO.N,Net-(Q1-V_{PHASE})*%
X97122999Y-47879999D03*
%TO.P,Q1,12,R_{BOOT}*%
%TO.N,Net-(Q1-R_{BOOT})*%
X96622999Y-47879999D03*
D28*
%TO.P,Q1,13,V_{BOOT}*%
%TO.N,Net-(Q1-V_{BOOT})*%
X95897999Y-47879999D03*
%TD*%
D29*
%TO.P,C49,1*%
%TO.N,Vdrive*%
X102870000Y-62751000D03*
%TO.P,C49,2*%
%TO.N,GND*%
X102870000Y-61201000D03*
%TD*%
D10*
%TO.P,R40,1*%
%TO.N,GND*%
X85700000Y-76010000D03*
%TO.P,R40,2*%
%TO.N,/LIM_H*%
X85700000Y-74990000D03*
%TD*%
D29*
%TO.P,C42,1*%
%TO.N,Vdrive*%
X98298000Y-54496000D03*
%TO.P,C42,2*%
%TO.N,GND*%
X98298000Y-52946000D03*
%TD*%
%TO.P,C39,1*%
%TO.N,Vdrive*%
X98298000Y-46241000D03*
%TO.P,C39,2*%
%TO.N,GND*%
X98298000Y-44691000D03*
%TD*%
D13*
%TO.P,R14,1*%
%TO.N,Hall_B_In*%
X90190000Y-48500000D03*
%TO.P,R14,2*%
%TO.N,/HALL_B*%
X91210000Y-48500000D03*
%TD*%
D29*
%TO.P,C50,1*%
%TO.N,Vdrive*%
X98298000Y-71006000D03*
%TO.P,C50,2*%
%TO.N,GND*%
X98298000Y-69456000D03*
%TD*%
D13*
%TO.P,R10,1*%
%TO.N,+5V*%
X95502000Y-77216000D03*
%TO.P,R10,2*%
%TO.N,Net-(Q4-R_{DRV})*%
X96522000Y-77216000D03*
%TD*%
D30*
%TO.P,C11,1*%
%TO.N,GND*%
X91900000Y-53520000D03*
%TO.P,C11,2*%
%TO.N,+3V3*%
X91900000Y-54480000D03*
%TD*%
D29*
%TO.P,C38,1*%
%TO.N,Vdrive*%
X99822000Y-46241000D03*
%TO.P,C38,2*%
%TO.N,GND*%
X99822000Y-44691000D03*
%TD*%
D22*
%TO.P,R33,1*%
%TO.N,Aux_Enc_B_In-*%
X87000000Y-52990000D03*
%TO.P,R33,2*%
%TO.N,/AUX_ENC_B-*%
X87000000Y-54010000D03*
%TD*%
D31*
%TO.P,R31,1*%
%TO.N,/AUX_ENC_A-*%
X84510000Y-55200000D03*
%TO.P,R31,2*%
%TO.N,/AUX_ENC_A+*%
X83490000Y-55200000D03*
%TD*%
D29*
%TO.P,C44,1*%
%TO.N,Vdrive*%
X101346000Y-54496000D03*
%TO.P,C44,2*%
%TO.N,GND*%
X101346000Y-52946000D03*
%TD*%
D13*
%TO.P,R4,1*%
%TO.N,+5V*%
X95502000Y-52451000D03*
%TO.P,R4,2*%
%TO.N,Net-(Q1-R_{DRV})*%
X96522000Y-52451000D03*
%TD*%
D32*
%TO.P,C35,1*%
%TO.N,Net-(Q4-SW)*%
X104930000Y-72898000D03*
%TO.P,C35,2*%
%TO.N,PH4*%
X105890000Y-72898000D03*
%TD*%
%TO.P,C23,1*%
%TO.N,Net-(Q2-SW)*%
X105819000Y-56388000D03*
%TO.P,C23,2*%
%TO.N,PH2*%
X106779000Y-56388000D03*
%TD*%
D31*
%TO.P,R11,1*%
%TO.N,Net-(Q4-R_{BOOT})*%
X96522000Y-71247000D03*
%TO.P,R11,2*%
%TO.N,Net-(Q4-V_{BOOT})*%
X95502000Y-71247000D03*
%TD*%
D29*
%TO.P,C48,1*%
%TO.N,Vdrive*%
X101346000Y-62751000D03*
%TO.P,C48,2*%
%TO.N,GND*%
X101346000Y-61201000D03*
%TD*%
D21*
%TO.P,C36,1*%
%TO.N,GND*%
X108331000Y-77188000D03*
%TO.P,C36,2*%
%TO.N,+3V3*%
X108331000Y-76228000D03*
%TD*%
D30*
%TO.P,C72,1*%
%TO.N,/LIM_H*%
X87000000Y-75020000D03*
%TO.P,C72,2*%
%TO.N,GND*%
X87000000Y-75980000D03*
%TD*%
D10*
%TO.P,R20,1*%
%TO.N,Enc_A_In+*%
X85100000Y-69610000D03*
%TO.P,R20,2*%
%TO.N,/ENC_A+*%
X85100000Y-68590000D03*
%TD*%
D22*
%TO.P,R29,1*%
%TO.N,Aux_Enc_A_In+*%
X83400000Y-52990000D03*
%TO.P,R29,2*%
%TO.N,/AUX_ENC_A+*%
X83400000Y-54010000D03*
%TD*%
D21*
%TO.P,C30,1*%
%TO.N,GND*%
X109220000Y-68806000D03*
%TO.P,C30,2*%
%TO.N,+3V3*%
X109220000Y-67846000D03*
%TD*%
D29*
%TO.P,C40,1*%
%TO.N,Vdrive*%
X101346000Y-46241000D03*
%TO.P,C40,2*%
%TO.N,GND*%
X101346000Y-44691000D03*
%TD*%
D13*
%TO.P,R18,1*%
%TO.N,Hall_I_In*%
X83290000Y-48500000D03*
%TO.P,R18,2*%
%TO.N,/HALL_I*%
X84310000Y-48500000D03*
%TD*%
D29*
%TO.P,C53,1*%
%TO.N,Vdrive*%
X102870000Y-71006000D03*
%TO.P,C53,2*%
%TO.N,GND*%
X102870000Y-69456000D03*
%TD*%
D10*
%TO.P,R42,1*%
%TO.N,GND*%
X89600000Y-76010000D03*
%TO.P,R42,2*%
%TO.N,/LIM_AUX*%
X89600000Y-74990000D03*
%TD*%
D11*
%TO.P,H1,1,1*%
%TO.N,GND*%
X105290000Y-43815000D03*
X105883109Y-42383109D03*
X105883109Y-45246891D03*
X107315000Y-41790000D03*
D12*
X107315000Y-43815000D03*
D11*
X107315000Y-45840000D03*
X108746891Y-42383109D03*
X108746891Y-45246891D03*
X109340000Y-43815000D03*
%TD*%
D10*
%TO.P,R36,1*%
%TO.N,GND*%
X85700000Y-73810000D03*
%TO.P,R36,2*%
%TO.N,/LIM_L*%
X85700000Y-72790000D03*
%TD*%
D30*
%TO.P,C71,1*%
%TO.N,/LIM_R*%
X90900000Y-72820000D03*
%TO.P,C71,2*%
%TO.N,GND*%
X90900000Y-73780000D03*
%TD*%
D14*
%TO.P,U4,1,IP+*%
%TO.N,PH3*%
X106798999Y-66116999D03*
D15*
X106998999Y-66651999D03*
D16*
X106698999Y-66751999D03*
D14*
%TO.P,U4,2,IP-*%
%TO.N,Net-(Q3-SW)*%
X105798999Y-66116999D03*
D15*
X105598999Y-66651999D03*
D16*
X105898999Y-66751999D03*
D17*
%TO.P,U4,3,GND*%
%TO.N,GND*%
X104848999Y-67666999D03*
%TO.P,U4,4,~{FAULT}*%
%TO.N,unconnected-(U4-~{FAULT}-Pad4)*%
X104848999Y-68166999D03*
D18*
%TO.P,U4,5,NC*%
%TO.N,unconnected-(U4-NC-Pad5)*%
X105548999Y-68916999D03*
D19*
%TO.P,U4,6,NC*%
%TO.N,unconnected-(U4-NC-Pad6)*%
X106048999Y-68866999D03*
%TO.P,U4,7,NC*%
%TO.N,unconnected-(U4-NC-Pad7)*%
X106548999Y-68866999D03*
D18*
%TO.P,U4,8,NC*%
%TO.N,unconnected-(U4-NC-Pad8)*%
X107048999Y-68916999D03*
D17*
%TO.P,U4,9,VIOUT*%
%TO.N,/PH3_SENSE*%
X107748999Y-68166999D03*
%TO.P,U4,10,VCC*%
%TO.N,+3V3*%
X107748999Y-67666999D03*
%TD*%
D22*
%TO.P,R32,1*%
%TO.N,Aux_Enc_B_In+*%
X85800000Y-52990000D03*
%TO.P,R32,2*%
%TO.N,/AUX_ENC_B+*%
X85800000Y-54010000D03*
%TD*%
D33*
%TO.P,J2,1,Pin_1*%
%TO.N,PH1*%
X114300000Y-52705000D03*
D34*
%TO.P,J2,2,Pin_2*%
%TO.N,PH2*%
X114299999Y-57784999D03*
%TO.P,J2,3,Pin_3*%
%TO.N,PH3*%
X114299999Y-62864999D03*
%TO.P,J2,4,Pin_4*%
%TO.N,PH4*%
X114299999Y-67944999D03*
%TO.P,J2,5,Pin_5*%
%TO.N,GND*%
X114299999Y-73024999D03*
%TO.P,J2,6,Pin_6*%
%TO.N,Vdrive*%
X114299999Y-78104999D03*
%TO.P,J2,7,Pin_7*%
%TO.N,+5V*%
X114299999Y-83184999D03*
%TD*%
D29*
%TO.P,C43,1*%
%TO.N,Vdrive*%
X99822000Y-54496000D03*
%TO.P,C43,2*%
%TO.N,GND*%
X99822000Y-52946000D03*
%TD*%
D10*
%TO.P,R21,1*%
%TO.N,Enc_A_In-*%
X83900000Y-69610000D03*
%TO.P,R21,2*%
%TO.N,/ENC_A-*%
X83900000Y-68590000D03*
%TD*%
D13*
%TO.P,R19,1*%
%TO.N,GND*%
X83290000Y-49700000D03*
%TO.P,R19,2*%
%TO.N,/HALL_I*%
X84310000Y-49700000D03*
%TD*%
%TO.P,R28,1*%
%TO.N,/ENC_I-*%
X88790000Y-67400000D03*
%TO.P,R28,2*%
%TO.N,/ENC_I+*%
X89810000Y-67400000D03*
%TD*%
D29*
%TO.P,C52,1*%
%TO.N,Vdrive*%
X101346000Y-71006000D03*
%TO.P,C52,2*%
%TO.N,GND*%
X101346000Y-69456000D03*
%TD*%
D13*
%TO.P,R17,1*%
%TO.N,GND*%
X87890000Y-49700000D03*
%TO.P,R17,2*%
%TO.N,/HALL_C*%
X88910000Y-49700000D03*
%TD*%
D14*
%TO.P,U6,1,IP+*%
%TO.N,PH4*%
X105909999Y-74371999D03*
D15*
X106109999Y-74906999D03*
D16*
X105809999Y-75006999D03*
D14*
%TO.P,U6,2,IP-*%
%TO.N,Net-(Q4-SW)*%
X104909999Y-74371999D03*
D15*
X104709999Y-74906999D03*
D16*
X105009999Y-75006999D03*
D17*
%TO.P,U6,3,GND*%
%TO.N,GND*%
X103959999Y-75921999D03*
%TO.P,U6,4,~{FAULT}*%
%TO.N,unconnected-(U6-~{FAULT}-Pad4)*%
X103959999Y-76421999D03*
D18*
%TO.P,U6,5,NC*%
%TO.N,unconnected-(U6-NC-Pad5)*%
X104659999Y-77171999D03*
D19*
%TO.P,U6,6,NC*%
%TO.N,unconnected-(U6-NC-Pad6)*%
X105159999Y-77121999D03*
%TO.P,U6,7,NC*%
%TO.N,unconnected-(U6-NC-Pad7)*%
X105659999Y-77121999D03*
D18*
%TO.P,U6,8,NC*%
%TO.N,unconnected-(U6-NC-Pad8)*%
X106159999Y-77171999D03*
D17*
%TO.P,U6,9,VIOUT*%
%TO.N,/PH4_SENSE*%
X106859999Y-76421999D03*
%TO.P,U6,10,VCC*%
%TO.N,+3V3*%
X106859999Y-75921999D03*
%TD*%
D13*
%TO.P,R13,1*%
%TO.N,GND*%
X85590000Y-49700000D03*
%TO.P,R13,2*%
%TO.N,/HALL_A*%
X86610000Y-49700000D03*
%TD*%
D31*
%TO.P,R5,1*%
%TO.N,Net-(Q1-R_{BOOT})*%
X96522000Y-46609000D03*
%TO.P,R5,2*%
%TO.N,Net-(Q1-V_{BOOT})*%
X95502000Y-46609000D03*
%TD*%
D29*
%TO.P,C41,1*%
%TO.N,Vdrive*%
X102870000Y-46241000D03*
%TO.P,C41,2*%
%TO.N,GND*%
X102870000Y-44691000D03*
%TD*%
D21*
%TO.P,C24,1*%
%TO.N,GND*%
X109220000Y-60678000D03*
%TO.P,C24,2*%
%TO.N,+3V3*%
X109220000Y-59718000D03*
%TD*%
D10*
%TO.P,R23,1*%
%TO.N,Enc_B_In+*%
X87500000Y-69610000D03*
%TO.P,R23,2*%
%TO.N,/ENC_B+*%
X87500000Y-68590000D03*
%TD*%
D23*
%TO.P,Q4,1,HS*%
%TO.N,/PH4_HI*%
X95872999Y-73719999D03*
%TO.P,Q4,2,LS*%
%TO.N,/PH4_LO*%
X95872999Y-74219999D03*
%TO.P,Q4,3,SD*%
%TO.N,unconnected-(Q4-SD-Pad3)*%
X95872999Y-74719999D03*
%TO.P,Q4,4,V_{DD}*%
%TO.N,Net-(Q4-V_{DD})*%
X95872999Y-75219999D03*
D24*
%TO.P,Q4,5,V_{DRV}*%
%TO.N,+5V*%
X96047999Y-75969999D03*
D25*
%TO.P,Q4,6,R_{DRV}*%
%TO.N,Net-(Q4-R_{DRV})*%
X96972999Y-75944999D03*
%TO.P,Q4,7,AGND*%
%TO.N,GND*%
X97472999Y-75944999D03*
D26*
%TO.P,Q4,8,PGND*%
X99472999Y-75694999D03*
D27*
%TO.P,Q4,9,SW*%
%TO.N,Net-(Q4-SW)*%
X99147999Y-74294999D03*
D26*
%TO.P,Q4,10,V_{PWR}*%
%TO.N,Vdrive*%
X99472999Y-72894999D03*
D25*
%TO.P,Q4,11,V_{PHASE}*%
%TO.N,Net-(Q4-V_{PHASE})*%
X97122999Y-72644999D03*
%TO.P,Q4,12,R_{BOOT}*%
%TO.N,Net-(Q4-R_{BOOT})*%
X96622999Y-72644999D03*
D28*
%TO.P,Q4,13,V_{BOOT}*%
%TO.N,Net-(Q4-V_{BOOT})*%
X95897999Y-72644999D03*
%TD*%
D10*
%TO.P,R35,1*%
%TO.N,Lim_L_In*%
X84400000Y-73810000D03*
%TO.P,R35,2*%
%TO.N,/LIM_L*%
X84400000Y-72790000D03*
%TD*%
D20*
%TO.P,C22,1*%
%TO.N,Net-(Q2-V_{PHASE})*%
X96492000Y-53594000D03*
%TO.P,C22,2*%
%TO.N,Net-(Q2-V_{BOOT})*%
X95532000Y-53594000D03*
%TD*%
%TO.P,C67,1*%
%TO.N,/HALL_B*%
X91180000Y-50900000D03*
%TO.P,C67,2*%
%TO.N,GND*%
X90220000Y-50900000D03*
%TD*%
D14*
%TO.P,U3,1,IP+*%
%TO.N,PH2*%
X106798999Y-57861999D03*
D15*
X106998999Y-58396999D03*
D16*
X106698999Y-58496999D03*
D14*
%TO.P,U3,2,IP-*%
%TO.N,Net-(Q2-SW)*%
X105798999Y-57861999D03*
D15*
X105598999Y-58396999D03*
D16*
X105898999Y-58496999D03*
D17*
%TO.P,U3,3,GND*%
%TO.N,GND*%
X104848999Y-59411999D03*
%TO.P,U3,4,~{FAULT}*%
%TO.N,unconnected-(U3-~{FAULT}-Pad4)*%
X104848999Y-59911999D03*
D18*
%TO.P,U3,5,NC*%
%TO.N,unconnected-(U3-NC-Pad5)*%
X105548999Y-60661999D03*
D19*
%TO.P,U3,6,NC*%
%TO.N,unconnected-(U3-NC-Pad6)*%
X106048999Y-60611999D03*
%TO.P,U3,7,NC*%
%TO.N,unconnected-(U3-NC-Pad7)*%
X106548999Y-60611999D03*
D18*
%TO.P,U3,8,NC*%
%TO.N,unconnected-(U3-NC-Pad8)*%
X107048999Y-60661999D03*
D17*
%TO.P,U3,9,VIOUT*%
%TO.N,/PH2_SENSE*%
X107748999Y-59911999D03*
%TO.P,U3,10,VCC*%
%TO.N,+3V3*%
X107748999Y-59411999D03*
%TD*%
D20*
%TO.P,C68,1*%
%TO.N,/HALL_C*%
X88880000Y-50900000D03*
%TO.P,C68,2*%
%TO.N,GND*%
X87920000Y-50900000D03*
%TD*%
D32*
%TO.P,C17,1*%
%TO.N,Net-(Q1-SW)*%
X105819000Y-48133000D03*
%TO.P,C17,2*%
%TO.N,PH1*%
X106779000Y-48133000D03*
%TD*%
D31*
%TO.P,R7,1*%
%TO.N,Net-(Q2-R_{BOOT})*%
X96522000Y-54737000D03*
%TO.P,R7,2*%
%TO.N,Net-(Q2-V_{BOOT})*%
X95502000Y-54737000D03*
%TD*%
D20*
%TO.P,C34,1*%
%TO.N,Net-(Q4-V_{PHASE})*%
X96492000Y-70104000D03*
%TO.P,C34,2*%
%TO.N,Net-(Q4-V_{BOOT})*%
X95532000Y-70104000D03*
%TD*%
D11*
%TO.P,H4,1,1*%
%TO.N,GND*%
X83700000Y-83185000D03*
X84293109Y-81753109D03*
X84293109Y-84616891D03*
X85725000Y-81160000D03*
D12*
X85725000Y-83185000D03*
D11*
X85725000Y-85210000D03*
X87156891Y-81753109D03*
X87156891Y-84616891D03*
X87750000Y-83185000D03*
%TD*%
D20*
%TO.P,C16,1*%
%TO.N,Net-(Q1-V_{PHASE})*%
X96492000Y-45466000D03*
%TO.P,C16,2*%
%TO.N,Net-(Q1-V_{BOOT})*%
X95532000Y-45466000D03*
%TD*%
D35*
%TO.P,X1,1,Tri-State*%
%TO.N,unconnected-(X1-Tri-State-Pad1)*%
X90425000Y-53475000D03*
%TO.P,X1,2,GND*%
%TO.N,GND*%
X88575000Y-53475000D03*
%TO.P,X1,3,OUT*%
%TO.N,/OSC_IN*%
X88575000Y-54925000D03*
%TO.P,X1,4,VDD*%
%TO.N,+3V3*%
X90425000Y-54925000D03*
%TD*%
D36*
%TO.P,C1,1*%
%TO.N,Vdrive*%
X112532348Y-45084999D03*
D37*
%TO.P,C1,2*%
%TO.N,GND*%
X117532349Y-45085000D03*
%TD*%
D20*
%TO.P,C66,1*%
%TO.N,/HALL_A*%
X86580000Y-50900000D03*
%TO.P,C66,2*%
%TO.N,GND*%
X85620000Y-50900000D03*
%TD*%
D31*
%TO.P,R34,1*%
%TO.N,/AUX_ENC_B-*%
X86910000Y-55200000D03*
%TO.P,R34,2*%
%TO.N,/AUX_ENC_B+*%
X85890000Y-55200000D03*
%TD*%
D11*
%TO.P,H3,1,1*%
%TO.N,GND*%
X105290000Y-83185000D03*
X105883109Y-81753109D03*
X105883109Y-84616891D03*
X107315000Y-81160000D03*
D12*
X107315000Y-83185000D03*
D11*
X107315000Y-85210000D03*
X108746891Y-81753109D03*
X108746891Y-84616891D03*
X109340000Y-83185000D03*
%TD*%
D31*
%TO.P,R9,1*%
%TO.N,Net-(Q3-R_{BOOT})*%
X96522000Y-62992000D03*
%TO.P,R9,2*%
%TO.N,Net-(Q3-V_{BOOT})*%
X95502000Y-62992000D03*
%TD*%
D23*
%TO.P,Q2,1,HS*%
%TO.N,/PH2_HI*%
X95872999Y-57209999D03*
%TO.P,Q2,2,LS*%
%TO.N,/PH2_LO*%
X95872999Y-57709999D03*
%TO.P,Q2,3,SD*%
%TO.N,unconnected-(Q2-SD-Pad3)*%
X95872999Y-58209999D03*
%TO.P,Q2,4,V_{DD}*%
%TO.N,Net-(Q2-V_{DD})*%
X95872999Y-58709999D03*
D24*
%TO.P,Q2,5,V_{DRV}*%
%TO.N,+5V*%
X96047999Y-59459999D03*
D25*
%TO.P,Q2,6,R_{DRV}*%
%TO.N,Net-(Q2-R_{DRV})*%
X96972999Y-59434999D03*
%TO.P,Q2,7,AGND*%
%TO.N,GND*%
X97472999Y-59434999D03*
D26*
%TO.P,Q2,8,PGND*%
X99472999Y-59184999D03*
D27*
%TO.P,Q2,9,SW*%
%TO.N,Net-(Q2-SW)*%
X99147999Y-57784999D03*
D26*
%TO.P,Q2,10,V_{PWR}*%
%TO.N,Vdrive*%
X99472999Y-56384999D03*
D25*
%TO.P,Q2,11,V_{PHASE}*%
%TO.N,Net-(Q2-V_{PHASE})*%
X97122999Y-56134999D03*
%TO.P,Q2,12,R_{BOOT}*%
%TO.N,Net-(Q2-R_{BOOT})*%
X96622999Y-56134999D03*
D28*
%TO.P,Q2,13,V_{BOOT}*%
%TO.N,Net-(Q2-V_{BOOT})*%
X95897999Y-56134999D03*
%TD*%
D13*
%TO.P,R25,1*%
%TO.N,/ENC_B-*%
X86390000Y-67400000D03*
%TO.P,R25,2*%
%TO.N,/ENC_B+*%
X87410000Y-67400000D03*
%TD*%
D29*
%TO.P,C51,1*%
%TO.N,Vdrive*%
X99822000Y-71006000D03*
%TO.P,C51,2*%
%TO.N,GND*%
X99822000Y-69456000D03*
%TD*%
D13*
%TO.P,R22,1*%
%TO.N,/ENC_A-*%
X83990000Y-67400000D03*
%TO.P,R22,2*%
%TO.N,/ENC_A+*%
X85010000Y-67400000D03*
%TD*%
%TO.P,R8,1*%
%TO.N,+5V*%
X95502000Y-68961000D03*
%TO.P,R8,2*%
%TO.N,Net-(Q3-R_{DRV})*%
X96522000Y-68961000D03*
%TD*%
D30*
%TO.P,C73,1*%
%TO.N,/LIM_AUX*%
X90900000Y-75020000D03*
%TO.P,C73,2*%
%TO.N,GND*%
X90900000Y-75980000D03*
%TD*%
D29*
%TO.P,C46,1*%
%TO.N,Vdrive*%
X98298000Y-62751000D03*
%TO.P,C46,2*%
%TO.N,GND*%
X98298000Y-61201000D03*
%TD*%
D32*
%TO.P,C29,1*%
%TO.N,Net-(Q3-SW)*%
X105819000Y-64643000D03*
%TO.P,C29,2*%
%TO.N,PH3*%
X106779000Y-64643000D03*
%TD*%
D23*
%TO.P,Q3,1,HS*%
%TO.N,/PH3_HI*%
X95872999Y-65464999D03*
%TO.P,Q3,2,LS*%
%TO.N,/PH3_LO*%
X95872999Y-65964999D03*
%TO.P,Q3,3,SD*%
%TO.N,unconnected-(Q3-SD-Pad3)*%
X95872999Y-66464999D03*
%TO.P,Q3,4,V_{DD}*%
%TO.N,Net-(Q3-V_{DD})*%
X95872999Y-66964999D03*
D24*
%TO.P,Q3,5,V_{DRV}*%
%TO.N,+5V*%
X96047999Y-67714999D03*
D25*
%TO.P,Q3,6,R_{DRV}*%
%TO.N,Net-(Q3-R_{DRV})*%
X96972999Y-67689999D03*
%TO.P,Q3,7,AGND*%
%TO.N,GND*%
X97472999Y-67689999D03*
D26*
%TO.P,Q3,8,PGND*%
X99472999Y-67439999D03*
D27*
%TO.P,Q3,9,SW*%
%TO.N,Net-(Q3-SW)*%
X99147999Y-66039999D03*
D26*
%TO.P,Q3,10,V_{PWR}*%
%TO.N,Vdrive*%
X99472999Y-64639999D03*
D25*
%TO.P,Q3,11,V_{PHASE}*%
%TO.N,Net-(Q3-V_{PHASE})*%
X97122999Y-64389999D03*
%TO.P,Q3,12,R_{BOOT}*%
%TO.N,Net-(Q3-R_{BOOT})*%
X96622999Y-64389999D03*
D28*
%TO.P,Q3,13,V_{BOOT}*%
%TO.N,Net-(Q3-V_{BOOT})*%
X95897999Y-64389999D03*
%TD*%
D38*
%TO.P,U1,A1,TIM20_CH1N*%
%TO.N,/PH1_LO*%
X91600000Y-57400000D03*
%TO.P,U1,A2,PB9*%
%TO.N,unconnected-(U1-PB9-PadA2)*%
X91600000Y-58200000D03*
%TO.P,U1,A3,PB8*%
%TO.N,/BOOT_SELECT*%
X91600000Y-59000000D03*
%TO.P,U1,A4,PB6*%
%TO.N,unconnected-(U1-PB6-PadA4)*%
X91600000Y-59800000D03*
%TO.P,U1,A5,PB3*%
%TO.N,/HALL_A*%
X91600000Y-60600000D03*
%TO.P,U1,A6,PD6*%
%TO.N,/HALL_C*%
X91600000Y-61400000D03*
%TO.P,U1,A7,PD5*%
%TO.N,unconnected-(U1-PD5-PadA7)*%
X91600000Y-62200000D03*
%TO.P,U1,A8,TIM2_CH2*%
%TO.N,/HALL_B*%
X91600000Y-63000000D03*
%TO.P,U1,A9,FDCAN1_TX*%
%TO.N,unconnected-(U1-PD1-PadA9)*%
X91600000Y-63800000D03*
%TO.P,U1,A10,UART5_TX*%
%TO.N,/UART_TX*%
X91600000Y-64600000D03*
%TO.P,U1,B1,TIM20_CH2N*%
%TO.N,/PH2_LO*%
X90800000Y-57400000D03*
%TO.P,U1,B2,TIM20_CH2*%
%TO.N,/PH2_HI*%
X90800000Y-58200000D03*
%TO.P,U1,B3,TIM20_CH4*%
%TO.N,/PH4_HI*%
X90800000Y-59000000D03*
%TO.P,U1,B4,PB7*%
%TO.N,unconnected-(U1-PB7-PadB4)*%
X90800000Y-59800000D03*
%TO.P,U1,B5,PB5*%
%TO.N,/HALL_A*%
X90800000Y-60600000D03*
%TO.P,U1,B6,TIM2_CH3*%
%TO.N,/HALL_C*%
X90800000Y-61400000D03*
%TO.P,U1,B7,UART5_RX*%
%TO.N,/UART_RX*%
X90800000Y-62200000D03*
%TO.P,U1,B8,FDCAN1_RX*%
%TO.N,unconnected-(U1-PD0-PadB8)*%
X90800000Y-63000000D03*
%TO.P,U1,B9,PA15*%
%TO.N,unconnected-(U1-PA15-PadB9)*%
X90800000Y-63800000D03*
%TO.P,U1,B10,SYS_JTCK-SWCLK*%
%TO.N,/SWCLK*%
X90800000Y-64600000D03*
%TO.P,U1,C1,PC14*%
%TO.N,unconnected-(U1-PC14-PadC1)*%
X90000000Y-57400000D03*
%TO.P,U1,C2,TIM20_CH3N*%
%TO.N,/PH3_LO*%
X90000000Y-58200000D03*
%TO.P,U1,C3,TIM20_CH1*%
%TO.N,/PH1_HI*%
X90000000Y-59000000D03*
%TO.P,U1,C4,TIM20_CH4N*%
%TO.N,/PH4_LO*%
X90000000Y-59800000D03*
%TO.P,U1,C5,PB4*%
%TO.N,unconnected-(U1-PB4-PadC5)*%
X90000000Y-60600000D03*
%TO.P,U1,C6,TIM2_CH1*%
%TO.N,/HALL_A*%
X90000000Y-61400000D03*
%TO.P,U1,C7,PC11*%
%TO.N,unconnected-(U1-PC11-PadC7)*%
X90000000Y-62200000D03*
%TO.P,U1,C8,PC10*%
%TO.N,/LIM_AUX*%
X90000000Y-63000000D03*
%TO.P,U1,C9,USB_DP*%
%TO.N,/USB_D+*%
X90000000Y-63800000D03*
%TO.P,U1,C10,USB_DM*%
%TO.N,/USB_D-*%
X90000000Y-64600000D03*
%TO.P,U1,D1,PC15*%
%TO.N,unconnected-(U1-PC15-PadD1)*%
X89200000Y-57400000D03*
%TO.P,U1,D2,VSS*%
%TO.N,GND*%
X89200000Y-58200000D03*
%TO.P,U1,D3,VBAT*%
%TO.N,+3V3*%
X89200000Y-59000000D03*
%TO.P,U1,D4,PC13*%
%TO.N,unconnected-(U1-PC13-PadD4)*%
X89200000Y-59800000D03*
%TO.P,U1,D5,VDD*%
%TO.N,+3V3*%
X89200000Y-60600000D03*
%TO.P,U1,D6,VSS*%
%TO.N,GND*%
X89200000Y-61400000D03*
%TO.P,U1,D7,VDD*%
%TO.N,+3V3*%
X89200000Y-62200000D03*
%TO.P,U1,D8,SYS_JTMS-SWDIO*%
%TO.N,/SWDIO*%
X89200000Y-63000000D03*
%TO.P,U1,D9,PA10*%
X89200000Y-63800000D03*
%TO.P,U1,D10,PA9*%
X89200000Y-64600000D03*
%TO.P,U1,E1,RCC_OSC_IN*%
%TO.N,/OSC_IN*%
X88400000Y-57400000D03*
%TO.P,U1,E2,PF1*%
%TO.N,unconnected-(U1-PF1-PadE2)*%
X88400000Y-58200000D03*
%TO.P,U1,E3,PF9*%
%TO.N,unconnected-(U1-PF9-PadE3)*%
X88400000Y-59000000D03*
%TO.P,U1,E4,PF10*%
%TO.N,GND*%
X88400000Y-59800000D03*
%TO.P,U1,E5,VSS*%
X88400000Y-60600000D03*
%TO.P,U1,E6,VSS*%
X88400000Y-61400000D03*
%TO.P,U1,E7,VSS*%
X88400000Y-62200000D03*
%TO.P,U1,E8,TIM20_CH3*%
%TO.N,/PH3_HI*%
X88400000Y-63000000D03*
%TO.P,U1,E9,PC9*%
%TO.N,/LIM_R*%
X88400000Y-63800000D03*
%TO.P,U1,E10,PA8*%
%TO.N,/LIM_H*%
X88400000Y-64600000D03*
%TO.P,U1,F1,PC2*%
%TO.N,+3V3*%
X87600000Y-57400000D03*
%TO.P,U1,F2,PC0*%
%TO.N,unconnected-(U1-PC0-PadF2)*%
X87600000Y-58200000D03*
%TO.P,U1,F3,RCC_MCO*%
%TO.N,/~{RST}*%
X87600000Y-59000000D03*
%TO.P,U1,F4,PC1*%
%TO.N,+3V3*%
X87600000Y-59800000D03*
%TO.P,U1,F5,VDD*%
X87600000Y-60600000D03*
%TO.P,U1,F6,VSS*%
%TO.N,GND*%
X87600000Y-61400000D03*
%TO.P,U1,F7,VDD*%
%TO.N,+3V3*%
X87600000Y-62200000D03*
%TO.P,U1,F8,OPAMP2_VINP*%
%TO.N,/PH1_SENSE*%
X87600000Y-63000000D03*
%TO.P,U1,F9,PC6*%
%TO.N,/LIM_L*%
X87600000Y-63800000D03*
%TO.P,U1,F10,PC7*%
%TO.N,/ENC_I+*%
X87600000Y-64600000D03*
%TO.P,U1,G1,PC3*%
%TO.N,/HALL_I*%
X86800000Y-57400000D03*
%TO.P,U1,G2,COMP1_INP*%
%TO.N,Net-(U1-PA1)*%
X86800000Y-58200000D03*
%TO.P,U1,G3,PF2*%
%TO.N,GND*%
X86800000Y-59000000D03*
%TO.P,U1,G4,PA0*%
%TO.N,unconnected-(U1-PA0-PadG4)*%
X86800000Y-59800000D03*
%TO.P,U1,G5,PE7*%
%TO.N,unconnected-(U1-PE7-PadG5)*%
X86800000Y-60600000D03*
%TO.P,U1,G6,SPI4_SCK*%
%TO.N,/AUX_ENC_A+*%
X86800000Y-61400000D03*
%TO.P,U1,G7,PD10*%
%TO.N,unconnected-(U1-PD10-PadG7)*%
X86800000Y-62200000D03*
%TO.P,U1,G8,OPAMP6_VINP*%
%TO.N,/PH2_SENSE*%
X86800000Y-63000000D03*
%TO.P,U1,G9,PD13*%
%TO.N,/ENC_I+*%
X86800000Y-63800000D03*
%TO.P,U1,G10,COMP7_INM*%
%TO.N,/ENC_I-*%
X86800000Y-64600000D03*
%TO.P,U1,H1,COMP2_OUT*%
%TO.N,/AUX_ENC_B*%
X86000000Y-57400000D03*
%TO.P,U1,H2,COMP1_INM*%
%TO.N,/AUX_ENC_A+*%
X86000000Y-58200000D03*
%TO.P,U1,H3,PA3*%
%TO.N,unconnected-(U1-PA3-PadH3)*%
X86000000Y-59000000D03*
%TO.P,U1,H4,COMP4_INP*%
%TO.N,/AUX_ENC_A+*%
X86000000Y-59800000D03*
%TO.P,U1,H5,PE8*%
%TO.N,GND*%
X86000000Y-60600000D03*
%TO.P,U1,H6,PE9*%
%TO.N,unconnected-(U1-PE9-PadH6)*%
X86000000Y-61400000D03*
%TO.P,U1,H7,PE15*%
%TO.N,unconnected-(U1-PE15-PadH7)*%
X86000000Y-62200000D03*
%TO.P,U1,H8,OPAMP4_VINP*%
%TO.N,/PH3_SENSE*%
X86000000Y-63000000D03*
%TO.P,U1,H9,COMP7_INP*%
%TO.N,/ENC_I+*%
X86000000Y-63800000D03*
%TO.P,U1,H10,COMP6_INP*%
%TO.N,/ENC_B+*%
X86000000Y-64600000D03*
%TO.P,U1,J1,COMP2_INM*%
%TO.N,/AUX_ENC_B-*%
X85200000Y-57400000D03*
%TO.P,U1,J2,COMP1_OUT*%
%TO.N,/AUX_ENC_A-*%
X85200000Y-58200000D03*
%TO.P,U1,J3,PC5*%
%TO.N,/AUX_ENC_A+*%
X85200000Y-59000000D03*
%TO.P,U1,J4,COMP4_INM*%
%TO.N,/AUX_ENC_A-*%
X85200000Y-59800000D03*
%TO.P,U1,J5,VDDA*%
%TO.N,+3V3*%
X85200000Y-60600000D03*
%TO.P,U1,J6,PE11*%
%TO.N,~{Abort}*%
X85200000Y-61400000D03*
%TO.P,U1,J7,PE14*%
%TO.N,LED_2*%
X85200000Y-62200000D03*
%TO.P,U1,J8,COMP5_INM*%
%TO.N,/ENC_A-*%
X85200000Y-63000000D03*
%TO.P,U1,J9,OPAMP3_VINP*%
%TO.N,/PH4_SENSE*%
X85200000Y-63800000D03*
%TO.P,U1,J10,COMP5_INP*%
%TO.N,/ENC_A+*%
X85200000Y-64600000D03*
%TO.P,U1,K1,COMP2_INP*%
%TO.N,/AUX_ENC_B+*%
X84400000Y-57400000D03*
%TO.P,U1,K2,PC4*%
%TO.N,/AUX_ENC_A-*%
X84400000Y-58200000D03*
%TO.P,U1,K3,PB1*%
%TO.N,/AUX_ENC_A+*%
X84400000Y-59000000D03*
%TO.P,U1,K4,VSSA*%
%TO.N,GND*%
X84400000Y-59800000D03*
%TO.P,U1,K5,VREF+*%
%TO.N,+3V3*%
X84400000Y-60600000D03*
%TO.P,U1,K6,PE10*%
%TO.N,~{Fault_Enable}*%
X84400000Y-61400000D03*
%TO.P,U1,K7,SPI4_MISO*%
%TO.N,/AUX_ENC_B*%
X84400000Y-62200000D03*
%TO.P,U1,K8,PB12*%
%TO.N,/ENC_A-*%
X84400000Y-63000000D03*
%TO.P,U1,K9,COMP6_INM*%
%TO.N,/ENC_B-*%
X84400000Y-63800000D03*
%TO.P,U1,K10,PD8*%
%TO.N,LED_1*%
X84400000Y-64600000D03*
%TD*%
D29*
%TO.P,C45,1*%
%TO.N,Vdrive*%
X102870000Y-54496000D03*
%TO.P,C45,2*%
%TO.N,GND*%
X102870000Y-52946000D03*
%TD*%
D13*
%TO.P,R16,1*%
%TO.N,Hall_C_In*%
X87890000Y-48500000D03*
%TO.P,R16,2*%
%TO.N,/HALL_C*%
X88910000Y-48500000D03*
%TD*%
D20*
%TO.P,C69,1*%
%TO.N,/HALL_I*%
X84280000Y-50900000D03*
%TO.P,C69,2*%
%TO.N,GND*%
X83320000Y-50900000D03*
%TD*%
D30*
%TO.P,C70,1*%
%TO.N,/LIM_L*%
X87000000Y-72820000D03*
%TO.P,C70,2*%
%TO.N,GND*%
X87000000Y-73780000D03*
%TD*%
D29*
%TO.P,C47,1*%
%TO.N,Vdrive*%
X99822000Y-62751000D03*
%TO.P,C47,2*%
%TO.N,GND*%
X99822000Y-61201000D03*
%TD*%
D10*
%TO.P,R37,1*%
%TO.N,Lim_R_In*%
X88300000Y-73810000D03*
%TO.P,R37,2*%
%TO.N,/LIM_R*%
X88300000Y-72790000D03*
%TD*%
D39*
%TO.P,J6,1,Pin_1*%
%TO.N,/BOOT_SELECT*%
X100583999Y-41909999D03*
D40*
%TO.P,J6,2,Pin_2*%
%TO.N,GND*%
X103123999Y-41909999D03*
%TD*%
D39*
%TO.P,J1,1,Pin_1*%
%TO.N,GND*%
X78231999Y-43179999D03*
D40*
%TO.P,J1,2,Pin_2*%
%TO.N,+5V*%
X80771999Y-43179999D03*
%TO.P,J1,3,Pin_3*%
%TO.N,Hall_C_In*%
X78231999Y-45719999D03*
%TO.P,J1,4,Pin_4*%
%TO.N,Hall_B_In*%
X80771999Y-45719999D03*
%TO.P,J1,5,Pin_5*%
%TO.N,Hall_I_In*%
X78231999Y-48259999D03*
%TO.P,J1,6,Pin_6*%
%TO.N,Hall_A_In*%
X80771999Y-48259999D03*
%TO.P,J1,7,Pin_7*%
%TO.N,GND*%
X78231999Y-50799999D03*
%TO.P,J1,8,Pin_8*%
%TO.N,+5V*%
X80771999Y-50799999D03*
%TO.P,J1,9,Pin_9*%
%TO.N,Aux_Enc_B_In-*%
X78231999Y-53339999D03*
%TO.P,J1,10,Pin_10*%
%TO.N,Aux_Enc_B_In+*%
X80771999Y-53339999D03*
%TO.P,J1,11,Pin_11*%
%TO.N,Aux_Enc_A_In-*%
X78231999Y-55879999D03*
%TO.P,J1,12,Pin_12*%
%TO.N,Aux_Enc_A_In+*%
X80771999Y-55879999D03*
%TO.P,J1,13,Pin_13*%
%TO.N,GND*%
X78231999Y-58419999D03*
%TO.P,J1,14,Pin_14*%
%TO.N,+5V*%
X80771999Y-58419999D03*
%TO.P,J1,15,Pin_15*%
%TO.N,~{Abort}*%
X78231999Y-60959999D03*
%TO.P,J1,16,Pin_16*%
%TO.N,~{Fault_Enable}*%
X80771999Y-60959999D03*
%TO.P,J1,17,Pin_17*%
%TO.N,LED_1*%
X78231999Y-63499999D03*
%TO.P,J1,18,Pin_18*%
%TO.N,LED_2*%
X80771999Y-63499999D03*
%TO.P,J1,19,Pin_19*%
%TO.N,GND*%
X78231999Y-66039999D03*
%TO.P,J1,20,Pin_20*%
%TO.N,+3V3*%
X80771999Y-66039999D03*
%TO.P,J1,21,Pin_21*%
%TO.N,Enc_A_In+*%
X78231999Y-68579999D03*
%TO.P,J1,22,Pin_22*%
%TO.N,Enc_A_In-*%
X80771999Y-68579999D03*
%TO.P,J1,23,Pin_23*%
%TO.N,Enc_B_In+*%
X78231999Y-71119999D03*
%TO.P,J1,24,Pin_24*%
%TO.N,Enc_B_In-*%
X80771999Y-71119999D03*
%TO.P,J1,25,Pin_25*%
%TO.N,Enc_I_In+*%
X78231999Y-73659999D03*
%TO.P,J1,26,Pin_26*%
%TO.N,Enc_I_In-*%
X80771999Y-73659999D03*
%TO.P,J1,27,Pin_27*%
%TO.N,GND*%
X78231999Y-76199999D03*
%TO.P,J1,28,Pin_28*%
%TO.N,+5V*%
X80771999Y-76199999D03*
%TO.P,J1,29,Pin_29*%
%TO.N,Lim_L_In*%
X78231999Y-78739999D03*
%TO.P,J1,30,Pin_30*%
%TO.N,Lim_H_In*%
X80771999Y-78739999D03*
%TO.P,J1,31,Pin_31*%
%TO.N,Lim_R_In*%
X78231999Y-81279999D03*
%TO.P,J1,32,Pin_32*%
%TO.N,Lim_Aux_In*%
X80771999Y-81279999D03*
%TO.P,J1,33,Pin_33*%
%TO.N,GND*%
X78231999Y-83819999D03*
%TO.P,J1,34,Pin_34*%
%TO.N,+5V*%
X80771999Y-83819999D03*
%TD*%
D39*
%TO.P,J100,1,Pin_1*%
%TO.N,PH1*%
X113029999Y-51434999D03*
D40*
%TO.P,J100,2,Pin_2*%
X115569999Y-51434999D03*
%TO.P,J100,3,Pin_3*%
X113029999Y-53974999D03*
%TO.P,J100,4,Pin_4*%
X115569999Y-53974999D03*
%TO.P,J100,5,Pin_5*%
%TO.N,PH2*%
X113029999Y-56514999D03*
%TO.P,J100,6,Pin_6*%
X115569999Y-56514999D03*
%TO.P,J100,7,Pin_7*%
X113029999Y-59054999D03*
%TO.P,J100,8,Pin_8*%
X115569999Y-59054999D03*
%TO.P,J100,9,Pin_9*%
%TO.N,PH3*%
X113029999Y-61594999D03*
%TO.P,J100,10,Pin_10*%
X115569999Y-61594999D03*
%TO.P,J100,11,Pin_11*%
X113029999Y-64134999D03*
%TO.P,J100,12,Pin_12*%
X115569999Y-64134999D03*
%TO.P,J100,13,Pin_13*%
%TO.N,PH4*%
X113029999Y-66674999D03*
%TO.P,J100,14,Pin_14*%
X115569999Y-66674999D03*
%TO.P,J100,15,Pin_15*%
X113029999Y-69214999D03*
%TO.P,J100,16,Pin_16*%
X115569999Y-69214999D03*
%TO.P,J100,17,Pin_17*%
%TO.N,GND*%
X113029999Y-71754999D03*
%TO.P,J100,18,Pin_18*%
X115569999Y-71754999D03*
%TO.P,J100,19,Pin_19*%
X113029999Y-74294999D03*
%TO.P,J100,20,Pin_20*%
X115569999Y-74294999D03*
%TO.P,J100,21,Pin_21*%
%TO.N,Vdrive*%
X113029999Y-76834999D03*
%TO.P,J100,22,Pin_22*%
X115569999Y-76834999D03*
%TO.P,J100,23,Pin_23*%
X113029999Y-79374999D03*
%TO.P,J100,24,Pin_24*%
X115569999Y-79374999D03*
%TO.P,J100,25,Pin_25*%
%TO.N,+5V*%
X113029999Y-81914999D03*
%TO.P,J100,26,Pin_26*%
X115569999Y-81914999D03*
%TO.P,J100,27,Pin_27*%
X113029999Y-84454999D03*
%TO.P,J100,28,Pin_28*%
X115569999Y-84454999D03*
%TD*%
D41*
%TO.N,GND*%
X100711000Y-75311000D03*
D42*
X85590000Y-49700000D03*
X102616000Y-52705000D03*
X101600000Y-69723000D03*
D41*
X100203000Y-67056000D03*
D42*
X101600000Y-69215000D03*
D41*
X99695000Y-50546000D03*
X98171000Y-76073000D03*
X100711000Y-67056000D03*
D42*
X102616000Y-53213000D03*
X102616000Y-61468000D03*
X106400000Y-78200000D03*
X102616000Y-69723000D03*
D43*
X88800000Y-61000000D03*
D42*
X100076000Y-52705000D03*
D41*
X99949000Y-50927000D03*
X100457000Y-67437000D03*
D42*
X101092000Y-44450000D03*
D41*
X99441000Y-50927000D03*
D44*
X87000000Y-73800000D03*
D42*
X100076000Y-69723000D03*
X103124000Y-52705000D03*
D44*
X88200000Y-53500000D03*
D41*
X100203000Y-58801000D03*
D44*
X89600000Y-76000000D03*
D43*
X88800000Y-57800000D03*
D42*
X86800000Y-59000000D03*
X100076000Y-44450000D03*
D44*
X108331000Y-77188000D03*
D41*
X99695000Y-75311000D03*
X100711000Y-51308000D03*
D42*
X103124000Y-61468000D03*
D41*
X100711000Y-50546000D03*
D44*
X90900000Y-76000000D03*
D42*
X83290000Y-49700000D03*
D41*
X98933000Y-59182000D03*
D42*
X101092000Y-53213000D03*
X103124000Y-69723000D03*
D41*
X98679000Y-51308000D03*
X98171000Y-59563000D03*
X99187000Y-51308000D03*
D42*
X107800000Y-70000000D03*
D41*
X98171000Y-67818000D03*
D42*
X101092000Y-44958000D03*
D44*
X97473000Y-76581000D03*
D41*
X98679000Y-59563000D03*
D42*
X87920000Y-50900000D03*
X88400000Y-59800000D03*
D41*
X100203000Y-76073000D03*
X100711000Y-58801000D03*
X98679000Y-67818000D03*
D44*
X104849000Y-67592498D03*
D42*
X100076000Y-60960000D03*
X98044000Y-52705000D03*
D41*
X100457000Y-75692000D03*
X99187000Y-50546000D03*
D42*
X101092000Y-69723000D03*
D41*
X99695000Y-67056000D03*
X99441000Y-75692000D03*
D42*
X98552000Y-44958000D03*
D44*
X104849000Y-51082498D03*
X109220000Y-52423000D03*
D41*
X100203000Y-59563000D03*
X98679000Y-67056000D03*
D42*
X102616000Y-60960000D03*
X98552000Y-60960000D03*
D41*
X98171000Y-67056000D03*
D42*
X99568000Y-60960000D03*
X103124000Y-53213000D03*
D41*
X98171000Y-75311000D03*
D42*
X98552000Y-69215000D03*
D43*
X89600000Y-61800000D03*
D41*
X99695000Y-76073000D03*
D42*
X86000000Y-60600000D03*
D41*
X100457000Y-50927000D03*
D42*
X101092000Y-61468000D03*
X99568000Y-69215000D03*
X98552000Y-61468000D03*
D41*
X100457000Y-59182000D03*
D42*
X103124000Y-44450000D03*
X100076000Y-53213000D03*
X98044000Y-69215000D03*
X101600000Y-52705000D03*
D41*
X99949000Y-75692000D03*
D42*
X101092000Y-52705000D03*
D44*
X109220000Y-68806000D03*
D41*
X99187000Y-67818000D03*
D42*
X99568000Y-44958000D03*
X85620000Y-50900000D03*
D41*
X98171000Y-58801000D03*
X98933000Y-67437000D03*
X98679000Y-58801000D03*
D42*
X101600000Y-44958000D03*
D41*
X99695000Y-58801000D03*
D42*
X98552000Y-53213000D03*
D43*
X88000000Y-62600000D03*
D42*
X103124000Y-60960000D03*
D44*
X90900000Y-73800000D03*
D41*
X98425000Y-67437000D03*
D42*
X103124000Y-44958000D03*
X99568000Y-61468000D03*
D44*
X87000000Y-76000000D03*
D42*
X100076000Y-69215000D03*
D44*
X109220000Y-60678000D03*
D41*
X99949000Y-59182000D03*
D42*
X98044000Y-61468000D03*
X101600000Y-44450000D03*
D41*
X98425000Y-75692000D03*
X100965000Y-50927000D03*
D44*
X88900000Y-53500000D03*
D42*
X102616000Y-44450000D03*
D44*
X85700000Y-76000000D03*
D42*
X100076000Y-44958000D03*
X100076000Y-61468000D03*
D44*
X85700000Y-73800000D03*
D42*
X98044000Y-60960000D03*
D41*
X98679000Y-76073000D03*
X99187000Y-59563000D03*
D42*
X101600000Y-53213000D03*
X102616000Y-69215000D03*
X98044000Y-44958000D03*
D41*
X99441000Y-59182000D03*
D43*
X88800000Y-62600000D03*
D41*
X99187000Y-58801000D03*
X99187000Y-75311000D03*
D44*
X97473000Y-51816000D03*
D42*
X98044000Y-53213000D03*
D41*
X99695000Y-59563000D03*
X99187000Y-76073000D03*
X98679000Y-50546000D03*
D42*
X103124000Y-69215000D03*
X87890000Y-49700000D03*
X107800000Y-53500000D03*
D44*
X91900001Y-53499999D03*
D41*
X100203000Y-67818000D03*
D42*
X90220000Y-50900000D03*
X102616000Y-44958000D03*
X99568000Y-52705000D03*
X83320000Y-50900000D03*
X99568000Y-44450000D03*
D41*
X100203000Y-51308000D03*
D44*
X97473000Y-68326000D03*
D42*
X101092000Y-69215000D03*
X84400000Y-59800000D03*
D41*
X99695000Y-67818000D03*
D42*
X101092000Y-60960000D03*
D41*
X98933000Y-50927000D03*
D42*
X99568000Y-69723000D03*
D41*
X99441000Y-67437000D03*
X100965000Y-67437000D03*
D42*
X101600000Y-61468000D03*
D41*
X98171000Y-50546000D03*
X100203000Y-75311000D03*
X98679000Y-75311000D03*
X99187000Y-67056000D03*
X99949000Y-67437000D03*
X100711000Y-59563000D03*
X98171000Y-51308000D03*
D44*
X103960000Y-75847498D03*
D41*
X98425000Y-50927000D03*
D42*
X99568000Y-53213000D03*
X98044000Y-69723000D03*
X101600000Y-60960000D03*
D44*
X89600000Y-73800000D03*
D41*
X98425000Y-59182000D03*
X100965000Y-75692000D03*
D44*
X104849000Y-59337498D03*
D43*
X88000000Y-61000000D03*
D41*
X100711000Y-67818000D03*
D42*
X98552000Y-69723000D03*
X98552000Y-44450000D03*
D41*
X100965000Y-59182000D03*
X100711000Y-76073000D03*
D42*
X98044000Y-44450000D03*
X98552000Y-52705000D03*
D41*
X98933000Y-75692000D03*
X100203000Y-50546000D03*
D42*
X107800000Y-61800000D03*
D44*
X97473000Y-60071000D03*
D41*
X99695000Y-51308000D03*
D43*
X84500000Y-56600000D03*
%TO.N,+3V3*%
X89600000Y-61000000D03*
D42*
X89200000Y-62200000D03*
X84400000Y-60600000D03*
D44*
X91900000Y-54480000D03*
D42*
X89200000Y-59000000D03*
D43*
X85000000Y-55900000D03*
D42*
X87600000Y-59800000D03*
D44*
X109220000Y-67846000D03*
X108331000Y-76228000D03*
D42*
X87600000Y-57400000D03*
D44*
X109220000Y-59718000D03*
X109220000Y-51463000D03*
D42*
X87600000Y-62200000D03*
D44*
%TO.N,+5V*%
X95659000Y-76581000D03*
X95659000Y-68326000D03*
X95659000Y-60071000D03*
X95659000Y-51816000D03*
%TO.N,Vdrive*%
X101346000Y-62484000D03*
X98298000Y-46609000D03*
X98298000Y-63754000D03*
X98298000Y-47244000D03*
X99822000Y-63754000D03*
X98298000Y-47879000D03*
X98298000Y-72644000D03*
X99822000Y-72009000D03*
X99822000Y-48514000D03*
X102870000Y-46609000D03*
X99822000Y-64389000D03*
X99822000Y-56134000D03*
X102870000Y-70739000D03*
X99822000Y-54229000D03*
X98298000Y-55499000D03*
X101346000Y-70739000D03*
X99822000Y-47879000D03*
X101346000Y-55499000D03*
X99822000Y-54864000D03*
X101346000Y-46609000D03*
X101346000Y-71374000D03*
X101346000Y-63119000D03*
X102870000Y-54229000D03*
X99822000Y-63119000D03*
X98298000Y-63119000D03*
X98298000Y-56134000D03*
X101346000Y-72009000D03*
X98298000Y-56769000D03*
X98298000Y-73279000D03*
X98298000Y-48514000D03*
X99822000Y-65024000D03*
X99822000Y-47244000D03*
X98298000Y-64389000D03*
X99822000Y-62484000D03*
X98298000Y-54864000D03*
X101346000Y-63754000D03*
X98298000Y-62484000D03*
X102870000Y-63119000D03*
X102870000Y-62484000D03*
X99822000Y-46609000D03*
X98298000Y-71374000D03*
X99822000Y-55499000D03*
X101346000Y-54864000D03*
X99822000Y-71374000D03*
X102870000Y-54864000D03*
X98298000Y-65024000D03*
X98298000Y-72009000D03*
X99822000Y-73279000D03*
X98298000Y-54229000D03*
X99822000Y-56769000D03*
X99822000Y-45974000D03*
X101346000Y-47244000D03*
X99822000Y-70739000D03*
X101346000Y-54229000D03*
X98298000Y-70739000D03*
X99822000Y-72644000D03*
X102870000Y-71374000D03*
X98298000Y-45974000D03*
X101346000Y-45974000D03*
X102870000Y-45974000D03*
D42*
%TO.N,~{Abort}*%
X85200000Y-61400000D03*
X82900000Y-62200000D03*
%TO.N,/PH1_SENSE*%
X107749000Y-51706502D03*
D43*
X87600000Y-63000000D03*
%TO.N,/PH2_SENSE*%
X86800000Y-63000000D03*
D42*
X107749000Y-59961502D03*
D43*
%TO.N,/PH3_SENSE*%
X86000000Y-63000000D03*
D42*
X107749000Y-68216502D03*
D43*
%TO.N,/PH4_SENSE*%
X85200000Y-63800000D03*
D42*
X106860000Y-76471502D03*
%TO.N,/HALL_I*%
X84300000Y-50900000D03*
D43*
X86700000Y-56600000D03*
D42*
%TO.N,LED_1*%
X84000000Y-65000000D03*
%TO.N,LED_2*%
X85200000Y-62200000D03*
D43*
%TO.N,/LIM_L*%
X88000000Y-64200000D03*
D42*
X87000000Y-72820000D03*
%TO.N,/LIM_R*%
X88300000Y-72790000D03*
X88400000Y-63800000D03*
%TO.N,/LIM_H*%
X87650000Y-73300000D03*
D43*
X88000000Y-65000000D03*
D41*
%TO.N,/LIM_AUX*%
X88950000Y-73300000D03*
D42*
X90000000Y-63000000D03*
D43*
%TO.N,/USB_D-*%
X89700000Y-64300000D03*
%TO.N,/USB_D+*%
X90400000Y-64200000D03*
D42*
%TO.N,/UART_RX*%
X93200000Y-62600000D03*
X102088000Y-80645000D03*
X90800000Y-62200000D03*
%TO.N,/UART_TX*%
X99588000Y-80645000D03*
%TO.N,/BOOT_SELECT*%
X92903200Y-49696800D03*
X91600000Y-59000000D03*
D43*
%TO.N,/PH1_HI*%
X90000000Y-59000000D03*
X93700000Y-56100000D03*
%TO.N,/PH1_LO*%
X93699370Y-56685562D03*
X91600000Y-56700000D03*
%TO.N,/PH2_HI*%
X90400000Y-57800000D03*
X93721147Y-57184589D03*
%TO.N,/PH2_LO*%
X93700000Y-57710000D03*
X91200000Y-57800000D03*
%TO.N,/PH3_HI*%
X88400000Y-63000000D03*
X95200000Y-65100000D03*
%TO.N,/PH3_LO*%
X93700000Y-58700000D03*
X90000000Y-58200000D03*
%TO.N,/PH4_HI*%
X91200000Y-59400000D03*
X93700000Y-59400000D03*
%TO.N,/PH4_LO*%
X90000000Y-59800000D03*
X93700000Y-60100000D03*
%TO.N,Net-(U1-PA1)*%
X86800000Y-58200000D03*
%TO.N,/ENC_A+*%
X84400000Y-65600000D03*
D41*
X84800000Y-66721750D03*
%TO.N,/ENC_A-*%
X84200000Y-66721750D03*
D43*
X83800000Y-63000000D03*
D42*
%TO.N,/AUX_ENC_A-*%
X85200000Y-59800000D03*
X85200000Y-58200000D03*
%TO.N,/SWDIO*%
X90952000Y-80645000D03*
%TO.N,/SWCLK*%
X93452000Y-80645000D03*
%TO.N,/AUX_ENC_B*%
X86000000Y-57400000D03*
D43*
X83800000Y-62200000D03*
D42*
%TO.N,Net-(Q1-V_{DD})*%
X95250000Y-50419000D03*
%TO.N,Net-(Q2-V_{DD})*%
X95250000Y-58674000D03*
%TO.N,Net-(Q3-V_{DD})*%
X95250000Y-66929000D03*
%TO.N,Net-(Q4-V_{DD})*%
X95250000Y-75184000D03*
%TO.N,/AUX_ENC_A+*%
X86800000Y-61400000D03*
X86000000Y-59800000D03*
X86000000Y-58200000D03*
%TD*%
D45*
%TO.N,GND*%
X89200000Y-58200000D02*
X88800000Y-57800000D01*
X97473000Y-68326000D02*
X97473000Y-67690000D01*
X97473000Y-60071000D02*
X97473000Y-59435000D01*
D46*
X90190000Y-49700000D02*
X90190000Y-50870000D01*
D47*
X104849000Y-67592498D02*
X104849000Y-67667000D01*
D45*
X97473000Y-51816000D02*
X97473000Y-51180000D01*
X97473000Y-76581000D02*
X97473000Y-75945000D01*
X88000000Y-61000000D02*
X88400000Y-60600000D01*
X88400000Y-61400000D02*
X88000000Y-61000000D01*
X88000000Y-61000000D02*
X87600000Y-61400000D01*
D47*
X103960000Y-75847498D02*
X103960000Y-75922000D01*
D45*
X88800000Y-61000000D02*
X88400000Y-60600000D01*
X88400000Y-62200000D02*
X89200000Y-61400000D01*
X88400000Y-61400000D02*
X88800000Y-61000000D01*
D46*
X90190000Y-50870000D02*
X90220000Y-50900000D01*
D45*
X88400000Y-62200000D02*
X88400000Y-61400000D01*
X88400000Y-62200000D02*
X88000000Y-62600000D01*
X89200000Y-61400000D02*
X88800000Y-61000000D01*
X89200000Y-61400000D02*
X89600000Y-61800000D01*
D47*
X104849000Y-59337498D02*
X104849000Y-59412000D01*
D45*
X88400000Y-62200000D02*
X88800000Y-62600000D01*
D47*
X104849000Y-51082498D02*
X104849000Y-51157000D01*
D45*
X88400000Y-62200000D02*
X87600000Y-61400000D01*
D47*
%TO.N,+3V3*%
X108914000Y-59412000D02*
X109220000Y-59718000D01*
X108025000Y-75922000D02*
X106860000Y-75922000D01*
D46*
X91900000Y-54480000D02*
X90795000Y-54480000D01*
D45*
X107749000Y-51157000D02*
X108914000Y-51157000D01*
D47*
X108331000Y-76228000D02*
X108025000Y-75922000D01*
X109041000Y-67667000D02*
X109220000Y-67846000D01*
X107749000Y-59412000D02*
X108914000Y-59412000D01*
D46*
X90795000Y-54480000D02*
X90375000Y-54900000D01*
D45*
X87600000Y-60600000D02*
X87600000Y-59800000D01*
X108914000Y-51157000D02*
X109220000Y-51463000D01*
D47*
X107749000Y-67667000D02*
X109041000Y-67667000D01*
D45*
X89200000Y-60600000D02*
X89600000Y-61000000D01*
X85200000Y-60600000D02*
X84400000Y-60600000D01*
%TO.N,+5V*%
X96048000Y-59682000D02*
X95659000Y-60071000D01*
X95502000Y-68483000D02*
X95659000Y-68326000D01*
X95502000Y-76738000D02*
X95659000Y-76581000D01*
X95502000Y-68961000D02*
X95502000Y-68483000D01*
X95502000Y-77216000D02*
X95502000Y-76738000D01*
X95502000Y-52451000D02*
X95502000Y-51973000D01*
X96048000Y-75970000D02*
X96048000Y-76192000D01*
X96048000Y-76192000D02*
X95659000Y-76581000D01*
X96048000Y-67937000D02*
X95659000Y-68326000D01*
X95502000Y-51973000D02*
X95659000Y-51816000D01*
X96048000Y-67715000D02*
X96048000Y-67937000D01*
X96048000Y-51427000D02*
X95659000Y-51816000D01*
X96048000Y-59460000D02*
X96048000Y-59682000D01*
X96048000Y-51205000D02*
X96048000Y-51427000D01*
X95502000Y-60228000D02*
X95659000Y-60071000D01*
X95502000Y-60706000D02*
X95502000Y-60228000D01*
%TO.N,Aux_Enc_A_In+*%
X80772000Y-55880000D02*
X80772000Y-55772032D01*
X83160000Y-52990000D02*
X83400000Y-52990000D01*
X82500000Y-53650000D02*
X83160000Y-52990000D01*
X82500000Y-54044032D02*
X82500000Y-53650000D01*
X80772000Y-55772032D02*
X82500000Y-54044032D01*
%TO.N,Aux_Enc_A_In-*%
X84600000Y-52990000D02*
X84010000Y-52400000D01*
X82100000Y-53277408D02*
X82100000Y-53878346D01*
X79512000Y-54600000D02*
X78232000Y-55880000D01*
X82100000Y-53878346D02*
X81378346Y-54600000D01*
X82977408Y-52400000D02*
X82100000Y-53277408D01*
X81378346Y-54600000D02*
X79512000Y-54600000D01*
X84010000Y-52400000D02*
X82977408Y-52400000D01*
%TO.N,Aux_Enc_B_In+*%
X85800000Y-52990000D02*
X85800000Y-52426397D01*
X82112000Y-52000000D02*
X80772000Y-53340000D01*
X85800000Y-52426397D02*
X85373603Y-52000000D01*
X85373603Y-52000000D02*
X82112000Y-52000000D01*
%TO.N,Aux_Enc_B_In-*%
X87000000Y-52990000D02*
X85610000Y-51600000D01*
X81400000Y-52100000D02*
X79472000Y-52100000D01*
X79472000Y-52100000D02*
X78232000Y-53340000D01*
X85610000Y-51600000D02*
X81900000Y-51600000D01*
X81900000Y-51600000D02*
X81400000Y-52100000D01*
%TO.N,~{Fault_Enable}*%
X84400000Y-61400000D02*
X83200000Y-61400000D01*
X82760000Y-60960000D02*
X80772000Y-60960000D01*
X83200000Y-61400000D02*
X82760000Y-60960000D01*
%TO.N,~{Abort}*%
X79472000Y-62200000D02*
X78232000Y-60960000D01*
X82900000Y-62200000D02*
X79472000Y-62200000D01*
%TO.N,/PH4_SENSE*%
X106860000Y-76471502D02*
X106860000Y-76422000D01*
%TO.N,/HALL_A*%
X90800000Y-60600000D02*
X90000000Y-61400000D01*
X92600000Y-53000000D02*
X92600000Y-55100000D01*
X91900000Y-52300000D02*
X92600000Y-53000000D01*
X86580000Y-50900000D02*
X86580000Y-51380000D01*
X92200000Y-55500000D02*
X92200000Y-60000000D01*
X86610000Y-48500000D02*
X86610000Y-50870000D01*
X90800000Y-60600000D02*
X91600000Y-60600000D01*
X86610000Y-50870000D02*
X86580000Y-50900000D01*
X87500000Y-52300000D02*
X91900000Y-52300000D01*
X92600000Y-55100000D02*
X92200000Y-55500000D01*
X86580000Y-51380000D02*
X87500000Y-52300000D01*
X92200000Y-60000000D02*
X91600000Y-60600000D01*
%TO.N,/HALL_B*%
X91210000Y-48500000D02*
X91210000Y-50870000D01*
X91210000Y-50870000D02*
X91180000Y-50900000D01*
X91600000Y-63000000D02*
X93200000Y-61400000D01*
X92000000Y-50900000D02*
X93600000Y-52500000D01*
X93200000Y-61400000D02*
X93200000Y-55900000D01*
X91180000Y-50900000D02*
X92000000Y-50900000D01*
X93200000Y-55900000D02*
X93600000Y-55500000D01*
X93600000Y-55500000D02*
X93600000Y-52500000D01*
%TO.N,/HALL_C*%
X92700000Y-60300000D02*
X91600000Y-61400000D01*
X92100000Y-51800000D02*
X93100000Y-52800000D01*
X90800000Y-61400000D02*
X91600000Y-61400000D01*
X88880000Y-51380000D02*
X89300000Y-51800000D01*
X88880000Y-50900000D02*
X88880000Y-51380000D01*
X89300000Y-51800000D02*
X92100000Y-51800000D01*
X88910000Y-50870000D02*
X88880000Y-50900000D01*
X93100000Y-55300000D02*
X92700000Y-55700000D01*
X88910000Y-48500000D02*
X88910000Y-50870000D01*
X92700000Y-55700000D02*
X92700000Y-60300000D01*
X93100000Y-52800000D02*
X93100000Y-55300000D01*
%TO.N,/HALL_I*%
X86800000Y-57400000D02*
X86800000Y-56700000D01*
X86800000Y-56700000D02*
X86700000Y-56600000D01*
X84310000Y-50870000D02*
X84280000Y-50900000D01*
X84310000Y-48500000D02*
X84310000Y-50870000D01*
%TO.N,LED_1*%
X84400000Y-64600000D02*
X84000000Y-65000000D01*
%TO.N,/LIM_L*%
X85715000Y-72775000D02*
X86955000Y-72775000D01*
X84400000Y-72790000D02*
X85700000Y-72790000D01*
X87600000Y-63800000D02*
X88000000Y-64200000D01*
X86955000Y-72775000D02*
X87000000Y-72820000D01*
X85700000Y-72790000D02*
X85715000Y-72775000D01*
%TO.N,/LIM_R*%
X89615000Y-72775000D02*
X89600000Y-72790000D01*
X89600000Y-72790000D02*
X88300000Y-72790000D01*
X90855000Y-72775000D02*
X89615000Y-72775000D01*
X90900000Y-72820000D02*
X90855000Y-72775000D01*
%TO.N,/LIM_H*%
X85800000Y-74900000D02*
X86880000Y-74900000D01*
X85700000Y-74990000D02*
X84400000Y-74990000D01*
X87650000Y-73300000D02*
X87650000Y-74062254D01*
X86880000Y-74900000D02*
X87000000Y-75020000D01*
X88400000Y-64600000D02*
X88000000Y-65000000D01*
X87650000Y-74062254D02*
X87000000Y-74712254D01*
X87000000Y-74712254D02*
X87000000Y-75020000D01*
%TO.N,/LIM_AUX*%
X88950000Y-74340000D02*
X88300000Y-74990000D01*
X89600000Y-74990000D02*
X90870000Y-74990000D01*
X90870000Y-74990000D02*
X90900000Y-75020000D01*
X88950000Y-73300000D02*
X88950000Y-74340000D01*
X88300000Y-74990000D02*
X89600000Y-74990000D01*
%TO.N,Lim_L_In*%
X81500000Y-77500000D02*
X79472000Y-77500000D01*
X84400000Y-73850000D02*
X82300000Y-75950000D01*
X82300000Y-76700000D02*
X81500000Y-77500000D01*
X79472000Y-77500000D02*
X78232000Y-78740000D01*
X82300000Y-75950000D02*
X82300000Y-76700000D01*
%TO.N,Lim_R_In*%
X87650000Y-76650000D02*
X87650000Y-74704817D01*
X79512000Y-80000000D02*
X81450000Y-80000000D01*
X87650000Y-74704817D02*
X88300000Y-74054817D01*
X83300000Y-78150000D02*
X86150000Y-78150000D01*
X78232000Y-81280000D02*
X79512000Y-80000000D01*
X81450000Y-80000000D02*
X83300000Y-78150000D01*
X86150000Y-78150000D02*
X87650000Y-76650000D01*
X88300000Y-74054817D02*
X88300000Y-73810000D01*
%TO.N,Lim_H_In*%
X84390000Y-76000000D02*
X84400000Y-76010000D01*
X80772000Y-78740000D02*
X81560000Y-78740000D01*
X82800000Y-77500000D02*
X82800000Y-76300000D01*
X82800000Y-76300000D02*
X83100000Y-76000000D01*
X81560000Y-78740000D02*
X82800000Y-77500000D01*
X83100000Y-76000000D02*
X84390000Y-76000000D01*
%TO.N,Lim_Aux_In*%
X82120000Y-81280000D02*
X83650000Y-79750000D01*
X85800000Y-79750000D02*
X88300000Y-77250000D01*
X80772000Y-81280000D02*
X82120000Y-81280000D01*
X83650000Y-79750000D02*
X85800000Y-79750000D01*
X88300000Y-77250000D02*
X88300000Y-76010000D01*
%TO.N,/USB_D-*%
X90000000Y-64600000D02*
X89700000Y-64300000D01*
%TO.N,/USB_D+*%
X90000000Y-63800000D02*
X90400000Y-64200000D01*
%TO.N,/UART_RX*%
X102088000Y-80645000D02*
X101143000Y-79700000D01*
X94000000Y-75100000D02*
X93200000Y-74300000D01*
X95900000Y-79700000D02*
X94000000Y-77800000D01*
X101143000Y-79700000D02*
X95900000Y-79700000D01*
X93200000Y-74300000D02*
X93200000Y-62600000D01*
X94000000Y-77800000D02*
X94000000Y-75100000D01*
%TO.N,/UART_TX*%
X92700000Y-74600000D02*
X92700000Y-65700000D01*
X93500000Y-78100000D02*
X93500000Y-75400000D01*
X93500000Y-75400000D02*
X92700000Y-74600000D01*
X95700000Y-80300000D02*
X93500000Y-78100000D01*
X92700000Y-65700000D02*
X91600000Y-64600000D01*
X99243000Y-80300000D02*
X95700000Y-80300000D01*
X99588000Y-80645000D02*
X99243000Y-80300000D01*
%TO.N,/BOOT_SELECT*%
X92900000Y-49693600D02*
X92900000Y-45700000D01*
X96690000Y-41910000D02*
X100584000Y-41910000D01*
X92900000Y-45700000D02*
X96690000Y-41910000D01*
X92903200Y-49696800D02*
X92900000Y-49693600D01*
%TO.N,/PH1_HI*%
X95873000Y-48955000D02*
X94802000Y-48955000D01*
X93700000Y-56100000D02*
X94100000Y-55700000D01*
X94802000Y-48955000D02*
X94100000Y-49657000D01*
X94100000Y-55700000D02*
X94100000Y-49657000D01*
%TO.N,/PH1_LO*%
X93914438Y-56685562D02*
X94600000Y-56000000D01*
X94600000Y-50765463D02*
X94598000Y-50763463D01*
X91600000Y-56700000D02*
X91600000Y-57400000D01*
X93699370Y-56685562D02*
X93914438Y-56685562D01*
X94600000Y-56000000D02*
X94600000Y-50765463D01*
X95003000Y-49455000D02*
X95873000Y-49455000D01*
X94598000Y-49860000D02*
X95003000Y-49455000D01*
X94598000Y-50763463D02*
X94598000Y-49860000D01*
%TO.N,/PH2_HI*%
X93721147Y-57184589D02*
X93746558Y-57210000D01*
X90800000Y-58200000D02*
X90400000Y-57800000D01*
X93746558Y-57210000D02*
X95873000Y-57210000D01*
%TO.N,/PH2_LO*%
X93700000Y-57710000D02*
X95873000Y-57710000D01*
X90800000Y-57400000D02*
X91200000Y-57800000D01*
%TO.N,/PH3_HI*%
X95200000Y-65100000D02*
X95565000Y-65465000D01*
X95565000Y-65465000D02*
X95872999Y-65465000D01*
%TO.N,/PH3_LO*%
X95048000Y-65965000D02*
X95873000Y-65965000D01*
X94700000Y-59700000D02*
X94700000Y-65617000D01*
X94700000Y-65617000D02*
X95048000Y-65965000D01*
X93700000Y-58700000D02*
X94700000Y-59700000D01*
%TO.N,/PH4_HI*%
X94200000Y-59900000D02*
X94200000Y-73000000D01*
X93700000Y-59400000D02*
X94200000Y-59900000D01*
X94200000Y-73000000D02*
X94920000Y-73720000D01*
X90800000Y-59000000D02*
X91200000Y-59400000D01*
X94920000Y-73720000D02*
X95873000Y-73720000D01*
%TO.N,/PH4_LO*%
X93700000Y-73300000D02*
X94620000Y-74220000D01*
X93700000Y-60100000D02*
X93700000Y-73300000D01*
X94620000Y-74220000D02*
X95873000Y-74220000D01*
%TO.N,Hall_A_In*%
X80772000Y-48260000D02*
X81232000Y-47800000D01*
X81232000Y-47800000D02*
X84900000Y-47800000D01*
X85590000Y-48490000D02*
X85590000Y-48500000D01*
X84900000Y-47800000D02*
X85590000Y-48490000D01*
%TO.N,Hall_B_In*%
X88590000Y-46900000D02*
X88200000Y-46900000D01*
X90190000Y-48500000D02*
X88590000Y-46900000D01*
X88200000Y-46900000D02*
X84200000Y-46900000D01*
X84200000Y-46900000D02*
X83020000Y-45720000D01*
X83020000Y-45720000D02*
X80772000Y-45720000D01*
%TO.N,Hall_C_In*%
X87490000Y-48090000D02*
X87490000Y-48100000D01*
X83900000Y-47400000D02*
X86800000Y-47400000D01*
X79512000Y-47000000D02*
X83500000Y-47000000D01*
X78232000Y-45720000D02*
X79512000Y-47000000D01*
X86800000Y-47400000D02*
X87490000Y-48090000D01*
X87490000Y-48100000D02*
X87890000Y-48500000D01*
X83500000Y-47000000D02*
X83900000Y-47400000D01*
%TO.N,Hall_I_In*%
X79472000Y-49500000D02*
X82390000Y-49500000D01*
X82390000Y-49500000D02*
X83290000Y-48600000D01*
X78232000Y-48260000D02*
X79472000Y-49500000D01*
%TO.N,/ENC_A+*%
X85010000Y-67400000D02*
X84725001Y-67115001D01*
X85010000Y-67400000D02*
X85010000Y-68500000D01*
X84725001Y-67115001D02*
X84725001Y-66796749D01*
X85010000Y-68500000D02*
X85100000Y-68590000D01*
X84400000Y-65400000D02*
X84400000Y-65600000D01*
X85200000Y-64600000D02*
X84400000Y-65400000D01*
X84725001Y-66796749D02*
X84800000Y-66721750D01*
%TO.N,/ENC_A-*%
X84274999Y-67115001D02*
X84274999Y-66796749D01*
X85200000Y-63000000D02*
X84400000Y-63000000D01*
X84274999Y-66796749D02*
X84200000Y-66721750D01*
X83990000Y-67400000D02*
X83990000Y-68500000D01*
X83990000Y-68500000D02*
X83900000Y-68590000D01*
X83990000Y-67400000D02*
X84274999Y-67115001D01*
X84400000Y-63000000D02*
X83800000Y-63000000D01*
%TO.N,Enc_A_In+*%
X84900000Y-70200000D02*
X82100000Y-70200000D01*
X79552000Y-69900000D02*
X78232000Y-68580000D01*
X85100000Y-69610000D02*
X85100000Y-70000000D01*
X81800000Y-69900000D02*
X79552000Y-69900000D01*
X82100000Y-70200000D02*
X81800000Y-69900000D01*
X85100000Y-70000000D02*
X84900000Y-70200000D01*
%TO.N,Enc_A_In-*%
X82400000Y-69800000D02*
X81180000Y-68580000D01*
X83710000Y-69800000D02*
X82400000Y-69800000D01*
X83900000Y-69610000D02*
X83710000Y-69800000D01*
X81180000Y-68580000D02*
X80772000Y-68580000D01*
%TO.N,Enc_B_In+*%
X83293200Y-71125000D02*
X85985000Y-71125000D01*
X78232000Y-71120000D02*
X79412000Y-72300000D01*
X82118200Y-72300000D02*
X83293200Y-71125000D01*
X85985000Y-71125000D02*
X87500000Y-69610000D01*
X79412000Y-72300000D02*
X82118200Y-72300000D01*
%TO.N,/ENC_B+*%
X87410000Y-67400000D02*
X87410000Y-66910000D01*
X87410000Y-67400000D02*
X87410000Y-68500000D01*
X87410000Y-66910000D02*
X86000000Y-65500000D01*
X86000000Y-65500000D02*
X86000000Y-64600000D01*
X87410000Y-68500000D02*
X87500000Y-68590000D01*
%TO.N,Enc_B_In-*%
X86300000Y-70173603D02*
X85798603Y-70675000D01*
X81452000Y-71800000D02*
X80772000Y-71120000D01*
X83106800Y-70675000D02*
X81981800Y-71800000D01*
X85798603Y-70675000D02*
X83106800Y-70675000D01*
X81981800Y-71800000D02*
X81452000Y-71800000D01*
X86300000Y-69610000D02*
X86300000Y-70173603D01*
%TO.N,/ENC_B-*%
X85800000Y-66200000D02*
X84050000Y-66200000D01*
X86390000Y-67400000D02*
X86390000Y-68500000D01*
X86390000Y-67400000D02*
X86390000Y-66790000D01*
X86390000Y-66790000D02*
X85800000Y-66200000D01*
X86390000Y-68500000D02*
X86300000Y-68590000D01*
X83500000Y-65650000D02*
X83500000Y-64700000D01*
X83500000Y-64700000D02*
X84400000Y-63800000D01*
X84050000Y-66200000D02*
X83500000Y-65650000D01*
%TO.N,Enc_I_In+*%
X83993200Y-72125000D02*
X81218200Y-74900000D01*
X81218200Y-74900000D02*
X79472000Y-74900000D01*
X89899999Y-69610000D02*
X87384999Y-72125000D01*
X79472000Y-74900000D02*
X78232000Y-73660000D01*
X87384999Y-72125000D02*
X83993200Y-72125000D01*
%TO.N,Enc_I_In-*%
X88700000Y-69610000D02*
X88700000Y-70173602D01*
X87198602Y-71675000D02*
X83806800Y-71675000D01*
X88700000Y-70173602D02*
X87198602Y-71675000D01*
X83806800Y-71675000D02*
X81821800Y-73660000D01*
X81821800Y-73660000D02*
X80772000Y-73660000D01*
%TO.N,/ENC_I+*%
X87425000Y-65306800D02*
X88028480Y-65910280D01*
X88028480Y-65910280D02*
X88828480Y-65910280D01*
X89525001Y-66606801D02*
X89525001Y-67115001D01*
X86000000Y-63800000D02*
X86800000Y-63800000D01*
X87600000Y-64600000D02*
X86800000Y-63800000D01*
X87600000Y-64600000D02*
X87425000Y-64775000D01*
X89810000Y-67400000D02*
X89810000Y-68500001D01*
X88828480Y-65910280D02*
X89525001Y-66606801D01*
X87425000Y-64775000D02*
X87425000Y-65306800D01*
X89525001Y-67115001D02*
X89810000Y-67400000D01*
X89810000Y-68500001D02*
X89899999Y-68590000D01*
%TO.N,/ENC_I-*%
X89074999Y-66793199D02*
X89074999Y-67115001D01*
X88790000Y-68500000D02*
X88700000Y-68590000D01*
X88790000Y-67400000D02*
X88790000Y-68500000D01*
X86800000Y-64600000D02*
X86975000Y-64775000D01*
X89074999Y-67115001D02*
X88790000Y-67400000D01*
X87842080Y-66360280D02*
X88642080Y-66360280D01*
X86975000Y-64775000D02*
X86975000Y-65493200D01*
X86975000Y-65493200D02*
X87842080Y-66360280D01*
X88642080Y-66360280D02*
X89074999Y-66793199D01*
%TO.N,/AUX_ENC_A-*%
X84236397Y-58200000D02*
X83525001Y-57488604D01*
X85200000Y-58200000D02*
X84400000Y-58200000D01*
X84510000Y-54100000D02*
X84600000Y-54010000D01*
X84225001Y-56193199D02*
X84225001Y-55484999D01*
X84225001Y-55484999D02*
X84510000Y-55200000D01*
X84510000Y-55200000D02*
X84510000Y-54100000D01*
X83525001Y-57488604D02*
X83525001Y-56893199D01*
X83525001Y-56893199D02*
X84225001Y-56193199D01*
X84400000Y-58200000D02*
X84236397Y-58200000D01*
%TO.N,/AUX_ENC_B+*%
X86174999Y-55484999D02*
X86174999Y-55625001D01*
X86174999Y-55625001D02*
X84400000Y-57400000D01*
X85890000Y-55200000D02*
X86174999Y-55484999D01*
X85890000Y-54100000D02*
X85800000Y-54010000D01*
X85890000Y-55200000D02*
X85890000Y-54100000D01*
%TO.N,/AUX_ENC_B-*%
X86910000Y-55200000D02*
X86910000Y-54100000D01*
X86910000Y-54100000D02*
X87000000Y-54010000D01*
X85200000Y-57236397D02*
X85200000Y-57400000D01*
X86625001Y-55811396D02*
X85200000Y-57236397D01*
X86910000Y-55200000D02*
X86625001Y-55484999D01*
X86625001Y-55484999D02*
X86625001Y-55811396D01*
%TO.N,/SWDIO*%
X91700000Y-67100000D02*
X89200000Y-64600000D01*
X91555000Y-80645000D02*
X92500000Y-79700000D01*
X90952000Y-80645000D02*
X91555000Y-80645000D01*
X92500000Y-76000000D02*
X91700000Y-75200000D01*
X92500000Y-79700000D02*
X92500000Y-76000000D01*
X91700000Y-75200000D02*
X91700000Y-67100000D01*
X89200000Y-63000000D02*
X89200000Y-64600000D01*
%TO.N,/SWCLK*%
X93000000Y-80193000D02*
X93000000Y-75700000D01*
X93000000Y-75700000D02*
X92200000Y-74900000D01*
X92200000Y-66500000D02*
X90800000Y-65100000D01*
X90800000Y-65100000D02*
X90800000Y-64600000D01*
X92200000Y-74900000D02*
X92200000Y-66500000D01*
X93452000Y-80645000D02*
X93000000Y-80193000D01*
%TO.N,/AUX_ENC_B*%
X84400000Y-62200000D02*
X83800000Y-62200000D01*
%TO.N,/OSC_IN*%
X88625000Y-57175000D02*
X88400000Y-57400000D01*
X88625000Y-54900000D02*
X88625000Y-57175000D01*
%TO.N,Net-(Q1-V_{DD})*%
X95250000Y-50419000D02*
X95286000Y-50455000D01*
X95286000Y-50455000D02*
X95873000Y-50455000D01*
%TO.N,Net-(Q1-V_{PHASE})*%
X97123000Y-46037000D02*
X96552000Y-45466000D01*
X96552000Y-45466000D02*
X96492000Y-45466000D01*
X97123000Y-47880000D02*
X97123000Y-46037000D01*
%TO.N,Net-(Q1-V_{BOOT})*%
X95502000Y-46482000D02*
X95502000Y-47484000D01*
X95502000Y-47484000D02*
X95898000Y-47880000D01*
X95532000Y-46452000D02*
X95502000Y-46482000D01*
X95532000Y-45339000D02*
X95532000Y-46452000D01*
%TO.N,Net-(Q2-V_{DD})*%
X95250000Y-58674000D02*
X95286000Y-58710000D01*
X95286000Y-58710000D02*
X95873000Y-58710000D01*
%TO.N,Net-(Q2-V_{PHASE})*%
X97123000Y-54225000D02*
X96492000Y-53594000D01*
X97123000Y-56135000D02*
X97123000Y-54225000D01*
%TO.N,Net-(Q2-V_{BOOT})*%
X95502000Y-54737000D02*
X95502000Y-55739000D01*
X95532000Y-54707000D02*
X95502000Y-54737000D01*
X95532000Y-53594000D02*
X95532000Y-54707000D01*
X95502000Y-55739000D02*
X95898000Y-56135000D01*
%TO.N,Net-(Q3-V_{DD})*%
X95286000Y-66965000D02*
X95873000Y-66965000D01*
X95250000Y-66929000D02*
X95286000Y-66965000D01*
%TO.N,Net-(Q3-V_{PHASE})*%
X97123000Y-64390000D02*
X97123000Y-62480000D01*
X97123000Y-62480000D02*
X96492000Y-61849000D01*
%TO.N,Net-(Q3-V_{BOOT})*%
X95532000Y-61849000D02*
X95532000Y-62962000D01*
X95502000Y-63994000D02*
X95898000Y-64390000D01*
X95502000Y-62992000D02*
X95502000Y-63994000D01*
X95532000Y-62962000D02*
X95502000Y-62992000D01*
%TO.N,Net-(Q4-V_{DD})*%
X95250000Y-75184000D02*
X95286000Y-75220000D01*
X95286000Y-75220000D02*
X95873000Y-75220000D01*
%TO.N,Net-(Q4-V_{PHASE})*%
X97123000Y-70735000D02*
X96492000Y-70104000D01*
X97123000Y-72645000D02*
X97123000Y-70735000D01*
%TO.N,Net-(Q4-V_{BOOT})*%
X95532000Y-71217000D02*
X95502000Y-71247000D01*
X95532000Y-70104000D02*
X95532000Y-71217000D01*
X95502000Y-72249000D02*
X95898000Y-72645000D01*
X95502000Y-71247000D02*
X95502000Y-72249000D01*
%TO.N,Net-(Q1-R_{DRV})*%
X96973000Y-51617000D02*
X96973000Y-51180000D01*
X96522000Y-52068000D02*
X96973000Y-51617000D01*
X96522000Y-52451000D02*
X96522000Y-52068000D01*
%TO.N,Net-(Q1-R_{BOOT})*%
X96623000Y-47880000D02*
X96623000Y-46583000D01*
%TO.N,Net-(Q2-R_{DRV})*%
X96522000Y-60323000D02*
X96973000Y-59872000D01*
X96522000Y-60706000D02*
X96522000Y-60323000D01*
X96973000Y-59872000D02*
X96973000Y-59435000D01*
%TO.N,Net-(Q2-R_{BOOT})*%
X96623000Y-56135000D02*
X96623000Y-54838000D01*
X96623000Y-54838000D02*
X96522000Y-54737000D01*
%TO.N,Net-(Q3-R_{DRV})*%
X96973000Y-68127000D02*
X96973000Y-67690000D01*
X96522000Y-68961000D02*
X96522000Y-68578000D01*
X96522000Y-68578000D02*
X96973000Y-68127000D01*
%TO.N,Net-(Q3-R_{BOOT})*%
X96623000Y-63093000D02*
X96522000Y-62992000D01*
X96623000Y-64390000D02*
X96623000Y-63093000D01*
%TO.N,Net-(Q4-R_{DRV})*%
X96522000Y-77216000D02*
X96522000Y-76833000D01*
X96522000Y-76833000D02*
X96973000Y-76382000D01*
X96973000Y-76382000D02*
X96973000Y-75945000D01*
%TO.N,Net-(Q4-R_{BOOT})*%
X96623000Y-72645000D02*
X96623000Y-71348000D01*
X96623000Y-71348000D02*
X96522000Y-71247000D01*
%TO.N,/AUX_ENC_A+*%
X83490000Y-54100000D02*
X83400000Y-54010000D01*
X85200000Y-59000000D02*
X84400000Y-59000000D01*
X83490000Y-55200000D02*
X83490000Y-54100000D01*
X83074999Y-56706801D02*
X83774999Y-56006801D01*
X85200000Y-59000000D02*
X86000000Y-58200000D01*
X84400000Y-59000000D02*
X83074999Y-57674999D01*
X83074999Y-57674999D02*
X83074999Y-56706801D01*
X83774999Y-55484999D02*
X83490000Y-55200000D01*
X83774999Y-56006801D02*
X83774999Y-55484999D01*
%TD*%
%TA.AperFunction,Conductor*%
%TO.N,Vdrive*%
G36*
X103360422Y-62231239D02*
G01*
X103385128Y-62235152D01*
X103462448Y-62247398D01*
X103492374Y-62257120D01*
X103577283Y-62300383D01*
X103602741Y-62318880D01*
X103670119Y-62386258D01*
X103688617Y-62411718D01*
X103731877Y-62496621D01*
X103741601Y-62526551D01*
X103757761Y-62628577D01*
X103759000Y-62644315D01*
X103759000Y-63212685D01*
X103757761Y-63228423D01*
X103741601Y-63330448D01*
X103731876Y-63360381D01*
X103688620Y-63445277D01*
X103670119Y-63470741D01*
X103602741Y-63538119D01*
X103577278Y-63556618D01*
X103492381Y-63599876D01*
X103462448Y-63609601D01*
X103360423Y-63625761D01*
X103344685Y-63627000D01*
X102530336Y-63627000D01*
X102527081Y-63627428D01*
X102527073Y-63627429D01*
X102431690Y-63639987D01*
X102431688Y-63639987D01*
X102425152Y-63640848D01*
X102419064Y-63643369D01*
X102419059Y-63643371D01*
X102333230Y-63678922D01*
X102333224Y-63678924D01*
X102327136Y-63681447D01*
X102321905Y-63685460D01*
X102321903Y-63685462D01*
X102245577Y-63744029D01*
X102245567Y-63744037D01*
X102242968Y-63746032D01*
X102240650Y-63748349D01*
X102240642Y-63748357D01*
X101594357Y-64394642D01*
X101594349Y-64394650D01*
X101592032Y-64396968D01*
X101590037Y-64399567D01*
X101590029Y-64399577D01*
X101531462Y-64475903D01*
X101527447Y-64481136D01*
X101524924Y-64487224D01*
X101524922Y-64487230D01*
X101489371Y-64573059D01*
X101489369Y-64573064D01*
X101486848Y-64579152D01*
X101485987Y-64585688D01*
X101485987Y-64585690D01*
X101473429Y-64681073D01*
X101473428Y-64681081D01*
X101473000Y-64684336D01*
X101473000Y-64687624D01*
X101473000Y-64780816D01*
X101465342Y-64819314D01*
X101443535Y-64851951D01*
X101204851Y-65090635D01*
X101172214Y-65112442D01*
X101133716Y-65120100D01*
X98073359Y-65120100D01*
X98027688Y-65109135D01*
X97971722Y-65080619D01*
X97946258Y-65062119D01*
X97878880Y-64994741D01*
X97860383Y-64969283D01*
X97817120Y-64884374D01*
X97807398Y-64854447D01*
X97804080Y-64833500D01*
X97791239Y-64752422D01*
X97790000Y-64736685D01*
X97790000Y-62644315D01*
X97791239Y-62628578D01*
X97807398Y-62526552D01*
X97807399Y-62526551D01*
X97807398Y-62526549D01*
X97817120Y-62496626D01*
X97860385Y-62411713D01*
X97878877Y-62386261D01*
X97946261Y-62318877D01*
X97971713Y-62300385D01*
X98056626Y-62257120D01*
X98086549Y-62247398D01*
X98170778Y-62234058D01*
X98188578Y-62231239D01*
X98204315Y-62230000D01*
X103344685Y-62230000D01*
X103360422Y-62231239D01*
G37*
%TD.AperFunction*%
%TD*%
%TA.AperFunction,Conductor*%
%TO.N,Vdrive*%
G36*
X103360422Y-45721239D02*
G01*
X103385128Y-45725152D01*
X103462448Y-45737398D01*
X103492374Y-45747120D01*
X103577283Y-45790383D01*
X103602741Y-45808880D01*
X103670119Y-45876258D01*
X103688617Y-45901718D01*
X103731877Y-45986621D01*
X103741601Y-46016551D01*
X103757761Y-46118577D01*
X103759000Y-46134315D01*
X103759000Y-46702685D01*
X103757761Y-46718423D01*
X103741601Y-46820448D01*
X103731876Y-46850381D01*
X103688620Y-46935277D01*
X103670119Y-46960741D01*
X103602741Y-47028119D01*
X103577278Y-47046618D01*
X103492381Y-47089876D01*
X103462448Y-47099601D01*
X103360423Y-47115761D01*
X103344685Y-47117000D01*
X102530336Y-47117000D01*
X102527081Y-47117428D01*
X102527073Y-47117429D01*
X102431690Y-47129987D01*
X102431688Y-47129987D01*
X102425152Y-47130848D01*
X102419064Y-47133369D01*
X102419059Y-47133371D01*
X102333230Y-47168922D01*
X102333224Y-47168924D01*
X102327136Y-47171447D01*
X102321905Y-47175460D01*
X102321903Y-47175462D01*
X102245577Y-47234029D01*
X102245567Y-47234037D01*
X102242968Y-47236032D01*
X102240650Y-47238349D01*
X102240642Y-47238357D01*
X101594357Y-47884642D01*
X101594349Y-47884650D01*
X101592032Y-47886968D01*
X101590037Y-47889567D01*
X101590029Y-47889577D01*
X101531462Y-47965903D01*
X101527447Y-47971136D01*
X101524924Y-47977224D01*
X101524922Y-47977230D01*
X101489371Y-48063059D01*
X101489369Y-48063064D01*
X101486848Y-48069152D01*
X101485987Y-48075688D01*
X101485987Y-48075690D01*
X101473429Y-48171073D01*
X101473428Y-48171081D01*
X101473000Y-48174336D01*
X101473000Y-48177624D01*
X101473000Y-48270816D01*
X101465342Y-48309314D01*
X101443535Y-48341951D01*
X101204851Y-48580635D01*
X101172214Y-48602442D01*
X101133716Y-48610100D01*
X98073359Y-48610100D01*
X98027688Y-48599135D01*
X97971722Y-48570619D01*
X97946258Y-48552119D01*
X97878880Y-48484741D01*
X97860383Y-48459283D01*
X97817120Y-48374374D01*
X97807398Y-48344447D01*
X97804080Y-48323500D01*
X97791239Y-48242422D01*
X97790000Y-48226685D01*
X97790000Y-46134315D01*
X97791239Y-46118578D01*
X97807398Y-46016552D01*
X97807399Y-46016551D01*
X97807398Y-46016549D01*
X97817120Y-45986626D01*
X97860385Y-45901713D01*
X97878877Y-45876261D01*
X97946261Y-45808877D01*
X97971713Y-45790385D01*
X98056626Y-45747120D01*
X98086549Y-45737398D01*
X98170778Y-45724058D01*
X98188578Y-45721239D01*
X98204315Y-45720000D01*
X103344685Y-45720000D01*
X103360422Y-45721239D01*
G37*
%TD.AperFunction*%
%TD*%
%TA.AperFunction,Conductor*%
%TO.N,Net-(Q2-SW)*%
G36*
X105927716Y-55881932D02*
G01*
X105995576Y-55895431D01*
X106031839Y-55910452D01*
X106080966Y-55943277D01*
X106108722Y-55971033D01*
X106141547Y-56020160D01*
X106156568Y-56056423D01*
X106165649Y-56102074D01*
X106167461Y-56126634D01*
X106166560Y-56144967D01*
X106166558Y-56145013D01*
X106166500Y-56146212D01*
X106166500Y-56147453D01*
X106166500Y-57195275D01*
X106160383Y-57226026D01*
X106159266Y-57227699D01*
X106157333Y-57237414D01*
X106157332Y-57237418D01*
X106149459Y-57277000D01*
X106144500Y-57301933D01*
X106144500Y-57306880D01*
X106144500Y-58371905D01*
X106127545Y-58427797D01*
X106108721Y-58455968D01*
X106080966Y-58483722D01*
X106031839Y-58516547D01*
X105995577Y-58531568D01*
X105954184Y-58539802D01*
X105927715Y-58545067D01*
X105908092Y-58547000D01*
X101715119Y-58547000D01*
X101695492Y-58545067D01*
X101627633Y-58531568D01*
X101591370Y-58516547D01*
X101533844Y-58478110D01*
X101518599Y-58465599D01*
X101480797Y-58427797D01*
X101420395Y-58367394D01*
X101337991Y-58312335D01*
X101317553Y-58308269D01*
X101245639Y-58293964D01*
X101245633Y-58293963D01*
X101240790Y-58293000D01*
X101235844Y-58293000D01*
X97418908Y-58293000D01*
X97399284Y-58291067D01*
X97367450Y-58284735D01*
X97331422Y-58277568D01*
X97295160Y-58262547D01*
X97246033Y-58229722D01*
X97218277Y-58201966D01*
X97185452Y-58152839D01*
X97170431Y-58116576D01*
X97156933Y-58048719D01*
X97155000Y-58029092D01*
X97155000Y-57540908D01*
X97156933Y-57521282D01*
X97170431Y-57453424D01*
X97185452Y-57417160D01*
X97218279Y-57368030D01*
X97246030Y-57340279D01*
X97295160Y-57307451D01*
X97331424Y-57292431D01*
X97399282Y-57278933D01*
X97418908Y-57277000D01*
X101235844Y-57277000D01*
X101240790Y-57277000D01*
X101337991Y-57257665D01*
X101420395Y-57202605D01*
X102661604Y-55961395D01*
X102676837Y-55948894D01*
X102734372Y-55910450D01*
X102770632Y-55895431D01*
X102816299Y-55886347D01*
X102838493Y-55881933D01*
X102858119Y-55880000D01*
X105908092Y-55880000D01*
X105927716Y-55881932D01*
G37*
%TD.AperFunction*%
%TD*%
%TA.AperFunction,Conductor*%
%TO.N,Vdrive*%
G36*
X102979422Y-70486239D02*
G01*
X103004128Y-70490152D01*
X103081448Y-70502398D01*
X103111374Y-70512120D01*
X103196283Y-70555383D01*
X103221741Y-70573880D01*
X103289119Y-70641258D01*
X103307617Y-70666718D01*
X103350877Y-70751621D01*
X103360601Y-70781551D01*
X103376761Y-70883577D01*
X103378000Y-70899315D01*
X103378000Y-71467685D01*
X103376761Y-71483423D01*
X103360601Y-71585448D01*
X103350876Y-71615381D01*
X103307620Y-71700277D01*
X103289119Y-71725741D01*
X103221741Y-71793119D01*
X103196278Y-71811618D01*
X103111381Y-71854876D01*
X103081448Y-71864601D01*
X102979423Y-71880761D01*
X102963685Y-71882000D01*
X102530336Y-71882000D01*
X102527081Y-71882428D01*
X102527073Y-71882429D01*
X102431690Y-71894987D01*
X102431688Y-71894987D01*
X102425152Y-71895848D01*
X102419064Y-71898369D01*
X102419059Y-71898371D01*
X102333230Y-71933922D01*
X102333224Y-71933924D01*
X102327136Y-71936447D01*
X102321905Y-71940460D01*
X102321903Y-71940462D01*
X102245577Y-71999029D01*
X102245567Y-71999037D01*
X102242968Y-72001032D01*
X102240650Y-72003349D01*
X102240642Y-72003357D01*
X101594357Y-72649642D01*
X101594349Y-72649650D01*
X101592032Y-72651968D01*
X101590037Y-72654567D01*
X101590029Y-72654577D01*
X101531462Y-72730903D01*
X101527447Y-72736136D01*
X101524924Y-72742224D01*
X101524922Y-72742230D01*
X101489371Y-72828059D01*
X101489369Y-72828064D01*
X101486848Y-72834152D01*
X101485987Y-72840688D01*
X101485987Y-72840690D01*
X101473429Y-72936073D01*
X101473428Y-72936081D01*
X101473000Y-72939336D01*
X101473000Y-72942624D01*
X101473000Y-73035816D01*
X101465342Y-73074314D01*
X101443535Y-73106951D01*
X101204851Y-73345635D01*
X101172214Y-73367442D01*
X101133716Y-73375100D01*
X98073359Y-73375100D01*
X98027688Y-73364135D01*
X97971722Y-73335619D01*
X97946258Y-73317119D01*
X97878880Y-73249741D01*
X97860383Y-73224283D01*
X97817120Y-73139374D01*
X97807398Y-73109447D01*
X97804080Y-73088500D01*
X97791239Y-73007422D01*
X97790000Y-72991685D01*
X97790000Y-70899315D01*
X97791239Y-70883578D01*
X97807398Y-70781552D01*
X97807399Y-70781551D01*
X97807398Y-70781549D01*
X97817120Y-70751626D01*
X97860385Y-70666713D01*
X97878877Y-70641261D01*
X97946261Y-70573877D01*
X97971713Y-70555385D01*
X98056626Y-70512120D01*
X98086549Y-70502398D01*
X98170778Y-70489058D01*
X98188578Y-70486239D01*
X98204315Y-70485000D01*
X102963685Y-70485000D01*
X102979422Y-70486239D01*
G37*
%TD.AperFunction*%
%TD*%
%TA.AperFunction,Conductor*%
%TO.N,Net-(Q3-SW)*%
G36*
X105927716Y-64136932D02*
G01*
X105995576Y-64150431D01*
X106031839Y-64165452D01*
X106080966Y-64198277D01*
X106108722Y-64226033D01*
X106141547Y-64275160D01*
X106156568Y-64311423D01*
X106165649Y-64357074D01*
X106167461Y-64381634D01*
X106166560Y-64399967D01*
X106166558Y-64400013D01*
X106166500Y-64401212D01*
X106166500Y-64402453D01*
X106166500Y-65450275D01*
X106160383Y-65481026D01*
X106159266Y-65482699D01*
X106157333Y-65492414D01*
X106157332Y-65492418D01*
X106149459Y-65532000D01*
X106144500Y-65556933D01*
X106144500Y-65561880D01*
X106144500Y-66626905D01*
X106127545Y-66682797D01*
X106108721Y-66710968D01*
X106080966Y-66738722D01*
X106031839Y-66771547D01*
X105995577Y-66786568D01*
X105954184Y-66794802D01*
X105927715Y-66800067D01*
X105908092Y-66802000D01*
X101715119Y-66802000D01*
X101695492Y-66800067D01*
X101627633Y-66786568D01*
X101591370Y-66771547D01*
X101533844Y-66733110D01*
X101518599Y-66720599D01*
X101423885Y-66625885D01*
X101420395Y-66622395D01*
X101416292Y-66619653D01*
X101416289Y-66619651D01*
X101346229Y-66572839D01*
X101346227Y-66572838D01*
X101337991Y-66567335D01*
X101317553Y-66563269D01*
X101245639Y-66548964D01*
X101245633Y-66548963D01*
X101240790Y-66548000D01*
X101235844Y-66548000D01*
X97418908Y-66548000D01*
X97399284Y-66546067D01*
X97367450Y-66539735D01*
X97331422Y-66532568D01*
X97295160Y-66517547D01*
X97246033Y-66484722D01*
X97218277Y-66456966D01*
X97185452Y-66407839D01*
X97170431Y-66371576D01*
X97156933Y-66303719D01*
X97155000Y-66284092D01*
X97155000Y-65795908D01*
X97156933Y-65776282D01*
X97170431Y-65708424D01*
X97185452Y-65672160D01*
X97218279Y-65623030D01*
X97246030Y-65595279D01*
X97295160Y-65562451D01*
X97331424Y-65547431D01*
X97399282Y-65533933D01*
X97418908Y-65532000D01*
X101235844Y-65532000D01*
X101240790Y-65532000D01*
X101337991Y-65512665D01*
X101420395Y-65457605D01*
X102661604Y-64216395D01*
X102676837Y-64203894D01*
X102734372Y-64165450D01*
X102770632Y-64150431D01*
X102816299Y-64141347D01*
X102838493Y-64136933D01*
X102858119Y-64135000D01*
X105908092Y-64135000D01*
X105927716Y-64136932D01*
G37*
%TD.AperFunction*%
%TD*%
%TA.AperFunction,Conductor*%
%TO.N,PH4*%
G36*
X116597980Y-65788383D02*
G01*
X116659011Y-65800523D01*
X116703709Y-65819037D01*
X116745096Y-65846691D01*
X116779309Y-65880904D01*
X116806962Y-65922291D01*
X116825476Y-65966987D01*
X116837617Y-66028019D01*
X116840000Y-66052212D01*
X116840000Y-70218788D01*
X116837617Y-70242981D01*
X116825476Y-70304012D01*
X116806962Y-70348708D01*
X116779309Y-70390095D01*
X116745095Y-70424309D01*
X116703708Y-70451962D01*
X116659012Y-70470476D01*
X116610989Y-70480029D01*
X116597978Y-70482617D01*
X116573788Y-70485000D01*
X112500210Y-70485000D01*
X112494235Y-70486188D01*
X112494230Y-70486189D01*
X112414990Y-70501951D01*
X112414986Y-70501952D01*
X112403009Y-70504335D01*
X112392854Y-70511119D01*
X112392852Y-70511121D01*
X112325673Y-70556008D01*
X112325668Y-70556011D01*
X112320605Y-70559395D01*
X112316297Y-70563702D01*
X112316292Y-70563707D01*
X111711707Y-71168292D01*
X111711702Y-71168297D01*
X111707395Y-71172605D01*
X111704011Y-71177668D01*
X111704008Y-71177673D01*
X111659121Y-71244852D01*
X111659119Y-71244854D01*
X111652335Y-71255009D01*
X111649952Y-71266986D01*
X111649951Y-71266990D01*
X111634189Y-71346230D01*
X111634188Y-71346235D01*
X111633000Y-71352210D01*
X111633000Y-71358305D01*
X111633000Y-72653578D01*
X111630617Y-72677770D01*
X111618477Y-72738799D01*
X111599962Y-72783498D01*
X111565387Y-72835243D01*
X111549966Y-72854033D01*
X109430033Y-74973966D01*
X109411243Y-74989387D01*
X109359498Y-75023962D01*
X109314799Y-75042477D01*
X109253770Y-75054617D01*
X109229578Y-75057000D01*
X105800212Y-75057000D01*
X105776021Y-75054617D01*
X105759690Y-75051368D01*
X105714987Y-75042476D01*
X105670291Y-75023962D01*
X105628904Y-74996309D01*
X105594691Y-74962096D01*
X105567037Y-74920708D01*
X105548523Y-74876011D01*
X105536383Y-74814980D01*
X105534000Y-74790788D01*
X105534000Y-73761171D01*
X105534597Y-73749016D01*
X105539201Y-73702272D01*
X105539500Y-73699240D01*
X105539500Y-72653908D01*
X105538771Y-72639061D01*
X105541003Y-72608793D01*
X105548524Y-72570982D01*
X105567033Y-72526296D01*
X105594695Y-72484897D01*
X105628900Y-72450693D01*
X105670292Y-72423036D01*
X105714989Y-72404523D01*
X105776021Y-72392383D01*
X105800212Y-72390000D01*
X106949695Y-72390000D01*
X106955790Y-72390000D01*
X107052991Y-72370665D01*
X107135395Y-72315605D01*
X110669605Y-68781395D01*
X110724665Y-68698991D01*
X110744000Y-68601790D01*
X110744000Y-67300422D01*
X110746381Y-67276238D01*
X110758524Y-67215194D01*
X110777035Y-67170504D01*
X110811614Y-67118753D01*
X110827028Y-67099971D01*
X112057971Y-65869028D01*
X112076753Y-65853614D01*
X112128504Y-65819035D01*
X112173194Y-65800524D01*
X112234238Y-65788381D01*
X112258422Y-65786000D01*
X116573788Y-65786000D01*
X116597980Y-65788383D01*
G37*
%TD.AperFunction*%
%TD*%
%TA.AperFunction,Conductor*%
%TO.N,Net-(Q1-SW)*%
G36*
X105927716Y-47626932D02*
G01*
X105995576Y-47640431D01*
X106031839Y-47655452D01*
X106080966Y-47688277D01*
X106108722Y-47716033D01*
X106141547Y-47765160D01*
X106156568Y-47801423D01*
X106165649Y-47847074D01*
X106167461Y-47871634D01*
X106166560Y-47889967D01*
X106166558Y-47890013D01*
X106166500Y-47891212D01*
X106166500Y-48923517D01*
X106166742Y-48925975D01*
X106166956Y-48928149D01*
X106160655Y-48970619D01*
X106159266Y-48972699D01*
X106157333Y-48982413D01*
X106157333Y-48982415D01*
X106149459Y-49022000D01*
X106144500Y-49046933D01*
X106144500Y-49051880D01*
X106144500Y-50116905D01*
X106127545Y-50172797D01*
X106108721Y-50200968D01*
X106080966Y-50228722D01*
X106031839Y-50261547D01*
X105995577Y-50276568D01*
X105954184Y-50284802D01*
X105927715Y-50290067D01*
X105908092Y-50292000D01*
X101715119Y-50292000D01*
X101695492Y-50290067D01*
X101627633Y-50276568D01*
X101591370Y-50261547D01*
X101533844Y-50223110D01*
X101518599Y-50210599D01*
X101423885Y-50115885D01*
X101420395Y-50112395D01*
X101416292Y-50109653D01*
X101416289Y-50109651D01*
X101346229Y-50062839D01*
X101346227Y-50062838D01*
X101337991Y-50057335D01*
X101317553Y-50053269D01*
X101245639Y-50038964D01*
X101245633Y-50038963D01*
X101240790Y-50038000D01*
X101235844Y-50038000D01*
X97418908Y-50038000D01*
X97399284Y-50036067D01*
X97367450Y-50029735D01*
X97331422Y-50022568D01*
X97295160Y-50007547D01*
X97246033Y-49974722D01*
X97218277Y-49946966D01*
X97185452Y-49897839D01*
X97170431Y-49861576D01*
X97156933Y-49793719D01*
X97155000Y-49774092D01*
X97155000Y-49285908D01*
X97156933Y-49266282D01*
X97170431Y-49198424D01*
X97185452Y-49162160D01*
X97218279Y-49113030D01*
X97246030Y-49085279D01*
X97295160Y-49052451D01*
X97331424Y-49037431D01*
X97399282Y-49023933D01*
X97418908Y-49022000D01*
X101235844Y-49022000D01*
X101240790Y-49022000D01*
X101337991Y-49002665D01*
X101420395Y-48947605D01*
X102661604Y-47706395D01*
X102676837Y-47693894D01*
X102734372Y-47655450D01*
X102770632Y-47640431D01*
X102816299Y-47631347D01*
X102838493Y-47626933D01*
X102858119Y-47625000D01*
X105908092Y-47625000D01*
X105927716Y-47626932D01*
G37*
%TD.AperFunction*%
%TD*%
%TA.AperFunction,Conductor*%
%TO.N,PH2*%
G36*
X116597980Y-55628383D02*
G01*
X116659011Y-55640523D01*
X116703709Y-55659037D01*
X116745096Y-55686691D01*
X116779309Y-55720904D01*
X116806962Y-55762291D01*
X116825476Y-55806987D01*
X116837617Y-55868019D01*
X116840000Y-55892212D01*
X116840000Y-59677788D01*
X116837617Y-59701981D01*
X116825476Y-59763012D01*
X116806962Y-59807708D01*
X116779309Y-59849095D01*
X116745095Y-59883309D01*
X116703708Y-59910962D01*
X116659012Y-59929476D01*
X116610989Y-59939029D01*
X116597978Y-59941617D01*
X116573788Y-59944000D01*
X111369422Y-59944000D01*
X111345230Y-59941617D01*
X111284200Y-59929477D01*
X111239501Y-59910962D01*
X111187756Y-59876387D01*
X111168966Y-59860966D01*
X109933707Y-58625707D01*
X109929395Y-58621395D01*
X109846991Y-58566335D01*
X109835011Y-58563952D01*
X109835009Y-58563951D01*
X109755769Y-58548189D01*
X109755765Y-58548188D01*
X109749790Y-58547000D01*
X109743695Y-58547000D01*
X106692212Y-58547000D01*
X106668021Y-58544617D01*
X106651690Y-58541368D01*
X106606987Y-58532476D01*
X106562291Y-58513962D01*
X106520904Y-58486309D01*
X106486691Y-58452096D01*
X106459037Y-58410708D01*
X106440523Y-58366011D01*
X106428383Y-58304980D01*
X106426000Y-58280788D01*
X106426000Y-56146212D01*
X106428383Y-56122021D01*
X106440523Y-56060989D01*
X106459037Y-56016291D01*
X106486693Y-55974900D01*
X106520900Y-55940693D01*
X106562292Y-55913036D01*
X106606989Y-55894523D01*
X106668021Y-55882383D01*
X106692212Y-55880000D01*
X106949695Y-55880000D01*
X106955790Y-55880000D01*
X107052991Y-55860665D01*
X107135395Y-55805605D01*
X107231976Y-55709023D01*
X107250753Y-55693614D01*
X107302504Y-55659035D01*
X107347194Y-55640524D01*
X107408238Y-55628381D01*
X107432422Y-55626000D01*
X116573788Y-55626000D01*
X116597980Y-55628383D01*
G37*
%TD.AperFunction*%
%TD*%
%TA.AperFunction,Conductor*%
%TO.N,PH1*%
G36*
X112682761Y-47627381D02*
G01*
X112743803Y-47639523D01*
X112788498Y-47658037D01*
X112840243Y-47692612D01*
X112859033Y-47708033D01*
X116756966Y-51605966D01*
X116772387Y-51624756D01*
X116806962Y-51676501D01*
X116825477Y-51721200D01*
X116837617Y-51782230D01*
X116840000Y-51806422D01*
X116840000Y-54724788D01*
X116837617Y-54748981D01*
X116825476Y-54810012D01*
X116806962Y-54854708D01*
X116779309Y-54896095D01*
X116745095Y-54930309D01*
X116703708Y-54957962D01*
X116659012Y-54976476D01*
X116610989Y-54986029D01*
X116597978Y-54988617D01*
X116573788Y-54991000D01*
X112004422Y-54991000D01*
X111980230Y-54988617D01*
X111919200Y-54976477D01*
X111874501Y-54957962D01*
X111822756Y-54923387D01*
X111803966Y-54907966D01*
X111335033Y-54439033D01*
X111319612Y-54420243D01*
X111285037Y-54368498D01*
X111266523Y-54323803D01*
X111254381Y-54262761D01*
X111252000Y-54238578D01*
X111252000Y-52054305D01*
X111252000Y-52048210D01*
X111232665Y-51951009D01*
X111177605Y-51868605D01*
X109675395Y-50366395D01*
X109592991Y-50311335D01*
X109581011Y-50308952D01*
X109581009Y-50308951D01*
X109501769Y-50293189D01*
X109501765Y-50293188D01*
X109495790Y-50292000D01*
X109489695Y-50292000D01*
X106692212Y-50292000D01*
X106668021Y-50289617D01*
X106651690Y-50286368D01*
X106606987Y-50277476D01*
X106562289Y-50258961D01*
X106520902Y-50231307D01*
X106486691Y-50197096D01*
X106474397Y-50178697D01*
X106458839Y-50145802D01*
X106453499Y-50109812D01*
X106453499Y-49046934D01*
X106438734Y-48972699D01*
X106434531Y-48966409D01*
X106426000Y-48923517D01*
X106426000Y-47891212D01*
X106428383Y-47867021D01*
X106440523Y-47805989D01*
X106459037Y-47761291D01*
X106486693Y-47719900D01*
X106520900Y-47685693D01*
X106562292Y-47658036D01*
X106606989Y-47639523D01*
X106668021Y-47627383D01*
X106692212Y-47625000D01*
X112658578Y-47625000D01*
X112682761Y-47627381D01*
G37*
%TD.AperFunction*%
%TD*%
%TA.AperFunction,Conductor*%
%TO.N,PH3*%
G36*
X116597980Y-60708383D02*
G01*
X116659011Y-60720523D01*
X116703709Y-60739037D01*
X116745096Y-60766691D01*
X116779309Y-60800904D01*
X116806962Y-60842291D01*
X116825476Y-60886987D01*
X116837617Y-60948019D01*
X116840000Y-60972212D01*
X116840000Y-64757788D01*
X116837617Y-64781981D01*
X116825476Y-64843012D01*
X116806962Y-64887708D01*
X116779309Y-64929095D01*
X116745095Y-64963309D01*
X116703708Y-64990962D01*
X116659012Y-65009476D01*
X116610989Y-65019029D01*
X116597978Y-65021617D01*
X116573788Y-65024000D01*
X111611210Y-65024000D01*
X111605235Y-65025188D01*
X111605230Y-65025189D01*
X111525990Y-65040951D01*
X111525986Y-65040952D01*
X111514009Y-65043335D01*
X111503854Y-65050120D01*
X111503852Y-65050121D01*
X111436673Y-65095008D01*
X111431604Y-65098395D01*
X111427292Y-65102706D01*
X111427292Y-65102707D01*
X109811033Y-66718966D01*
X109792243Y-66734387D01*
X109740498Y-66768962D01*
X109695799Y-66787477D01*
X109634770Y-66799617D01*
X109610578Y-66802000D01*
X106692212Y-66802000D01*
X106668021Y-66799617D01*
X106651690Y-66796368D01*
X106606987Y-66787476D01*
X106562291Y-66768962D01*
X106520904Y-66741309D01*
X106486691Y-66707096D01*
X106459037Y-66665708D01*
X106440523Y-66621011D01*
X106428383Y-66559980D01*
X106426000Y-66535788D01*
X106426000Y-64401212D01*
X106428383Y-64377021D01*
X106440523Y-64315989D01*
X106459037Y-64271291D01*
X106486693Y-64229900D01*
X106520900Y-64195693D01*
X106562292Y-64168036D01*
X106606989Y-64149523D01*
X106668021Y-64137383D01*
X106692212Y-64135000D01*
X107330695Y-64135000D01*
X107336790Y-64135000D01*
X107433991Y-64115665D01*
X107516395Y-64060605D01*
X110787971Y-60789028D01*
X110806753Y-60773614D01*
X110858504Y-60739035D01*
X110903194Y-60720524D01*
X110964238Y-60708381D01*
X110988422Y-60706000D01*
X116573788Y-60706000D01*
X116597980Y-60708383D01*
G37*
%TD.AperFunction*%
%TD*%
%TA.AperFunction,Conductor*%
%TO.N,Vdrive*%
G36*
X103360422Y-53976239D02*
G01*
X103385128Y-53980152D01*
X103462448Y-53992398D01*
X103492374Y-54002120D01*
X103577283Y-54045383D01*
X103602741Y-54063880D01*
X103670119Y-54131258D01*
X103688617Y-54156718D01*
X103731877Y-54241621D01*
X103741601Y-54271551D01*
X103757761Y-54373577D01*
X103759000Y-54389315D01*
X103759000Y-54957685D01*
X103757761Y-54973423D01*
X103741601Y-55075448D01*
X103731876Y-55105381D01*
X103688620Y-55190277D01*
X103670119Y-55215741D01*
X103602741Y-55283119D01*
X103577278Y-55301618D01*
X103492381Y-55344876D01*
X103462448Y-55354601D01*
X103360423Y-55370761D01*
X103344685Y-55372000D01*
X102530336Y-55372000D01*
X102527081Y-55372428D01*
X102527073Y-55372429D01*
X102431690Y-55384987D01*
X102431688Y-55384987D01*
X102425152Y-55385848D01*
X102419064Y-55388369D01*
X102419059Y-55388371D01*
X102333230Y-55423922D01*
X102333224Y-55423924D01*
X102327136Y-55426447D01*
X102321905Y-55430460D01*
X102321903Y-55430462D01*
X102245577Y-55489029D01*
X102245567Y-55489037D01*
X102242968Y-55491032D01*
X102240650Y-55493349D01*
X102240642Y-55493357D01*
X101594357Y-56139642D01*
X101594349Y-56139650D01*
X101592032Y-56141968D01*
X101590037Y-56144567D01*
X101590029Y-56144577D01*
X101531462Y-56220903D01*
X101527447Y-56226136D01*
X101524924Y-56232224D01*
X101524922Y-56232230D01*
X101489371Y-56318059D01*
X101489369Y-56318064D01*
X101486848Y-56324152D01*
X101485987Y-56330688D01*
X101485987Y-56330690D01*
X101473429Y-56426073D01*
X101473428Y-56426081D01*
X101473000Y-56429336D01*
X101473000Y-56432624D01*
X101473000Y-56525816D01*
X101465342Y-56564314D01*
X101443535Y-56596951D01*
X101204851Y-56835635D01*
X101172214Y-56857442D01*
X101133716Y-56865100D01*
X98073359Y-56865100D01*
X98027688Y-56854135D01*
X97971722Y-56825619D01*
X97946258Y-56807119D01*
X97878880Y-56739741D01*
X97860383Y-56714283D01*
X97817120Y-56629374D01*
X97807398Y-56599447D01*
X97804080Y-56578500D01*
X97791239Y-56497422D01*
X97790000Y-56481685D01*
X97790000Y-54389315D01*
X97791239Y-54373578D01*
X97807398Y-54271552D01*
X97807399Y-54271551D01*
X97807398Y-54271549D01*
X97817120Y-54241626D01*
X97860385Y-54156713D01*
X97878877Y-54131261D01*
X97946261Y-54063877D01*
X97971713Y-54045385D01*
X98056626Y-54002120D01*
X98086549Y-53992398D01*
X98170778Y-53979058D01*
X98188578Y-53976239D01*
X98204315Y-53975000D01*
X103344685Y-53975000D01*
X103360422Y-53976239D01*
G37*
%TD.AperFunction*%
%TD*%
%TA.AperFunction,Conductor*%
%TO.N,Net-(Q4-SW)*%
G36*
X105035716Y-72391932D02*
G01*
X105103576Y-72405431D01*
X105139839Y-72420452D01*
X105188966Y-72453277D01*
X105216722Y-72481033D01*
X105249547Y-72530160D01*
X105264568Y-72566422D01*
X105278067Y-72634280D01*
X105280000Y-72653908D01*
X105280000Y-73699240D01*
X105273233Y-73733258D01*
X105270266Y-73737699D01*
X105268333Y-73747415D01*
X105268333Y-73747416D01*
X105260459Y-73787000D01*
X105255500Y-73811933D01*
X105255500Y-73816880D01*
X105255500Y-74877415D01*
X105238545Y-74933306D01*
X105216721Y-74965967D01*
X105188966Y-74993722D01*
X105139839Y-75026547D01*
X105103577Y-75041568D01*
X105062184Y-75049802D01*
X105035715Y-75055067D01*
X105016092Y-75057000D01*
X101715119Y-75057000D01*
X101695492Y-75055067D01*
X101627633Y-75041568D01*
X101591370Y-75026547D01*
X101533844Y-74988110D01*
X101518599Y-74975599D01*
X101423885Y-74880885D01*
X101420395Y-74877395D01*
X101416292Y-74874653D01*
X101416289Y-74874651D01*
X101346229Y-74827839D01*
X101346227Y-74827838D01*
X101337991Y-74822335D01*
X101317553Y-74818269D01*
X101245639Y-74803964D01*
X101245633Y-74803963D01*
X101240790Y-74803000D01*
X101235844Y-74803000D01*
X97418908Y-74803000D01*
X97399284Y-74801067D01*
X97367450Y-74794735D01*
X97331422Y-74787568D01*
X97295160Y-74772547D01*
X97246033Y-74739722D01*
X97218277Y-74711966D01*
X97185452Y-74662839D01*
X97170431Y-74626576D01*
X97156933Y-74558719D01*
X97155000Y-74539092D01*
X97155000Y-74050908D01*
X97156933Y-74031282D01*
X97170431Y-73963424D01*
X97185452Y-73927160D01*
X97218279Y-73878030D01*
X97246030Y-73850279D01*
X97295160Y-73817451D01*
X97331424Y-73802431D01*
X97399282Y-73788933D01*
X97418908Y-73787000D01*
X101235844Y-73787000D01*
X101240790Y-73787000D01*
X101337991Y-73767665D01*
X101420395Y-73712605D01*
X102661604Y-72471395D01*
X102676837Y-72458894D01*
X102734372Y-72420450D01*
X102770632Y-72405431D01*
X102816299Y-72396347D01*
X102838493Y-72391933D01*
X102858119Y-72390000D01*
X105016092Y-72390000D01*
X105035716Y-72391932D01*
G37*
%TD.AperFunction*%
%TD*%
M02*
