M48
; DRILL file {KiCad (7.0.0)} date Mon Nov  6 15:13:25 2023
; FORMAT={-:-/ absolute / inch / decimal}
; #@! TF.CreationDate,2023-11-06T15:13:25-05:00
; #@! TF.GenerationSoftware,Kicad,Pcbnew,(7.0.0)
; #@! TF.FileFunction,MixedPlating,1,6
FMAT,2
INCH
; #@! TA.AperFunction,Plated,PTH,ViaDrill
T1C0.0079
; #@! TA.AperFunction,Plated,PTH,ViaDrill
T2C0.0098
; #@! TA.AperFunction,Plated,PTH,ViaDrill
T3C0.0118
; #@! TA.AperFunction,Plated,PTH,ViaDrill
T4C0.0177
; #@! TA.AperFunction,Plated,PTH,ComponentDrill
T5C0.0197
; #@! TA.AperFunction,Plated,PTH,ComponentDrill
T6C0.0315
; #@! TA.AperFunction,Plated,PTH,ComponentDrill
T7C0.0394
; #@! TA.AperFunction,Plated,PTH,ComponentDrill
T8C0.0472
; #@! TA.AperFunction,Plated,PTH,ComponentDrill
T9C0.1063
%
G90
G05
T1
X3.2992Y-2.4488
X3.2992Y-2.4803
X3.315Y-2.6268
X3.3228Y-2.5827
X3.3268Y-2.2283
X3.3386Y-2.6268
X3.3465Y-2.2008
X3.3543Y-2.5118
X3.3858Y-2.4803
X3.4134Y-2.2283
X3.4173Y-2.2913
X3.4173Y-2.4803
X3.4331Y-2.2756
X3.4488Y-2.4803
X3.4646Y-2.2756
X3.4646Y-2.4016
X3.4646Y-2.4646
X3.4646Y-2.5276
X3.4646Y-2.5591
X3.4803Y-2.4803
X3.4961Y-2.2756
X3.4961Y-2.4016
X3.4961Y-2.4646
X3.502Y-2.8858
X3.5276Y-2.4016
X3.5276Y-2.4331
X3.5315Y-2.5315
X3.5433Y-2.2913
X3.5433Y-2.3228
X3.5433Y-2.3543
X3.5591Y-2.2756
X3.5591Y-2.5276
X3.5906Y-2.2756
X3.5906Y-2.3386
X3.6063Y-2.2323
X3.689Y-2.2317
X3.689Y-2.2087
X3.689Y-2.272
X3.689Y-2.311
X3.689Y-2.3386
X3.689Y-2.3661
X3.6898Y-2.2514
X3.748Y-2.563
X3.805Y-1.985
X3.805Y-2.31
X3.805Y-2.635
X3.805Y-2.96
X3.865Y-1.99
X3.865Y-2.02
X3.865Y-2.315
X3.865Y-2.345
X3.865Y-2.64
X3.865Y-2.67
X3.865Y-2.965
X3.865Y-2.995
X3.875Y-2.005
X3.875Y-2.33
X3.875Y-2.655
X3.875Y-2.98
X3.885Y-1.99
X3.885Y-2.02
X3.885Y-2.315
X3.885Y-2.345
X3.885Y-2.64
X3.885Y-2.67
X3.885Y-2.965
X3.885Y-2.995
X3.895Y-2.005
X3.895Y-2.33
X3.895Y-2.655
X3.895Y-2.98
X3.905Y-1.99
X3.905Y-2.02
X3.905Y-2.315
X3.905Y-2.345
X3.905Y-2.64
X3.905Y-2.67
X3.905Y-2.965
X3.905Y-2.995
X3.915Y-2.005
X3.915Y-2.33
X3.915Y-2.655
X3.915Y-2.98
X3.925Y-1.99
X3.925Y-2.02
X3.925Y-2.315
X3.925Y-2.345
X3.925Y-2.64
X3.925Y-2.67
X3.925Y-2.965
X3.925Y-2.995
X3.935Y-2.005
X3.935Y-2.33
X3.935Y-2.655
X3.935Y-2.98
X3.945Y-1.99
X3.945Y-2.02
X3.945Y-2.315
X3.945Y-2.345
X3.945Y-2.64
X3.945Y-2.67
X3.945Y-2.965
X3.945Y-2.995
X3.955Y-2.005
X3.955Y-2.33
X3.955Y-2.655
X3.955Y-2.98
X3.965Y-1.99
X3.965Y-2.02
X3.965Y-2.315
X3.965Y-2.345
X3.965Y-2.64
X3.965Y-2.67
X3.965Y-2.965
X3.965Y-2.995
X3.975Y-2.005
X3.975Y-2.33
X3.975Y-2.655
X3.975Y-2.98
T2
X3.2638Y-2.4488
X3.2791Y-1.9567
X3.2803Y-2.0039
X3.3071Y-2.5591
X3.3189Y-2.0039
X3.3228Y-2.3543
X3.3228Y-2.3858
X3.3543Y-2.2913
X3.3543Y-2.3543
X3.3543Y-2.4173
X3.3543Y-2.4488
X3.3697Y-1.9567
X3.3709Y-2.0039
X3.3858Y-2.2598
X3.3858Y-2.2913
X3.3858Y-2.3543
X3.3858Y-2.3858
X3.4173Y-2.3228
X3.4173Y-2.4173
X3.4252Y-2.8669
X3.4331Y-2.2165
X3.4488Y-2.2598
X3.4488Y-2.3543
X3.4488Y-2.4488
X3.4508Y-2.8858
X3.4567Y-2.1929
X3.4567Y-2.2165
X3.4602Y-1.9567
X3.4614Y-2.0039
X3.4764Y-2.8657
X3.4803Y-2.3543
X3.4803Y-2.5118
X3.5118Y-2.3228
X3.5118Y-2.4488
X3.5433Y-2.4803
X3.552Y-2.0039
X3.5748Y-2.4488
X3.5808Y-3.175
X3.6063Y-2.3228
X3.6576Y-1.9566
X3.6693Y-2.4646
X3.6792Y-3.175
X3.75Y-1.985
X3.75Y-2.31
X3.75Y-2.635
X3.75Y-2.96
X3.86Y-1.75
X3.86Y-1.77
X3.86Y-2.075
X3.86Y-2.095
X3.86Y-2.4
X3.86Y-2.42
X3.86Y-2.725
X3.86Y-2.745
X3.88Y-1.75
X3.88Y-1.77
X3.88Y-2.075
X3.88Y-2.095
X3.88Y-2.4
X3.88Y-2.42
X3.88Y-2.725
X3.88Y-2.745
X3.92Y-1.75
X3.92Y-1.77
X3.92Y-2.075
X3.92Y-2.095
X3.92Y-2.4
X3.92Y-2.42
X3.92Y-2.725
X3.92Y-2.745
X3.9208Y-3.175
X3.94Y-1.75
X3.94Y-1.77
X3.94Y-2.075
X3.94Y-2.095
X3.94Y-2.4
X3.94Y-2.42
X3.94Y-2.725
X3.94Y-2.745
X3.98Y-1.75
X3.98Y-1.77
X3.98Y-2.075
X3.98Y-2.095
X3.98Y-2.4
X3.98Y-2.42
X3.98Y-2.725
X3.98Y-2.745
X4.0Y-1.75
X4.0Y-1.77
X4.0Y-2.075
X4.0Y-2.095
X4.0Y-2.4
X4.0Y-2.42
X4.0Y-2.725
X4.0Y-2.745
X4.0192Y-3.175
X4.04Y-1.75
X4.04Y-1.77
X4.04Y-2.075
X4.04Y-2.095
X4.04Y-2.4
X4.04Y-2.42
X4.04Y-2.725
X4.04Y-2.745
X4.06Y-1.75
X4.06Y-1.77
X4.06Y-2.075
X4.06Y-2.095
X4.06Y-2.4
X4.06Y-2.42
X4.06Y-2.725
X4.06Y-2.745
X4.189Y-3.0787
X4.2071Y-3.0107
X4.2421Y-2.0357
X4.2421Y-2.3607
X4.2421Y-2.6857
X4.2441Y-2.1063
X4.2441Y-2.4331
X4.2441Y-2.7559
T3
X3.374Y-2.9055
X3.374Y-2.9921
X3.4252Y-2.9055
X3.4252Y-2.9921
X3.4724Y-2.1063
X3.5Y-2.1063
X3.5276Y-2.9055
X3.5276Y-2.9921
X3.5787Y-2.9055
X3.5787Y-2.9921
X3.6181Y-2.1449
X3.6181Y-2.1063
X3.63Y-3.185
X3.63Y-3.23
X3.6417Y-2.4134
X3.7205Y-1.8898
X3.7402Y-1.7598
X3.7661Y-2.04
X3.7661Y-2.365
X3.7661Y-2.69
X3.7661Y-3.015
X3.8375Y-2.04
X3.8375Y-2.365
X3.8375Y-2.69
X3.8375Y-3.015
X3.87Y-1.81
X3.87Y-1.835
X3.87Y-1.86
X3.87Y-1.885
X3.87Y-1.91
X3.87Y-2.135
X3.87Y-2.16
X3.87Y-2.185
X3.87Y-2.21
X3.87Y-2.235
X3.87Y-2.46
X3.87Y-2.485
X3.87Y-2.51
X3.87Y-2.535
X3.87Y-2.56
X3.87Y-2.785
X3.87Y-2.81
X3.87Y-2.835
X3.87Y-2.86
X3.87Y-2.885
X3.93Y-1.81
X3.93Y-1.835
X3.93Y-1.86
X3.93Y-1.885
X3.93Y-1.91
X3.93Y-2.135
X3.93Y-2.16
X3.93Y-2.185
X3.93Y-2.21
X3.93Y-2.235
X3.93Y-2.46
X3.93Y-2.485
X3.93Y-2.51
X3.93Y-2.535
X3.93Y-2.56
X3.93Y-2.785
X3.93Y-2.81
X3.93Y-2.835
X3.93Y-2.86
X3.93Y-2.885
X3.97Y-3.185
X3.97Y-3.23
X3.99Y-1.81
X3.99Y-1.835
X3.99Y-1.86
X3.99Y-2.135
X3.99Y-2.16
X3.99Y-2.185
X3.99Y-2.46
X3.99Y-2.485
X3.99Y-2.51
X3.99Y-2.785
X3.99Y-2.81
X3.99Y-2.835
X4.05Y-1.81
X4.05Y-1.835
X4.05Y-2.135
X4.05Y-2.16
X4.05Y-2.46
X4.05Y-2.485
X4.05Y-2.785
X4.05Y-2.81
X4.0929Y-2.9861
X4.1279Y-2.0111
X4.1279Y-2.3361
X4.1279Y-2.6611
X4.265Y-3.0011
X4.265Y-3.0389
X4.3Y-2.0261
X4.3Y-2.0639
X4.3Y-2.3511
X4.3Y-2.3889
X4.3Y-2.6711
X4.3Y-2.7089
T4
X3.2874Y-3.0315
X3.2874Y-3.1102
X3.3189Y-3.0315
X3.3189Y-3.1102
X3.4882Y-1.8189
X3.563Y-3.0315
X3.563Y-3.1102
X3.5945Y-3.0315
X3.5945Y-3.1102
T5
X3.2953Y-1.725
X3.2953Y-3.275
X3.3186Y-1.6686
X3.3186Y-1.7814
X3.3186Y-3.2186
X3.3186Y-3.3314
X3.375Y-1.6453
X3.375Y-1.8047
X3.375Y-3.1953
X3.375Y-3.3547
X3.4314Y-1.6686
X3.4314Y-1.7814
X3.4314Y-3.2186
X3.4314Y-3.3314
X3.4547Y-1.725
X3.4547Y-3.275
X4.1453Y-1.725
X4.1453Y-3.275
X4.1686Y-1.6686
X4.1686Y-1.7814
X4.1686Y-3.2186
X4.1686Y-3.3314
X4.225Y-1.6453
X4.225Y-1.8047
X4.225Y-3.1953
X4.225Y-3.3547
X4.2814Y-1.6686
X4.2814Y-1.7814
X4.2814Y-3.2186
X4.2814Y-3.3314
X4.3047Y-1.725
X4.3047Y-3.275
T6
X4.4304Y-1.775
X4.6273Y-1.775
T7
X3.08Y-1.7
X3.08Y-1.8
X3.08Y-1.9
X3.08Y-2.0
X3.08Y-2.1
X3.08Y-2.2
X3.08Y-2.3
X3.08Y-2.4
X3.08Y-2.5
X3.08Y-2.6
X3.08Y-2.7
X3.08Y-2.8
X3.08Y-2.9
X3.08Y-3.0
X3.08Y-3.1
X3.08Y-3.2
X3.08Y-3.3
X3.18Y-1.7
X3.18Y-1.8
X3.18Y-1.9
X3.18Y-2.0
X3.18Y-2.1
X3.18Y-2.2
X3.18Y-2.3
X3.18Y-2.4
X3.18Y-2.5
X3.18Y-2.6
X3.18Y-2.7
X3.18Y-2.8
X3.18Y-2.9
X3.18Y-3.0
X3.18Y-3.1
X3.18Y-3.2
X3.18Y-3.3
X3.96Y-1.65
X4.06Y-1.65
X4.45Y-2.025
X4.45Y-2.125
X4.45Y-2.225
X4.45Y-2.325
X4.45Y-2.425
X4.45Y-2.525
X4.45Y-2.625
X4.45Y-2.725
X4.45Y-2.825
X4.45Y-2.925
X4.45Y-3.025
X4.45Y-3.125
X4.45Y-3.225
X4.45Y-3.325
X4.55Y-2.025
X4.55Y-2.125
X4.55Y-2.225
X4.55Y-2.325
X4.55Y-2.425
X4.55Y-2.525
X4.55Y-2.625
X4.55Y-2.725
X4.55Y-2.825
X4.55Y-2.925
X4.55Y-3.025
X4.55Y-3.125
X4.55Y-3.225
X4.55Y-3.325
T8
X4.5Y-2.075
X4.5Y-2.275
X4.5Y-2.475
X4.5Y-2.675
X4.5Y-2.875
X4.5Y-3.075
X4.5Y-3.275
T9
X3.375Y-1.725
X3.375Y-3.275
X4.225Y-1.725
X4.225Y-3.275
T0
M30
