%TF.GenerationSoftware,KiCad,Pcbnew,(7.0.0)*%
%TF.CreationDate,2023-10-30T13:55:29-04:00*%
%TF.ProjectId,ECE4760 Motor Driver,45434534-3736-4302-904d-6f746f722044,rev?*%
%TF.SameCoordinates,Original*%
%TF.FileFunction,Soldermask,Bot*%
%TF.FilePolarity,Negative*%
%FSLAX46Y46*%
G04 Gerber Fmt 4.6, Leading zero omitted, Abs format (unit mm)*
G04 Created by KiCad (PCBNEW (7.0.0)) date 2023-10-30 13:55:29*
%MOMM*%
%LPD*%
G01*
G04 APERTURE LIST*
G04 Aperture macros list*
%AMRoundRect*
0 Rectangle with rounded corners*
0 $1 Rounding radius*
0 $2 $3 $4 $5 $6 $7 $8 $9 X,Y pos of 4 corners*
0 Add a 4 corners polygon primitive as box body*
4,1,4,$2,$3,$4,$5,$6,$7,$8,$9,$2,$3,0*
0 Add four circle primitives for the rounded corners*
1,1,$1+$1,$2,$3*
1,1,$1+$1,$4,$5*
1,1,$1+$1,$6,$7*
1,1,$1+$1,$8,$9*
0 Add four rect primitives between the rounded corners*
20,1,$1+$1,$2,$3,$4,$5,0*
20,1,$1+$1,$4,$5,$6,$7,0*
20,1,$1+$1,$6,$7,$8,$9,0*
20,1,$1+$1,$8,$9,$2,$3,0*%
G04 Aperture macros list end*
%ADD10C,0.800000*%
%ADD11C,5.400000*%
%ADD12RoundRect,0.250000X-1.550000X0.650000X-1.550000X-0.650000X1.550000X-0.650000X1.550000X0.650000X0*%
%ADD13O,3.600000X1.800000*%
%ADD14R,1.600000X1.600000*%
%ADD15C,1.600000*%
%ADD16RoundRect,0.250000X-0.475000X0.250000X-0.475000X-0.250000X0.475000X-0.250000X0.475000X0.250000X0*%
%ADD17RoundRect,0.140000X0.170000X-0.140000X0.170000X0.140000X-0.170000X0.140000X-0.170000X-0.140000X0*%
%ADD18RoundRect,0.140000X0.140000X0.170000X-0.140000X0.170000X-0.140000X-0.170000X0.140000X-0.170000X0*%
%ADD19RoundRect,0.140000X-0.170000X0.140000X-0.170000X-0.140000X0.170000X-0.140000X0.170000X0.140000X0*%
%ADD20RoundRect,0.140000X-0.140000X-0.170000X0.140000X-0.170000X0.140000X0.170000X-0.140000X0.170000X0*%
%ADD21RoundRect,0.225000X0.250000X-0.225000X0.250000X0.225000X-0.250000X0.225000X-0.250000X-0.225000X0*%
%ADD22RoundRect,0.225000X-0.225000X-0.250000X0.225000X-0.250000X0.225000X0.250000X-0.225000X0.250000X0*%
%ADD23RoundRect,0.250000X0.475000X-0.250000X0.475000X0.250000X-0.475000X0.250000X-0.475000X-0.250000X0*%
%ADD24RoundRect,0.135000X0.135000X0.185000X-0.135000X0.185000X-0.135000X-0.185000X0.135000X-0.185000X0*%
%ADD25R,1.700000X1.700000*%
%ADD26O,1.700000X1.700000*%
%ADD27RoundRect,0.218750X-0.256250X0.218750X-0.256250X-0.218750X0.256250X-0.218750X0.256250X0.218750X0*%
%ADD28RoundRect,0.225000X-0.250000X0.225000X-0.250000X-0.225000X0.250000X-0.225000X0.250000X0.225000X0*%
%ADD29RoundRect,0.250000X1.100000X-0.325000X1.100000X0.325000X-1.100000X0.325000X-1.100000X-0.325000X0*%
%ADD30R,0.450000X1.380000*%
%ADD31R,1.650000X1.300000*%
%ADD32R,1.425000X1.550000*%
%ADD33R,1.800000X1.900000*%
%ADD34R,1.000000X1.900000*%
%ADD35C,2.000000*%
%ADD36RoundRect,0.150000X0.150000X0.700000X-0.150000X0.700000X-0.150000X-0.700000X0.150000X-0.700000X0*%
%ADD37RoundRect,0.250000X0.250000X1.100000X-0.250000X1.100000X-0.250000X-1.100000X0.250000X-1.100000X0*%
%ADD38RoundRect,0.150000X-0.512500X-0.150000X0.512500X-0.150000X0.512500X0.150000X-0.512500X0.150000X0*%
%ADD39RoundRect,0.112500X-0.112500X0.187500X-0.112500X-0.187500X0.112500X-0.187500X0.112500X0.187500X0*%
%ADD40RoundRect,0.135000X-0.135000X-0.185000X0.135000X-0.185000X0.135000X0.185000X-0.135000X0.185000X0*%
G04 APERTURE END LIST*
D10*
%TO.C,H2*%
X83700000Y-43815000D03*
X84293109Y-42383109D03*
X84293109Y-45246891D03*
X85725000Y-41790000D03*
D11*
X85725000Y-43815000D03*
D10*
X85725000Y-45840000D03*
X87156891Y-42383109D03*
X87156891Y-45246891D03*
X87750000Y-43815000D03*
%TD*%
%TO.C,H1*%
X105290000Y-43815000D03*
X105883109Y-42383109D03*
X105883109Y-45246891D03*
X107315000Y-41790000D03*
D11*
X107315000Y-43815000D03*
D10*
X107315000Y-45840000D03*
X108746891Y-42383109D03*
X108746891Y-45246891D03*
X109340000Y-43815000D03*
%TD*%
D12*
%TO.C,J2*%
X114300000Y-52705000D03*
D13*
X114299999Y-57784999D03*
X114299999Y-62864999D03*
X114299999Y-67944999D03*
X114299999Y-73024999D03*
X114299999Y-78104999D03*
X114299999Y-83184999D03*
%TD*%
D10*
%TO.C,H4*%
X83700000Y-83185000D03*
X84293109Y-81753109D03*
X84293109Y-84616891D03*
X85725000Y-81160000D03*
D11*
X85725000Y-83185000D03*
D10*
X85725000Y-85210000D03*
X87156891Y-81753109D03*
X87156891Y-84616891D03*
X87750000Y-83185000D03*
%TD*%
D14*
%TO.C,C1*%
X112532348Y-45084999D03*
D15*
X117532349Y-45085000D03*
%TD*%
D10*
%TO.C,H3*%
X105290000Y-83185000D03*
X105883109Y-81753109D03*
X105883109Y-84616891D03*
X107315000Y-81160000D03*
D11*
X107315000Y-83185000D03*
D10*
X107315000Y-85210000D03*
X108746891Y-81753109D03*
X108746891Y-84616891D03*
X109340000Y-83185000D03*
%TD*%
D16*
%TO.C,C55*%
X100838000Y-48580000D03*
X100838000Y-50480000D03*
%TD*%
D17*
%TO.C,C25*%
X107800000Y-61780000D03*
X107800000Y-60820000D03*
%TD*%
D16*
%TO.C,C63*%
X98806000Y-73345000D03*
X98806000Y-75245000D03*
%TD*%
D18*
%TO.C,C3*%
X96380001Y-49300001D03*
X95420001Y-49300001D03*
%TD*%
%TO.C,C27*%
X96619000Y-67183000D03*
X95659000Y-67183000D03*
%TD*%
D16*
%TO.C,C61*%
X100838000Y-65090000D03*
X100838000Y-66990000D03*
%TD*%
D19*
%TO.C,C8*%
X88700000Y-58920000D03*
X88700000Y-59880000D03*
%TD*%
D20*
%TO.C,C32*%
X95659000Y-76581000D03*
X96619000Y-76581000D03*
%TD*%
D17*
%TO.C,C6*%
X88700000Y-61880000D03*
X88700000Y-60920000D03*
%TD*%
D20*
%TO.C,C10*%
X85120000Y-60600000D03*
X86080000Y-60600000D03*
%TD*%
D16*
%TO.C,C58*%
X100838000Y-56835000D03*
X100838000Y-58735000D03*
%TD*%
D18*
%TO.C,C33*%
X96619000Y-75438000D03*
X95659000Y-75438000D03*
%TD*%
D21*
%TO.C,C5*%
X87500000Y-57575000D03*
X87500000Y-56025000D03*
%TD*%
D16*
%TO.C,C54*%
X98806000Y-48580000D03*
X98806000Y-50480000D03*
%TD*%
D22*
%TO.C,C4*%
X90625000Y-61100000D03*
X92175000Y-61100000D03*
%TD*%
D23*
%TO.C,C12*%
X83900001Y-78950000D03*
X83900001Y-77050000D03*
%TD*%
D24*
%TO.C,R3*%
X86000000Y-56600000D03*
X84980000Y-56600000D03*
%TD*%
D16*
%TO.C,C57*%
X98806000Y-56835000D03*
X98806000Y-58735000D03*
%TD*%
%TO.C,C62*%
X102870000Y-65090000D03*
X102870000Y-66990000D03*
%TD*%
D25*
%TO.C,J6*%
X100583999Y-41909999D03*
D26*
X103123999Y-41909999D03*
%TD*%
D18*
%TO.C,C15*%
X96619000Y-50673000D03*
X95659000Y-50673000D03*
%TD*%
D27*
%TO.C,F1*%
X90700000Y-48112500D03*
X90700000Y-49687500D03*
%TD*%
D16*
%TO.C,C65*%
X102870000Y-73345000D03*
X102870000Y-75245000D03*
%TD*%
D28*
%TO.C,C2*%
X86614000Y-48120000D03*
X86614000Y-49670000D03*
%TD*%
D29*
%TO.C,RV1*%
X110236000Y-77040000D03*
X110236000Y-74090000D03*
%TD*%
D20*
%TO.C,C14*%
X95659000Y-51816000D03*
X96619000Y-51816000D03*
%TD*%
D17*
%TO.C,C9*%
X87600000Y-61880000D03*
X87600000Y-60920000D03*
%TD*%
D16*
%TO.C,C59*%
X102870000Y-56835000D03*
X102870000Y-58735000D03*
%TD*%
D30*
%TO.C,J3*%
X92679999Y-45909999D03*
X93329999Y-45909999D03*
X93979999Y-45909999D03*
X94629999Y-45909999D03*
X95279999Y-45909999D03*
D31*
X90604999Y-43249999D03*
D32*
X91492499Y-45824999D03*
D33*
X92829999Y-43249999D03*
D34*
X95529999Y-43249999D03*
D32*
X96467499Y-45824999D03*
D31*
X97354999Y-43249999D03*
%TD*%
D25*
%TO.C,J1*%
X78231999Y-43179999D03*
D26*
X80771999Y-43179999D03*
X78231999Y-45719999D03*
X80771999Y-45719999D03*
X78231999Y-48259999D03*
X80771999Y-48259999D03*
X78231999Y-50799999D03*
X80771999Y-50799999D03*
X78231999Y-53339999D03*
X80771999Y-53339999D03*
X78231999Y-55879999D03*
X80771999Y-55879999D03*
X78231999Y-58419999D03*
X80771999Y-58419999D03*
X78231999Y-60959999D03*
X80771999Y-60959999D03*
X78231999Y-63499999D03*
X80771999Y-63499999D03*
X78231999Y-66039999D03*
X80771999Y-66039999D03*
X78231999Y-68579999D03*
X80771999Y-68579999D03*
X78231999Y-71119999D03*
X80771999Y-71119999D03*
X78231999Y-73659999D03*
X80771999Y-73659999D03*
X78231999Y-76199999D03*
X80771999Y-76199999D03*
X78231999Y-78739999D03*
X80771999Y-78739999D03*
X78231999Y-81279999D03*
X80771999Y-81279999D03*
X78231999Y-83819999D03*
X80771999Y-83819999D03*
%TD*%
D16*
%TO.C,C64*%
X100838000Y-73345000D03*
X100838000Y-75245000D03*
%TD*%
D17*
%TO.C,C31*%
X107800000Y-69980000D03*
X107800000Y-69020000D03*
%TD*%
D23*
%TO.C,C13*%
X90900001Y-78950000D03*
X90900001Y-77050000D03*
%TD*%
D17*
%TO.C,C7*%
X87600000Y-59880000D03*
X87600000Y-58920000D03*
%TD*%
D35*
%TO.C,TP2*%
X107200000Y-58600000D03*
%TD*%
D18*
%TO.C,C21*%
X96619000Y-58928000D03*
X95659000Y-58928000D03*
%TD*%
D25*
%TO.C,J100*%
X113029999Y-51434999D03*
D26*
X115569999Y-51434999D03*
X113029999Y-53974999D03*
X115569999Y-53974999D03*
X113029999Y-56514999D03*
X115569999Y-56514999D03*
X113029999Y-59054999D03*
X115569999Y-59054999D03*
X113029999Y-61594999D03*
X115569999Y-61594999D03*
X113029999Y-64134999D03*
X115569999Y-64134999D03*
X113029999Y-66674999D03*
X115569999Y-66674999D03*
X113029999Y-69214999D03*
X115569999Y-69214999D03*
X113029999Y-71754999D03*
X115569999Y-71754999D03*
X113029999Y-74294999D03*
X115569999Y-74294999D03*
X113029999Y-76834999D03*
X115569999Y-76834999D03*
X113029999Y-79374999D03*
X115569999Y-79374999D03*
X113029999Y-81914999D03*
X115569999Y-81914999D03*
X113029999Y-84454999D03*
X115569999Y-84454999D03*
%TD*%
D36*
%TO.C,J5*%
X93452000Y-81462000D03*
X92202000Y-81462000D03*
X90952000Y-81462000D03*
D37*
X95302000Y-84662000D03*
X89102000Y-84662000D03*
%TD*%
D24*
%TO.C,R1*%
X96410000Y-48000000D03*
X95390000Y-48000000D03*
%TD*%
D38*
%TO.C,U5*%
X86262500Y-78950000D03*
X86262500Y-78000000D03*
X86262500Y-77050000D03*
X88537500Y-77050000D03*
X88537500Y-78950000D03*
%TD*%
D35*
%TO.C,TP3*%
X107200000Y-66800000D03*
%TD*%
D39*
%TO.C,D1*%
X88600000Y-47850000D03*
X88600000Y-49950000D03*
%TD*%
D35*
%TO.C,TP1*%
X106000000Y-52324000D03*
%TD*%
D17*
%TO.C,C19*%
X107800000Y-53480000D03*
X107800000Y-52520000D03*
%TD*%
D16*
%TO.C,C56*%
X102870000Y-48580000D03*
X102870000Y-50480000D03*
%TD*%
D40*
%TO.C,R2*%
X84980000Y-55600000D03*
X86000000Y-55600000D03*
%TD*%
D20*
%TO.C,C20*%
X95659000Y-60071000D03*
X96619000Y-60071000D03*
%TD*%
D17*
%TO.C,C37*%
X106400000Y-78180000D03*
X106400000Y-77220000D03*
%TD*%
D20*
%TO.C,C26*%
X95659000Y-68326000D03*
X96619000Y-68326000D03*
%TD*%
D36*
%TO.C,J4*%
X102088000Y-81462000D03*
X100838000Y-81462000D03*
X99588000Y-81462000D03*
D37*
X103938000Y-84662000D03*
X97738000Y-84662000D03*
%TD*%
D16*
%TO.C,C60*%
X98806000Y-65090000D03*
X98806000Y-66990000D03*
%TD*%
D35*
%TO.C,TP4*%
X106900000Y-75000000D03*
%TD*%
M02*
