%TF.GenerationSoftware,KiCad,Pcbnew,(7.0.0)*%
%TF.CreationDate,2023-11-06T15:13:21-05:00*%
%TF.ProjectId,ECE4760 Motor Driver,45434534-3736-4302-904d-6f746f722044,rev?*%
%TF.SameCoordinates,Original*%
%TF.FileFunction,Paste,Top*%
%TF.FilePolarity,Positive*%
%FSLAX46Y46*%
G04 Gerber Fmt 4.6, Leading zero omitted, Abs format (unit mm)*
G04 Created by KiCad (PCBNEW (7.0.0)) date 2023-11-06 15:13:21*
%MOMM*%
%LPD*%
G01*
G04 APERTURE LIST*
G04 Aperture macros list*
%AMRoundRect*
0 Rectangle with rounded corners*
0 $1 Rounding radius*
0 $2 $3 $4 $5 $6 $7 $8 $9 X,Y pos of 4 corners*
0 Add a 4 corners polygon primitive as box body*
4,1,4,$2,$3,$4,$5,$6,$7,$8,$9,$2,$3,0*
0 Add four circle primitives for the rounded corners*
1,1,$1+$1,$2,$3*
1,1,$1+$1,$4,$5*
1,1,$1+$1,$6,$7*
1,1,$1+$1,$8,$9*
0 Add four rect primitives between the rounded corners*
20,1,$1+$1,$2,$3,$4,$5,0*
20,1,$1+$1,$4,$5,$6,$7,0*
20,1,$1+$1,$6,$7,$8,$9,0*
20,1,$1+$1,$8,$9,$2,$3,0*%
%AMRotRect*
0 Rectangle, with rotation*
0 The origin of the aperture is its center*
0 $1 length*
0 $2 width*
0 $3 Rotation angle, in degrees counterclockwise*
0 Add horizontal line*
21,1,$1,$2,0,0,$3*%
G04 Aperture macros list end*
%ADD10RoundRect,0.135000X0.185000X-0.135000X0.185000X0.135000X-0.185000X0.135000X-0.185000X-0.135000X0*%
%ADD11RoundRect,0.135000X-0.135000X-0.185000X0.135000X-0.185000X0.135000X0.185000X-0.135000X0.185000X0*%
%ADD12R,0.800000X1.070000*%
%ADD13RotRect,0.282800X0.282800X315.000000*%
%ADD14R,0.600000X0.200000*%
%ADD15R,0.850000X0.300000*%
%ADD16R,0.300000X0.800000*%
%ADD17R,0.300000X0.850000*%
%ADD18RoundRect,0.140000X0.140000X0.170000X-0.140000X0.170000X-0.140000X-0.170000X0.140000X-0.170000X0*%
%ADD19RoundRect,0.140000X0.170000X-0.140000X0.170000X0.140000X-0.170000X0.140000X-0.170000X-0.140000X0*%
%ADD20RoundRect,0.135000X-0.185000X0.135000X-0.185000X-0.135000X0.185000X-0.135000X0.185000X0.135000X0*%
%ADD21RoundRect,0.225000X0.250000X-0.225000X0.250000X0.225000X-0.250000X0.225000X-0.250000X-0.225000X0*%
%ADD22RoundRect,0.140000X-0.170000X0.140000X-0.170000X-0.140000X0.170000X-0.140000X0.170000X0.140000X0*%
%ADD23RoundRect,0.135000X0.135000X0.185000X-0.135000X0.185000X-0.135000X-0.185000X0.135000X-0.185000X0*%
%ADD24RoundRect,0.140000X-0.140000X-0.170000X0.140000X-0.170000X0.140000X0.170000X-0.140000X0.170000X0*%
%ADD25RoundRect,0.200000X-0.250000X0.200000X-0.250000X-0.200000X0.250000X-0.200000X0.250000X0.200000X0*%
G04 APERTURE END LIST*
D10*
%TO.C,R24*%
X86300000Y-69610000D03*
X86300000Y-68590000D03*
%TD*%
D11*
%TO.C,R15*%
X90190000Y-49700000D03*
X91210000Y-49700000D03*
%TD*%
D12*
%TO.C,U2*%
X106798999Y-49606999D03*
D13*
X106998999Y-50141999D03*
D14*
X106698999Y-50241999D03*
D12*
X105798999Y-49606999D03*
D13*
X105598999Y-50141999D03*
D14*
X105898999Y-50241999D03*
D15*
X104848999Y-51156999D03*
X104848999Y-51656999D03*
D16*
X105548999Y-52406999D03*
D17*
X106048999Y-52356999D03*
X106548999Y-52356999D03*
D16*
X107048999Y-52406999D03*
D15*
X107748999Y-51656999D03*
X107748999Y-51156999D03*
%TD*%
D10*
%TO.C,R27*%
X88700000Y-69610000D03*
X88700000Y-68590000D03*
%TD*%
D18*
%TO.C,C28*%
X96492000Y-61849000D03*
X95532000Y-61849000D03*
%TD*%
D10*
%TO.C,R39*%
X84400000Y-76010000D03*
X84400000Y-74990000D03*
%TD*%
%TO.C,R38*%
X89600000Y-73810000D03*
X89600000Y-72790000D03*
%TD*%
D11*
%TO.C,R6*%
X95502000Y-60706000D03*
X96522000Y-60706000D03*
%TD*%
%TO.C,R12*%
X85590000Y-48500000D03*
X86610000Y-48500000D03*
%TD*%
D19*
%TO.C,C18*%
X109220000Y-52423000D03*
X109220000Y-51463000D03*
%TD*%
D10*
%TO.C,R41*%
X88300000Y-76010000D03*
X88300000Y-74990000D03*
%TD*%
D20*
%TO.C,R30*%
X84600000Y-52990000D03*
X84600000Y-54010000D03*
%TD*%
D10*
%TO.C,R26*%
X89899999Y-69610000D03*
X89899999Y-68590000D03*
%TD*%
D21*
%TO.C,C49*%
X102870000Y-62751000D03*
X102870000Y-61201000D03*
%TD*%
D10*
%TO.C,R40*%
X85700000Y-76010000D03*
X85700000Y-74990000D03*
%TD*%
D21*
%TO.C,C42*%
X98298000Y-54496000D03*
X98298000Y-52946000D03*
%TD*%
%TO.C,C39*%
X98298000Y-46241000D03*
X98298000Y-44691000D03*
%TD*%
D11*
%TO.C,R14*%
X90190000Y-48500000D03*
X91210000Y-48500000D03*
%TD*%
D21*
%TO.C,C50*%
X98298000Y-71006000D03*
X98298000Y-69456000D03*
%TD*%
D11*
%TO.C,R10*%
X95502000Y-77216000D03*
X96522000Y-77216000D03*
%TD*%
D22*
%TO.C,C11*%
X91900000Y-53520000D03*
X91900000Y-54480000D03*
%TD*%
D21*
%TO.C,C38*%
X99822000Y-46241000D03*
X99822000Y-44691000D03*
%TD*%
D20*
%TO.C,R33*%
X87000000Y-52990000D03*
X87000000Y-54010000D03*
%TD*%
D23*
%TO.C,R31*%
X84510000Y-55200000D03*
X83490000Y-55200000D03*
%TD*%
D21*
%TO.C,C44*%
X101346000Y-54496000D03*
X101346000Y-52946000D03*
%TD*%
D11*
%TO.C,R4*%
X95502000Y-52451000D03*
X96522000Y-52451000D03*
%TD*%
D24*
%TO.C,C35*%
X104930000Y-72898000D03*
X105890000Y-72898000D03*
%TD*%
%TO.C,C23*%
X105819000Y-56388000D03*
X106779000Y-56388000D03*
%TD*%
D23*
%TO.C,R11*%
X96522000Y-71247000D03*
X95502000Y-71247000D03*
%TD*%
D21*
%TO.C,C48*%
X101346000Y-62751000D03*
X101346000Y-61201000D03*
%TD*%
D19*
%TO.C,C36*%
X108331000Y-77188000D03*
X108331000Y-76228000D03*
%TD*%
D22*
%TO.C,C72*%
X87000000Y-75020000D03*
X87000000Y-75980000D03*
%TD*%
D10*
%TO.C,R20*%
X85100000Y-69610000D03*
X85100000Y-68590000D03*
%TD*%
D20*
%TO.C,R29*%
X83400000Y-52990000D03*
X83400000Y-54010000D03*
%TD*%
D19*
%TO.C,C30*%
X109220000Y-68806000D03*
X109220000Y-67846000D03*
%TD*%
D21*
%TO.C,C40*%
X101346000Y-46241000D03*
X101346000Y-44691000D03*
%TD*%
D11*
%TO.C,R18*%
X83290000Y-48500000D03*
X84310000Y-48500000D03*
%TD*%
D21*
%TO.C,C53*%
X102870000Y-71006000D03*
X102870000Y-69456000D03*
%TD*%
D10*
%TO.C,R42*%
X89600000Y-76010000D03*
X89600000Y-74990000D03*
%TD*%
%TO.C,R36*%
X85700000Y-73810000D03*
X85700000Y-72790000D03*
%TD*%
D22*
%TO.C,C71*%
X90900000Y-72820000D03*
X90900000Y-73780000D03*
%TD*%
D12*
%TO.C,U4*%
X106798999Y-66116999D03*
D13*
X106998999Y-66651999D03*
D14*
X106698999Y-66751999D03*
D12*
X105798999Y-66116999D03*
D13*
X105598999Y-66651999D03*
D14*
X105898999Y-66751999D03*
D15*
X104848999Y-67666999D03*
X104848999Y-68166999D03*
D16*
X105548999Y-68916999D03*
D17*
X106048999Y-68866999D03*
X106548999Y-68866999D03*
D16*
X107048999Y-68916999D03*
D15*
X107748999Y-68166999D03*
X107748999Y-67666999D03*
%TD*%
D20*
%TO.C,R32*%
X85800000Y-52990000D03*
X85800000Y-54010000D03*
%TD*%
D21*
%TO.C,C43*%
X99822000Y-54496000D03*
X99822000Y-52946000D03*
%TD*%
D10*
%TO.C,R21*%
X83900000Y-69610000D03*
X83900000Y-68590000D03*
%TD*%
D11*
%TO.C,R19*%
X83290000Y-49700000D03*
X84310000Y-49700000D03*
%TD*%
%TO.C,R28*%
X88790000Y-67400000D03*
X89810000Y-67400000D03*
%TD*%
D21*
%TO.C,C52*%
X101346000Y-71006000D03*
X101346000Y-69456000D03*
%TD*%
D11*
%TO.C,R17*%
X87890000Y-49700000D03*
X88910000Y-49700000D03*
%TD*%
D12*
%TO.C,U6*%
X105909999Y-74371999D03*
D13*
X106109999Y-74906999D03*
D14*
X105809999Y-75006999D03*
D12*
X104909999Y-74371999D03*
D13*
X104709999Y-74906999D03*
D14*
X105009999Y-75006999D03*
D15*
X103959999Y-75921999D03*
X103959999Y-76421999D03*
D16*
X104659999Y-77171999D03*
D17*
X105159999Y-77121999D03*
X105659999Y-77121999D03*
D16*
X106159999Y-77171999D03*
D15*
X106859999Y-76421999D03*
X106859999Y-75921999D03*
%TD*%
D11*
%TO.C,R13*%
X85590000Y-49700000D03*
X86610000Y-49700000D03*
%TD*%
D23*
%TO.C,R5*%
X96522000Y-46609000D03*
X95502000Y-46609000D03*
%TD*%
D21*
%TO.C,C41*%
X102870000Y-46241000D03*
X102870000Y-44691000D03*
%TD*%
D19*
%TO.C,C24*%
X109220000Y-60678000D03*
X109220000Y-59718000D03*
%TD*%
D10*
%TO.C,R23*%
X87500000Y-69610000D03*
X87500000Y-68590000D03*
%TD*%
%TO.C,R35*%
X84400000Y-73810000D03*
X84400000Y-72790000D03*
%TD*%
D18*
%TO.C,C22*%
X96492000Y-53594000D03*
X95532000Y-53594000D03*
%TD*%
%TO.C,C67*%
X91180000Y-50900000D03*
X90220000Y-50900000D03*
%TD*%
D12*
%TO.C,U3*%
X106798999Y-57861999D03*
D13*
X106998999Y-58396999D03*
D14*
X106698999Y-58496999D03*
D12*
X105798999Y-57861999D03*
D13*
X105598999Y-58396999D03*
D14*
X105898999Y-58496999D03*
D15*
X104848999Y-59411999D03*
X104848999Y-59911999D03*
D16*
X105548999Y-60661999D03*
D17*
X106048999Y-60611999D03*
X106548999Y-60611999D03*
D16*
X107048999Y-60661999D03*
D15*
X107748999Y-59911999D03*
X107748999Y-59411999D03*
%TD*%
D18*
%TO.C,C68*%
X88880000Y-50900000D03*
X87920000Y-50900000D03*
%TD*%
D24*
%TO.C,C17*%
X105819000Y-48133000D03*
X106779000Y-48133000D03*
%TD*%
D23*
%TO.C,R7*%
X96522000Y-54737000D03*
X95502000Y-54737000D03*
%TD*%
D18*
%TO.C,C34*%
X96492000Y-70104000D03*
X95532000Y-70104000D03*
%TD*%
%TO.C,C16*%
X96492000Y-45466000D03*
X95532000Y-45466000D03*
%TD*%
D25*
%TO.C,X1*%
X90425000Y-53475000D03*
X88575000Y-53475000D03*
X88575000Y-54925000D03*
X90425000Y-54925000D03*
%TD*%
D18*
%TO.C,C66*%
X86580000Y-50900000D03*
X85620000Y-50900000D03*
%TD*%
D23*
%TO.C,R34*%
X86910000Y-55200000D03*
X85890000Y-55200000D03*
%TD*%
%TO.C,R9*%
X96522000Y-62992000D03*
X95502000Y-62992000D03*
%TD*%
D11*
%TO.C,R25*%
X86390000Y-67400000D03*
X87410000Y-67400000D03*
%TD*%
D21*
%TO.C,C51*%
X99822000Y-71006000D03*
X99822000Y-69456000D03*
%TD*%
D11*
%TO.C,R22*%
X83990000Y-67400000D03*
X85010000Y-67400000D03*
%TD*%
%TO.C,R8*%
X95502000Y-68961000D03*
X96522000Y-68961000D03*
%TD*%
D22*
%TO.C,C73*%
X90900000Y-75020000D03*
X90900000Y-75980000D03*
%TD*%
D21*
%TO.C,C46*%
X98298000Y-62751000D03*
X98298000Y-61201000D03*
%TD*%
D24*
%TO.C,C29*%
X105819000Y-64643000D03*
X106779000Y-64643000D03*
%TD*%
D21*
%TO.C,C45*%
X102870000Y-54496000D03*
X102870000Y-52946000D03*
%TD*%
D11*
%TO.C,R16*%
X87890000Y-48500000D03*
X88910000Y-48500000D03*
%TD*%
D18*
%TO.C,C69*%
X84280000Y-50900000D03*
X83320000Y-50900000D03*
%TD*%
D22*
%TO.C,C70*%
X87000000Y-72820000D03*
X87000000Y-73780000D03*
%TD*%
D21*
%TO.C,C47*%
X99822000Y-62751000D03*
X99822000Y-61201000D03*
%TD*%
D10*
%TO.C,R37*%
X88300000Y-73810000D03*
X88300000Y-72790000D03*
%TD*%
M02*
